<svg width="1261" height="193" viewBox="0 0 1261 193" fill="none" xmlns="http://www.w3.org/2000/svg">
<rect x="0.5" y="63.5" width="403" height="129" fill="white" stroke="#01875F"/>
<rect x="428.5" y="63.5" width="403" height="129" fill="white" stroke="#01875F"/>
<rect x="857.5" y="63.5" width="403" height="129" fill="white" stroke="#01875F"/>
<rect x="0.5" y="0.5" width="403" height="62" fill="#F7F7F7" stroke="#01875F"/>
<rect x="428.5" y="0.5" width="403" height="62" fill="#F7F7F7" stroke="#01875F"/>
<rect x="857.5" y="0.5" width="403" height="62" fill="#F7F7F7" stroke="#01875F"/>
<path d="M188.597 27.0718C188.597 28.7808 188.353 30.4328 187.864 32.0278C187.384 33.6147 186.672 35.0308 185.728 36.2759C184.792 37.521 183.669 38.4528 182.359 39.0713L180.528 36.6177C181.724 36.0562 182.741 35.2627 183.58 34.2373C184.426 33.2119 185.061 32.0807 185.484 30.8438C185.907 29.6068 186.123 28.3494 186.131 27.0718V24.4839H188.597V27.0718ZM189.256 27.0718C189.248 28.2518 189.451 29.4237 189.866 30.5874C190.281 31.7511 190.896 32.8213 191.709 33.7979C192.531 34.7663 193.528 35.519 194.7 36.0562L192.967 38.4976C191.657 37.9035 190.538 37.0124 189.61 35.8242C188.69 34.6361 187.99 33.2852 187.51 31.7715C187.03 30.2497 186.79 28.6831 186.79 27.0718V24.4839H189.256V27.0718ZM193.736 25.7168H181.419V23.1777H193.736V25.7168ZM198.582 43.2461H195.457V21.0049H198.582V43.2461ZM201.878 32.1133H197.898V29.5132H201.878V32.1133ZM214.537 22.4209C214.537 24.3984 214.134 26.1644 213.328 27.7188C212.522 29.265 211.338 30.5833 209.776 31.6738C208.222 32.7643 206.321 33.6107 204.075 34.2129L202.916 31.7349C204.722 31.2629 206.252 30.6403 207.505 29.8672C208.759 29.0941 209.699 28.2111 210.325 27.2183C210.96 26.2173 211.277 25.139 211.277 23.9834V22.4209H214.537ZM213.255 24.9355H204.148V22.4209H213.255V24.9355ZM221.385 43.1851H218.284V37.582H206.126V35.1528H221.385V43.1851ZM221.385 34.2373H218.284V21.0537H221.385V34.2373ZM218.797 27.0962H213.462V24.6426H218.797V27.0962ZM218.589 31.8203H213.218V29.3423H218.589V31.8203Z" fill="#01875F"/>
<path d="M628.254 43.2461H625.325V21.0049H628.254V43.2461ZM626.033 32.1011H622.261V29.6108H626.033V32.1011ZM623.176 42.1719H620.32V21.4077H623.176V42.1719ZM611.238 35.6167C612.865 35.6167 614.261 35.5801 615.425 35.5068C616.589 35.4336 617.785 35.2871 619.014 35.0674L619.233 37.5942C617.996 37.8384 616.78 38.0011 615.583 38.0825C614.395 38.1558 612.947 38.2005 611.238 38.2168H609.675V35.6167H611.238ZM617.976 26.1074H612.8V36.874H609.675V23.605H617.976V26.1074ZM638.167 24.2153C638.167 25.729 637.939 27.1328 637.483 28.4268C637.035 29.7207 636.352 30.8478 635.432 31.8081C634.513 32.7603 633.373 33.4683 632.014 33.9321L630.342 31.4907C631.53 31.0838 632.519 30.5101 633.308 29.7695C634.097 29.0208 634.679 28.1745 635.054 27.2305C635.428 26.2865 635.619 25.2814 635.627 24.2153V22.2012H638.167V24.2153ZM638.752 24.5205C638.752 25.4564 638.936 26.3394 639.302 27.1694C639.676 27.9995 640.242 28.7401 640.999 29.3911C641.764 30.034 642.712 30.5345 643.843 30.8926L642.183 33.3096C640.881 32.8783 639.786 32.2313 638.899 31.3687C638.012 30.4979 637.345 29.4806 636.897 28.3169C636.449 27.1532 636.23 25.8877 636.238 24.5205V22.2012H638.752V24.5205ZM648.286 34.2007H645.173V21.0049H648.286V34.2007ZM651.289 28.8174H647.407V26.2173H651.289V28.8174ZM640.999 34.6523C642.528 34.6523 643.855 34.8232 644.978 35.165C646.109 35.4987 646.976 35.991 647.578 36.6421C648.188 37.285 648.494 38.05 648.494 38.937C648.494 39.8403 648.188 40.6134 647.578 41.2563C646.976 41.8993 646.109 42.3916 644.978 42.7334C643.855 43.0752 642.528 43.2461 640.999 43.2461C639.444 43.2461 638.093 43.0752 636.946 42.7334C635.806 42.3916 634.928 41.8993 634.309 41.2563C633.691 40.6134 633.381 39.8403 633.381 38.937C633.381 38.05 633.691 37.285 634.309 36.6421C634.928 35.991 635.806 35.4987 636.946 35.165C638.093 34.8232 639.444 34.6523 640.999 34.6523ZM640.999 37.0938C640.03 37.0856 639.212 37.1548 638.545 37.3013C637.878 37.4396 637.369 37.6471 637.019 37.9238C636.677 38.2005 636.51 38.5382 636.519 38.937C636.51 39.3521 636.677 39.6979 637.019 39.9746C637.361 40.2513 637.861 40.4588 638.521 40.5972C639.188 40.7355 640.014 40.8047 640.999 40.8047C641.967 40.8047 642.781 40.7355 643.44 40.5972C644.099 40.4588 644.596 40.2513 644.929 39.9746C645.263 39.6979 645.43 39.3521 645.43 38.937C645.43 38.5382 645.259 38.2005 644.917 37.9238C644.583 37.639 644.087 37.4274 643.428 37.2891C642.769 37.1507 641.959 37.0856 640.999 37.0938Z" fill="#01875F"/>
<path d="M1020.87 33.1143H1005.02V30.6118H1020.87V33.1143ZM1023.07 40.707H1002.76V38.2168H1023.07V40.707ZM1014.46 38.9126H1011.34V32.0645H1014.46V38.9126ZM1008.21 31.6738H1005.02V22.7261H1008.21V31.6738ZM1042.95 37.0205H1039.83V21.0537H1042.95V37.0205ZM1043.56 42.8677H1028.07V40.353H1043.56V42.8677ZM1031.22 41.3784H1028.07V35.4214H1031.22V41.3784ZM1030.78 22.4575C1031.9 22.4575 1032.93 22.6976 1033.85 23.1777C1034.79 23.6579 1035.52 24.3252 1036.05 25.1797C1036.59 26.0342 1036.86 26.9904 1036.86 28.0483C1036.86 29.1307 1036.59 30.1032 1036.05 30.9658C1035.52 31.8203 1034.79 32.4917 1033.87 32.98C1032.94 33.4601 1031.91 33.7002 1030.78 33.7002C1029.65 33.7002 1028.62 33.4601 1027.69 32.98C1026.77 32.4917 1026.04 31.8203 1025.5 30.9658C1024.97 30.1032 1024.7 29.1307 1024.7 28.0483C1024.7 26.9904 1024.97 26.0342 1025.5 25.1797C1026.04 24.3252 1026.77 23.6579 1027.69 23.1777C1028.62 22.6976 1029.65 22.4575 1030.78 22.4575ZM1030.78 25.1675C1030.2 25.1675 1029.68 25.2855 1029.21 25.5215C1028.76 25.7493 1028.4 26.083 1028.13 26.5225C1027.87 26.9538 1027.74 27.4624 1027.74 28.0483C1027.74 28.6587 1027.87 29.1836 1028.13 29.623C1028.4 30.0625 1028.76 30.4002 1029.21 30.6362C1029.68 30.8722 1030.2 30.9862 1030.78 30.978C1031.35 30.9862 1031.86 30.8722 1032.3 30.6362C1032.76 30.4002 1033.12 30.0625 1033.38 29.623C1033.64 29.1836 1033.77 28.6587 1033.77 28.0483C1033.77 27.4624 1033.64 26.9538 1033.38 26.5225C1033.12 26.083 1032.76 25.7493 1032.3 25.5215C1031.85 25.2855 1031.34 25.1675 1030.78 25.1675ZM1053.76 24.2031C1053.76 25.7249 1053.53 27.1369 1053.06 28.439C1052.59 29.741 1051.88 30.8763 1050.93 31.8447C1049.99 32.805 1048.82 33.5212 1047.42 33.9932L1045.76 31.4907C1046.98 31.1001 1048.01 30.5345 1048.82 29.7939C1049.64 29.0452 1050.24 28.1948 1050.63 27.2427C1051.02 26.2905 1051.22 25.2773 1051.22 24.2031V22.189H1053.76V24.2031ZM1054.36 24.0444C1054.35 25.078 1054.53 26.0423 1054.89 26.9375C1055.25 27.8245 1055.81 28.6139 1056.57 29.3057C1057.34 29.9974 1058.3 30.5223 1059.45 30.8804L1057.78 33.3096C1056.44 32.8457 1055.34 32.1662 1054.46 31.271C1053.58 30.3758 1052.92 29.3219 1052.49 28.1094C1052.07 26.8887 1051.86 25.5337 1051.86 24.0444V22.189H1054.36V24.0444ZM1064.69 34.042H1061.59V21.0049H1064.69V34.042ZM1057.1 34.6279C1058.67 34.6279 1060.04 34.7988 1061.19 35.1406C1062.33 35.4743 1063.21 35.9666 1063.82 36.6177C1064.44 37.2687 1064.75 38.0459 1064.76 38.9492C1064.75 39.8525 1064.44 40.6257 1063.82 41.2686C1063.21 41.9196 1062.33 42.4119 1061.19 42.7456C1060.04 43.0793 1058.67 43.2461 1057.1 43.2461C1055.53 43.2461 1054.17 43.0793 1053.02 42.7456C1051.88 42.4119 1051 41.9196 1050.38 41.2686C1049.77 40.6257 1049.47 39.8525 1049.47 38.9492C1049.47 38.0459 1049.77 37.2687 1050.38 36.6177C1051 35.9666 1051.88 35.4743 1053.02 35.1406C1054.17 34.7988 1055.53 34.6279 1057.1 34.6279ZM1057.1 37.0327C1056.1 37.0409 1055.27 37.1141 1054.61 37.2524C1053.94 37.3908 1053.43 37.6024 1053.08 37.8872C1052.73 38.172 1052.55 38.526 1052.55 38.9492C1052.55 39.3561 1052.73 39.6979 1053.08 39.9746C1053.43 40.2513 1053.94 40.4629 1054.61 40.6094C1055.28 40.7559 1056.11 40.8291 1057.1 40.8291C1058.09 40.8291 1058.92 40.7559 1059.6 40.6094C1060.27 40.4629 1060.78 40.2513 1061.12 39.9746C1061.47 39.6979 1061.65 39.3561 1061.65 38.9492C1061.65 38.526 1061.48 38.172 1061.14 37.8872C1060.79 37.6024 1060.28 37.3908 1059.6 37.2524C1058.92 37.1141 1058.09 37.0409 1057.1 37.0327ZM1062.02 27.6455H1057.41V25.1064H1062.02V27.6455ZM1091.92 32.4307H1088.83V21.0049H1091.92V32.4307ZM1091.95 39.2422H1080.14V41.6226H1077.1V37.0205H1088.85V35.6655H1077.05V33.3096H1091.95V39.2422ZM1092.56 43.0874H1077.1V40.6948H1092.56V43.0874ZM1081.4 24.0322C1081.39 25.3669 1081.14 26.612 1080.66 27.7676C1080.17 28.9232 1079.43 29.9323 1078.46 30.7949C1077.48 31.6494 1076.29 32.276 1074.88 32.6748L1073.47 30.2212C1074.65 29.8875 1075.64 29.3993 1076.44 28.7563C1077.26 28.1053 1077.86 27.377 1078.25 26.5713C1078.65 25.7575 1078.85 24.9111 1078.85 24.0322V23.1045H1081.4V24.0322ZM1082.01 24.0322C1082.01 24.8623 1082.21 25.6558 1082.6 26.4126C1082.99 27.1694 1083.58 27.849 1084.38 28.4512C1085.18 29.0452 1086.16 29.4969 1087.33 29.8062L1085.86 32.2231C1084.47 31.8407 1083.31 31.2466 1082.36 30.4409C1081.42 29.6271 1080.71 28.6709 1080.23 27.5723C1079.76 26.4736 1079.52 25.2936 1079.53 24.0322V23.1045H1082.01V24.0322ZM1086.49 24.5327H1074.27V22.0547H1086.49V24.5327ZM1111.27 26.7544H1105.74V24.313H1111.27V26.7544ZM1111.27 31.332H1105.74V28.8418H1111.27V31.332ZM1099.04 25.375H1103.41V22.3843H1106.5V33.0288H1095.9V22.3843H1099.04V25.375ZM1103.41 30.5996V27.7676H1099.04V30.5996H1103.41ZM1113.69 34.3105H1110.59V21.0049H1113.69V34.3105ZM1106.09 34.6768C1107.67 34.6849 1109.04 34.8599 1110.18 35.2017C1111.34 35.5353 1112.22 36.0277 1112.83 36.6787C1113.44 37.3216 1113.75 38.0947 1113.76 38.998C1113.75 39.8851 1113.44 40.646 1112.82 41.2808C1112.21 41.9237 1111.33 42.4119 1110.18 42.7456C1109.04 43.0793 1107.67 43.2461 1106.09 43.2461C1104.52 43.2461 1103.17 43.0793 1102.02 42.7456C1100.88 42.4119 1100 41.9237 1099.38 41.2808C1098.77 40.646 1098.47 39.8851 1098.47 38.998C1098.47 38.0947 1098.77 37.3216 1099.38 36.6787C1100 36.0277 1100.88 35.5353 1102.02 35.2017C1103.17 34.8599 1104.52 34.6849 1106.09 34.6768ZM1106.09 37.0693C1105.1 37.0612 1104.27 37.1304 1103.6 37.2769C1102.94 37.4152 1102.43 37.6268 1102.08 37.9116C1101.73 38.1965 1101.55 38.5586 1101.55 38.998C1101.55 39.4049 1101.73 39.7508 1102.08 40.0356C1102.43 40.3123 1102.94 40.5199 1103.6 40.6582C1104.27 40.7965 1105.1 40.8698 1106.09 40.8779C1107.09 40.8698 1107.92 40.7965 1108.6 40.6582C1109.28 40.5199 1109.79 40.3123 1110.14 40.0356C1110.48 39.7508 1110.65 39.4049 1110.65 38.998C1110.65 38.5586 1110.48 38.1965 1110.14 37.9116C1109.79 37.6268 1109.28 37.4152 1108.61 37.2769C1107.93 37.1304 1107.1 37.0612 1106.09 37.0693Z" fill="#01875F"/>
<path d="M28.6196 123.084C28.6141 124.069 28.4536 124.988 28.1382 125.84C27.8228 126.687 27.3385 127.426 26.6855 128.057C26.0381 128.688 25.2412 129.155 24.2949 129.459L23.2324 127.791C24.0404 127.531 24.7183 127.157 25.2661 126.67C25.814 126.178 26.2179 125.625 26.478 125.01C26.7437 124.396 26.8792 123.754 26.8848 123.084V122.097H28.6196V123.084ZM29.0264 123.076C29.0264 123.69 29.1509 124.274 29.3999 124.828C29.6489 125.375 30.0335 125.868 30.5537 126.305C31.0739 126.737 31.7241 127.069 32.5044 127.301L31.5083 128.953C30.5786 128.676 29.8011 128.248 29.1758 127.667C28.5505 127.08 28.0801 126.396 27.7646 125.616C27.4548 124.83 27.2998 123.984 27.2998 123.076V122.097H29.0264V123.076ZM32.0396 123.118H23.8052V121.424H32.0396V123.118ZM35.4346 129.376H33.3179V120.403H35.4346V129.376ZM37.4766 125.649H34.8369V123.923H37.4766V125.649ZM30.479 129.675C31.5249 129.675 32.4297 129.792 33.1934 130.024C33.9626 130.251 34.5519 130.583 34.9614 131.02C35.3709 131.457 35.5757 131.98 35.5757 132.589C35.5757 133.198 35.3709 133.721 34.9614 134.158C34.5519 134.6 33.9626 134.938 33.1934 135.17C32.4297 135.408 31.5249 135.527 30.479 135.527C29.422 135.527 28.5034 135.408 27.7231 135.17C26.9429 134.938 26.3424 134.6 25.9219 134.158C25.5068 133.721 25.2993 133.198 25.2993 132.589C25.2993 131.98 25.5068 131.457 25.9219 131.02C26.3424 130.583 26.9401 130.251 27.7148 130.024C28.4951 129.792 29.4165 129.675 30.479 129.675ZM30.479 131.319C29.8205 131.319 29.2616 131.366 28.8022 131.46C28.3485 131.554 28.0054 131.698 27.7729 131.892C27.5405 132.08 27.4271 132.312 27.4326 132.589C27.4271 132.877 27.5405 133.117 27.7729 133.311C28.0054 133.499 28.3485 133.643 28.8022 133.743C29.256 133.837 29.8149 133.884 30.479 133.884C31.1375 133.884 31.6882 133.837 32.1309 133.743C32.5791 133.643 32.9167 133.499 33.1436 133.311C33.376 133.117 33.4922 132.877 33.4922 132.589C33.4922 132.307 33.376 132.071 33.1436 131.883C32.9167 131.695 32.5791 131.554 32.1309 131.46C31.6882 131.366 31.1375 131.319 30.479 131.319ZM50.8408 135.527H48.6909V120.403H50.8408V135.527ZM46.3169 121.997C46.3114 123.618 46.0928 125.09 45.6611 126.413C45.2295 127.73 44.4963 128.942 43.4614 130.049C42.4266 131.156 41.0404 132.118 39.3027 132.938L38.1904 131.244C39.6403 130.558 40.8052 129.786 41.6851 128.928C42.5705 128.07 43.2124 127.108 43.6108 126.04C44.0093 124.972 44.2085 123.749 44.2085 122.371V121.997H46.3169ZM45.1797 123.666H38.9956V121.997H45.1797V123.666ZM58.021 132.348H55.9209V128.106H58.021V132.348ZM63.5825 132.348H61.4492V128.106H63.5825V132.348ZM66.6538 133.759H52.8413V132.024H66.6538V133.759ZM59.7227 121.15C60.8128 121.15 61.7868 121.319 62.6445 121.657C63.5078 121.994 64.1829 122.47 64.6699 123.084C65.1624 123.699 65.4087 124.404 65.4087 125.201C65.4087 126.009 65.1652 126.717 64.6782 127.326C64.1912 127.935 63.5161 128.408 62.6528 128.746C61.7896 129.083 60.8128 129.252 59.7227 129.252C58.6325 129.252 57.6558 129.083 56.7925 128.746C55.9347 128.408 55.2624 127.935 54.7754 127.326C54.2884 126.717 54.0449 126.009 54.0449 125.201C54.0449 124.404 54.2884 123.699 54.7754 123.084C55.2624 122.47 55.9347 121.994 56.7925 121.657C57.6558 121.319 58.6325 121.15 59.7227 121.15ZM59.7227 122.827C58.9977 122.822 58.3669 122.913 57.8301 123.101C57.2933 123.289 56.8755 123.563 56.5767 123.923C56.2834 124.283 56.1367 124.709 56.1367 125.201C56.1367 125.694 56.2834 126.123 56.5767 126.488C56.8755 126.847 57.2933 127.124 57.8301 127.318C58.3724 127.512 59.0033 127.611 59.7227 127.617C60.4365 127.611 61.0646 127.512 61.6069 127.318C62.1493 127.119 62.5698 126.839 62.8687 126.479C63.1675 126.12 63.3169 125.694 63.3169 125.201C63.3169 124.709 63.1675 124.283 62.8687 123.923C62.5698 123.563 62.1493 123.289 61.6069 123.101C61.0646 122.913 60.4365 122.822 59.7227 122.827ZM81.479 124.031H78.856V122.304H81.479V124.031ZM81.479 127.326H78.856V125.583H81.479V127.326ZM71.7671 121.25C72.5418 121.25 73.2419 121.402 73.8672 121.707C74.498 122.011 74.9933 122.445 75.353 123.01C75.7127 123.569 75.8953 124.2 75.9009 124.902C75.8953 125.605 75.7127 126.233 75.353 126.787C74.9933 127.34 74.498 127.774 73.8672 128.09C73.2419 128.405 72.5418 128.563 71.7671 128.563C70.9924 128.563 70.2896 128.405 69.6587 128.09C69.0278 127.769 68.5298 127.332 68.1646 126.778C67.8049 126.225 67.625 125.6 67.625 124.902C67.625 124.2 67.8049 123.569 68.1646 123.01C68.5298 122.445 69.0278 122.011 69.6587 121.707C70.2896 121.402 70.9924 121.25 71.7671 121.25ZM71.7671 123.026C71.3742 123.021 71.02 123.096 70.7046 123.25C70.3947 123.4 70.1512 123.618 69.9741 123.906C69.797 124.194 69.7085 124.526 69.7085 124.902C69.7085 125.29 69.797 125.625 69.9741 125.907C70.1512 126.189 70.3947 126.405 70.7046 126.554C71.02 126.704 71.3742 126.778 71.7671 126.778C72.16 126.778 72.5114 126.704 72.8213 126.554C73.1367 126.405 73.383 126.189 73.5601 125.907C73.7427 125.625 73.834 125.29 73.834 124.902C73.834 124.526 73.7427 124.194 73.5601 123.906C73.383 123.618 73.1367 123.4 72.8213 123.25C72.5114 123.096 72.16 123.021 71.7671 123.026ZM79.5117 129.252H77.395V120.403H79.5117V129.252ZM74.5562 129.559C75.591 129.559 76.493 129.678 77.2622 129.916C78.0314 130.154 78.6208 130.5 79.0303 130.954C79.4453 131.402 79.6528 131.936 79.6528 132.556C79.6528 133.17 79.4453 133.698 79.0303 134.141C78.6208 134.584 78.0314 134.924 77.2622 135.162C76.493 135.406 75.591 135.527 74.5562 135.527C73.5103 135.527 72.5972 135.406 71.8169 135.162C71.0366 134.924 70.4334 134.584 70.0073 134.141C69.5868 133.698 69.3765 133.17 69.3765 132.556C69.3765 131.936 69.5868 131.402 70.0073 130.954C70.4334 130.5 71.0366 130.154 71.8169 129.916C72.5972 129.678 73.5103 129.559 74.5562 129.559ZM74.5562 131.228C73.8976 131.233 73.3415 131.286 72.8877 131.385C72.4339 131.479 72.0881 131.626 71.8501 131.825C71.6177 132.019 71.5042 132.262 71.5098 132.556C71.5042 132.849 71.6177 133.09 71.8501 133.278C72.0825 133.466 72.4229 133.61 72.8711 133.709C73.3249 133.804 73.8866 133.851 74.5562 133.851C75.2147 133.851 75.7681 133.804 76.2163 133.709C76.6646 133.61 77.0021 133.466 77.229 133.278C77.4559 133.09 77.5693 132.849 77.5693 132.556C77.5693 132.262 77.4531 132.019 77.2207 131.825C76.9938 131.626 76.6562 131.479 76.208 131.385C75.7653 131.286 75.2147 131.233 74.5562 131.228ZM96.0386 133.768H82.2261V132.058H96.0386V133.768ZM90.145 132.481H88.0615V128.779H90.145V132.481ZM85.812 123.732H92.3945V121.375H94.5029V129.252H83.687V121.375H85.812V123.732ZM92.3945 127.559V125.409H85.812V127.559H92.3945ZM109.644 129.551H107.535V120.403H109.644V129.551ZM108.398 126.579H105.576V124.853H108.398V126.579ZM109.644 135.361H99.4917V130.198H109.644V135.361ZM101.608 133.66H107.577V131.858H101.608V133.66ZM105.85 123.425H96.9434V121.74H105.85V123.425ZM101.409 123.915C102.106 123.915 102.729 124.031 103.277 124.263C103.83 124.49 104.262 124.811 104.572 125.226C104.882 125.641 105.037 126.111 105.037 126.637C105.037 127.174 104.882 127.647 104.572 128.057C104.267 128.466 103.839 128.787 103.285 129.02C102.732 129.252 102.104 129.368 101.401 129.368C100.704 129.368 100.081 129.252 99.5332 129.02C98.9854 128.787 98.5537 128.466 98.2383 128.057C97.9284 127.647 97.7734 127.174 97.7734 126.637C97.7734 126.111 97.9284 125.641 98.2383 125.226C98.5537 124.811 98.9854 124.49 99.5332 124.263C100.087 124.031 100.712 123.915 101.409 123.915ZM101.401 125.508C101.074 125.508 100.789 125.553 100.546 125.641C100.308 125.724 100.123 125.851 99.9897 126.023C99.8625 126.194 99.7988 126.399 99.7988 126.637C99.7988 126.886 99.8625 127.097 99.9897 127.268C100.123 127.44 100.308 127.572 100.546 127.667C100.789 127.755 101.074 127.802 101.401 127.808C101.727 127.802 102.01 127.755 102.248 127.667C102.486 127.572 102.668 127.44 102.795 127.268C102.928 127.097 102.995 126.886 102.995 126.637C102.995 126.399 102.928 126.194 102.795 126.023C102.668 125.851 102.486 125.724 102.248 125.641C102.01 125.553 101.727 125.508 101.401 125.508ZM102.447 122.96H100.347V120.295H102.447V122.96ZM123.522 135.502H121.397V120.403H123.522V135.502ZM125.656 127.957H122.975V126.214H125.656V127.957ZM119.488 121.964C119.483 123.535 119.256 124.988 118.808 126.322C118.365 127.655 117.637 128.881 116.625 129.999C115.612 131.117 114.284 132.08 112.64 132.888L111.445 131.269C112.795 130.588 113.91 129.816 114.79 128.953C115.67 128.084 116.326 127.108 116.757 126.023C117.189 124.933 117.408 123.707 117.413 122.346V121.964H119.488ZM118.476 123.699H112.292V121.964H118.476V123.699ZM138.937 128.546H136.82V120.403H138.937V128.546ZM130.927 130.605H136.829V129.202H138.937V135.361H128.843V129.202H130.927V130.605ZM136.829 133.651V132.249H130.927V133.651H136.829ZM130.661 121.042C131.436 121.042 132.139 121.195 132.77 121.499C133.4 121.798 133.896 122.221 134.255 122.769C134.615 123.317 134.795 123.937 134.795 124.628C134.795 125.304 134.615 125.91 134.255 126.446C133.896 126.983 133.4 127.406 132.77 127.716C132.139 128.021 131.436 128.173 130.661 128.173C129.881 128.173 129.175 128.021 128.544 127.716C127.919 127.406 127.427 126.983 127.067 126.446C126.707 125.91 126.527 125.304 126.527 124.628C126.527 123.931 126.707 123.311 127.067 122.769C127.427 122.221 127.919 121.798 128.544 121.499C129.175 121.195 129.881 121.042 130.661 121.042ZM130.661 122.811C130.257 122.811 129.897 122.885 129.582 123.035C129.272 123.179 129.029 123.389 128.852 123.666C128.68 123.937 128.594 124.258 128.594 124.628C128.594 124.999 128.68 125.32 128.852 125.591C129.029 125.857 129.272 126.064 129.582 126.214C129.897 126.358 130.257 126.432 130.661 126.438C131.054 126.432 131.405 126.358 131.715 126.214C132.025 126.064 132.266 125.854 132.438 125.583C132.609 125.312 132.695 124.994 132.695 124.628C132.695 124.263 132.609 123.942 132.438 123.666C132.266 123.389 132.025 123.179 131.715 123.035C131.405 122.885 131.054 122.811 130.661 122.811ZM146.117 124.529C146.117 125.691 145.951 126.814 145.619 127.899C145.293 128.978 144.808 129.941 144.167 130.788C143.53 131.634 142.766 132.268 141.875 132.688L140.63 131.02C141.444 130.638 142.136 130.099 142.706 129.401C143.281 128.704 143.713 127.935 144 127.094C144.288 126.253 144.435 125.398 144.44 124.529V122.769H146.117V124.529ZM146.565 124.529C146.56 125.331 146.698 126.128 146.98 126.919C147.263 127.711 147.681 128.438 148.234 129.103C148.793 129.761 149.471 130.273 150.268 130.638L149.089 132.298C148.198 131.894 147.437 131.288 146.806 130.48C146.181 129.673 145.705 128.754 145.378 127.725C145.052 126.69 144.889 125.625 144.889 124.529V122.769H146.565V124.529ZM149.612 123.607H141.236V121.881H149.612V123.607ZM152.907 135.527H150.782V120.403H152.907V135.527ZM155.148 127.957H152.442V126.189H155.148V127.957ZM209.568 135.527H207.418V120.403H209.568V135.527ZM205.8 123.516H197.242V121.814H205.8V123.516ZM196.843 130.323C198.564 130.323 200.233 130.292 201.849 130.231C203.47 130.171 204.986 130.054 206.397 129.883L206.522 131.46C205.083 131.692 203.597 131.847 202.064 131.925C200.537 132.002 198.86 132.047 197.034 132.058L196.843 130.323ZM200.628 130.788H198.586V123.134H200.628V130.788ZM204.455 130.788H202.388V123.134H204.455V130.788ZM225.365 130.796H211.552V129.136H225.365V130.796ZM219.463 135.527H217.363V129.949H219.463V135.527ZM215.254 122.736H221.604V121.001H223.729V127.675H213.163V121.001H215.254V122.736ZM221.604 125.981V124.396H215.254V125.981H221.604ZM240.207 124.031H237.583V122.304H240.207V124.031ZM240.207 127.326H237.583V125.583H240.207V127.326ZM230.495 121.25C231.269 121.25 231.969 121.402 232.595 121.707C233.226 122.011 233.721 122.445 234.081 123.01C234.44 123.569 234.623 124.2 234.628 124.902C234.623 125.605 234.44 126.233 234.081 126.787C233.721 127.34 233.226 127.774 232.595 128.09C231.969 128.405 231.269 128.563 230.495 128.563C229.72 128.563 229.017 128.405 228.386 128.09C227.755 127.769 227.257 127.332 226.892 126.778C226.532 126.225 226.353 125.6 226.353 124.902C226.353 124.2 226.532 123.569 226.892 123.01C227.257 122.445 227.755 122.011 228.386 121.707C229.017 121.402 229.72 121.25 230.495 121.25ZM230.495 123.026C230.102 123.021 229.748 123.096 229.432 123.25C229.122 123.4 228.879 123.618 228.702 123.906C228.525 124.194 228.436 124.526 228.436 124.902C228.436 125.29 228.525 125.625 228.702 125.907C228.879 126.189 229.122 126.405 229.432 126.554C229.748 126.704 230.102 126.778 230.495 126.778C230.888 126.778 231.239 126.704 231.549 126.554C231.864 126.405 232.111 126.189 232.288 125.907C232.47 125.625 232.562 125.29 232.562 124.902C232.562 124.526 232.47 124.194 232.288 123.906C232.111 123.618 231.864 123.4 231.549 123.25C231.239 123.096 230.888 123.021 230.495 123.026ZM238.239 129.252H236.123V120.403H238.239V129.252ZM233.284 129.559C234.319 129.559 235.221 129.678 235.99 129.916C236.759 130.154 237.348 130.5 237.758 130.954C238.173 131.402 238.38 131.936 238.38 132.556C238.38 133.17 238.173 133.698 237.758 134.141C237.348 134.584 236.759 134.924 235.99 135.162C235.221 135.406 234.319 135.527 233.284 135.527C232.238 135.527 231.325 135.406 230.544 135.162C229.764 134.924 229.161 134.584 228.735 134.141C228.314 133.698 228.104 133.17 228.104 132.556C228.104 131.936 228.314 131.402 228.735 130.954C229.161 130.5 229.764 130.154 230.544 129.916C231.325 129.678 232.238 129.559 233.284 129.559ZM233.284 131.228C232.625 131.233 232.069 131.286 231.615 131.385C231.161 131.479 230.816 131.626 230.578 131.825C230.345 132.019 230.232 132.262 230.237 132.556C230.232 132.849 230.345 133.09 230.578 133.278C230.81 133.466 231.15 133.61 231.599 133.709C232.052 133.804 232.614 133.851 233.284 133.851C233.942 133.851 234.496 133.804 234.944 133.709C235.392 133.61 235.73 133.466 235.957 133.278C236.183 133.09 236.297 132.849 236.297 132.556C236.297 132.262 236.181 132.019 235.948 131.825C235.721 131.626 235.384 131.479 234.936 131.385C234.493 131.286 233.942 131.233 233.284 131.228ZM246.075 124.529C246.075 125.691 245.909 126.814 245.577 127.899C245.251 128.978 244.766 129.941 244.125 130.788C243.488 131.634 242.724 132.268 241.833 132.688L240.588 131.02C241.402 130.638 242.094 130.099 242.664 129.401C243.239 128.704 243.671 127.935 243.958 127.094C244.246 126.253 244.393 125.398 244.398 124.529V122.769H246.075V124.529ZM246.523 124.529C246.518 125.331 246.656 126.128 246.938 126.919C247.221 127.711 247.639 128.438 248.192 129.103C248.751 129.761 249.429 130.273 250.226 130.638L249.047 132.298C248.156 131.894 247.395 131.288 246.764 130.48C246.139 129.673 245.663 128.754 245.336 127.725C245.01 126.69 244.847 125.625 244.847 124.529V122.769H246.523V124.529ZM249.57 123.607H241.194V121.881H249.57V123.607ZM252.865 135.527H250.74V120.403H252.865V135.527ZM255.106 127.957H252.4V126.189H255.106V127.957ZM257.389 137.503H255.629L256.451 132.78H258.825L257.389 137.503ZM268.803 121.424C269.589 121.424 270.3 121.585 270.936 121.906C271.578 122.221 272.079 122.661 272.438 123.226C272.804 123.79 272.986 124.426 272.986 125.135C272.986 125.849 272.804 126.488 272.438 127.052C272.079 127.611 271.578 128.051 270.936 128.372C270.3 128.688 269.589 128.845 268.803 128.845C268.011 128.845 267.295 128.688 266.653 128.372C266.016 128.051 265.516 127.611 265.15 127.052C264.785 126.488 264.603 125.849 264.603 125.135C264.603 124.426 264.785 123.79 265.15 123.226C265.516 122.661 266.016 122.221 266.653 121.906C267.295 121.585 268.011 121.424 268.803 121.424ZM268.803 123.25C268.399 123.256 268.039 123.333 267.724 123.483C267.408 123.627 267.159 123.843 266.977 124.13C266.794 124.418 266.703 124.753 266.703 125.135C266.703 125.528 266.794 125.865 266.977 126.147C267.159 126.424 267.408 126.637 267.724 126.787C268.039 126.936 268.399 127.014 268.803 127.019C269.207 127.014 269.569 126.936 269.89 126.787C270.217 126.637 270.468 126.424 270.646 126.147C270.828 125.865 270.919 125.528 270.919 125.135C270.919 124.753 270.828 124.418 270.646 124.13C270.468 123.843 270.217 123.627 269.89 123.483C269.569 123.333 269.207 123.256 268.803 123.25ZM276.597 135.569H274.497V120.403H276.597V135.569ZM263.972 130.754C265.776 130.754 267.477 130.724 269.077 130.663C270.681 130.602 272.203 130.472 273.642 130.273L273.792 131.792C272.757 131.997 271.683 132.149 270.571 132.249C269.458 132.343 268.41 132.403 267.425 132.431C266.44 132.459 265.372 132.473 264.221 132.473L263.972 130.754ZM284.201 132.805H282.134V129.219H284.201V132.805ZM289.04 132.796H286.965V129.202H289.04V132.796ZM292.418 133.851H278.606V132.116H292.418V133.851ZM290.825 126.405H282.308V128.986H280.2V124.72H288.733V123.101H280.175V121.399H290.825V126.405ZM291.182 129.8H280.2V128.082H291.182V129.8ZM297.034 130.63H303.317V129.02H305.417V135.361H294.942V129.02H297.034V130.63ZM303.317 133.651V132.249H297.034V133.651H303.317ZM304.646 122.719H294.983V121.026H304.646V122.719ZM307.111 128.015H293.298V126.338H307.111V128.015ZM305.476 122.229C305.476 123.071 305.451 123.818 305.401 124.471C305.351 125.118 305.229 125.871 305.036 126.729L302.911 126.861C303.043 126.269 303.143 125.713 303.209 125.193C303.276 124.673 303.317 124.211 303.334 123.807C303.351 123.403 303.362 122.921 303.367 122.362V122.229V121.026H305.476V122.229ZM318.989 125.226H314.781V123.524H318.989V125.226ZM318.989 129.908H314.781V128.206H318.989V129.908ZM312.149 121.474C312.902 121.474 313.574 121.695 314.167 122.138C314.764 122.575 315.229 123.203 315.561 124.022C315.893 124.836 316.059 125.782 316.059 126.861C316.059 127.946 315.893 128.898 315.561 129.717C315.229 130.53 314.764 131.156 314.167 131.593C313.574 132.03 312.902 132.249 312.149 132.249C311.386 132.249 310.708 132.03 310.116 131.593C309.524 131.156 309.059 130.53 308.721 129.717C308.384 128.898 308.215 127.946 308.215 126.861C308.215 125.782 308.384 124.836 308.721 124.022C309.059 123.203 309.524 122.575 310.116 122.138C310.708 121.695 311.386 121.474 312.149 121.474ZM312.149 123.392C311.768 123.386 311.436 123.519 311.153 123.79C310.871 124.061 310.65 124.457 310.489 124.977C310.329 125.497 310.251 126.125 310.257 126.861C310.251 127.597 310.329 128.225 310.489 128.746C310.65 129.266 310.871 129.661 311.153 129.933C311.436 130.198 311.768 130.331 312.149 130.331C312.531 130.331 312.866 130.198 313.154 129.933C313.442 129.661 313.663 129.266 313.818 128.746C313.973 128.225 314.05 127.597 314.05 126.861C314.05 126.125 313.973 125.497 313.818 124.977C313.663 124.451 313.442 124.056 313.154 123.79C312.866 123.519 312.531 123.386 312.149 123.392ZM320.732 135.569H318.632V120.403H320.732V135.569ZM330.32 121.599C330.32 122.562 330.068 123.458 329.564 124.288C329.061 125.113 328.333 125.807 327.381 126.372C326.435 126.931 325.323 127.301 324.044 127.484L323.214 125.782C324.316 125.644 325.265 125.359 326.062 124.927C326.858 124.496 327.456 123.989 327.854 123.408C328.258 122.822 328.46 122.218 328.46 121.599V120.86H330.32V121.599ZM330.685 121.599C330.685 122.218 330.89 122.822 331.299 123.408C331.714 123.989 332.318 124.496 333.109 124.927C333.906 125.359 334.858 125.644 335.964 125.782L335.143 127.484C333.853 127.301 332.733 126.931 331.781 126.372C330.834 125.807 330.107 125.113 329.598 124.288C329.089 123.464 328.834 122.567 328.834 121.599V120.86H330.685V121.599ZM330.577 135.527H328.477V129.974H330.577V135.527ZM336.462 130.364H322.683V128.629H336.462V130.364ZM341.111 130.63H347.395V129.02H349.495V135.361H339.019V129.02H341.111V130.63ZM347.395 133.651V132.249H341.111V133.651H347.395ZM348.723 122.719H339.061V121.026H348.723V122.719ZM351.188 128.015H337.375V126.338H351.188V128.015ZM349.553 122.229C349.553 123.071 349.528 123.818 349.478 124.471C349.428 125.118 349.306 125.871 349.113 126.729L346.988 126.861C347.121 126.269 347.22 125.713 347.287 125.193C347.353 124.673 347.395 124.211 347.411 123.807C347.428 123.403 347.439 122.921 347.444 122.362V122.229V121.026H349.553V122.229ZM358.094 130.854H355.986V127.426H358.094V130.854ZM364.984 131.817H362.826V120.437H364.984V131.817ZM365.316 135.27H354.052V133.56H365.316V135.27ZM356.185 133.992H354.052V130.638H356.185V133.992ZM351.968 126.156C352.212 126.156 352.419 126.153 352.591 126.147C354.428 126.125 356.08 126.084 357.546 126.023C359.018 125.957 360.421 125.832 361.755 125.649L361.904 127.144C360.416 127.409 358.866 127.589 357.256 127.683C355.651 127.772 353.972 127.816 352.217 127.816L351.968 126.156ZM363.307 130.14H359.871V128.48H363.307V130.14ZM359.804 122.852H353.321V121.167H359.804V122.852ZM360.593 121.731C360.593 122.418 360.568 123.137 360.518 123.89C360.474 124.637 360.363 125.5 360.186 126.479L358.119 126.33C358.274 125.367 358.374 124.529 358.418 123.815C358.462 123.101 358.484 122.407 358.484 121.731V121.167H360.593V121.731ZM371.882 124.529C371.882 125.691 371.716 126.814 371.384 127.899C371.057 128.978 370.573 129.941 369.931 130.788C369.295 131.634 368.531 132.268 367.64 132.688L366.395 131.02C367.208 130.638 367.9 130.099 368.47 129.401C369.046 128.704 369.477 127.935 369.765 127.094C370.053 126.253 370.2 125.398 370.205 124.529V122.769H371.882V124.529ZM372.33 124.529C372.325 125.331 372.463 126.128 372.745 126.919C373.027 127.711 373.445 128.438 373.999 129.103C374.557 129.761 375.235 130.273 376.032 130.638L374.854 132.298C373.963 131.894 373.202 131.288 372.571 130.48C371.945 129.673 371.47 128.754 371.143 127.725C370.817 126.69 370.653 125.625 370.653 124.529V122.769H372.33V124.529ZM375.376 123.607H367.001V121.881H375.376V123.607ZM378.672 135.527H376.547V120.403H378.672V135.527ZM380.913 127.957H378.207V126.189H380.913V127.957Z" fill="#FF0000"/>
<path d="M167.757 127.691H160.386V121.325H167.757V127.691ZM162.461 126.04H165.666V122.985H162.461V126.04ZM172.24 128.986H170.14V120.403H172.24V128.986ZM167.882 131.12C167.882 131.856 167.647 132.531 167.176 133.145C166.706 133.759 166.02 134.274 165.118 134.689C164.216 135.104 163.145 135.372 161.905 135.494L161.183 133.9C162.218 133.812 163.103 133.621 163.839 133.328C164.581 133.034 165.134 132.694 165.5 132.307C165.865 131.914 166.047 131.518 166.047 131.12V130.912H167.882V131.12ZM168.247 131.12C168.247 131.507 168.43 131.894 168.795 132.282C169.166 132.669 169.716 133.012 170.447 133.311C171.183 133.604 172.065 133.801 173.095 133.9L172.389 135.494C171.144 135.378 170.07 135.107 169.168 134.681C168.272 134.26 167.589 133.74 167.118 133.12C166.653 132.495 166.424 131.828 166.429 131.12V130.912H168.247V131.12ZM172.514 131.385H161.797V129.816H172.514V131.385ZM168.206 130.563H166.081V128.571H168.206V130.563ZM189.331 123.516H179.669V121.806H189.331V123.516ZM192.029 133.535H178.25V131.817H192.029V133.535ZM190.327 123.715C190.327 124.612 190.316 125.381 190.294 126.023C190.277 126.665 190.23 127.395 190.153 128.214C190.075 129.028 189.954 129.916 189.788 130.879L187.638 130.705C187.815 129.814 187.942 128.97 188.02 128.173C188.103 127.37 188.155 126.654 188.177 126.023C188.199 125.387 188.21 124.615 188.21 123.707V123.616V121.806H190.327V123.616V123.715Z" fill="#3D3D3D"/>
<path d="M446.151 127.928H438.896V120.665H446.151V127.928ZM440.997 126.26H444.068V122.358H440.997V126.26ZM450.435 130.452H448.318V119.428H450.435V130.452ZM452.477 125.521H449.82V123.778H452.477V125.521ZM450.974 134.27H440.631V132.56H450.974V134.27ZM442.748 133.407H440.631V129.356H442.748V133.407ZM458.295 133.166C457.404 133.16 456.594 132.964 455.863 132.577C455.133 132.189 454.546 131.556 454.104 130.676C453.661 129.796 453.439 128.659 453.439 127.264C453.439 125.931 453.644 124.779 454.054 123.811C454.463 122.837 455.039 122.096 455.78 121.586C456.522 121.072 457.391 120.814 458.387 120.814C459.173 120.814 459.878 120.967 460.503 121.271C461.134 121.575 461.638 121.996 462.014 122.533C462.396 123.064 462.628 123.659 462.711 124.317H460.246C460.18 124.035 460.061 123.792 459.889 123.587C459.723 123.377 459.51 123.219 459.25 123.114C458.995 123.009 458.708 122.956 458.387 122.956C457.844 122.956 457.388 123.111 457.017 123.421C456.652 123.725 456.372 124.165 456.179 124.741C455.991 125.311 455.894 125.991 455.888 126.783H455.988C456.176 126.434 456.425 126.132 456.735 125.878C457.05 125.618 457.407 125.421 457.806 125.289C458.204 125.156 458.625 125.089 459.067 125.089C459.781 125.089 460.423 125.258 460.993 125.596C461.569 125.928 462.02 126.39 462.346 126.982C462.673 127.569 462.836 128.233 462.836 128.974C462.836 129.788 462.645 130.513 462.263 131.149C461.887 131.78 461.353 132.275 460.661 132.635C459.975 132.989 459.186 133.166 458.295 133.166ZM458.279 131.199C458.683 131.199 459.048 131.105 459.375 130.917C459.701 130.723 459.956 130.463 460.138 130.136C460.321 129.81 460.412 129.447 460.412 129.049C460.412 128.65 460.324 128.288 460.146 127.961C459.969 127.635 459.715 127.38 459.383 127.198C459.056 127.01 458.694 126.916 458.295 126.916C457.897 126.916 457.535 127.01 457.208 127.198C456.882 127.386 456.621 127.646 456.428 127.978C456.234 128.305 456.137 128.664 456.137 129.057C456.137 129.444 456.231 129.801 456.419 130.128C456.608 130.454 456.862 130.715 457.183 130.908C457.51 131.102 457.875 131.199 458.279 131.199ZM468.995 133.166C468.171 133.166 467.426 133.014 466.762 132.709C466.104 132.405 465.583 131.985 465.202 131.448C464.82 130.905 464.623 130.294 464.612 129.613H467.028C467.05 129.918 467.15 130.192 467.327 130.435C467.509 130.673 467.747 130.861 468.041 131C468.334 131.132 468.652 131.199 468.995 131.199C469.41 131.199 469.778 131.107 470.099 130.925C470.42 130.742 470.672 130.49 470.854 130.169C471.037 129.843 471.128 129.475 471.128 129.065C471.128 128.645 471.034 128.271 470.846 127.945C470.664 127.618 470.406 127.364 470.074 127.181C469.748 126.993 469.374 126.899 468.954 126.899C468.505 126.893 468.124 126.976 467.808 127.148C467.498 127.314 467.255 127.566 467.078 127.903H464.812L465.467 120.98H472.863V123.031H467.526L467.194 126.061H467.285C467.512 125.756 467.841 125.51 468.273 125.322C468.705 125.134 469.181 125.04 469.701 125.04C470.426 125.04 471.079 125.208 471.66 125.546C472.246 125.878 472.706 126.348 473.038 126.957C473.37 127.56 473.536 128.241 473.536 128.999C473.536 129.801 473.345 130.518 472.963 131.149C472.581 131.78 472.047 132.275 471.361 132.635C470.675 132.989 469.886 133.166 468.995 133.166ZM483.314 126.251H480.741V124.517H483.314V126.251ZM479.155 123.321C479.155 124.506 479.034 125.626 478.79 126.683C478.552 127.735 478.179 128.684 477.669 129.53C477.166 130.371 476.527 131.027 475.752 131.498L474.457 129.92C475.171 129.483 475.757 128.916 476.217 128.219C476.676 127.516 477.008 126.752 477.213 125.928C477.423 125.103 477.528 124.234 477.528 123.321V120.715H479.155V123.321ZM479.579 123.222C479.579 124.118 479.667 124.957 479.844 125.737C480.021 126.512 480.315 127.231 480.724 127.895C481.134 128.554 481.668 129.096 482.326 129.522L481.181 131.149C480.411 130.684 479.789 130.042 479.313 129.223C478.837 128.404 478.497 127.494 478.292 126.492C478.087 125.485 477.988 124.395 477.993 123.222V120.715H479.579V123.222ZM487.838 134.527H485.804V119.403H487.838V134.527ZM484.675 133.83H482.691V119.636H484.675V133.83ZM506.017 134.569H503.867V119.403H506.017V134.569ZM497.807 120.474C498.565 120.474 499.246 120.695 499.849 121.138C500.458 121.575 500.931 122.203 501.269 123.022C501.612 123.836 501.783 124.782 501.783 125.861C501.783 126.946 501.612 127.898 501.269 128.717C500.931 129.53 500.458 130.156 499.849 130.593C499.246 131.03 498.565 131.249 497.807 131.249C497.038 131.254 496.349 131.038 495.74 130.601C495.137 130.158 494.664 129.53 494.321 128.717C493.978 127.898 493.806 126.946 493.806 125.861C493.806 124.782 493.978 123.836 494.321 123.022C494.664 122.203 495.137 121.575 495.74 121.138C496.349 120.695 497.038 120.474 497.807 120.474ZM497.807 122.392C497.414 122.386 497.068 122.519 496.77 122.79C496.476 123.056 496.249 123.451 496.089 123.977C495.934 124.497 495.859 125.125 495.865 125.861C495.859 126.597 495.934 127.225 496.089 127.746C496.249 128.266 496.476 128.661 496.77 128.933C497.068 129.198 497.414 129.331 497.807 129.331C498.189 129.331 498.527 129.198 498.82 128.933C499.113 128.661 499.34 128.266 499.5 127.746C499.661 127.225 499.741 126.597 499.741 125.861C499.741 125.125 499.661 124.497 499.5 123.977C499.34 123.457 499.113 123.061 498.82 122.79C498.527 122.519 498.189 122.386 497.807 122.392ZM513.164 121.586C513.164 122.616 513.009 123.57 512.699 124.45C512.394 125.33 511.93 126.097 511.304 126.75C510.679 127.397 509.904 127.878 508.98 128.194L507.843 126.534C508.651 126.257 509.323 125.867 509.86 125.363C510.397 124.854 510.792 124.279 511.047 123.637C511.301 122.995 511.431 122.311 511.437 121.586V120.217H513.164V121.586ZM513.562 121.794C513.562 122.43 513.687 123.031 513.936 123.595C514.19 124.16 514.575 124.663 515.089 125.106C515.61 125.543 516.254 125.883 517.023 126.127L515.895 127.771C515.009 127.477 514.265 127.037 513.662 126.451C513.058 125.859 512.605 125.167 512.3 124.375C511.996 123.584 511.847 122.724 511.852 121.794V120.217H513.562V121.794ZM520.045 128.376H517.928V119.403H520.045V128.376ZM522.087 124.716H519.447V122.948H522.087V124.716ZM515.089 128.684C516.13 128.684 517.032 128.8 517.795 129.032C518.565 129.259 519.154 129.594 519.563 130.037C519.979 130.474 520.186 130.994 520.186 131.597C520.186 132.211 519.979 132.737 519.563 133.174C519.154 133.611 518.565 133.946 517.795 134.179C517.032 134.411 516.13 134.527 515.089 134.527C514.032 134.527 513.114 134.411 512.333 134.179C511.559 133.946 510.961 133.611 510.541 133.174C510.12 132.737 509.91 132.211 509.91 131.597C509.91 130.994 510.12 130.474 510.541 130.037C510.961 129.594 511.559 129.259 512.333 129.032C513.114 128.8 514.032 128.684 515.089 128.684ZM515.089 130.344C514.431 130.338 513.875 130.385 513.421 130.485C512.967 130.579 512.621 130.72 512.383 130.908C512.151 131.096 512.037 131.326 512.043 131.597C512.037 131.879 512.151 132.115 512.383 132.303C512.616 132.491 512.956 132.632 513.404 132.726C513.858 132.82 514.42 132.867 515.089 132.867C515.748 132.867 516.301 132.82 516.75 132.726C517.198 132.632 517.535 132.491 517.762 132.303C517.989 132.115 518.103 131.879 518.103 131.597C518.103 131.326 517.986 131.096 517.754 130.908C517.527 130.715 517.189 130.571 516.741 130.477C516.293 130.382 515.742 130.338 515.089 130.344ZM567.708 127.928H560.453V120.665H567.708V127.928ZM562.553 126.26H565.625V122.358H562.553V126.26ZM571.991 130.452H569.875V119.428H571.991V130.452ZM574.033 125.521H571.377V123.778H574.033V125.521ZM572.531 134.27H562.188V132.56H572.531V134.27ZM564.305 133.407H562.188V129.356H564.305V133.407ZM579.852 133.166C578.961 133.16 578.15 132.964 577.42 132.577C576.689 132.189 576.103 131.556 575.66 130.676C575.217 129.796 574.996 128.659 574.996 127.264C574.996 125.931 575.201 124.779 575.61 123.811C576.02 122.837 576.595 122.096 577.337 121.586C578.078 121.072 578.947 120.814 579.943 120.814C580.729 120.814 581.435 120.967 582.06 121.271C582.691 121.575 583.194 121.996 583.571 122.533C583.953 123.064 584.185 123.659 584.268 124.317H581.803C581.736 124.035 581.617 123.792 581.446 123.587C581.28 123.377 581.067 123.219 580.807 123.114C580.552 123.009 580.264 122.956 579.943 122.956C579.401 122.956 578.944 123.111 578.574 123.421C578.208 123.725 577.929 124.165 577.735 124.741C577.547 125.311 577.45 125.991 577.445 126.783H577.544C577.733 126.434 577.982 126.132 578.292 125.878C578.607 125.618 578.964 125.421 579.362 125.289C579.761 125.156 580.181 125.089 580.624 125.089C581.338 125.089 581.98 125.258 582.55 125.596C583.125 125.928 583.576 126.39 583.903 126.982C584.229 127.569 584.393 128.233 584.393 128.974C584.393 129.788 584.202 130.513 583.82 131.149C583.444 131.78 582.91 132.275 582.218 132.635C581.532 132.989 580.743 133.166 579.852 133.166ZM579.835 131.199C580.239 131.199 580.605 131.105 580.931 130.917C581.258 130.723 581.512 130.463 581.695 130.136C581.877 129.81 581.969 129.447 581.969 129.049C581.969 128.65 581.88 128.288 581.703 127.961C581.526 127.635 581.271 127.38 580.939 127.198C580.613 127.01 580.25 126.916 579.852 126.916C579.454 126.916 579.091 127.01 578.765 127.198C578.438 127.386 578.178 127.646 577.984 127.978C577.791 128.305 577.694 128.664 577.694 129.057C577.694 129.444 577.788 129.801 577.976 130.128C578.164 130.454 578.419 130.715 578.74 130.908C579.066 131.102 579.431 131.199 579.835 131.199ZM590.552 133.166C589.727 133.166 588.983 133.014 588.319 132.709C587.66 132.405 587.14 131.985 586.758 131.448C586.376 130.905 586.18 130.294 586.169 129.613H588.584C588.607 129.918 588.706 130.192 588.883 130.435C589.066 130.673 589.304 130.861 589.597 131C589.89 131.132 590.209 131.199 590.552 131.199C590.967 131.199 591.335 131.107 591.656 130.925C591.977 130.742 592.229 130.49 592.411 130.169C592.594 129.843 592.685 129.475 592.685 129.065C592.685 128.645 592.591 128.271 592.403 127.945C592.22 127.618 591.963 127.364 591.631 127.181C591.304 126.993 590.931 126.899 590.51 126.899C590.062 126.893 589.68 126.976 589.365 127.148C589.055 127.314 588.811 127.566 588.634 127.903H586.368L587.024 120.98H594.42V123.031H589.083L588.75 126.061H588.842C589.069 125.756 589.398 125.51 589.83 125.322C590.261 125.134 590.737 125.04 591.257 125.04C591.982 125.04 592.635 125.208 593.216 125.546C593.803 125.878 594.262 126.348 594.594 126.957C594.926 127.56 595.092 128.241 595.092 128.999C595.092 129.801 594.901 130.518 594.52 131.149C594.138 131.78 593.604 132.275 592.917 132.635C592.231 132.989 591.443 133.166 590.552 133.166ZM604.871 126.251H602.297V124.517H604.871V126.251ZM600.712 123.321C600.712 124.506 600.59 125.626 600.347 126.683C600.109 127.735 599.735 128.684 599.226 129.53C598.722 130.371 598.083 131.027 597.309 131.498L596.014 129.92C596.728 129.483 597.314 128.916 597.773 128.219C598.233 127.516 598.565 126.752 598.77 125.928C598.98 125.103 599.085 124.234 599.085 123.321V120.715H600.712V123.321ZM601.135 123.222C601.135 124.118 601.224 124.957 601.401 125.737C601.578 126.512 601.871 127.231 602.281 127.895C602.69 128.554 603.224 129.096 603.883 129.522L602.737 131.149C601.968 130.684 601.346 130.042 600.87 129.223C600.394 128.404 600.053 127.494 599.849 126.492C599.644 125.485 599.544 124.395 599.55 123.222V120.715H601.135V123.222ZM609.395 134.527H607.361V119.403H609.395V134.527ZM606.232 133.83H604.248V119.636H606.232V133.83ZM622.983 130.925H615.678V120.79H622.983V130.925ZM617.787 129.248H620.916V122.441H617.787V129.248ZM627.573 134.569H625.423V119.403H627.573V134.569ZM637.318 127.928H630.063V120.665H637.318V127.928ZM632.164 126.26H635.235V122.358H632.164V126.26ZM641.602 130.452H639.485V119.428H641.602V130.452ZM643.644 125.521H640.987V123.778H643.644V125.521ZM642.141 134.27H631.798V132.56H642.141V134.27ZM633.915 133.407H631.798V129.356H633.915V133.407ZM651.197 120.192C652.26 120.192 653.223 120.375 654.086 120.74C654.955 121.099 655.638 121.609 656.136 122.267C656.634 122.926 656.883 123.681 656.883 124.533C656.883 125.391 656.634 126.152 656.136 126.816C655.638 127.474 654.955 127.986 654.086 128.352C653.223 128.711 652.26 128.888 651.197 128.883C650.135 128.888 649.172 128.711 648.309 128.352C647.445 127.986 646.765 127.474 646.267 126.816C645.769 126.152 645.52 125.391 645.52 124.533C645.52 123.681 645.769 122.926 646.267 122.267C646.765 121.609 647.445 121.099 648.309 120.74C649.172 120.375 650.135 120.192 651.197 120.192ZM651.197 121.902C650.5 121.902 649.877 122.01 649.33 122.226C648.782 122.436 648.353 122.74 648.043 123.139C647.733 123.537 647.581 124.002 647.586 124.533C647.581 125.07 647.733 125.538 648.043 125.936C648.353 126.329 648.779 126.631 649.321 126.841C649.869 127.046 650.494 127.151 651.197 127.156C651.895 127.151 652.514 127.046 653.057 126.841C653.604 126.631 654.031 126.329 654.335 125.936C654.639 125.538 654.792 125.07 654.792 124.533C654.792 124.002 654.637 123.537 654.327 123.139C654.022 122.74 653.596 122.436 653.048 122.226C652.506 122.01 651.889 121.902 651.197 121.902ZM658.128 132.693H644.316V130.983H658.128V132.693ZM672.821 132.851H659.008V131.116H672.821V132.851ZM666.927 131.838H664.844V128.252H666.927V131.838ZM671.227 125.405H662.71V127.986H660.602V123.745H669.135V122.101H660.577V120.399H671.227V125.405ZM671.584 128.825H660.602V127.106H671.584V128.825ZM689.945 127.638H679.171V125.936H689.945V127.638ZM691.448 132.801H677.635V131.107H691.448V132.801ZM685.587 131.581H683.471V126.924H685.587V131.581ZM681.337 126.658H679.171V120.574H681.337V126.658ZM704.961 130.294H702.845V119.437H704.961V130.294ZM705.376 134.27H694.843V132.56H705.376V134.27ZM696.984 133.257H694.843V129.207H696.984V133.257ZM696.686 120.391C697.449 120.391 698.146 120.554 698.777 120.881C699.414 121.207 699.912 121.661 700.271 122.242C700.637 122.823 700.819 123.473 700.819 124.193C700.819 124.929 700.637 125.59 700.271 126.177C699.912 126.758 699.417 127.214 698.786 127.546C698.155 127.873 697.455 128.036 696.686 128.036C695.916 128.036 695.216 127.873 694.585 127.546C693.96 127.214 693.465 126.758 693.1 126.177C692.734 125.59 692.552 124.929 692.552 124.193C692.552 123.473 692.734 122.823 693.1 122.242C693.465 121.661 693.96 121.207 694.585 120.881C695.216 120.554 695.916 120.391 696.686 120.391ZM696.686 122.234C696.293 122.234 695.938 122.314 695.623 122.475C695.313 122.63 695.067 122.856 694.884 123.155C694.707 123.449 694.619 123.794 694.619 124.193C694.619 124.608 694.707 124.965 694.884 125.264C695.067 125.562 695.313 125.792 695.623 125.953C695.938 126.113 696.293 126.191 696.686 126.185C697.073 126.191 697.419 126.113 697.723 125.953C698.033 125.792 698.277 125.562 698.454 125.264C698.631 124.965 698.719 124.608 698.719 124.193C698.719 123.794 698.631 123.449 698.454 123.155C698.277 122.856 698.033 122.63 697.723 122.475C697.413 122.314 697.067 122.234 696.686 122.234ZM712.316 121.578C712.316 122.613 712.155 123.573 711.834 124.458C711.519 125.344 711.038 126.116 710.39 126.774C709.748 127.427 708.951 127.914 708 128.235L706.871 126.534C707.706 126.268 708.401 125.883 708.954 125.38C709.513 124.871 709.923 124.292 710.183 123.645C710.448 122.998 710.584 122.309 710.589 121.578V120.208H712.316V121.578ZM712.723 121.47C712.717 122.173 712.836 122.829 713.08 123.438C713.329 124.041 713.71 124.577 714.225 125.048C714.745 125.518 715.398 125.875 716.184 126.119L715.047 127.771C714.139 127.455 713.387 126.993 712.789 126.384C712.191 125.776 711.746 125.059 711.453 124.234C711.165 123.404 711.021 122.483 711.021 121.47V120.208H712.723V121.47ZM719.745 128.269H717.637V119.403H719.745V128.269ZM714.582 128.667C715.656 128.667 716.583 128.783 717.363 129.016C718.143 129.243 718.741 129.577 719.156 130.02C719.576 130.463 719.789 130.991 719.795 131.605C719.789 132.22 719.576 132.745 719.156 133.183C718.741 133.625 718.143 133.96 717.363 134.187C716.583 134.414 715.656 134.527 714.582 134.527C713.514 134.527 712.59 134.414 711.81 134.187C711.035 133.96 710.437 133.625 710.017 133.183C709.602 132.745 709.394 132.22 709.394 131.605C709.394 130.991 709.602 130.463 710.017 130.02C710.437 129.577 711.035 129.243 711.81 129.016C712.59 128.783 713.514 128.667 714.582 128.667ZM714.582 130.302C713.907 130.308 713.342 130.358 712.889 130.452C712.435 130.546 712.089 130.69 711.851 130.883C711.613 131.077 711.494 131.318 711.494 131.605C711.494 131.882 711.613 132.115 711.851 132.303C712.089 132.491 712.435 132.635 712.889 132.734C713.348 132.834 713.912 132.884 714.582 132.884C715.257 132.884 715.824 132.834 716.284 132.734C716.743 132.635 717.089 132.491 717.321 132.303C717.559 132.115 717.678 131.882 717.678 131.605C717.678 131.318 717.562 131.077 717.33 130.883C717.097 130.69 716.749 130.546 716.284 130.452C715.824 130.358 715.257 130.308 714.582 130.302ZM717.927 123.919H714.798V122.192H717.927V123.919ZM738.264 127.173H736.164V119.403H738.264V127.173ZM738.281 131.805H730.254V133.423H728.187V130.294H736.172V129.373H728.154V127.771H738.281V131.805ZM738.696 134.419H728.187V132.792H738.696V134.419ZM731.109 121.462C731.103 122.369 730.935 123.216 730.603 124.002C730.271 124.788 729.772 125.474 729.108 126.061C728.444 126.642 727.634 127.068 726.676 127.339L725.713 125.67C726.516 125.444 727.191 125.111 727.739 124.674C728.292 124.232 728.702 123.736 728.967 123.188C729.238 122.635 729.374 122.06 729.374 121.462V120.831H731.109V121.462ZM731.524 121.462C731.524 122.026 731.657 122.566 731.922 123.081C732.188 123.595 732.592 124.057 733.134 124.467C733.677 124.871 734.346 125.178 735.143 125.388L734.139 127.032C733.198 126.772 732.407 126.368 731.765 125.82C731.123 125.266 730.639 124.616 730.312 123.869C729.991 123.122 729.833 122.32 729.839 121.462V120.831H731.524V121.462ZM734.57 121.802H726.261V120.117H734.57V121.802ZM751.421 123.313H747.661V121.653H751.421V123.313ZM751.421 126.426H747.661V124.732H751.421V126.426ZM743.104 122.375H746.075V120.341H748.175V127.58H740.97V120.341H743.104V122.375ZM746.075 125.928V124.002H743.104V125.928H746.075ZM753.064 128.451H750.956V119.403H753.064V128.451ZM747.901 128.7C748.975 128.706 749.902 128.825 750.682 129.057C751.468 129.284 752.068 129.619 752.483 130.062C752.898 130.499 753.109 131.024 753.114 131.639C753.109 132.242 752.896 132.759 752.475 133.191C752.06 133.628 751.462 133.96 750.682 134.187C749.902 134.414 748.975 134.527 747.901 134.527C746.833 134.527 745.909 134.414 745.129 134.187C744.354 133.96 743.757 133.628 743.336 133.191C742.921 132.759 742.713 132.242 742.713 131.639C742.713 131.024 742.921 130.499 743.336 130.062C743.757 129.619 744.354 129.284 745.129 129.057C745.909 128.825 746.833 128.706 747.901 128.7ZM747.901 130.327C747.226 130.322 746.662 130.369 746.208 130.468C745.754 130.562 745.408 130.706 745.17 130.9C744.932 131.094 744.813 131.34 744.813 131.639C744.813 131.915 744.932 132.151 745.17 132.344C745.408 132.532 745.754 132.674 746.208 132.768C746.662 132.862 747.226 132.911 747.901 132.917C748.576 132.911 749.144 132.862 749.603 132.768C750.068 132.674 750.417 132.532 750.649 132.344C750.881 132.151 750.998 131.915 750.998 131.639C750.998 131.34 750.881 131.094 750.649 130.9C750.417 130.706 750.071 130.562 749.611 130.468C749.152 130.369 748.582 130.322 747.901 130.327ZM761.913 119.636C763.07 119.636 764.057 119.735 764.876 119.935C765.701 120.128 766.326 120.419 766.752 120.806C767.184 121.188 767.4 121.653 767.4 122.201C767.4 122.76 767.184 123.233 766.752 123.62C766.326 124.007 765.704 124.301 764.885 124.5C764.066 124.699 763.075 124.799 761.913 124.799C760.751 124.799 759.758 124.699 758.933 124.5C758.114 124.301 757.486 124.007 757.049 123.62C756.617 123.233 756.401 122.76 756.401 122.201C756.401 121.653 756.617 121.188 757.049 120.806C757.486 120.419 758.114 120.128 758.933 119.935C759.758 119.735 760.751 119.636 761.913 119.636ZM761.913 121.18C761.172 121.18 760.557 121.218 760.07 121.296C759.589 121.373 759.226 121.49 758.983 121.645C758.739 121.794 758.62 121.979 758.626 122.201C758.62 122.444 758.737 122.643 758.975 122.798C759.218 122.953 759.575 123.067 760.045 123.139C760.521 123.205 761.144 123.241 761.913 123.247C762.688 123.241 763.313 123.205 763.789 123.139C764.271 123.067 764.627 122.956 764.86 122.807C765.098 122.652 765.217 122.45 765.217 122.201C765.217 121.979 765.098 121.794 764.86 121.645C764.622 121.49 764.257 121.373 763.764 121.296C763.272 121.218 762.655 121.18 761.913 121.18ZM768.811 127.198H755.032V125.521H768.811V127.198ZM767.126 131.921H758.709V133.282H756.625V130.443H765.034V129.613H756.617V128.061H767.126V131.921ZM767.524 134.419H756.625V132.834H767.524V134.419ZM785.57 134.502H783.445V119.403H785.57V134.502ZM787.704 126.957H785.022V125.214H787.704V126.957ZM781.536 120.964C781.531 122.535 781.304 123.988 780.855 125.322C780.413 126.655 779.685 127.881 778.672 128.999C777.66 130.117 776.332 131.08 774.688 131.888L773.493 130.269C774.843 129.588 775.958 128.816 776.838 127.953C777.718 127.084 778.374 126.108 778.805 125.023C779.237 123.933 779.455 122.707 779.461 121.346V120.964H781.536ZM780.523 122.699H774.339V120.964H780.523V122.699ZM793.846 122.408C793.841 123.371 793.675 124.276 793.348 125.123C793.027 125.964 792.54 126.7 791.887 127.331C791.234 127.961 790.44 128.432 789.505 128.742L788.409 127.082C789.217 126.827 789.895 126.456 790.443 125.969C790.996 125.482 791.406 124.934 791.671 124.326C791.943 123.711 792.078 123.072 792.078 122.408V121.088H793.846V122.408ZM794.228 122.408C794.228 123.034 794.358 123.634 794.618 124.209C794.884 124.785 795.288 125.302 795.83 125.762C796.372 126.215 797.039 126.561 797.831 126.799L796.76 128.468C795.836 128.169 795.055 127.721 794.419 127.123C793.783 126.52 793.301 125.814 792.975 125.006C792.654 124.198 792.496 123.332 792.501 122.408V121.088H794.228V122.408ZM797.274 122.192H788.965V120.499H797.274V122.192ZM800.985 130.352H798.868V119.437H800.985V130.352ZM801.4 134.27H790.866V132.56H801.4V134.27ZM793.008 133.415H790.866V129.356H793.008V133.415ZM812.1 123.529C812.1 124.691 811.934 125.814 811.602 126.899C811.275 127.978 810.791 128.941 810.149 129.788C809.513 130.634 808.749 131.268 807.858 131.688L806.613 130.02C807.426 129.638 808.118 129.099 808.688 128.401C809.264 127.704 809.695 126.935 809.983 126.094C810.271 125.253 810.417 124.398 810.423 123.529V121.769H812.1V123.529ZM812.548 123.529C812.542 124.331 812.681 125.128 812.963 125.919C813.245 126.711 813.663 127.438 814.216 128.103C814.775 128.761 815.453 129.273 816.25 129.638L815.071 131.298C814.18 130.894 813.419 130.288 812.789 129.48C812.163 128.673 811.687 127.754 811.361 126.725C811.034 125.69 810.871 124.625 810.871 123.529V121.769H812.548V123.529ZM815.594 122.607H807.219V120.881H815.594V122.607ZM818.89 134.527H816.765V119.403H818.89V134.527ZM821.131 126.957H818.425V125.189H821.131V126.957Z" fill="#FF0000"/>
<path d="M539.535 127.588H534.057V125.903H539.535V127.588ZM540.506 132.759H526.694V131.066H540.506V132.759ZM534.588 131.838H532.488V128.252H534.588V131.838ZM539.402 122.367H536.173V126.791H534.057V120.69H539.402V122.367ZM533.11 122.367H529.865V126.658H527.74V120.682H533.11V122.367ZM528.711 125.87C529.624 125.875 530.426 125.853 531.118 125.803C531.81 125.753 532.507 125.659 533.21 125.521L533.351 127.256C532.654 127.4 531.976 127.494 531.317 127.538C530.659 127.577 529.79 127.593 528.711 127.588H527.74V125.87H528.711ZM553.655 125.197H543.088V123.545H553.655V125.197ZM555.182 128.476H541.37V126.816H555.182V128.476ZM545.205 124.375H543.088V119.951H545.205V124.375ZM553.746 134.195H542.955V132.485H553.746V134.195ZM545.08 132.975H542.955V129.713H545.08V132.975Z" fill="#3D3D3D"/>
<path d="M875.074 135.527H872.949V120.403H875.074V135.527ZM867.927 125.16C867.927 126.244 867.764 127.29 867.437 128.297C867.111 129.305 866.624 130.198 865.976 130.979C865.334 131.753 864.559 132.332 863.652 132.713L862.531 131.078C863.328 130.729 864.006 130.24 864.565 129.609C865.124 128.972 865.542 128.27 865.818 127.5C866.101 126.731 866.244 125.951 866.25 125.16V124.296H867.927V125.16ZM868.35 125.16C868.356 125.918 868.5 126.668 868.782 127.409C869.069 128.145 869.496 128.82 870.06 129.435C870.625 130.043 871.311 130.516 872.119 130.854L870.973 132.464C870.066 132.099 869.288 131.54 868.641 130.788C867.999 130.035 867.512 129.172 867.18 128.198C866.848 127.224 866.684 126.211 866.69 125.16V124.296H868.35V125.16ZM871.496 124.57H863.029V122.885H871.496V124.57ZM868.342 123.765H866.233V120.752H868.342V123.765ZM890.239 135.527H888.206V120.403H890.239V135.527ZM888.878 127.907H886.321V126.189H888.878V127.907ZM886.844 134.83H884.852V120.636H886.844V134.83ZM883.574 131.734H877.564V121.98H883.574V131.734ZM879.548 130.065H881.598V123.649H879.548V130.065ZM893.584 137.503H891.825L892.646 132.78H895.021L893.584 137.503ZM906.243 131.078H904.11V127.675H906.243V131.078ZM912.834 135.527H910.75V120.403H912.834V135.527ZM900.947 130.779C902.851 130.768 904.494 130.741 905.878 130.696C907.261 130.646 908.592 130.544 909.871 130.389L909.987 131.95C908.504 132.193 906.979 132.351 905.413 132.423C903.847 132.489 902.156 132.514 900.341 132.498L900.134 130.779H900.947ZM909.165 127.957H901.18V126.264H909.165V127.957ZM903.33 126.753H901.18V121.748H903.33V126.753ZM926.223 124.969H923.393V123.35H926.223V124.969ZM926.165 127.708H923.359V126.073H926.165V127.708ZM923.218 123.093H914.826V121.491H923.218V123.093ZM919.109 123.508C919.807 123.508 920.426 123.616 920.969 123.832C921.511 124.047 921.932 124.349 922.23 124.736C922.535 125.124 922.687 125.575 922.687 126.089C922.687 126.593 922.535 127.038 922.23 127.426C921.932 127.808 921.511 128.106 920.969 128.322C920.426 128.538 919.807 128.646 919.109 128.646C918.418 128.646 917.803 128.538 917.267 128.322C916.73 128.106 916.312 127.808 916.013 127.426C915.714 127.038 915.568 126.593 915.573 126.089C915.568 125.575 915.714 125.124 916.013 124.736C916.312 124.349 916.73 124.047 917.267 123.832C917.803 123.616 918.418 123.508 919.109 123.508ZM919.109 125.035C918.799 125.035 918.526 125.077 918.288 125.16C918.055 125.237 917.873 125.356 917.74 125.517C917.607 125.672 917.541 125.862 917.541 126.089C917.541 126.311 917.607 126.502 917.74 126.662C917.873 126.817 918.055 126.939 918.288 127.027C918.526 127.116 918.799 127.157 919.109 127.152C919.414 127.157 919.685 127.116 919.923 127.027C920.166 126.939 920.354 126.817 920.487 126.662C920.626 126.502 920.695 126.311 920.695 126.089C920.695 125.868 920.626 125.677 920.487 125.517C920.354 125.356 920.169 125.237 919.931 125.16C919.693 125.077 919.419 125.035 919.109 125.035ZM920.188 122.86H918.072V120.262H920.188V122.86ZM927.518 128.721H925.418V120.403H927.518V128.721ZM927.518 133.021H919.616V134.307H917.482V131.601H925.418V130.821H917.466V129.302H927.518V133.021ZM927.908 135.419H917.482V133.867H927.908V135.419ZM936.707 123.242H930.183V121.516H936.707V123.242ZM934.2 128.804H932.092V125.002H934.2V128.804ZM937.96 122.562C937.955 123.342 937.933 124.061 937.894 124.72C937.855 125.378 937.764 126.1 937.62 126.886L935.528 126.704C935.678 125.912 935.772 125.221 935.811 124.628C935.855 124.036 935.882 123.356 935.894 122.586V122.454V121.516H937.96V122.454V122.562ZM941.654 131.717H939.479V120.403H941.654V131.717ZM943.489 126.795H940.799V125.027H943.489V126.795ZM942.127 135.27H931.511V133.56H942.127V135.27ZM933.636 134.1H931.511V130.713H933.636V134.1ZM929.286 127.99C931.096 127.99 932.77 127.96 934.308 127.899C935.852 127.838 937.307 127.708 938.674 127.509L938.774 129.036C937.374 129.296 935.905 129.468 934.366 129.551C932.828 129.634 931.195 129.675 929.469 129.675L929.286 127.99ZM949.482 122.578C949.482 123.613 949.321 124.573 949 125.458C948.685 126.344 948.204 127.116 947.556 127.774C946.914 128.427 946.117 128.914 945.166 129.235L944.037 127.534C944.872 127.268 945.567 126.883 946.12 126.38C946.679 125.871 947.089 125.292 947.349 124.645C947.614 123.998 947.75 123.309 947.755 122.578V121.208H949.482V122.578ZM949.889 122.47C949.883 123.173 950.002 123.829 950.246 124.438C950.495 125.041 950.876 125.577 951.391 126.048C951.911 126.518 952.564 126.875 953.35 127.119L952.213 128.771C951.305 128.455 950.553 127.993 949.955 127.384C949.357 126.776 948.912 126.059 948.619 125.234C948.331 124.404 948.187 123.483 948.187 122.47V121.208H949.889V122.47ZM956.911 129.269H954.803V120.403H956.911V129.269ZM951.748 129.667C952.822 129.667 953.749 129.783 954.529 130.016C955.309 130.243 955.907 130.577 956.322 131.02C956.742 131.463 956.955 131.991 956.961 132.605C956.955 133.22 956.742 133.745 956.322 134.183C955.907 134.625 955.309 134.96 954.529 135.187C953.749 135.414 952.822 135.527 951.748 135.527C950.68 135.527 949.756 135.414 948.976 135.187C948.201 134.96 947.603 134.625 947.183 134.183C946.768 133.745 946.56 133.22 946.56 132.605C946.56 131.991 946.768 131.463 947.183 131.02C947.603 130.577 948.201 130.243 948.976 130.016C949.756 129.783 950.68 129.667 951.748 129.667ZM951.748 131.302C951.073 131.308 950.508 131.358 950.055 131.452C949.601 131.546 949.255 131.69 949.017 131.883C948.779 132.077 948.66 132.318 948.66 132.605C948.66 132.882 948.779 133.115 949.017 133.303C949.255 133.491 949.601 133.635 950.055 133.734C950.514 133.834 951.078 133.884 951.748 133.884C952.423 133.884 952.99 133.834 953.45 133.734C953.909 133.635 954.255 133.491 954.487 133.303C954.725 133.115 954.844 132.882 954.844 132.605C954.844 132.318 954.728 132.077 954.496 131.883C954.263 131.69 953.915 131.546 953.45 131.452C952.99 131.358 952.423 131.308 951.748 131.302ZM955.093 124.919H951.964V123.192H955.093V124.919ZM971.496 128.173H969.396V120.403H971.496V128.173ZM971.512 132.805H963.485V134.423H961.418V131.294H969.404V130.373H961.385V128.771H971.512V132.805ZM971.927 135.419H961.418V133.792H971.927V135.419ZM964.34 122.462C964.335 123.369 964.166 124.216 963.834 125.002C963.502 125.788 963.004 126.474 962.34 127.061C961.676 127.642 960.865 128.068 959.908 128.339L958.945 126.67C959.747 126.444 960.422 126.111 960.97 125.674C961.524 125.232 961.933 124.736 962.199 124.188C962.47 123.635 962.605 123.06 962.605 122.462V121.831H964.34V122.462ZM964.755 122.462C964.755 123.026 964.888 123.566 965.154 124.081C965.419 124.595 965.823 125.057 966.366 125.467C966.908 125.871 967.578 126.178 968.375 126.388L967.37 128.032C966.429 127.772 965.638 127.368 964.996 126.82C964.354 126.266 963.87 125.616 963.543 124.869C963.222 124.122 963.065 123.32 963.07 122.462V121.831H964.755V122.462ZM967.802 122.802H959.493V121.117H967.802V122.802ZM985.648 132.215H983.515V120.403H985.648V132.215ZM987.583 127.127H984.893V125.384H987.583V127.127ZM986.163 135.27H975.513V133.56H986.163V135.27ZM977.655 134.066H975.513V131.435H977.655V134.066ZM979.174 129.883H977.065V127.667H979.174V129.883ZM973.405 129.103C975.153 129.103 976.814 129.069 978.385 129.003C979.957 128.931 981.434 128.795 982.818 128.596L982.976 130.049C981.647 130.303 980.278 130.475 978.867 130.563C977.456 130.652 975.848 130.71 974.044 130.738C973.961 130.738 973.889 130.738 973.828 130.738C973.767 130.738 973.695 130.738 973.612 130.738L973.405 129.103ZM982.436 123.167H973.787V121.64H982.436V123.167ZM978.111 123.583C978.847 123.583 979.495 123.677 980.054 123.865C980.613 124.047 981.044 124.319 981.349 124.678C981.653 125.032 981.808 125.456 981.813 125.948C981.808 126.413 981.653 126.82 981.349 127.168C981.044 127.512 980.613 127.78 980.054 127.974C979.495 128.162 978.847 128.256 978.111 128.256C977.37 128.256 976.72 128.162 976.161 127.974C975.602 127.785 975.167 127.52 974.857 127.177C974.553 126.828 974.401 126.419 974.401 125.948C974.401 125.456 974.553 125.032 974.857 124.678C975.167 124.319 975.599 124.047 976.152 123.865C976.711 123.677 977.364 123.583 978.111 123.583ZM978.111 125.002C977.746 125.002 977.439 125.035 977.19 125.102C976.941 125.168 976.75 125.273 976.617 125.417C976.49 125.561 976.426 125.738 976.426 125.948C976.426 126.131 976.49 126.291 976.617 126.43C976.75 126.562 976.941 126.665 977.19 126.737C977.444 126.803 977.752 126.836 978.111 126.836C978.46 126.836 978.759 126.803 979.008 126.737C979.262 126.665 979.453 126.562 979.581 126.43C979.713 126.291 979.78 126.131 979.78 125.948C979.78 125.738 979.716 125.561 979.589 125.417C979.462 125.273 979.271 125.168 979.016 125.102C978.767 125.035 978.465 125.002 978.111 125.002ZM979.174 122.321H977.065V120.362H979.174V122.321ZM990.006 137.503H988.247L989.068 132.78H991.442L990.006 137.503ZM1005.14 123.516H996.713V121.814H1005.14V123.516ZM996.332 130.323C998.13 130.323 999.787 130.298 1001.3 130.248C1002.83 130.198 1004.26 130.09 1005.6 129.924L1005.69 131.435C1004.32 131.679 1002.89 131.842 1001.4 131.925C999.92 132.002 998.307 132.047 996.564 132.058L996.332 130.323ZM1000.09 130.796H998.042V123.151H1000.09V130.796ZM1003.79 130.796H1001.75V123.151H1003.79V130.796ZM1008.44 135.527H1006.32V120.403H1008.44V135.527ZM1010.68 127.899H1007.98V126.172H1010.68V127.899ZM1019.34 121.507C1019.34 122.963 1019.11 124.244 1018.64 125.351C1018.17 126.457 1017.42 127.42 1016.38 128.239C1015.34 129.058 1013.97 129.736 1012.27 130.273L1011.46 128.596C1012.89 128.17 1014.01 127.653 1014.85 127.044C1015.69 126.435 1016.28 125.752 1016.62 124.994C1016.97 124.23 1017.14 123.358 1017.15 122.379V121.507H1019.34ZM1018.4 123.209H1012.23V121.507H1018.4V123.209ZM1011.77 126.33L1011.46 124.678L1017.22 124.479V125.923L1011.77 126.33ZM1023.86 131.41H1021.74V120.437H1023.86V131.41ZM1024.27 135.303H1013.74V133.602H1024.27V135.303ZM1015.88 134.598H1013.74V130.522H1015.88V134.598ZM1039.69 129.733H1025.92V128.04H1039.69V129.733ZM1038.13 135.27H1027.58V133.56H1038.13V135.27ZM1029.69 134.116H1027.58V130.821H1029.69V134.116ZM1033.54 121.341C1033.54 122.282 1033.29 123.156 1032.8 123.964C1032.3 124.767 1031.6 125.45 1030.67 126.015C1029.75 126.574 1028.67 126.95 1027.43 127.144L1026.61 125.467C1027.68 125.306 1028.6 125.013 1029.37 124.587C1030.14 124.155 1030.73 123.657 1031.12 123.093C1031.51 122.528 1031.71 121.944 1031.71 121.341V120.827H1033.54V121.341ZM1033.89 121.341C1033.89 121.944 1034.09 122.531 1034.48 123.101C1034.87 123.666 1035.46 124.161 1036.23 124.587C1037 125.013 1037.92 125.306 1038.99 125.467L1038.14 127.144C1036.9 126.944 1035.82 126.565 1034.91 126.006C1033.99 125.442 1033.29 124.758 1032.8 123.956C1032.31 123.154 1032.07 122.282 1032.07 121.341V120.827H1033.89V121.341ZM1055.62 124.313H1051.86V122.653H1055.62V124.313ZM1055.62 127.426H1051.86V125.732H1055.62V127.426ZM1047.31 123.375H1050.28V121.341H1052.38V128.58H1045.17V121.341H1047.31V123.375ZM1050.28 126.928V125.002H1047.31V126.928H1050.28ZM1057.27 129.451H1055.16V120.403H1057.27V129.451ZM1052.1 129.7C1053.18 129.706 1054.1 129.825 1054.89 130.057C1055.67 130.284 1056.27 130.619 1056.69 131.062C1057.1 131.499 1057.31 132.024 1057.32 132.639C1057.31 133.242 1057.1 133.759 1056.68 134.191C1056.26 134.628 1055.67 134.96 1054.89 135.187C1054.1 135.414 1053.18 135.527 1052.1 135.527C1051.04 135.527 1050.11 135.414 1049.33 135.187C1048.56 134.96 1047.96 134.628 1047.54 134.191C1047.12 133.759 1046.92 133.242 1046.92 132.639C1046.92 132.024 1047.12 131.499 1047.54 131.062C1047.96 130.619 1048.56 130.284 1049.33 130.057C1050.11 129.825 1051.04 129.706 1052.1 129.7ZM1052.1 131.327C1051.43 131.322 1050.86 131.369 1050.41 131.468C1049.96 131.562 1049.61 131.706 1049.37 131.9C1049.14 132.094 1049.02 132.34 1049.02 132.639C1049.02 132.915 1049.14 133.151 1049.37 133.344C1049.61 133.532 1049.96 133.674 1050.41 133.768C1050.86 133.862 1051.43 133.911 1052.1 133.917C1052.78 133.911 1053.35 133.862 1053.81 133.768C1054.27 133.674 1054.62 133.532 1054.85 133.344C1055.08 133.151 1055.2 132.915 1055.2 132.639C1055.2 132.34 1055.08 132.094 1054.85 131.9C1054.62 131.706 1054.27 131.562 1053.81 131.468C1053.36 131.369 1052.79 131.322 1052.1 131.327ZM1076.97 129.053H1063.17V127.326H1076.97V129.053ZM1075.4 126.272H1064.84V124.579H1075.4V126.272ZM1075.31 122.52H1066.94V125.434H1064.84V120.827H1075.31V122.52ZM1070.03 129.958C1071.12 129.958 1072.06 130.065 1072.85 130.281C1073.63 130.497 1074.24 130.815 1074.66 131.236C1075.08 131.651 1075.29 132.149 1075.3 132.73C1075.29 133.322 1075.08 133.828 1074.66 134.249C1074.24 134.67 1073.64 134.988 1072.85 135.204C1072.06 135.419 1071.12 135.527 1070.03 135.527C1068.93 135.527 1067.99 135.419 1067.2 135.204C1066.4 134.988 1065.8 134.67 1065.37 134.249C1064.95 133.828 1064.74 133.322 1064.74 132.73C1064.74 132.149 1064.95 131.651 1065.37 131.236C1065.8 130.815 1066.4 130.497 1067.2 130.281C1067.99 130.065 1068.93 129.958 1070.03 129.958ZM1070.03 131.568C1069.34 131.573 1068.76 131.62 1068.29 131.709C1067.83 131.792 1067.47 131.919 1067.24 132.091C1067 132.262 1066.89 132.475 1066.9 132.73C1066.89 132.996 1067 133.217 1067.24 133.394C1067.47 133.571 1067.82 133.701 1068.28 133.784C1068.75 133.867 1069.33 133.911 1070.03 133.917C1070.73 133.911 1071.3 133.867 1071.77 133.784C1072.23 133.701 1072.58 133.571 1072.81 133.394C1073.05 133.217 1073.16 132.996 1073.16 132.73C1073.16 132.475 1073.04 132.262 1072.81 132.091C1072.57 131.919 1072.23 131.792 1071.76 131.709C1071.3 131.62 1070.72 131.573 1070.03 131.568ZM1094.85 135.527H1092.85V120.403H1094.85V135.527ZM1093.33 127.949H1090.77V126.255H1093.33V127.949ZM1091.39 134.797H1089.45V120.677H1091.39V134.797ZM1083.27 130.339C1084.38 130.339 1085.33 130.314 1086.12 130.265C1086.91 130.215 1087.73 130.115 1088.56 129.966L1088.71 131.684C1087.87 131.85 1087.04 131.961 1086.23 132.016C1085.42 132.066 1084.44 132.096 1083.27 132.107H1082.21V130.339H1083.27ZM1087.86 123.873H1084.34V131.194H1082.21V122.171H1087.86V123.873ZM1110.27 129.866H1096.46V128.206H1110.27V129.866ZM1104.41 128.82H1102.28V126.546H1104.41V128.82ZM1108.77 127.276H1098.18V125.649H1108.77V127.276ZM1108.66 122.42H1100.3V126.562H1098.18V120.785H1108.66V122.42ZM1108.29 124.794H1099.69V123.259H1108.29V124.794ZM1103.35 130.555C1104.46 130.555 1105.41 130.652 1106.19 130.846C1106.98 131.034 1107.58 131.316 1107.99 131.692C1108.4 132.063 1108.61 132.511 1108.62 133.037C1108.61 133.579 1108.4 134.036 1107.99 134.407C1107.58 134.778 1106.98 135.057 1106.19 135.245C1105.41 135.433 1104.47 135.527 1103.35 135.527C1102.22 135.527 1101.26 135.433 1100.47 135.245C1099.69 135.057 1099.09 134.778 1098.67 134.407C1098.26 134.036 1098.06 133.579 1098.06 133.037C1098.06 132.511 1098.26 132.063 1098.67 131.692C1099.09 131.316 1099.69 131.034 1100.48 130.846C1101.27 130.652 1102.23 130.555 1103.35 130.555ZM1103.35 132.124C1102.62 132.118 1102.02 132.149 1101.55 132.215C1101.09 132.276 1100.74 132.376 1100.51 132.514C1100.29 132.653 1100.18 132.827 1100.18 133.037C1100.18 133.253 1100.29 133.43 1100.51 133.568C1100.74 133.701 1101.09 133.801 1101.55 133.867C1102.02 133.928 1102.62 133.958 1103.35 133.958C1104.07 133.958 1104.66 133.928 1105.12 133.867C1105.58 133.801 1105.92 133.701 1106.14 133.568C1106.37 133.43 1106.48 133.253 1106.48 133.037C1106.48 132.827 1106.37 132.653 1106.14 132.514C1105.92 132.376 1105.58 132.276 1105.12 132.215C1104.66 132.149 1104.07 132.118 1103.35 132.124ZM1112.91 127.417C1114.41 127.417 1115.59 127.395 1116.44 127.351C1117.3 127.301 1118.15 127.204 1118.98 127.061L1119.17 128.754C1118.33 128.909 1117.45 129.011 1116.55 129.061C1115.66 129.111 1114.44 129.133 1112.91 129.127H1111.76V127.417H1112.91ZM1118.42 125.898H1113.86V128.663H1111.76V124.296H1116.33V122.918H1111.74V121.208H1118.42V125.898ZM1123.91 129.617H1121.77V120.437H1123.91V129.617ZM1122.2 124.147H1119.31V122.445H1122.2V124.147ZM1122.2 127.268H1119.31V125.558H1122.2V127.268ZM1118.77 129.858C1119.84 129.858 1120.77 129.971 1121.55 130.198C1122.33 130.425 1122.94 130.754 1123.35 131.186C1123.77 131.618 1123.97 132.132 1123.97 132.73C1123.97 133.328 1123.77 133.84 1123.35 134.266C1122.94 134.697 1122.34 135.024 1121.56 135.245C1120.78 135.466 1119.85 135.577 1118.77 135.577C1117.69 135.577 1116.76 135.466 1115.98 135.245C1115.2 135.024 1114.6 134.697 1114.18 134.266C1113.76 133.84 1113.56 133.328 1113.56 132.73C1113.56 132.132 1113.76 131.618 1114.18 131.186C1114.6 130.754 1115.2 130.425 1115.98 130.198C1116.76 129.971 1117.69 129.858 1118.77 129.858ZM1118.77 131.468C1118.09 131.468 1117.52 131.515 1117.07 131.609C1116.62 131.698 1116.28 131.839 1116.05 132.033C1115.81 132.221 1115.7 132.453 1115.7 132.73C1115.7 133.012 1115.81 133.245 1116.04 133.427C1116.27 133.604 1116.61 133.737 1117.07 133.826C1117.52 133.914 1118.09 133.961 1118.77 133.967C1119.45 133.961 1120.02 133.914 1120.48 133.826C1120.94 133.737 1121.29 133.604 1121.52 133.427C1121.76 133.245 1121.88 133.012 1121.88 132.73C1121.88 132.453 1121.76 132.221 1121.52 132.033C1121.29 131.845 1120.94 131.703 1120.48 131.609C1120.02 131.515 1119.45 131.468 1118.77 131.468ZM1127.6 127.417C1129.11 127.417 1130.28 127.395 1131.14 127.351C1131.99 127.301 1132.84 127.204 1133.67 127.061L1133.87 128.754C1133.02 128.909 1132.15 129.011 1131.24 129.061C1130.35 129.111 1129.13 129.133 1127.6 129.127H1126.45V127.417H1127.6ZM1133.11 125.898H1128.55V128.663H1126.45V124.296H1131.02V122.918H1126.43V121.208H1133.11V125.898ZM1138.6 129.617H1136.47V120.437H1138.6V129.617ZM1136.89 124.147H1134V122.445H1136.89V124.147ZM1136.89 127.268H1134V125.558H1136.89V127.268ZM1133.46 129.858C1134.53 129.858 1135.46 129.971 1136.24 130.198C1137.03 130.425 1137.63 130.754 1138.04 131.186C1138.46 131.618 1138.67 132.132 1138.67 132.73C1138.67 133.328 1138.46 133.84 1138.04 134.266C1137.63 134.697 1137.03 135.024 1136.25 135.245C1135.47 135.466 1134.54 135.577 1133.46 135.577C1132.38 135.577 1131.45 135.466 1130.67 135.245C1129.89 135.024 1129.29 134.697 1128.87 134.266C1128.46 133.84 1128.25 133.328 1128.25 132.73C1128.25 132.132 1128.46 131.618 1128.87 131.186C1129.29 130.754 1129.89 130.425 1130.67 130.198C1131.46 129.971 1132.39 129.858 1133.46 129.858ZM1133.46 131.468C1132.78 131.468 1132.21 131.515 1131.76 131.609C1131.31 131.698 1130.97 131.839 1130.74 132.033C1130.51 132.221 1130.39 132.453 1130.39 132.73C1130.39 133.012 1130.5 133.245 1130.73 133.427C1130.96 133.604 1131.31 133.737 1131.76 133.826C1132.21 133.914 1132.78 133.961 1133.46 133.967C1134.14 133.961 1134.71 133.914 1135.17 133.826C1135.63 133.737 1135.98 133.604 1136.22 133.427C1136.45 133.245 1136.57 133.012 1136.57 132.73C1136.57 132.453 1136.45 132.221 1136.22 132.033C1135.98 131.845 1135.63 131.703 1135.17 131.609C1134.71 131.515 1134.14 131.468 1133.46 131.468ZM1151.38 121.192C1152.44 121.192 1153.41 121.375 1154.27 121.74C1155.14 122.099 1155.82 122.609 1156.32 123.267C1156.82 123.926 1157.07 124.681 1157.07 125.533C1157.07 126.391 1156.82 127.152 1156.32 127.816C1155.82 128.474 1155.14 128.986 1154.27 129.352C1153.41 129.711 1152.44 129.888 1151.38 129.883C1150.32 129.888 1149.36 129.711 1148.49 129.352C1147.63 128.986 1146.95 128.474 1146.45 127.816C1145.95 127.152 1145.7 126.391 1145.7 125.533C1145.7 124.681 1145.95 123.926 1146.45 123.267C1146.95 122.609 1147.63 122.099 1148.49 121.74C1149.36 121.375 1150.32 121.192 1151.38 121.192ZM1151.38 122.902C1150.68 122.902 1150.06 123.01 1149.51 123.226C1148.97 123.436 1148.54 123.74 1148.23 124.139C1147.92 124.537 1147.77 125.002 1147.77 125.533C1147.77 126.07 1147.92 126.538 1148.23 126.936C1148.54 127.329 1148.96 127.631 1149.51 127.841C1150.05 128.046 1150.68 128.151 1151.38 128.156C1152.08 128.151 1152.7 128.046 1153.24 127.841C1153.79 127.631 1154.22 127.329 1154.52 126.936C1154.82 126.538 1154.98 126.07 1154.98 125.533C1154.98 125.002 1154.82 124.537 1154.51 124.139C1154.21 123.74 1153.78 123.436 1153.23 123.226C1152.69 123.01 1152.07 122.902 1151.38 122.902ZM1158.31 133.693H1144.5V131.983H1158.31V133.693ZM1173.01 133.851H1159.19V132.116H1173.01V133.851ZM1167.11 132.838H1165.03V129.252H1167.11V132.838ZM1171.41 126.405H1162.9V128.986H1160.79V124.745H1169.32V123.101H1160.76V121.399H1171.41V126.405ZM1171.77 129.825H1160.79V128.106H1171.77V129.825ZM1188.98 125.815H1186.08V124.097H1188.98V125.815ZM1190.54 129.393H1188.44V120.403H1190.54V129.393ZM1185.38 129.725C1186.46 129.725 1187.38 129.841 1188.16 130.074C1188.94 130.306 1189.54 130.641 1189.96 131.078C1190.38 131.51 1190.59 132.03 1190.59 132.639C1190.59 133.242 1190.38 133.759 1189.96 134.191C1189.54 134.628 1188.94 134.963 1188.16 135.195C1187.38 135.428 1186.46 135.547 1185.38 135.552C1184.31 135.547 1183.39 135.428 1182.61 135.195C1181.83 134.963 1181.24 134.628 1180.82 134.191C1180.4 133.759 1180.19 133.242 1180.19 132.639C1180.19 132.03 1180.4 131.51 1180.82 131.078C1181.24 130.641 1181.83 130.306 1182.61 130.074C1183.39 129.841 1184.31 129.725 1185.38 129.725ZM1185.38 131.335C1184.71 131.335 1184.14 131.385 1183.69 131.485C1183.23 131.579 1182.89 131.723 1182.65 131.917C1182.41 132.11 1182.29 132.351 1182.29 132.639C1182.29 132.921 1182.41 133.159 1182.65 133.353C1182.89 133.546 1183.23 133.693 1183.69 133.792C1184.15 133.887 1184.71 133.934 1185.38 133.934C1186.06 133.934 1186.62 133.887 1187.08 133.792C1187.55 133.693 1187.9 133.546 1188.13 133.353C1188.36 133.159 1188.48 132.921 1188.48 132.639C1188.48 132.351 1188.36 132.11 1188.13 131.917C1187.9 131.723 1187.55 131.579 1187.08 131.485C1186.62 131.385 1186.06 131.335 1185.38 131.335ZM1183.08 122.927C1183.08 123.906 1182.92 124.825 1182.61 125.683C1182.3 126.54 1181.82 127.296 1181.18 127.949C1180.55 128.596 1179.76 129.08 1178.82 129.401L1177.72 127.716C1178.52 127.445 1179.19 127.058 1179.74 126.554C1180.29 126.051 1180.69 125.489 1180.95 124.869C1181.21 124.244 1181.35 123.596 1181.36 122.927V121.931H1183.08V122.927ZM1183.51 122.91C1183.51 123.53 1183.64 124.128 1183.89 124.703C1184.14 125.273 1184.53 125.791 1185.05 126.255C1185.57 126.72 1186.22 127.083 1186.99 127.343L1185.95 129.003C1185.03 128.704 1184.26 128.25 1183.64 127.642C1183.02 127.027 1182.55 126.316 1182.24 125.508C1181.94 124.695 1181.79 123.829 1181.8 122.91V121.931H1183.51V122.91ZM1186.53 123.035H1178.33V121.325H1186.53V123.035ZM1204.42 135.527H1202.33V120.403H1204.42V135.527ZM1206.67 128.073H1203.96V126.338H1206.67V128.073ZM1201.3 124.371H1192.43V122.669H1201.3V124.371ZM1196.9 125.209C1197.63 125.209 1198.28 125.364 1198.87 125.674C1199.46 125.979 1199.92 126.405 1200.26 126.953C1200.59 127.5 1200.77 128.12 1200.77 128.812C1200.77 129.509 1200.59 130.132 1200.26 130.68C1199.92 131.222 1199.46 131.648 1198.87 131.958C1198.28 132.262 1197.63 132.415 1196.9 132.415C1196.17 132.415 1195.51 132.262 1194.92 131.958C1194.33 131.648 1193.87 131.222 1193.54 130.68C1193.21 130.132 1193.04 129.509 1193.04 128.812C1193.04 128.12 1193.21 127.5 1193.54 126.953C1193.87 126.405 1194.33 125.979 1194.92 125.674C1195.51 125.364 1196.17 125.209 1196.9 125.209ZM1196.9 126.936C1196.55 126.942 1196.23 127.019 1195.96 127.168C1195.68 127.318 1195.46 127.536 1195.3 127.824C1195.15 128.106 1195.07 128.436 1195.07 128.812C1195.07 129.199 1195.15 129.534 1195.3 129.816C1195.46 130.093 1195.68 130.306 1195.96 130.456C1196.23 130.605 1196.55 130.682 1196.9 130.688C1197.26 130.682 1197.57 130.605 1197.85 130.456C1198.13 130.306 1198.35 130.093 1198.5 129.816C1198.65 129.534 1198.73 129.199 1198.73 128.812C1198.73 128.436 1198.65 128.106 1198.5 127.824C1198.35 127.536 1198.13 127.318 1197.85 127.168C1197.57 127.019 1197.26 126.942 1196.9 126.936ZM1197.96 123.317H1195.85V120.644H1197.96V123.317ZM1219.47 126.197H1208.91V124.545H1219.47V126.197ZM1221 129.476H1207.19V127.816H1221V129.476ZM1211.02 125.375H1208.91V120.951H1211.02V125.375ZM1219.56 135.195H1208.77V133.485H1219.56V135.195ZM1210.9 133.975H1208.77V130.713H1210.9V133.975ZM1238.45 128.173H1236.35V120.403H1238.45V128.173ZM1238.47 132.805H1230.44V134.423H1228.37V131.294H1236.36V130.373H1228.34V128.771H1238.47V132.805ZM1238.88 135.419H1228.37V133.792H1238.88V135.419ZM1231.29 122.462C1231.29 123.369 1231.12 124.216 1230.79 125.002C1230.46 125.788 1229.96 126.474 1229.29 127.061C1228.63 127.642 1227.82 128.068 1226.86 128.339L1225.9 126.67C1226.7 126.444 1227.38 126.111 1227.92 125.674C1228.48 125.232 1228.89 124.736 1229.15 124.188C1229.42 123.635 1229.56 123.06 1229.56 122.462V121.831H1231.29V122.462ZM1231.71 122.462C1231.71 123.026 1231.84 123.566 1232.11 124.081C1232.37 124.595 1232.78 125.057 1233.32 125.467C1233.86 125.871 1234.53 126.178 1235.33 126.388L1234.32 128.032C1233.38 127.772 1232.59 127.368 1231.95 126.82C1231.31 126.266 1230.82 125.616 1230.5 124.869C1230.18 124.122 1230.02 123.32 1230.02 122.462V121.831H1231.71V122.462ZM1234.75 122.802H1226.45V121.117H1234.75V122.802ZM1251.61 124.313H1247.85V122.653H1251.61V124.313ZM1251.61 127.426H1247.85V125.732H1251.61V127.426ZM1243.29 123.375H1246.26V121.341H1248.36V128.58H1241.15V121.341H1243.29V123.375ZM1246.26 126.928V125.002H1243.29V126.928H1246.26ZM1253.25 129.451H1251.14V120.403H1253.25V129.451ZM1248.09 129.7C1249.16 129.706 1250.09 129.825 1250.87 130.057C1251.65 130.284 1252.25 130.619 1252.67 131.062C1253.08 131.499 1253.29 132.024 1253.3 132.639C1253.29 133.242 1253.08 133.759 1252.66 134.191C1252.24 134.628 1251.65 134.96 1250.87 135.187C1250.09 135.414 1249.16 135.527 1248.09 135.527C1247.02 135.527 1246.09 135.414 1245.31 135.187C1244.54 134.96 1243.94 134.628 1243.52 134.191C1243.11 133.759 1242.9 133.242 1242.9 132.639C1242.9 132.024 1243.11 131.499 1243.52 131.062C1243.94 130.619 1244.54 130.284 1245.31 130.057C1246.09 129.825 1247.02 129.706 1248.09 129.7ZM1248.09 131.327C1247.41 131.322 1246.85 131.369 1246.39 131.468C1245.94 131.562 1245.59 131.706 1245.35 131.9C1245.12 132.094 1245 132.34 1245 132.639C1245 132.915 1245.12 133.151 1245.35 133.344C1245.59 133.532 1245.94 133.674 1246.39 133.768C1246.85 133.862 1247.41 133.911 1248.09 133.917C1248.76 133.911 1249.33 133.862 1249.79 133.768C1250.25 133.674 1250.6 133.532 1250.83 133.344C1251.07 133.151 1251.18 132.915 1251.18 132.639C1251.18 132.34 1251.07 132.094 1250.83 131.9C1250.6 131.706 1250.26 131.562 1249.8 131.468C1249.34 131.369 1248.77 131.322 1248.09 131.327Z" fill="#3D3D3D"/>
</svg>
