<svg width="238" height="778" viewBox="0 0 238 778" fill="none" xmlns="http://www.w3.org/2000/svg">
<rect x="30" y="174" width="167" height="146" fill="#01875F"/>
<rect x="30.5" y="105.5" width="166" height="42" fill="#F7F7F7" stroke="#01875F"/>
<rect x="31.5" y="346.5" width="166" height="42" fill="#F7F7F7" stroke="#01875F"/>
<path d="M96.7192 128.693C97.519 128.693 98.2109 128.78 98.7949 128.953C99.3831 129.127 99.8338 129.383 100.147 129.721C100.46 130.056 100.617 130.455 100.617 130.921C100.617 131.391 100.46 131.795 100.147 132.133C99.8338 132.472 99.3831 132.73 98.7949 132.908C98.2109 133.09 97.519 133.183 96.7192 133.187C95.9067 133.183 95.2021 133.09 94.6055 132.908C94.013 132.73 93.556 132.472 93.2344 132.133C92.917 131.795 92.7583 131.391 92.7583 130.921C92.7583 130.455 92.917 130.056 93.2344 129.721C93.556 129.383 94.013 129.127 94.6055 128.953C95.2021 128.78 95.9067 128.693 96.7192 128.693ZM96.7192 129.943C96.2114 129.943 95.784 129.979 95.437 130.051C95.09 130.123 94.8276 130.231 94.6499 130.375C94.4722 130.519 94.3854 130.701 94.3896 130.921C94.3854 131.141 94.4722 131.325 94.6499 131.473C94.8319 131.617 95.0964 131.729 95.4434 131.81C95.7904 131.886 96.2157 131.924 96.7192 131.924C97.2228 131.924 97.6439 131.886 97.9824 131.81C98.3252 131.729 98.5833 131.617 98.7568 131.473C98.9346 131.325 99.0234 131.141 99.0234 130.921C99.0234 130.701 98.9346 130.519 98.7568 130.375C98.5833 130.231 98.3252 130.123 97.9824 130.051C97.6439 129.979 97.2228 129.943 96.7192 129.943ZM100.509 128.426H98.8901V121.603H100.509V128.426ZM102.07 125.652H100.052V124.3H102.07V125.652ZM93.2915 123.805H95.6592V122.345H97.2842V127.766H91.6855V122.345H93.2915V123.805ZM95.6592 126.497V125.056H93.2915V126.497H95.6592ZM113.134 128.617H102.572V127.322H113.134V128.617ZM108.792 130.61H107.193V128.134H108.792V130.61ZM111.789 126.376H103.886V122.123H111.789V126.376ZM105.473 125.113H110.195V123.374H105.473V125.113ZM111.973 132.971H103.803V131.664H111.973V132.971ZM105.428 132.095H103.803V129.601H105.428V132.095ZM124.382 131.822H113.82V130.508H124.382V131.822ZM119.907 130.889H118.276V127.938H119.907V130.889ZM119.596 123.551C119.596 124.364 119.406 125.109 119.025 125.786C118.648 126.458 118.102 127.026 117.387 127.487C116.672 127.948 115.834 128.268 114.874 128.445L114.239 127.163C115.06 127.032 115.771 126.784 116.372 126.42C116.977 126.056 117.436 125.627 117.749 125.132C118.066 124.632 118.225 124.106 118.225 123.551V123.132H119.596V123.551ZM119.926 123.551C119.926 124.106 120.085 124.628 120.402 125.119C120.724 125.61 121.192 126.033 121.805 126.389C122.419 126.74 123.149 126.977 123.995 127.1L123.36 128.375C122.379 128.206 121.526 127.895 120.802 127.442C120.083 126.99 119.528 126.431 119.139 125.767C118.754 125.102 118.564 124.364 118.568 123.551V123.132H119.926V123.551ZM123.462 123.805H114.689V122.491H123.462V123.805ZM128.997 124.224C128.993 125.202 128.872 126.122 128.635 126.985C128.403 127.844 128.045 128.608 127.562 129.277C127.084 129.941 126.494 130.447 125.792 130.794L124.795 129.48C125.43 129.192 125.963 128.773 126.395 128.223C126.826 127.673 127.148 127.057 127.359 126.376C127.571 125.69 127.679 124.973 127.683 124.224V122.498H128.997V124.224ZM129.295 124.224C129.295 124.944 129.397 125.631 129.6 126.287C129.803 126.943 130.108 127.535 130.514 128.064C130.925 128.589 131.43 128.995 132.031 129.283L131.054 130.572C130.377 130.237 129.81 129.749 129.353 129.105C128.9 128.462 128.561 127.726 128.337 126.896C128.113 126.067 128.003 125.176 128.007 124.224V122.498H129.295V124.224ZM134.164 133.168H132.539V121.603H134.164V133.168ZM135.878 127.442H133.809V126.065H135.878V127.442Z" fill="#1D1D1D"/>
<path d="M77.0879 363.383C77.6888 363.383 78.2326 363.506 78.7192 363.751C79.2101 363.993 79.5931 364.329 79.8682 364.761C80.1475 365.192 80.2871 365.679 80.2871 366.221C80.2871 366.767 80.1475 367.255 79.8682 367.687C79.5931 368.114 79.2101 368.451 78.7192 368.696C78.2326 368.938 77.6888 369.058 77.0879 369.058C76.4827 369.058 75.9347 368.938 75.4438 368.696C74.9572 368.451 74.5742 368.114 74.2949 367.687C74.0156 367.255 73.876 366.767 73.876 366.221C73.876 365.679 74.0156 365.192 74.2949 364.761C74.5742 364.329 74.9572 363.993 75.4438 363.751C75.9347 363.506 76.4827 363.383 77.0879 363.383ZM77.0879 364.78C76.779 364.784 76.5039 364.843 76.2627 364.958C76.0215 365.068 75.8311 365.233 75.6914 365.453C75.5518 365.673 75.4819 365.929 75.4819 366.221C75.4819 366.521 75.5518 366.779 75.6914 366.995C75.8311 367.207 76.0215 367.37 76.2627 367.484C76.5039 367.598 76.779 367.657 77.0879 367.662C77.3968 367.657 77.674 367.598 77.9194 367.484C78.1691 367.37 78.3617 367.207 78.4971 366.995C78.6367 366.779 78.7065 366.521 78.7065 366.221C78.7065 365.929 78.6367 365.673 78.4971 365.453C78.3617 365.233 78.1691 365.068 77.9194 364.958C77.674 364.843 77.3968 364.784 77.0879 364.78ZM83.0483 374.2H81.4424V362.603H83.0483V374.2ZM73.3936 370.518C74.7731 370.518 76.0744 370.495 77.2974 370.448C78.5246 370.402 79.6883 370.302 80.7886 370.15L80.9028 371.312C80.1115 371.468 79.2905 371.584 78.4399 371.661C77.5894 371.733 76.7874 371.779 76.0342 371.8C75.2809 371.821 74.4642 371.832 73.584 371.832L73.3936 370.518ZM88.5264 365.224C88.5221 366.202 88.4015 367.122 88.1646 367.985C87.9318 368.844 87.5742 369.608 87.0918 370.277C86.6136 370.941 86.0233 371.447 85.3208 371.794L84.3242 370.48C84.959 370.192 85.4922 369.773 85.9238 369.223C86.3555 368.673 86.6771 368.057 86.8887 367.376C87.1003 366.69 87.2082 365.973 87.2124 365.224V363.498H88.5264V365.224ZM88.8247 365.224C88.8247 365.944 88.9263 366.631 89.1294 367.287C89.3325 367.943 89.6372 368.535 90.0435 369.064C90.4539 369.589 90.9596 369.995 91.5605 370.283L90.583 371.572C89.9059 371.237 89.3389 370.749 88.8818 370.105C88.429 369.462 88.0905 368.726 87.8662 367.896C87.6419 367.067 87.5319 366.176 87.5361 365.224V363.498H88.8247V365.224ZM93.6934 374.168H92.0684V362.603H93.6934V374.168ZM95.4072 368.442H93.3379V367.065H95.4072V368.442ZM106.382 372.791H95.8198V371.496H106.382V372.791ZM101.844 371.838H100.231V368.874H101.844V371.838ZM101.59 364.101C101.59 364.926 101.393 365.696 101 366.411C100.61 367.122 100.049 367.727 99.3174 368.227C98.5895 368.726 97.7368 369.067 96.7593 369.249L96.061 367.896C96.9032 367.765 97.6353 367.505 98.2573 367.116C98.8794 366.722 99.3512 366.263 99.6729 365.738C99.9987 365.209 100.164 364.663 100.168 364.101V363.282H101.59V364.101ZM101.888 364.101C101.888 364.668 102.051 365.216 102.377 365.745C102.707 366.269 103.183 366.726 103.805 367.116C104.431 367.505 105.17 367.765 106.021 367.896L105.329 369.249C104.347 369.067 103.49 368.73 102.758 368.239C102.026 367.744 101.463 367.141 101.069 366.43C100.676 365.715 100.481 364.938 100.485 364.101V363.282H101.888V364.101ZM116.78 371.14H115.174V362.628H116.78V371.14ZM113.263 363.485C113.259 364.513 113.045 365.451 112.622 366.297C112.199 367.143 111.583 367.873 110.775 368.487C109.971 369.096 109.008 369.57 107.887 369.909L107.201 368.646C108.111 368.358 108.892 367.994 109.543 367.554C110.195 367.109 110.69 366.604 111.029 366.037C111.372 365.47 111.545 364.862 111.549 364.215V363.485H113.263ZM112.546 364.786H107.817V363.485H112.546V364.786ZM115.396 366.145H112.635V364.856H115.396V366.145ZM115.307 368.734H112.527V367.439H115.307V368.734ZM117.084 373.971H109.163V372.664H117.084V373.971ZM110.807 373.489H109.163V370.29H110.807V373.489ZM127.241 367.554H124.162V366.252H127.241V367.554ZM122.328 365.224C122.323 366.214 122.205 367.143 121.972 368.011C121.739 368.878 121.384 369.648 120.906 370.321C120.428 370.99 119.837 371.5 119.135 371.851L118.119 370.524C118.758 370.241 119.293 369.824 119.725 369.274C120.157 368.72 120.478 368.097 120.69 367.408C120.902 366.714 121.009 365.986 121.014 365.224V363.498H122.328V365.224ZM122.658 365.224C122.658 365.982 122.759 366.697 122.962 367.37C123.166 368.038 123.477 368.635 123.896 369.16C124.314 369.68 124.835 370.076 125.457 370.347L124.467 371.642C123.769 371.299 123.189 370.81 122.728 370.175C122.266 369.536 121.921 368.8 121.693 367.966C121.469 367.128 121.356 366.214 121.356 365.224V363.498H122.658V365.224ZM128.034 374.2H126.428V362.603H128.034V374.2ZM142.513 374.168H140.99V362.603H142.513V374.168ZM139.06 367.884H137.111V366.583H139.06V367.884ZM140.152 373.641H138.635V362.806H140.152V373.641ZM135.848 365.707C135.844 366.608 135.751 367.465 135.569 368.277C135.387 369.09 135.103 369.822 134.718 370.474C134.337 371.125 133.853 371.631 133.265 371.991L132.287 370.797C132.829 370.463 133.275 370.027 133.626 369.49C133.978 368.948 134.232 368.358 134.388 367.719C134.545 367.076 134.623 366.405 134.623 365.707V364.494H135.848V365.707ZM136.185 365.707C136.185 366.388 136.261 367.033 136.413 367.643C136.565 368.252 136.811 368.811 137.149 369.318C137.492 369.822 137.932 370.228 138.47 370.537L137.524 371.724C136.931 371.377 136.447 370.897 136.07 370.283C135.694 369.67 135.419 368.978 135.245 368.208C135.076 367.433 134.991 366.599 134.991 365.707V364.494H136.185V365.707ZM137.937 365.084H132.725V363.79H137.937V365.084ZM149.826 370.156H148.232V368.474H149.826V370.156ZM154.282 368.715H143.789V367.535H154.282V368.715ZM149.819 363.999H148.213V362.603H149.819V363.999ZM149.534 364.297C149.534 364.856 149.347 365.345 148.975 365.764C148.603 366.183 148.048 366.519 147.312 366.773C146.58 367.023 145.689 367.175 144.64 367.23L144.202 366.037C145.09 365.994 145.827 365.891 146.411 365.726C146.999 365.556 147.428 365.349 147.699 365.104C147.974 364.858 148.112 364.589 148.112 364.297V364.062H149.534V364.297ZM149.927 364.297C149.923 364.589 150.058 364.858 150.333 365.104C150.609 365.349 151.04 365.556 151.628 365.726C152.217 365.891 152.959 365.994 153.856 366.037L153.387 367.23C152.341 367.175 151.453 367.021 150.721 366.767C149.993 366.513 149.441 366.178 149.064 365.764C148.687 365.345 148.501 364.856 148.505 364.297V364.062H149.927V364.297ZM153.285 364.716H144.779V363.517H153.285V364.716ZM153.019 372.257H146.582V373.381H144.989V371.172H151.419V370.607H144.982V369.445H153.019V372.257ZM153.323 374.085H144.989V372.898H153.323V374.085Z" fill="#1D1D1D"/>
<path d="M60.6001 203.809H61.9458L61.3174 207.42H59.502L60.6001 203.809ZM66.7383 204.653C66.734 205.406 66.6113 206.109 66.3701 206.76C66.1289 207.408 65.7586 207.973 65.2593 208.455C64.7642 208.938 64.1548 209.295 63.4312 209.528L62.6187 208.252C63.2365 208.053 63.7549 207.767 64.1738 207.395C64.5928 207.018 64.9017 206.595 65.1006 206.125C65.3037 205.656 65.4074 205.165 65.4116 204.653V203.897H66.7383V204.653ZM67.0493 204.646C67.0493 205.116 67.1445 205.563 67.335 205.986C67.5254 206.405 67.8195 206.781 68.2173 207.116C68.6151 207.446 69.1123 207.7 69.709 207.877L68.9473 209.141C68.2363 208.929 67.6418 208.601 67.1636 208.157C66.6854 207.708 66.3257 207.186 66.0845 206.589C65.8475 205.988 65.729 205.34 65.729 204.646V203.897H67.0493V204.646ZM69.3535 204.678H63.0566V203.383H69.3535V204.678ZM71.9497 209.464H70.3311V202.603H71.9497V209.464ZM73.5112 206.614H71.4927V205.294H73.5112V206.614ZM68.1602 209.693C68.96 209.693 69.6519 209.782 70.2358 209.959C70.8241 210.133 71.2747 210.387 71.5879 210.721C71.901 211.056 72.0576 211.455 72.0576 211.921C72.0576 212.386 71.901 212.786 71.5879 213.121C71.2747 213.459 70.8241 213.717 70.2358 213.895C69.6519 214.077 68.96 214.168 68.1602 214.168C67.3519 214.168 66.6494 214.077 66.0527 213.895C65.4561 213.717 64.9969 213.459 64.6753 213.121C64.3579 212.786 64.1992 212.386 64.1992 211.921C64.1992 211.455 64.3579 211.056 64.6753 210.721C64.9969 210.387 65.4539 210.133 66.0464 209.959C66.6431 209.782 67.3477 209.693 68.1602 209.693ZM68.1602 210.95C67.6566 210.95 67.2292 210.986 66.8779 211.058C66.5309 211.13 66.2686 211.24 66.0908 211.388C65.9131 211.532 65.8263 211.709 65.8306 211.921C65.8263 212.141 65.9131 212.325 66.0908 212.473C66.2686 212.617 66.5309 212.727 66.8779 212.803C67.2249 212.875 67.6523 212.911 68.1602 212.911C68.6637 212.911 69.0848 212.875 69.4233 212.803C69.7661 212.727 70.0243 212.617 70.1978 212.473C70.3755 212.325 70.4644 212.141 70.4644 211.921C70.4644 211.705 70.3755 211.525 70.1978 211.381C70.0243 211.237 69.7661 211.13 69.4233 211.058C69.0848 210.986 68.6637 210.95 68.1602 210.95ZM83.731 214.168H82.0869V202.603H83.731V214.168ZM80.2715 203.821C80.2673 205.061 80.1001 206.187 79.77 207.198C79.4399 208.205 78.8792 209.132 78.0879 209.979C77.2965 210.825 76.2365 211.561 74.9077 212.188L74.0571 210.893C75.1659 210.368 76.0566 209.778 76.7295 209.122C77.4066 208.466 77.8975 207.729 78.2021 206.913C78.5068 206.096 78.6592 205.161 78.6592 204.107V203.821H80.2715ZM79.4019 205.097H74.6729V203.821H79.4019V205.097ZM89.2217 211.737H87.6157V208.493H89.2217V211.737ZM93.4746 211.737H91.8433V208.493H93.4746V211.737ZM95.8232 212.816H85.2607V211.489H95.8232V212.816ZM90.5229 203.174C91.3566 203.174 92.1014 203.303 92.7573 203.561C93.4175 203.819 93.9338 204.183 94.3062 204.653C94.6828 205.123 94.8711 205.662 94.8711 206.271C94.8711 206.889 94.6849 207.431 94.3125 207.896C93.9401 208.362 93.4238 208.724 92.7637 208.982C92.1035 209.24 91.3566 209.369 90.5229 209.369C89.6893 209.369 88.9424 209.24 88.2822 208.982C87.6263 208.724 87.1121 208.362 86.7397 207.896C86.3674 207.431 86.1812 206.889 86.1812 206.271C86.1812 205.662 86.3674 205.123 86.7397 204.653C87.1121 204.183 87.6263 203.819 88.2822 203.561C88.9424 203.303 89.6893 203.174 90.5229 203.174ZM90.5229 204.456C89.9686 204.452 89.4862 204.522 89.0757 204.666C88.6652 204.809 88.3457 205.019 88.1172 205.294C87.8929 205.569 87.7808 205.895 87.7808 206.271C87.7808 206.648 87.8929 206.976 88.1172 207.255C88.3457 207.53 88.6652 207.742 89.0757 207.89C89.4904 208.038 89.9728 208.114 90.5229 208.119C91.0688 208.114 91.5492 208.038 91.9639 207.89C92.3786 207.738 92.7002 207.524 92.9287 207.249C93.1572 206.974 93.2715 206.648 93.2715 206.271C93.2715 205.895 93.1572 205.569 92.9287 205.294C92.7002 205.019 92.3786 204.809 91.9639 204.666C91.5492 204.522 91.0688 204.452 90.5229 204.456ZM107.16 205.376H105.154V204.056H107.16V205.376ZM107.16 207.896H105.154V206.563H107.16V207.896ZM99.7334 203.25C100.326 203.25 100.861 203.366 101.339 203.599C101.822 203.832 102.201 204.164 102.476 204.596C102.751 205.023 102.89 205.506 102.895 206.043C102.89 206.58 102.751 207.061 102.476 207.484C102.201 207.907 101.822 208.239 101.339 208.48C100.861 208.722 100.326 208.842 99.7334 208.842C99.141 208.842 98.6035 208.722 98.1211 208.48C97.6387 208.235 97.2578 207.901 96.9785 207.478C96.7035 207.054 96.5659 206.576 96.5659 206.043C96.5659 205.506 96.7035 205.023 96.9785 204.596C97.2578 204.164 97.6387 203.832 98.1211 203.599C98.6035 203.366 99.141 203.25 99.7334 203.25ZM99.7334 204.608C99.4329 204.604 99.1621 204.661 98.9209 204.78C98.6839 204.894 98.4977 205.061 98.3623 205.281C98.2269 205.501 98.1592 205.755 98.1592 206.043C98.1592 206.339 98.2269 206.595 98.3623 206.811C98.4977 207.027 98.6839 207.192 98.9209 207.306C99.1621 207.42 99.4329 207.478 99.7334 207.478C100.034 207.478 100.303 207.42 100.54 207.306C100.781 207.192 100.969 207.027 101.104 206.811C101.244 206.595 101.314 206.339 101.314 206.043C101.314 205.755 101.244 205.501 101.104 205.281C100.969 205.061 100.781 204.894 100.54 204.78C100.303 204.661 100.034 204.604 99.7334 204.608ZM105.656 209.369H104.037V202.603H105.656V209.369ZM101.866 209.604C102.658 209.604 103.347 209.695 103.936 209.877C104.524 210.059 104.974 210.323 105.288 210.67C105.605 211.013 105.764 211.422 105.764 211.896C105.764 212.365 105.605 212.769 105.288 213.108C104.974 213.446 104.524 213.707 103.936 213.889C103.347 214.075 102.658 214.168 101.866 214.168C101.066 214.168 100.368 214.075 99.7715 213.889C99.1748 213.707 98.7135 213.446 98.3877 213.108C98.0661 212.769 97.9053 212.365 97.9053 211.896C97.9053 211.422 98.0661 211.013 98.3877 210.67C98.7135 210.323 99.1748 210.059 99.7715 209.877C100.368 209.695 101.066 209.604 101.866 209.604ZM101.866 210.88C101.363 210.884 100.937 210.924 100.59 211C100.243 211.072 99.9788 211.185 99.7969 211.337C99.6191 211.485 99.5324 211.671 99.5366 211.896C99.5324 212.12 99.6191 212.304 99.7969 212.448C99.9746 212.592 100.235 212.702 100.578 212.778C100.925 212.85 101.354 212.886 101.866 212.886C102.37 212.886 102.793 212.85 103.136 212.778C103.479 212.702 103.737 212.592 103.91 212.448C104.084 212.304 104.17 212.12 104.17 211.896C104.17 211.671 104.082 211.485 103.904 211.337C103.73 211.185 103.472 211.072 103.129 211C102.791 210.924 102.37 210.884 101.866 210.88ZM117.393 210.931H115.774V202.628H117.393V210.931ZM117.71 213.971H109.655V212.664H117.71V213.971ZM111.292 213.197H109.655V210.099H111.292V213.197ZM111.064 203.358C111.648 203.358 112.181 203.483 112.664 203.732C113.15 203.982 113.531 204.329 113.806 204.773C114.085 205.218 114.225 205.715 114.225 206.265C114.225 206.828 114.085 207.334 113.806 207.782C113.531 208.227 113.152 208.576 112.67 208.83C112.188 209.079 111.652 209.204 111.064 209.204C110.476 209.204 109.94 209.079 109.458 208.83C108.98 208.576 108.601 208.227 108.322 207.782C108.042 207.334 107.903 206.828 107.903 206.265C107.903 205.715 108.042 205.218 108.322 204.773C108.601 204.329 108.98 203.982 109.458 203.732C109.94 203.483 110.476 203.358 111.064 203.358ZM111.064 204.767C110.764 204.767 110.493 204.828 110.251 204.951C110.014 205.07 109.826 205.243 109.687 205.472C109.551 205.696 109.483 205.96 109.483 206.265C109.483 206.583 109.551 206.855 109.687 207.084C109.826 207.312 110.014 207.488 110.251 207.611C110.493 207.734 110.764 207.793 111.064 207.789C111.36 207.793 111.625 207.734 111.857 207.611C112.094 207.488 112.281 207.312 112.416 207.084C112.551 206.855 112.619 206.583 112.619 206.265C112.619 205.96 112.551 205.696 112.416 205.472C112.281 205.243 112.094 205.07 111.857 204.951C111.62 204.828 111.356 204.767 111.064 204.767ZM127.504 206.741H125.283V205.427H127.504V206.741ZM128.698 209.477H127.085V202.603H128.698V209.477ZM124.75 209.731C125.57 209.731 126.279 209.82 126.876 209.998C127.473 210.175 127.93 210.431 128.247 210.766C128.569 211.096 128.732 211.493 128.736 211.959C128.732 212.42 128.569 212.816 128.247 213.146C127.93 213.48 127.473 213.736 126.876 213.914C126.279 214.092 125.57 214.183 124.75 214.187C123.933 214.183 123.226 214.092 122.629 213.914C122.037 213.736 121.58 213.48 121.258 213.146C120.941 212.816 120.782 212.42 120.782 211.959C120.782 211.493 120.941 211.096 121.258 210.766C121.58 210.431 122.037 210.175 122.629 209.998C123.226 209.82 123.933 209.731 124.75 209.731ZM124.75 210.962C124.233 210.962 123.802 211 123.455 211.077C123.108 211.149 122.843 211.259 122.661 211.407C122.479 211.555 122.388 211.739 122.388 211.959C122.388 212.175 122.479 212.357 122.661 212.505C122.843 212.653 123.108 212.765 123.455 212.841C123.806 212.913 124.237 212.949 124.75 212.949C125.266 212.949 125.7 212.913 126.051 212.841C126.406 212.765 126.673 212.653 126.851 212.505C127.028 212.357 127.117 212.175 127.117 211.959C127.117 211.739 127.028 211.555 126.851 211.407C126.673 211.259 126.406 211.149 126.051 211.077C125.7 211 125.266 210.962 124.75 210.962ZM122.991 204.532C122.991 205.281 122.871 205.984 122.629 206.64C122.392 207.296 122.028 207.873 121.538 208.373C121.051 208.868 120.45 209.238 119.735 209.483L118.891 208.195C119.504 207.987 120.018 207.691 120.433 207.306C120.852 206.921 121.161 206.492 121.36 206.018C121.563 205.539 121.667 205.044 121.671 204.532V203.771H122.991V204.532ZM123.321 204.52C123.321 204.993 123.417 205.451 123.607 205.891C123.802 206.326 124.098 206.722 124.496 207.078C124.893 207.433 125.389 207.71 125.981 207.909L125.181 209.179C124.483 208.95 123.895 208.603 123.417 208.138C122.943 207.668 122.587 207.124 122.35 206.506C122.117 205.884 122.003 205.222 122.007 204.52V203.771H123.321V204.52ZM125.625 204.615H119.354V203.307H125.625V204.615ZM140.765 212.822H130.202V211.508H140.765V212.822ZM136.29 211.889H134.658V208.938H136.29V211.889ZM135.979 204.551C135.979 205.364 135.788 206.109 135.407 206.786C135.031 207.458 134.485 208.026 133.77 208.487C133.054 208.948 132.216 209.268 131.256 209.445L130.621 208.163C131.442 208.032 132.153 207.784 132.754 207.42C133.359 207.056 133.818 206.627 134.131 206.132C134.449 205.632 134.607 205.106 134.607 204.551V204.132H135.979V204.551ZM136.309 204.551C136.309 205.106 136.467 205.628 136.785 206.119C137.106 206.61 137.574 207.033 138.188 207.389C138.801 207.74 139.531 207.977 140.377 208.1L139.743 209.375C138.761 209.206 137.908 208.895 137.185 208.442C136.465 207.99 135.911 207.431 135.521 206.767C135.136 206.102 134.946 205.364 134.95 204.551V204.132H136.309V204.551ZM139.844 204.805H131.072V203.491H139.844V204.805ZM145.379 205.224C145.375 206.202 145.255 207.122 145.018 207.985C144.785 208.844 144.427 209.608 143.945 210.277C143.467 210.941 142.876 211.447 142.174 211.794L141.177 210.48C141.812 210.192 142.345 209.773 142.777 209.223C143.208 208.673 143.53 208.057 143.742 207.376C143.953 206.69 144.061 205.973 144.065 205.224V203.498H145.379V205.224ZM145.678 205.224C145.678 205.944 145.779 206.631 145.982 207.287C146.186 207.943 146.49 208.535 146.896 209.064C147.307 209.589 147.813 209.995 148.414 210.283L147.436 211.572C146.759 211.237 146.192 210.749 145.735 210.105C145.282 209.462 144.944 208.726 144.719 207.896C144.495 207.067 144.385 206.176 144.389 205.224V203.498H145.678V205.224ZM150.546 214.168H148.921V202.603H150.546V214.168ZM152.26 208.442H150.191V207.065H152.26V208.442ZM156.919 212.022H155.288V208.887H156.919V212.022ZM160.557 212.042H158.938V208.899H160.557V212.042ZM163.235 212.886H152.673V211.591H163.235V212.886ZM162.353 204.837H153.492V203.536H162.353V204.837ZM162.302 209.395H153.549V208.087H162.302V209.395ZM156.71 208.284H155.091V204.608H156.71V208.284ZM160.728 208.284H159.135V204.608H160.728V208.284ZM165.394 207.427H164.048L164.676 203.815H166.492L165.394 207.427ZM101.581 224.182H99.6509V222.887H101.581V224.182ZM105.002 230.168H103.447V218.603H105.002V230.168ZM102.596 229.635H101.066V218.78H102.596V229.635ZM97.6006 219.434C98.1084 219.434 98.5549 219.603 98.9399 219.942C99.3293 220.28 99.6276 220.765 99.835 221.396C100.047 222.026 100.152 222.767 100.152 223.617C100.152 224.472 100.047 225.217 99.835 225.852C99.6276 226.482 99.3293 226.969 98.9399 227.312C98.5549 227.65 98.1084 227.819 97.6006 227.819C97.0928 227.819 96.6506 227.65 96.2739 227.312C95.8973 226.969 95.6032 226.482 95.3916 225.852C95.1842 225.217 95.0806 224.472 95.0806 223.617C95.0806 222.767 95.1842 222.026 95.3916 221.396C95.6032 220.765 95.8973 220.28 96.2739 219.942C96.6506 219.603 97.0928 219.434 97.6006 219.434ZM97.6006 220.97C97.3805 220.97 97.1943 221.068 97.042 221.262C96.8896 221.457 96.7733 221.753 96.6929 222.151C96.6125 222.544 96.5744 223.033 96.5786 223.617C96.5744 224.201 96.6125 224.692 96.6929 225.09C96.7733 225.483 96.8896 225.778 97.042 225.972C97.1986 226.167 97.3848 226.264 97.6006 226.264C97.8249 226.264 98.0153 226.167 98.1719 225.972C98.3327 225.778 98.4533 225.483 98.5337 225.09C98.6183 224.696 98.6606 224.205 98.6606 223.617C98.6606 223.033 98.6183 222.544 98.5337 222.151C98.4533 221.753 98.3327 221.457 98.1719 221.262C98.0153 221.068 97.8249 220.97 97.6006 220.97ZM112.975 219.383C113.576 219.383 114.119 219.506 114.606 219.751C115.097 219.993 115.48 220.329 115.755 220.761C116.034 221.192 116.174 221.679 116.174 222.221C116.174 222.767 116.034 223.255 115.755 223.687C115.48 224.114 115.097 224.451 114.606 224.696C114.119 224.938 113.576 225.058 112.975 225.058C112.369 225.058 111.821 224.938 111.331 224.696C110.844 224.451 110.461 224.114 110.182 223.687C109.902 223.255 109.763 222.767 109.763 222.221C109.763 221.679 109.902 221.192 110.182 220.761C110.461 220.329 110.844 219.993 111.331 219.751C111.821 219.506 112.369 219.383 112.975 219.383ZM112.975 220.78C112.666 220.784 112.391 220.843 112.149 220.958C111.908 221.068 111.718 221.233 111.578 221.453C111.438 221.673 111.369 221.929 111.369 222.221C111.369 222.521 111.438 222.779 111.578 222.995C111.718 223.207 111.908 223.37 112.149 223.484C112.391 223.598 112.666 223.657 112.975 223.662C113.284 223.657 113.561 223.598 113.806 223.484C114.056 223.37 114.248 223.207 114.384 222.995C114.523 222.779 114.593 222.521 114.593 222.221C114.593 221.929 114.523 221.673 114.384 221.453C114.248 221.233 114.056 221.068 113.806 220.958C113.561 220.843 113.284 220.784 112.975 220.78ZM118.935 230.2H117.329V218.603H118.935V230.2ZM109.28 226.518C110.66 226.518 111.961 226.495 113.184 226.448C114.411 226.402 115.575 226.302 116.675 226.15L116.79 227.312C115.998 227.468 115.177 227.584 114.327 227.661C113.476 227.733 112.674 227.779 111.921 227.8C111.168 227.821 110.351 227.832 109.471 227.832L109.28 226.518ZM129.631 227.254H128.012V218.628H129.631V227.254ZM131.192 223.49H129.161V222.164H131.192V223.49ZM127.32 221.11H120.458V219.834H127.32V221.11ZM123.899 221.516C124.449 221.516 124.94 221.611 125.372 221.802C125.803 221.988 126.14 222.25 126.381 222.589C126.622 222.927 126.743 223.317 126.743 223.757C126.743 224.193 126.622 224.578 126.381 224.912C126.14 225.246 125.803 225.507 125.372 225.693C124.94 225.875 124.449 225.966 123.899 225.966C123.34 225.966 122.843 225.875 122.407 225.693C121.976 225.507 121.637 225.246 121.392 224.912C121.15 224.578 121.03 224.193 121.03 223.757C121.03 223.317 121.15 222.927 121.392 222.589C121.637 222.25 121.976 221.988 122.407 221.802C122.843 221.611 123.34 221.516 123.899 221.516ZM123.899 222.76C123.637 222.76 123.408 222.798 123.213 222.875C123.019 222.951 122.868 223.065 122.763 223.217C122.657 223.365 122.604 223.545 122.604 223.757C122.604 223.964 122.657 224.142 122.763 224.29C122.868 224.434 123.019 224.544 123.213 224.62C123.408 224.696 123.637 224.734 123.899 224.734C124.157 224.734 124.383 224.696 124.578 224.62C124.777 224.544 124.931 224.434 125.042 224.29C125.152 224.142 125.207 223.964 125.207 223.757C125.207 223.545 125.152 223.365 125.042 223.217C124.931 223.065 124.777 222.951 124.578 222.875C124.383 222.798 124.157 222.76 123.899 222.76ZM124.705 220.462H123.086V218.609H124.705V220.462ZM130.043 229.971H122.134V228.664H130.043V229.971ZM123.753 229.222H122.134V226.588H123.753V229.222Z" fill="white"/>
<path d="M72.965 262H71.0481V254.624H70.9973L68.8962 255.957V254.256L71.1687 252.809H72.965V262ZM77.3322 262.114C77.1418 262.114 76.9641 262.068 76.799 261.975C76.634 261.877 76.5028 261.746 76.4055 261.581C76.3124 261.416 76.2679 261.236 76.2722 261.042C76.2679 260.851 76.3124 260.675 76.4055 260.515C76.5028 260.354 76.634 260.227 76.799 260.134C76.9641 260.041 77.1418 259.994 77.3322 259.994C77.5184 259.994 77.6941 260.041 77.8591 260.134C78.0241 260.227 78.1532 260.356 78.2463 260.521C78.3436 260.682 78.3944 260.855 78.3986 261.042C78.3944 261.236 78.3436 261.416 78.2463 261.581C78.1532 261.746 78.0241 261.877 77.8591 261.975C77.6941 262.068 77.5184 262.114 77.3322 262.114ZM87.7847 262.127C87.1034 262.123 86.4834 261.972 85.9248 261.676C85.3662 261.38 84.9176 260.896 84.5791 260.223C84.2406 259.55 84.0713 258.68 84.0713 257.614C84.0713 256.594 84.2279 255.714 84.541 254.973C84.8542 254.228 85.2943 253.661 85.8613 253.272C86.4284 252.878 87.0928 252.682 87.8545 252.682C88.4554 252.682 88.995 252.798 89.4731 253.031C89.9556 253.264 90.3407 253.585 90.6284 253.996C90.9204 254.402 91.0981 254.857 91.1616 255.36H89.2764C89.2256 255.145 89.1346 254.958 89.0034 254.802C88.8765 254.641 88.7135 254.52 88.5146 254.44C88.32 254.36 88.0999 254.319 87.8545 254.319C87.4398 254.319 87.0907 254.438 86.8071 254.675C86.5278 254.908 86.3141 255.244 86.166 255.684C86.0221 256.12 85.9481 256.64 85.9438 257.246H86.02C86.1639 256.979 86.3543 256.748 86.5913 256.554C86.8325 256.355 87.1055 256.205 87.4102 256.103C87.7148 256.001 88.0365 255.951 88.375 255.951C88.9209 255.951 89.4118 256.08 89.8477 256.338C90.2878 256.592 90.6326 256.945 90.8823 257.398C91.132 257.847 91.2568 258.354 91.2568 258.921C91.2568 259.543 91.1108 260.098 90.8188 260.584C90.5311 261.067 90.1227 261.446 89.5938 261.721C89.069 261.992 88.466 262.127 87.7847 262.127ZM87.772 260.623C88.0809 260.623 88.3602 260.551 88.6099 260.407C88.8595 260.259 89.0542 260.06 89.1938 259.81C89.3335 259.56 89.4033 259.283 89.4033 258.979C89.4033 258.674 89.3356 258.397 89.2002 258.147C89.0648 257.897 88.8701 257.703 88.6162 257.563C88.3665 257.419 88.0894 257.347 87.7847 257.347C87.48 257.347 87.2028 257.419 86.9531 257.563C86.7035 257.707 86.5046 257.906 86.3564 258.16C86.2083 258.409 86.1343 258.684 86.1343 258.985C86.1343 259.281 86.2062 259.554 86.3501 259.804C86.494 260.053 86.6886 260.252 86.9341 260.4C87.1838 260.549 87.4631 260.623 87.772 260.623ZM95.9668 262.127C95.3363 262.127 94.7671 262.011 94.2593 261.778C93.7557 261.545 93.3579 261.223 93.0659 260.813C92.7739 260.398 92.6237 259.931 92.6152 259.41H94.4624C94.4793 259.643 94.5555 259.852 94.6909 260.039C94.8306 260.221 95.0125 260.364 95.2368 260.47C95.4611 260.572 95.7044 260.623 95.9668 260.623C96.2842 260.623 96.5656 260.553 96.811 260.413C97.0565 260.273 97.249 260.081 97.3887 259.835C97.5283 259.586 97.5981 259.304 97.5981 258.991C97.5981 258.67 97.5262 258.384 97.3823 258.134C97.2427 257.885 97.0459 257.69 96.792 257.55C96.5423 257.406 96.2567 257.334 95.9351 257.334C95.5923 257.33 95.3003 257.394 95.0591 257.525C94.8221 257.652 94.6359 257.844 94.5005 258.103H92.7676L93.269 252.809H98.9248V254.376H94.8433L94.5894 256.693H94.6592C94.8327 256.461 95.0845 256.272 95.4146 256.128C95.7446 255.985 96.1086 255.913 96.5063 255.913C97.0607 255.913 97.5601 256.042 98.0044 256.3C98.453 256.554 98.8042 256.913 99.0581 257.379C99.312 257.84 99.439 258.361 99.439 258.94C99.439 259.554 99.293 260.102 99.001 260.584C98.709 261.067 98.3006 261.446 97.7759 261.721C97.2511 261.992 96.6481 262.127 95.9668 262.127ZM110.325 263.168H108.764V251.603H110.325V263.168ZM109.233 257.29H107.266V255.989H109.233V257.29ZM105.387 253.043C105.382 254.178 105.249 255.208 104.987 256.135C104.729 257.057 104.289 257.912 103.667 258.699C103.044 259.482 102.209 260.178 101.159 260.788L100.22 259.677C101.1 259.156 101.805 258.585 102.333 257.963C102.867 257.341 103.25 256.655 103.482 255.906C103.719 255.157 103.84 254.309 103.844 253.361V253.043H105.387ZM104.314 254.332H100.804V253.043H104.314V254.332ZM107.71 262.654H106.199V251.907H107.71V262.654ZM123.77 258.953H122.151V251.603H123.77V258.953ZM125.331 255.913H123.312V254.567H125.331V255.913ZM119.993 259.055C120.784 259.055 121.472 259.137 122.056 259.302C122.644 259.463 123.097 259.7 123.414 260.013C123.736 260.326 123.896 260.694 123.896 261.118C123.896 261.541 123.736 261.905 123.414 262.209C123.097 262.518 122.644 262.755 122.056 262.92C121.472 263.085 120.784 263.168 119.993 263.168C119.189 263.168 118.493 263.085 117.904 262.92C117.316 262.755 116.865 262.518 116.552 262.209C116.239 261.905 116.083 261.541 116.083 261.118C116.083 260.69 116.239 260.322 116.552 260.013C116.865 259.7 117.316 259.463 117.904 259.302C118.493 259.137 119.189 259.055 119.993 259.055ZM119.993 260.292C119.481 260.292 119.055 260.322 118.717 260.381C118.378 260.441 118.12 260.532 117.942 260.654C117.769 260.777 117.684 260.931 117.688 261.118C117.684 261.3 117.769 261.454 117.942 261.581C118.12 261.704 118.38 261.799 118.723 261.867C119.07 261.93 119.493 261.962 119.993 261.962C120.488 261.962 120.905 261.93 121.243 261.867C121.582 261.799 121.836 261.704 122.005 261.581C122.178 261.454 122.265 261.3 122.265 261.118C122.265 260.931 122.178 260.777 122.005 260.654C121.836 260.532 121.582 260.441 121.243 260.381C120.909 260.322 120.492 260.292 119.993 260.292ZM121.459 253.983H114.597V252.72H121.459V253.983ZM118.038 254.37C118.588 254.37 119.076 254.459 119.504 254.637C119.936 254.81 120.272 255.056 120.513 255.373C120.759 255.686 120.881 256.046 120.881 256.452C120.881 256.863 120.761 257.224 120.52 257.538C120.278 257.847 119.942 258.088 119.51 258.261C119.083 258.435 118.592 258.521 118.038 258.521C117.475 258.521 116.975 258.435 116.54 258.261C116.108 258.088 115.771 257.847 115.53 257.538C115.289 257.224 115.168 256.863 115.168 256.452C115.168 256.046 115.289 255.686 115.53 255.373C115.771 255.056 116.108 254.81 116.54 254.637C116.975 254.459 117.475 254.37 118.038 254.37ZM118.038 255.551C117.775 255.555 117.547 255.591 117.352 255.659C117.157 255.726 117.007 255.828 116.901 255.963C116.796 256.099 116.743 256.262 116.743 256.452C116.743 256.638 116.796 256.797 116.901 256.928C117.007 257.055 117.157 257.153 117.352 257.22C117.547 257.288 117.775 257.32 118.038 257.315C118.296 257.32 118.522 257.288 118.717 257.22C118.916 257.153 119.07 257.055 119.18 256.928C119.29 256.797 119.345 256.638 119.345 256.452C119.345 256.262 119.29 256.099 119.18 255.963C119.07 255.828 118.916 255.726 118.717 255.659C118.522 255.591 118.296 255.555 118.038 255.551ZM118.844 253.405H117.225V251.545H118.844V253.405ZM135.049 256.141H127.146V252.072H135.049V256.141ZM128.733 254.872H133.456V253.335H128.733V254.872ZM136.382 258.547H125.845V257.246H136.382V258.547ZM131.907 257.646H130.276V255.862H131.907V257.646ZM135.094 263.168H133.481V260.667H127.007V259.397H135.094V263.168ZM147.643 261.822H137.081V260.508H147.643V261.822ZM143.168 260.889H141.537V257.938H143.168V260.889ZM142.857 253.551C142.857 254.364 142.667 255.109 142.286 255.786C141.909 256.458 141.363 257.026 140.648 257.487C139.933 257.948 139.095 258.268 138.134 258.445L137.5 257.163C138.32 257.032 139.031 256.784 139.632 256.42C140.237 256.056 140.697 255.627 141.01 255.132C141.327 254.632 141.486 254.106 141.486 253.551V253.132H142.857V253.551ZM143.187 253.551C143.187 254.106 143.346 254.628 143.663 255.119C143.985 255.61 144.452 256.033 145.066 256.389C145.68 256.74 146.41 256.977 147.256 257.1L146.621 258.375C145.639 258.206 144.787 257.895 144.063 257.442C143.344 256.99 142.789 256.431 142.4 255.767C142.015 255.102 141.824 254.364 141.829 253.551V253.132H143.187V253.551ZM146.723 253.805H137.95V252.491H146.723V253.805ZM152.258 254.224C152.254 255.202 152.133 256.122 151.896 256.985C151.663 257.844 151.306 258.608 150.823 259.277C150.345 259.941 149.755 260.447 149.052 260.794L148.056 259.48C148.69 259.192 149.224 258.773 149.655 258.223C150.087 257.673 150.409 257.057 150.62 256.376C150.832 255.69 150.94 254.973 150.944 254.224V252.498H152.258V254.224ZM152.556 254.224C152.556 254.944 152.658 255.631 152.861 256.287C153.064 256.943 153.369 257.535 153.775 258.064C154.185 258.589 154.691 258.995 155.292 259.283L154.314 260.572C153.637 260.237 153.07 259.749 152.613 259.105C152.16 258.462 151.822 257.726 151.598 256.896C151.373 256.067 151.263 255.176 151.268 254.224V252.498H152.556V254.224ZM157.425 263.168H155.8V251.603H157.425V263.168ZM159.139 257.442H157.069V256.065H159.139V257.442ZM68.0139 276.623L71.321 273.582C71.6426 273.269 71.8944 273.009 72.0764 272.801C72.2583 272.594 72.398 272.387 72.4953 272.179C72.5927 271.972 72.6413 271.75 72.6413 271.513C72.6413 271.25 72.5778 271.02 72.4509 270.821C72.3239 270.622 72.1504 270.47 71.9304 270.364C71.7103 270.254 71.4607 270.199 71.1814 270.199C70.8936 270.199 70.6418 270.256 70.426 270.37C70.2144 270.484 70.0494 270.649 69.9309 270.865C69.8124 271.081 69.7531 271.335 69.7531 271.627H67.9377C67.9377 271.035 68.0731 270.516 68.344 270.072C68.6148 269.627 68.9978 269.285 69.4929 269.043C69.988 268.802 70.5572 268.682 71.2004 268.682C71.8479 268.682 72.4192 268.796 72.9143 269.024C73.4136 269.253 73.7987 269.572 74.0695 269.983C74.3404 270.393 74.4758 270.863 74.4758 271.392C74.4758 271.756 74.406 272.105 74.2663 272.439C74.1309 272.77 73.8897 273.14 73.5427 273.55C73.1957 273.957 72.7069 274.445 72.0764 275.017L70.6735 276.369V276.432H74.6091V278H68.0202L68.0139 276.623ZM77.3322 278.114C77.1418 278.114 76.9641 278.068 76.799 277.975C76.634 277.877 76.5028 277.746 76.4055 277.581C76.3124 277.416 76.2679 277.236 76.2722 277.042C76.2679 276.851 76.3124 276.675 76.4055 276.515C76.5028 276.354 76.634 276.227 76.799 276.134C76.9641 276.041 77.1418 275.994 77.3322 275.994C77.5184 275.994 77.6941 276.041 77.8591 276.134C78.0241 276.227 78.1532 276.356 78.2463 276.521C78.3436 276.682 78.3944 276.855 78.3986 277.042C78.3944 277.236 78.3436 277.416 78.2463 277.581C78.1532 277.746 78.0241 277.877 77.8591 277.975C77.6941 278.068 77.5184 278.114 77.3322 278.114ZM84.2109 276.623L87.5181 273.582C87.8397 273.269 88.0915 273.009 88.2734 272.801C88.4554 272.594 88.5951 272.387 88.6924 272.179C88.7897 271.972 88.8384 271.75 88.8384 271.513C88.8384 271.25 88.7749 271.02 88.6479 270.821C88.521 270.622 88.3475 270.47 88.1274 270.364C87.9074 270.254 87.6577 270.199 87.3784 270.199C87.0907 270.199 86.8389 270.256 86.623 270.37C86.4115 270.484 86.2464 270.649 86.1279 270.865C86.0094 271.081 85.9502 271.335 85.9502 271.627H84.1348C84.1348 271.035 84.2702 270.516 84.541 270.072C84.8118 269.627 85.1948 269.285 85.6899 269.043C86.1851 268.802 86.7542 268.682 87.3975 268.682C88.0449 268.682 88.6162 268.796 89.1113 269.024C89.6107 269.253 89.9958 269.572 90.2666 269.983C90.5374 270.393 90.6729 270.863 90.6729 271.392C90.6729 271.756 90.603 272.105 90.4634 272.439C90.328 272.77 90.0868 273.14 89.7397 273.55C89.3927 273.957 88.904 274.445 88.2734 275.017L86.8706 276.369V276.432H90.8062V278H84.2173L84.2109 276.623ZM95.5352 278.127C94.9046 278.127 94.3354 278.011 93.8276 277.778C93.3241 277.545 92.9263 277.223 92.6343 276.813C92.3423 276.398 92.1921 275.931 92.1836 275.41H94.0308C94.0477 275.643 94.1239 275.852 94.2593 276.039C94.3989 276.221 94.5809 276.364 94.8052 276.47C95.0295 276.572 95.2728 276.623 95.5352 276.623C95.8525 276.623 96.134 276.553 96.3794 276.413C96.6248 276.273 96.8174 276.081 96.957 275.835C97.0967 275.586 97.1665 275.304 97.1665 274.991C97.1665 274.67 97.0946 274.384 96.9507 274.134C96.811 273.885 96.6143 273.69 96.3604 273.55C96.1107 273.406 95.825 273.334 95.5034 273.334C95.1606 273.33 94.8687 273.394 94.6274 273.525C94.3905 273.652 94.2043 273.844 94.0688 274.103H92.3359L92.8374 268.809H98.4932V270.376H94.4116L94.1577 272.693H94.2275C94.401 272.461 94.6528 272.272 94.9829 272.128C95.313 271.985 95.6769 271.913 96.0747 271.913C96.6291 271.913 97.1284 272.042 97.5728 272.3C98.0213 272.554 98.3726 272.913 98.6265 273.379C98.8804 273.84 99.0073 274.361 99.0073 274.94C99.0073 275.554 98.8613 276.102 98.5693 276.584C98.2773 277.067 97.869 277.446 97.3442 277.721C96.8195 277.992 96.2165 278.127 95.5352 278.127ZM109.894 279.168H108.332V267.603H109.894V279.168ZM108.802 273.29H106.834V271.989H108.802V273.29ZM104.955 269.043C104.951 270.178 104.818 271.208 104.555 272.135C104.297 273.057 103.857 273.912 103.235 274.699C102.613 275.482 101.777 276.178 100.728 276.788L99.7881 275.677C100.668 275.156 101.373 274.585 101.902 273.963C102.435 273.341 102.818 272.655 103.051 271.906C103.288 271.157 103.408 270.309 103.413 269.361V269.043H104.955ZM103.882 270.332H100.372V269.043H103.882V270.332ZM107.278 278.654H105.768V267.907H107.278V278.654ZM118.177 273.671H116.552V271.513H118.177V273.671ZM122.284 273.671H120.666V271.513H122.284V273.671ZM119.44 267.806C120.291 267.806 121.032 267.899 121.662 268.085C122.297 268.267 122.784 268.529 123.122 268.872C123.465 269.215 123.636 269.617 123.636 270.078C123.636 270.539 123.465 270.941 123.122 271.284C122.784 271.627 122.297 271.889 121.662 272.071C121.032 272.253 120.291 272.344 119.44 272.344C118.59 272.344 117.847 272.253 117.212 272.071C116.582 271.885 116.093 271.623 115.746 271.284C115.399 270.941 115.226 270.539 115.226 270.078C115.226 269.617 115.399 269.215 115.746 268.872C116.093 268.529 116.582 268.267 117.212 268.085C117.847 267.899 118.59 267.806 119.44 267.806ZM119.44 269.069C118.895 269.069 118.433 269.105 118.057 269.177C117.684 269.249 117.399 269.361 117.2 269.513C117.005 269.661 116.908 269.85 116.908 270.078C116.908 270.298 117.005 270.484 117.2 270.637C117.399 270.785 117.686 270.899 118.063 270.979C118.44 271.056 118.899 271.092 119.44 271.087C119.978 271.092 120.435 271.056 120.812 270.979C121.192 270.899 121.48 270.785 121.675 270.637C121.869 270.484 121.967 270.298 121.967 270.078C121.967 269.854 121.869 269.666 121.675 269.513C121.48 269.361 121.192 269.249 120.812 269.177C120.435 269.105 119.978 269.069 119.44 269.069ZM124.715 274.579H114.178V273.303H124.715V274.579ZM123.427 279.168H121.814V276.654H115.34V275.385H123.427V279.168ZM133.938 269.577H126.613V268.294H133.938V269.577ZM135.951 274.515H125.414V273.208H135.951V274.515ZM131.438 279.181H129.812V274.115H131.438V279.181ZM134.713 269.386C134.709 269.936 134.7 270.417 134.688 270.827C134.675 271.238 134.632 271.712 134.561 272.249C134.493 272.786 134.389 273.366 134.25 273.988L132.65 273.811C132.785 273.222 132.885 272.67 132.948 272.154C133.012 271.633 133.052 271.178 133.069 270.789C133.086 270.4 133.094 269.93 133.094 269.38V269.323V268.294H134.713V269.323V269.386ZM147.211 277.822H136.649V276.508H147.211V277.822ZM142.736 276.889H141.105V273.938H142.736V276.889ZM142.425 269.551C142.425 270.364 142.235 271.109 141.854 271.786C141.477 272.458 140.931 273.026 140.216 273.487C139.501 273.948 138.663 274.268 137.703 274.445L137.068 273.163C137.889 273.032 138.6 272.784 139.201 272.42C139.806 272.056 140.265 271.627 140.578 271.132C140.896 270.632 141.054 270.106 141.054 269.551V269.132H142.425V269.551ZM142.755 269.551C142.755 270.106 142.914 270.628 143.231 271.119C143.553 271.61 144.021 272.033 144.634 272.389C145.248 272.74 145.978 272.977 146.824 273.1L146.189 274.375C145.208 274.206 144.355 273.895 143.631 273.442C142.912 272.99 142.358 272.431 141.968 271.767C141.583 271.102 141.393 270.364 141.397 269.551V269.132H142.755V269.551ZM146.291 269.805H137.519V268.491H146.291V269.805ZM151.826 270.224C151.822 271.202 151.701 272.122 151.464 272.985C151.232 273.844 150.874 274.608 150.392 275.277C149.913 275.941 149.323 276.447 148.621 276.794L147.624 275.48C148.259 275.192 148.792 274.773 149.224 274.223C149.655 273.673 149.977 273.057 150.188 272.376C150.4 271.69 150.508 270.973 150.512 270.224V268.498H151.826V270.224ZM152.125 270.224C152.125 270.944 152.226 271.631 152.429 272.287C152.632 272.943 152.937 273.535 153.343 274.064C153.754 274.589 154.259 274.995 154.86 275.283L153.883 276.572C153.206 276.237 152.639 275.749 152.182 275.105C151.729 274.462 151.39 273.726 151.166 272.896C150.942 272.067 150.832 271.176 150.836 270.224V268.498H152.125V270.224ZM156.993 279.168H155.368V267.603H156.993V279.168ZM158.707 273.442H156.638V272.065H158.707V273.442Z" fill="white"/>
<rect x="113.5" y="148.5" width="3" height="25" fill="#F7F7F7" stroke="#01875F"/>
<rect x="114.5" y="320.5" width="3" height="25" fill="#F7F7F7" stroke="#01875F"/>
<rect x="31.5" y="429.5" width="166" height="42" fill="#F7F7F7" stroke="#01875F"/>
<rect x="19" y="498" width="89" height="146" fill="#01875F"/>
<rect x="133" y="498" width="89" height="146" fill="#01875F"/>
<path d="M100.905 452.217H90.3491V450.896H100.905V452.217ZM99.6992 450.09H91.625V448.795H99.6992V450.09ZM99.6357 447.221H93.231V449.449H91.625V445.926H99.6357V447.221ZM95.5986 452.909C96.4323 452.909 97.1496 452.991 97.7505 453.156C98.3514 453.321 98.8127 453.565 99.1343 453.886C99.4559 454.204 99.6188 454.584 99.623 455.029C99.6188 455.482 99.4559 455.869 99.1343 456.19C98.8169 456.512 98.3556 456.755 97.7505 456.92C97.1496 457.085 96.4323 457.168 95.5986 457.168C94.7565 457.168 94.0329 457.085 93.4277 456.92C92.8226 456.755 92.3571 456.512 92.0312 456.19C91.7096 455.869 91.5488 455.482 91.5488 455.029C91.5488 454.584 91.7096 454.204 92.0312 453.886C92.3571 453.565 92.8226 453.321 93.4277 453.156C94.0329 452.991 94.7565 452.909 95.5986 452.909ZM95.5986 454.14C95.0654 454.144 94.6211 454.18 94.2656 454.248C93.9102 454.312 93.6414 454.409 93.4595 454.54C93.2817 454.671 93.195 454.834 93.1992 455.029C93.195 455.232 93.2817 455.401 93.4595 455.537C93.6414 455.672 93.908 455.771 94.2593 455.835C94.6147 455.898 95.0612 455.932 95.5986 455.937C96.1276 455.932 96.5698 455.898 96.9253 455.835C97.2808 455.771 97.5474 455.672 97.7251 455.537C97.9028 455.401 97.9917 455.232 97.9917 455.029C97.9917 454.834 97.9007 454.671 97.7188 454.54C97.541 454.409 97.2744 454.312 96.9189 454.248C96.5635 454.18 96.1234 454.144 95.5986 454.14ZM104.441 453.423H109.246V452.191H110.852V457.041H102.841V452.191H104.441V453.423ZM109.246 455.733V454.661H104.441V455.733H109.246ZM110.262 447.374H102.873V446.079H110.262V447.374ZM112.147 451.423H101.584V450.141H112.147V451.423ZM110.896 446.999C110.896 447.642 110.877 448.214 110.839 448.713C110.801 449.208 110.708 449.784 110.56 450.439L108.935 450.541C109.037 450.088 109.113 449.663 109.164 449.265C109.214 448.867 109.246 448.514 109.259 448.205C109.271 447.896 109.28 447.528 109.284 447.101V446.999V446.079H110.896V446.999ZM119.288 447.869H113.061V446.586H119.288V447.869ZM112.75 451.277C114.075 451.269 115.312 451.243 116.463 451.201C117.619 451.155 118.696 451.07 119.694 450.947L119.815 452.134C118.778 452.312 117.686 452.431 116.54 452.49C115.397 452.545 114.191 452.572 112.921 452.572L112.75 451.277ZM115.568 451.538H114V447.558H115.568V451.538ZM118.342 451.538H116.793V447.558H118.342V451.538ZM121.979 454.127H120.361V445.628H121.979V454.127ZM123.541 450.217H121.51V448.872H123.541V450.217ZM122.392 456.971H114.483V455.664H122.392V456.971ZM116.102 456.025H114.483V453.328H116.102V456.025ZM132.593 449.741H130.371V448.427H132.593V449.741ZM133.786 452.477H132.174V445.603H133.786V452.477ZM129.838 452.731C130.659 452.731 131.368 452.82 131.964 452.998C132.561 453.175 133.018 453.431 133.335 453.766C133.657 454.096 133.82 454.493 133.824 454.959C133.82 455.42 133.657 455.816 133.335 456.146C133.018 456.48 132.561 456.736 131.964 456.914C131.368 457.092 130.659 457.183 129.838 457.187C129.021 457.183 128.314 457.092 127.718 456.914C127.125 456.736 126.668 456.48 126.347 456.146C126.029 455.816 125.871 455.42 125.871 454.959C125.871 454.493 126.029 454.096 126.347 453.766C126.668 453.431 127.125 453.175 127.718 452.998C128.314 452.82 129.021 452.731 129.838 452.731ZM129.838 453.962C129.322 453.962 128.89 454 128.543 454.077C128.196 454.149 127.931 454.259 127.75 454.407C127.568 454.555 127.477 454.739 127.477 454.959C127.477 455.175 127.568 455.357 127.75 455.505C127.931 455.653 128.196 455.765 128.543 455.841C128.894 455.913 129.326 455.949 129.838 455.949C130.354 455.949 130.788 455.913 131.139 455.841C131.495 455.765 131.761 455.653 131.939 455.505C132.117 455.357 132.206 455.175 132.206 454.959C132.206 454.739 132.117 454.555 131.939 454.407C131.761 454.259 131.495 454.149 131.139 454.077C130.788 454 130.354 453.962 129.838 453.962ZM128.08 447.532C128.08 448.281 127.959 448.984 127.718 449.64C127.481 450.296 127.117 450.873 126.626 451.373C126.139 451.868 125.538 452.238 124.823 452.483L123.979 451.195C124.593 450.987 125.107 450.691 125.521 450.306C125.94 449.921 126.249 449.492 126.448 449.018C126.651 448.539 126.755 448.044 126.759 447.532V446.771H128.08V447.532ZM128.41 447.52C128.41 447.993 128.505 448.451 128.695 448.891C128.89 449.326 129.186 449.722 129.584 450.078C129.982 450.433 130.477 450.71 131.069 450.909L130.27 452.179C129.571 451.95 128.983 451.603 128.505 451.138C128.031 450.668 127.675 450.124 127.438 449.506C127.206 448.884 127.091 448.222 127.096 447.52V446.771H128.41V447.52ZM130.714 447.615H124.442V446.307H130.714V447.615Z" fill="#1D1D1D"/>
<path d="M115.292 413.658L115.265 402.281C115.264 402.068 115.335 401.89 115.479 401.746C115.622 401.602 115.8 401.53 116.013 401.529C116.226 401.529 116.404 401.6 116.548 401.743C116.692 401.887 116.764 402.065 116.765 402.277L116.792 413.654L121.949 408.473C122.097 408.324 122.271 408.25 122.47 408.251C122.67 408.253 122.847 408.331 123.003 408.485C123.148 408.64 123.223 408.816 123.229 409.012C123.235 409.208 123.16 409.384 123.005 409.539L116.68 415.895C116.587 415.989 116.488 416.055 116.385 416.094C116.281 416.132 116.169 416.152 116.048 416.152C115.928 416.152 115.816 416.134 115.712 416.095C115.608 416.057 115.509 415.991 115.415 415.898L109.059 409.573C108.92 409.435 108.849 409.264 108.846 409.059C108.842 408.855 108.912 408.675 109.057 408.519C109.211 408.364 109.389 408.286 109.591 408.285C109.792 408.285 109.97 408.362 110.126 408.517L115.292 413.658Z" fill="#01875F"/>
<path d="M114.292 90.658L114.265 79.2811C114.264 79.0682 114.335 78.8899 114.479 78.746C114.622 78.602 114.8 78.5298 115.013 78.5292C115.226 78.5287 115.404 78.6001 115.548 78.7434C115.692 78.8866 115.764 79.0646 115.765 79.2774L115.792 90.6544L120.949 85.4726C121.097 85.3235 121.271 85.2497 121.47 85.251C121.67 85.2526 121.847 85.3306 122.003 85.4852C122.148 85.6401 122.223 85.8155 122.229 86.0117C122.235 86.2079 122.16 86.3837 122.005 86.5392L115.68 92.8949C115.587 92.9888 115.488 93.055 115.385 93.0936C115.281 93.1324 115.169 93.1519 115.048 93.1522C114.928 93.1525 114.816 93.1335 114.712 93.0953C114.608 93.0572 114.509 92.9914 114.415 92.898L108.059 86.5732C107.92 86.435 107.849 86.2637 107.846 86.0592C107.842 85.8547 107.912 85.6747 108.057 85.5192C108.211 85.3638 108.389 85.2859 108.591 85.2854C108.792 85.2849 108.97 85.362 109.126 85.5166L114.292 90.658Z" fill="#01875F"/>
<rect x="47.5" y="472.5" width="3" height="25" fill="#F7F7F7" stroke="#01875F"/>
<rect x="188.5" y="472.5" width="3" height="25" fill="#F7F7F7" stroke="#01875F"/>
<circle cx="115" cy="34" r="32.5" fill="#F7F7F7" stroke="#01875F" stroke-width="3"/>
<path d="M102.01 36.9307H100.392V28.6279H102.01V36.9307ZM102.328 39.9712H94.2725V38.6636H102.328V39.9712ZM95.9102 39.1968H94.2725V36.0991H95.9102V39.1968ZM95.6816 29.3579C96.2656 29.3579 96.7988 29.4827 97.2812 29.7324C97.7679 29.9821 98.1488 30.3291 98.4238 30.7734C98.7031 31.2178 98.8428 31.715 98.8428 32.2651C98.8428 32.828 98.7031 33.3337 98.4238 33.7822C98.1488 34.2266 97.77 34.5757 97.2876 34.8296C96.8052 35.0793 96.2699 35.2041 95.6816 35.2041C95.0934 35.2041 94.5581 35.0793 94.0757 34.8296C93.5975 34.5757 93.2188 34.2266 92.9395 33.7822C92.6602 33.3337 92.5205 32.828 92.5205 32.2651C92.5205 31.715 92.6602 31.2178 92.9395 30.7734C93.2188 30.3291 93.5975 29.9821 94.0757 29.7324C94.5581 29.4827 95.0934 29.3579 95.6816 29.3579ZM95.6816 30.7671C95.3812 30.7671 95.1104 30.8285 94.8691 30.9512C94.6322 31.0697 94.4438 31.2432 94.3042 31.4717C94.1688 31.696 94.1011 31.9604 94.1011 32.2651C94.1011 32.5825 94.1688 32.8555 94.3042 33.084C94.4438 33.3125 94.6322 33.4881 94.8691 33.6108C95.1104 33.7336 95.3812 33.7928 95.6816 33.7886C95.9779 33.7928 96.2424 33.7336 96.4751 33.6108C96.7121 33.4881 96.8983 33.3125 97.0337 33.084C97.1691 32.8555 97.2368 32.5825 97.2368 32.2651C97.2368 31.9604 97.1691 31.696 97.0337 31.4717C96.8983 31.2432 96.7121 31.0697 96.4751 30.9512C96.2381 30.8285 95.9736 30.7671 95.6816 30.7671ZM112.122 32.7412H109.9V31.4272H112.122V32.7412ZM113.315 35.4771H111.703V28.6025H113.315V35.4771ZM109.367 35.731C110.188 35.731 110.897 35.8198 111.494 35.9976C112.09 36.1753 112.547 36.4313 112.865 36.7656C113.186 37.0957 113.349 37.4935 113.354 37.959C113.349 38.4202 113.186 38.8159 112.865 39.146C112.547 39.4803 112.09 39.7363 111.494 39.9141C110.897 40.0918 110.188 40.1828 109.367 40.187C108.55 40.1828 107.844 40.0918 107.247 39.9141C106.655 39.7363 106.198 39.4803 105.876 39.146C105.559 38.8159 105.4 38.4202 105.4 37.959C105.4 37.4935 105.559 37.0957 105.876 36.7656C106.198 36.4313 106.655 36.1753 107.247 35.9976C107.844 35.8198 108.55 35.731 109.367 35.731ZM109.367 36.9624C108.851 36.9624 108.419 37.0005 108.072 37.0767C107.725 37.1486 107.461 37.2586 107.279 37.4067C107.097 37.5549 107.006 37.7389 107.006 37.959C107.006 38.1748 107.097 38.3568 107.279 38.5049C107.461 38.653 107.725 38.7651 108.072 38.8413C108.424 38.9132 108.855 38.9492 109.367 38.9492C109.883 38.9492 110.317 38.9132 110.668 38.8413C111.024 38.7651 111.291 38.653 111.468 38.5049C111.646 38.3568 111.735 38.1748 111.735 37.959C111.735 37.7389 111.646 37.5549 111.468 37.4067C111.291 37.2586 111.024 37.1486 110.668 37.0767C110.317 37.0005 109.883 36.9624 109.367 36.9624ZM107.609 30.5322C107.609 31.2812 107.488 31.9837 107.247 32.6396C107.01 33.2956 106.646 33.8732 106.155 34.3726C105.669 34.8677 105.068 35.238 104.353 35.4834L103.508 34.1948C104.122 33.9875 104.636 33.6912 105.051 33.3062C105.47 32.9211 105.779 32.4915 105.978 32.0176C106.181 31.5394 106.284 31.0443 106.289 30.5322V29.7705H107.609V30.5322ZM107.939 30.5195C107.939 30.9935 108.034 31.4505 108.225 31.8906C108.419 32.3265 108.715 32.7222 109.113 33.0776C109.511 33.4331 110.006 33.7103 110.599 33.9092L109.799 35.1787C109.101 34.9502 108.512 34.6032 108.034 34.1377C107.56 33.668 107.205 33.1242 106.968 32.5063C106.735 31.8843 106.621 31.222 106.625 30.5195V29.7705H107.939V30.5195ZM110.243 30.6147H103.972V29.3071H110.243V30.6147ZM124.481 37.064H122.862V28.6279H124.481V37.064ZM124.798 39.9712H116.743V38.6636H124.798V39.9712ZM118.381 39.3555H116.743V36.2388H118.381V39.3555ZM118.908 30.3735C118.903 31.1522 118.779 31.8822 118.533 32.5635C118.292 33.2406 117.924 33.8351 117.429 34.3472C116.938 34.8592 116.331 35.238 115.607 35.4834L114.769 34.2075C115.395 33.9959 115.916 33.6912 116.331 33.2935C116.75 32.8957 117.058 32.4471 117.257 31.9478C117.456 31.4484 117.558 30.9237 117.562 30.3735V29.2627H118.908V30.3735ZM119.244 30.3735C119.24 30.9025 119.333 31.4061 119.523 31.8843C119.714 32.3582 120.012 32.7814 120.418 33.1538C120.825 33.5262 121.335 33.8097 121.948 34.0044L121.123 35.2866C120.412 35.0454 119.815 34.6857 119.333 34.2075C118.851 33.7251 118.489 33.158 118.248 32.5063C118.006 31.8504 117.886 31.1395 117.886 30.3735V29.2627H119.244V30.3735ZM129.991 31.0654C129.991 31.7552 129.87 32.3984 129.629 32.9951C129.388 33.5876 129.022 34.1038 128.531 34.5439C128.044 34.984 127.443 35.3057 126.728 35.5088L125.973 34.252C126.574 34.0785 127.077 33.8267 127.483 33.4966C127.89 33.1623 128.192 32.7878 128.391 32.373C128.594 31.9541 128.696 31.5182 128.696 31.0654V30.6274H129.991V31.0654ZM130.302 31.0654C130.302 31.4801 130.403 31.8779 130.606 32.2588C130.814 32.6396 131.121 32.9803 131.527 33.2808C131.937 33.5812 132.445 33.8076 133.05 33.96L132.289 35.2104C131.569 35.0243 130.962 34.728 130.467 34.3218C129.976 33.9155 129.606 33.4331 129.356 32.8745C129.111 32.3159 128.988 31.7129 128.988 31.0654V30.6274H130.302V31.0654ZM132.631 31.0972H126.366V29.8213H132.631V31.0972ZM130.321 30.3291H128.696V28.5645H130.321V30.3291ZM134.555 33.0142H132.295V31.7129H134.555V33.0142ZM135.786 35.5977H134.174V28.6025H135.786V35.5977ZM131.838 35.7944C132.655 35.7944 133.361 35.8791 133.958 36.0483C134.559 36.2134 135.018 36.4609 135.335 36.791C135.657 37.1169 135.82 37.5062 135.824 37.959C135.82 38.4245 135.657 38.8223 135.335 39.1523C135.018 39.4824 134.559 39.7342 133.958 39.9077C133.361 40.0812 132.655 40.168 131.838 40.168C131.021 40.168 130.317 40.0812 129.724 39.9077C129.132 39.7342 128.675 39.4824 128.353 39.1523C128.031 38.8223 127.871 38.4245 127.871 37.959C127.871 37.5062 128.029 37.1169 128.347 36.791C128.668 36.4609 129.125 36.2134 129.718 36.0483C130.314 35.8791 131.021 35.7944 131.838 35.7944ZM131.838 37.0322C131.326 37.0322 130.894 37.0661 130.543 37.1338C130.196 37.2015 129.931 37.3052 129.75 37.4448C129.568 37.5845 129.477 37.7559 129.477 37.959C129.477 38.1706 129.568 38.3483 129.75 38.4922C129.931 38.6361 130.196 38.7461 130.543 38.8223C130.894 38.8942 131.326 38.9323 131.838 38.9365C132.358 38.9323 132.794 38.8942 133.146 38.8223C133.501 38.7461 133.765 38.6361 133.939 38.4922C134.117 38.3483 134.206 38.1706 134.206 37.959C134.206 37.7516 134.117 37.5802 133.939 37.4448C133.765 37.3052 133.503 37.2015 133.152 37.1338C132.801 37.0661 132.363 37.0322 131.838 37.0322Z" fill="#1D1D1D"/>
<path d="M199.328 695.498L199.45 684.121C199.453 683.909 199.526 683.731 199.672 683.589C199.817 683.447 199.996 683.377 200.208 683.38C200.421 683.382 200.599 683.456 200.741 683.601C200.883 683.746 200.953 683.925 200.95 684.138L200.828 695.514L206.052 690.401C206.203 690.254 206.377 690.182 206.577 690.186C206.776 690.19 206.952 690.271 207.106 690.427C207.249 690.584 207.322 690.76 207.325 690.957C207.328 691.153 207.251 691.328 207.095 691.481L200.686 697.753C200.592 697.845 200.492 697.91 200.388 697.948C200.284 697.985 200.171 698.003 200.051 698.002C199.93 698 199.818 697.98 199.715 697.94C199.612 697.901 199.514 697.834 199.421 697.739L193.149 691.331C193.012 691.191 192.943 691.019 192.942 690.814C192.941 690.61 193.014 690.431 193.161 690.277C193.318 690.124 193.497 690.048 193.698 690.05C193.899 690.052 194.076 690.132 194.23 690.289L199.328 695.498Z" fill="#01875F"/>
<path d="M35.3279 694.732L35.4504 683.356C35.4527 683.143 35.5264 682.966 35.6716 682.824C35.8167 682.682 35.9956 682.612 36.2084 682.614C36.4212 682.616 36.5986 682.69 36.7406 682.835C36.8827 682.98 36.9526 683.159 36.9503 683.372L36.8278 694.748L42.0524 689.635C42.2027 689.488 42.3774 689.416 42.5767 689.42C42.776 689.425 42.9524 689.505 43.1059 689.662C43.2491 689.818 43.3222 689.995 43.3252 690.191C43.3283 690.387 43.2514 690.562 43.0946 690.716L36.6864 696.987C36.5917 697.08 36.4923 697.145 36.388 697.182C36.2838 697.219 36.1714 697.237 36.0509 697.236C35.9304 697.235 35.8185 697.214 35.7151 697.175C35.6117 697.135 35.5136 697.068 35.421 696.973L29.1494 690.565C29.0124 690.425 28.9434 690.253 28.9424 690.049C28.9415 689.844 29.0142 689.665 29.1607 689.511C29.3176 689.358 29.4965 689.282 29.6977 689.285C29.899 689.287 30.0764 689.366 30.2299 689.523L35.3279 694.732Z" fill="#01875F"/>
<line x1="119.57" y1="650.011" x2="119.215" y2="683.009" stroke="#01875F" stroke-width="2"/>
<line x1="200.208" y1="683.881" x2="35.2175" y2="682.104" stroke="#01875F" stroke-width="2"/>
<circle cx="34" cy="744" r="32.5" fill="#F7F7F7" stroke="#01875F" stroke-width="3"/>
<path d="M26.0894 733H24.1724V725.624H24.1216L22.0205 726.957V725.256L24.293 723.809H26.0894V733ZM28.7173 727.96C28.9331 727.731 29.1722 727.56 29.4346 727.446C29.7012 727.327 29.9826 727.268 30.2788 727.268C30.5073 727.268 30.7274 727.298 30.939 727.357C31.1548 727.412 31.432 727.501 31.7705 727.624C32.0837 727.742 32.3503 727.833 32.5703 727.896C32.7904 727.956 33.0168 727.985 33.2495 727.985C33.55 727.985 33.8293 727.928 34.0874 727.814C34.3498 727.695 34.5846 727.522 34.792 727.293V728.836C34.5762 729.064 34.335 729.238 34.0684 729.356C33.8018 729.475 33.5182 729.534 33.2178 729.534C32.9893 729.534 32.7671 729.505 32.5513 729.445C32.3397 729.386 32.0667 729.295 31.7324 729.172C31.4108 729.054 31.14 728.965 30.9199 728.906C30.7041 728.842 30.4798 728.811 30.2471 728.811C29.6419 728.815 29.132 729.05 28.7173 729.515V727.96ZM40.0986 733.127C39.4681 733.127 38.8989 733.011 38.3911 732.778C37.8875 732.545 37.4897 732.223 37.1978 731.813C36.9058 731.398 36.7555 730.931 36.7471 730.41H38.5942C38.6112 730.643 38.6873 730.852 38.8228 731.039C38.9624 731.221 39.1444 731.364 39.3687 731.47C39.5929 731.572 39.8363 731.623 40.0986 731.623C40.416 731.623 40.6974 731.553 40.9429 731.413C41.1883 731.273 41.3809 731.081 41.5205 730.835C41.6602 730.586 41.73 730.304 41.73 729.991C41.73 729.67 41.658 729.384 41.5142 729.134C41.3745 728.885 41.1777 728.69 40.9238 728.55C40.6742 728.406 40.3885 728.334 40.0669 728.334C39.7241 728.33 39.4321 728.394 39.1909 728.525C38.9539 728.652 38.7677 728.844 38.6323 729.103H36.8994L37.4009 723.809H43.0566V725.376H38.9751L38.7212 727.693H38.791C38.9645 727.461 39.2163 727.272 39.5464 727.128C39.8765 726.985 40.2404 726.913 40.6382 726.913C41.1925 726.913 41.6919 727.042 42.1362 727.3C42.5848 727.554 42.936 727.913 43.1899 728.379C43.4438 728.84 43.5708 729.361 43.5708 729.94C43.5708 730.554 43.4248 731.102 43.1328 731.584C42.8408 732.067 42.4325 732.446 41.9077 732.721C41.383 732.992 40.7799 733.127 40.0986 733.127ZM45.5386 735.679H44.1929L44.8213 732.067H46.6367L45.5386 735.679ZM22.0396 746.931H20.4209V738.628H22.0396V746.931ZM22.3569 749.971H14.3018V748.664H22.3569V749.971ZM15.9395 749.197H14.3018V746.099H15.9395V749.197ZM15.7109 739.358C16.2949 739.358 16.8281 739.483 17.3105 739.732C17.7972 739.982 18.1781 740.329 18.4531 740.773C18.7324 741.218 18.8721 741.715 18.8721 742.265C18.8721 742.828 18.7324 743.334 18.4531 743.782C18.1781 744.227 17.7993 744.576 17.3169 744.83C16.8345 745.079 16.2992 745.204 15.7109 745.204C15.1227 745.204 14.5874 745.079 14.105 744.83C13.6268 744.576 13.248 744.227 12.9688 743.782C12.6895 743.334 12.5498 742.828 12.5498 742.265C12.5498 741.715 12.6895 741.218 12.9688 740.773C13.248 740.329 13.6268 739.982 14.105 739.732C14.5874 739.483 15.1227 739.358 15.7109 739.358ZM15.7109 740.767C15.4105 740.767 15.1396 740.828 14.8984 740.951C14.6615 741.07 14.4731 741.243 14.3335 741.472C14.1981 741.696 14.1304 741.96 14.1304 742.265C14.1304 742.583 14.1981 742.855 14.3335 743.084C14.4731 743.312 14.6615 743.488 14.8984 743.611C15.1396 743.734 15.4105 743.793 15.7109 743.789C16.0072 743.793 16.2716 743.734 16.5044 743.611C16.7414 743.488 16.9276 743.312 17.063 743.084C17.1984 742.855 17.2661 742.583 17.2661 742.265C17.2661 741.96 17.1984 741.696 17.063 741.472C16.9276 741.243 16.7414 741.07 16.5044 740.951C16.2674 740.828 16.0029 740.767 15.7109 740.767ZM27.7461 741.757C27.7419 742.667 27.6128 743.535 27.3589 744.36C27.105 745.185 26.7305 745.917 26.2354 746.556C25.7402 747.191 25.1436 747.671 24.4453 747.997L23.5186 746.721C24.1406 746.442 24.6696 746.04 25.1055 745.515C25.5456 744.986 25.8757 744.398 26.0957 743.75C26.32 743.099 26.4321 742.434 26.4321 741.757V740.412H27.7461V741.757ZM28.0825 741.757C28.0825 742.405 28.1925 743.035 28.4126 743.649C28.6326 744.258 28.9585 744.811 29.3901 745.306C29.826 745.797 30.3571 746.171 30.9834 746.429L30.1074 747.699C29.3923 747.398 28.7871 746.948 28.292 746.347C27.7969 745.742 27.4245 745.045 27.1748 744.258C26.9251 743.471 26.8024 742.638 26.8066 741.757V740.412H28.0825V741.757ZM30.5073 741.053H23.9819V739.732H30.5073V741.053ZM33.2812 750.168H31.6372V738.603H33.2812V750.168ZM38.9814 741.757C38.9772 742.667 38.8481 743.535 38.5942 744.36C38.3403 745.185 37.9658 745.917 37.4707 746.556C36.9756 747.191 36.3789 747.671 35.6807 747.997L34.7539 746.721C35.376 746.442 35.9049 746.04 36.3408 745.515C36.7809 744.986 37.111 744.398 37.3311 743.75C37.5553 743.099 37.6675 742.434 37.6675 741.757V740.412H38.9814V741.757ZM39.3179 741.757C39.3179 742.405 39.4279 743.035 39.6479 743.649C39.868 744.258 40.1938 744.811 40.6255 745.306C41.0614 745.797 41.5924 746.171 42.2188 746.429L41.3428 747.699C40.6276 747.398 40.0225 746.948 39.5273 746.347C39.0322 745.742 38.6598 745.045 38.4102 744.258C38.1605 743.471 38.0378 742.638 38.042 741.757V740.412H39.3179V741.757ZM41.7427 741.053H35.2173V739.732H41.7427V741.053ZM44.5166 750.168H42.8726V738.603H44.5166V750.168ZM50.7563 747.077H49.125V744.525H50.7563V747.077ZM55.8662 747.356H54.2412V738.628H55.8662V747.356ZM56.1201 749.971H47.5V748.664H56.1201V749.971ZM49.1313 749.013H47.5V746.518H49.1313V749.013ZM46.0337 743.75C47.5741 743.738 48.9282 743.71 50.0962 743.668C51.2642 743.621 52.3856 743.53 53.4604 743.395L53.543 744.557C52.4258 744.743 51.2557 744.87 50.0327 744.938C48.814 745.001 47.5444 745.031 46.2241 745.026L46.0337 743.75ZM54.6094 746.436H52.0322V745.331H54.6094V746.436ZM49.7915 739.015C50.3459 739.015 50.8431 739.102 51.2832 739.275C51.7233 739.449 52.0661 739.694 52.3115 740.012C52.557 740.325 52.6797 740.682 52.6797 741.084C52.6797 741.495 52.557 741.853 52.3115 742.157C52.0661 742.462 51.7233 742.701 51.2832 742.875C50.8473 743.044 50.3501 743.128 49.7915 743.128C49.2244 743.128 48.7209 743.044 48.2808 742.875C47.8449 742.701 47.5042 742.462 47.2588 742.157C47.0133 741.853 46.8906 741.495 46.8906 741.084C46.8906 740.682 47.0133 740.323 47.2588 740.005C47.5042 739.688 47.847 739.445 48.2871 739.275C48.7272 739.102 49.2287 739.015 49.7915 739.015ZM49.7915 740.202C49.5164 740.202 49.2773 740.236 49.0742 740.304C48.8711 740.371 48.7103 740.473 48.5918 740.608C48.4775 740.74 48.4225 740.898 48.4268 741.084C48.4225 741.271 48.4775 741.429 48.5918 741.561C48.7103 741.692 48.8711 741.791 49.0742 741.859C49.2773 741.927 49.5164 741.96 49.7915 741.96C50.0581 741.96 50.2909 741.927 50.4897 741.859C50.6929 741.791 50.8516 741.692 50.9658 741.561C51.0801 741.429 51.1372 741.271 51.1372 741.084C51.1372 740.903 51.0801 740.744 50.9658 740.608C50.8516 740.473 50.6929 740.371 50.4897 740.304C50.2909 740.236 50.0581 740.202 49.7915 740.202ZM34.1699 761.217H23.6138V759.896H34.1699V761.217ZM32.9639 759.09H24.8896V757.795H32.9639V759.09ZM32.9004 756.221H26.4956V758.449H24.8896V754.926H32.9004V756.221ZM28.8633 761.909C29.6969 761.909 30.4142 761.991 31.0151 762.156C31.616 762.321 32.0773 762.565 32.3989 762.886C32.7205 763.204 32.8835 763.584 32.8877 764.029C32.8835 764.482 32.7205 764.869 32.3989 765.19C32.0815 765.512 31.6203 765.755 31.0151 765.92C30.4142 766.085 29.6969 766.168 28.8633 766.168C28.0212 766.168 27.2975 766.085 26.6924 765.92C26.0872 765.755 25.6217 765.512 25.2959 765.19C24.9743 764.869 24.8135 764.482 24.8135 764.029C24.8135 763.584 24.9743 763.204 25.2959 762.886C25.6217 762.565 26.0872 762.321 26.6924 762.156C27.2975 761.991 28.0212 761.909 28.8633 761.909ZM28.8633 763.14C28.3301 763.144 27.8857 763.18 27.5303 763.248C27.1748 763.312 26.9061 763.409 26.7241 763.54C26.5464 763.671 26.4596 763.834 26.4639 764.029C26.4596 764.232 26.5464 764.401 26.7241 764.537C26.9061 764.672 27.1727 764.771 27.5239 764.835C27.8794 764.898 28.3258 764.932 28.8633 764.937C29.3923 764.932 29.8345 764.898 30.1899 764.835C30.5454 764.771 30.812 764.672 30.9897 764.537C31.1675 764.401 31.2563 764.232 31.2563 764.029C31.2563 763.834 31.1654 763.671 30.9834 763.54C30.8057 763.409 30.5391 763.312 30.1836 763.248C29.8281 763.18 29.388 763.144 28.8633 763.14ZM37.7056 762.423H42.5107V761.191H44.1167V766.041H36.106V761.191H37.7056V762.423ZM42.5107 764.733V763.661H37.7056V764.733H42.5107ZM43.5264 756.374H36.1377V755.079H43.5264V756.374ZM45.4116 760.423H34.8491V759.141H45.4116V760.423ZM44.1611 755.999C44.1611 756.642 44.1421 757.214 44.104 757.713C44.0659 758.208 43.9728 758.784 43.8247 759.439L42.1997 759.541C42.3013 759.088 42.3774 758.663 42.4282 758.265C42.479 757.867 42.5107 757.514 42.5234 757.205C42.5361 756.896 42.5446 756.528 42.5488 756.101V755.999V755.079H44.1611V755.999Z" fill="#1D1D1D"/>
<circle cx="204" cy="744" r="32.5" fill="#F7F7F7" stroke="#01875F" stroke-width="3"/>
<path d="M195.905 745.217H185.349V743.896H195.905V745.217ZM194.699 743.09H186.625V741.795H194.699V743.09ZM194.636 740.221H188.231V742.449H186.625V738.926H194.636V740.221ZM190.599 745.909C191.432 745.909 192.15 745.991 192.75 746.156C193.351 746.321 193.813 746.565 194.134 746.886C194.456 747.204 194.619 747.584 194.623 748.029C194.619 748.482 194.456 748.869 194.134 749.19C193.817 749.512 193.356 749.755 192.75 749.92C192.15 750.085 191.432 750.168 190.599 750.168C189.757 750.168 189.033 750.085 188.428 749.92C187.823 749.755 187.357 749.512 187.031 749.19C186.71 748.869 186.549 748.482 186.549 748.029C186.549 747.584 186.71 747.204 187.031 746.886C187.357 746.565 187.823 746.321 188.428 746.156C189.033 745.991 189.757 745.909 190.599 745.909ZM190.599 747.14C190.065 747.144 189.621 747.18 189.266 747.248C188.91 747.312 188.641 747.409 188.459 747.54C188.282 747.671 188.195 747.834 188.199 748.029C188.195 748.232 188.282 748.401 188.459 748.537C188.641 748.672 188.908 748.771 189.259 748.835C189.615 748.898 190.061 748.932 190.599 748.937C191.128 748.932 191.57 748.898 191.925 748.835C192.281 748.771 192.547 748.672 192.725 748.537C192.903 748.401 192.992 748.232 192.992 748.029C192.992 747.834 192.901 747.671 192.719 747.54C192.541 747.409 192.274 747.312 191.919 747.248C191.563 747.18 191.123 747.144 190.599 747.14ZM199.441 746.423H204.246V745.191H205.852V750.041H197.841V745.191H199.441V746.423ZM204.246 748.733V747.661H199.441V748.733H204.246ZM205.262 740.374H197.873V739.079H205.262V740.374ZM207.147 744.423H196.584V743.141H207.147V744.423ZM205.896 739.999C205.896 740.642 205.877 741.214 205.839 741.713C205.801 742.208 205.708 742.784 205.56 743.439L203.935 743.541C204.037 743.088 204.113 742.663 204.164 742.265C204.214 741.867 204.246 741.514 204.259 741.205C204.271 740.896 204.28 740.528 204.284 740.101V739.999V739.079H205.896V739.999ZM215.367 746.842H213.749V744.379H215.367V746.842ZM214.567 739.301C215.173 739.301 215.718 739.421 216.205 739.663C216.692 739.904 217.073 740.24 217.348 740.672C217.627 741.099 217.767 741.586 217.767 742.132C217.767 742.678 217.627 743.167 217.348 743.598C217.073 744.026 216.692 744.36 216.205 744.601C215.718 744.838 215.173 744.957 214.567 744.957C213.962 744.957 213.414 744.838 212.923 744.601C212.437 744.36 212.054 744.026 211.774 743.598C211.495 743.167 211.355 742.678 211.355 742.132C211.355 741.59 211.495 741.104 211.774 740.672C212.054 740.24 212.437 739.904 212.923 739.663C213.414 739.421 213.962 739.301 214.567 739.301ZM214.567 740.691C214.258 740.691 213.983 740.748 213.742 740.862C213.501 740.972 213.311 741.137 213.171 741.357C213.031 741.573 212.961 741.831 212.961 742.132C212.961 742.424 213.031 742.68 213.171 742.9C213.311 743.116 213.501 743.283 213.742 743.401C213.988 743.52 214.263 743.579 214.567 743.579C214.872 743.579 215.149 743.52 215.399 743.401C215.649 743.283 215.841 743.116 215.977 742.9C216.116 742.68 216.186 742.424 216.186 742.132C216.186 741.831 216.116 741.573 215.977 741.357C215.841 741.137 215.649 740.972 215.399 740.862C215.153 740.748 214.876 740.691 214.567 740.691ZM220.528 750.2H218.922V738.603H220.528V750.2ZM210.873 746.537C212.278 746.537 213.588 746.514 214.802 746.467C216.017 746.421 217.172 746.321 218.268 746.169L218.382 747.337C217.595 747.485 216.781 747.597 215.938 747.673C215.101 747.745 214.324 747.792 213.609 747.813C212.894 747.834 212.054 747.847 211.089 747.851H211.063L210.873 746.537Z" fill="#1D1D1D"/>
<path d="M33.5913 559.653C33.5871 560.406 33.4644 561.109 33.2231 561.76C32.9819 562.408 32.6117 562.973 32.1123 563.455C31.6172 563.938 31.0078 564.295 30.2842 564.528L29.4717 563.252C30.0895 563.053 30.6079 562.767 31.0269 562.395C31.4458 562.018 31.7547 561.595 31.9536 561.125C32.1567 560.656 32.2604 560.165 32.2646 559.653V558.897H33.5913V559.653ZM33.9023 559.646C33.9023 560.116 33.9976 560.563 34.188 560.986C34.3784 561.405 34.6725 561.781 35.0703 562.116C35.4681 562.446 35.9653 562.7 36.562 562.877L35.8003 564.141C35.0894 563.929 34.4948 563.601 34.0166 563.157C33.5384 562.708 33.1787 562.186 32.9375 561.589C32.7005 560.988 32.582 560.34 32.582 559.646V558.897H33.9023V559.646ZM36.2065 559.678H29.9097V558.383H36.2065V559.678ZM38.8027 564.464H37.1841V557.603H38.8027V564.464ZM40.3643 561.614H38.3457V560.294H40.3643V561.614ZM35.0132 564.693C35.813 564.693 36.5049 564.782 37.0889 564.959C37.6771 565.133 38.1278 565.387 38.4409 565.721C38.7541 566.056 38.9106 566.455 38.9106 566.921C38.9106 567.386 38.7541 567.786 38.4409 568.121C38.1278 568.459 37.6771 568.717 37.0889 568.895C36.5049 569.077 35.813 569.168 35.0132 569.168C34.2049 569.168 33.5024 569.077 32.9058 568.895C32.3091 568.717 31.8499 568.459 31.5283 568.121C31.2109 567.786 31.0522 567.386 31.0522 566.921C31.0522 566.455 31.2109 566.056 31.5283 565.721C31.8499 565.387 32.307 565.133 32.8994 564.959C33.4961 564.782 34.2007 564.693 35.0132 564.693ZM35.0132 565.95C34.5096 565.95 34.0822 565.986 33.731 566.058C33.384 566.13 33.1216 566.24 32.9438 566.388C32.7661 566.532 32.6794 566.709 32.6836 566.921C32.6794 567.141 32.7661 567.325 32.9438 567.473C33.1216 567.617 33.384 567.727 33.731 567.803C34.078 567.875 34.5054 567.911 35.0132 567.911C35.5168 567.911 35.9378 567.875 36.2764 567.803C36.6191 567.727 36.8773 567.617 37.0508 567.473C37.2285 567.325 37.3174 567.141 37.3174 566.921C37.3174 566.705 37.2285 566.525 37.0508 566.381C36.8773 566.237 36.6191 566.13 36.2764 566.058C35.9378 565.986 35.5168 565.95 35.0132 565.95ZM50.584 569.168H48.9399V557.603H50.584V569.168ZM47.1245 558.821C47.1203 560.061 46.9531 561.187 46.623 562.198C46.293 563.205 45.7323 564.132 44.9409 564.979C44.1496 565.825 43.0895 566.561 41.7607 567.188L40.9102 565.893C42.0189 565.368 42.9097 564.778 43.5825 564.122C44.2596 563.466 44.7505 562.729 45.0552 561.913C45.3599 561.096 45.5122 560.161 45.5122 559.107V558.821H47.1245ZM46.2549 560.097H41.5259V558.821H46.2549V560.097ZM56.0747 566.737H54.4688V563.493H56.0747V566.737ZM60.3276 566.737H58.6963V563.493H60.3276V566.737ZM62.6763 567.816H52.1138V566.489H62.6763V567.816ZM57.376 558.174C58.2096 558.174 58.9544 558.303 59.6104 558.561C60.2705 558.819 60.7868 559.183 61.1592 559.653C61.5358 560.123 61.7241 560.662 61.7241 561.271C61.7241 561.889 61.5379 562.431 61.1655 562.896C60.7931 563.362 60.2769 563.724 59.6167 563.982C58.9565 564.24 58.2096 564.369 57.376 564.369C56.5423 564.369 55.7954 564.24 55.1353 563.982C54.4793 563.724 53.9652 563.362 53.5928 562.896C53.2204 562.431 53.0342 561.889 53.0342 561.271C53.0342 560.662 53.2204 560.123 53.5928 559.653C53.9652 559.183 54.4793 558.819 55.1353 558.561C55.7954 558.303 56.5423 558.174 57.376 558.174ZM57.376 559.456C56.8216 559.452 56.3392 559.522 55.9287 559.666C55.5182 559.809 55.1987 560.019 54.9702 560.294C54.7459 560.569 54.6338 560.895 54.6338 561.271C54.6338 561.648 54.7459 561.976 54.9702 562.255C55.1987 562.53 55.5182 562.742 55.9287 562.89C56.3434 563.038 56.8258 563.114 57.376 563.119C57.9219 563.114 58.4022 563.038 58.8169 562.89C59.2316 562.738 59.5532 562.524 59.7817 562.249C60.0103 561.974 60.1245 561.648 60.1245 561.271C60.1245 560.895 60.0103 560.569 59.7817 560.294C59.5532 560.019 59.2316 559.809 58.8169 559.666C58.4022 559.522 57.9219 559.452 57.376 559.456ZM74.0132 560.376H72.0073V559.056H74.0132V560.376ZM74.0132 562.896H72.0073V561.563H74.0132V562.896ZM66.5864 558.25C67.1789 558.25 67.7142 558.366 68.1924 558.599C68.6748 558.832 69.0535 559.164 69.3286 559.596C69.6037 560.023 69.7433 560.506 69.7476 561.043C69.7433 561.58 69.6037 562.061 69.3286 562.484C69.0535 562.907 68.6748 563.239 68.1924 563.48C67.7142 563.722 67.1789 563.842 66.5864 563.842C65.994 563.842 65.4565 563.722 64.9741 563.48C64.4917 563.235 64.1108 562.901 63.8315 562.478C63.5565 562.054 63.4189 561.576 63.4189 561.043C63.4189 560.506 63.5565 560.023 63.8315 559.596C64.1108 559.164 64.4917 558.832 64.9741 558.599C65.4565 558.366 65.994 558.25 66.5864 558.25ZM66.5864 559.608C66.286 559.604 66.0151 559.661 65.7739 559.78C65.5369 559.894 65.3507 560.061 65.2153 560.281C65.0799 560.501 65.0122 560.755 65.0122 561.043C65.0122 561.339 65.0799 561.595 65.2153 561.811C65.3507 562.027 65.5369 562.192 65.7739 562.306C66.0151 562.42 66.286 562.478 66.5864 562.478C66.8869 562.478 67.1556 562.42 67.3926 562.306C67.6338 562.192 67.8221 562.027 67.9575 561.811C68.0972 561.595 68.167 561.339 68.167 561.043C68.167 560.755 68.0972 560.501 67.9575 560.281C67.8221 560.061 67.6338 559.894 67.3926 559.78C67.1556 559.661 66.8869 559.604 66.5864 559.608ZM72.5088 564.369H70.8901V557.603H72.5088V564.369ZM68.7192 564.604C69.5106 564.604 70.2004 564.695 70.7886 564.877C71.3768 565.059 71.8275 565.323 72.1406 565.67C72.458 566.013 72.6167 566.422 72.6167 566.896C72.6167 567.365 72.458 567.769 72.1406 568.108C71.8275 568.446 71.3768 568.707 70.7886 568.889C70.2004 569.075 69.5106 569.168 68.7192 569.168C67.9194 569.168 67.2212 569.075 66.6245 568.889C66.0278 568.707 65.5666 568.446 65.2407 568.108C64.9191 567.769 64.7583 567.365 64.7583 566.896C64.7583 566.422 64.9191 566.013 65.2407 565.67C65.5666 565.323 66.0278 565.059 66.6245 564.877C67.2212 564.695 67.9194 564.604 68.7192 564.604ZM68.7192 565.88C68.2157 565.884 67.7904 565.924 67.4434 566C67.0964 566.072 66.8319 566.185 66.6499 566.337C66.4722 566.485 66.3854 566.671 66.3896 566.896C66.3854 567.12 66.4722 567.304 66.6499 567.448C66.8276 567.592 67.0879 567.702 67.4307 567.778C67.7777 567.85 68.2072 567.886 68.7192 567.886C69.2228 567.886 69.646 567.85 69.9888 567.778C70.3315 567.702 70.5897 567.592 70.7632 567.448C70.9367 567.304 71.0234 567.12 71.0234 566.896C71.0234 566.671 70.9346 566.485 70.7568 566.337C70.5833 566.185 70.3252 566.072 69.9824 566C69.6439 565.924 69.2228 565.884 68.7192 565.88ZM84.2456 565.931H82.627V557.628H84.2456V565.931ZM84.563 568.971H76.5078V567.664H84.563V568.971ZM78.1455 568.197H76.5078V565.099H78.1455V568.197ZM77.917 558.358C78.501 558.358 79.0342 558.483 79.5166 558.732C80.0033 558.982 80.3841 559.329 80.6592 559.773C80.9385 560.218 81.0781 560.715 81.0781 561.265C81.0781 561.828 80.9385 562.334 80.6592 562.782C80.3841 563.227 80.0054 563.576 79.5229 563.83C79.0405 564.079 78.5052 564.204 77.917 564.204C77.3288 564.204 76.7935 564.079 76.311 563.83C75.8328 563.576 75.4541 563.227 75.1748 562.782C74.8955 562.334 74.7559 561.828 74.7559 561.265C74.7559 560.715 74.8955 560.218 75.1748 559.773C75.4541 559.329 75.8328 558.982 76.311 558.732C76.7935 558.483 77.3288 558.358 77.917 558.358ZM77.917 559.767C77.6165 559.767 77.3457 559.828 77.1045 559.951C76.8675 560.07 76.6792 560.243 76.5396 560.472C76.4041 560.696 76.3364 560.96 76.3364 561.265C76.3364 561.583 76.4041 561.855 76.5396 562.084C76.6792 562.312 76.8675 562.488 77.1045 562.611C77.3457 562.734 77.6165 562.793 77.917 562.789C78.2132 562.793 78.4777 562.734 78.7104 562.611C78.9474 562.488 79.1336 562.312 79.269 562.084C79.4045 561.855 79.4722 561.583 79.4722 561.265C79.4722 560.96 79.4045 560.696 79.269 560.472C79.1336 560.243 78.9474 560.07 78.7104 559.951C78.4735 559.828 78.209 559.767 77.917 559.767ZM94.3574 561.741H92.1357V560.427H94.3574V561.741ZM95.5508 564.477H93.9385V557.603H95.5508V564.477ZM91.6025 564.731C92.4235 564.731 93.1323 564.82 93.729 564.998C94.3257 565.175 94.7827 565.431 95.1001 565.766C95.4217 566.096 95.5846 566.493 95.5889 566.959C95.5846 567.42 95.4217 567.816 95.1001 568.146C94.7827 568.48 94.3257 568.736 93.729 568.914C93.1323 569.092 92.4235 569.183 91.6025 569.187C90.7858 569.183 90.0791 569.092 89.4824 568.914C88.89 568.736 88.4329 568.48 88.1113 568.146C87.7939 567.816 87.6353 567.42 87.6353 566.959C87.6353 566.493 87.7939 566.096 88.1113 565.766C88.4329 565.431 88.89 565.175 89.4824 564.998C90.0791 564.82 90.7858 564.731 91.6025 564.731ZM91.6025 565.962C91.0863 565.962 90.6546 566 90.3076 566.077C89.9606 566.149 89.6961 566.259 89.5142 566.407C89.3322 566.555 89.2412 566.739 89.2412 566.959C89.2412 567.175 89.3322 567.357 89.5142 567.505C89.6961 567.653 89.9606 567.765 90.3076 567.841C90.6589 567.913 91.0905 567.949 91.6025 567.949C92.1188 567.949 92.5526 567.913 92.9038 567.841C93.2593 567.765 93.5259 567.653 93.7036 567.505C93.8813 567.357 93.9702 567.175 93.9702 566.959C93.9702 566.739 93.8813 566.555 93.7036 566.407C93.5259 566.259 93.2593 566.149 92.9038 566.077C92.5526 566 92.1188 565.962 91.6025 565.962ZM89.8442 559.532C89.8442 560.281 89.7236 560.984 89.4824 561.64C89.2454 562.296 88.8815 562.873 88.3906 563.373C87.904 563.868 87.3031 564.238 86.5879 564.483L85.7437 563.195C86.3573 562.987 86.8714 562.691 87.2861 562.306C87.7051 561.921 88.014 561.492 88.2129 561.018C88.416 560.539 88.5197 560.044 88.5239 559.532V558.771H89.8442V559.532ZM90.1743 559.52C90.1743 559.993 90.2695 560.451 90.46 560.891C90.6546 561.326 90.9508 561.722 91.3486 562.078C91.7464 562.433 92.2415 562.71 92.834 562.909L92.0342 564.179C91.3359 563.95 90.7477 563.603 90.2695 563.138C89.7956 562.668 89.4401 562.124 89.2031 561.506C88.9704 560.884 88.8561 560.222 88.8604 559.52V558.771H90.1743V559.52ZM92.4785 559.615H86.207V558.307H92.4785V559.615ZM49.4097 577.595H47.1626V576.281H49.4097V577.595ZM50.6094 580.299H48.9971V573.603H50.6094V580.299ZM50.6094 585.041H42.8462V580.769H50.6094V585.041ZM44.4648 583.74H49.0288V582.045H44.4648V583.74ZM44.9028 575.424C44.9028 576.173 44.7822 576.874 44.541 577.525C44.304 578.173 43.9401 578.742 43.4492 579.233C42.9626 579.72 42.3617 580.079 41.6465 580.312L40.8086 579.03C41.4222 578.835 41.9364 578.549 42.3511 578.173C42.7658 577.796 43.0726 577.373 43.2715 576.903C43.4746 576.434 43.5783 575.941 43.5825 575.424V574.675H44.9028V575.424ZM45.2329 575.437C45.2329 575.903 45.3302 576.355 45.5249 576.795C45.7196 577.231 46.0158 577.629 46.4136 577.989C46.8114 578.348 47.3044 578.628 47.8926 578.827L47.0928 580.096C46.3945 579.868 45.8063 579.521 45.3281 579.055C44.8542 578.59 44.4987 578.048 44.2617 577.43C44.029 576.808 43.9147 576.144 43.9189 575.437V574.675H45.2329V575.437ZM47.5371 575.5H41.2656V574.206H47.5371V575.5ZM57.9536 574.517C57.9536 575.253 57.7611 575.938 57.376 576.573C56.9909 577.204 56.4344 577.735 55.7065 578.167C54.9829 578.594 54.1323 578.877 53.1548 579.017L52.52 577.716C53.3621 577.61 54.0879 577.392 54.6973 577.062C55.3066 576.732 55.7637 576.345 56.0684 575.9C56.3773 575.452 56.5317 574.991 56.5317 574.517V573.952H57.9536V574.517ZM58.2329 574.517C58.2329 574.991 58.3895 575.452 58.7026 575.9C59.02 576.345 59.4813 576.732 60.0864 577.062C60.6958 577.392 61.4237 577.61 62.27 577.716L61.6416 579.017C60.6556 578.877 59.7987 578.594 59.0708 578.167C58.3472 577.735 57.7907 577.204 57.4014 576.573C57.012 575.943 56.8174 575.257 56.8174 574.517V573.952H58.2329V574.517ZM58.1504 585.168H56.5444V580.921H58.1504V585.168ZM62.6509 581.22H52.1138V579.893H62.6509V581.22ZM67.3228 575.583C67.3228 576.366 67.2 577.09 66.9546 577.754C66.7134 578.418 66.3473 578.998 65.8564 579.493C65.3698 579.988 64.7689 580.356 64.0537 580.598L63.1523 579.322C63.7871 579.123 64.314 578.831 64.7329 578.446C65.1561 578.061 65.4671 577.625 65.666 577.138C65.8691 576.647 65.9707 576.129 65.9707 575.583V574.326H67.3228V575.583ZM67.6021 575.596C67.6021 576.108 67.6994 576.592 67.894 577.049C68.0929 577.506 68.3934 577.917 68.7954 578.281C69.2017 578.64 69.7074 578.918 70.3125 579.112L69.4619 580.382C68.7637 580.149 68.1797 579.796 67.71 579.322C67.2402 578.848 66.8869 578.296 66.6499 577.665C66.4172 577.03 66.3008 576.34 66.3008 575.596V574.326H67.6021V575.596ZM72.5088 582.083H70.8901V573.622H72.5088V582.083ZM74.0703 578.325H72.0391V576.967H74.0703V578.325ZM72.9404 584.971H65.0122V583.664H72.9404V584.971ZM66.6626 584.355H65.0122V581.245H66.6626V584.355ZM83.1221 577.741H80.9004V576.427H83.1221V577.741ZM84.3154 580.477H82.7031V573.603H84.3154V580.477ZM80.3672 580.731C81.1882 580.731 81.897 580.82 82.4937 580.998C83.0903 581.175 83.5474 581.431 83.8647 581.766C84.1864 582.096 84.3493 582.493 84.3535 582.959C84.3493 583.42 84.1864 583.816 83.8647 584.146C83.5474 584.48 83.0903 584.736 82.4937 584.914C81.897 585.092 81.1882 585.183 80.3672 585.187C79.5505 585.183 78.8438 585.092 78.2471 584.914C77.6546 584.736 77.1976 584.48 76.876 584.146C76.5586 583.816 76.3999 583.42 76.3999 582.959C76.3999 582.493 76.5586 582.096 76.876 581.766C77.1976 581.431 77.6546 581.175 78.2471 580.998C78.8438 580.82 79.5505 580.731 80.3672 580.731ZM80.3672 581.962C79.8509 581.962 79.4193 582 79.0723 582.077C78.7253 582.149 78.4608 582.259 78.2788 582.407C78.0968 582.555 78.0059 582.739 78.0059 582.959C78.0059 583.175 78.0968 583.357 78.2788 583.505C78.4608 583.653 78.7253 583.765 79.0723 583.841C79.4235 583.913 79.8551 583.949 80.3672 583.949C80.8835 583.949 81.3172 583.913 81.6685 583.841C82.0239 583.765 82.2905 583.653 82.4683 583.505C82.646 583.357 82.7349 583.175 82.7349 582.959C82.7349 582.739 82.646 582.555 82.4683 582.407C82.2905 582.259 82.0239 582.149 81.6685 582.077C81.3172 582 80.8835 581.962 80.3672 581.962ZM78.6089 575.532C78.6089 576.281 78.4883 576.984 78.2471 577.64C78.0101 578.296 77.6462 578.873 77.1553 579.373C76.6686 579.868 76.0677 580.238 75.3525 580.483L74.5083 579.195C75.1219 578.987 75.6361 578.691 76.0508 578.306C76.4697 577.921 76.7786 577.492 76.9775 577.018C77.1807 576.539 77.2843 576.044 77.2886 575.532V574.771H78.6089V575.532ZM78.939 575.52C78.939 575.993 79.0342 576.451 79.2246 576.891C79.4193 577.326 79.7155 577.722 80.1133 578.078C80.5111 578.433 81.0062 578.71 81.5986 578.909L80.7988 580.179C80.1006 579.95 79.5124 579.603 79.0342 579.138C78.5602 578.668 78.2048 578.124 77.9678 577.506C77.735 576.884 77.6208 576.222 77.625 575.52V574.771H78.939V575.52ZM81.2432 575.615H74.9717V574.307H81.2432V575.615Z" fill="white"/>
<path d="M165.935 556.217H155.378V554.896H165.935V556.217ZM164.729 554.09H156.654V552.795H164.729V554.09ZM164.665 551.221H158.26V553.449H156.654V549.926H164.665V551.221ZM160.628 556.909C161.462 556.909 162.179 556.991 162.78 557.156C163.381 557.321 163.842 557.565 164.164 557.886C164.485 558.204 164.648 558.584 164.652 559.029C164.648 559.482 164.485 559.869 164.164 560.19C163.846 560.512 163.385 560.755 162.78 560.92C162.179 561.085 161.462 561.168 160.628 561.168C159.786 561.168 159.062 561.085 158.457 560.92C157.852 560.755 157.386 560.512 157.061 560.19C156.739 559.869 156.578 559.482 156.578 559.029C156.578 558.584 156.739 558.204 157.061 557.886C157.386 557.565 157.852 557.321 158.457 557.156C159.062 556.991 159.786 556.909 160.628 556.909ZM160.628 558.14C160.095 558.144 159.65 558.18 159.295 558.248C158.939 558.312 158.671 558.409 158.489 558.54C158.311 558.671 158.224 558.834 158.229 559.029C158.224 559.232 158.311 559.401 158.489 559.537C158.671 559.672 158.937 559.771 159.289 559.835C159.644 559.898 160.09 559.932 160.628 559.937C161.157 559.932 161.599 559.898 161.955 559.835C162.31 559.771 162.577 559.672 162.754 559.537C162.932 559.401 163.021 559.232 163.021 559.029C163.021 558.834 162.93 558.671 162.748 558.54C162.57 558.409 162.304 558.312 161.948 558.248C161.593 558.18 161.153 558.144 160.628 558.14ZM169.47 557.423H174.275V556.191H175.881V561.041H167.871V556.191H169.47V557.423ZM174.275 559.733V558.661H169.47V559.733H174.275ZM175.291 551.374H167.902V550.079H175.291V551.374ZM177.176 555.423H166.614V554.141H177.176V555.423ZM175.926 550.999C175.926 551.642 175.907 552.214 175.869 552.713C175.831 553.208 175.737 553.784 175.589 554.439L173.964 554.541C174.066 554.088 174.142 553.663 174.193 553.265C174.244 552.867 174.275 552.514 174.288 552.205C174.301 551.896 174.309 551.528 174.313 551.101V550.999V550.079H175.926V550.999ZM184.317 551.869H178.09V550.586H184.317V551.869ZM177.779 555.277C179.104 555.269 180.342 555.243 181.493 555.201C182.648 555.155 183.725 555.07 184.724 554.947L184.844 556.134C183.807 556.312 182.716 556.431 181.569 556.49C180.426 556.545 179.22 556.572 177.951 556.572L177.779 555.277ZM180.598 555.538H179.03V551.558H180.598V555.538ZM183.372 555.538H181.823V551.558H183.372V555.538ZM187.009 558.127H185.39V549.628H187.009V558.127ZM188.57 554.217H186.539V552.872H188.57V554.217ZM187.421 560.971H179.512V559.664H187.421V560.971ZM181.131 560.025H179.512V557.328H181.131V560.025ZM197.622 553.741H195.4V552.427H197.622V553.741ZM198.815 556.477H197.203V549.603H198.815V556.477ZM194.867 556.731C195.688 556.731 196.397 556.82 196.994 556.998C197.59 557.175 198.047 557.431 198.365 557.766C198.686 558.096 198.849 558.493 198.854 558.959C198.849 559.42 198.686 559.816 198.365 560.146C198.047 560.48 197.59 560.736 196.994 560.914C196.397 561.092 195.688 561.183 194.867 561.187C194.05 561.183 193.344 561.092 192.747 560.914C192.155 560.736 191.698 560.48 191.376 560.146C191.059 559.816 190.9 559.42 190.9 558.959C190.9 558.493 191.059 558.096 191.376 557.766C191.698 557.431 192.155 557.175 192.747 556.998C193.344 556.82 194.05 556.731 194.867 556.731ZM194.867 557.962C194.351 557.962 193.919 558 193.572 558.077C193.225 558.149 192.961 558.259 192.779 558.407C192.597 558.555 192.506 558.739 192.506 558.959C192.506 559.175 192.597 559.357 192.779 559.505C192.961 559.653 193.225 559.765 193.572 559.841C193.924 559.913 194.355 559.949 194.867 559.949C195.383 559.949 195.817 559.913 196.168 559.841C196.524 559.765 196.791 559.653 196.968 559.505C197.146 559.357 197.235 559.175 197.235 558.959C197.235 558.739 197.146 558.555 196.968 558.407C196.791 558.259 196.524 558.149 196.168 558.077C195.817 558 195.383 557.962 194.867 557.962ZM193.109 551.532C193.109 552.281 192.988 552.984 192.747 553.64C192.51 554.296 192.146 554.873 191.655 555.373C191.169 555.868 190.568 556.238 189.853 556.483L189.008 555.195C189.622 554.987 190.136 554.691 190.551 554.306C190.97 553.921 191.279 553.492 191.478 553.018C191.681 552.539 191.784 552.044 191.789 551.532V550.771H193.109V551.532ZM193.439 551.52C193.439 551.993 193.534 552.451 193.725 552.891C193.919 553.326 194.215 553.722 194.613 554.078C195.011 554.433 195.506 554.71 196.099 554.909L195.299 556.179C194.601 555.95 194.012 555.603 193.534 555.138C193.06 554.668 192.705 554.124 192.468 553.506C192.235 552.884 192.121 552.222 192.125 551.52V550.771H193.439V551.52ZM195.743 551.615H189.472V550.307H195.743V551.615ZM164.76 566.091C165.34 566.091 165.863 566.195 166.328 566.402C166.794 566.605 167.155 566.895 167.414 567.272C167.676 567.644 167.807 568.07 167.807 568.548C167.807 569.022 167.676 569.445 167.414 569.817C167.155 570.19 166.794 570.482 166.328 570.693C165.863 570.901 165.34 571.004 164.76 571.004C164.181 571.004 163.66 570.901 163.199 570.693C162.737 570.482 162.376 570.19 162.113 569.817C161.851 569.445 161.72 569.022 161.72 568.548C161.72 568.07 161.851 567.644 162.113 567.272C162.376 566.895 162.735 566.605 163.192 566.402C163.654 566.195 164.176 566.091 164.76 566.091ZM164.76 567.393C164.472 567.393 164.216 567.437 163.992 567.526C163.772 567.615 163.599 567.748 163.472 567.926C163.349 568.099 163.288 568.307 163.288 568.548C163.288 568.785 163.349 568.988 163.472 569.157C163.599 569.326 163.772 569.458 163.992 569.551C164.216 569.64 164.472 569.684 164.76 569.684C165.056 569.684 165.319 569.64 165.547 569.551C165.776 569.458 165.954 569.326 166.081 569.157C166.208 568.988 166.271 568.785 166.271 568.548C166.271 568.307 166.208 568.099 166.081 567.926C165.954 567.748 165.776 567.615 165.547 567.526C165.319 567.437 165.056 567.393 164.76 567.393ZM165.643 576.832H164.018V572.166H165.643V576.832ZM170.727 577.162H169.115V565.628H170.727V577.162ZM161.015 571.703C162.361 571.703 163.658 571.675 164.906 571.62C166.159 571.565 167.333 571.455 168.429 571.29L168.531 572.477C167.799 572.625 167.037 572.737 166.246 572.813C165.454 572.885 164.709 572.936 164.011 572.966C163.317 572.995 162.517 573.017 161.612 573.029C161.536 573.025 161.47 573.025 161.415 573.029C161.36 573.029 161.294 573.029 161.218 573.029L161.015 571.703ZM176.903 574.077H175.272V571.525H176.903V574.077ZM182.013 574.356H180.388V565.628H182.013V574.356ZM182.267 576.971H173.647V575.664H182.267V576.971ZM175.278 576.013H173.647V573.518H175.278V576.013ZM172.181 570.75C173.721 570.738 175.075 570.71 176.243 570.668C177.411 570.621 178.533 570.53 179.607 570.395L179.69 571.557C178.573 571.743 177.403 571.87 176.18 571.938C174.961 572.001 173.691 572.031 172.371 572.026L172.181 570.75ZM180.756 573.436H178.179V572.331H180.756V573.436ZM175.938 566.015C176.493 566.015 176.99 566.102 177.43 566.275C177.87 566.449 178.213 566.694 178.458 567.012C178.704 567.325 178.827 567.682 178.827 568.084C178.827 568.495 178.704 568.853 178.458 569.157C178.213 569.462 177.87 569.701 177.43 569.875C176.994 570.044 176.497 570.128 175.938 570.128C175.371 570.128 174.868 570.044 174.428 569.875C173.992 569.701 173.651 569.462 173.406 569.157C173.16 568.853 173.038 568.495 173.038 568.084C173.038 567.682 173.16 567.323 173.406 567.005C173.651 566.688 173.994 566.445 174.434 566.275C174.874 566.102 175.376 566.015 175.938 566.015ZM175.938 567.202C175.663 567.202 175.424 567.236 175.221 567.304C175.018 567.371 174.857 567.473 174.739 567.608C174.625 567.74 174.569 567.898 174.574 568.084C174.569 568.271 174.625 568.429 174.739 568.561C174.857 568.692 175.018 568.791 175.221 568.859C175.424 568.927 175.663 568.96 175.938 568.96C176.205 568.96 176.438 568.927 176.637 568.859C176.84 568.791 176.999 568.692 177.113 568.561C177.227 568.429 177.284 568.271 177.284 568.084C177.284 567.903 177.227 567.744 177.113 567.608C176.999 567.473 176.84 567.371 176.637 567.304C176.438 567.236 176.205 567.202 175.938 567.202ZM188.062 574.515H186.45V572.629H188.062V574.515ZM193.166 577.168H191.56V565.603H193.166V577.168ZM183.968 573.905C185.407 573.897 186.672 573.874 187.764 573.835C188.86 573.793 189.914 573.704 190.925 573.569L191.027 574.769C189.91 574.963 188.761 575.09 187.58 575.149C186.399 575.204 185.115 575.232 183.727 575.232L183.511 573.905H183.968ZM190.76 568.173H183.74V566.904H190.76V568.173ZM187.244 568.63C187.811 568.63 188.314 568.721 188.754 568.903C189.199 569.081 189.542 569.335 189.783 569.665C190.028 569.995 190.151 570.374 190.151 570.801C190.151 571.224 190.028 571.601 189.783 571.931C189.542 572.257 189.199 572.511 188.754 572.693C188.314 572.875 187.811 572.966 187.244 572.966C186.685 572.966 186.188 572.875 185.752 572.693C185.316 572.511 184.975 572.257 184.73 571.931C184.489 571.601 184.368 571.224 184.368 570.801C184.368 570.374 184.489 569.995 184.73 569.665C184.975 569.335 185.316 569.081 185.752 568.903C186.188 568.721 186.685 568.63 187.244 568.63ZM187.244 569.855C186.981 569.855 186.749 569.894 186.545 569.97C186.347 570.042 186.19 570.15 186.076 570.293C185.961 570.437 185.904 570.607 185.904 570.801C185.904 571 185.959 571.169 186.069 571.309C186.184 571.444 186.342 571.55 186.545 571.626C186.749 571.698 186.981 571.734 187.244 571.734C187.514 571.734 187.754 571.698 187.961 571.626C188.168 571.55 188.327 571.444 188.437 571.309C188.547 571.169 188.602 571 188.602 570.801C188.602 570.607 188.547 570.437 188.437 570.293C188.327 570.15 188.168 570.042 187.961 569.97C187.754 569.894 187.514 569.855 187.244 569.855ZM188.075 567.627H186.45V565.66H188.075V567.627ZM165.04 588.147H163.421V581.628H165.04V588.147ZM165.04 593.041H157.302V588.674H165.04V593.041ZM158.895 591.74H163.453V589.956H158.895V591.74ZM159.466 583.164C159.462 583.9 159.335 584.586 159.085 585.221C158.84 585.855 158.465 586.41 157.962 586.884C157.463 587.358 156.849 587.709 156.121 587.938L155.321 586.662C155.948 586.471 156.47 586.196 156.889 585.836C157.312 585.477 157.621 585.068 157.816 584.611C158.015 584.15 158.116 583.668 158.121 583.164V582.047H159.466V583.164ZM159.803 583.164C159.799 583.646 159.894 584.104 160.088 584.535C160.287 584.967 160.588 585.354 160.99 585.697C161.396 586.035 161.902 586.298 162.507 586.484L161.72 587.728C161 587.512 160.395 587.182 159.904 586.738C159.418 586.289 159.052 585.762 158.806 585.157C158.565 584.552 158.444 583.888 158.444 583.164V582.047H159.803V583.164ZM170.353 582.383C170.953 582.383 171.497 582.506 171.984 582.751C172.475 582.993 172.858 583.329 173.133 583.761C173.412 584.192 173.552 584.679 173.552 585.221C173.552 585.767 173.412 586.255 173.133 586.687C172.858 587.114 172.475 587.451 171.984 587.696C171.497 587.938 170.953 588.058 170.353 588.058C169.747 588.058 169.199 587.938 168.708 587.696C168.222 587.451 167.839 587.114 167.56 586.687C167.28 586.255 167.141 585.767 167.141 585.221C167.141 584.679 167.28 584.192 167.56 583.761C167.839 583.329 168.222 582.993 168.708 582.751C169.199 582.506 169.747 582.383 170.353 582.383ZM170.353 583.78C170.044 583.784 169.769 583.843 169.527 583.958C169.286 584.068 169.096 584.233 168.956 584.453C168.816 584.673 168.747 584.929 168.747 585.221C168.747 585.521 168.816 585.779 168.956 585.995C169.096 586.207 169.286 586.37 169.527 586.484C169.769 586.598 170.044 586.657 170.353 586.662C170.661 586.657 170.939 586.598 171.184 586.484C171.434 586.37 171.626 586.207 171.762 585.995C171.901 585.779 171.971 585.521 171.971 585.221C171.971 584.929 171.901 584.673 171.762 584.453C171.626 584.233 171.434 584.068 171.184 583.958C170.939 583.843 170.661 583.784 170.353 583.78ZM176.313 593.2H174.707V581.603H176.313V593.2ZM166.658 589.518C168.038 589.518 169.339 589.495 170.562 589.448C171.789 589.402 172.953 589.302 174.053 589.15L174.167 590.312C173.376 590.468 172.555 590.584 171.705 590.661C170.854 590.733 170.052 590.779 169.299 590.8C168.546 590.821 167.729 590.832 166.849 590.832L166.658 589.518ZM184.317 583.869H178.09V582.586H184.317V583.869ZM177.779 587.277C179.104 587.269 180.342 587.243 181.493 587.201C182.648 587.155 183.725 587.07 184.724 586.947L184.844 588.134C183.807 588.312 182.716 588.431 181.569 588.49C180.426 588.545 179.22 588.572 177.951 588.572L177.779 587.277ZM180.598 587.538H179.03V583.558H180.598V587.538ZM183.372 587.538H181.823V583.558H183.372V587.538ZM187.009 590.127H185.39V581.628H187.009V590.127ZM188.57 586.217H186.539V584.872H188.57V586.217ZM187.421 592.971H179.512V591.664H187.421V592.971ZM181.131 592.025H179.512V589.328H181.131V592.025ZM197.622 585.741H195.4V584.427H197.622V585.741ZM198.815 588.477H197.203V581.603H198.815V588.477ZM194.867 588.731C195.688 588.731 196.397 588.82 196.994 588.998C197.59 589.175 198.047 589.431 198.365 589.766C198.686 590.096 198.849 590.493 198.854 590.959C198.849 591.42 198.686 591.816 198.365 592.146C198.047 592.48 197.59 592.736 196.994 592.914C196.397 593.092 195.688 593.183 194.867 593.187C194.05 593.183 193.344 593.092 192.747 592.914C192.155 592.736 191.698 592.48 191.376 592.146C191.059 591.816 190.9 591.42 190.9 590.959C190.9 590.493 191.059 590.096 191.376 589.766C191.698 589.431 192.155 589.175 192.747 588.998C193.344 588.82 194.05 588.731 194.867 588.731ZM194.867 589.962C194.351 589.962 193.919 590 193.572 590.077C193.225 590.149 192.961 590.259 192.779 590.407C192.597 590.555 192.506 590.739 192.506 590.959C192.506 591.175 192.597 591.357 192.779 591.505C192.961 591.653 193.225 591.765 193.572 591.841C193.924 591.913 194.355 591.949 194.867 591.949C195.383 591.949 195.817 591.913 196.168 591.841C196.524 591.765 196.791 591.653 196.968 591.505C197.146 591.357 197.235 591.175 197.235 590.959C197.235 590.739 197.146 590.555 196.968 590.407C196.791 590.259 196.524 590.149 196.168 590.077C195.817 590 195.383 589.962 194.867 589.962ZM193.109 583.532C193.109 584.281 192.988 584.984 192.747 585.64C192.51 586.296 192.146 586.873 191.655 587.373C191.169 587.868 190.568 588.238 189.853 588.483L189.008 587.195C189.622 586.987 190.136 586.691 190.551 586.306C190.97 585.921 191.279 585.492 191.478 585.018C191.681 584.539 191.784 584.044 191.789 583.532V582.771H193.109V583.532ZM193.439 583.52C193.439 583.993 193.534 584.451 193.725 584.891C193.919 585.326 194.215 585.722 194.613 586.078C195.011 586.433 195.506 586.71 196.099 586.909L195.299 588.179C194.601 587.95 194.012 587.603 193.534 587.138C193.06 586.668 192.705 586.124 192.468 585.506C192.235 584.884 192.121 584.222 192.125 583.52V582.771H193.439V583.52ZM195.743 583.615H189.472V582.307H195.743V583.615Z" fill="white"/>
</svg>
