<svg xmlns="http://www.w3.org/2000/svg" xmlns:xlink="http://www.w3.org/1999/xlink" width="159" height="47.102" viewBox="0 0 159 47.102">
  <defs>
    <clipPath id="clip-path">
      <rect id="사각형_47" data-name="사각형 47" width="159" height="47.102" fill="none"/>
    </clipPath>
  </defs>
  <g id="logo" transform="translate(0 0)">
    <g id="그룹_6" data-name="그룹 6" transform="translate(0 0)" clip-path="url(#clip-path)">
      <path id="패스_13" data-name="패스 13" d="M62.133,16.628H60.969V11.012h1.164Zm-.645,0v-1H62.9a1.9,1.9,0,0,0,.9-.194,1.234,1.234,0,0,0,.545-.594,2.485,2.485,0,0,0,.181-1.023,2.449,2.449,0,0,0-.184-1.023A1.224,1.224,0,0,0,63.8,12.2a1.9,1.9,0,0,0-.895-.189H61.462v-1h1.5a3.025,3.025,0,0,1,1.459.333,2.243,2.243,0,0,1,.943.967,3.236,3.236,0,0,1,.329,1.5,3.216,3.216,0,0,1-.331,1.5,2.279,2.279,0,0,1-.948.97,3.02,3.02,0,0,1-1.467.337Z" transform="translate(-6.757 -1.22)" fill="#232077"/>
      <path id="패스_14" data-name="패스 14" d="M69.478,14.989,69.294,15q-.321.012-.566.039a.841.841,0,0,0-.479.164.481.481,0,0,0-.176.382.432.432,0,0,0,.082.266.5.5,0,0,0,.223.168.8.8,0,0,0,.327.054.967.967,0,0,0,.459-.1.766.766,0,0,0,.317-.283.739.739,0,0,0,.113-.4l-.008-1.361a.58.58,0,0,0-.076-.3.465.465,0,0,0-.227-.19.932.932,0,0,0-.365-.064.835.835,0,0,0-.475.122.531.531,0,0,0-.228.344H67.123a1.281,1.281,0,0,1,.26-.67A1.51,1.51,0,0,1,68,12.7a2.368,2.368,0,0,1,.94-.171,2.585,2.585,0,0,1,.892.147,1.387,1.387,0,0,1,.648.471,1.327,1.327,0,0,1,.248.809V16.8H69.643v-.582h-.032a1.187,1.187,0,0,1-.47.483,1.514,1.514,0,0,1-.766.177,1.744,1.744,0,0,1-.722-.141,1.134,1.134,0,0,1-.5-.425,1.237,1.237,0,0,1-.182-.686,1.081,1.081,0,0,1,.434-.956,2.2,2.2,0,0,1,1.133-.343c.126-.011.264-.019.413-.025l.429-.022.256-.007.007.71-.169.012" transform="translate(-7.423 -1.389)" fill="#232077"/>
      <path id="패스_15" data-name="패스 15" d="M72.957,16.614a1.768,1.768,0,0,1-.723-.752,2.723,2.723,0,0,1,0-2.292,1.853,1.853,0,0,1,.714-.768,2.076,2.076,0,0,1,1.072-.271,2.121,2.121,0,0,1,1.013.238,1.708,1.708,0,0,1,.7.719A2.467,2.467,0,0,1,76,14.663v.322H72.451v-.718h2.463a.958.958,0,0,0-.115-.453.792.792,0,0,0-.308-.314.892.892,0,0,0-.45-.113.935.935,0,0,0-.477.122.87.87,0,0,0-.328.336.982.982,0,0,0-.122.465v.675a1.162,1.162,0,0,0,.122.549.894.894,0,0,0,.34.359.98.98,0,0,0,.509.128,1.149,1.149,0,0,0,.352-.059.819.819,0,0,0,.268-.145.666.666,0,0,0,.171-.215h1.094a1.505,1.505,0,0,1-.337.675,1.669,1.669,0,0,1-.652.444,2.469,2.469,0,0,1-.911.157,2.241,2.241,0,0,1-1.111-.264" transform="translate(-7.978 -1.389)" fill="#232077"/>
      <path id="패스_16" data-name="패스 16" d="M78.372,12.377V16.8a1.473,1.473,0,0,1-.186.781,1.082,1.082,0,0,1-.538.446,2.348,2.348,0,0,1-.858.146c-.108-.005-.188-.008-.237-.008v-.9a1.248,1.248,0,0,0,.159,0,.718.718,0,0,0,.3-.052.314.314,0,0,0,.163-.158.7.7,0,0,0,.052-.27V12.377Zm-.894-.634a.64.64,0,0,1-.227-.212.521.521,0,0,1-.086-.291.533.533,0,0,1,.086-.293.609.609,0,0,1,.229-.212.651.651,0,0,1,.314-.077.642.642,0,0,1,.31.077.611.611,0,0,1,.229.212.54.54,0,0,1,.085.293.528.528,0,0,1-.085.291.641.641,0,0,1-.229.212.658.658,0,0,1-.626,0" transform="translate(-8.485 -1.181)" fill="#232077"/>
      <path id="패스_17" data-name="패스 17" d="M80.381,16.614a1.768,1.768,0,0,1-.723-.752,2.723,2.723,0,0,1,0-2.292,1.853,1.853,0,0,1,.714-.768,2.075,2.075,0,0,1,1.072-.271,2.121,2.121,0,0,1,1.013.238,1.708,1.708,0,0,1,.7.719,2.467,2.467,0,0,1,.258,1.175v.322H79.875v-.718h2.463a.958.958,0,0,0-.115-.453.791.791,0,0,0-.308-.314.892.892,0,0,0-.45-.113.935.935,0,0,0-.477.122.87.87,0,0,0-.328.336.982.982,0,0,0-.122.465v.675a1.162,1.162,0,0,0,.122.549.894.894,0,0,0,.34.359.98.98,0,0,0,.509.128,1.15,1.15,0,0,0,.352-.059.819.819,0,0,0,.268-.145A.666.666,0,0,0,82.3,15.6h1.094a1.505,1.505,0,0,1-.337.675,1.669,1.669,0,0,1-.652.444,2.469,2.469,0,0,1-.911.157,2.241,2.241,0,0,1-1.111-.264" transform="translate(-8.801 -1.389)" fill="#232077"/>
      <path id="패스_18" data-name="패스 18" d="M85.507,16.606a1.825,1.825,0,0,1-.719-.762,2.7,2.7,0,0,1,0-2.281,1.825,1.825,0,0,1,.719-.762,2.357,2.357,0,0,1,2.2,0,1.8,1.8,0,0,1,.719.762,2.736,2.736,0,0,1,0,2.281,1.8,1.8,0,0,1-.719.762,2.35,2.35,0,0,1-2.2,0m1.593-.783a1,1,0,0,0,.3-.46,2.257,2.257,0,0,0,0-1.332,1,1,0,0,0-.3-.458.737.737,0,0,0-.485-.167.767.767,0,0,0-.5.167,1,1,0,0,0-.309.458,2.132,2.132,0,0,0,0,1.332.994.994,0,0,0,.309.46.767.767,0,0,0,.5.166.736.736,0,0,0,.485-.166" transform="translate(-9.369 -1.389)" fill="#232077"/>
      <path id="패스_19" data-name="패스 19" d="M91.149,16.8H90V12.584h1.093v.737h.047a1.169,1.169,0,0,1,.475-.582,1.449,1.449,0,0,1,.794-.21,1.484,1.484,0,0,1,.761.19,1.273,1.273,0,0,1,.509.549,1.857,1.857,0,0,1,.18.843V16.8H92.712V14.31a1.023,1.023,0,0,0-.088-.442.619.619,0,0,0-.26-.285.808.808,0,0,0-.409-.1.835.835,0,0,0-.422.1.693.693,0,0,0-.284.3,1.026,1.026,0,0,0-.1.469Z" transform="translate(-9.975 -1.389)" fill="#232077"/>
      <path id="패스_20" data-name="패스 20" d="M97.181,11.012h4.6v.962h-1.722v4.654H98.907V11.974H97.181Z" transform="translate(-10.771 -1.22)" fill="#232077"/>
      <path id="패스_21" data-name="패스 21" d="M103.238,16.614a1.763,1.763,0,0,1-.723-.752,2.714,2.714,0,0,1,0-2.292,1.853,1.853,0,0,1,.714-.768,2.073,2.073,0,0,1,1.072-.271,2.126,2.126,0,0,1,1.013.238,1.706,1.706,0,0,1,.7.719,2.467,2.467,0,0,1,.258,1.175v.322h-3.544v-.718h2.462a.958.958,0,0,0-.115-.453.791.791,0,0,0-.308-.314.89.89,0,0,0-.45-.113.934.934,0,0,0-.477.122.872.872,0,0,0-.329.336.981.981,0,0,0-.121.465v.675a1.173,1.173,0,0,0,.121.549.894.894,0,0,0,.34.359.984.984,0,0,0,.509.128,1.155,1.155,0,0,0,.353-.059.828.828,0,0,0,.268-.145.663.663,0,0,0,.17-.215h1.095a1.507,1.507,0,0,1-.338.675,1.656,1.656,0,0,1-.652.444,2.469,2.469,0,0,1-.911.157,2.238,2.238,0,0,1-1.111-.264" transform="translate(-11.334 -1.389)" fill="#232077"/>
      <path id="패스_22" data-name="패스 22" d="M107.588,12.583H108.7v.733h.047a1.085,1.085,0,0,1,.383-.587,1.04,1.04,0,0,1,.629-.208,1.8,1.8,0,0,1,.369.039v1.023a1.353,1.353,0,0,0-.225-.044,2.181,2.181,0,0,0-.268-.018.925.925,0,0,0-.458.113.843.843,0,0,0-.32.312.875.875,0,0,0-.118.455V16.8h-1.148Z" transform="translate(-11.924 -1.388)" fill="#232077"/>
      <path id="패스_23" data-name="패스 23" d="M111.074,12.584h1.093v.737h.047a1.146,1.146,0,0,1,.44-.582,1.279,1.279,0,0,1,.735-.209,1.4,1.4,0,0,1,.518.094,1.051,1.051,0,0,1,.393.274,1.123,1.123,0,0,1,.233.423h.039a1.141,1.141,0,0,1,.27-.417,1.254,1.254,0,0,1,.438-.277,1.575,1.575,0,0,1,.563-.1,1.408,1.408,0,0,1,.694.168,1.156,1.156,0,0,1,.469.5,1.682,1.682,0,0,1,.166.775V16.8h-1.152V14.186a.71.71,0,0,0-.181-.525.645.645,0,0,0-.478-.181.7.7,0,0,0-.365.092.617.617,0,0,0-.235.258.9.9,0,0,0-.087.388V16.8h-1.113V14.155a.767.767,0,0,0-.079-.357.555.555,0,0,0-.227-.237.7.7,0,0,0-.342-.082.668.668,0,0,0-.35.1.685.685,0,0,0-.25.276.885.885,0,0,0-.093.413V16.8h-1.148Z" transform="translate(-12.311 -1.389)" fill="#232077"/>
      <path id="패스_24" data-name="패스 24" d="M119.18,11.743a.64.64,0,0,1-.227-.212.52.52,0,0,1-.085-.291.533.533,0,0,1,.085-.293.609.609,0,0,1,.229-.212.655.655,0,0,1,.315-.077.639.639,0,0,1,.309.077.6.6,0,0,1,.229.212.533.533,0,0,1,.085.293.52.52,0,0,1-.085.291.634.634,0,0,1-.229.212.622.622,0,0,1-.309.079.634.634,0,0,1-.317-.079m-.258.634h1.148v4.212h-1.148Z" transform="translate(-13.174 -1.181)" fill="#232077"/>
      <path id="패스_25" data-name="패스 25" d="M122.371,16.8h-1.148V12.584h1.094v.737h.047a1.165,1.165,0,0,1,.475-.582,1.446,1.446,0,0,1,.793-.21,1.487,1.487,0,0,1,.762.19,1.284,1.284,0,0,1,.509.549,1.869,1.869,0,0,1,.181.843V16.8h-1.149V14.31a1.023,1.023,0,0,0-.087-.442.624.624,0,0,0-.26-.285.812.812,0,0,0-.409-.1.835.835,0,0,0-.422.1.693.693,0,0,0-.284.3,1.015,1.015,0,0,0-.1.469Z" transform="translate(-13.435 -1.389)" fill="#232077"/>
      <path id="패스_26" data-name="패스 26" d="M128.839,14.989l-.184.012q-.321.012-.566.039a.841.841,0,0,0-.479.164.481.481,0,0,0-.176.382.432.432,0,0,0,.082.266.5.5,0,0,0,.223.168.8.8,0,0,0,.327.054.967.967,0,0,0,.459-.1.766.766,0,0,0,.317-.283.739.739,0,0,0,.113-.4l-.008-1.361a.58.58,0,0,0-.076-.3.464.464,0,0,0-.227-.19.932.932,0,0,0-.365-.064.835.835,0,0,0-.475.122.531.531,0,0,0-.228.344h-1.093a1.282,1.282,0,0,1,.26-.67,1.51,1.51,0,0,1,.622-.467,2.369,2.369,0,0,1,.94-.171,2.585,2.585,0,0,1,.892.147,1.387,1.387,0,0,1,.648.471,1.327,1.327,0,0,1,.248.809V16.8H129v-.582h-.032a1.187,1.187,0,0,1-.47.483,1.514,1.514,0,0,1-.766.177,1.744,1.744,0,0,1-.722-.141,1.134,1.134,0,0,1-.5-.425,1.237,1.237,0,0,1-.182-.686,1.081,1.081,0,0,1,.434-.956,2.2,2.2,0,0,1,1.133-.343c.126-.011.264-.019.413-.025l.429-.022.256-.007.007.71-.169.012" transform="translate(-14.002 -1.389)" fill="#232077"/>
      <rect id="사각형_45" data-name="사각형 45" width="1.148" height="5.616" transform="translate(116.961 9.792)" fill="#232077"/>
      <path id="패스_27" data-name="패스 27" d="M139.453,12.424a1.083,1.083,0,0,0-.425-.348,1.4,1.4,0,0,0-.586-.12,1.344,1.344,0,0,0-.767.22,1.431,1.431,0,0,0-.508.636,2.848,2.848,0,0,0,0,2.005,1.413,1.413,0,0,0,.506.629,1.353,1.353,0,0,0,.758.219,1.442,1.442,0,0,0,.58-.118,1.105,1.105,0,0,0,.426-.329,1.177,1.177,0,0,0,.227-.514l1.183.012a2.226,2.226,0,0,1-.38.983,2.25,2.25,0,0,1-.838.726,2.6,2.6,0,0,1-1.214.274,2.633,2.633,0,0,1-1.348-.344,2.371,2.371,0,0,1-.927-1,3.345,3.345,0,0,1-.335-1.545,3.315,3.315,0,0,1,.34-1.549,2.385,2.385,0,0,1,.931-.995,2.631,2.631,0,0,1,1.34-.341,2.777,2.777,0,0,1,1.171.239,2.064,2.064,0,0,1,.851.7,2.371,2.371,0,0,1,.41,1.1h-1.183a1.2,1.2,0,0,0-.211-.537" transform="translate(-15.052 -1.211)" fill="#232077"/>
      <path id="패스_28" data-name="패스 28" d="M143.136,16.606a1.825,1.825,0,0,1-.719-.762,2.7,2.7,0,0,1,0-2.281,1.825,1.825,0,0,1,.719-.762,2.357,2.357,0,0,1,2.2,0,1.8,1.8,0,0,1,.719.762,2.736,2.736,0,0,1,0,2.281,1.8,1.8,0,0,1-.719.762,2.35,2.35,0,0,1-2.2,0m1.592-.783a1,1,0,0,0,.3-.46,2.257,2.257,0,0,0,0-1.332,1,1,0,0,0-.3-.458.737.737,0,0,0-.485-.167.767.767,0,0,0-.5.167,1,1,0,0,0-.309.458,2.132,2.132,0,0,0,0,1.332.994.994,0,0,0,.309.46.767.767,0,0,0,.5.166.736.736,0,0,0,.485-.166" transform="translate(-15.756 -1.389)" fill="#232077"/>
      <path id="패스_29" data-name="패스 29" d="M147.63,12.584h1.093v.737h.047a1.146,1.146,0,0,1,.44-.582,1.279,1.279,0,0,1,.735-.209,1.4,1.4,0,0,1,.518.094,1.051,1.051,0,0,1,.393.274,1.123,1.123,0,0,1,.233.423h.039a1.141,1.141,0,0,1,.27-.417,1.254,1.254,0,0,1,.438-.277,1.575,1.575,0,0,1,.563-.1,1.409,1.409,0,0,1,.694.168,1.156,1.156,0,0,1,.469.5,1.682,1.682,0,0,1,.166.775V16.8h-1.152V14.186a.71.71,0,0,0-.18-.525.645.645,0,0,0-.478-.181.7.7,0,0,0-.365.092.617.617,0,0,0-.235.258.9.9,0,0,0-.087.388V16.8H150.12V14.155a.767.767,0,0,0-.079-.357.555.555,0,0,0-.227-.237.7.7,0,0,0-.342-.082.668.668,0,0,0-.35.1.685.685,0,0,0-.25.276.885.885,0,0,0-.093.413V16.8H147.63Z" transform="translate(-16.362 -1.389)" fill="#232077"/>
      <path id="패스_30" data-name="패스 30" d="M155.486,12.585h1.129v.705h.053c.011-.023.021-.044.031-.061a1.53,1.53,0,0,1,.249-.349,1.11,1.11,0,0,1,.374-.251,1.39,1.39,0,0,1,.544-.1,1.6,1.6,0,0,1,.867.244,1.655,1.655,0,0,1,.615.735,2.837,2.837,0,0,1,.225,1.184,2.821,2.821,0,0,1-.221,1.174,1.689,1.689,0,0,1-.611.741,1.58,1.58,0,0,1-.878.254,1.364,1.364,0,0,1-.545-.1,1.191,1.191,0,0,1-.384-.252,1.368,1.368,0,0,1-.25-.353l-.016-.031h-.035v2.253h-1.148Zm1.228,2.763a.975.975,0,0,0,.31.44.823.823,0,0,0,.973,0,.957.957,0,0,0,.307-.442,1.929,1.929,0,0,0,.1-.66,1.884,1.884,0,0,0-.1-.651A.914.914,0,0,0,158,13.6a.779.779,0,0,0-.486-.154.8.8,0,0,0-.488.148.906.906,0,0,0-.309.429,2.022,2.022,0,0,0,0,1.322" transform="translate(-17.233 -1.389)" fill="#232077"/>
      <rect id="사각형_46" data-name="사각형 46" width="1.148" height="5.616" transform="translate(143.081 9.792)" fill="#232077"/>
      <path id="패스_31" data-name="패스 31" d="M163.99,16.614a1.763,1.763,0,0,1-.723-.752,2.714,2.714,0,0,1,0-2.292,1.853,1.853,0,0,1,.714-.768,2.073,2.073,0,0,1,1.072-.271,2.126,2.126,0,0,1,1.013.238,1.706,1.706,0,0,1,.7.719,2.467,2.467,0,0,1,.258,1.175v.322h-3.544v-.718h2.462a.958.958,0,0,0-.115-.453.791.791,0,0,0-.308-.314.89.89,0,0,0-.45-.113.934.934,0,0,0-.477.122.872.872,0,0,0-.329.336.981.981,0,0,0-.121.465v.675a1.173,1.173,0,0,0,.121.549.894.894,0,0,0,.34.359.984.984,0,0,0,.509.128,1.155,1.155,0,0,0,.353-.059.828.828,0,0,0,.268-.145.663.663,0,0,0,.17-.215H167a1.507,1.507,0,0,1-.338.675,1.656,1.656,0,0,1-.652.444,2.47,2.47,0,0,1-.911.157,2.238,2.238,0,0,1-1.111-.264" transform="translate(-18.067 -1.389)" fill="#232077"/>
      <path id="패스_32" data-name="패스 32" d="M169.96,14.073l.8-1.481h1.183l-1.225,2.1,1.257,2.11H170.8l-.842-1.466-.822,1.466h-1.191l1.254-2.11-1.211-2.1h1.191Z" transform="translate(-18.614 -1.395)" fill="#232077"/>
      <path id="패스_33" data-name="패스 33" d="M67.694,25.325l-3.629,0,.01,7.549-2.191,0-.012-9.3,5.82-.007Zm-1.781,6.592a22.151,22.151,0,0,0,2.516-.311l.156,1.771a19.77,19.77,0,0,1-2.555.341q-1.254.084-3.051.1l-1.1,0,0-1.824h1.1q1.711,0,2.935-.081m5.441,4.666-2,0-.018-14.558,2,0Zm1.994-7.064-2.644,0,0-1.746,2.644,0Zm1.568,7.812-2.054,0-.02-15.593,2.055,0Z" transform="translate(-6.857 -2.409)" fill="#232077"/>
      <path id="패스_34" data-name="패스 34" d="M83.365,27.617A6.334,6.334,0,0,1,81.9,29.926,6.078,6.078,0,0,1,79.463,31.4l-1.132-1.761a5.615,5.615,0,0,0,2.078-1.145,4.792,4.792,0,0,0,1.244-1.7,5.164,5.164,0,0,0,.413-2l0-1.01,1.78,0,0,1.01a8.16,8.16,0,0,1-.48,2.829M87.4,24.561l-8.456.011,0-1.754,8.456-.011ZM83.406,36.325l-2.191,0-.005-4.185,2.191,0Zm8.525.726-10.715.013,0-1.763,10.715-.013ZM84.69,26.639a4.8,4.8,0,0,0,1.2,1.6,5.412,5.412,0,0,0,1.992,1.1l-1.077,1.73a5.969,5.969,0,0,1-2.377-1.409,6.118,6.118,0,0,1-1.44-2.194,7.3,7.3,0,0,1-.469-2.665l0-1.028,1.772,0V24.8a4.436,4.436,0,0,0,.4,1.835m5.826.913-3.7,0,0-1.771,3.7-.005Zm1.033,5.579-2.173,0L89.362,21.76l2.173,0Z" transform="translate(-8.682 -2.411)" fill="#232077"/>
      <path id="패스_35" data-name="패스 35" d="M109.681,31.235l-14.206.019,0-1.746,14.206-.018Zm-1.729,6.105-2.174,0,0-3.312-8.73.011,0-1.7,10.9-.013ZM99.428,23.572l6.246-.007,0-1.421,2.175,0,.006,6.034-10.577.012-.008-6.033,2.157,0Zm6.251,2.885,0-1.284-6.247.008,0,1.284Zm-2.033,3.426-2.2,0,0-2.413,2.2,0Z" transform="translate(-10.582 -2.454)" fill="#232077"/>
      <path id="패스_36" data-name="패스 36" d="M121.735,24.777l-9.251.012,0-1.721,9.252-.012Zm-2.622.774a3.111,3.111,0,0,1,1.358.97,2.3,2.3,0,0,1,.49,1.449,2.268,2.268,0,0,1-.486,1.443,3.172,3.172,0,0,1-1.36.969,5.36,5.36,0,0,1-1.986.349,5.435,5.435,0,0,1-2.015-.344,3.161,3.161,0,0,1-1.367-.966,2.263,2.263,0,0,1-.49-1.441,2.3,2.3,0,0,1,.486-1.451,3.1,3.1,0,0,1,1.364-.973,5.5,5.5,0,0,1,2.014-.345,5.4,5.4,0,0,1,1.991.34M116.841,32.6l5.837-.008,0-1.189,2.182,0,.007,5.692-10.2.012-.007-5.692,2.182,0Zm-.637-5.644a1.308,1.308,0,0,0-.606.4,1.019,1.019,0,0,0,0,1.254,1.316,1.316,0,0,0,.607.4,3.387,3.387,0,0,0,1.845,0,1.387,1.387,0,0,0,.62-.4.984.984,0,0,0-.006-1.254,1.359,1.359,0,0,0-.621-.4,3.448,3.448,0,0,0-1.836,0m2-2.925-2.182,0,0-2.448,2.182,0Zm4.473,11.343v-1.1l-5.837.007,0,1.1Zm2.177-4.564-2.182,0-.012-9.14,2.182,0Zm2.1-3.555-2.979,0,0-1.814,2.979,0Z" transform="translate(-12.467 -2.392)" fill="#232077"/>
      <path id="패스_37" data-name="패스 37" d="M137.62,24.742l-5.109.006.01,7.8-2.182,0-.012-9.559,7.292-.01Zm-2.344,7.167a28.616,28.616,0,0,0,3.072-.329l.226,1.753q-1.627.251-3.235.342t-3.758.094l-1.241,0,0-1.78,1.24,0q2.175,0,3.7-.081m1.777-2.861-5.025.006,0-1.72,5.025-.006Zm3.817-.124-3,0,0-1.754,3,0Zm1.911,8.368-2.167,0L140.6,21.657l2.165,0Z" transform="translate(-14.444 -2.4)" fill="#232077"/>
      <path id="패스_38" data-name="패스 38" d="M154.984,33.519l-7.531.01-.013-10.45,7.531-.009ZM149.625,31.8l3.226,0-.008-7.018-3.227,0Zm10.1,5.474-2.216,0-.02-15.637,2.218,0Z" transform="translate(-16.341 -2.398)" fill="#232077"/>
      <path id="패스_39" data-name="패스 39" d="M166.762,28.659l-2.173,0-.008-6.376,2.173,0Zm2.652-1.433a32.052,32.052,0,0,0,3.345-.423l.3,1.771a34.588,34.588,0,0,1-3.569.458q-1.745.131-3.62.133l-1.283,0,0-1.8h1.284q1.873-.02,3.543-.142m7.437,7.112-8.147.01,0,1.892-2.183,0,0-3.543,8.131-.011,0-.881-8.156.011,0-1.712,10.356-.013Zm.389,2.7-10.715.013,0-1.754,10.714-.013ZM175.1,25.568l-4.288.005,0-1.738,4.288,0Zm1.742,3.935-2.173,0-.01-7.891,2.173,0Z" transform="translate(-18.241 -2.395)" fill="#232077"/>
      <path id="패스_40" data-name="패스 40" d="M24.935,31.5a7.094,7.094,0,0,1-7.3-7.127,7.257,7.257,0,0,1,14.512-.094A7.106,7.106,0,0,1,24.935,31.5m2.988-7.09a3.038,3.038,0,0,0-6.076-.085,2.91,2.91,0,0,0,3.09,3.025,2.9,2.9,0,0,0,2.986-2.94" transform="translate(-1.955 -1.905)" fill="#232077"/>
      <path id="패스_41" data-name="패스 41" d="M20.737,34.613c-.4,1.063-.583,1.727-.891,2.324-2.6,5.071-6.423,9.156-10.638,12.895a3.269,3.269,0,0,1-1.992.877,2.932,2.932,0,0,1-2.223-.887,4.354,4.354,0,0,1,.112-2.581c.074-.365.537-.665.854-.963a52.524,52.524,0,0,0,9.727-12.01c.707-1.225,1.695-2.189,3.181-1.488.772.364,1.3,1.249,1.87,1.833" transform="translate(-0.535 -3.607)" fill="#232077"/>
      <path id="패스_42" data-name="패스 42" d="M33.188,32.7a10.221,10.221,0,0,1,1.768,1.18c3.393,3.226,6.726,6.514,10.111,9.749.965.921,1.456,1.894.742,3.148a2.36,2.36,0,0,1-3.234,1,5.515,5.515,0,0,1-1.759-1.044c-3.229-3.037-6.469-6.069-9.575-9.229a4.162,4.162,0,0,1-.9-2.71c0-1.379.967-2.084,2.845-2.1" transform="translate(-3.363 -3.625)" fill="#232077"/>
      <path id="패스_43" data-name="패스 43" d="M39.384,24.523a18.552,18.552,0,0,1-2.613-.023,2.281,2.281,0,0,1-2.119-2.437,2.106,2.106,0,0,1,2.088-2.214c3.836-.476,7.671-.968,11.513-1.393,1.345-.148,2.563.208,2.858,1.762a2.246,2.246,0,0,1-1.961,2.737c-3.218.7-6.472,1.237-9.711,1.839l-.053-.27" transform="translate(-3.841 -2.042)" fill="#232077"/>
      <path id="패스_44" data-name="패스 44" d="M11.321,25.3c-3.088-.733-6.189-1.416-9.259-2.219-1.4-.367-2.387-1.322-1.962-2.9.445-1.649,1.782-1.941,3.293-1.64,2.815.562,5.618,1.186,8.441,1.7,1.506.276,2.922.556,2.828,2.52-.074,1.551-1.252,2.33-3.341,2.538" transform="translate(0 -2.044)" fill="#232077"/>
      <path id="패스_45" data-name="패스 45" d="M30.339,5.407c-.225,2.107-.372,4.227-.7,6.318-.309,1.981-1.416,2.806-3.028,2.5-1.472-.279-2.047-1.369-1.87-3.328.213-2.36.343-4.728.536-7.089a4.412,4.412,0,0,1,.373-2.17C26.229.895,27.211-.044,27.968,0a3.125,3.125,0,0,1,2.111,1.875A11.24,11.24,0,0,1,30.168,5.4Z" transform="translate(-2.739 0)" fill="#232077"/>
      <path id="패스_46" data-name="패스 46" d="M22.841,44.216c.366-2.457.719-4.916,1.1-7.37.2-1.28.885-2.1,2.28-1.871S28,36.242,27.841,37.482c-.3,2.4-.651,4.8-1,7.2-.2,1.344-.912,2.25-2.362,2.066-1.43-.181-1.659-1.3-1.636-2.531" transform="translate(-2.531 -3.872)" fill="#f8b037"/>
      <path id="패스_47" data-name="패스 47" d="M36.763,27.263a13.352,13.352,0,0,1,1.448.369c2.3.939,4.6,1.883,6.891,2.853,1.239.525,1.979,1.449,1.446,2.8-.547,1.385-1.751,1.2-2.851.756-2.417-.983-4.852-1.944-7.182-3.109a2.536,2.536,0,0,1-1.169-2.007c.057-.631.977-1.185,1.417-1.664" transform="translate(-3.917 -3.021)" fill="#f8b037"/>
      <path id="패스_48" data-name="패스 48" d="M34.258,17.012c-.409-.322-1.209-.639-1.352-1.143a2.638,2.638,0,0,1,.278-2.2,40.816,40.816,0,0,1,5.468-4.517,2.808,2.808,0,0,1,2.626.29,2.461,2.461,0,0,1,0,2.432,71.514,71.514,0,0,1-5.7,4.788c-.262.209-.7.195-1.323.349" transform="translate(-3.635 -0.991)" fill="#f8b037"/>
      <path id="패스_49" data-name="패스 49" d="M7.25,34.256C6.656,33.606,5.679,33,5.52,32.227a2.57,2.57,0,0,1,1.039-2.251,27.509,27.509,0,0,1,6.089-1.638,2.532,2.532,0,0,1,2,1.439,2.541,2.541,0,0,1-.839,2.323A64.04,64.04,0,0,1,7.25,34.256" transform="translate(-0.61 -3.14)" fill="#f8b037"/>
      <path id="패스_50" data-name="패스 50" d="M21.911,12.937c-.515.64-.83,1.416-1.268,1.492-.718.124-1.932.052-2.208-.39A44.349,44.349,0,0,1,15.36,8a1.9,1.9,0,0,1,.673-1.749c.542-.281,1.791-.251,2.031.112,1.372,2.069,2.535,4.276,3.847,6.574" transform="translate(-1.697 -0.672)" fill="#f8b037"/>
      <path id="패스_51" data-name="패스 51" d="M13.957,18.063c-1.323-1.433-2.595-2.716-3.718-4.119-.185-.23.132-1.175.48-1.436a1.651,1.651,0,0,1,1.543-.061,22.953,22.953,0,0,1,3.252,2.785,1.7,1.7,0,0,1,.081,1.529c-.2.427-.8.667-1.637,1.3" transform="translate(-1.129 -1.361)" fill="#ffa944"/>
    </g>
  </g>
</svg>
