<svg width="178" height="59" viewBox="0 0 178 59" fill="none" xmlns="http://www.w3.org/2000/svg">
<g clip-path="url(#clip0_102_237)">
<path d="M52.0696 44.8621C50.8533 44.4279 50.6228 44.1384 50.6228 43.6403C50.6228 43.1422 50.9728 42.7463 51.805 42.7463C52.4152 42.7463 52.8207 42.9464 53.2645 43.3125L53.6998 42.7804C53.1877 42.3717 52.667 42.1333 51.8476 42.1333C50.7124 42.1333 49.9443 42.7123 49.9443 43.6829C49.9443 44.5599 50.3881 44.9856 51.7025 45.4539C52.8164 45.8541 53.1536 46.1733 53.1536 46.7353C53.1536 47.3781 52.65 47.7783 51.8434 47.7783C51.216 47.7783 50.6868 47.4888 50.2259 47.0503L49.7778 47.5527C50.2558 48.038 50.9941 48.3956 51.822 48.3956C53.0895 48.3956 53.8364 47.6548 53.8364 46.7055C53.8364 45.7561 53.4224 45.3517 52.0738 44.8664L52.0696 44.8621Z" fill="white"/>
<path d="M56.5933 43.653C56.0001 43.653 55.4623 43.7978 55.0612 44.0149L55.3087 44.5428C55.68 44.3257 56.0726 44.1937 56.5506 44.1937C57.2164 44.1937 57.5407 44.5215 57.5407 45.2027V45.7391C57.2718 45.5901 56.8579 45.4751 56.4012 45.4751C55.5008 45.4751 54.6558 45.9093 54.6558 46.9311C54.6558 48.0294 55.4026 48.387 56.111 48.387C56.7683 48.387 57.2164 48.0805 57.5407 47.7357V48.2934H58.1894V45.1175C58.1894 44.0617 57.5748 43.6445 56.5933 43.6445V43.653ZM57.5364 47.1822C57.259 47.5611 56.8152 47.8634 56.2263 47.8634C55.6672 47.8634 55.2916 47.5696 55.2916 46.8927C55.2916 46.3223 55.6928 45.9987 56.3628 45.9987C56.9176 45.9987 57.2377 46.1009 57.5364 46.2627V47.1865V47.1822Z" fill="white"/>
<path d="M64.7362 45.6329V48.2979H65.3849V45.5265C65.3849 44.1982 64.8045 43.6533 63.8742 43.6533C63.1316 43.6533 62.7603 43.9982 62.4914 44.4324C62.2738 43.9982 61.8854 43.6533 61.241 43.6533C60.7033 43.6533 60.3192 43.913 60.0845 44.3047V43.7512H59.4272V48.3021H60.0845V45.6372C60.0845 44.6282 60.4728 44.2153 61.1002 44.2153C61.7275 44.2153 62.0817 44.5942 62.0817 45.6372V48.3021H62.7347V45.6372C62.7347 44.6282 63.1316 44.2153 63.7504 44.2153C64.4076 44.2153 64.7319 44.5942 64.7319 45.6372L64.7362 45.6329Z" fill="white"/>
<path d="M68.0005 45.6498C67.2281 45.3007 66.9976 45.1517 66.9976 44.7643C66.9976 44.4322 67.2708 44.2024 67.753 44.2024C68.2353 44.2024 68.534 44.3301 68.8882 44.611L69.251 44.13C68.9053 43.8448 68.4188 43.6489 67.7957 43.6489C66.9635 43.6489 66.3703 44.1172 66.3703 44.8069C66.3703 45.5348 66.7501 45.8116 67.6677 46.2032C68.4742 46.5481 68.7431 46.7567 68.7431 47.1313C68.7431 47.574 68.4486 47.8337 67.8213 47.8337C67.3689 47.8337 66.9422 47.6507 66.5794 47.3314L66.1953 47.8039C66.6306 48.153 67.1769 48.3871 67.8042 48.3871C68.5937 48.3871 69.3662 47.9997 69.3662 47.1015C69.3662 46.2884 68.8626 46.0372 67.9963 45.6455L68.0005 45.6498Z" fill="white"/>
<path d="M73.1729 46.4073C73.1729 47.4035 72.6736 47.8249 72.0463 47.8249C71.3122 47.8249 70.9666 47.3865 70.9666 46.4073V43.7466H70.3179V46.518C70.3179 47.8249 70.9537 48.3911 71.914 48.3911C72.4901 48.3911 72.9126 48.1229 73.1729 47.7398V48.2975H73.8259V43.7466H73.1729V46.4073Z" fill="white"/>
<path d="M78.4351 48.2979V45.5265C78.4351 44.2153 77.7993 43.6533 76.8348 43.6533C76.2629 43.6533 75.8361 43.9215 75.5801 44.3047V43.7512H74.9229V48.3021H75.5801V45.6372C75.5801 44.641 76.0709 44.2153 76.7025 44.2153C77.4322 44.2153 77.7822 44.658 77.7822 45.6372V48.3021H78.4351V48.2979Z" fill="white"/>
<path d="M80.488 49.4727L80.6971 49.9666C82.3913 49.9155 83.0059 49.2556 83.0059 47.8848V43.7426H82.3529V44.2534C82.0329 43.8873 81.6402 43.6489 81.0684 43.6489C80.1124 43.6489 79.3442 44.4791 79.3442 46.0925C79.3442 47.706 80.0697 48.3871 80.9788 48.3871C81.5976 48.3871 82.0329 48.0806 82.3529 47.7358V47.9699C82.3529 49.03 82.0073 49.4302 80.4837 49.4685L80.488 49.4727ZM81.1495 47.8252C80.4282 47.8252 79.9929 47.2292 79.9929 46.084C79.9929 44.8622 80.3642 44.2109 81.1239 44.2109C81.6658 44.2109 82.1054 44.5131 82.3572 44.892V47.1696C82.0371 47.5698 81.636 47.8252 81.1495 47.8252Z" fill="white"/>
<path d="M90.2013 45.2198C90.2013 43.1381 89.0234 42.2271 87.4273 42.2271H85.8184V48.2978H87.3078C88.9338 48.2978 90.2013 47.4208 90.2013 45.2198ZM86.4969 42.8401H87.3761C88.7759 42.8401 89.5227 43.6915 89.5227 45.2411C89.5227 46.9866 88.7033 47.6805 87.3931 47.6805H86.4969V42.8401Z" fill="white"/>
<path d="M91.9381 44.3086V43.7466H91.2852V48.2975H91.9381V45.624C91.9381 44.7556 92.2966 44.249 92.9325 44.249C93.2355 44.249 93.4318 44.3171 93.6153 44.4235L93.7775 43.7679C93.6238 43.6998 93.4062 43.6572 93.0648 43.6572C92.574 43.6572 92.143 43.951 91.9381 44.3128V44.3086Z" fill="white"/>
<path d="M97.678 47.8633L97.3707 47.395C96.9525 47.6717 96.6409 47.8292 96.1075 47.8292C95.3649 47.8292 94.8997 47.212 94.84 46.2456H97.8785C97.8999 46.1391 97.9084 46.0455 97.9084 45.8922C97.9084 44.5938 97.2597 43.6572 96.0691 43.6572C94.9851 43.6572 94.187 44.5555 94.187 45.9987C94.187 47.7909 95.2027 48.3954 96.0392 48.3954C96.7263 48.3954 97.1274 48.2124 97.678 47.8676V47.8633ZM96.0691 44.2149C96.8671 44.2149 97.2512 44.8322 97.3024 45.7134H94.84C94.9168 44.696 95.3905 44.2149 96.0691 44.2149Z" fill="white"/>
<path d="M100.085 48.3914C100.738 48.3914 101.186 48.0849 101.506 47.7401V48.2977H102.159V45.1219C102.159 44.0661 101.545 43.6489 100.563 43.6489C99.97 43.6489 99.4323 43.7937 99.0312 44.0108L99.2744 44.5387C99.65 44.3216 100.038 44.1896 100.516 44.1896C101.186 44.1896 101.506 44.5174 101.506 45.1985V45.7349C101.238 45.5859 100.828 45.471 100.371 45.471C99.4665 45.471 98.6172 45.9052 98.6172 46.9269C98.6172 48.0253 99.3683 48.3829 100.081 48.3829L100.085 48.3914ZM100.337 45.9946C100.892 45.9946 101.216 46.0968 101.511 46.2586V47.1824C101.233 47.5613 100.789 47.8635 100.2 47.8635C99.6457 47.8635 99.2659 47.5698 99.2659 46.8929C99.2659 46.3224 99.6713 45.9989 100.337 45.9989V45.9946Z" fill="white"/>
<path d="M108.706 45.6329V48.2979H109.359V45.5265C109.359 44.1982 108.779 43.6533 107.848 43.6533C107.11 43.6533 106.734 43.9982 106.47 44.4324C106.252 43.9982 105.864 43.6533 105.219 43.6533C104.677 43.6533 104.297 43.913 104.063 44.3047V43.7512H103.414V48.3021H104.063V45.6372C104.063 44.6282 104.455 44.2153 105.083 44.2153C105.71 44.2153 106.069 44.5942 106.069 45.6372V48.3021H106.717V45.6372C106.717 44.6282 107.114 44.2153 107.737 44.2153C108.394 44.2153 108.719 44.5942 108.719 45.6372L108.706 45.6329Z" fill="white"/>
<path d="M52.0696 53.8911C50.849 53.4569 50.6271 53.1716 50.6271 52.6693C50.6271 52.1669 50.977 51.7795 51.8092 51.7795C52.4195 51.7795 52.8292 51.9754 53.2688 52.3415L53.7041 51.8136C53.192 51.4092 52.667 51.1665 51.8519 51.1665C50.7125 51.1665 49.9485 51.737 49.9485 52.7161C49.9485 53.5931 50.3924 54.0145 51.7068 54.4828C52.8207 54.8873 53.1578 55.2023 53.1578 55.7685C53.1578 56.4071 52.6542 56.8072 51.8434 56.8072C51.216 56.8072 50.6868 56.5178 50.2259 56.0793L49.7778 56.5816C50.2558 57.0669 50.9941 57.4203 51.822 57.4203C53.0895 57.4203 53.8321 56.6838 53.8321 55.7302C53.8321 54.7766 53.4181 54.3764 52.0738 53.8911H52.0696Z" fill="white"/>
<path d="M56.602 53.2439C57.0629 53.2439 57.3659 53.4057 57.6945 53.7037L58.0871 53.2184C57.7286 52.9034 57.2549 52.6777 56.6446 52.6777C55.6887 52.6777 54.6772 53.3887 54.6772 55.0703C54.6772 56.6582 55.5948 57.416 56.5977 57.416C57.2378 57.416 57.6817 57.1733 58.0658 56.7816L57.6731 56.3687C57.3616 56.671 57.0671 56.8498 56.6233 56.8498C55.8167 56.8498 55.3345 56.1303 55.3345 55.0107C55.3345 53.891 55.885 53.2354 56.5977 53.2354L56.602 53.2439Z" fill="white"/>
<path d="M60.8738 52.682C60.302 52.682 59.8709 52.9502 59.6106 53.3334V51.1963H58.9619V57.3351H59.6106V54.6701C59.6106 53.674 60.1099 53.2482 60.7415 53.2482C61.4756 53.2482 61.8212 53.6867 61.8212 54.6701V57.3351H62.4742V54.5552C62.4742 53.2482 61.8383 52.682 60.8738 52.682Z" fill="white"/>
<path d="M65.3846 52.6821C64.275 52.6821 63.3916 53.5123 63.3916 55.0576C63.3916 56.603 64.2409 57.4246 65.3505 57.4246C66.4601 57.4246 67.352 56.5689 67.352 55.0236C67.352 53.4782 66.4942 52.6821 65.3846 52.6821ZM65.3718 56.8584C64.578 56.8584 64.0446 56.2369 64.0446 55.0406C64.0446 53.8443 64.578 53.2483 65.3718 53.2483C66.1656 53.2483 66.699 53.8443 66.699 55.0406C66.699 56.2369 66.1613 56.8584 65.3718 56.8584Z" fill="white"/>
<path d="M68.9864 51.1924H68.3335V57.3312H68.9864V51.1924Z" fill="white"/>
<path d="M71.9699 52.6821C71.3767 52.6821 70.8389 52.8311 70.442 53.0482L70.6853 53.5804C71.0609 53.3633 71.4535 53.2313 71.9315 53.2313C72.5972 53.2313 72.9216 53.5634 72.9216 54.236V54.7767C72.6527 54.6277 72.243 54.5127 71.7864 54.5127C70.8816 54.5127 70.0366 54.9469 70.0366 55.9729C70.0366 57.0713 70.7835 57.4246 71.4962 57.4246C72.1491 57.4246 72.5972 57.1223 72.9216 56.7775V57.3352H73.5745V54.1636C73.5745 53.0993 72.9557 52.6864 71.9741 52.6864L71.9699 52.6821ZM72.9173 56.2113C72.6442 56.5859 72.1918 56.8925 71.6071 56.8925C71.0523 56.8925 70.6768 56.5987 70.6768 55.9218C70.6768 55.3471 71.0779 55.0321 71.748 55.0321C72.3027 55.0321 72.6228 55.1257 72.9173 55.2918V56.2113Z" fill="white"/>
<path d="M75.465 53.3422V52.7717H74.812V57.3269H75.465V54.6534C75.465 53.7892 75.8149 53.2741 76.4551 53.2741C76.7623 53.2741 76.9586 53.3422 77.1422 53.4486L77.3086 52.7888C77.1507 52.7207 76.9373 52.6738 76.5959 52.6738C76.1094 52.6738 75.6698 52.9676 75.4692 53.3379L75.465 53.3422Z" fill="white"/>
<path d="M79.8095 54.683C79.037 54.3339 78.8023 54.1764 78.8023 53.7975C78.8023 53.4697 79.0797 53.2356 79.5577 53.2356C80.0357 53.2356 80.3429 53.3675 80.6972 53.6442L81.0599 53.1674C80.71 52.8822 80.2277 52.6821 79.6004 52.6821C78.7724 52.6821 78.1707 53.1504 78.1707 53.8443C78.1707 54.5383 78.5548 54.849 79.4681 55.2364C80.2747 55.5813 80.5435 55.7941 80.5435 56.1645C80.5435 56.6115 80.2491 56.8669 79.626 56.8669C79.1693 56.8669 78.7468 56.6839 78.3798 56.3646L78 56.8414C78.4353 57.1905 78.9816 57.4204 79.6089 57.4204C80.3984 57.4204 81.1709 57.0287 81.1709 56.1389C81.1709 55.3216 80.6673 55.0747 79.8052 54.683H79.8095Z" fill="white"/>
<path d="M84.1496 52.682C83.5692 52.682 83.1467 52.9502 82.8864 53.3334V51.1963H82.2334V57.3351H82.8864V54.6701C82.8864 53.674 83.3814 53.2482 84.0173 53.2482C84.747 53.2482 85.0927 53.6867 85.0927 54.6701V57.3351H85.7457V54.5552C85.7457 53.2482 85.1141 52.682 84.1496 52.682Z" fill="white"/>
<path d="M87.6834 52.7715H87.0347V57.3266H87.6834V52.7715Z" fill="white"/>
<path d="M87.3717 51.0347C87.1071 51.0347 86.8979 51.2433 86.8979 51.5072C86.8979 51.7712 87.1071 51.967 87.3717 51.967C87.6149 51.967 87.824 51.7541 87.824 51.5072C87.824 51.2433 87.6149 51.0347 87.3717 51.0347Z" fill="white"/>
<path d="M91.0247 52.6821C90.4102 52.6821 89.9749 52.9886 89.6505 53.3335V52.7758H88.9976V59.004H89.6505V56.8201C89.9706 57.1819 90.3632 57.4246 90.9393 57.4246C91.891 57.4246 92.6592 56.5902 92.6592 54.981C92.6592 53.3718 91.9337 52.6821 91.0247 52.6821ZM90.8839 56.8584C90.3461 56.8584 89.9023 56.5561 89.6505 56.173V53.8997C89.9706 53.5038 90.3717 53.2441 90.8583 53.2441C91.5838 53.2441 92.0191 53.8401 92.0191 54.9853C92.0191 56.2071 91.6435 56.8541 90.8881 56.8541L90.8839 56.8584Z" fill="white"/>
<path d="M96.1117 51.8733H99.0051V51.2603H95.4331V57.331H96.1117V54.5H97.7803V53.8869H96.1117V51.8733Z" fill="white"/>
<path d="M100.986 52.6821C99.876 52.6821 98.9883 53.5123 98.9883 55.0576C98.9883 56.603 99.8418 57.4246 100.951 57.4246C102.061 57.4246 102.953 56.5689 102.953 55.0236C102.953 53.4782 102.104 52.6821 100.986 52.6821ZM100.973 56.8584C100.179 56.8584 99.654 56.2369 99.654 55.0406C99.654 53.8443 100.183 53.2483 100.973 53.2483C101.762 53.2483 102.304 53.8443 102.304 55.0406C102.304 56.2369 101.767 56.8584 100.973 56.8584Z" fill="white"/>
<path d="M106.55 55.4365C106.55 56.4326 106.06 56.8584 105.424 56.8584C104.694 56.8584 104.344 56.4199 104.344 55.4365V52.7715H103.695V55.5472C103.695 56.8541 104.331 57.4203 105.296 57.4203C105.863 57.4203 106.29 57.1564 106.55 56.7732V57.3309H107.208V52.7757H106.55V55.4407V55.4365Z" fill="white"/>
<path d="M110.212 52.682C109.64 52.682 109.214 52.9502 108.953 53.3333V52.7757H108.3V57.3308H108.953V54.6658C108.953 53.6697 109.448 53.2439 110.084 53.2439C110.814 53.2439 111.16 53.6824 111.16 54.6658V57.3308H111.813V54.5509C111.813 53.2439 111.177 52.6777 110.212 52.6777V52.682Z" fill="white"/>
<path d="M115.735 53.2912C115.41 52.925 115.022 52.6781 114.446 52.6781C113.49 52.6781 112.726 53.5083 112.726 55.126C112.726 56.7437 113.447 57.4206 114.361 57.4206C114.979 57.4206 115.41 57.1184 115.731 56.7735V57.3312H116.383V51.1924H115.731V53.2912H115.735ZM115.735 56.2031C115.41 56.599 115.014 56.8587 114.527 56.8587C113.806 56.8587 113.37 56.2627 113.37 55.1175C113.37 53.8914 113.742 53.2443 114.501 53.2443C115.039 53.2443 115.479 53.5466 115.735 53.9297V56.1988V56.2031Z" fill="white"/>
<path d="M119.149 52.6821C118.56 52.6821 118.022 52.8311 117.621 53.0482L117.86 53.5804C118.236 53.3633 118.628 53.2313 119.106 53.2313C119.772 53.2313 120.092 53.5634 120.092 54.236V54.7767C119.823 54.6277 119.413 54.5127 118.953 54.5127C118.052 54.5127 117.207 54.9469 117.207 55.9729C117.207 57.0713 117.958 57.4246 118.671 57.4246C119.324 57.4246 119.772 57.1223 120.092 56.7775V57.3352H120.745V54.1636C120.745 53.0993 120.13 52.6864 119.145 52.6864L119.149 52.6821ZM120.096 56.2113C119.819 56.5859 119.379 56.8925 118.782 56.8925C118.231 56.8925 117.86 56.5987 117.86 55.9218C117.86 55.3471 118.257 55.0321 118.927 55.0321C119.482 55.0321 119.806 55.1257 120.096 55.2918V56.2113Z" fill="white"/>
<path d="M122.827 51.1924H122.17V52.7718H121.607V53.321H122.17V56.3904C122.17 57.1439 122.478 57.4164 123.045 57.4164C123.387 57.4164 123.63 57.3653 123.882 57.2631L123.929 56.7012C123.719 56.7863 123.549 56.8289 123.284 56.8289C122.938 56.8289 122.827 56.6884 122.827 56.284V53.321H123.958V52.7718H122.827V51.1924Z" fill="white"/>
<path d="M125.439 51.0347C125.17 51.0347 124.957 51.2433 124.957 51.5072C124.957 51.7712 125.17 51.967 125.439 51.967C125.683 51.967 125.887 51.7541 125.887 51.5072C125.887 51.2433 125.678 51.0347 125.439 51.0347Z" fill="white"/>
<path d="M125.751 52.7715H125.098V57.3266H125.751V52.7715Z" fill="white"/>
<path d="M128.73 52.6821C127.62 52.6821 126.732 53.5123 126.732 55.0576C126.732 56.603 127.582 57.4246 128.696 57.4246C129.809 57.4246 130.693 56.5689 130.693 55.0236C130.693 53.4782 129.839 52.6821 128.73 52.6821ZM128.713 56.8584C127.923 56.8584 127.39 56.2369 127.39 55.0406C127.39 53.8443 127.923 53.2483 128.713 53.2483C129.502 53.2483 130.044 53.8443 130.044 55.0406C130.044 56.2369 129.506 56.8584 128.713 56.8584Z" fill="white"/>
<path d="M133.548 52.682C132.976 52.682 132.549 52.9502 132.285 53.3333V52.7757H131.632V57.3308H132.285V54.6658C132.285 53.6697 132.78 53.2439 133.416 53.2439C134.145 53.2439 134.495 53.6824 134.495 54.6658V57.3308H135.144V54.5509C135.144 53.2439 134.508 52.6777 133.548 52.6777V52.682Z" fill="white"/>
<path d="M74.8848 30.2769C72.2644 30.2811 70.105 32.3245 70.105 34.8874C70.105 37.4502 72.2644 39.4723 74.8848 39.4808C77.5307 39.4723 79.6688 37.4246 79.6688 34.8874C79.6688 32.3501 77.5307 30.2811 74.8848 30.2769ZM74.8208 37.3778C73.4508 37.3778 72.4181 36.2624 72.4181 34.8874C72.4181 33.5123 73.5234 32.3756 74.889 32.3756C76.2547 32.3756 77.3216 33.491 77.3216 34.8874C77.3216 36.2837 76.2035 37.3778 74.825 37.3778H74.8208Z" fill="white"/>
<path d="M52.953 27.1054C53.6828 27.8248 54.5192 28.4549 55.3429 28.8593L55.4283 28.9061L56.8409 27.2416L56.7043 27.165C55.3642 26.4412 54.3144 25.526 53.6273 24.3723C52.9445 23.2356 52.5945 21.9159 52.5945 20.3365V18.855H50.0681V20.179C50.0681 21.8903 49.6797 23.2356 48.9499 24.4148C48.1348 25.7218 46.9271 26.7733 45.3822 27.7482L45.2456 27.8333L46.7777 29.417L46.8631 29.3702C47.7763 28.8763 48.7451 28.1143 49.5858 27.2629C50.3156 26.5179 50.9472 25.7218 51.3313 24.9683C51.7026 25.709 52.2702 26.4625 52.953 27.1096V27.1054Z" fill="white"/>
<path d="M50.2178 38.391H60.793V31.1836H50.2178V38.391ZM52.5949 33.2185H58.416V36.356H52.5949V33.2185Z" fill="white"/>
<path d="M85.4771 38.391H97.435V31.1836H85.4771V38.391ZM87.8285 33.2185H95.0878V36.356H87.8285V33.2185Z" fill="white"/>
<path d="M60.8354 18.4292H58.4839V30.3578H60.8354V25.0789H63.588V22.9588H60.8354V18.4292Z" fill="white"/>
<path d="M109.589 27.7143C110.362 28.3826 111.245 28.9446 112.077 29.3064L112.163 29.3448L113.435 27.6291L113.298 27.561C112.086 26.9437 111.006 26.1774 110.23 25.2408C109.44 24.2872 108.971 23.1378 108.971 21.7542V21.3498H112.47V19.2979H102.97V21.3498H106.465V21.8436C106.465 23.1038 106.047 24.2787 105.352 25.2962C104.536 26.518 103.346 27.5014 102.189 28.14L102.036 28.2209L103.598 29.8343L103.683 29.7918C104.524 29.315 105.454 28.5955 106.248 27.7866C106.884 27.1225 107.456 26.4201 107.806 25.7177C108.228 26.3988 108.877 27.0799 109.594 27.7143H109.589Z" fill="white"/>
<path d="M126.596 33.2654H135.144V38.3868H137.517V31.2305H126.596V33.2654Z" fill="white"/>
<path d="M132.494 25.0618C132.494 23.9337 131.986 22.8949 131.235 22.1031H133.582V20.0724H129.101V17.8374H126.554V20.0724H121.966V22.1031H124.364C123.63 22.8949 123.122 23.9251 123.122 25.0618C123.122 27.5778 125.201 29.6212 127.8 29.6297C130.399 29.6212 132.49 27.5778 132.494 25.0618ZM125.388 24.9681C125.388 23.5761 126.566 22.3968 127.8 22.3968C129.033 22.3968 130.207 23.5803 130.211 24.9681C130.211 26.339 129.033 27.5224 127.8 27.5267C126.562 27.5224 125.393 26.339 125.388 24.9681Z" fill="white"/>
<path d="M137.517 18.4292H135.17V30.4003H137.517V25.8324H140.278V23.7123H137.517V18.4292Z" fill="white"/>
<path d="M117.6 18.4292H115.252V30.4003H117.6V25.0789H120.357V22.9588H117.6V18.4292Z" fill="white"/>
<path d="M77.7568 21.9797H74.061V24.0785H77.7568V30.7792H80.1083V18.4292H77.7568V21.9797Z" fill="white"/>
<path d="M71.7863 27.4161C72.5203 28.1313 73.3781 28.7614 74.1975 29.1871L74.2871 29.2382L75.6997 27.5736L75.5632 27.497C74.2231 26.7946 73.1946 25.8836 72.5033 24.7469C71.8034 23.6187 71.4534 22.2479 71.4534 20.6685V18.855H68.9227V20.5153C68.9227 22.2267 68.5386 23.5677 67.8259 24.7256C67.015 26.0538 65.7817 27.1139 64.2368 28.0802L64.1045 28.1654L65.6451 29.7533L65.7219 29.7022C66.6309 29.2041 67.5784 28.4847 68.4191 27.663C69.1787 26.9095 69.8104 26.0879 70.1944 25.3003C70.5572 26.0198 71.112 26.752 71.7863 27.4204V27.4161Z" fill="white"/>
<path d="M112.559 30.2769C109.939 30.2811 107.78 32.3245 107.775 34.8874C107.78 37.4246 109.935 39.4723 112.559 39.4808C115.201 39.4723 117.343 37.4246 117.343 34.8874C117.343 32.3501 115.201 30.2811 112.559 30.2769ZM112.491 37.3778C111.126 37.3778 110.084 36.2624 110.084 34.8874C110.084 33.5123 111.185 32.3756 112.559 32.3756C113.934 32.3756 114.988 33.491 114.992 34.8874C114.992 36.2582 113.87 37.3778 112.491 37.3778Z" fill="white"/>
<path d="M88.3407 25.2707H90.6922V19.1787H84.3462V21.2051H88.3407V25.2707Z" fill="white"/>
<path d="M95.3994 25.2707H97.7552V19.1787H91.4092V21.2051H95.3994V25.2707Z" fill="white"/>
<path d="M155.339 23.823H153.363V18.7613H151.139V37.8759H153.363V26.1219H155.339V38.3868H157.643V18.4292H155.339V23.823Z" fill="white"/>
<path d="M147.879 26.4668C147.35 25.3131 147.132 24.0232 147.132 22.4395V21.686H149.799V19.5361H142.049V21.686H144.802V22.4821C144.802 23.9806 144.606 25.2067 144.132 26.3433C143.581 27.6503 142.655 28.8253 141.179 30.0854L141.076 30.179L142.536 31.6222L142.625 31.5541C143.359 31.0134 144.128 30.2301 144.768 29.4213C145.31 28.7401 145.766 28.0334 146.052 27.4119C146.347 28.0164 146.808 28.7103 147.345 29.3574C147.968 30.1152 148.673 30.8346 149.347 31.2646L149.437 31.3242L150.666 29.8597L150.567 29.7703C149.244 28.6209 148.425 27.5949 147.887 26.4625L147.879 26.4668Z" fill="white"/>
<path d="M82.3789 28.1056H90.1845V30.3789H92.7323V28.1056H100.662V26.0664H82.3789V28.1056Z" fill="white"/>
<path d="M171.031 27.4546H163.084V21.4222H169.136V19.2979H160.703V29.515H171.031V27.4546Z" fill="white"/>
<path d="M166.537 32.0269H164.16V38.3871H175.277V36.2925H166.537V32.0269Z" fill="white"/>
<path d="M175.222 23.9549V18.4248H172.875V33.1503H175.222V26.0749H178V23.9549H175.222Z" fill="white"/>
<path d="M49.8508 12.2691L43.7609 9.75316L49.8508 7.23717L48.7668 4.63605L42.6812 7.15203L45.2033 1.07706L42.5915 0L40.0736 6.07497L37.5514 0L34.9396 1.07706L37.4618 7.15203L31.3761 4.63605L30.2964 7.23717L36.3821 9.75316L30.2964 12.2691L31.3761 14.8703L37.4618 12.3543L34.9396 18.4293L37.5514 19.5063L40.0736 13.4356L42.5915 19.5063L45.2033 18.425L42.6812 12.3543L48.7668 14.8703L49.8508 12.2691Z" fill="white"/>
<path d="M10.4475 29.2168H14.4975V18.4292H0.648926V22.0648H10.4475V29.2168Z" fill="white"/>
<path d="M26.2463 29.2168H30.2963V18.4292H16.4478V22.0648H26.2463V29.2168Z" fill="white"/>
<path d="M0 34.7982H26.2461V40.3538H30.2961V31.1626H0V34.7982Z" fill="white"/>
<path d="M9.79834 57.3313H30.2959V42.2227H9.79834V57.3313ZM13.8441 45.8625H26.2459V53.7H13.8441V45.8625Z" fill="white"/>
</g>
<defs>
<clipPath id="clip0_102_237">
<rect width="178" height="59" fill="white"/>
</clipPath>
</defs>
</svg>
