<svg width="168" height="27" viewBox="0 0 168 27" fill="none" xmlns="http://www.w3.org/2000/svg">
<path d="M167.462 13.4193L162.552 13.3567V16.6875C162.552 20.9722 161.801 24.1153 161.442 25.0536C161.207 25.3194 160.66 25.4758 160.331 25.3819C160.128 24.6313 159.706 22.3014 159.706 18.4233V3.44252C159.706 2.81702 157.939 1.51913 157.282 1.31584C157.11 1.25329 157.673 0.59648 157.845 0.59648C159.19 0.59648 162.724 1.40965 162.646 2.03515C162.583 2.45736 162.552 2.95777 162.552 3.50508V12.0745L166.274 10.6045C166.602 10.4794 168.072 13.4193 167.478 13.4193M157.282 15.0456C157.798 15.7649 156.406 18.8142 155.906 18.0949C155.187 17.0784 153.216 14.0761 151.449 12.0745C149.088 15.374 146.148 18.0323 143.505 19.4397C143.177 19.4084 142.786 18.9236 142.786 18.6265C146.054 15.718 149.745 10.6201 151.293 5.97579C151.387 5.70995 150.276 4.89679 149.792 4.59968C149.635 4.50585 150.308 4.00549 150.48 4.00549C151.371 4.00549 153.842 5.0219 154.436 5.44412C154.764 5.67868 154.796 5.83506 154.639 6.22599C153.983 7.93048 153.107 9.55678 152.122 11.058C154.342 12.5905 156.797 14.3575 157.282 15.0456ZM141.394 13.7007L136.453 13.6069V16.6875C136.453 20.9722 135.765 24.1153 135.374 25.0536C135.139 25.3194 134.592 25.4758 134.295 25.3819C134.06 24.6313 133.669 22.3014 133.669 18.4233V3.44252C133.669 2.81702 131.902 1.58168 131.246 1.31584C131.089 1.25329 131.637 0.59648 131.809 0.59648C133.153 0.59648 136.609 1.40965 136.547 2.03515C136.515 2.45736 136.453 2.95777 136.453 3.50508V12.3403L140.19 10.9016C140.55 10.7453 142.02 13.6851 141.394 13.6851M125.335 15.155C126.711 15.155 127.727 14.2011 127.727 12.7312C127.727 11.2613 126.773 10.2761 125.335 10.2761C123.896 10.2761 122.942 11.2613 122.942 12.7312C122.942 14.2011 123.896 15.155 125.335 15.155ZM120.659 2.66064C120.628 2.53554 120.784 2.12899 120.956 2.14463C121.941 2.33228 122.942 2.50427 124.193 2.66064L127.242 2.98902C127.508 3.02029 128.681 4.63098 127.899 4.63098H123.286C122.504 4.63098 120.706 2.92648 120.643 2.66064M117.594 6.31982C117.563 6.22599 117.75 5.8976 117.829 5.92888C118.345 6.11653 120.174 6.16345 121.91 6.13217L128.149 6.06961C129.948 6.03833 130.479 5.147 130.761 5.147C131.058 5.147 132.2 6.72641 132.2 7.46137C132.2 7.58647 132.074 7.66467 131.871 7.66467C131.574 7.66467 129.838 7.57084 128.462 7.57084L121.754 7.6021C120.675 7.6021 119.955 7.83666 119.627 8.13377C118.783 7.89921 117.735 6.6326 117.625 6.30421M132.497 18.5796C129.807 19.815 124.647 20.5343 121.113 20.9722C120.159 21.0973 119.58 21.2693 119.017 21.5977C118.11 21.3631 116.797 20.0339 116.671 19.5335C116.703 19.3772 116.828 19.2364 116.906 19.1426C117.891 19.1426 119.33 19.1739 121.066 19.08C122.145 19.0175 123.161 18.9549 124.084 18.8767L123.912 16.2966C121.629 15.9056 120.221 14.5608 120.221 12.6999C120.221 10.6671 121.988 9.29097 124.772 9.1346C124.803 9.0095 124.834 8.93127 124.834 8.80617C124.834 8.57161 124.772 8.29017 124.443 8.0556C124.443 7.49265 126.242 8.05561 126.242 8.35272C126.242 8.47782 126.085 8.83748 126.007 9.1346C128.728 9.32225 130.448 10.6983 130.448 12.6999C130.448 14.5608 128.978 15.9056 126.726 16.2966L126.601 18.6265C129.447 18.2981 131.371 17.8447 132.653 17.4225C132.919 17.3286 132.809 18.4076 132.481 18.564M98.4225 3.98984L98.3912 8.99386H105.366L105.538 3.98984H98.4069H98.4225ZM93.9033 2.87959C93.872 2.72322 94.2942 2.22279 94.4975 2.22279C95.0135 2.22279 96.7962 2.28537 97.969 2.48865H104.615C105.459 2.48865 105.897 2.36352 106.226 2.06641C106.585 1.94131 108.915 2.30101 108.868 2.69195L107.883 8.71235C108.305 9.10329 108.868 9.8852 108.868 10.3074C108.868 10.4325 108.743 10.5107 108.54 10.5107C108.243 10.5107 107.133 10.4794 105.459 10.4794H98.0941C97.9065 10.8078 97.6719 11.1049 97.4061 11.4177C97.1402 11.6835 96.6555 11.8086 96.2958 11.7148C95.9987 10.9955 95.7485 9.61936 95.5452 7.133L95.2794 4.0211C95.2481 3.72399 94.4037 3.06724 93.9033 2.87959ZM110.495 24.1466C110.495 24.2717 110.401 24.3499 110.166 24.3499H107.086L97.9221 24.3812C95.3732 24.3812 94.8728 23.5054 94.8728 21.8009V19.2521C94.8728 18.7986 93.9189 18.0167 93.3716 17.9385C93.1996 17.9072 93.7938 17.1566 94.0284 17.1566C95.0761 17.1566 96.6398 17.3912 97.4217 17.6883C97.5781 17.7509 97.8126 17.8447 97.7501 18.1731C97.6875 18.564 97.6875 19.1269 97.6875 19.6117V21.8322C97.6875 22.7549 98.0159 22.8799 98.8291 22.8799L106.523 22.8487C108.149 22.8487 108.681 21.9417 108.884 21.9417C109.306 21.9417 110.495 23.4429 110.495 24.131M113.403 14.4357C113.403 14.5921 113.278 14.6702 113.075 14.6702H103.583V16.406C103.583 18.1731 102.926 19.7055 102.473 20.3936C102.238 20.6594 101.722 20.7845 101.394 20.6907C101.128 19.8775 100.737 18.7986 100.737 16.8282V14.6702H94.3568C93.2778 14.6702 92.5584 14.9674 92.23 15.2645C91.3856 15.0299 89.6811 13.7007 89.6811 13.4036C89.6811 13.2785 89.8375 12.9501 89.9157 12.9814C90.4317 13.1691 92.2613 13.1847 93.9971 13.1847L108.681 13.1534C110.542 13.1534 111.167 12.1057 111.402 12.1057C111.73 12.1057 113.403 13.7008 113.403 14.4201M71.5729 6.86714C71.5729 8.79055 72.8239 10.0728 74.716 10.0728C76.6082 10.0728 78.0468 8.79055 78.0468 6.86714C78.0468 4.94372 76.702 3.66147 74.7473 3.66147C72.7926 3.66147 71.5729 4.95936 71.5729 6.86714ZM68.7269 6.94531C68.7269 4.25565 70.8848 2.45736 74.2156 2.26971C74.2469 2.17588 74.2782 2.09772 74.2782 2.00389C74.2782 1.73806 74.2156 1.44093 73.8247 1.15945C73.8247 0.565229 75.8263 1.15944 75.8263 1.48783C75.8263 1.61293 75.6699 1.97259 75.5917 2.26971C78.7662 2.50427 80.8616 4.30257 80.8616 6.94531C80.8616 9.72878 78.4378 11.5584 74.8099 11.5584C71.182 11.5584 68.7269 9.72878 68.7269 6.94531ZM86.6475 15.1394C86.6475 15.2645 86.5224 15.3427 86.3191 15.3427H79.8139V16.7813C79.8139 20.8314 79.0945 23.9746 78.7036 24.8972C78.469 25.163 77.9217 25.2881 77.6246 25.2256C77.39 24.475 76.9678 22.145 76.9678 18.5171V15.3427L72.386 15.3739V16.2809C72.386 20.2997 71.6667 23.4429 71.3071 24.3655C71.0725 24.6314 70.5252 24.7564 70.1968 24.6939C69.9935 23.9433 69.5713 21.6133 69.5713 18.0167V15.3739H67.601C66.522 15.3739 65.8027 15.6711 65.4743 15.9682C64.6298 15.7336 62.9254 14.4044 62.9254 14.0761C62.9254 13.9822 63.0817 13.6538 63.1599 13.6851C63.6759 13.8571 65.5055 13.8884 67.2413 13.8884L81.9249 13.8258C83.7858 13.8258 84.4113 12.7781 84.6459 12.7781C84.9742 12.7781 86.6475 14.3888 86.6475 15.1081M45.0517 5.66307C45.0517 7.30501 46.287 8.4778 48.1323 8.4778C49.9775 8.4778 51.2129 7.30501 51.2129 5.66307C51.2129 4.02113 49.9775 2.91085 48.1323 2.91085C46.287 2.91085 45.0517 4.0524 45.0517 5.66307ZM42.2056 5.78815C42.2056 3.42688 44.2698 1.70677 47.4755 1.50348C47.5068 1.34711 47.5693 1.23761 47.5693 1.08124C47.5693 0.815401 47.4755 0.533943 47.1158 0.268105C47.1158 -0.357395 49.1174 0.268109 49.1174 0.565222C49.1174 0.752872 48.9141 1.15944 48.789 1.48783C51.9635 1.69112 54.0902 3.41123 54.0902 5.77249C54.0902 8.25886 51.6663 10.0259 48.1323 10.0259C44.5982 10.0259 42.2056 8.25886 42.2056 5.77249M56.4201 24.6314C56.4201 24.7878 56.295 24.8346 56.0918 24.8346H44.4418C42.4402 24.8346 41.7365 24.1466 41.6896 22.5828L41.6271 20.5812C41.6271 20.2841 40.8452 19.8932 40.3448 19.6743C40.3135 19.5179 40.767 19.0175 41.0016 19.0175C41.5645 19.0175 43.7068 19.1426 44.4731 19.4084H52.0573L52.0886 16.9846H44.5044C43.5817 16.9846 42.9719 17.2192 42.6435 17.5319C41.5645 17.3756 40.6888 15.9682 40.6732 15.7649C40.6419 15.6085 40.7983 15.3114 40.939 15.3427C41.8929 15.5147 43.097 15.5147 44.8327 15.5147H51.0408C51.8853 15.5147 52.3231 15.4209 52.6515 15.0925C53.0112 15.0612 55.4037 15.327 55.3255 15.718L54.5749 19.2521C55.1379 19.6743 55.4975 20.3936 55.4975 20.5656C55.4975 20.722 55.4037 20.8314 55.263 20.8314C54.9971 20.8314 53.2926 20.8002 51.9009 20.8002H44.4731V22.1137C44.4731 23.1301 44.7702 23.3334 46.115 23.3334H52.6828C54.5436 23.3334 54.8095 22.5516 55.0128 22.5516C55.435 22.5516 56.4201 23.959 56.4201 24.5845M59.8291 13.0283C59.8291 13.1534 59.704 13.2316 59.5007 13.2316H55.2786L40.7983 13.2629C39.7506 13.2629 39.0312 13.56 38.7028 13.8258C37.8271 13.5913 36.279 12.2934 36.1539 11.965C36.1227 11.8712 36.3103 11.5428 36.3885 11.574C36.9045 11.7617 38.7185 11.7929 40.4699 11.7929L55.1222 11.7304C56.9518 11.7304 57.5773 10.6827 57.8432 10.6827C58.1715 10.6827 59.8135 12.2933 59.8135 13.0127M26.7401 12.9814C26.7401 13.2472 26.5369 13.2472 25.8175 13.4662C25.5204 13.56 25.364 14.0291 25.1295 14.7797C24.6134 16.3591 22.9715 18.908 19.5625 18.908C16.1536 18.908 14.3552 15.9994 14.2301 15.8431C14.0581 15.6085 13.7767 15.3896 13.5421 15.3896C13.3857 15.3896 13.2763 15.4521 13.1824 15.5147C11.9471 16.3591 10.6022 17.313 10.6022 19.5023C10.6022 20.9409 11.8063 22.5828 13.8392 22.5828C15.575 22.5828 16.7165 20.9409 17.0762 19.7993C17.2013 19.4084 17.17 19.2521 17.3733 19.2521C17.6391 19.2521 17.7329 19.8463 18.0926 19.8463C18.3897 19.8463 18.2959 19.6899 18.6868 19.6899C19.0465 19.6899 19.1403 20.1747 19.4374 20.1747C19.8596 20.1747 20.4226 19.815 20.7041 19.815C20.7979 19.815 20.9386 19.815 20.9386 19.9088C20.9386 20.0652 20.6728 20.206 20.4226 20.4249C19.9066 20.8784 19.5313 21.1442 19.1403 21.8009C17.7642 24.1309 16.1692 24.5532 15.356 24.8034C15.0589 24.8972 14.7618 25.0379 14.6367 25.3194C14.1832 26.3358 13.9174 26.4609 13.7923 26.4609C13.6359 26.4609 13.589 26.2889 13.5577 25.898C13.5264 25.4758 13.2919 24.991 12.4787 24.8503C10.4146 24.4593 7.86567 22.3639 7.86567 19.0644C7.86567 16.0933 10.1175 14.9361 11.259 13.7945C11.4154 13.6382 11.5248 13.4661 11.5248 13.2003V13.1065C11.5248 12.9658 11.4936 12.7781 11.3059 12.5436C10.1644 11.1049 9.30432 10.151 7.74057 10.151C6.03608 10.151 4.53488 11.5584 4.53488 13.5912C4.53488 15.7805 5.61387 16.5311 6.69286 16.797C7.05252 16.8908 7.17762 16.9221 7.17762 17.0315C7.17762 17.2661 6.94306 17.2192 6.94306 17.5788C6.94306 17.8447 7.14635 17.8134 7.14635 18.2356C7.14635 18.5327 6.88051 18.6265 6.88051 19.08C6.88051 19.4397 7.05252 19.5648 7.05252 19.7681C7.05252 20.0339 7.20889 20.0026 7.20889 20.5812C7.20889 20.7376 7.27145 20.8471 7.14635 20.8471C7.02125 20.8471 6.88051 20.6438 6.69286 20.3623C6.27064 19.7368 5.81715 19.3459 5.48877 19.0957C2.8773 17.2035 2.78348 16.3747 2.1267 15.0768C1.97033 14.7797 1.92342 14.2637 1.61066 14.123C0.656777 13.6382 0 13.4974 0 12.7156C0 12.3559 0.422214 12.7156 1.07899 12.7156C1.43865 12.7156 1.86087 12.7781 2.06415 12.0275C2.51764 10.4325 4.39414 7.88357 7.69366 7.88357C11.1965 7.88357 12.9322 10.7922 13.0573 10.9486C13.2919 11.2769 13.5108 11.402 13.7454 11.402C13.9017 11.402 14.0112 11.402 14.277 11.1675C16.4976 9.19713 16.6696 8.32145 16.6696 7.17991C16.6696 5.74126 15.528 4.06801 13.4952 4.06801C11.4623 4.06801 10.4928 5.6787 10.2269 6.88279C10.1331 7.27373 10.0706 7.47702 9.89855 7.47702C9.63271 7.47702 9.63271 7.11734 9.3356 7.11734C8.85083 7.11734 8.80392 7.32064 8.55372 7.32064C8.22533 7.32064 8.22533 6.72641 7.74057 6.72641C7.61547 6.72641 7.34963 6.88279 7.17762 6.88279C6.72413 6.88279 6.69286 6.97661 6.48957 6.97661C6.25501 6.97661 6.00481 6.85151 6.00481 6.67949C6.00481 6.50748 6.16118 6.38239 6.63031 6.14783C7.25581 5.81944 7.83439 5.58486 8.13151 4.91245C9.05412 2.8483 11.1026 2.19153 11.8845 1.89442C12.1816 1.76932 12.338 1.65983 12.4787 1.37836C13.1042 0.236817 13.3857 0.111721 13.5577 0.111721C13.7297 0.111721 13.7141 0.408854 13.7923 0.768517C13.8861 1.19073 13.8861 1.51911 14.5742 1.69112C16.5289 2.20716 19.3905 4.00546 19.3905 7.28933C19.3905 10.5732 16.1536 12.653 15.9972 12.7781C15.6375 13.044 15.5124 13.2629 15.5124 13.4662C15.5124 13.6225 15.6062 13.7945 15.7001 13.9822C16.4819 15.5459 17.8268 16.5624 19.3905 16.5624C21.2514 16.5624 22.69 14.8266 22.69 13.0283C22.69 11.23 21.4859 10.151 20.4382 9.82265C20.0473 9.69755 19.8753 9.69752 19.8753 9.49423C19.8753 9.25967 20.1411 9.33787 20.1411 8.97821C20.1411 8.71237 20.016 8.77493 20.016 8.35272C20.016 8.05561 20.3757 7.96177 20.3757 7.50828C20.3757 7.14862 20.2037 7.02351 20.2037 6.82023C20.2037 6.55439 20.1098 6.58568 20.1098 6.00709C20.1098 5.85072 20.0473 5.74123 20.1724 5.74123C20.3288 5.74123 20.4695 5.94452 20.6572 6.22599C21.0794 6.85149 21.4078 7.33625 21.7361 7.53954C24.0974 9.04074 24.6134 9.99467 25.1608 11.3395C25.2859 11.6366 25.3953 12.1526 25.755 12.3559C26.0521 12.5436 26.7089 12.7468 26.7089 12.9814" fill="#534B4B"/>
</svg>
