<svg width="244" height="35" viewBox="0 0 244 35" fill="none" xmlns="http://www.w3.org/2000/svg">
<path d="M243.774 17.7497L236.626 17.667V22.0726C236.626 27.74 235.533 31.8974 235.01 33.1385C234.668 33.4901 233.871 33.6969 233.393 33.5728C233.097 32.58 232.483 29.4981 232.483 24.3686V4.55343C232.483 3.72608 229.911 2.00936 228.955 1.74047C228.704 1.65773 229.524 0.788966 229.774 0.788966C231.732 0.788966 236.876 1.86455 236.762 2.6919C236.671 3.25037 236.626 3.91225 236.626 4.63619V15.9709L242.044 14.0267C242.522 13.8612 244.661 17.7497 243.796 17.7497M228.955 19.9008C229.706 20.8523 227.68 24.8856 226.951 23.9341C225.904 22.5897 223.036 18.6185 220.464 15.9709C217.026 20.3352 212.747 23.8514 208.9 25.713C208.422 25.6716 207.853 25.0304 207.853 24.6374C212.61 20.7902 217.983 14.0473 220.236 7.9042C220.373 7.55258 218.757 6.47701 218.051 6.08402C217.823 5.95991 218.802 5.29808 219.052 5.29808C220.35 5.29808 223.947 6.6425 224.812 7.20096C225.29 7.51122 225.335 7.71805 225.107 8.23515C224.151 10.4897 222.877 12.6408 221.443 14.6264C224.675 16.6535 228.249 18.9908 228.955 19.9008ZM205.827 18.122L198.634 17.9979V22.0726C198.634 27.74 197.632 31.8974 197.063 33.1385C196.722 33.4901 195.925 33.6969 195.492 33.5728C195.151 32.58 194.582 29.4981 194.582 24.3686V4.55343C194.582 3.72608 192.009 2.09209 191.053 1.74047C190.826 1.65773 191.623 0.788966 191.873 0.788966C193.831 0.788966 198.861 1.86455 198.77 2.6919C198.725 3.25037 198.634 3.91225 198.634 4.63619V16.3225L204.074 14.4197C204.598 14.2128 206.737 18.1014 205.827 18.1014M182.449 20.0456C184.452 20.0456 185.932 18.7839 185.932 16.8396C185.932 14.8953 184.543 13.5922 182.449 13.5922C180.355 13.5922 178.966 14.8953 178.966 16.8396C178.966 18.7839 180.355 20.0456 182.449 20.0456ZM175.643 3.51924C175.597 3.35377 175.825 2.81602 176.075 2.83671C177.509 3.08491 178.966 3.31241 180.787 3.51924L185.226 3.95359C185.613 3.99495 187.32 6.12542 186.182 6.12542H179.467C178.329 6.12542 175.711 3.87087 175.62 3.51924M171.181 8.35925C171.135 8.23514 171.409 7.80078 171.522 7.84215C172.274 8.09036 174.937 8.15242 177.464 8.11105L186.546 8.0283C189.164 7.98693 189.938 6.80796 190.348 6.80796C190.78 6.80796 192.442 8.89705 192.442 9.86919C192.442 10.0347 192.26 10.1381 191.964 10.1381C191.531 10.1381 189.005 10.014 187.002 10.014L177.236 10.0553C175.665 10.0553 174.618 10.3656 174.14 10.7586C172.911 10.4483 171.386 8.77297 171.226 8.33861M192.874 24.5753C188.959 26.2094 181.447 27.1608 176.303 27.74C174.914 27.9054 174.072 28.133 173.252 28.5674C171.932 28.2571 170.02 26.499 169.838 25.8371C169.883 25.6302 170.066 25.4441 170.179 25.32C171.613 25.32 173.708 25.3613 176.234 25.2372C177.805 25.1545 179.285 25.0718 180.628 24.9683L180.377 21.5555C177.054 21.0384 175.005 19.2596 175.005 16.7983C175.005 14.1094 177.577 12.2892 181.629 12.0824C181.675 11.9169 181.72 11.8134 181.72 11.648C181.72 11.3377 181.629 10.9654 181.151 10.6552C181.151 9.91056 183.769 10.6552 183.769 11.0482C183.769 11.2137 183.541 11.6894 183.428 12.0824C187.389 12.3306 189.893 14.1507 189.893 16.7983C189.893 19.2596 187.753 21.0384 184.475 21.5555L184.293 24.6374C188.436 24.203 191.236 23.6032 193.102 23.0448C193.489 22.9207 193.33 24.3479 192.852 24.5547M143.273 5.27738L143.227 11.8962H153.38L153.63 5.27738H143.25H143.273ZM136.694 3.80885C136.649 3.60201 137.263 2.9401 137.559 2.9401C138.311 2.9401 140.906 3.02286 142.613 3.29175H152.287C153.517 3.29175 154.154 3.12624 154.632 2.73325C155.156 2.56778 158.547 3.04356 158.479 3.56065L157.045 11.5239C157.659 12.041 158.479 13.0752 158.479 13.6337C158.479 13.7991 158.297 13.9026 158.001 13.9026C157.568 13.9026 155.952 13.8611 153.517 13.8611H142.795C142.522 14.2955 142.18 14.6885 141.793 15.1022C141.406 15.4538 140.701 15.6193 140.177 15.4952C139.745 14.5437 139.38 12.7236 139.085 9.43484L138.698 5.31873C138.652 4.92573 137.423 4.05705 136.694 3.80885ZM160.846 31.9388C160.846 32.1042 160.71 32.2077 160.368 32.2077H155.884L142.545 32.2491C138.834 32.2491 138.106 31.0907 138.106 28.8362V25.4648C138.106 24.865 136.717 23.8308 135.92 23.7274C135.67 23.686 136.535 22.6932 136.876 22.6932C138.402 22.6932 140.678 23.0034 141.816 23.3964C142.044 23.4791 142.385 23.6032 142.294 24.0376C142.203 24.5547 142.203 25.2993 142.203 25.9405V28.8776C142.203 30.098 142.681 30.2634 143.865 30.2634L155.064 30.222C157.432 30.222 158.206 29.0224 158.502 29.0224C159.116 29.0224 160.846 31.008 160.846 31.9181M165.08 19.0941C165.08 19.301 164.898 19.4044 164.602 19.4044H150.785V21.7003C150.785 24.0376 149.829 26.0646 149.169 26.9747C148.827 27.3263 148.076 27.4918 147.598 27.3677C147.211 26.2921 146.642 24.8649 146.642 22.2588V19.4044H137.355C135.784 19.4044 134.737 19.7974 134.259 20.1904C133.029 19.8801 130.548 18.122 130.548 17.729C130.548 17.5635 130.776 17.1292 130.89 17.1706C131.641 17.4188 134.304 17.4395 136.831 17.4395L158.206 17.3981C160.915 17.3981 161.825 16.0123 162.167 16.0123C162.645 16.0123 165.08 18.1221 165.08 19.0735M104.188 9.08319C104.188 11.6273 106.009 13.3233 108.764 13.3233C111.518 13.3233 113.612 11.6273 113.612 9.08319C113.612 6.53908 111.655 4.84304 108.809 4.84304C105.964 4.84304 104.188 6.55977 104.188 9.08319ZM100.045 9.18659C100.045 5.62897 103.187 3.25035 108.035 3.00215C108.081 2.87805 108.126 2.77466 108.126 2.65056C108.126 2.29893 108.035 1.90592 107.466 1.53362C107.466 0.747631 110.38 1.5336 110.38 1.96796C110.38 2.13343 110.152 2.60916 110.038 3.00215C114.659 3.31241 117.71 5.69102 117.71 9.18659C117.71 12.8683 114.181 15.2883 108.9 15.2883C103.619 15.2883 100.045 12.8683 100.045 9.18659ZM126.132 20.0249C126.132 20.1904 125.95 20.2938 125.654 20.2938H116.185V22.1967C116.185 27.5538 115.137 31.7113 114.568 32.9316C114.227 33.2832 113.43 33.4487 112.998 33.366C112.656 32.3731 112.042 29.2913 112.042 24.4927V20.2938L105.372 20.3352V21.5348C105.372 26.8506 104.325 31.008 103.801 32.2284C103.46 32.58 102.663 32.7455 102.185 32.6627C101.889 31.6699 101.274 28.588 101.274 23.8308V20.3352H98.4063C96.8356 20.3352 95.7885 20.7282 95.3105 21.1212C94.0812 20.8109 91.6 19.0528 91.6 18.6185C91.6 18.4944 91.8277 18.06 91.9415 18.1014C92.6927 18.3289 95.356 18.3702 97.8827 18.3702L119.258 18.2875C121.966 18.2875 122.877 16.9017 123.218 16.9017C123.696 16.9017 126.132 19.0321 126.132 19.9835M65.5814 7.49056C65.5814 9.66236 67.3797 11.2136 70.0658 11.2136C72.7519 11.2136 74.5502 9.66236 74.5502 7.49056C74.5502 5.31876 72.7519 3.85019 70.0658 3.85019C67.3797 3.85019 65.5814 5.36013 65.5814 7.49056ZM61.4385 7.656C61.4385 4.53275 64.4433 2.25755 69.1098 1.98866C69.1553 1.78182 69.2463 1.637 69.2463 1.43016C69.2463 1.07853 69.1098 0.706249 68.5862 0.354624C68.5862 -0.472728 71.4999 0.354629 71.4999 0.747621C71.4999 0.995827 71.204 1.5336 71.0219 1.96796C75.6429 2.23685 78.7387 4.51205 78.7387 7.6353C78.7387 10.924 75.2104 13.2613 70.0658 13.2613C64.9213 13.2613 61.4385 10.924 61.4385 7.6353M82.1304 32.58C82.1304 32.7869 81.9483 32.8489 81.6524 32.8489H64.6936C61.7799 32.8489 60.7556 31.9388 60.6873 29.8704L60.5962 27.2229C60.5962 26.8299 59.4581 26.3128 58.7296 26.0232C58.6841 25.8164 59.3442 25.1545 59.6857 25.1545C60.5052 25.1545 63.6238 25.32 64.7392 25.6716H75.7794L75.825 22.4656H64.7847C63.4417 22.4656 62.5539 22.7759 62.0759 23.1896C60.5052 22.9827 59.2304 21.1212 59.2077 20.8523C59.1621 20.6454 59.3898 20.2525 59.5947 20.2938C60.9832 20.5214 62.736 20.5213 65.2627 20.5213H74.2998C75.529 20.5213 76.1664 20.3973 76.6444 19.9629C77.168 19.9215 80.6508 20.2731 80.537 20.7902L79.4444 25.4648C80.2638 26.0233 80.7874 26.9747 80.7874 27.2022C80.7874 27.4091 80.6508 27.5538 80.4459 27.5538C80.059 27.5538 77.5778 27.5125 75.5518 27.5125H64.7392V29.2499C64.7392 30.5944 65.1717 30.8632 67.1293 30.8632H76.69C79.3988 30.8632 79.7858 29.829 80.0817 29.829C80.6963 29.829 82.1304 31.6906 82.1304 32.518M87.0929 17.2326C87.0929 17.3981 86.9108 17.5015 86.6148 17.5015H80.4687L59.3898 17.5429C57.8646 17.5429 56.8175 17.9359 56.3395 18.2875C55.0647 17.9773 52.8111 16.2605 52.629 15.8261C52.5835 15.702 52.8567 15.2677 52.9705 15.309C53.7217 15.5572 56.3622 15.5986 58.9117 15.5986L80.2411 15.5159C82.9044 15.5159 83.8149 14.13 84.2019 14.13C84.6799 14.13 87.0701 16.2605 87.0701 17.2119M38.9255 17.1706C38.9255 17.5222 38.6295 17.5222 37.5824 17.8118C37.1499 17.9359 36.9223 18.5564 36.5808 19.5492C35.8296 21.6383 33.4395 25.0097 28.477 25.0097C23.5146 25.0097 20.8968 21.1625 20.7147 20.9557C20.4643 20.6454 20.0546 20.3559 19.7131 20.3559C19.4855 20.3559 19.3262 20.4386 19.1896 20.5213C17.3913 21.6383 15.4336 22.9 15.4336 25.7957C15.4336 27.6987 17.1864 29.8704 20.1456 29.8704C22.6724 29.8704 24.3341 27.6986 24.8577 26.1887C25.0398 25.6716 24.9942 25.4648 25.2902 25.4648C25.6771 25.4648 25.8137 26.2507 26.3373 26.2507C26.7698 26.2507 26.6332 26.0439 27.2023 26.0439C27.7259 26.0439 27.8624 26.6851 28.2949 26.6851C28.9096 26.6851 29.729 26.2094 30.1388 26.2094C30.2754 26.2094 30.4802 26.2094 30.4802 26.3335C30.4802 26.5403 30.0932 26.7265 29.729 27.0161C28.9778 27.6159 28.4315 27.9675 27.8624 28.8362C25.8592 31.9181 23.5374 32.4766 22.3537 32.8075C21.9212 32.9316 21.4887 33.1178 21.3066 33.4901C20.6464 34.8345 20.2595 35 20.0773 35C19.8497 35 19.7814 34.7725 19.7359 34.2554C19.6904 33.697 19.3489 33.0557 18.1652 32.8696C15.1604 32.3525 11.45 29.5808 11.45 25.2165C11.45 21.2866 14.7279 19.756 16.3897 18.2461C16.6173 18.0393 16.7766 17.8117 16.7766 17.4601V17.336C16.7766 17.1499 16.7311 16.9017 16.458 16.5914C14.7962 14.6885 13.5442 13.4268 11.2679 13.4268C8.78668 13.4268 6.6014 15.2883 6.6014 17.9772C6.6014 20.8729 8.17207 21.8658 9.74275 22.2174C10.2663 22.3415 10.4484 22.3829 10.4484 22.5277C10.4484 22.8379 10.107 22.7759 10.107 23.2516C10.107 23.6032 10.4029 23.5618 10.4029 24.1203C10.4029 24.5133 10.0159 24.6374 10.0159 25.2372C10.0159 25.713 10.2663 25.8784 10.2663 26.1473C10.2663 26.499 10.4939 26.4576 10.4939 27.2229C10.4939 27.4297 10.585 27.5745 10.4029 27.5745C10.2208 27.5745 10.0159 27.3056 9.74275 26.9333C9.12813 26.106 8.46799 25.5889 7.98996 25.2579C4.18847 22.7552 4.05189 21.6589 3.09583 19.9422C2.86819 19.5492 2.7999 18.8667 2.34463 18.6805C0.956065 18.0393 0 17.8531 0 16.8189C0 16.3432 0.614614 16.8189 1.57068 16.8189C2.09424 16.8189 2.70885 16.9016 3.00478 15.9088C3.66491 13.7991 6.39652 10.4276 11.1996 10.4276C16.2986 10.4276 18.8254 14.2749 19.0075 14.4817C19.3489 14.9161 19.6676 15.0815 20.009 15.0815C20.2367 15.0815 20.396 15.0815 20.783 14.7712C24.0154 12.1651 24.2658 11.0068 24.2658 9.49689C24.2658 7.59398 22.6041 5.38077 19.6448 5.38077C16.6856 5.38077 15.2743 7.51124 14.8873 9.1039C14.7507 9.62099 14.6596 9.88989 14.4092 9.88989C14.0223 9.88989 14.0223 9.41414 13.5898 9.41414C12.8841 9.41414 12.8158 9.68304 12.4516 9.68304C11.9736 9.68304 11.9736 8.89705 11.2679 8.89705C11.0858 8.89705 10.6988 9.1039 10.4484 9.1039C9.78827 9.1039 9.74275 9.22799 9.44682 9.22799C9.10537 9.22799 8.74115 9.06252 8.74115 8.835C8.74115 8.60748 8.96879 8.44201 9.6517 8.13176C10.5622 7.6974 11.4045 7.38712 11.837 6.49772C13.18 3.76745 16.162 2.89875 17.3002 2.50576C17.7327 2.34029 17.9603 2.19547 18.1652 1.82316C19.0758 0.313239 19.4855 0.147773 19.7359 0.147773C19.9863 0.147773 19.9635 0.540793 20.0773 1.01652C20.2139 1.57498 20.2139 2.00934 21.2155 2.23686C24.0609 2.91942 28.2266 5.29803 28.2266 9.64163C28.2266 13.9852 23.5146 16.7362 23.287 16.9017C22.7634 17.2533 22.5813 17.5429 22.5813 17.8118C22.5813 18.0186 22.7179 18.2461 22.8545 18.4943C23.9926 20.5627 25.9503 21.9072 28.2266 21.9072C30.9355 21.9072 33.0297 19.6113 33.0297 17.2326C33.0297 14.854 31.2769 13.4268 29.7518 12.9925C29.1827 12.827 28.9323 12.8269 28.9323 12.5581C28.9323 12.2478 29.3193 12.3512 29.3193 11.8755C29.3193 11.5239 29.1372 11.6066 29.1372 11.0482C29.1372 10.6552 29.6607 10.5311 29.6607 9.93124C29.6607 9.45551 29.4103 9.29003 29.4103 9.02114C29.4103 8.66952 29.2738 8.71091 29.2738 7.94561C29.2738 7.73877 29.1827 7.59396 29.3648 7.59396C29.5925 7.59396 29.7973 7.86284 30.0705 8.23515C30.6851 9.0625 31.1631 9.70369 31.6412 9.97258C35.0784 11.9582 35.8296 13.22 36.6264 14.9988C36.8085 15.3918 36.9678 16.0743 37.4914 16.3432C37.9239 16.5914 38.8799 16.8603 38.8799 17.1706" fill="white"/>
</svg>
