<svg width="167" height="24" viewBox="0 0 167 24" fill="none" xmlns="http://www.w3.org/2000/svg">
<path d="M166.845 12.1712L161.953 12.1145V15.1355C161.953 19.0217 161.205 21.8725 160.847 22.7235C160.613 22.9646 160.068 23.1065 159.741 23.0214C159.538 22.3406 159.117 20.2273 159.117 16.7099V3.12235C159.117 2.55503 157.357 1.37784 156.702 1.19346C156.531 1.13673 157.092 0.541005 157.263 0.541005C158.603 0.541005 162.124 1.27855 162.046 1.84588C161.984 2.22882 161.953 2.68269 161.953 3.1791V10.9515L165.661 9.61828C165.988 9.50481 167.453 12.1712 166.861 12.1712M156.702 13.6463C157.217 14.2987 155.83 17.0644 155.331 16.412C154.615 15.4901 152.652 12.7669 150.891 10.9515C148.539 13.9442 145.61 16.3553 142.977 17.6318C142.649 17.6034 142.26 17.1637 142.26 16.8942C145.516 14.2561 149.193 9.63243 150.735 5.42002C150.829 5.17891 149.723 4.44138 149.24 4.1719C149.084 4.0868 149.754 3.63297 149.925 3.63297C150.813 3.63297 153.275 4.55485 153.867 4.9378C154.194 5.15055 154.225 5.29238 154.069 5.64696C153.415 7.19293 152.543 8.66797 151.561 10.0296C153.773 11.4195 156.22 13.0222 156.702 13.6463ZM140.873 12.4265L135.95 12.3414V15.1355C135.95 19.0217 135.265 21.8725 134.875 22.7235C134.641 22.9646 134.096 23.1065 133.8 23.0214C133.566 22.3406 133.177 20.2273 133.177 16.7099V3.12235C133.177 2.55503 131.416 1.43458 130.762 1.19346C130.606 1.13673 131.151 0.541005 131.323 0.541005C132.663 0.541005 136.106 1.27855 136.044 1.84588C136.012 2.22882 135.95 2.68269 135.95 3.1791V11.1926L139.674 9.88776C140.032 9.74593 141.497 12.4124 140.873 12.4124M124.873 13.7455C126.244 13.7455 127.256 12.8804 127.256 11.5472C127.256 10.2139 126.306 9.3204 124.873 9.3204C123.439 9.3204 122.489 10.2139 122.489 11.5472C122.489 12.8804 123.439 13.7455 124.873 13.7455ZM120.214 2.4132C120.183 2.29973 120.339 1.93099 120.51 1.94517C121.492 2.11537 122.489 2.27136 123.735 2.4132L126.774 2.71103C127.038 2.7394 128.207 4.20029 127.428 4.20029H122.832C122.053 4.20029 120.261 2.65431 120.199 2.4132M117.161 5.73206C117.13 5.64696 117.317 5.34911 117.394 5.37748C117.909 5.54767 119.731 5.59023 121.461 5.56186L127.677 5.50512C129.469 5.47675 129.999 4.66832 130.279 4.66832C130.575 4.66832 131.712 6.10083 131.712 6.76744C131.712 6.88091 131.588 6.95183 131.385 6.95183C131.089 6.95183 129.36 6.86674 127.989 6.86674L121.305 6.89509C120.23 6.89509 119.513 7.10783 119.186 7.37731C118.345 7.16456 117.301 6.01575 117.192 5.7179M132.008 16.8517C129.329 17.9721 124.187 18.6246 120.666 19.0217C119.716 19.1352 119.139 19.2912 118.578 19.5891C117.675 19.3763 116.366 18.1707 116.242 17.7169C116.273 17.575 116.397 17.4474 116.475 17.3623C117.457 17.3623 118.89 17.3906 120.619 17.3055C121.694 17.2488 122.707 17.1921 123.626 17.1211L123.455 14.7809C121.18 14.4264 119.778 13.2066 119.778 11.5188C119.778 9.675 121.539 8.42689 124.312 8.28505C124.343 8.17159 124.374 8.10064 124.374 7.98718C124.374 7.77443 124.312 7.51916 123.985 7.30641C123.985 6.79582 125.776 7.30641 125.776 7.57589C125.776 7.68936 125.621 8.01557 125.543 8.28505C128.254 8.45525 129.967 9.70337 129.967 11.5188C129.967 13.2066 128.503 14.4264 126.259 14.7809L126.135 16.8942C128.97 16.5964 130.887 16.1851 132.164 15.8021C132.429 15.717 132.32 16.6957 131.993 16.8375M98.0598 3.61877L98.0286 8.15741H104.977L105.149 3.61877H98.0442H98.0598ZM93.5572 2.61178C93.526 2.46995 93.9467 2.01607 94.1492 2.01607C94.6634 2.01607 96.4395 2.07282 97.608 2.2572H104.229C105.071 2.2572 105.507 2.14371 105.834 1.87423C106.192 1.76076 108.514 2.08701 108.467 2.44159L107.486 7.90208C107.906 8.25666 108.467 8.96585 108.467 9.34879C108.467 9.46226 108.343 9.53318 108.14 9.53318C107.844 9.53318 106.738 9.50479 105.071 9.50479H97.7326C97.5457 9.80263 97.312 10.0721 97.0471 10.3558C96.7822 10.5969 96.2993 10.7104 95.9409 10.6253C95.6449 9.97284 95.3956 8.72473 95.1931 6.46961L94.9282 3.64713C94.8971 3.37765 94.0558 2.78198 93.5572 2.61178ZM110.087 21.9009C110.087 22.0143 109.994 22.0853 109.76 22.0853H106.691L97.5612 22.1137C95.0217 22.1137 94.5232 21.3194 94.5232 19.7734V17.4616C94.5232 17.0503 93.5728 16.3411 93.0275 16.2702C92.8561 16.2418 93.4482 15.561 93.6819 15.561C94.7257 15.561 96.2837 15.7738 97.0627 16.0433C97.2185 16.1 97.4522 16.1851 97.3899 16.4829C97.3275 16.8375 97.3275 17.3481 97.3275 17.7878V19.8018C97.3275 20.6386 97.6547 20.752 98.4649 20.752L106.13 20.7237C107.75 20.7237 108.28 19.9011 108.483 19.9011C108.903 19.9011 110.087 21.2627 110.087 21.8867M112.985 13.0931C112.985 13.235 112.861 13.3059 112.658 13.3059H103.201V14.8802C103.201 16.4829 102.547 17.8729 102.095 18.4969C101.861 18.738 101.347 18.8515 101.02 18.7664C100.755 18.0289 100.366 17.0502 100.366 15.2632V13.3059H94.009C92.934 13.3059 92.2173 13.5754 91.8902 13.8448C91.0488 13.6321 89.3506 12.4265 89.3506 12.157C89.3506 12.0436 89.5064 11.7457 89.5843 11.7741C90.0985 11.9443 91.9213 11.9585 93.6507 11.9585L108.28 11.9301C110.134 11.9301 110.757 10.9798 110.991 10.9798C111.318 10.9798 112.985 12.4265 112.985 13.079M71.3091 6.22848C71.3091 7.97301 72.5555 9.13601 74.4407 9.13601C76.3259 9.13601 77.7592 7.97301 77.7592 6.22848C77.7592 4.48394 76.4193 3.32094 74.4719 3.32094C72.5244 3.32094 71.3091 4.49813 71.3091 6.22848ZM68.4736 6.29937C68.4736 3.85987 70.6236 2.22881 73.9421 2.05862C73.9733 1.97352 74.0044 1.90263 74.0044 1.81753C74.0044 1.57641 73.9421 1.30692 73.5526 1.05162C73.5526 0.512662 75.5469 1.05161 75.5469 1.34946C75.5469 1.46292 75.3911 1.78914 75.3132 2.05862C78.4759 2.27136 80.5636 3.90242 80.5636 6.29937C80.5636 8.82398 78.1487 10.4834 74.5342 10.4834C70.9196 10.4834 68.4736 8.82398 68.4736 6.29937ZM86.3281 13.7314C86.3281 13.8449 86.2035 13.9158 86.001 13.9158H79.5197V15.2206C79.5197 18.8941 78.8031 21.7449 78.4136 22.5817C78.1799 22.8228 77.6346 22.9362 77.3385 22.8795C77.1048 22.1987 76.6842 20.0855 76.6842 16.795V13.9158L72.1193 13.9441V14.7667C72.1193 18.4118 71.4026 21.2627 71.0443 22.0995C70.8106 22.3406 70.2653 22.454 69.9381 22.3973C69.7356 21.7165 69.3149 19.6032 69.3149 16.3411V13.9441H67.3518C66.2768 13.9441 65.5602 14.2136 65.233 14.4831C64.3917 14.2703 62.6935 13.0648 62.6935 12.7669C62.6935 12.6818 62.8493 12.384 62.9272 12.4124C63.4413 12.5684 65.2641 12.5967 66.9935 12.5967L81.623 12.54C83.477 12.54 84.1002 11.5897 84.3339 11.5897C84.6611 11.5897 86.3281 13.0506 86.3281 13.703M44.8856 5.13639C44.8856 6.62562 46.1165 7.68934 47.9549 7.68934C49.7933 7.68934 51.0241 6.62562 51.0241 5.13639C51.0241 3.64715 49.7933 2.64013 47.9549 2.64013C46.1165 2.64013 44.8856 3.67552 44.8856 5.13639ZM42.0501 5.24983C42.0501 3.10817 44.1067 1.54804 47.3005 1.36365C47.3317 1.22182 47.394 1.12251 47.394 0.980681C47.394 0.739567 47.3005 0.484285 46.9422 0.243171C46.9422 -0.324157 48.9364 0.243174 48.9364 0.512655C48.9364 0.682853 48.7339 1.05161 48.6092 1.34946C51.772 1.53384 53.8908 3.09397 53.8908 5.23564C53.8908 7.49076 51.4759 9.09346 47.9549 9.09346C44.4338 9.09346 42.0501 7.49076 42.0501 5.23564M56.2122 22.3406C56.2122 22.4824 56.0876 22.5249 55.885 22.5249H44.278C42.2838 22.5249 41.5827 21.9009 41.536 20.4826L41.4737 18.6671C41.4737 18.3976 40.6947 18.0431 40.1961 17.8445C40.1649 17.7027 40.6168 17.2488 40.8505 17.2488C41.4113 17.2488 43.5458 17.3623 44.3092 17.6034H51.8654L51.8966 15.405H44.3404C43.4211 15.405 42.8135 15.6178 42.4863 15.9014C41.4113 15.7596 40.5389 14.4831 40.5233 14.2987C40.4921 14.1569 40.6479 13.8874 40.7881 13.9158C41.7385 14.0718 42.9382 14.0718 44.6675 14.0718H50.8527C51.6941 14.0718 52.1303 13.9867 52.4575 13.6888C52.8158 13.6605 55.1995 13.9016 55.1216 14.2562L54.3738 17.4616C54.9347 17.8445 55.293 18.4969 55.293 18.653C55.293 18.7948 55.1995 18.894 55.0593 18.894C54.7945 18.894 53.0962 18.8657 51.7096 18.8657H44.3092V20.0571C44.3092 20.979 44.6052 21.1634 45.9451 21.1634H52.4886C54.3426 21.1634 54.6075 20.4542 54.81 20.4542C55.2307 20.4542 56.2122 21.7307 56.2122 22.298M59.6086 11.8167C59.6086 11.9301 59.484 12.001 59.2815 12.001H55.0749L40.6479 12.0294C39.6041 12.0294 38.8874 12.2989 38.5602 12.54C37.6877 12.3273 36.1453 11.1501 36.0207 10.8522C35.9895 10.7671 36.1765 10.4693 36.2544 10.4976C36.7685 10.6678 38.5758 10.6962 40.3207 10.6962L54.9191 10.6395C56.7419 10.6395 57.3651 9.68917 57.63 9.68917C57.9572 9.68917 59.5931 11.15 59.5931 11.8025M26.6416 11.7741C26.6416 12.0152 26.4391 12.0152 25.7224 12.2138C25.4264 12.2989 25.2706 12.7244 25.0369 13.4052C24.5227 14.8377 22.8869 17.1495 19.4904 17.1495C16.094 17.1495 14.3023 14.5114 14.1777 14.3696C14.0063 14.1569 13.7259 13.9583 13.4922 13.9583C13.3364 13.9583 13.2273 14.015 13.1338 14.0718C11.903 14.8377 10.5632 15.7029 10.5632 17.6885C10.5632 18.9934 11.7628 20.4826 13.7882 20.4826C15.5176 20.4826 16.6549 18.9933 17.0132 17.958C17.1379 17.6034 17.1067 17.4616 17.3093 17.4616C17.5741 17.4616 17.6676 18.0005 18.0259 18.0005C18.3219 18.0005 18.2285 17.8587 18.618 17.8587C18.9763 17.8587 19.0698 18.2984 19.3658 18.2984C19.7865 18.2984 20.3473 17.9721 20.6278 17.9721C20.7212 17.9721 20.8615 17.9721 20.8615 18.0572C20.8615 18.1991 20.5966 18.3267 20.3473 18.5253C19.8332 18.9366 19.4593 19.1777 19.0698 19.7734C17.6987 21.8867 16.1096 22.2697 15.2994 22.4966C15.0034 22.5817 14.7074 22.7093 14.5828 22.9646C14.131 23.8865 13.8661 24 13.7415 24C13.5857 24 13.5389 23.844 13.5078 23.4894C13.4766 23.1065 13.2429 22.6668 12.4327 22.5391C10.3762 22.1846 7.83668 20.284 7.83668 17.2913C7.83668 14.5965 10.0802 13.547 11.2175 12.5116C11.3733 12.3698 11.4824 12.2138 11.4824 11.9726V11.8876C11.4824 11.7599 11.4512 11.5897 11.2643 11.377C10.1269 10.0721 9.27003 9.20695 7.71204 9.20695C6.01384 9.20695 4.51817 10.4834 4.51817 12.3272C4.51817 14.3129 5.59318 14.9937 6.66819 15.2348C7.02653 15.3199 7.15117 15.3483 7.15117 15.4475C7.15117 15.6603 6.91747 15.6177 6.91747 15.944C6.91747 16.1851 7.12001 16.1567 7.12001 16.5396C7.12001 16.8091 6.85515 16.8942 6.85515 17.3055C6.85515 17.6317 7.02653 17.7452 7.02653 17.9296C7.02653 18.1707 7.18233 18.1423 7.18233 18.6671C7.18233 18.8089 7.24465 18.9082 7.12001 18.9082C6.99537 18.9082 6.85515 18.7239 6.66819 18.4686C6.24753 17.9012 5.79572 17.5467 5.46854 17.3197C2.8667 15.6036 2.77322 14.8518 2.11887 13.6746C1.96307 13.4052 1.91633 12.9371 1.60473 12.8095C0.654356 12.3698 0 12.2421 0 11.533C0 11.2068 0.420658 11.533 1.07501 11.533C1.43335 11.533 1.85401 11.5897 2.05655 10.9089C2.50836 9.46222 4.37795 7.15037 7.6653 7.15037C11.1552 7.15037 12.8846 9.78848 13.0092 9.93031C13.2429 10.2282 13.461 10.3416 13.6947 10.3416C13.8505 10.3416 13.9596 10.3416 14.2244 10.1289C16.4368 8.34177 16.6082 7.54753 16.6082 6.51216C16.6082 5.2073 15.4708 3.68967 13.4454 3.68967C11.4201 3.68967 10.4541 5.15057 10.1892 6.24267C10.0958 6.59725 10.0334 6.78164 9.86207 6.78164C9.59721 6.78164 9.59721 6.45541 9.30119 6.45541C8.81822 6.45541 8.77148 6.6398 8.5222 6.6398C8.19502 6.6398 8.19502 6.10083 7.71204 6.10083C7.5874 6.10083 7.32255 6.24267 7.15117 6.24267C6.69935 6.24267 6.66819 6.32777 6.46565 6.32777C6.23196 6.32777 5.98268 6.2143 5.98268 6.05828C5.98268 5.90227 6.13848 5.78881 6.60587 5.57606C7.22907 5.27821 7.80552 5.06545 8.10154 4.45558C9.02075 2.5834 11.0617 1.98771 11.8407 1.71823C12.1367 1.60477 12.2925 1.50546 12.4327 1.25016C13.0559 0.214792 13.3364 0.10133 13.5078 0.10133C13.6791 0.10133 13.6636 0.37083 13.7415 0.697043C13.8349 1.07999 13.8349 1.37783 14.5205 1.53385C16.4679 2.00189 19.3191 3.63294 19.3191 6.61141C19.3191 9.58987 16.094 11.4762 15.9382 11.5897C15.5799 11.8308 15.4552 12.0294 15.4552 12.2138C15.4552 12.3556 15.5487 12.5116 15.6422 12.6818C16.4212 14.1001 17.7611 15.0221 19.3191 15.0221C21.1731 15.0221 22.6064 13.4477 22.6064 11.8167C22.6064 10.1856 21.4068 9.20696 20.3629 8.90912C19.9734 8.79565 19.802 8.79562 19.802 8.61124C19.802 8.39849 20.0669 8.46943 20.0669 8.14321C20.0669 7.9021 19.9423 7.95884 19.9423 7.57589C19.9423 7.30641 20.3006 7.2213 20.3006 6.80999C20.3006 6.48378 20.1292 6.37031 20.1292 6.18593C20.1292 5.94481 20.0357 5.9732 20.0357 5.44842C20.0357 5.30659 19.9734 5.20728 20.098 5.20728C20.2538 5.20728 20.3941 5.39166 20.581 5.64696C21.0017 6.21429 21.3289 6.65396 21.656 6.83834C24.0086 8.19993 24.5227 9.06513 25.068 10.2849C25.1927 10.5544 25.3017 11.0224 25.6601 11.2068C25.9561 11.377 26.6104 11.5614 26.6104 11.7741" fill="white"/>
</svg>
