<svg width="178" height="59" viewBox="0 0 178 59" fill="none" xmlns="http://www.w3.org/2000/svg">
<g clip-path="url(#clip0_17_506)">
<path d="M52.0698 44.8621C50.8535 44.4279 50.6231 44.1384 50.6231 43.6403C50.6231 43.1422 50.973 42.7463 51.8052 42.7463C52.4155 42.7463 52.8209 42.9464 53.2648 43.3125L53.7001 42.7804C53.1879 42.3717 52.6673 42.1333 51.8479 42.1333C50.7127 42.1333 49.9445 42.7123 49.9445 43.6829C49.9445 44.5599 50.3884 44.9856 51.7028 45.4539C52.8167 45.8541 53.1538 46.1733 53.1538 46.7353C53.1538 47.3781 52.6502 47.7783 51.8436 47.7783C51.2163 47.7783 50.6871 47.4888 50.2262 47.0503L49.7781 47.5527C50.2561 48.038 50.9944 48.3956 51.8223 48.3956C53.0898 48.3956 53.8366 47.6548 53.8366 46.7055C53.8366 45.7561 53.4227 45.3517 52.0741 44.8664L52.0698 44.8621Z" fill="white"/>
<path d="M56.5935 43.653C56.0003 43.653 55.4626 43.7978 55.0614 44.0149L55.309 44.5428C55.6802 44.3257 56.0729 44.1937 56.5508 44.1937C57.2166 44.1937 57.5409 44.5215 57.5409 45.2027V45.7391C57.2721 45.5901 56.8581 45.4751 56.4015 45.4751C55.501 45.4751 54.656 45.9093 54.656 46.9311C54.656 48.0294 55.4028 48.387 56.1113 48.387C56.7685 48.387 57.2166 48.0805 57.5409 47.7357V48.2934H58.1896V45.1175C58.1896 44.0617 57.5751 43.6445 56.5935 43.6445V43.653ZM57.5367 47.1822C57.2593 47.5611 56.8154 47.8634 56.2265 47.8634C55.6674 47.8634 55.2919 47.5696 55.2919 46.8927C55.2919 46.3223 55.693 45.9987 56.3631 45.9987C56.9179 45.9987 57.2379 46.1009 57.5367 46.2627V47.1865V47.1822Z" fill="white"/>
<path d="M64.7362 45.6329V48.2979H65.3849V45.5265C65.3849 44.1982 64.8045 43.6533 63.8742 43.6533C63.1316 43.6533 62.7603 43.9982 62.4914 44.4324C62.2738 43.9982 61.8854 43.6533 61.241 43.6533C60.7033 43.6533 60.3192 43.913 60.0845 44.3047V43.7512H59.4272V48.3021H60.0845V45.6372C60.0845 44.6282 60.4728 44.2153 61.1002 44.2153C61.7275 44.2153 62.0817 44.5942 62.0817 45.6372V48.3021H62.7347V45.6372C62.7347 44.6282 63.1316 44.2153 63.7504 44.2153C64.4076 44.2153 64.7319 44.5942 64.7319 45.6372L64.7362 45.6329Z" fill="white"/>
<path d="M68.001 45.6498C67.2286 45.3007 66.9981 45.1517 66.9981 44.7643C66.9981 44.4322 67.2712 44.2024 67.7535 44.2024C68.2357 44.2024 68.5345 44.3301 68.8887 44.611L69.2514 44.13C68.9058 43.8448 68.4193 43.6489 67.7962 43.6489C66.964 43.6489 66.3708 44.1172 66.3708 44.8069C66.3708 45.5348 66.7506 45.8116 67.6681 46.2032C68.4747 46.5481 68.7436 46.7567 68.7436 47.1313C68.7436 47.574 68.4491 47.8337 67.8218 47.8337C67.3694 47.8337 66.9426 47.6507 66.5799 47.3314L66.1958 47.8039C66.6311 48.153 67.1774 48.3871 67.8047 48.3871C68.5942 48.3871 69.3667 47.9997 69.3667 47.1015C69.3667 46.2884 68.8631 46.0372 67.9968 45.6455L68.001 45.6498Z" fill="white"/>
<path d="M73.1734 46.4073C73.1734 47.4035 72.6741 47.8249 72.0468 47.8249C71.3127 47.8249 70.967 47.3865 70.967 46.4073V43.7466H70.3184V46.518C70.3184 47.8249 70.9542 48.3911 71.9145 48.3911C72.4906 48.3911 72.9131 48.1229 73.1734 47.7398V48.2975H73.8264V43.7466H73.1734V46.4073Z" fill="white"/>
<path d="M78.4354 48.2979V45.5265C78.4354 44.2153 77.7995 43.6533 76.835 43.6533C76.2631 43.6533 75.8364 43.9215 75.5803 44.3047V43.7512H74.9231V48.3021H75.5803V45.6372C75.5803 44.641 76.0711 44.2153 76.7027 44.2153C77.4325 44.2153 77.7824 44.658 77.7824 45.6372V48.3021H78.4354V48.2979Z" fill="white"/>
<path d="M80.4882 49.4727L80.6973 49.9666C82.3916 49.9155 83.0061 49.2556 83.0061 47.8848V43.7426H82.3532V44.2534C82.0331 43.8873 81.6405 43.6489 81.0686 43.6489C80.1127 43.6489 79.3445 44.4791 79.3445 46.0925C79.3445 47.706 80.07 48.3871 80.979 48.3871C81.5978 48.3871 82.0331 48.0806 82.3532 47.7358V47.9699C82.3532 49.03 82.0075 49.4302 80.4839 49.4685L80.4882 49.4727ZM81.1497 47.8252C80.4285 47.8252 79.9932 47.2292 79.9932 46.084C79.9932 44.8622 80.3645 44.2109 81.1241 44.2109C81.6661 44.2109 82.1057 44.5131 82.3575 44.892V47.1696C82.0374 47.5698 81.6362 47.8252 81.1497 47.8252Z" fill="white"/>
<path d="M90.2015 45.2198C90.2015 43.1381 89.0236 42.2271 87.4275 42.2271H85.8186V48.2978H87.308C88.934 48.2978 90.2015 47.4208 90.2015 45.2198ZM86.4972 42.8401H87.3763C88.7761 42.8401 89.5229 43.6915 89.5229 45.2411C89.5229 46.9866 88.7035 47.6805 87.3934 47.6805H86.4972V42.8401Z" fill="white"/>
<path d="M91.9384 44.3086V43.7466H91.2854V48.2975H91.9384V45.624C91.9384 44.7556 92.2968 44.249 92.9327 44.249C93.2357 44.249 93.432 44.3171 93.6155 44.4235L93.7777 43.7679C93.6241 43.6998 93.4064 43.6572 93.065 43.6572C92.5742 43.6572 92.1432 43.951 91.9384 44.3128V44.3086Z" fill="white"/>
<path d="M97.6785 47.8633L97.3712 47.395C96.9529 47.6717 96.6414 47.8292 96.1079 47.8292C95.3654 47.8292 94.9002 47.212 94.8405 46.2456H97.879C97.9004 46.1391 97.9089 46.0455 97.9089 45.8922C97.9089 44.5938 97.2602 43.6572 96.0695 43.6572C94.9856 43.6572 94.1875 44.5555 94.1875 45.9987C94.1875 47.7909 95.2032 48.3954 96.0397 48.3954C96.7268 48.3954 97.1279 48.2124 97.6785 47.8676V47.8633ZM96.0695 44.2149C96.8676 44.2149 97.2517 44.8322 97.3029 45.7134H94.8405C94.9173 44.696 95.391 44.2149 96.0695 44.2149Z" fill="white"/>
<path d="M100.085 48.3914C100.738 48.3914 101.186 48.0849 101.506 47.7401V48.2977H102.159V45.1219C102.159 44.0661 101.545 43.6489 100.563 43.6489C99.97 43.6489 99.4323 43.7937 99.0312 44.0108L99.2744 44.5387C99.65 44.3216 100.038 44.1896 100.516 44.1896C101.186 44.1896 101.506 44.5174 101.506 45.1985V45.7349C101.238 45.5859 100.828 45.471 100.371 45.471C99.4665 45.471 98.6172 45.9052 98.6172 46.9269C98.6172 48.0253 99.3683 48.3829 100.081 48.3829L100.085 48.3914ZM100.337 45.9946C100.892 45.9946 101.216 46.0968 101.511 46.2586V47.1824C101.233 47.5613 100.789 47.8635 100.2 47.8635C99.6457 47.8635 99.2659 47.5698 99.2659 46.8929C99.2659 46.3224 99.6713 45.9989 100.337 45.9989V45.9946Z" fill="white"/>
<path d="M108.706 45.6329V48.2979H109.359V45.5265C109.359 44.1982 108.779 43.6533 107.848 43.6533C107.11 43.6533 106.734 43.9982 106.47 44.4324C106.252 43.9982 105.864 43.6533 105.219 43.6533C104.677 43.6533 104.297 43.913 104.063 44.3047V43.7512H103.414V48.3021H104.063V45.6372C104.063 44.6282 104.455 44.2153 105.083 44.2153C105.71 44.2153 106.069 44.5942 106.069 45.6372V48.3021H106.717V45.6372C106.717 44.6282 107.114 44.2153 107.737 44.2153C108.394 44.2153 108.719 44.5942 108.719 45.6372L108.706 45.6329Z" fill="white"/>
<path d="M52.0698 53.8911C50.8493 53.4569 50.6273 53.1716 50.6273 52.6693C50.6273 52.1669 50.9773 51.7795 51.8095 51.7795C52.4198 51.7795 52.8295 51.9754 53.269 52.3415L53.7043 51.8136C53.1922 51.4092 52.6673 51.1665 51.8522 51.1665C50.7127 51.1665 49.9488 51.737 49.9488 52.7161C49.9488 53.5931 50.3926 54.0145 51.7071 54.4828C52.8209 54.8873 53.1581 55.2023 53.1581 55.7685C53.1581 56.4071 52.6545 56.8072 51.8436 56.8072C51.2163 56.8072 50.6871 56.5178 50.2262 56.0793L49.7781 56.5816C50.2561 57.0669 50.9944 57.4203 51.8223 57.4203C53.0898 57.4203 53.8324 56.6838 53.8324 55.7302C53.8324 54.7766 53.4184 54.3764 52.0741 53.8911H52.0698Z" fill="white"/>
<path d="M56.602 53.2439C57.0629 53.2439 57.3659 53.4057 57.6945 53.7037L58.0871 53.2184C57.7286 52.9034 57.2549 52.6777 56.6446 52.6777C55.6887 52.6777 54.6772 53.3887 54.6772 55.0703C54.6772 56.6582 55.5948 57.416 56.5977 57.416C57.2378 57.416 57.6817 57.1733 58.0658 56.7816L57.6731 56.3687C57.3616 56.671 57.0671 56.8498 56.6233 56.8498C55.8167 56.8498 55.3345 56.1303 55.3345 55.0107C55.3345 53.891 55.885 53.2354 56.5977 53.2354L56.602 53.2439Z" fill="white"/>
<path d="M60.8741 52.682C60.3022 52.682 59.8712 52.9502 59.6108 53.3334V51.1963H58.9622V57.3351H59.6108V54.6701C59.6108 53.674 60.1102 53.2482 60.7418 53.2482C61.4758 53.2482 61.8215 53.6867 61.8215 54.6701V57.3351H62.4744V54.5552C62.4744 53.2482 61.8386 52.682 60.8741 52.682Z" fill="white"/>
<path d="M65.3849 52.6821C64.2753 52.6821 63.3918 53.5123 63.3918 55.0576C63.3918 56.603 64.2411 57.4246 65.3507 57.4246C66.4603 57.4246 67.3522 56.5689 67.3522 55.0236C67.3522 53.4782 66.4944 52.6821 65.3849 52.6821ZM65.372 56.8584C64.5783 56.8584 64.0448 56.2369 64.0448 55.0406C64.0448 53.8443 64.5783 53.2483 65.372 53.2483C66.1658 53.2483 66.6993 53.8443 66.6993 55.0406C66.6993 56.2369 66.1616 56.8584 65.372 56.8584Z" fill="white"/>
<path d="M68.9869 51.1924H68.334V57.3312H68.9869V51.1924Z" fill="white"/>
<path d="M71.9699 52.6821C71.3767 52.6821 70.8389 52.8311 70.442 53.0482L70.6853 53.5804C71.0609 53.3633 71.4535 53.2313 71.9315 53.2313C72.5972 53.2313 72.9216 53.5634 72.9216 54.236V54.7767C72.6527 54.6277 72.243 54.5127 71.7864 54.5127C70.8816 54.5127 70.0366 54.9469 70.0366 55.9729C70.0366 57.0713 70.7835 57.4246 71.4962 57.4246C72.1491 57.4246 72.5972 57.1223 72.9216 56.7775V57.3352H73.5745V54.1636C73.5745 53.0993 72.9557 52.6864 71.9741 52.6864L71.9699 52.6821ZM72.9173 56.2113C72.6442 56.5859 72.1918 56.8925 71.6071 56.8925C71.0523 56.8925 70.6768 56.5987 70.6768 55.9218C70.6768 55.3471 71.0779 55.0321 71.748 55.0321C72.3027 55.0321 72.6228 55.1257 72.9173 55.2918V56.2113Z" fill="white"/>
<path d="M75.4652 53.3422V52.7717H74.8123V57.3269H75.4652V54.6534C75.4652 53.7892 75.8152 53.2741 76.4553 53.2741C76.7626 53.2741 76.9589 53.3422 77.1424 53.4486L77.3088 52.7888C77.1509 52.7207 76.9375 52.6738 76.5961 52.6738C76.1096 52.6738 75.6701 52.9676 75.4695 53.3379L75.4652 53.3422Z" fill="white"/>
<path d="M79.8097 54.683C79.0373 54.3339 78.8026 54.1764 78.8026 53.7975C78.8026 53.4697 79.08 53.2356 79.5579 53.2356C80.0359 53.2356 80.3432 53.3675 80.6974 53.6442L81.0602 53.1674C80.7102 52.8822 80.228 52.6821 79.6006 52.6821C78.7727 52.6821 78.1709 53.1504 78.1709 53.8443C78.1709 54.5383 78.555 54.849 79.4683 55.2364C80.2749 55.5813 80.5438 55.7941 80.5438 56.1645C80.5438 56.6115 80.2493 56.8669 79.6262 56.8669C79.1696 56.8669 78.7471 56.6839 78.3801 56.3646L78.0002 56.8414C78.4355 57.1905 78.9818 57.4204 79.6091 57.4204C80.3987 57.4204 81.1711 57.0287 81.1711 56.1389C81.1711 55.3216 80.6675 55.0747 79.8055 54.683H79.8097Z" fill="white"/>
<path d="M84.1498 52.682C83.5694 52.682 83.1469 52.9502 82.8866 53.3334V51.1963H82.2336V57.3351H82.8866V54.6701C82.8866 53.674 83.3816 53.2482 84.0175 53.2482C84.7473 53.2482 85.093 53.6867 85.093 54.6701V57.3351H85.7459V54.5552C85.7459 53.2482 85.1143 52.682 84.1498 52.682Z" fill="white"/>
<path d="M87.6834 52.7715H87.0347V57.3266H87.6834V52.7715Z" fill="white"/>
<path d="M87.3719 51.0347C87.1073 51.0347 86.8982 51.2433 86.8982 51.5072C86.8982 51.7712 87.1073 51.967 87.3719 51.967C87.6152 51.967 87.8243 51.7541 87.8243 51.5072C87.8243 51.2433 87.6152 51.0347 87.3719 51.0347Z" fill="white"/>
<path d="M91.0249 52.6821C90.4104 52.6821 89.9751 52.9886 89.6508 53.3335V52.7758H88.9978V59.004H89.6508V56.8201C89.9708 57.1819 90.3635 57.4246 90.9396 57.4246C91.8913 57.4246 92.6595 56.5902 92.6595 54.981C92.6595 53.3718 91.934 52.6821 91.0249 52.6821ZM90.8841 56.8584C90.3464 56.8584 89.9026 56.5561 89.6508 56.173V53.8997C89.9708 53.5038 90.372 53.2441 90.8585 53.2441C91.584 53.2441 92.0193 53.8401 92.0193 54.9853C92.0193 56.2071 91.6438 56.8541 90.8884 56.8541L90.8841 56.8584Z" fill="white"/>
<path d="M96.1122 51.8733H99.0056V51.2603H95.4336V57.331H96.1122V54.5H97.7808V53.8869H96.1122V51.8733Z" fill="white"/>
<path d="M100.986 52.6821C99.8762 52.6821 98.9885 53.5123 98.9885 55.0576C98.9885 56.603 99.8421 57.4246 100.952 57.4246C102.061 57.4246 102.953 56.5689 102.953 55.0236C102.953 53.4782 102.104 52.6821 100.986 52.6821ZM100.973 56.8584C100.179 56.8584 99.6543 56.2369 99.6543 55.0406C99.6543 53.8443 100.183 53.2483 100.973 53.2483C101.763 53.2483 102.305 53.8443 102.305 55.0406C102.305 56.2369 101.767 56.8584 100.973 56.8584Z" fill="white"/>
<path d="M106.551 55.4365C106.551 56.4326 106.06 56.8584 105.424 56.8584C104.694 56.8584 104.344 56.4199 104.344 55.4365V52.7715H103.696V55.5472C103.696 56.8541 104.332 57.4203 105.296 57.4203C105.864 57.4203 106.291 57.1564 106.551 56.7732V57.3309H107.208V52.7757H106.551V55.4407V55.4365Z" fill="white"/>
<path d="M110.212 52.682C109.641 52.682 109.214 52.9502 108.953 53.3333V52.7757H108.301V57.3308H108.953V54.6658C108.953 53.6697 109.449 53.2439 110.084 53.2439C110.814 53.2439 111.16 53.6824 111.16 54.6658V57.3308H111.813V54.5509C111.813 53.2439 111.177 52.6777 110.212 52.6777V52.682Z" fill="white"/>
<path d="M115.735 53.2912C115.41 52.925 115.022 52.6781 114.446 52.6781C113.49 52.6781 112.726 53.5083 112.726 55.126C112.726 56.7437 113.447 57.4206 114.361 57.4206C114.979 57.4206 115.41 57.1184 115.731 56.7735V57.3312H116.383V51.1924H115.731V53.2912H115.735ZM115.735 56.2031C115.41 56.599 115.014 56.8587 114.527 56.8587C113.806 56.8587 113.37 56.2627 113.37 55.1175C113.37 53.8914 113.742 53.2443 114.501 53.2443C115.039 53.2443 115.479 53.5466 115.735 53.9297V56.1988V56.2031Z" fill="white"/>
<path d="M119.149 52.6821C118.56 52.6821 118.022 52.8311 117.621 53.0482L117.86 53.5804C118.236 53.3633 118.628 53.2313 119.106 53.2313C119.772 53.2313 120.092 53.5634 120.092 54.236V54.7767C119.823 54.6277 119.414 54.5127 118.953 54.5127C118.052 54.5127 117.207 54.9469 117.207 55.9729C117.207 57.0713 117.958 57.4246 118.671 57.4246C119.324 57.4246 119.772 57.1223 120.092 56.7775V57.3352H120.745V54.1636C120.745 53.0993 120.131 52.6864 119.145 52.6864L119.149 52.6821ZM120.096 56.2113C119.819 56.5859 119.38 56.8925 118.782 56.8925C118.232 56.8925 117.86 56.5987 117.86 55.9218C117.86 55.3471 118.257 55.0321 118.927 55.0321C119.482 55.0321 119.806 55.1257 120.096 55.2918V56.2113Z" fill="white"/>
<path d="M122.828 51.1924H122.17V52.7718H121.607V53.321H122.17V56.3904C122.17 57.1439 122.478 57.4164 123.045 57.4164C123.387 57.4164 123.63 57.3653 123.882 57.2631L123.929 56.7012C123.72 56.7863 123.549 56.8289 123.284 56.8289C122.939 56.8289 122.828 56.6884 122.828 56.284V53.321H123.959V52.7718H122.828V51.1924Z" fill="white"/>
<path d="M125.44 51.0347C125.171 51.0347 124.957 51.2433 124.957 51.5072C124.957 51.7712 125.171 51.967 125.44 51.967C125.683 51.967 125.888 51.7541 125.888 51.5072C125.888 51.2433 125.679 51.0347 125.44 51.0347Z" fill="white"/>
<path d="M125.751 52.7715H125.098V57.3266H125.751V52.7715Z" fill="white"/>
<path d="M128.73 52.6821C127.62 52.6821 126.733 53.5123 126.733 55.0576C126.733 56.603 127.582 57.4246 128.696 57.4246C129.81 57.4246 130.693 56.5689 130.693 55.0236C130.693 53.4782 129.84 52.6821 128.73 52.6821ZM128.713 56.8584C127.923 56.8584 127.39 56.2369 127.39 55.0406C127.39 53.8443 127.923 53.2483 128.713 53.2483C129.502 53.2483 130.044 53.8443 130.044 55.0406C130.044 56.2369 129.507 56.8584 128.713 56.8584Z" fill="white"/>
<path d="M133.548 52.682C132.976 52.682 132.549 52.9502 132.285 53.3333V52.7757H131.632V57.3308H132.285V54.6658C132.285 53.6697 132.78 53.2439 133.416 53.2439C134.145 53.2439 134.495 53.6824 134.495 54.6658V57.3308H135.144V54.5509C135.144 53.2439 134.508 52.6777 133.548 52.6777V52.682Z" fill="white"/>
<path d="M74.8848 30.2769C72.2644 30.2811 70.105 32.3245 70.105 34.8874C70.105 37.4502 72.2644 39.4723 74.8848 39.4808C77.5307 39.4723 79.6688 37.4246 79.6688 34.8874C79.6688 32.3501 77.5307 30.2811 74.8848 30.2769ZM74.8208 37.3778C73.4508 37.3778 72.4181 36.2624 72.4181 34.8874C72.4181 33.5123 73.5234 32.3756 74.889 32.3756C76.2547 32.3756 77.3216 33.491 77.3216 34.8874C77.3216 36.2837 76.2035 37.3778 74.825 37.3778H74.8208Z" fill="white"/>
<path d="M52.9533 27.1054C53.683 27.8248 54.5195 28.4549 55.3431 28.8593L55.4285 28.9061L56.8411 27.2416L56.7045 27.165C55.3645 26.4412 54.3146 25.526 53.6275 24.3723C52.9447 23.2356 52.5948 21.9159 52.5948 20.3365V18.855H50.0683V20.179C50.0683 21.8903 49.68 23.2356 48.9502 24.4148C48.1351 25.7218 46.9273 26.7733 45.3824 27.7482L45.2458 27.8333L46.7779 29.417L46.8633 29.3702C47.7766 28.8763 48.7453 28.1143 49.5861 27.2629C50.3158 26.5179 50.9474 25.7218 51.3315 24.9683C51.7028 25.709 52.2704 26.4625 52.9533 27.1096V27.1054Z" fill="white"/>
<path d="M50.2175 38.391H60.7928V31.1836H50.2175V38.391ZM52.5946 33.2185H58.4157V36.356H52.5946V33.2185Z" fill="white"/>
<path d="M85.4771 38.391H97.435V31.1836H85.4771V38.391ZM87.8285 33.2185H95.0878V36.356H87.8285V33.2185Z" fill="white"/>
<path d="M60.8356 18.4292H58.4841V30.3578H60.8356V25.0789H63.5883V22.9588H60.8356V18.4292Z" fill="white"/>
<path d="M109.589 27.7143C110.362 28.3826 111.245 28.9446 112.077 29.3064L112.163 29.3448L113.435 27.6291L113.298 27.561C112.086 26.9437 111.006 26.1774 110.23 25.2408C109.44 24.2872 108.971 23.1378 108.971 21.7542V21.3498H112.47V19.2979H102.97V21.3498H106.465V21.8436C106.465 23.1038 106.047 24.2787 105.352 25.2962C104.536 26.518 103.346 27.5014 102.189 28.14L102.036 28.2209L103.598 29.8343L103.683 29.7918C104.524 29.315 105.454 28.5955 106.248 27.7866C106.884 27.1225 107.456 26.4201 107.806 25.7177C108.228 26.3988 108.877 27.0799 109.594 27.7143H109.589Z" fill="white"/>
<path d="M126.596 33.2654H135.144V38.3868H137.517V31.2305H126.596V33.2654Z" fill="white"/>
<path d="M132.494 25.0618C132.494 23.9337 131.986 22.8949 131.235 22.1031H133.582V20.0724H129.101V17.8374H126.553V20.0724H121.966V22.1031H124.364C123.63 22.8949 123.122 23.9251 123.122 25.0618C123.122 27.5778 125.2 29.6212 127.799 29.6297C130.398 29.6212 132.49 27.5778 132.494 25.0618ZM125.388 24.9681C125.388 23.5761 126.566 22.3968 127.799 22.3968C129.033 22.3968 130.206 23.5803 130.211 24.9681C130.211 26.339 129.033 27.5224 127.799 27.5267C126.562 27.5224 125.393 26.339 125.388 24.9681Z" fill="white"/>
<path d="M137.517 18.4292H135.17V30.4003H137.517V25.8324H140.278V23.7123H137.517V18.4292Z" fill="white"/>
<path d="M117.6 18.4292H115.252V30.4003H117.6V25.0789H120.357V22.9588H117.6V18.4292Z" fill="white"/>
<path d="M77.7568 21.9797H74.061V24.0785H77.7568V30.7792H80.1083V18.4292H77.7568V21.9797Z" fill="white"/>
<path d="M71.7863 27.4161C72.5203 28.1313 73.3781 28.7614 74.1975 29.1871L74.2871 29.2382L75.6997 27.5736L75.5632 27.497C74.2231 26.7946 73.1946 25.8836 72.5033 24.7469C71.8034 23.6187 71.4534 22.2479 71.4534 20.6685V18.855H68.9227V20.5153C68.9227 22.2267 68.5386 23.5677 67.8259 24.7256C67.015 26.0538 65.7817 27.1139 64.2368 28.0802L64.1045 28.1654L65.6451 29.7533L65.7219 29.7022C66.6309 29.2041 67.5784 28.4847 68.4191 27.663C69.1787 26.9095 69.8104 26.0879 70.1944 25.3003C70.5572 26.0198 71.112 26.752 71.7863 27.4204V27.4161Z" fill="white"/>
<path d="M112.56 30.2769C109.939 30.2811 107.78 32.3245 107.776 34.8874C107.78 37.4246 109.935 39.4723 112.56 39.4808C115.201 39.4723 117.344 37.4246 117.344 34.8874C117.344 32.3501 115.201 30.2811 112.56 30.2769ZM112.491 37.3778C111.126 37.3778 110.084 36.2624 110.084 34.8874C110.084 33.5123 111.186 32.3756 112.56 32.3756C113.934 32.3756 114.988 33.491 114.992 34.8874C114.992 36.2582 113.87 37.3778 112.491 37.3778Z" fill="white"/>
<path d="M88.3407 25.2707H90.6922V19.1787H84.3462V21.2051H88.3407V25.2707Z" fill="white"/>
<path d="M95.3994 25.2707H97.7552V19.1787H91.4092V21.2051H95.3994V25.2707Z" fill="white"/>
<path d="M155.339 23.823H153.363V18.7613H151.139V37.8759H153.363V26.1219H155.339V38.3868H157.643V18.4292H155.339V23.823Z" fill="white"/>
<path d="M147.879 26.4668C147.35 25.3131 147.132 24.0232 147.132 22.4395V21.686H149.799V19.5361H142.049V21.686H144.802V22.4821C144.802 23.9806 144.606 25.2067 144.132 26.3433C143.581 27.6503 142.655 28.8253 141.179 30.0854L141.076 30.179L142.536 31.6222L142.625 31.5541C143.359 31.0134 144.128 30.2301 144.768 29.4213C145.31 28.7401 145.766 28.0334 146.052 27.4119C146.347 28.0164 146.808 28.7103 147.345 29.3574C147.968 30.1152 148.673 30.8346 149.347 31.2646L149.437 31.3242L150.666 29.8597L150.567 29.7703C149.244 28.6209 148.425 27.5949 147.887 26.4625L147.879 26.4668Z" fill="white"/>
<path d="M82.3787 28.1056H90.1842V30.3789H92.732V28.1056H100.661V26.0664H82.3787V28.1056Z" fill="white"/>
<path d="M171.031 27.4546H163.084V21.4222H169.136V19.2979H160.703V29.515H171.031V27.4546Z" fill="white"/>
<path d="M166.537 32.0269H164.16V38.3871H175.277V36.2925H166.537V32.0269Z" fill="white"/>
<path d="M175.222 23.9549V18.4248H172.875V33.1503H175.222V26.0749H178V23.9549H175.222Z" fill="white"/>
<path d="M49.8506 12.2691L43.7606 9.75316L49.8506 7.23717L48.7666 4.63605L42.6809 7.15203L45.2031 1.07706L42.5913 0L40.0734 6.07497L37.5512 0L34.9394 1.07706L37.4616 7.15203L31.3759 4.63605L30.2961 7.23717L36.3818 9.75316L30.2961 12.2691L31.3759 14.8703L37.4616 12.3543L34.9394 18.4293L37.5512 19.5063L40.0734 13.4356L42.5913 19.5063L45.2031 18.425L42.6809 12.3543L48.7666 14.8703L49.8506 12.2691Z" fill="white"/>
<path d="M10.4472 29.2168H14.4973V18.4292H0.648682V22.0648H10.4472V29.2168Z" fill="white"/>
<path d="M26.2461 29.2168H30.2961V18.4292H16.4475V22.0648H26.2461V29.2168Z" fill="white"/>
<path d="M0 34.7982H26.2461V40.3538H30.2961V31.1626H0V34.7982Z" fill="white"/>
<path d="M9.79858 57.3313H30.2962V42.2227H9.79858V57.3313ZM13.8443 45.8625H26.2462V53.7H13.8443V45.8625Z" fill="white"/>
</g>
<defs>
<clipPath id="clip0_17_506">
<rect width="178" height="59" fill="white"/>
</clipPath>
</defs>
</svg>
