<svg width="130" height="43" viewBox="0 0 130 43" fill="none" xmlns="http://www.w3.org/2000/svg">
<g clip-path="url(#clip0_15_237)">
<path d="M103.487 10.5155C103.487 10.8814 103.54 11.2605 103.687 11.6196C104.333 13.2159 105.978 14.2003 108.07 13.3689C108.57 13.1694 122.406 7.60232 122.406 7.60232C122.406 7.60232 116.957 21.3969 116.75 21.909C115.957 23.8845 116.91 25.6736 118.529 26.2722C118.889 26.4053 119.262 26.4718 119.628 26.4651C120.954 26.4585 122.119 25.6803 122.692 24.1239C122.779 23.8911 129.594 5.20789 129.74 4.76226C129.827 4.49621 129.987 3.871 129.987 3.43867C129.987 2.51415 129.647 1.64285 128.987 0.984377C128.341 0.33256 127.475 0 126.563 0C126.116 0 125.757 0.0798144 125.21 0.252746C124.884 0.359165 107.317 6.88399 105.819 7.44269C104.32 8.00139 103.487 9.19861 103.494 10.5155" fill="#ED1C24"/>
<path d="M70.5724 21.0509V20.6519H59.9206V23.3722H66.1092C64.4971 28.467 58.7349 31.4601 58.7349 31.4601L60.2737 33.6084C60.2737 33.6084 70.5724 29.3649 70.5724 21.0443V21.0509Z" fill="white"/>
<path d="M67.2082 39.1158V33.8281H63.4312V39.7876C63.4312 41.6499 64.9167 42.9935 66.9551 42.9935H78.6594V40.2798H68.5272C67.6079 40.2798 67.2216 39.914 67.2016 39.1158H67.2082Z" fill="white"/>
<path d="M70.146 25.6667V28.3871H74.6425V34.9451H78.4196V20.3657H74.6425V25.6667H70.146Z" fill="white"/>
<path d="M102.694 31.2939H106.471V20.2529H102.694V23.6916H98.7573V26.3787H102.694V31.2939Z" fill="white"/>
<path d="M17.9728 33.6216H3.59717V39.7872C3.59717 41.6496 5.08269 42.9931 7.12112 42.9931H18.8121V34.4596C18.8121 33.9941 18.4324 33.6216 17.9728 33.6216ZM15.035 40.2794H8.69325C7.77396 40.2794 7.38092 39.9203 7.3676 39.1155V36.3486H15.035V40.2794Z" fill="white"/>
<path d="M19.0653 20.6918V20.5654H3.39073V23.2858H15.115C15.115 23.4654 15.115 23.6915 15.115 23.911C15.115 26.4384 14.9885 28.1012 14.9219 28.7797H0V31.5H22.989V28.7797H18.2859C18.5124 27.9283 19.072 25.2944 19.072 20.6918H19.0653Z" fill="white"/>
<path d="M42.5406 34.9919C45.6782 34.3068 47.9964 31.9589 47.9964 29.1787C47.9964 27.6822 47.3236 26.312 46.2178 25.2545H50.228V22.5342H42.5406V19.9668H38.7702V22.5342H31.0828V25.2545H35.093C33.9872 26.312 33.3144 27.6755 33.3144 29.1787C33.3144 31.9656 35.6326 34.3068 38.7768 34.9919V37.7454H29.1709V40.4658H52.1532V37.7454H42.5473V34.9919H42.5406ZM37.1914 29.0922C37.1914 27.2366 38.7435 25.7201 40.6487 25.7201C42.5539 25.7201 44.1061 27.2299 44.1061 29.0922C44.1061 30.9546 42.5539 32.4644 40.6487 32.4644C38.7435 32.4644 37.1914 30.9546 37.1914 29.0922Z" fill="white"/>
<path d="M95.4733 31.0608H99.1305C98.9772 30.1762 97.6383 23.0328 94.1543 20.5586H89.9375L86.6934 31.1473H90.4838L92.6421 23.525C94.4607 25.6534 95.3467 30.3625 95.4666 31.0608H95.4733Z" fill="white"/>
<path d="M96.226 40.3727C95.2667 40.3727 95.0935 40.1266 95.0935 39.3151V38.9759H106.478V33.2559C106.478 32.7637 106.118 32.3779 105.605 32.3779H91.3831V34.9985H102.861V36.4019H91.483V39.7874C91.483 41.7495 92.8952 42.9932 95.0069 42.9932H106.725V40.3727H96.226Z" fill="white"/>
</g>
<defs>
<clipPath id="clip0_15_237">
<rect width="130" height="43" fill="white"/>
</clipPath>
</defs>
</svg>
