<?xml version="1.0"?>
<svg xmlns="http://www.w3.org/2000/svg" viewBox="0 0 64 64" width="512" height="512" fill="#fff"><g id="globe-magnify-fine-currency"><path d="M10.5,16h-1a.5.5,0,0,1-.5-.5H7a2.5,2.5,0,0,0,2,2.449V19h2V17.949A2.5,2.5,0,0,0,10.5,13h-1a.5.5,0,0,1,0-1h1a.5.5,0,0,1,.5.5h2a2.5,2.5,0,0,0-2-2.449V9H9v1.051A2.5,2.5,0,0,0,9.5,15h1a.5.5,0,0,1,0,1Z"/><path d="M20.5,48h-1a.5.5,0,0,1-.5-.5H17a2.5,2.5,0,0,0,2,2.449V51h2V49.949A2.5,2.5,0,0,0,20.5,45h-1a.5.5,0,0,1,0-1h1a.5.5,0,0,1,.5.5h2a2.5,2.5,0,0,0-2-2.449V41H19v1.051A2.5,2.5,0,0,0,19.5,47h1a.5.5,0,0,1,0,1Z"/><path d="M60.81,23.63H60.8a15.861,15.861,0,0,0-3.73-8.1,29.953,29.953,0,0,0-42.39-8A7.919,7.919,0,0,0,10,6,7.99,7.99,0,0,0,4.57,19.86,29.656,29.656,0,0,0,2,32,30,30,0,0,0,41.78,60.36,3.994,3.994,0,0,0,49,58V56.71A29.994,29.994,0,0,0,60.81,23.63ZM50.51,11A15.748,15.748,0,0,0,45,10a16.254,16.254,0,0,0-2.62.23,20.081,20.081,0,0,0-4.05-5.5A27.85,27.85,0,0,1,50.51,11ZM33,4.09c2.68.46,5.25,2.75,7.36,6.6A16.042,16.042,0,0,0,33,15.45ZM31,4.1V18.27c-.13.23-.24.48-.36.71a42.606,42.606,0,0,1-9.75-1.27C23.02,10.16,26.76,4.83,31,4.1ZM29.81,31H19.01a53.6,53.6,0,0,1,1.38-11.35,44.578,44.578,0,0,0,9.43,1.31A16.178,16.178,0,0,0,29,26,15.922,15.922,0,0,0,29.81,31ZM25.65,4.73c-2.87,2.61-5.22,6.96-6.74,12.42-.47-.14-.93-.3-1.38-.46a7.978,7.978,0,0,0-1.35-7.77A27.64,27.64,0,0,1,25.65,4.73ZM20,40a6,6,0,1,1-6,6A6,6,0,0,1,20,40ZM4,14a6,6,0,1,1,6,6A6,6,0,0,1,4,14Zm2.23,7.05A7.9,7.9,0,0,0,10,22a7.991,7.991,0,0,0,6.62-3.51c.59.21,1.18.41,1.79.6A56.952,56.952,0,0,0,17.01,31H4.03A27.748,27.748,0,0,1,6.23,21.05ZM10.01,49.3A27.757,27.757,0,0,1,4.03,33h13q.045,2.76.33,5.46a7.944,7.944,0,0,0-5.12,9.45C11.47,48.34,10.73,48.81,10.01,49.3Zm1.29,1.54c.54-.37,1.09-.71,1.66-1.04A8.01,8.01,0,0,0,20,54a8.1,8.1,0,0,0,1.65-.17,20.027,20.027,0,0,0,4.02,5.44A28.028,28.028,0,0,1,11.3,50.84ZM31,59.91c-2.72-.47-5.31-2.81-7.45-6.75A8.014,8.014,0,0,0,28,46a6.339,6.339,0,0,0-.04-.76c1.02-.1,2.03-.17,3.04-.21Zm0-16.88c-1.16.04-2.33.12-3.49.25A8,8,0,0,0,20,38c-.23,0-.45.02-.67.03-.17-1.65-.27-3.33-.3-5.03h11.6c.12.24.24.49.37.73ZM33,59.9V45.02a42.715,42.715,0,0,1,8,.8v6.24C38.81,56.59,35.95,59.38,33,59.9Zm5.36-.66A16.771,16.771,0,0,0,41,56.1V58a3.559,3.559,0,0,0,.05.47A25.694,25.694,0,0,1,38.36,59.24ZM42,43.97a44.952,44.952,0,0,0-9-.95V36.55a15.964,15.964,0,0,0,9,5.16ZM47,58a2,2,0,0,1-4,0V53h4Zm0-7H43V50h4Zm0-3H43V46h4Zm-3-4V41.95c.33.02.66.05,1,.05s.67-.03,1-.05V44Zm1-4A14,14,0,1,1,59,26,14.015,14.015,0,0,1,45,40Zm4,14.25V47.74a30.487,30.487,0,0,1,4.59,2.08A28.334,28.334,0,0,1,49,54.25Zm5.82-6.02A31.606,31.606,0,0,0,49,45.62V45a1,1,0,0,0-1-1V41.71A16.034,16.034,0,0,0,59.98,31.56c.01.15.02.29.02.44A27.922,27.922,0,0,1,54.82,48.23Z"/><path d="M54,18a2.986,2.986,0,0,0-2.7,4.29L48.29,25.3a2.923,2.923,0,0,0-2.58,0L43.7,23.29a3,3,0,1,0-5.04.57l-2.01,3.21A3.5,3.5,0,0,0,36,27a3.027,3.027,0,1,0,2.34,1.14l2.01-3.21A3.5,3.5,0,0,0,41,25a2.98,2.98,0,0,0,1.29-.3l2.01,2.01a3,3,0,1,0,5.4,0l3.01-3.01A3,3,0,1,0,54,18ZM36,31a1,1,0,1,1,1-1A1,1,0,0,1,36,31Zm5-8a1,1,0,1,1,1-1A1,1,0,0,1,41,23Zm6,6a1,1,0,1,1,1-1A1,1,0,0,1,47,29Zm7-7a1,1,0,1,1,1-1A1,1,0,0,1,54,22Z"/></g></svg>
