<svg width="24" height="24" viewBox="0 0 24 24" fill="none" xmlns="http://www.w3.org/2000/svg">
<path d="M5 20.999C4.45 20.999 3.97917 20.8032 3.5875 20.4115C3.19583 20.0199 3 19.549 3 18.999V4.99902C3 4.44902 3.19583 3.97819 3.5875 3.58652C3.97917 3.19486 4.45 2.99902 5 2.99902H12V4.99902H5V18.999H19V11.999H21V18.999C21 19.549 20.8042 20.0199 20.4125 20.4115C20.0208 20.8032 19.55 20.999 19 20.999H5ZM9.7 15.699L8.3 14.299L17.6 4.99902H14V2.99902H21V9.99902H19V6.39902L9.7 15.699Z" fill="#D9D9D9"/>
</svg>
