<svg height="512" viewBox="0 0 64 64" width="512" xmlns="http://www.w3.org/2000/svg" fill="#fff"><path d="m38.832 17.555 1.323-1.986 1.138 1.138a1 1 0 0 0 1.414 0l1.138-1.138 1.323 1.986a1 1 0 0 0 .832.445h2v-2h-1.465l-1.7-2.555a1 1 0 0 0 -1.539-.152l-1.296 1.293-1.293-1.293a1.01 1.01 0 0 0 -.806-.288 1 1 0 0 0 -.733.44l-1.703 2.555h-1.465v2h2a1 1 0 0 0 .832-.445z"/><path d="m41 2h2v2h-2z"/><path d="m34.5 3.742h1.999v1.999h-1.999z" transform="matrix(.866 -.5 .5 .866 2.387 18.39)"/><path d="m29.742 8.5h2v2h-2z" transform="matrix(.5 -.866 .866 .5 7.146 31.375)"/><path d="m28 15h2v2h-2z"/><path d="m29.742 21.5h2v2h-2z" transform="matrix(.866 -.5 .5 .866 -7.131 18.382)"/><path d="m52.258 21.5h2v2h-2z" transform="matrix(.5 -.866 .866 .5 7.147 57.377)"/><path d="m54 15h2v2h-2z"/><path d="m52.258 8.5h2v2h-2z" transform="matrix(.866 -.5 .5 .866 2.384 27.897)"/><path d="m47.5 3.742h1.999v1.999h-1.999z" transform="matrix(.5 -.866 .866 .5 20.138 44.369)"/><path d="m61 12h-9.833a10.007 10.007 0 0 0 -9.458-6 10.149 10.149 0 0 0 -8.849 6h-9.86a1 1 0 0 0 -1 1v16.758l-.126.127a9.247 9.247 0 0 0 -.874-.363v-3.522a1 1 0 0 0 -1-1h-4a1 1 0 0 0 -1 1v3.522a9.247 9.247 0 0 0 -.874.363l-2.49-2.491a1 1 0 0 0 -1.414 0l-2.828 2.828a.985.985 0 0 0 -.28.778h-4.114a1 1 0 0 0 -1 1v22a1 1 0 0 0 1 1h2v5a1 1 0 0 0 1.555.832l8.745-5.832h17.7a1 1 0 0 0 1-1v-14h11.586l9.707 9.707a1 1 0 0 0 .707.293.987.987 0 0 0 .383-.076 1 1 0 0 0 .617-.924v-9h4a1 1 0 0 0 1-1v-26a1 1 0 0 0 -1-1zm-19.234-4h.236a8 8 0 0 1 2.665 15.534 1 1 0 0 0 -.667.943v.523h-4v-.523a1 1 0 0 0 -.667-.943 7.975 7.975 0 0 1 -5.333-7.791 8.1 8.1 0 0 1 7.766-7.743zm-1.766 19h4v2a2 2 0 0 1 -4 0zm-29.071 2.515 2.306 2.306a1 1 0 0 0 1.216.155 7 7 0 0 1 1.8-.747 1 1 0 0 0 .75-.967v-3.262h2v3.262a1 1 0 0 0 .75.967 7 7 0 0 1 1.8.747 1.006 1.006 0 0 0 1.216-.155l2.306-2.306 1.414 1.414-2.306 2.306a1 1 0 0 0 -.154 1.216 6.982 6.982 0 0 1 .745 1.8 1 1 0 0 0 .968.75h3.26v2h-3.262a1 1 0 0 0 -.968.75 7 7 0 0 1 -.745 1.8 1 1 0 0 0 .154 1.216l2.306 2.306-1.414 1.414-2.306-2.306a1 1 0 0 0 -1.216-.155 7 7 0 0 1 -1.8.747 1 1 0 0 0 -.75.967v3.26h-1.999v-3.262a1 1 0 0 0 -.75-.967 7 7 0 0 1 -1.8-.747 1 1 0 0 0 -1.216.155l-2.306 2.306-1.413-1.414 2.306-2.306a1 1 0 0 0 .154-1.216 7 7 0 0 1 -.745-1.8 1 1 0 0 0 -.968-.75h-3.262v-1.999h3.262a1 1 0 0 0 .968-.75 6.982 6.982 0 0 1 .745-1.8 1 1 0 0 0 -.154-1.216l-2.306-2.305zm21.071 23.485h-17a1.006 1.006 0 0 0 -.555.168l-7.445 4.964v-4.132a1 1 0 0 0 -1-1h-2v-20h4.758l1.126 1.126a9.285 9.285 0 0 0 -.362.874h-3.522a1 1 0 0 0 -1 1v4a1 1 0 0 0 1 1h3.522a9.266 9.266 0 0 0 .362.873l-2.49 2.491a1 1 0 0 0 0 1.414l2.828 2.828a1 1 0 0 0 1.414 0l2.49-2.491a9.247 9.247 0 0 0 .874.363v3.522a1 1 0 0 0 1 1h4a1 1 0 0 0 1-1v-3.522a9.247 9.247 0 0 0 .874-.363l2.49 2.491a1 1 0 0 0 1.414 0l2.828-2.828a1 1 0 0 0 0-1.414l-2.49-2.491a9.266 9.266 0 0 0 .362-.873h3.522a1 1 0 0 0 1-1v-4a1 1 0 0 0 -1-1h-3.522a9.285 9.285 0 0 0 -.362-.874l1.126-1.126h4.758zm28-15h-4a1 1 0 0 0 -1 1v7.586l-8.293-8.293a1 1 0 0 0 -.707-.293h-12v-6a1 1 0 0 0 -1-1h-4.114a.985.985 0 0 0 -.28-.778l-2.828-2.828a1 1 0 0 0 -1.414 0l-.364.364v-13.758h8.216a9.553 9.553 0 0 0 -.211 1.681 9.957 9.957 0 0 0 5.668 9.319h-1.673v2h2v2a4 4 0 0 0 8 0v-2h2v-2h-1.7a10 10 0 0 0 5.7-9 10.131 10.131 0 0 0 -.2-2h8.2z"/><path d="m18 43a5 5 0 1 0 -5-5 5.006 5.006 0 0 0 5 5zm0-8a3 3 0 1 1 -3 3 3 3 0 0 1 3-3z"/></svg>