<?xml version="1.0" encoding="UTF-8"?>
<svg xmlns="http://www.w3.org/2000/svg" id="Growth_Marketing" data-name="Growth Marketing" viewBox="0 0 64 64" width="512" height="512" fill="#fff"><path d="M61.6,2.2a1.017,1.017,0,0,0-.89-.16l-23,7a1.02,1.02,0,0,0-.71.9,1,1,0,0,0,.59.97l7.79,3.47L31.97,30.48l-2.34-2.57A.958.958,0,0,0,30,28a1.014,1.014,0,0,0,.53-.15A1,1,0,0,0,31,27V19h.5a4.5,4.5,0,0,0,0-9H31V3a1,1,0,0,0-1.45-.89L17.76,8H9a7.016,7.016,0,0,0-7,7,6.961,6.961,0,0,0,4,6.3V30a1,1,0,0,0,1,1h5a1,1,0,0,0,1-1V22h4.76l1.91.95L2.14,52.49A1,1,0,0,0,2,53v8a1,1,0,0,0,1,1H57a1,1,0,0,0,1-1V25.04l2.24,2.61A1,1,0,0,0,62,27V3A.985.985,0,0,0,61.6,2.2ZM31,12h.5a2.5,2.5,0,0,1,0,5H31ZM11,29H8V21.93A6.632,6.632,0,0,0,9,22h2Zm6-9H9a5.01,5.01,0,0,1-5-5,5,5,0,0,1,5-5h8Zm2,.38V9.62l10-5V25.38ZM16,60H11.65L16,51.63Zm10,0H18V47.78l5.26-10.11L26,40.41Zm10,0H28V42.41l4.29,4.3a.951.951,0,0,0,.75.29,1,1,0,0,0,.72-.35L36,44Zm10,0H38V41.64l8-9.46Zm10,0H48V29.82l7-8.28,1,1.16Zm4-35.7-4.24-4.95A1.011,1.011,0,0,0,55,19a.909.909,0,0,0-.76.35L32.94,44.52l-9.23-9.23a1.005,1.005,0,0,0-1.6.25L9.39,60H4V53.27L21.47,23.85l3.24,1.62,6.55,7.2a1,1,0,0,0,1.51-.03l15-18a1,1,0,0,0,.2-.87.987.987,0,0,0-.56-.68l-6.55-2.91L60,4.35Z"/></svg>
