<svg width="852" height="284" viewBox="0 0 852 284" fill="none" xmlns="http://www.w3.org/2000/svg">
<circle cx="46.5" cy="142.5" r="45" fill="#F7F7F7" stroke="#01875F" stroke-width="3"/>
<circle cx="803.5" cy="190.5" r="45" fill="#F7F7F7" stroke="#01875F" stroke-width="3"/>
<circle cx="805.5" cy="63.5" r="45" fill="#F7F7F7" stroke="#01875F" stroke-width="3"/>
<rect x="163" y="69" width="230" height="146" fill="#01875F"/>
<rect x="163.5" y="0.5" width="229" height="42" fill="#F7F7F7" stroke="#01875F"/>
<rect x="164.5" y="241.5" width="229" height="42" fill="#F7F7F7" stroke="#01875F"/>
<rect x="426.5" y="0.5" width="244" height="42" fill="#F7F7F7" stroke="#01875F"/>
<rect x="426" y="69" width="115" height="146" fill="#01875F"/>
<rect x="574" y="69" width="115" height="146" fill="#01875F"/>
<path d="M251.799 23.9121C253.029 23.9121 254.094 24.0456 254.992 24.3125C255.897 24.5794 256.59 24.9733 257.072 25.4941C257.554 26.0085 257.795 26.6237 257.795 27.3398C257.795 28.0625 257.554 28.6842 257.072 29.2051C256.59 29.7259 255.897 30.123 254.992 30.3965C254.094 30.6764 253.029 30.8197 251.799 30.8262C250.549 30.8197 249.465 30.6764 248.547 30.3965C247.635 30.123 246.932 29.7259 246.438 29.2051C245.949 28.6842 245.705 28.0625 245.705 27.3398C245.705 26.6237 245.949 26.0085 246.438 25.4941C246.932 24.9733 247.635 24.5794 248.547 24.3125C249.465 24.0456 250.549 23.9121 251.799 23.9121ZM251.799 25.8359C251.018 25.8359 250.36 25.8913 249.826 26.002C249.292 26.1126 248.889 26.2786 248.615 26.5C248.342 26.7214 248.208 27.0013 248.215 27.3398C248.208 27.6784 248.342 27.9616 248.615 28.1895C248.895 28.4108 249.302 28.5833 249.836 28.707C250.37 28.8242 251.024 28.8828 251.799 28.8828C252.574 28.8828 253.221 28.8242 253.742 28.707C254.27 28.5833 254.667 28.4108 254.934 28.1895C255.207 27.9616 255.344 27.6784 255.344 27.3398C255.344 27.0013 255.207 26.7214 254.934 26.5C254.667 26.2786 254.27 26.1126 253.742 26.002C253.221 25.8913 252.574 25.8359 251.799 25.8359ZM257.629 23.502H255.139V13.0039H257.629V23.502ZM260.031 19.2344H256.926V17.1543H260.031V19.2344ZM246.525 16.3926H250.168V14.1465H252.668V22.4863H244.055V14.1465H246.525V16.3926ZM250.168 20.5332V18.3164H246.525V20.5332H250.168ZM277.053 23.7949H260.803V21.8027H277.053V23.7949ZM270.373 26.8613H267.912V23.0527H270.373V26.8613ZM274.982 20.3477H262.824V13.8047H274.982V20.3477ZM265.266 18.4043H272.531V15.7285H265.266V18.4043ZM275.266 30.4941H262.697V28.4824H275.266V30.4941ZM265.197 29.1465H262.697V25.3086H265.197V29.1465ZM294.357 28.7266H278.107V26.7051H294.357V28.7266ZM287.473 27.291H284.963V22.75H287.473V27.291ZM286.994 16.002C286.994 17.252 286.701 18.3978 286.115 19.4395C285.536 20.4746 284.696 21.347 283.596 22.0566C282.495 22.7663 281.206 23.2578 279.729 23.5312L278.752 21.5586C280.015 21.3568 281.109 20.9759 282.033 20.416C282.964 19.8561 283.671 19.1953 284.152 18.4336C284.641 17.6654 284.885 16.8548 284.885 16.002V15.3574H286.994V16.002ZM287.502 16.002C287.502 16.8548 287.746 17.6589 288.234 18.4141C288.729 19.1693 289.449 19.8203 290.393 20.3672C291.337 20.9076 292.46 21.2721 293.762 21.4609L292.785 23.4238C291.275 23.1634 289.963 22.6849 288.85 21.9883C287.743 21.2917 286.89 20.4323 286.291 19.4102C285.699 18.388 285.406 17.252 285.412 16.002V15.3574H287.502V16.002ZM292.941 16.3926H279.445V14.3711H292.941V16.3926ZM301.457 17.0371C301.451 18.541 301.265 19.957 300.9 21.2852C300.542 22.6068 299.992 23.7819 299.25 24.8105C298.514 25.8327 297.606 26.6107 296.525 27.1445L294.992 25.123C295.969 24.6803 296.789 24.0358 297.453 23.1895C298.117 22.3431 298.612 21.3958 298.938 20.3477C299.263 19.293 299.429 18.1895 299.436 17.0371V14.3809H301.457V17.0371ZM301.916 17.0371C301.916 18.1439 302.072 19.2018 302.385 20.2109C302.697 21.2201 303.166 22.1315 303.791 22.9453C304.423 23.7526 305.201 24.3776 306.125 24.8203L304.621 26.8027C303.579 26.2884 302.707 25.5365 302.004 24.5469C301.307 23.5573 300.786 22.4245 300.441 21.1484C300.096 19.8724 299.927 18.502 299.934 17.0371V14.3809H301.916V17.0371ZM309.406 30.7969H306.906V13.0039H309.406V30.7969ZM312.043 21.9883H308.859V19.8691H312.043V21.9883Z" fill="#1D1D1D"/>
<path d="M222.289 255.205C223.214 255.205 224.05 255.394 224.799 255.771C225.554 256.143 226.143 256.66 226.566 257.324C226.996 257.988 227.211 258.737 227.211 259.57C227.211 260.41 226.996 261.162 226.566 261.826C226.143 262.484 225.554 263.001 224.799 263.379C224.05 263.75 223.214 263.936 222.289 263.936C221.358 263.936 220.515 263.75 219.76 263.379C219.011 263.001 218.422 262.484 217.992 261.826C217.562 261.162 217.348 260.41 217.348 259.57C217.348 258.737 217.562 257.988 217.992 257.324C218.422 256.66 219.011 256.143 219.76 255.771C220.515 255.394 221.358 255.205 222.289 255.205ZM222.289 257.354C221.814 257.36 221.391 257.451 221.02 257.627C220.648 257.796 220.355 258.05 220.141 258.389C219.926 258.727 219.818 259.121 219.818 259.57C219.818 260.033 219.926 260.43 220.141 260.762C220.355 261.087 220.648 261.338 221.02 261.514C221.391 261.689 221.814 261.781 222.289 261.787C222.764 261.781 223.191 261.689 223.568 261.514C223.952 261.338 224.249 261.087 224.457 260.762C224.672 260.43 224.779 260.033 224.779 259.57C224.779 259.121 224.672 258.727 224.457 258.389C224.249 258.05 223.952 257.796 223.568 257.627C223.191 257.451 222.764 257.36 222.289 257.354ZM231.459 271.846H228.988V254.004H231.459V271.846ZM216.605 266.182C218.728 266.182 220.73 266.146 222.611 266.074C224.499 266.003 226.29 265.85 227.982 265.615L228.158 267.402C226.941 267.643 225.678 267.822 224.369 267.939C223.061 268.05 221.827 268.122 220.668 268.154C219.509 268.187 218.253 268.203 216.898 268.203L216.605 266.182ZM239.887 258.037C239.88 259.541 239.695 260.957 239.33 262.285C238.972 263.607 238.422 264.782 237.68 265.811C236.944 266.833 236.036 267.611 234.955 268.145L233.422 266.123C234.398 265.68 235.219 265.036 235.883 264.189C236.547 263.343 237.042 262.396 237.367 261.348C237.693 260.293 237.859 259.189 237.865 258.037V255.381H239.887V258.037ZM240.346 258.037C240.346 259.144 240.502 260.202 240.814 261.211C241.127 262.22 241.596 263.132 242.221 263.945C242.852 264.753 243.63 265.378 244.555 265.82L243.051 267.803C242.009 267.288 241.137 266.536 240.434 265.547C239.737 264.557 239.216 263.424 238.871 262.148C238.526 260.872 238.357 259.502 238.363 258.037V255.381H240.346V258.037ZM247.836 271.797H245.336V254.004H247.836V271.797ZM250.473 262.988H247.289V260.869H250.473V262.988ZM267.357 269.678H251.107V267.686H267.357V269.678ZM260.375 268.213H257.895V263.652H260.375V268.213ZM259.984 256.309C259.984 257.578 259.682 258.763 259.076 259.863C258.477 260.957 257.615 261.888 256.488 262.656C255.368 263.424 254.057 263.949 252.553 264.229L251.479 262.148C252.774 261.947 253.9 261.546 254.857 260.947C255.814 260.342 256.54 259.635 257.035 258.828C257.536 258.014 257.79 257.174 257.797 256.309V255.049H259.984V256.309ZM260.443 256.309C260.443 257.181 260.694 258.024 261.195 258.838C261.703 259.645 262.436 260.348 263.393 260.947C264.356 261.546 265.492 261.947 266.801 262.148L265.736 264.229C264.226 263.949 262.908 263.431 261.781 262.676C260.655 261.914 259.789 260.986 259.184 259.893C258.578 258.792 258.279 257.598 258.285 256.309V255.049H260.443V256.309ZM283.354 267.139H280.883V254.043H283.354V267.139ZM277.943 255.361C277.937 256.943 277.608 258.385 276.957 259.688C276.306 260.99 275.359 262.113 274.115 263.057C272.878 263.994 271.397 264.723 269.672 265.244L268.617 263.301C270.017 262.858 271.218 262.298 272.221 261.621C273.223 260.938 273.985 260.16 274.506 259.287C275.033 258.415 275.3 257.48 275.307 256.484V255.361H277.943ZM276.84 257.363H269.564V255.361H276.84V257.363ZM281.225 259.453H276.977V257.471H281.225V259.453ZM281.088 263.438H276.811V261.445H281.088V263.438ZM283.822 271.494H271.635V269.482H283.822V271.494ZM274.164 270.752H271.635V265.83H274.164V270.752ZM299.447 261.621H294.711V259.619H299.447V261.621ZM291.889 258.037C291.882 259.561 291.7 260.99 291.342 262.324C290.984 263.659 290.437 264.844 289.701 265.879C288.965 266.908 288.057 267.692 286.977 268.232L285.414 266.191C286.397 265.755 287.221 265.114 287.885 264.268C288.549 263.415 289.044 262.458 289.369 261.396C289.695 260.329 289.861 259.209 289.867 258.037V255.381H291.889V258.037ZM292.396 258.037C292.396 259.202 292.553 260.303 292.865 261.338C293.178 262.367 293.656 263.285 294.301 264.092C294.945 264.893 295.746 265.501 296.703 265.918L295.18 267.91C294.105 267.383 293.214 266.631 292.504 265.654C291.794 264.671 291.264 263.538 290.912 262.256C290.567 260.967 290.395 259.561 290.395 258.037V255.381H292.396V258.037ZM300.668 271.846H298.197V254.004H300.668V271.846ZM322.943 271.797H320.6V254.004H322.943V271.797ZM317.631 262.129H314.633V260.127H317.631V262.129ZM319.311 270.986H316.977V254.316H319.311V270.986ZM312.689 258.779C312.683 260.166 312.54 261.484 312.26 262.734C311.98 263.984 311.544 265.111 310.951 266.113C310.365 267.116 309.62 267.894 308.715 268.447L307.211 266.611C308.044 266.097 308.731 265.426 309.271 264.6C309.812 263.766 310.202 262.858 310.443 261.875C310.684 260.885 310.805 259.854 310.805 258.779V256.914H312.689V258.779ZM313.207 258.779C313.207 259.827 313.324 260.82 313.559 261.758C313.793 262.695 314.171 263.555 314.691 264.336C315.219 265.111 315.896 265.736 316.723 266.211L315.268 268.037C314.356 267.503 313.611 266.764 313.031 265.82C312.452 264.876 312.029 263.812 311.762 262.627C311.501 261.436 311.371 260.153 311.371 258.779V256.914H313.207V258.779ZM315.902 257.822H307.885V255.83H315.902V257.822ZM334.193 265.625H331.742V263.037H334.193V265.625ZM341.049 263.408H324.906V261.592H341.049V263.408ZM334.184 256.152H331.713V254.004H334.184V256.152ZM333.744 256.611C333.744 257.471 333.458 258.223 332.885 258.867C332.312 259.512 331.459 260.029 330.326 260.42C329.2 260.804 327.829 261.038 326.215 261.123L325.541 259.287C326.908 259.222 328.041 259.062 328.939 258.809C329.844 258.548 330.505 258.229 330.922 257.852C331.345 257.474 331.557 257.061 331.557 256.611V256.25H333.744V256.611ZM334.35 256.611C334.343 257.061 334.551 257.474 334.975 257.852C335.398 258.229 336.062 258.548 336.967 258.809C337.872 259.062 339.014 259.222 340.395 259.287L339.672 261.123C338.064 261.038 336.697 260.801 335.57 260.41C334.451 260.02 333.601 259.505 333.021 258.867C332.442 258.223 332.156 257.471 332.162 256.611V256.25H334.35V256.611ZM339.516 257.256H326.43V255.41H339.516V257.256ZM339.105 268.857H329.203V270.586H326.752V267.188H336.645V266.318H326.742V264.531H339.105V268.857ZM339.574 271.67H326.752V269.844H339.574V271.67Z" fill="#1D1D1D"/>
<path d="M26.4004 146.816H23.9102V134.043H26.4004V146.816ZM26.8887 151.494H14.4961V149.482H26.8887V151.494ZM17.0156 150.303H14.4961V145.537H17.0156V150.303ZM16.6641 135.166C17.5625 135.166 18.3828 135.358 19.125 135.742C19.8737 136.126 20.4596 136.66 20.8828 137.344C21.3125 138.027 21.5273 138.792 21.5273 139.639C21.5273 140.505 21.3125 141.283 20.8828 141.973C20.4596 142.656 19.877 143.193 19.1348 143.584C18.3926 143.968 17.569 144.16 16.6641 144.16C15.7591 144.16 14.9355 143.968 14.1934 143.584C13.4577 143.193 12.875 142.656 12.4453 141.973C12.0156 141.283 11.8008 140.505 11.8008 139.639C11.8008 138.792 12.0156 138.027 12.4453 137.344C12.875 136.66 13.4577 136.126 14.1934 135.742C14.9355 135.358 15.7591 135.166 16.6641 135.166ZM16.6641 137.334C16.2018 137.334 15.7852 137.428 15.4141 137.617C15.0495 137.799 14.7598 138.066 14.5449 138.418C14.3366 138.763 14.2324 139.17 14.2324 139.639C14.2324 140.127 14.3366 140.547 14.5449 140.898C14.7598 141.25 15.0495 141.52 15.4141 141.709C15.7852 141.898 16.2018 141.989 16.6641 141.982C17.1198 141.989 17.5267 141.898 17.8848 141.709C18.2493 141.52 18.5358 141.25 18.7441 140.898C18.9525 140.547 19.0566 140.127 19.0566 139.639C19.0566 139.17 18.9525 138.763 18.7441 138.418C18.5358 138.066 18.2493 137.799 17.8848 137.617C17.5202 137.428 17.1133 137.334 16.6641 137.334ZM41.957 140.371H38.5391V138.35H41.957V140.371ZM43.793 144.58H41.3125V134.004H43.793V144.58ZM37.7188 144.971C38.9818 144.971 40.0723 145.107 40.9902 145.381C41.9082 145.654 42.6113 146.048 43.0996 146.562C43.5944 147.07 43.8451 147.682 43.8516 148.398C43.8451 149.108 43.5944 149.717 43.0996 150.225C42.6113 150.739 41.9082 151.133 40.9902 151.406C40.0723 151.68 38.9818 151.82 37.7188 151.826C36.4622 151.82 35.375 151.68 34.457 151.406C33.5456 151.133 32.8424 150.739 32.3477 150.225C31.8594 149.717 31.6152 149.108 31.6152 148.398C31.6152 147.682 31.8594 147.07 32.3477 146.562C32.8424 146.048 33.5456 145.654 34.457 145.381C35.375 145.107 36.4622 144.971 37.7188 144.971ZM37.7188 146.865C36.9245 146.865 36.2604 146.924 35.7266 147.041C35.1927 147.152 34.7858 147.321 34.5059 147.549C34.2259 147.777 34.0859 148.06 34.0859 148.398C34.0859 148.73 34.2259 149.01 34.5059 149.238C34.7858 149.466 35.1927 149.639 35.7266 149.756C36.2669 149.867 36.931 149.922 37.7188 149.922C38.513 149.922 39.1803 149.867 39.7207 149.756C40.2676 149.639 40.6777 149.466 40.9512 149.238C41.2246 149.01 41.3613 148.73 41.3613 148.398C41.3613 148.06 41.2246 147.777 40.9512 147.549C40.6777 147.321 40.2676 147.152 39.7207 147.041C39.1803 146.924 38.513 146.865 37.7188 146.865ZM35.0137 136.973C35.0137 138.125 34.8281 139.206 34.457 140.215C34.0924 141.224 33.5326 142.113 32.7773 142.881C32.0286 143.643 31.1042 144.212 30.0039 144.59L28.7051 142.607C29.6491 142.288 30.4401 141.833 31.0781 141.24C31.7227 140.648 32.1979 139.987 32.5039 139.258C32.8164 138.522 32.9759 137.76 32.9824 136.973V135.801H35.0137V136.973ZM35.5215 136.953C35.5215 137.682 35.668 138.385 35.9609 139.062C36.2604 139.733 36.7161 140.342 37.3281 140.889C37.9401 141.436 38.7018 141.862 39.6133 142.168L38.3828 144.121C37.3086 143.77 36.4036 143.236 35.668 142.52C34.9388 141.797 34.3919 140.96 34.0273 140.01C33.6693 139.053 33.4935 138.034 33.5 136.953V135.801H35.5215V136.953ZM39.0664 137.1H29.418V135.088H39.0664V137.1ZM60.9707 147.021H58.4805V134.043H60.9707V147.021ZM61.459 151.494H49.0664V149.482H61.459V151.494ZM51.5859 150.547H49.0664V145.752H51.5859V150.547ZM52.3965 136.729C52.39 137.926 52.1979 139.049 51.8203 140.098C51.4492 141.139 50.8828 142.054 50.1211 142.842C49.3659 143.63 48.4316 144.212 47.3184 144.59L46.0293 142.627C46.9928 142.301 47.7936 141.833 48.4316 141.221C49.0762 140.609 49.5514 139.919 49.8574 139.15C50.1634 138.382 50.3197 137.575 50.3262 136.729V135.02H52.3965V136.729ZM52.9141 136.729C52.9076 137.542 53.0508 138.317 53.3438 139.053C53.6367 139.782 54.0957 140.433 54.7207 141.006C55.3457 141.579 56.1302 142.015 57.0742 142.314L55.8047 144.287C54.7109 143.916 53.793 143.363 53.0508 142.627C52.3086 141.885 51.752 141.012 51.3809 140.01C51.0098 139.001 50.8242 137.907 50.8242 136.729V135.02H52.9141V136.729ZM69.4473 137.793C69.4473 138.854 69.2617 139.844 68.8906 140.762C68.5195 141.673 67.9564 142.467 67.2012 143.145C66.4525 143.822 65.528 144.316 64.4277 144.629L63.2656 142.695C64.1901 142.428 64.9648 142.041 65.5898 141.533C66.2148 141.019 66.6803 140.443 66.9863 139.805C67.2988 139.16 67.4551 138.49 67.4551 137.793V137.119H69.4473V137.793ZM69.9258 137.793C69.9258 138.431 70.082 139.043 70.3945 139.629C70.7135 140.215 71.1855 140.739 71.8105 141.201C72.4421 141.663 73.2233 142.012 74.1543 142.246L72.9824 144.17C71.8757 143.883 70.9414 143.428 70.1797 142.803C69.4245 142.178 68.8548 141.436 68.4707 140.576C68.0931 139.717 67.9043 138.789 67.9043 137.793V137.119H69.9258V137.793ZM73.5098 137.842H63.8711V135.879H73.5098V137.842ZM69.9551 136.66H67.4551V133.945H69.9551V136.66ZM76.4688 140.791H72.9922V138.789H76.4688V140.791ZM78.3633 144.766H75.8828V134.004H78.3633V144.766ZM72.2891 145.068C73.5456 145.068 74.6328 145.199 75.5508 145.459C76.4753 145.713 77.1816 146.094 77.6699 146.602C78.1647 147.103 78.4154 147.702 78.4219 148.398C78.4154 149.115 78.1647 149.727 77.6699 150.234C77.1816 150.742 76.4753 151.13 75.5508 151.396C74.6328 151.663 73.5456 151.797 72.2891 151.797C71.0326 151.797 69.9486 151.663 69.0371 151.396C68.1257 151.13 67.4225 150.742 66.9277 150.234C66.4329 149.727 66.1855 149.115 66.1855 148.398C66.1855 147.702 66.4297 147.103 66.918 146.602C67.4128 146.094 68.1159 145.713 69.0273 145.459C69.9453 145.199 71.0326 145.068 72.2891 145.068ZM72.2891 146.973C71.5013 146.973 70.8372 147.025 70.2969 147.129C69.763 147.233 69.3561 147.393 69.0762 147.607C68.7962 147.822 68.6562 148.086 68.6562 148.398C68.6562 148.724 68.7962 148.997 69.0762 149.219C69.3561 149.44 69.763 149.609 70.2969 149.727C70.8372 149.837 71.5013 149.896 72.2891 149.902C73.0898 149.896 73.7604 149.837 74.3008 149.727C74.8477 149.609 75.2546 149.44 75.5215 149.219C75.7949 148.997 75.9316 148.724 75.9316 148.398C75.9316 148.079 75.7949 147.816 75.5215 147.607C75.2546 147.393 74.8509 147.233 74.3105 147.129C73.7702 147.025 73.0964 146.973 72.2891 146.973Z" fill="#1D1D1D"/>
<path d="M196.885 88.8594H198.955L197.988 94.416H195.195L196.885 88.8594ZM206.328 90.1582C206.322 91.3171 206.133 92.3978 205.762 93.4004C205.391 94.3965 204.821 95.2656 204.053 96.0078C203.291 96.75 202.354 97.3001 201.24 97.6582L199.99 95.6953C200.941 95.3893 201.738 94.9499 202.383 94.377C203.027 93.7975 203.503 93.1465 203.809 92.4238C204.121 91.7012 204.281 90.946 204.287 90.1582V88.9961H206.328V90.1582ZM206.807 90.1484C206.807 90.8711 206.953 91.5579 207.246 92.209C207.539 92.8535 207.992 93.4329 208.604 93.9473C209.215 94.4551 209.98 94.8457 210.898 95.1191L209.727 97.0625C208.633 96.737 207.718 96.2324 206.982 95.5488C206.247 94.8587 205.693 94.0547 205.322 93.1367C204.958 92.2122 204.775 91.2161 204.775 90.1484V88.9961H206.807V90.1484ZM210.352 90.1973H200.664V88.2051H210.352V90.1973ZM214.346 97.5605H211.855V87.0039H214.346V97.5605ZM216.748 93.1758H213.643V91.1445H216.748V93.1758ZM208.516 97.9121C209.746 97.9121 210.811 98.0488 211.709 98.3223C212.614 98.5892 213.307 98.9798 213.789 99.4941C214.271 100.008 214.512 100.624 214.512 101.34C214.512 102.056 214.271 102.671 213.789 103.186C213.307 103.706 212.614 104.104 211.709 104.377C210.811 104.657 209.746 104.797 208.516 104.797C207.272 104.797 206.191 104.657 205.273 104.377C204.355 104.104 203.649 103.706 203.154 103.186C202.666 102.671 202.422 102.056 202.422 101.34C202.422 100.624 202.666 100.008 203.154 99.4941C203.649 98.9798 204.352 98.5892 205.264 98.3223C206.182 98.0488 207.266 97.9121 208.516 97.9121ZM208.516 99.8457C207.741 99.8457 207.083 99.901 206.543 100.012C206.009 100.122 205.605 100.292 205.332 100.52C205.059 100.741 204.925 101.014 204.932 101.34C204.925 101.678 205.059 101.962 205.332 102.189C205.605 102.411 206.009 102.58 206.543 102.697C207.077 102.808 207.734 102.863 208.516 102.863C209.29 102.863 209.938 102.808 210.459 102.697C210.986 102.58 211.383 102.411 211.65 102.189C211.924 101.962 212.061 101.678 212.061 101.34C212.061 101.008 211.924 100.731 211.65 100.51C211.383 100.288 210.986 100.122 210.459 100.012C209.938 99.901 209.29 99.8457 208.516 99.8457ZM232.471 104.797H229.941V87.0039H232.471V104.797ZM227.148 88.8789C227.142 90.7865 226.885 92.5182 226.377 94.0742C225.869 95.6237 225.007 97.0495 223.789 98.3516C222.572 99.6536 220.941 100.786 218.896 101.75L217.588 99.7578C219.294 98.9505 220.664 98.0423 221.699 97.0332C222.741 96.0241 223.496 94.8913 223.965 93.6348C224.434 92.3783 224.668 90.9395 224.668 89.3184V88.8789H227.148ZM225.811 90.8418H218.535V88.8789H225.811V90.8418ZM240.918 101.057H238.447V96.0664H240.918V101.057ZM247.461 101.057H244.951V96.0664H247.461V101.057ZM251.074 102.717H234.824V100.676H251.074V102.717ZM242.92 87.8828C244.202 87.8828 245.348 88.0814 246.357 88.4785C247.373 88.8757 248.167 89.4355 248.74 90.1582C249.32 90.8809 249.609 91.7109 249.609 92.6484C249.609 93.599 249.323 94.4323 248.75 95.1484C248.177 95.8646 247.383 96.4212 246.367 96.8184C245.352 97.2155 244.202 97.4141 242.92 97.4141C241.637 97.4141 240.488 97.2155 239.473 96.8184C238.464 96.4212 237.673 95.8646 237.1 95.1484C236.527 94.4323 236.24 93.599 236.24 92.6484C236.24 91.7109 236.527 90.8809 237.1 90.1582C237.673 89.4355 238.464 88.8757 239.473 88.4785C240.488 88.0814 241.637 87.8828 242.92 87.8828ZM242.92 89.8555C242.067 89.849 241.325 89.9564 240.693 90.1777C240.062 90.3991 239.57 90.7214 239.219 91.1445C238.874 91.5677 238.701 92.069 238.701 92.6484C238.701 93.2279 238.874 93.7324 239.219 94.1621C239.57 94.5853 240.062 94.9108 240.693 95.1387C241.331 95.3665 242.074 95.4837 242.92 95.4902C243.76 95.4837 244.499 95.3665 245.137 95.1387C245.775 94.9043 246.27 94.5755 246.621 94.1523C246.973 93.7292 247.148 93.2279 247.148 92.6484C247.148 92.069 246.973 91.5677 246.621 91.1445C246.27 90.7214 245.775 90.3991 245.137 90.1777C244.499 89.9564 243.76 89.849 242.92 89.8555ZM268.516 91.2715H265.43V89.2402H268.516V91.2715ZM268.516 95.1484H265.43V93.0977H268.516V95.1484ZM257.09 88C258.001 88 258.825 88.179 259.561 88.5371C260.303 88.8952 260.885 89.4062 261.309 90.0703C261.732 90.7279 261.947 91.4701 261.953 92.2969C261.947 93.1237 261.732 93.8626 261.309 94.5137C260.885 95.1647 260.303 95.6758 259.561 96.0469C258.825 96.418 258.001 96.6035 257.09 96.6035C256.178 96.6035 255.352 96.418 254.609 96.0469C253.867 95.6693 253.281 95.1549 252.852 94.5039C252.428 93.8529 252.217 93.1172 252.217 92.2969C252.217 91.4701 252.428 90.7279 252.852 90.0703C253.281 89.4062 253.867 88.8952 254.609 88.5371C255.352 88.179 256.178 88 257.09 88ZM257.09 90.0898C256.628 90.0833 256.211 90.1712 255.84 90.3535C255.475 90.5293 255.189 90.7865 254.98 91.125C254.772 91.4635 254.668 91.8542 254.668 92.2969C254.668 92.7526 254.772 93.1465 254.98 93.4785C255.189 93.8105 255.475 94.0645 255.84 94.2402C256.211 94.416 256.628 94.5039 257.09 94.5039C257.552 94.5039 257.965 94.416 258.33 94.2402C258.701 94.0645 258.991 93.8105 259.199 93.4785C259.414 93.1465 259.521 92.7526 259.521 92.2969C259.521 91.8542 259.414 91.4635 259.199 91.125C258.991 90.7865 258.701 90.5293 258.33 90.3535C257.965 90.1712 257.552 90.0833 257.09 90.0898ZM266.201 97.4141H263.711V87.0039H266.201V97.4141ZM260.371 97.7754C261.589 97.7754 262.65 97.9154 263.555 98.1953C264.46 98.4753 265.153 98.8822 265.635 99.416C266.123 99.9434 266.367 100.572 266.367 101.301C266.367 102.023 266.123 102.645 265.635 103.166C265.153 103.687 264.46 104.087 263.555 104.367C262.65 104.654 261.589 104.797 260.371 104.797C259.141 104.797 258.066 104.654 257.148 104.367C256.23 104.087 255.521 103.687 255.02 103.166C254.525 102.645 254.277 102.023 254.277 101.301C254.277 100.572 254.525 99.9434 255.02 99.416C255.521 98.8822 256.23 98.4753 257.148 98.1953C258.066 97.9154 259.141 97.7754 260.371 97.7754ZM260.371 99.7383C259.596 99.7448 258.942 99.8066 258.408 99.9238C257.874 100.035 257.467 100.207 257.188 100.441C256.914 100.669 256.781 100.956 256.787 101.301C256.781 101.646 256.914 101.929 257.188 102.15C257.461 102.372 257.861 102.541 258.389 102.658C258.923 102.769 259.583 102.824 260.371 102.824C261.146 102.824 261.797 102.769 262.324 102.658C262.852 102.541 263.249 102.372 263.516 102.15C263.783 101.929 263.916 101.646 263.916 101.301C263.916 100.956 263.779 100.669 263.506 100.441C263.239 100.207 262.842 100.035 262.314 99.9238C261.794 99.8066 261.146 99.7448 260.371 99.7383ZM284.258 99.8164H281.768V87.043H284.258V99.8164ZM284.746 104.494H272.354V102.482H284.746V104.494ZM274.873 103.303H272.354V98.5371H274.873V103.303ZM274.521 88.166C275.42 88.166 276.24 88.3581 276.982 88.7422C277.731 89.1263 278.317 89.6602 278.74 90.3438C279.17 91.0273 279.385 91.7923 279.385 92.6387C279.385 93.5046 279.17 94.2826 278.74 94.9727C278.317 95.6562 277.734 96.1934 276.992 96.584C276.25 96.9681 275.426 97.1602 274.521 97.1602C273.617 97.1602 272.793 96.9681 272.051 96.584C271.315 96.1934 270.732 95.6562 270.303 94.9727C269.873 94.2826 269.658 93.5046 269.658 92.6387C269.658 91.7923 269.873 91.0273 270.303 90.3438C270.732 89.6602 271.315 89.1263 272.051 88.7422C272.793 88.3581 273.617 88.166 274.521 88.166ZM274.521 90.334C274.059 90.334 273.643 90.4284 273.271 90.6172C272.907 90.7995 272.617 91.0664 272.402 91.418C272.194 91.763 272.09 92.1699 272.09 92.6387C272.09 93.127 272.194 93.5469 272.402 93.8984C272.617 94.25 272.907 94.5202 273.271 94.709C273.643 94.8978 274.059 94.9889 274.521 94.9824C274.977 94.9889 275.384 94.8978 275.742 94.709C276.107 94.5202 276.393 94.25 276.602 93.8984C276.81 93.5469 276.914 93.127 276.914 92.6387C276.914 92.1699 276.81 91.763 276.602 91.418C276.393 91.0664 276.107 90.7995 275.742 90.6172C275.378 90.4284 274.971 90.334 274.521 90.334ZM299.814 93.3711H296.396V91.3496H299.814V93.3711ZM301.65 97.5801H299.17V87.0039H301.65V97.5801ZM295.576 97.9707C296.839 97.9707 297.93 98.1074 298.848 98.3809C299.766 98.6543 300.469 99.0482 300.957 99.5625C301.452 100.07 301.702 100.682 301.709 101.398C301.702 102.108 301.452 102.717 300.957 103.225C300.469 103.739 299.766 104.133 298.848 104.406C297.93 104.68 296.839 104.82 295.576 104.826C294.32 104.82 293.232 104.68 292.314 104.406C291.403 104.133 290.7 103.739 290.205 103.225C289.717 102.717 289.473 102.108 289.473 101.398C289.473 100.682 289.717 100.07 290.205 99.5625C290.7 99.0482 291.403 98.6543 292.314 98.3809C293.232 98.1074 294.32 97.9707 295.576 97.9707ZM295.576 99.8652C294.782 99.8652 294.118 99.9238 293.584 100.041C293.05 100.152 292.643 100.321 292.363 100.549C292.083 100.777 291.943 101.06 291.943 101.398C291.943 101.73 292.083 102.01 292.363 102.238C292.643 102.466 293.05 102.639 293.584 102.756C294.124 102.867 294.788 102.922 295.576 102.922C296.37 102.922 297.038 102.867 297.578 102.756C298.125 102.639 298.535 102.466 298.809 102.238C299.082 102.01 299.219 101.73 299.219 101.398C299.219 101.06 299.082 100.777 298.809 100.549C298.535 100.321 298.125 100.152 297.578 100.041C297.038 99.9238 296.37 99.8652 295.576 99.8652ZM292.871 89.9727C292.871 91.125 292.686 92.2057 292.314 93.2148C291.95 94.224 291.39 95.1126 290.635 95.8809C289.886 96.6426 288.962 97.2122 287.861 97.5898L286.562 95.6074C287.507 95.2884 288.298 94.8327 288.936 94.2402C289.58 93.6478 290.055 92.987 290.361 92.2578C290.674 91.5221 290.833 90.7604 290.84 89.9727V88.8008H292.871V89.9727ZM293.379 89.9531C293.379 90.6823 293.525 91.3854 293.818 92.0625C294.118 92.7331 294.574 93.3418 295.186 93.8887C295.798 94.4355 296.559 94.862 297.471 95.168L296.24 97.1211C295.166 96.7695 294.261 96.2357 293.525 95.5195C292.796 94.7969 292.249 93.9603 291.885 93.0098C291.527 92.0527 291.351 91.0339 291.357 89.9531V88.8008H293.379V89.9531ZM296.924 90.0996H287.275V88.0879H296.924V90.0996ZM320.215 102.727H303.965V100.705H320.215V102.727ZM313.33 101.291H310.82V96.75H313.33V101.291ZM312.852 90.002C312.852 91.252 312.559 92.3978 311.973 93.4395C311.393 94.4746 310.553 95.347 309.453 96.0566C308.353 96.7663 307.064 97.2578 305.586 97.5312L304.609 95.5586C305.872 95.3568 306.966 94.9759 307.891 94.416C308.822 93.8561 309.528 93.1953 310.01 92.4336C310.498 91.6654 310.742 90.8548 310.742 90.002V89.3574H312.852V90.002ZM313.359 90.002C313.359 90.8548 313.604 91.6589 314.092 92.4141C314.587 93.1693 315.306 93.8203 316.25 94.3672C317.194 94.9076 318.317 95.2721 319.619 95.4609L318.643 97.4238C317.132 97.1634 315.82 96.6849 314.707 95.9883C313.6 95.2917 312.747 94.4323 312.148 93.4102C311.556 92.388 311.263 91.252 311.27 90.002V89.3574H313.359V90.002ZM318.799 90.3926H305.303V88.3711H318.799V90.3926ZM327.314 91.0371C327.308 92.541 327.122 93.957 326.758 95.2852C326.4 96.6068 325.85 97.7819 325.107 98.8105C324.372 99.8327 323.464 100.611 322.383 101.145L320.85 99.123C321.826 98.6803 322.646 98.0358 323.311 97.1895C323.975 96.3431 324.469 95.3958 324.795 94.3477C325.12 93.293 325.286 92.1895 325.293 91.0371V88.3809H327.314V91.0371ZM327.773 91.0371C327.773 92.1439 327.93 93.2018 328.242 94.2109C328.555 95.2201 329.023 96.1315 329.648 96.9453C330.28 97.7526 331.058 98.3776 331.982 98.8203L330.479 100.803C329.437 100.288 328.564 99.5365 327.861 98.5469C327.165 97.5573 326.644 96.4245 326.299 95.1484C325.954 93.8724 325.785 92.502 325.791 91.0371V88.3809H327.773V91.0371ZM335.264 104.797H332.764V87.0039H335.264V104.797ZM337.9 95.9883H334.717V93.8691H337.9V95.9883ZM345.068 101.496H342.559V96.6719H345.068V101.496ZM350.664 101.525H348.174V96.6914H350.664V101.525ZM354.785 102.824H338.535V100.832H354.785V102.824ZM353.428 90.4414H339.795V88.4395H353.428V90.4414ZM353.35 97.4531H339.883V95.4414H353.35V97.4531ZM344.746 95.7441H342.256V90.0898H344.746V95.7441ZM350.928 95.7441H348.477V90.0898H350.928V95.7441ZM358.105 94.4258H356.035L357.002 88.8691H359.795L358.105 94.4258ZM259.932 119.588H256.963V117.596H259.932V119.588ZM265.195 128.797H262.803V111.004H265.195V128.797ZM261.494 127.977H259.141V111.277H261.494V127.977ZM253.809 112.283C254.59 112.283 255.277 112.544 255.869 113.064C256.468 113.585 256.927 114.331 257.246 115.301C257.572 116.271 257.734 117.41 257.734 118.719C257.734 120.034 257.572 121.18 257.246 122.156C256.927 123.126 256.468 123.875 255.869 124.402C255.277 124.923 254.59 125.184 253.809 125.184C253.027 125.184 252.347 124.923 251.768 124.402C251.188 123.875 250.736 123.126 250.41 122.156C250.091 121.18 249.932 120.034 249.932 118.719C249.932 117.41 250.091 116.271 250.41 115.301C250.736 114.331 251.188 113.585 251.768 113.064C252.347 112.544 253.027 112.283 253.809 112.283ZM253.809 114.646C253.47 114.646 253.184 114.796 252.949 115.096C252.715 115.395 252.536 115.851 252.412 116.463C252.288 117.068 252.23 117.82 252.236 118.719C252.23 119.617 252.288 120.372 252.412 120.984C252.536 121.59 252.715 122.042 252.949 122.342C253.19 122.641 253.477 122.791 253.809 122.791C254.154 122.791 254.447 122.641 254.688 122.342C254.935 122.042 255.12 121.59 255.244 120.984C255.374 120.379 255.439 119.624 255.439 118.719C255.439 117.82 255.374 117.068 255.244 116.463C255.12 115.851 254.935 115.395 254.688 115.096C254.447 114.796 254.154 114.646 253.809 114.646ZM277.461 112.205C278.385 112.205 279.222 112.394 279.971 112.771C280.726 113.143 281.315 113.66 281.738 114.324C282.168 114.988 282.383 115.737 282.383 116.57C282.383 117.41 282.168 118.162 281.738 118.826C281.315 119.484 280.726 120.001 279.971 120.379C279.222 120.75 278.385 120.936 277.461 120.936C276.53 120.936 275.687 120.75 274.932 120.379C274.183 120.001 273.594 119.484 273.164 118.826C272.734 118.162 272.52 117.41 272.52 116.57C272.52 115.737 272.734 114.988 273.164 114.324C273.594 113.66 274.183 113.143 274.932 112.771C275.687 112.394 276.53 112.205 277.461 112.205ZM277.461 114.354C276.986 114.36 276.562 114.451 276.191 114.627C275.82 114.796 275.527 115.05 275.312 115.389C275.098 115.727 274.99 116.121 274.99 116.57C274.99 117.033 275.098 117.43 275.312 117.762C275.527 118.087 275.82 118.338 276.191 118.514C276.562 118.689 276.986 118.781 277.461 118.787C277.936 118.781 278.363 118.689 278.74 118.514C279.124 118.338 279.421 118.087 279.629 117.762C279.844 117.43 279.951 117.033 279.951 116.57C279.951 116.121 279.844 115.727 279.629 115.389C279.421 115.05 279.124 114.796 278.74 114.627C278.363 114.451 277.936 114.36 277.461 114.354ZM286.631 128.846H284.16V111.004H286.631V128.846ZM271.777 123.182C273.9 123.182 275.902 123.146 277.783 123.074C279.671 123.003 281.462 122.85 283.154 122.615L283.33 124.402C282.113 124.643 280.85 124.822 279.541 124.939C278.232 125.05 276.999 125.122 275.84 125.154C274.681 125.187 273.424 125.203 272.07 125.203L271.777 123.182ZM303.086 124.314H300.596V111.043H303.086V124.314ZM305.488 118.523H302.363V116.482H305.488V118.523ZM299.531 114.861H288.975V112.898H299.531V114.861ZM294.268 115.486C295.114 115.486 295.869 115.633 296.533 115.926C297.197 116.212 297.715 116.616 298.086 117.137C298.457 117.658 298.643 118.257 298.643 118.934C298.643 119.604 298.457 120.197 298.086 120.711C297.715 121.225 297.197 121.626 296.533 121.912C295.869 122.192 295.114 122.332 294.268 122.332C293.408 122.332 292.643 122.192 291.973 121.912C291.309 121.626 290.788 121.225 290.41 120.711C290.039 120.197 289.854 119.604 289.854 118.934C289.854 118.257 290.039 117.658 290.41 117.137C290.788 116.616 291.309 116.212 291.973 115.926C292.643 115.633 293.408 115.486 294.268 115.486ZM294.268 117.4C293.864 117.4 293.512 117.459 293.213 117.576C292.913 117.693 292.682 117.869 292.52 118.104C292.357 118.331 292.275 118.608 292.275 118.934C292.275 119.253 292.357 119.526 292.52 119.754C292.682 119.975 292.913 120.145 293.213 120.262C293.512 120.379 293.864 120.438 294.268 120.438C294.665 120.438 295.013 120.379 295.312 120.262C295.618 120.145 295.856 119.975 296.025 119.754C296.195 119.526 296.279 119.253 296.279 118.934C296.279 118.608 296.195 118.331 296.025 118.104C295.856 117.869 295.618 117.693 295.312 117.576C295.013 117.459 294.665 117.4 294.268 117.4ZM295.508 113.865H293.018V111.014H295.508V113.865ZM303.721 128.494H291.553V126.482H303.721V128.494ZM294.043 127.342H291.553V123.289H294.043V127.342Z" fill="white"/>
<path d="M437.756 124.158C437.749 125.317 437.561 126.398 437.189 127.4C436.818 128.396 436.249 129.266 435.48 130.008C434.719 130.75 433.781 131.3 432.668 131.658L431.418 129.695C432.368 129.389 433.166 128.95 433.811 128.377C434.455 127.798 434.93 127.146 435.236 126.424C435.549 125.701 435.708 124.946 435.715 124.158V122.996H437.756V124.158ZM438.234 124.148C438.234 124.871 438.381 125.558 438.674 126.209C438.967 126.854 439.419 127.433 440.031 127.947C440.643 128.455 441.408 128.846 442.326 129.119L441.154 131.062C440.061 130.737 439.146 130.232 438.41 129.549C437.674 128.859 437.121 128.055 436.75 127.137C436.385 126.212 436.203 125.216 436.203 124.148V122.996H438.234V124.148ZM441.779 124.197H432.092V122.205H441.779V124.197ZM445.773 131.561H443.283V121.004H445.773V131.561ZM448.176 127.176H445.07V125.145H448.176V127.176ZM439.943 131.912C441.174 131.912 442.238 132.049 443.137 132.322C444.042 132.589 444.735 132.98 445.217 133.494C445.699 134.008 445.939 134.624 445.939 135.34C445.939 136.056 445.699 136.671 445.217 137.186C444.735 137.706 444.042 138.104 443.137 138.377C442.238 138.657 441.174 138.797 439.943 138.797C438.7 138.797 437.619 138.657 436.701 138.377C435.783 138.104 435.077 137.706 434.582 137.186C434.094 136.671 433.85 136.056 433.85 135.34C433.85 134.624 434.094 134.008 434.582 133.494C435.077 132.98 435.78 132.589 436.691 132.322C437.609 132.049 438.693 131.912 439.943 131.912ZM439.943 133.846C439.169 133.846 438.511 133.901 437.971 134.012C437.437 134.122 437.033 134.292 436.76 134.52C436.486 134.741 436.353 135.014 436.359 135.34C436.353 135.678 436.486 135.962 436.76 136.189C437.033 136.411 437.437 136.58 437.971 136.697C438.505 136.808 439.162 136.863 439.943 136.863C440.718 136.863 441.366 136.808 441.887 136.697C442.414 136.58 442.811 136.411 443.078 136.189C443.352 135.962 443.488 135.678 443.488 135.34C443.488 135.008 443.352 134.731 443.078 134.51C442.811 134.288 442.414 134.122 441.887 134.012C441.366 133.901 440.718 133.846 439.943 133.846ZM463.898 138.797H461.369V121.004H463.898V138.797ZM458.576 122.879C458.57 124.786 458.312 126.518 457.805 128.074C457.297 129.624 456.434 131.049 455.217 132.352C453.999 133.654 452.368 134.786 450.324 135.75L449.016 133.758C450.721 132.951 452.092 132.042 453.127 131.033C454.169 130.024 454.924 128.891 455.393 127.635C455.861 126.378 456.096 124.939 456.096 123.318V122.879H458.576ZM457.238 124.842H449.963V122.879H457.238V124.842ZM472.346 135.057H469.875V130.066H472.346V135.057ZM478.889 135.057H476.379V130.066H478.889V135.057ZM482.502 136.717H466.252V134.676H482.502V136.717ZM474.348 121.883C475.63 121.883 476.776 122.081 477.785 122.479C478.801 122.876 479.595 123.436 480.168 124.158C480.747 124.881 481.037 125.711 481.037 126.648C481.037 127.599 480.751 128.432 480.178 129.148C479.605 129.865 478.811 130.421 477.795 130.818C476.779 131.215 475.63 131.414 474.348 131.414C473.065 131.414 471.916 131.215 470.9 130.818C469.891 130.421 469.1 129.865 468.527 129.148C467.954 128.432 467.668 127.599 467.668 126.648C467.668 125.711 467.954 124.881 468.527 124.158C469.1 123.436 469.891 122.876 470.9 122.479C471.916 122.081 473.065 121.883 474.348 121.883ZM474.348 123.855C473.495 123.849 472.753 123.956 472.121 124.178C471.49 124.399 470.998 124.721 470.646 125.145C470.301 125.568 470.129 126.069 470.129 126.648C470.129 127.228 470.301 127.732 470.646 128.162C470.998 128.585 471.49 128.911 472.121 129.139C472.759 129.367 473.501 129.484 474.348 129.49C475.188 129.484 475.926 129.367 476.564 129.139C477.202 128.904 477.697 128.576 478.049 128.152C478.4 127.729 478.576 127.228 478.576 126.648C478.576 126.069 478.4 125.568 478.049 125.145C477.697 124.721 477.202 124.399 476.564 124.178C475.926 123.956 475.188 123.849 474.348 123.855ZM499.943 125.271H496.857V123.24H499.943V125.271ZM499.943 129.148H496.857V127.098H499.943V129.148ZM488.518 122C489.429 122 490.253 122.179 490.988 122.537C491.73 122.895 492.313 123.406 492.736 124.07C493.16 124.728 493.374 125.47 493.381 126.297C493.374 127.124 493.16 127.863 492.736 128.514C492.313 129.165 491.73 129.676 490.988 130.047C490.253 130.418 489.429 130.604 488.518 130.604C487.606 130.604 486.779 130.418 486.037 130.047C485.295 129.669 484.709 129.155 484.279 128.504C483.856 127.853 483.645 127.117 483.645 126.297C483.645 125.47 483.856 124.728 484.279 124.07C484.709 123.406 485.295 122.895 486.037 122.537C486.779 122.179 487.606 122 488.518 122ZM488.518 124.09C488.055 124.083 487.639 124.171 487.268 124.354C486.903 124.529 486.617 124.786 486.408 125.125C486.2 125.464 486.096 125.854 486.096 126.297C486.096 126.753 486.2 127.146 486.408 127.479C486.617 127.811 486.903 128.064 487.268 128.24C487.639 128.416 488.055 128.504 488.518 128.504C488.98 128.504 489.393 128.416 489.758 128.24C490.129 128.064 490.419 127.811 490.627 127.479C490.842 127.146 490.949 126.753 490.949 126.297C490.949 125.854 490.842 125.464 490.627 125.125C490.419 124.786 490.129 124.529 489.758 124.354C489.393 124.171 488.98 124.083 488.518 124.09ZM497.629 131.414H495.139V121.004H497.629V131.414ZM491.799 131.775C493.016 131.775 494.077 131.915 494.982 132.195C495.887 132.475 496.581 132.882 497.062 133.416C497.551 133.943 497.795 134.572 497.795 135.301C497.795 136.023 497.551 136.645 497.062 137.166C496.581 137.687 495.887 138.087 494.982 138.367C494.077 138.654 493.016 138.797 491.799 138.797C490.568 138.797 489.494 138.654 488.576 138.367C487.658 138.087 486.949 137.687 486.447 137.166C485.952 136.645 485.705 136.023 485.705 135.301C485.705 134.572 485.952 133.943 486.447 133.416C486.949 132.882 487.658 132.475 488.576 132.195C489.494 131.915 490.568 131.775 491.799 131.775ZM491.799 133.738C491.024 133.745 490.37 133.807 489.836 133.924C489.302 134.035 488.895 134.207 488.615 134.441C488.342 134.669 488.208 134.956 488.215 135.301C488.208 135.646 488.342 135.929 488.615 136.15C488.889 136.372 489.289 136.541 489.816 136.658C490.35 136.769 491.011 136.824 491.799 136.824C492.574 136.824 493.225 136.769 493.752 136.658C494.279 136.541 494.676 136.372 494.943 136.15C495.21 135.929 495.344 135.646 495.344 135.301C495.344 134.956 495.207 134.669 494.934 134.441C494.667 134.207 494.27 134.035 493.742 133.924C493.221 133.807 492.574 133.745 491.799 133.738ZM515.686 133.816H513.195V121.043H515.686V133.816ZM516.174 138.494H503.781V136.482H516.174V138.494ZM506.301 137.303H503.781V132.537H506.301V137.303ZM505.949 122.166C506.848 122.166 507.668 122.358 508.41 122.742C509.159 123.126 509.745 123.66 510.168 124.344C510.598 125.027 510.812 125.792 510.812 126.639C510.812 127.505 510.598 128.283 510.168 128.973C509.745 129.656 509.162 130.193 508.42 130.584C507.678 130.968 506.854 131.16 505.949 131.16C505.044 131.16 504.221 130.968 503.479 130.584C502.743 130.193 502.16 129.656 501.73 128.973C501.301 128.283 501.086 127.505 501.086 126.639C501.086 125.792 501.301 125.027 501.73 124.344C502.16 123.66 502.743 123.126 503.479 122.742C504.221 122.358 505.044 122.166 505.949 122.166ZM505.949 124.334C505.487 124.334 505.07 124.428 504.699 124.617C504.335 124.799 504.045 125.066 503.83 125.418C503.622 125.763 503.518 126.17 503.518 126.639C503.518 127.127 503.622 127.547 503.83 127.898C504.045 128.25 504.335 128.52 504.699 128.709C505.07 128.898 505.487 128.989 505.949 128.982C506.405 128.989 506.812 128.898 507.17 128.709C507.535 128.52 507.821 128.25 508.029 127.898C508.238 127.547 508.342 127.127 508.342 126.639C508.342 126.17 508.238 125.763 508.029 125.418C507.821 125.066 507.535 124.799 507.17 124.617C506.805 124.428 506.398 124.334 505.949 124.334ZM531.242 127.371H527.824V125.35H531.242V127.371ZM533.078 131.58H530.598V121.004H533.078V131.58ZM527.004 131.971C528.267 131.971 529.357 132.107 530.275 132.381C531.193 132.654 531.896 133.048 532.385 133.562C532.88 134.07 533.13 134.682 533.137 135.398C533.13 136.108 532.88 136.717 532.385 137.225C531.896 137.739 531.193 138.133 530.275 138.406C529.357 138.68 528.267 138.82 527.004 138.826C525.747 138.82 524.66 138.68 523.742 138.406C522.831 138.133 522.128 137.739 521.633 137.225C521.145 136.717 520.9 136.108 520.9 135.398C520.9 134.682 521.145 134.07 521.633 133.562C522.128 133.048 522.831 132.654 523.742 132.381C524.66 132.107 525.747 131.971 527.004 131.971ZM527.004 133.865C526.21 133.865 525.546 133.924 525.012 134.041C524.478 134.152 524.071 134.321 523.791 134.549C523.511 134.777 523.371 135.06 523.371 135.398C523.371 135.73 523.511 136.01 523.791 136.238C524.071 136.466 524.478 136.639 525.012 136.756C525.552 136.867 526.216 136.922 527.004 136.922C527.798 136.922 528.465 136.867 529.006 136.756C529.553 136.639 529.963 136.466 530.236 136.238C530.51 136.01 530.646 135.73 530.646 135.398C530.646 135.06 530.51 134.777 530.236 134.549C529.963 134.321 529.553 134.152 529.006 134.041C528.465 133.924 527.798 133.865 527.004 133.865ZM524.299 123.973C524.299 125.125 524.113 126.206 523.742 127.215C523.378 128.224 522.818 129.113 522.062 129.881C521.314 130.643 520.389 131.212 519.289 131.59L517.99 129.607C518.934 129.288 519.725 128.833 520.363 128.24C521.008 127.648 521.483 126.987 521.789 126.258C522.102 125.522 522.261 124.76 522.268 123.973V122.801H524.299V123.973ZM524.807 123.953C524.807 124.682 524.953 125.385 525.246 126.062C525.546 126.733 526.001 127.342 526.613 127.889C527.225 128.436 527.987 128.862 528.898 129.168L527.668 131.121C526.594 130.77 525.689 130.236 524.953 129.52C524.224 128.797 523.677 127.96 523.312 127.01C522.954 126.053 522.779 125.034 522.785 123.953V122.801H524.807V123.953ZM528.352 124.1H518.703V122.088H528.352V124.1ZM462.092 151.146H458.635V149.125H462.092V151.146ZM463.938 155.307H461.457V145.004H463.938V155.307ZM463.938 162.602H451.994V156.029H463.938V162.602ZM454.484 160.6H461.506V157.992H454.484V160.6ZM455.158 147.807C455.158 148.959 454.973 150.036 454.602 151.039C454.237 152.035 453.677 152.911 452.922 153.666C452.173 154.415 451.249 154.968 450.148 155.326L448.859 153.354C449.803 153.054 450.594 152.615 451.232 152.035C451.87 151.456 452.342 150.805 452.648 150.082C452.961 149.359 453.12 148.601 453.127 147.807V146.654H455.158V147.807ZM455.666 147.826C455.666 148.542 455.816 149.239 456.115 149.916C456.415 150.587 456.87 151.199 457.482 151.752C458.094 152.305 458.853 152.735 459.758 153.041L458.527 154.994C457.453 154.643 456.548 154.109 455.812 153.393C455.083 152.676 454.536 151.843 454.172 150.893C453.814 149.936 453.638 148.913 453.645 147.826V146.654H455.666V147.826ZM459.211 147.924H449.562V145.932H459.211V147.924ZM475.236 146.41C475.236 147.543 474.94 148.598 474.348 149.574C473.755 150.544 472.899 151.361 471.779 152.025C470.666 152.683 469.357 153.119 467.854 153.334L466.877 151.332C468.173 151.169 469.289 150.834 470.227 150.326C471.164 149.818 471.867 149.223 472.336 148.539C472.811 147.849 473.049 147.139 473.049 146.41V145.541H475.236V146.41ZM475.666 146.41C475.666 147.139 475.907 147.849 476.389 148.539C476.877 149.223 477.587 149.818 478.518 150.326C479.455 150.834 480.575 151.169 481.877 151.332L480.91 153.334C479.393 153.119 478.075 152.683 476.955 152.025C475.842 151.361 474.986 150.544 474.387 149.574C473.788 148.604 473.488 147.549 473.488 146.41V145.541H475.666V146.41ZM475.539 162.797H473.068V156.264H475.539V162.797ZM482.463 156.723H466.252V154.682H482.463V156.723ZM489.65 148.051C489.65 149.255 489.462 150.368 489.084 151.391C488.713 152.413 488.15 153.305 487.395 154.066C486.646 154.828 485.721 155.395 484.621 155.766L483.234 153.803C484.211 153.497 485.021 153.048 485.666 152.455C486.317 151.863 486.796 151.192 487.102 150.443C487.414 149.688 487.57 148.891 487.57 148.051V146.117H489.65V148.051ZM490.08 148.07C490.08 148.858 490.23 149.604 490.529 150.307C490.835 151.01 491.298 151.641 491.916 152.201C492.541 152.755 493.319 153.181 494.25 153.48L492.941 155.434C491.867 155.076 490.969 154.532 490.246 153.803C489.523 153.074 488.98 152.224 488.615 151.254C488.257 150.277 488.078 149.216 488.078 148.07V146.117H490.08V148.07ZM497.629 158.051H495.139V145.033H497.629V158.051ZM500.031 152.27H496.906V150.18H500.031V152.27ZM498.293 162.494H486.096V160.482H498.293V162.494ZM488.635 161.547H486.096V156.762H488.635V161.547ZM513.957 151.371H510.539V149.35H513.957V151.371ZM515.793 155.58H513.312V145.004H515.793V155.58ZM509.719 155.971C510.982 155.971 512.072 156.107 512.99 156.381C513.908 156.654 514.611 157.048 515.1 157.562C515.594 158.07 515.845 158.682 515.852 159.398C515.845 160.108 515.594 160.717 515.1 161.225C514.611 161.739 513.908 162.133 512.99 162.406C512.072 162.68 510.982 162.82 509.719 162.826C508.462 162.82 507.375 162.68 506.457 162.406C505.546 162.133 504.842 161.739 504.348 161.225C503.859 160.717 503.615 160.108 503.615 159.398C503.615 158.682 503.859 158.07 504.348 157.562C504.842 157.048 505.546 156.654 506.457 156.381C507.375 156.107 508.462 155.971 509.719 155.971ZM509.719 157.865C508.924 157.865 508.26 157.924 507.727 158.041C507.193 158.152 506.786 158.321 506.506 158.549C506.226 158.777 506.086 159.06 506.086 159.398C506.086 159.73 506.226 160.01 506.506 160.238C506.786 160.466 507.193 160.639 507.727 160.756C508.267 160.867 508.931 160.922 509.719 160.922C510.513 160.922 511.18 160.867 511.721 160.756C512.268 160.639 512.678 160.466 512.951 160.238C513.225 160.01 513.361 159.73 513.361 159.398C513.361 159.06 513.225 158.777 512.951 158.549C512.678 158.321 512.268 158.152 511.721 158.041C511.18 157.924 510.513 157.865 509.719 157.865ZM507.014 147.973C507.014 149.125 506.828 150.206 506.457 151.215C506.092 152.224 505.533 153.113 504.777 153.881C504.029 154.643 503.104 155.212 502.004 155.59L500.705 153.607C501.649 153.288 502.44 152.833 503.078 152.24C503.723 151.648 504.198 150.987 504.504 150.258C504.816 149.522 504.976 148.76 504.982 147.973V146.801H507.014V147.973ZM507.521 147.953C507.521 148.682 507.668 149.385 507.961 150.062C508.26 150.733 508.716 151.342 509.328 151.889C509.94 152.436 510.702 152.862 511.613 153.168L510.383 155.121C509.309 154.77 508.404 154.236 507.668 153.52C506.939 152.797 506.392 151.96 506.027 151.01C505.669 150.053 505.493 149.034 505.5 147.953V146.801H507.521V147.953ZM511.066 148.1H501.418V146.088H511.066V148.1Z" fill="white"/>
<path d="M613.207 119.18H596.967V117.148H613.207V119.18ZM611.352 115.908H598.93V113.916H611.352V115.908ZM611.254 111.494H601.4V114.922H598.93V109.502H611.254V111.494ZM605.043 120.244C606.326 120.244 607.429 120.371 608.354 120.625C609.278 120.879 609.988 121.253 610.482 121.748C610.977 122.236 611.228 122.822 611.234 123.506C611.228 124.202 610.977 124.798 610.482 125.293C609.994 125.788 609.285 126.162 608.354 126.416C607.429 126.67 606.326 126.797 605.043 126.797C603.747 126.797 602.634 126.67 601.703 126.416C600.772 126.162 600.056 125.788 599.555 125.293C599.06 124.798 598.812 124.202 598.812 123.506C598.812 122.822 599.06 122.236 599.555 121.748C600.056 121.253 600.772 120.879 601.703 120.625C602.634 120.371 603.747 120.244 605.043 120.244ZM605.043 122.139C604.223 122.145 603.539 122.201 602.992 122.305C602.445 122.402 602.032 122.552 601.752 122.754C601.479 122.956 601.345 123.206 601.352 123.506C601.345 123.818 601.479 124.079 601.752 124.287C602.032 124.495 602.442 124.648 602.982 124.746C603.529 124.844 604.216 124.896 605.043 124.902C605.857 124.896 606.537 124.844 607.084 124.746C607.631 124.648 608.041 124.495 608.314 124.287C608.588 124.079 608.725 123.818 608.725 123.506C608.725 123.206 608.585 122.956 608.305 122.754C608.031 122.552 607.621 122.402 607.074 122.305C606.527 122.201 605.85 122.145 605.043 122.139ZM618.646 121.035H626.039V119.141H628.51V126.602H616.186V119.141H618.646V121.035ZM626.039 124.59V122.939H618.646V124.59H626.039ZM627.602 111.729H616.234V109.736H627.602V111.729ZM630.502 117.959H614.252V115.986H630.502V117.959ZM628.578 111.152C628.578 112.142 628.549 113.021 628.49 113.789C628.432 114.551 628.288 115.436 628.061 116.445L625.561 116.602C625.717 115.905 625.834 115.251 625.912 114.639C625.99 114.027 626.039 113.483 626.059 113.008C626.078 112.533 626.091 111.966 626.098 111.309V111.152V109.736H628.578V111.152ZM641.488 112.49H631.908V110.518H641.488V112.49ZM631.43 117.734C633.467 117.721 635.372 117.682 637.143 117.617C638.92 117.546 640.577 117.415 642.113 117.227L642.299 119.053C640.704 119.326 639.024 119.508 637.26 119.6C635.502 119.684 633.646 119.727 631.693 119.727L631.43 117.734ZM635.766 118.135H633.354V112.012H635.766V118.135ZM640.033 118.135H637.65V112.012H640.033V118.135ZM645.629 122.119H643.139V109.043H645.629V122.119ZM648.031 116.104H644.906V114.033H648.031V116.104ZM646.264 126.494H634.096V124.482H646.264V126.494ZM636.586 125.039H634.096V120.889H636.586V125.039ZM661.957 115.371H658.539V113.35H661.957V115.371ZM663.793 119.58H661.312V109.004H663.793V119.58ZM657.719 119.971C658.982 119.971 660.072 120.107 660.99 120.381C661.908 120.654 662.611 121.048 663.1 121.562C663.594 122.07 663.845 122.682 663.852 123.398C663.845 124.108 663.594 124.717 663.1 125.225C662.611 125.739 661.908 126.133 660.99 126.406C660.072 126.68 658.982 126.82 657.719 126.826C656.462 126.82 655.375 126.68 654.457 126.406C653.546 126.133 652.842 125.739 652.348 125.225C651.859 124.717 651.615 124.108 651.615 123.398C651.615 122.682 651.859 122.07 652.348 121.562C652.842 121.048 653.546 120.654 654.457 120.381C655.375 120.107 656.462 119.971 657.719 119.971ZM657.719 121.865C656.924 121.865 656.26 121.924 655.727 122.041C655.193 122.152 654.786 122.321 654.506 122.549C654.226 122.777 654.086 123.06 654.086 123.398C654.086 123.73 654.226 124.01 654.506 124.238C654.786 124.466 655.193 124.639 655.727 124.756C656.267 124.867 656.931 124.922 657.719 124.922C658.513 124.922 659.18 124.867 659.721 124.756C660.268 124.639 660.678 124.466 660.951 124.238C661.225 124.01 661.361 123.73 661.361 123.398C661.361 123.06 661.225 122.777 660.951 122.549C660.678 122.321 660.268 122.152 659.721 122.041C659.18 121.924 658.513 121.865 657.719 121.865ZM655.014 111.973C655.014 113.125 654.828 114.206 654.457 115.215C654.092 116.224 653.533 117.113 652.777 117.881C652.029 118.643 651.104 119.212 650.004 119.59L648.705 117.607C649.649 117.288 650.44 116.833 651.078 116.24C651.723 115.648 652.198 114.987 652.504 114.258C652.816 113.522 652.976 112.76 652.982 111.973V110.801H655.014V111.973ZM655.521 111.953C655.521 112.682 655.668 113.385 655.961 114.062C656.26 114.733 656.716 115.342 657.328 115.889C657.94 116.436 658.702 116.862 659.613 117.168L658.383 119.121C657.309 118.77 656.404 118.236 655.668 117.52C654.939 116.797 654.392 115.96 654.027 115.01C653.669 114.053 653.493 113.034 653.5 111.953V110.801H655.521V111.953ZM659.066 112.1H649.418V110.088H659.066V112.1ZM611.4 133.756C612.292 133.756 613.096 133.915 613.812 134.234C614.529 134.547 615.085 134.993 615.482 135.572C615.886 136.145 616.088 136.799 616.088 137.535C616.088 138.264 615.886 138.915 615.482 139.488C615.085 140.061 614.529 140.51 613.812 140.836C613.096 141.155 612.292 141.314 611.4 141.314C610.508 141.314 609.708 141.155 608.998 140.836C608.288 140.51 607.732 140.061 607.328 139.488C606.924 138.915 606.723 138.264 606.723 137.535C606.723 136.799 606.924 136.145 607.328 135.572C607.732 134.993 608.285 134.547 608.988 134.234C609.698 133.915 610.502 133.756 611.4 133.756ZM611.4 135.758C610.958 135.758 610.564 135.826 610.219 135.963C609.88 136.1 609.613 136.305 609.418 136.578C609.229 136.845 609.135 137.164 609.135 137.535C609.135 137.9 609.229 138.212 609.418 138.473C609.613 138.733 609.88 138.935 610.219 139.078C610.564 139.215 610.958 139.283 611.4 139.283C611.856 139.283 612.26 139.215 612.611 139.078C612.963 138.935 613.236 138.733 613.432 138.473C613.627 138.212 613.725 137.9 613.725 137.535C613.725 137.164 613.627 136.845 613.432 136.578C613.236 136.305 612.963 136.1 612.611 135.963C612.26 135.826 611.856 135.758 611.4 135.758ZM612.758 150.279H610.258V143.102H612.758V150.279ZM620.58 150.787H618.1V133.043H620.58V150.787ZM605.639 142.389C607.709 142.389 609.704 142.346 611.625 142.262C613.552 142.177 615.359 142.008 617.045 141.754L617.201 143.58C616.075 143.808 614.903 143.98 613.686 144.098C612.468 144.208 611.322 144.286 610.248 144.332C609.18 144.378 607.95 144.41 606.557 144.43C606.439 144.423 606.339 144.423 606.254 144.43C606.169 144.43 606.068 144.43 605.951 144.43L605.639 142.389ZM630.082 146.041H627.572V142.115H630.082V146.041ZM637.943 146.471H635.443V133.043H637.943V146.471ZM638.334 150.494H625.072V148.482H638.334V150.494ZM627.582 149.02H625.072V145.182H627.582V149.02ZM622.816 140.924C625.186 140.904 627.27 140.862 629.066 140.797C630.863 140.725 632.589 140.585 634.242 140.377L634.369 142.164C632.65 142.451 630.85 142.646 628.969 142.75C627.094 142.848 625.141 142.893 623.109 142.887L622.816 140.924ZM636.01 145.055H632.045V143.355H636.01V145.055ZM628.598 133.639C629.451 133.639 630.215 133.772 630.893 134.039C631.57 134.306 632.097 134.684 632.475 135.172C632.852 135.654 633.041 136.204 633.041 136.822C633.041 137.454 632.852 138.004 632.475 138.473C632.097 138.941 631.57 139.309 630.893 139.576C630.222 139.837 629.457 139.967 628.598 139.967C627.725 139.967 626.951 139.837 626.273 139.576C625.603 139.309 625.079 138.941 624.701 138.473C624.324 138.004 624.135 137.454 624.135 136.822C624.135 136.204 624.324 135.65 624.701 135.162C625.079 134.674 625.606 134.299 626.283 134.039C626.96 133.772 627.732 133.639 628.598 133.639ZM628.598 135.465C628.174 135.465 627.807 135.517 627.494 135.621C627.182 135.725 626.934 135.882 626.752 136.09C626.576 136.292 626.492 136.536 626.498 136.822C626.492 137.109 626.576 137.353 626.752 137.555C626.934 137.757 627.182 137.91 627.494 138.014C627.807 138.118 628.174 138.17 628.598 138.17C629.008 138.17 629.366 138.118 629.672 138.014C629.984 137.91 630.229 137.757 630.404 137.555C630.58 137.353 630.668 137.109 630.668 136.822C630.668 136.542 630.58 136.298 630.404 136.09C630.229 135.882 629.984 135.725 629.672 135.621C629.366 135.517 629.008 135.465 628.598 135.465ZM647.25 146.715H644.77V143.814H647.25V146.715ZM655.102 150.797H652.631V133.004H655.102V150.797ZM640.951 145.777C643.165 145.764 645.111 145.729 646.791 145.67C648.477 145.605 650.098 145.468 651.654 145.26L651.811 147.105C650.092 147.405 648.324 147.6 646.508 147.691C644.691 147.776 642.715 147.818 640.58 147.818L640.248 145.777H640.951ZM651.4 136.959H640.6V135.006H651.4V136.959ZM645.99 137.662C646.863 137.662 647.637 137.802 648.314 138.082C648.998 138.355 649.525 138.746 649.896 139.254C650.274 139.762 650.463 140.344 650.463 141.002C650.463 141.653 650.274 142.232 649.896 142.74C649.525 143.242 648.998 143.632 648.314 143.912C647.637 144.192 646.863 144.332 645.99 144.332C645.131 144.332 644.366 144.192 643.695 143.912C643.025 143.632 642.501 143.242 642.123 142.74C641.752 142.232 641.566 141.653 641.566 141.002C641.566 140.344 641.752 139.762 642.123 139.254C642.501 138.746 643.025 138.355 643.695 138.082C644.366 137.802 645.131 137.662 645.99 137.662ZM645.99 139.547C645.587 139.547 645.229 139.605 644.916 139.723C644.61 139.833 644.369 139.999 644.193 140.221C644.018 140.442 643.93 140.702 643.93 141.002C643.93 141.308 644.014 141.568 644.184 141.783C644.359 141.992 644.604 142.154 644.916 142.271C645.229 142.382 645.587 142.438 645.99 142.438C646.407 142.438 646.775 142.382 647.094 142.271C647.413 142.154 647.657 141.992 647.826 141.783C647.995 141.568 648.08 141.308 648.08 141.002C648.08 140.702 647.995 140.442 647.826 140.221C647.657 139.999 647.413 139.833 647.094 139.723C646.775 139.605 646.407 139.547 645.99 139.547ZM647.27 136.119H644.77V133.092H647.27V136.119ZM611.83 167.072H609.34V157.043H611.83V167.072ZM611.83 174.602H599.926V167.883H611.83V174.602ZM602.377 172.6H609.389V169.855H602.377V172.6ZM603.256 159.406C603.249 160.539 603.054 161.594 602.67 162.57C602.292 163.547 601.716 164.4 600.941 165.129C600.173 165.858 599.229 166.398 598.109 166.75L596.879 164.787C597.842 164.494 598.646 164.071 599.291 163.518C599.942 162.964 600.417 162.336 600.717 161.633C601.023 160.923 601.179 160.181 601.186 159.406V157.688H603.256V159.406ZM603.773 159.406C603.767 160.148 603.913 160.852 604.213 161.516C604.519 162.18 604.981 162.775 605.6 163.303C606.225 163.824 607.003 164.227 607.934 164.514L606.723 166.428C605.616 166.096 604.685 165.588 603.93 164.904C603.181 164.214 602.618 163.404 602.24 162.473C601.869 161.542 601.684 160.52 601.684 159.406V157.688H603.773V159.406ZM620.004 158.205C620.928 158.205 621.765 158.394 622.514 158.771C623.269 159.143 623.858 159.66 624.281 160.324C624.711 160.988 624.926 161.737 624.926 162.57C624.926 163.41 624.711 164.162 624.281 164.826C623.858 165.484 623.269 166.001 622.514 166.379C621.765 166.75 620.928 166.936 620.004 166.936C619.073 166.936 618.23 166.75 617.475 166.379C616.726 166.001 616.137 165.484 615.707 164.826C615.277 164.162 615.062 163.41 615.062 162.57C615.062 161.737 615.277 160.988 615.707 160.324C616.137 159.66 616.726 159.143 617.475 158.771C618.23 158.394 619.073 158.205 620.004 158.205ZM620.004 160.354C619.529 160.36 619.105 160.451 618.734 160.627C618.363 160.796 618.07 161.05 617.855 161.389C617.641 161.727 617.533 162.121 617.533 162.57C617.533 163.033 617.641 163.43 617.855 163.762C618.07 164.087 618.363 164.338 618.734 164.514C619.105 164.689 619.529 164.781 620.004 164.787C620.479 164.781 620.906 164.689 621.283 164.514C621.667 164.338 621.964 164.087 622.172 163.762C622.387 163.43 622.494 163.033 622.494 162.57C622.494 162.121 622.387 161.727 622.172 161.389C621.964 161.05 621.667 160.796 621.283 160.627C620.906 160.451 620.479 160.36 620.004 160.354ZM629.174 174.846H626.703V157.004H629.174V174.846ZM614.32 169.182C616.443 169.182 618.445 169.146 620.326 169.074C622.214 169.003 624.005 168.85 625.697 168.615L625.873 170.402C624.656 170.643 623.393 170.822 622.084 170.939C620.775 171.05 619.542 171.122 618.383 171.154C617.224 171.187 615.967 171.203 614.613 171.203L614.32 169.182ZM641.488 160.49H631.908V158.518H641.488V160.49ZM631.43 165.734C633.467 165.721 635.372 165.682 637.143 165.617C638.92 165.546 640.577 165.415 642.113 165.227L642.299 167.053C640.704 167.326 639.024 167.508 637.26 167.6C635.502 167.684 633.646 167.727 631.693 167.727L631.43 165.734ZM635.766 166.135H633.354V160.012H635.766V166.135ZM640.033 166.135H637.65V160.012H640.033V166.135ZM645.629 170.119H643.139V157.043H645.629V170.119ZM648.031 164.104H644.906V162.033H648.031V164.104ZM646.264 174.494H634.096V172.482H646.264V174.494ZM636.586 173.039H634.096V168.889H636.586V173.039ZM661.957 163.371H658.539V161.35H661.957V163.371ZM663.793 167.58H661.312V157.004H663.793V167.58ZM657.719 167.971C658.982 167.971 660.072 168.107 660.99 168.381C661.908 168.654 662.611 169.048 663.1 169.562C663.594 170.07 663.845 170.682 663.852 171.398C663.845 172.108 663.594 172.717 663.1 173.225C662.611 173.739 661.908 174.133 660.99 174.406C660.072 174.68 658.982 174.82 657.719 174.826C656.462 174.82 655.375 174.68 654.457 174.406C653.546 174.133 652.842 173.739 652.348 173.225C651.859 172.717 651.615 172.108 651.615 171.398C651.615 170.682 651.859 170.07 652.348 169.562C652.842 169.048 653.546 168.654 654.457 168.381C655.375 168.107 656.462 167.971 657.719 167.971ZM657.719 169.865C656.924 169.865 656.26 169.924 655.727 170.041C655.193 170.152 654.786 170.321 654.506 170.549C654.226 170.777 654.086 171.06 654.086 171.398C654.086 171.73 654.226 172.01 654.506 172.238C654.786 172.466 655.193 172.639 655.727 172.756C656.267 172.867 656.931 172.922 657.719 172.922C658.513 172.922 659.18 172.867 659.721 172.756C660.268 172.639 660.678 172.466 660.951 172.238C661.225 172.01 661.361 171.73 661.361 171.398C661.361 171.06 661.225 170.777 660.951 170.549C660.678 170.321 660.268 170.152 659.721 170.041C659.18 169.924 658.513 169.865 657.719 169.865ZM655.014 159.973C655.014 161.125 654.828 162.206 654.457 163.215C654.092 164.224 653.533 165.113 652.777 165.881C652.029 166.643 651.104 167.212 650.004 167.59L648.705 165.607C649.649 165.288 650.44 164.833 651.078 164.24C651.723 163.648 652.198 162.987 652.504 162.258C652.816 161.522 652.976 160.76 652.982 159.973V158.801H655.014V159.973ZM655.521 159.953C655.521 160.682 655.668 161.385 655.961 162.062C656.26 162.733 656.716 163.342 657.328 163.889C657.94 164.436 658.702 164.862 659.613 165.168L658.383 167.121C657.309 166.77 656.404 166.236 655.668 165.52C654.939 164.797 654.392 163.96 654.027 163.01C653.669 162.053 653.493 161.034 653.5 159.953V158.801H655.521V159.953ZM659.066 160.1H649.418V158.088H659.066V160.1Z" fill="white"/>
<path d="M217.792 167H214.843V155.652H214.765L211.533 157.703V155.086L215.029 152.859H217.792V167ZM224.511 167.176C224.218 167.176 223.945 167.104 223.691 166.961C223.437 166.811 223.235 166.609 223.085 166.355C222.942 166.102 222.874 165.825 222.88 165.525C222.874 165.232 222.942 164.962 223.085 164.715C223.235 164.467 223.437 164.272 223.691 164.129C223.945 163.986 224.218 163.914 224.511 163.914C224.798 163.914 225.068 163.986 225.322 164.129C225.576 164.272 225.774 164.471 225.917 164.725C226.067 164.972 226.145 165.239 226.152 165.525C226.145 165.825 226.067 166.102 225.917 166.355C225.774 166.609 225.576 166.811 225.322 166.961C225.068 167.104 224.798 167.176 224.511 167.176ZM240.592 167.195C239.544 167.189 238.59 166.958 237.73 166.502C236.871 166.046 236.181 165.301 235.66 164.266C235.139 163.23 234.879 161.893 234.879 160.252C234.879 158.683 235.12 157.329 235.602 156.189C236.083 155.044 236.76 154.171 237.633 153.572C238.505 152.967 239.527 152.664 240.699 152.664C241.624 152.664 242.454 152.843 243.189 153.201C243.932 153.559 244.524 154.054 244.967 154.686C245.416 155.311 245.689 156.01 245.787 156.785H242.887C242.809 156.453 242.669 156.167 242.467 155.926C242.271 155.678 242.021 155.493 241.715 155.369C241.415 155.245 241.077 155.184 240.699 155.184C240.061 155.184 239.524 155.366 239.088 155.73C238.658 156.089 238.329 156.606 238.102 157.283C237.88 157.954 237.766 158.755 237.76 159.686H237.877C238.098 159.275 238.391 158.921 238.756 158.621C239.127 158.315 239.547 158.084 240.016 157.928C240.484 157.771 240.979 157.693 241.5 157.693C242.34 157.693 243.095 157.892 243.766 158.289C244.443 158.68 244.973 159.223 245.357 159.92C245.742 160.61 245.934 161.391 245.934 162.264C245.934 163.221 245.709 164.074 245.26 164.822C244.817 165.564 244.189 166.147 243.375 166.57C242.568 166.987 241.64 167.195 240.592 167.195ZM240.572 164.881C241.048 164.881 241.477 164.77 241.861 164.549C242.245 164.321 242.545 164.015 242.76 163.631C242.975 163.247 243.082 162.82 243.082 162.352C243.082 161.883 242.978 161.456 242.77 161.072C242.561 160.688 242.262 160.389 241.871 160.174C241.487 159.952 241.061 159.842 240.592 159.842C240.123 159.842 239.697 159.952 239.312 160.174C238.928 160.395 238.622 160.701 238.395 161.092C238.167 161.476 238.053 161.899 238.053 162.361C238.053 162.817 238.163 163.237 238.385 163.621C238.606 164.005 238.906 164.311 239.283 164.539C239.667 164.767 240.097 164.881 240.572 164.881ZM253.18 167.195C252.21 167.195 251.334 167.016 250.553 166.658C249.778 166.3 249.166 165.805 248.717 165.174C248.268 164.536 248.036 163.816 248.023 163.016H250.865C250.891 163.374 251.008 163.696 251.217 163.982C251.432 164.262 251.712 164.484 252.057 164.646C252.402 164.803 252.776 164.881 253.18 164.881C253.668 164.881 254.101 164.773 254.479 164.559C254.856 164.344 255.152 164.048 255.367 163.67C255.582 163.286 255.689 162.853 255.689 162.371C255.689 161.876 255.579 161.437 255.357 161.053C255.143 160.669 254.84 160.369 254.449 160.154C254.065 159.933 253.626 159.822 253.131 159.822C252.604 159.816 252.154 159.913 251.783 160.115C251.419 160.311 251.132 160.607 250.924 161.004H248.258L249.029 152.859H257.73V155.271H251.451L251.061 158.836H251.168C251.435 158.478 251.822 158.188 252.33 157.967C252.838 157.745 253.398 157.635 254.01 157.635C254.863 157.635 255.631 157.833 256.314 158.23C257.005 158.621 257.545 159.174 257.936 159.891C258.326 160.6 258.521 161.401 258.521 162.293C258.521 163.237 258.297 164.08 257.848 164.822C257.398 165.564 256.77 166.147 255.963 166.57C255.156 166.987 254.228 167.195 253.18 167.195ZM275.27 168.797H272.867V151.004H275.27V168.797ZM273.59 159.754H270.562V157.752H273.59V159.754ZM267.672 153.221C267.665 154.965 267.46 156.551 267.057 157.977C266.66 159.396 265.982 160.711 265.025 161.922C264.068 163.126 262.783 164.197 261.168 165.135L259.723 163.426C261.077 162.625 262.161 161.746 262.975 160.789C263.795 159.832 264.384 158.777 264.742 157.625C265.107 156.473 265.292 155.167 265.299 153.709V153.221H267.672ZM266.021 155.203H260.621V153.221H266.021V155.203ZM271.246 168.006H268.922V151.473H271.246V168.006ZM295.953 162.312H293.463V151.004H295.953V162.312ZM298.355 157.635H295.25V155.564H298.355V157.635ZM290.143 162.469C291.36 162.469 292.418 162.596 293.316 162.85C294.221 163.097 294.918 163.462 295.406 163.943C295.901 164.425 296.148 164.992 296.148 165.643C296.148 166.294 295.901 166.854 295.406 167.322C294.918 167.798 294.221 168.162 293.316 168.416C292.418 168.67 291.36 168.797 290.143 168.797C288.906 168.797 287.835 168.67 286.93 168.416C286.025 168.162 285.331 167.798 284.85 167.322C284.368 166.854 284.127 166.294 284.127 165.643C284.127 164.985 284.368 164.419 284.85 163.943C285.331 163.462 286.025 163.097 286.93 162.85C287.835 162.596 288.906 162.469 290.143 162.469ZM290.143 164.373C289.355 164.373 288.701 164.419 288.18 164.51C287.659 164.601 287.262 164.741 286.988 164.93C286.721 165.118 286.591 165.356 286.598 165.643C286.591 165.923 286.721 166.16 286.988 166.355C287.262 166.544 287.662 166.691 288.189 166.795C288.723 166.893 289.374 166.941 290.143 166.941C290.904 166.941 291.546 166.893 292.066 166.795C292.587 166.691 292.978 166.544 293.238 166.355C293.505 166.16 293.639 165.923 293.639 165.643C293.639 165.356 293.505 165.118 293.238 164.93C292.978 164.741 292.587 164.601 292.066 164.51C291.552 164.419 290.911 164.373 290.143 164.373ZM292.398 154.666H281.842V152.723H292.398V154.666ZM287.135 155.262C287.981 155.262 288.733 155.398 289.391 155.672C290.055 155.939 290.572 156.316 290.943 156.805C291.321 157.286 291.51 157.84 291.51 158.465C291.51 159.096 291.324 159.653 290.953 160.135C290.582 160.61 290.064 160.981 289.4 161.248C288.743 161.515 287.988 161.648 287.135 161.648C286.269 161.648 285.501 161.515 284.83 161.248C284.166 160.981 283.648 160.61 283.277 160.135C282.906 159.653 282.721 159.096 282.721 158.465C282.721 157.84 282.906 157.286 283.277 156.805C283.648 156.316 284.166 155.939 284.83 155.672C285.501 155.398 286.269 155.262 287.135 155.262ZM287.135 157.078C286.731 157.085 286.38 157.14 286.08 157.244C285.781 157.348 285.549 157.505 285.387 157.713C285.224 157.921 285.143 158.172 285.143 158.465C285.143 158.751 285.224 158.995 285.387 159.197C285.549 159.393 285.781 159.542 286.08 159.646C286.38 159.751 286.731 159.799 287.135 159.793C287.532 159.799 287.88 159.751 288.18 159.646C288.486 159.542 288.723 159.393 288.893 159.197C289.062 158.995 289.146 158.751 289.146 158.465C289.146 158.172 289.062 157.921 288.893 157.713C288.723 157.505 288.486 157.348 288.18 157.244C287.88 157.14 287.532 157.085 287.135 157.078ZM288.375 153.777H285.885V150.916H288.375V153.777ZM313.307 157.986H301.148V151.727H313.307V157.986ZM303.59 156.033H310.855V153.67H303.59V156.033ZM315.357 161.688H299.146V159.686H315.357V161.688ZM308.473 160.301H305.963V157.557H308.473V160.301ZM313.375 168.797H310.895V164.949H300.934V162.996H313.375V168.797ZM332.682 166.727H316.432V164.705H332.682V166.727ZM325.797 165.291H323.287V160.75H325.797V165.291ZM325.318 154.002C325.318 155.252 325.025 156.398 324.439 157.439C323.86 158.475 323.02 159.347 321.92 160.057C320.82 160.766 319.531 161.258 318.053 161.531L317.076 159.559C318.339 159.357 319.433 158.976 320.357 158.416C321.288 157.856 321.995 157.195 322.477 156.434C322.965 155.665 323.209 154.855 323.209 154.002V153.357H325.318V154.002ZM325.826 154.002C325.826 154.855 326.07 155.659 326.559 156.414C327.053 157.169 327.773 157.82 328.717 158.367C329.661 158.908 330.784 159.272 332.086 159.461L331.109 161.424C329.599 161.163 328.287 160.685 327.174 159.988C326.067 159.292 325.214 158.432 324.615 157.41C324.023 156.388 323.73 155.252 323.736 154.002V153.357H325.826V154.002ZM331.266 154.393H317.77V152.371H331.266V154.393ZM339.781 155.037C339.775 156.541 339.589 157.957 339.225 159.285C338.867 160.607 338.316 161.782 337.574 162.811C336.839 163.833 335.93 164.611 334.85 165.145L333.316 163.123C334.293 162.68 335.113 162.036 335.777 161.189C336.441 160.343 336.936 159.396 337.262 158.348C337.587 157.293 337.753 156.189 337.76 155.037V152.381H339.781V155.037ZM340.24 155.037C340.24 156.144 340.396 157.202 340.709 158.211C341.021 159.22 341.49 160.132 342.115 160.945C342.747 161.753 343.525 162.378 344.449 162.82L342.945 164.803C341.904 164.288 341.031 163.536 340.328 162.547C339.632 161.557 339.111 160.424 338.766 159.148C338.421 157.872 338.251 156.502 338.258 155.037V152.381H340.24V155.037ZM347.73 168.797H345.23V151.004H347.73V168.797ZM350.367 159.988H347.184V157.869H350.367V159.988ZM210.175 188.881L215.263 184.203C215.758 183.721 216.145 183.321 216.425 183.002C216.705 182.683 216.92 182.364 217.07 182.045C217.219 181.726 217.294 181.384 217.294 181.02C217.294 180.616 217.197 180.261 217.001 179.955C216.806 179.649 216.539 179.415 216.201 179.252C215.862 179.083 215.478 178.998 215.048 178.998C214.606 178.998 214.218 179.086 213.886 179.262C213.561 179.438 213.307 179.691 213.124 180.023C212.942 180.355 212.851 180.746 212.851 181.195H210.058C210.058 180.284 210.266 179.486 210.683 178.803C211.1 178.119 211.689 177.592 212.451 177.221C213.212 176.85 214.088 176.664 215.078 176.664C216.074 176.664 216.953 176.84 217.714 177.191C218.482 177.543 219.075 178.035 219.492 178.666C219.908 179.298 220.117 180.02 220.117 180.834C220.117 181.394 220.009 181.931 219.794 182.445C219.586 182.953 219.215 183.523 218.681 184.154C218.147 184.779 217.395 185.531 216.425 186.41L214.267 188.49V188.588H220.322V191H210.185L210.175 188.881ZM224.511 191.176C224.218 191.176 223.945 191.104 223.691 190.961C223.437 190.811 223.235 190.609 223.085 190.355C222.942 190.102 222.874 189.825 222.88 189.525C222.874 189.232 222.942 188.962 223.085 188.715C223.235 188.467 223.437 188.272 223.691 188.129C223.945 187.986 224.218 187.914 224.511 187.914C224.798 187.914 225.068 187.986 225.322 188.129C225.576 188.272 225.774 188.471 225.917 188.725C226.067 188.972 226.145 189.239 226.152 189.525C226.145 189.825 226.067 190.102 225.917 190.355C225.774 190.609 225.576 190.811 225.322 190.961C225.068 191.104 224.798 191.176 224.511 191.176ZM235.094 188.881L240.182 184.203C240.676 183.721 241.064 183.321 241.344 183.002C241.624 182.683 241.839 182.364 241.988 182.045C242.138 181.726 242.213 181.384 242.213 181.02C242.213 180.616 242.115 180.261 241.92 179.955C241.725 179.649 241.458 179.415 241.119 179.252C240.781 179.083 240.396 178.998 239.967 178.998C239.524 178.998 239.137 179.086 238.805 179.262C238.479 179.438 238.225 179.691 238.043 180.023C237.861 180.355 237.77 180.746 237.77 181.195H234.977C234.977 180.284 235.185 179.486 235.602 178.803C236.018 178.119 236.607 177.592 237.369 177.221C238.131 176.85 239.007 176.664 239.996 176.664C240.992 176.664 241.871 176.84 242.633 177.191C243.401 177.543 243.993 178.035 244.41 178.666C244.827 179.298 245.035 180.02 245.035 180.834C245.035 181.394 244.928 181.931 244.713 182.445C244.505 182.953 244.133 183.523 243.6 184.154C243.066 184.779 242.314 185.531 241.344 186.41L239.186 188.49V188.588H245.24V191H235.104L235.094 188.881ZM252.516 191.195C251.546 191.195 250.67 191.016 249.889 190.658C249.114 190.3 248.502 189.805 248.053 189.174C247.604 188.536 247.372 187.816 247.359 187.016H250.201C250.227 187.374 250.344 187.696 250.553 187.982C250.768 188.262 251.048 188.484 251.393 188.646C251.738 188.803 252.112 188.881 252.516 188.881C253.004 188.881 253.437 188.773 253.814 188.559C254.192 188.344 254.488 188.048 254.703 187.67C254.918 187.286 255.025 186.853 255.025 186.371C255.025 185.876 254.915 185.437 254.693 185.053C254.479 184.669 254.176 184.369 253.785 184.154C253.401 183.933 252.962 183.822 252.467 183.822C251.939 183.816 251.49 183.913 251.119 184.115C250.755 184.311 250.468 184.607 250.26 185.004H247.594L248.365 176.859H257.066V179.271H250.787L250.396 182.836H250.504C250.771 182.478 251.158 182.188 251.666 181.967C252.174 181.745 252.734 181.635 253.346 181.635C254.199 181.635 254.967 181.833 255.65 182.23C256.34 182.621 256.881 183.174 257.271 183.891C257.662 184.6 257.857 185.401 257.857 186.293C257.857 187.237 257.633 188.08 257.184 188.822C256.734 189.564 256.106 190.147 255.299 190.57C254.492 190.987 253.564 191.195 252.516 191.195ZM274.605 192.797H272.203V175.004H274.605V192.797ZM272.926 183.754H269.898V181.752H272.926V183.754ZM267.008 177.221C267.001 178.965 266.796 180.551 266.393 181.977C265.995 183.396 265.318 184.711 264.361 185.922C263.404 187.126 262.118 188.197 260.504 189.135L259.059 187.426C260.413 186.625 261.497 185.746 262.311 184.789C263.131 183.832 263.72 182.777 264.078 181.625C264.443 180.473 264.628 179.167 264.635 177.709V177.221H267.008ZM265.357 179.203H259.957V177.221H265.357V179.203ZM270.582 192.006H268.258V175.473H270.582V192.006ZM287.35 184.34H284.85V181.02H287.35V184.34ZM293.668 184.34H291.178V181.02H293.668V184.34ZM289.293 175.316C290.602 175.316 291.741 175.46 292.711 175.746C293.688 176.026 294.436 176.43 294.957 176.957C295.484 177.484 295.748 178.103 295.748 178.812C295.748 179.522 295.484 180.141 294.957 180.668C294.436 181.195 293.688 181.599 292.711 181.879C291.741 182.159 290.602 182.299 289.293 182.299C287.984 182.299 286.842 182.159 285.865 181.879C284.895 181.592 284.143 181.189 283.609 180.668C283.076 180.141 282.809 179.522 282.809 178.812C282.809 178.103 283.076 177.484 283.609 176.957C284.143 176.43 284.895 176.026 285.865 175.746C286.842 175.46 287.984 175.316 289.293 175.316ZM289.293 177.26C288.453 177.26 287.743 177.315 287.164 177.426C286.591 177.536 286.152 177.709 285.846 177.943C285.546 178.171 285.396 178.461 285.396 178.812C285.396 179.151 285.546 179.438 285.846 179.672C286.152 179.9 286.594 180.076 287.174 180.199C287.753 180.316 288.46 180.372 289.293 180.365C290.12 180.372 290.823 180.316 291.402 180.199C291.988 180.076 292.431 179.9 292.73 179.672C293.03 179.438 293.18 179.151 293.18 178.812C293.18 178.467 293.03 178.178 292.73 177.943C292.431 177.709 291.988 177.536 291.402 177.426C290.823 177.315 290.12 177.26 289.293 177.26ZM297.408 185.736H281.197V183.773H297.408V185.736ZM295.426 192.797H292.945V188.93H282.984V186.977H295.426V192.797ZM311.598 178.041H300.328V176.068H311.598V178.041ZM314.693 185.639H298.482V183.627H314.693V185.639ZM307.75 192.816H305.25V185.023H307.75V192.816ZM312.789 177.748C312.783 178.594 312.77 179.333 312.75 179.965C312.73 180.596 312.665 181.326 312.555 182.152C312.451 182.979 312.291 183.871 312.076 184.828L309.615 184.555C309.824 183.65 309.977 182.8 310.074 182.006C310.172 181.205 310.234 180.505 310.26 179.906C310.286 179.307 310.299 178.585 310.299 177.738V177.65V176.068H312.789V177.65V177.748ZM332.018 190.727H315.768V188.705H332.018V190.727ZM325.133 189.291H322.623V184.75H325.133V189.291ZM324.654 178.002C324.654 179.252 324.361 180.398 323.775 181.439C323.196 182.475 322.356 183.347 321.256 184.057C320.156 184.766 318.867 185.258 317.389 185.531L316.412 183.559C317.675 183.357 318.769 182.976 319.693 182.416C320.624 181.856 321.331 181.195 321.812 180.434C322.301 179.665 322.545 178.855 322.545 178.002V177.357H324.654V178.002ZM325.162 178.002C325.162 178.855 325.406 179.659 325.895 180.414C326.389 181.169 327.109 181.82 328.053 182.367C328.997 182.908 330.12 183.272 331.422 183.461L330.445 185.424C328.935 185.163 327.623 184.685 326.51 183.988C325.403 183.292 324.55 182.432 323.951 181.41C323.359 180.388 323.066 179.252 323.072 178.002V177.357H325.162V178.002ZM330.602 178.393H317.105V176.371H330.602V178.393ZM339.117 179.037C339.111 180.541 338.925 181.957 338.561 183.285C338.202 184.607 337.652 185.782 336.91 186.811C336.174 187.833 335.266 188.611 334.186 189.145L332.652 187.123C333.629 186.68 334.449 186.036 335.113 185.189C335.777 184.343 336.272 183.396 336.598 182.348C336.923 181.293 337.089 180.189 337.096 179.037V176.381H339.117V179.037ZM339.576 179.037C339.576 180.144 339.732 181.202 340.045 182.211C340.357 183.22 340.826 184.132 341.451 184.945C342.083 185.753 342.861 186.378 343.785 186.82L342.281 188.803C341.24 188.288 340.367 187.536 339.664 186.547C338.967 185.557 338.447 184.424 338.102 183.148C337.757 181.872 337.587 180.502 337.594 179.037V176.381H339.576V179.037ZM347.066 192.797H344.566V175.004H347.066V192.797ZM349.703 183.988H346.52V181.869H349.703V183.988Z" fill="white"/>
<path d="M791.777 192.18H775.537V190.148H791.777V192.18ZM789.922 188.908H777.5V186.916H789.922V188.908ZM789.824 184.494H779.971V187.922H777.5V182.502H789.824V184.494ZM783.613 193.244C784.896 193.244 785.999 193.371 786.924 193.625C787.848 193.879 788.558 194.253 789.053 194.748C789.548 195.236 789.798 195.822 789.805 196.506C789.798 197.202 789.548 197.798 789.053 198.293C788.564 198.788 787.855 199.162 786.924 199.416C785.999 199.67 784.896 199.797 783.613 199.797C782.318 199.797 781.204 199.67 780.273 199.416C779.342 199.162 778.626 198.788 778.125 198.293C777.63 197.798 777.383 197.202 777.383 196.506C777.383 195.822 777.63 195.236 778.125 194.748C778.626 194.253 779.342 193.879 780.273 193.625C781.204 193.371 782.318 193.244 783.613 193.244ZM783.613 195.139C782.793 195.145 782.109 195.201 781.562 195.305C781.016 195.402 780.602 195.552 780.322 195.754C780.049 195.956 779.915 196.206 779.922 196.506C779.915 196.818 780.049 197.079 780.322 197.287C780.602 197.495 781.012 197.648 781.553 197.746C782.1 197.844 782.786 197.896 783.613 197.902C784.427 197.896 785.107 197.844 785.654 197.746C786.201 197.648 786.611 197.495 786.885 197.287C787.158 197.079 787.295 196.818 787.295 196.506C787.295 196.206 787.155 195.956 786.875 195.754C786.602 195.552 786.191 195.402 785.645 195.305C785.098 195.201 784.421 195.145 783.613 195.139ZM797.217 194.035H804.609V192.141H807.08V199.602H794.756V192.141H797.217V194.035ZM804.609 197.59V195.939H797.217V197.59H804.609ZM806.172 184.729H794.805V182.736H806.172V184.729ZM809.072 190.959H792.822V188.986H809.072V190.959ZM807.148 184.152C807.148 185.142 807.119 186.021 807.061 186.789C807.002 187.551 806.859 188.436 806.631 189.445L804.131 189.602C804.287 188.905 804.404 188.251 804.482 187.639C804.561 187.027 804.609 186.483 804.629 186.008C804.648 185.533 804.661 184.966 804.668 184.309V184.152V182.736H807.148V184.152ZM821.719 194.68H819.229V190.891H821.719V194.68ZM820.488 183.078C821.419 183.078 822.259 183.264 823.008 183.635C823.757 184.006 824.342 184.523 824.766 185.188C825.195 185.845 825.41 186.594 825.41 187.434C825.41 188.273 825.195 189.025 824.766 189.689C824.342 190.347 823.757 190.861 823.008 191.232C822.259 191.597 821.419 191.779 820.488 191.779C819.557 191.779 818.714 191.597 817.959 191.232C817.21 190.861 816.621 190.347 816.191 189.689C815.762 189.025 815.547 188.273 815.547 187.434C815.547 186.6 815.762 185.852 816.191 185.188C816.621 184.523 817.21 184.006 817.959 183.635C818.714 183.264 819.557 183.078 820.488 183.078ZM820.488 185.217C820.013 185.217 819.59 185.305 819.219 185.48C818.848 185.65 818.555 185.904 818.34 186.242C818.125 186.574 818.018 186.971 818.018 187.434C818.018 187.883 818.125 188.277 818.34 188.615C818.555 188.947 818.848 189.204 819.219 189.387C819.596 189.569 820.02 189.66 820.488 189.66C820.957 189.66 821.383 189.569 821.768 189.387C822.152 189.204 822.448 188.947 822.656 188.615C822.871 188.277 822.979 187.883 822.979 187.434C822.979 186.971 822.871 186.574 822.656 186.242C822.448 185.904 822.152 185.65 821.768 185.48C821.39 185.305 820.964 185.217 820.488 185.217ZM829.658 199.846H827.188V182.004H829.658V199.846ZM814.805 194.211C816.966 194.211 818.981 194.175 820.85 194.104C822.718 194.032 824.495 193.879 826.182 193.645L826.357 195.441C825.146 195.669 823.893 195.842 822.598 195.959C821.309 196.07 820.114 196.141 819.014 196.174C817.913 196.206 816.621 196.226 815.137 196.232H815.098L814.805 194.211Z" fill="#1D1D1D"/>
<path d="M792.061 47H789.111V35.6523H789.033L785.801 37.7031V35.0859L789.297 32.8594H792.061V47ZM796.104 39.2461C796.436 38.8945 796.803 38.6309 797.207 38.4551C797.617 38.2728 798.05 38.1816 798.506 38.1816C798.857 38.1816 799.196 38.2272 799.521 38.3184C799.854 38.403 800.28 38.5397 800.801 38.7285C801.283 38.9108 801.693 39.0508 802.031 39.1484C802.37 39.2396 802.718 39.2852 803.076 39.2852C803.538 39.2852 803.968 39.1973 804.365 39.0215C804.769 38.8392 805.13 38.5723 805.449 38.2207V40.5938C805.117 40.9453 804.746 41.2122 804.336 41.3945C803.926 41.5768 803.49 41.668 803.027 41.668C802.676 41.668 802.334 41.6224 802.002 41.5312C801.676 41.4401 801.257 41.3001 800.742 41.1113C800.247 40.929 799.831 40.7923 799.492 40.7012C799.16 40.6035 798.815 40.5547 798.457 40.5547C797.526 40.5612 796.742 40.9225 796.104 41.6387V39.2461ZM813.613 47.1953C812.643 47.1953 811.768 47.0163 810.986 46.6582C810.212 46.3001 809.6 45.8053 809.15 45.1738C808.701 44.5358 808.47 43.8164 808.457 43.0156H811.299C811.325 43.3737 811.442 43.696 811.65 43.9824C811.865 44.2624 812.145 44.4837 812.49 44.6465C812.835 44.8027 813.21 44.8809 813.613 44.8809C814.102 44.8809 814.535 44.7734 814.912 44.5586C815.29 44.3438 815.586 44.0475 815.801 43.6699C816.016 43.2858 816.123 42.8529 816.123 42.3711C816.123 41.8763 816.012 41.4368 815.791 41.0527C815.576 40.6686 815.273 40.3691 814.883 40.1543C814.499 39.9329 814.059 39.8223 813.564 39.8223C813.037 39.8158 812.588 39.9134 812.217 40.1152C811.852 40.3105 811.566 40.6068 811.357 41.0039H808.691L809.463 32.8594H818.164V35.2715H811.885L811.494 38.8359H811.602C811.868 38.4779 812.256 38.1882 812.764 37.9668C813.271 37.7454 813.831 37.6348 814.443 37.6348C815.296 37.6348 816.064 37.8333 816.748 38.2305C817.438 38.6211 817.979 39.1745 818.369 39.8906C818.76 40.6003 818.955 41.401 818.955 42.293C818.955 43.237 818.73 44.0801 818.281 44.8223C817.832 45.5645 817.204 46.1471 816.396 46.5703C815.589 46.987 814.661 47.1953 813.613 47.1953ZM821.982 51.1211H819.912L820.879 45.5645H823.672L821.982 51.1211ZM785.83 67.8164H783.34V55.043H785.83V67.8164ZM786.318 72.4941H773.926V70.4824H786.318V72.4941ZM776.445 71.3027H773.926V66.5371H776.445V71.3027ZM776.094 56.166C776.992 56.166 777.812 56.3581 778.555 56.7422C779.303 57.1263 779.889 57.6602 780.312 58.3438C780.742 59.0273 780.957 59.7923 780.957 60.6387C780.957 61.5046 780.742 62.2826 780.312 62.9727C779.889 63.6562 779.307 64.1934 778.564 64.584C777.822 64.9681 776.999 65.1602 776.094 65.1602C775.189 65.1602 774.365 64.9681 773.623 64.584C772.887 64.1934 772.305 63.6562 771.875 62.9727C771.445 62.2826 771.23 61.5046 771.23 60.6387C771.23 59.7923 771.445 59.0273 771.875 58.3438C772.305 57.6602 772.887 57.1263 773.623 56.7422C774.365 56.3581 775.189 56.166 776.094 56.166ZM776.094 58.334C775.632 58.334 775.215 58.4284 774.844 58.6172C774.479 58.7995 774.189 59.0664 773.975 59.418C773.766 59.763 773.662 60.1699 773.662 60.6387C773.662 61.127 773.766 61.5469 773.975 61.8984C774.189 62.25 774.479 62.5202 774.844 62.709C775.215 62.8978 775.632 62.9889 776.094 62.9824C776.549 62.9889 776.956 62.8978 777.314 62.709C777.679 62.5202 777.965 62.25 778.174 61.8984C778.382 61.5469 778.486 61.127 778.486 60.6387C778.486 60.1699 778.382 59.763 778.174 59.418C777.965 59.0664 777.679 58.7995 777.314 58.6172C776.95 58.4284 776.543 58.334 776.094 58.334ZM794.609 59.8574C794.603 61.2572 794.404 62.5918 794.014 63.8613C793.623 65.1309 793.047 66.2572 792.285 67.2402C791.523 68.2168 790.605 68.9557 789.531 69.457L788.105 67.4941C789.062 67.0645 789.876 66.446 790.547 65.6387C791.224 64.8249 791.732 63.9199 792.07 62.9238C792.415 61.9212 792.588 60.8991 792.588 59.8574V57.7871H794.609V59.8574ZM795.127 59.8574C795.127 60.8535 795.296 61.8236 795.635 62.7676C795.973 63.7051 796.475 64.5547 797.139 65.3164C797.809 66.0716 798.626 66.6478 799.59 67.0449L798.242 68.998C797.142 68.5358 796.211 67.8424 795.449 66.918C794.688 65.987 794.115 64.916 793.73 63.7051C793.346 62.4941 793.158 61.2116 793.164 59.8574V57.7871H795.127V59.8574ZM798.857 58.7734H788.818V56.7422H798.857V58.7734ZM803.125 72.7969H800.596V55.0039H803.125V72.7969ZM811.895 59.8574C811.888 61.2572 811.689 62.5918 811.299 63.8613C810.908 65.1309 810.332 66.2572 809.57 67.2402C808.809 68.2168 807.891 68.9557 806.816 69.457L805.391 67.4941C806.348 67.0645 807.161 66.446 807.832 65.6387C808.509 64.8249 809.017 63.9199 809.355 62.9238C809.701 61.9212 809.873 60.8991 809.873 59.8574V57.7871H811.895V59.8574ZM812.412 59.8574C812.412 60.8535 812.581 61.8236 812.92 62.7676C813.258 63.7051 813.76 64.5547 814.424 65.3164C815.094 66.0716 815.911 66.6478 816.875 67.0449L815.527 68.998C814.427 68.5358 813.496 67.8424 812.734 66.918C811.973 65.987 811.4 64.916 811.016 63.7051C810.632 62.4941 810.443 61.2116 810.449 59.8574V57.7871H812.412V59.8574ZM816.143 58.7734H806.104V56.7422H816.143V58.7734ZM820.41 72.7969H817.881V55.0039H820.41V72.7969ZM830.01 68.041H827.5V64.1152H830.01V68.041ZM837.871 68.4707H835.371V55.043H837.871V68.4707ZM838.262 72.4941H825V70.4824H838.262V72.4941ZM827.51 71.0195H825V67.1816H827.51V71.0195ZM822.744 62.9238C825.114 62.9043 827.197 62.862 828.994 62.7969C830.791 62.7253 832.516 62.5853 834.17 62.377L834.297 64.1641C832.578 64.4505 830.778 64.6458 828.896 64.75C827.021 64.8477 825.068 64.8932 823.037 64.8867L822.744 62.9238ZM835.938 67.0547H831.973V65.3555H835.938V67.0547ZM828.525 55.6387C829.378 55.6387 830.143 55.7721 830.82 56.0391C831.497 56.306 832.025 56.6836 832.402 57.1719C832.78 57.6536 832.969 58.2038 832.969 58.8223C832.969 59.4538 832.78 60.0039 832.402 60.4727C832.025 60.9414 831.497 61.3092 830.82 61.5762C830.15 61.8366 829.385 61.9668 828.525 61.9668C827.653 61.9668 826.878 61.8366 826.201 61.5762C825.531 61.3092 825.007 60.9414 824.629 60.4727C824.251 60.0039 824.062 59.4538 824.062 58.8223C824.062 58.2038 824.251 57.6504 824.629 57.1621C825.007 56.6738 825.534 56.2995 826.211 56.0391C826.888 55.7721 827.66 55.6387 828.525 55.6387ZM828.525 57.4648C828.102 57.4648 827.734 57.5169 827.422 57.6211C827.109 57.7253 826.862 57.8815 826.68 58.0898C826.504 58.2917 826.419 58.5358 826.426 58.8223C826.419 59.1087 826.504 59.3529 826.68 59.5547C826.862 59.7565 827.109 59.9095 827.422 60.0137C827.734 60.1178 828.102 60.1699 828.525 60.1699C828.936 60.1699 829.294 60.1178 829.6 60.0137C829.912 59.9095 830.156 59.7565 830.332 59.5547C830.508 59.3529 830.596 59.1087 830.596 58.8223C830.596 58.5423 830.508 58.2982 830.332 58.0898C830.156 57.8815 829.912 57.7253 829.6 57.6211C829.294 57.5169 828.936 57.4648 828.525 57.4648ZM804.492 89.1797H788.252V87.1484H804.492V89.1797ZM802.637 85.9082H790.215V83.916H802.637V85.9082ZM802.539 81.4941H792.686V84.9219H790.215V79.502H802.539V81.4941ZM796.328 90.2441C797.611 90.2441 798.714 90.3711 799.639 90.625C800.563 90.8789 801.273 91.2533 801.768 91.748C802.262 92.2363 802.513 92.8223 802.52 93.5059C802.513 94.2025 802.262 94.7982 801.768 95.293C801.279 95.7878 800.57 96.1621 799.639 96.416C798.714 96.6699 797.611 96.7969 796.328 96.7969C795.033 96.7969 793.919 96.6699 792.988 96.416C792.057 96.1621 791.341 95.7878 790.84 95.293C790.345 94.7982 790.098 94.2025 790.098 93.5059C790.098 92.8223 790.345 92.2363 790.84 91.748C791.341 91.2533 792.057 90.8789 792.988 90.625C793.919 90.3711 795.033 90.2441 796.328 90.2441ZM796.328 92.1387C795.508 92.1452 794.824 92.2005 794.277 92.3047C793.73 92.4023 793.317 92.5521 793.037 92.7539C792.764 92.9557 792.63 93.2064 792.637 93.5059C792.63 93.8184 792.764 94.0788 793.037 94.2871C793.317 94.4954 793.727 94.6484 794.268 94.7461C794.814 94.8438 795.501 94.8958 796.328 94.9023C797.142 94.8958 797.822 94.8438 798.369 94.7461C798.916 94.6484 799.326 94.4954 799.6 94.2871C799.873 94.0788 800.01 93.8184 800.01 93.5059C800.01 93.2064 799.87 92.9557 799.59 92.7539C799.316 92.5521 798.906 92.4023 798.359 92.3047C797.812 92.2005 797.135 92.1452 796.328 92.1387ZM809.932 91.0352H817.324V89.1406H819.795V96.6016H807.471V89.1406H809.932V91.0352ZM817.324 94.5898V92.9395H809.932V94.5898H817.324ZM818.887 81.7285H807.52V79.7363H818.887V81.7285ZM821.787 87.959H805.537V85.9863H821.787V87.959ZM819.863 81.1523C819.863 82.1419 819.834 83.0208 819.775 83.7891C819.717 84.5508 819.574 85.4362 819.346 86.4453L816.846 86.6016C817.002 85.9049 817.119 85.2507 817.197 84.6387C817.275 84.0267 817.324 83.4831 817.344 83.0078C817.363 82.5326 817.376 81.9661 817.383 81.3086V81.1523V79.7363H819.863V81.1523Z" fill="#1D1D1D"/>
<path d="M529.777 23.1797H513.537V21.1484H529.777V23.1797ZM527.922 19.9082H515.5V17.916H527.922V19.9082ZM527.824 15.4941H517.971V18.9219H515.5V13.502H527.824V15.4941ZM521.613 24.2441C522.896 24.2441 523.999 24.3711 524.924 24.625C525.848 24.8789 526.558 25.2533 527.053 25.748C527.548 26.2363 527.798 26.8223 527.805 27.5059C527.798 28.2025 527.548 28.7982 527.053 29.293C526.564 29.7878 525.855 30.1621 524.924 30.416C523.999 30.6699 522.896 30.7969 521.613 30.7969C520.318 30.7969 519.204 30.6699 518.273 30.416C517.342 30.1621 516.626 29.7878 516.125 29.293C515.63 28.7982 515.383 28.2025 515.383 27.5059C515.383 26.8223 515.63 26.2363 516.125 25.748C516.626 25.2533 517.342 24.8789 518.273 24.625C519.204 24.3711 520.318 24.2441 521.613 24.2441ZM521.613 26.1387C520.793 26.1452 520.109 26.2005 519.562 26.3047C519.016 26.4023 518.602 26.5521 518.322 26.7539C518.049 26.9557 517.915 27.2064 517.922 27.5059C517.915 27.8184 518.049 28.0788 518.322 28.2871C518.602 28.4954 519.012 28.6484 519.553 28.7461C520.1 28.8438 520.786 28.8958 521.613 28.9023C522.427 28.8958 523.107 28.8438 523.654 28.7461C524.201 28.6484 524.611 28.4954 524.885 28.2871C525.158 28.0788 525.295 27.8184 525.295 27.5059C525.295 27.2064 525.155 26.9557 524.875 26.7539C524.602 26.5521 524.191 26.4023 523.645 26.3047C523.098 26.2005 522.421 26.1452 521.613 26.1387ZM535.217 25.0352H542.609V23.1406H545.08V30.6016H532.756V23.1406H535.217V25.0352ZM542.609 28.5898V26.9395H535.217V28.5898H542.609ZM544.172 15.7285H532.805V13.7363H544.172V15.7285ZM547.072 21.959H530.822V19.9863H547.072V21.959ZM545.148 15.1523C545.148 16.1419 545.119 17.0208 545.061 17.7891C545.002 18.5508 544.859 19.4362 544.631 20.4453L542.131 20.6016C542.287 19.9049 542.404 19.2507 542.482 18.6387C542.561 18.0267 542.609 17.4831 542.629 17.0078C542.648 16.5326 542.661 15.9661 542.668 15.3086V15.1523V13.7363H545.148V15.1523ZM558.059 16.4902H548.479V14.5176H558.059V16.4902ZM548 21.7344C550.038 21.7214 551.942 21.6823 553.713 21.6172C555.49 21.5456 557.147 21.4154 558.684 21.2266L558.869 23.0527C557.274 23.3262 555.594 23.5085 553.83 23.5996C552.072 23.6842 550.217 23.7266 548.264 23.7266L548 21.7344ZM552.336 22.1348H549.924V16.0117H552.336V22.1348ZM556.604 22.1348H554.221V16.0117H556.604V22.1348ZM562.199 26.1191H559.709V13.043H562.199V26.1191ZM564.602 20.1035H561.477V18.0332H564.602V20.1035ZM562.834 30.4941H550.666V28.4824H562.834V30.4941ZM553.156 29.0391H550.666V24.8887H553.156V29.0391ZM578.527 19.3711H575.109V17.3496H578.527V19.3711ZM580.363 23.5801H577.883V13.0039H580.363V23.5801ZM574.289 23.9707C575.552 23.9707 576.643 24.1074 577.561 24.3809C578.479 24.6543 579.182 25.0482 579.67 25.5625C580.165 26.0703 580.415 26.6823 580.422 27.3984C580.415 28.1081 580.165 28.7168 579.67 29.2246C579.182 29.7389 578.479 30.1328 577.561 30.4062C576.643 30.6797 575.552 30.8197 574.289 30.8262C573.033 30.8197 571.945 30.6797 571.027 30.4062C570.116 30.1328 569.413 29.7389 568.918 29.2246C568.43 28.7168 568.186 28.1081 568.186 27.3984C568.186 26.6823 568.43 26.0703 568.918 25.5625C569.413 25.0482 570.116 24.6543 571.027 24.3809C571.945 24.1074 573.033 23.9707 574.289 23.9707ZM574.289 25.8652C573.495 25.8652 572.831 25.9238 572.297 26.041C571.763 26.1517 571.356 26.321 571.076 26.5488C570.796 26.7767 570.656 27.0599 570.656 27.3984C570.656 27.7305 570.796 28.0104 571.076 28.2383C571.356 28.4661 571.763 28.6387 572.297 28.7559C572.837 28.8665 573.501 28.9219 574.289 28.9219C575.083 28.9219 575.751 28.8665 576.291 28.7559C576.838 28.6387 577.248 28.4661 577.521 28.2383C577.795 28.0104 577.932 27.7305 577.932 27.3984C577.932 27.0599 577.795 26.7767 577.521 26.5488C577.248 26.321 576.838 26.1517 576.291 26.041C575.751 25.9238 575.083 25.8652 574.289 25.8652ZM571.584 15.9727C571.584 17.125 571.398 18.2057 571.027 19.2148C570.663 20.224 570.103 21.1126 569.348 21.8809C568.599 22.6426 567.674 23.2122 566.574 23.5898L565.275 21.6074C566.219 21.2884 567.01 20.8327 567.648 20.2402C568.293 19.6478 568.768 18.987 569.074 18.2578C569.387 17.5221 569.546 16.7604 569.553 15.9727V14.8008H571.584V15.9727ZM572.092 15.9531C572.092 16.6823 572.238 17.3854 572.531 18.0625C572.831 18.7331 573.286 19.3418 573.898 19.8887C574.51 20.4355 575.272 20.862 576.184 21.168L574.953 23.1211C573.879 22.7695 572.974 22.2357 572.238 21.5195C571.509 20.7969 570.962 19.9603 570.598 19.0098C570.24 18.0527 570.064 17.0339 570.07 15.9531V14.8008H572.092V15.9531ZM575.637 16.0996H565.988V14.0879H575.637V16.0996Z" fill="#1D1D1D"/>
<path d="M132.627 142.749H121.25C121.037 142.749 120.859 142.677 120.715 142.534C120.572 142.39 120.5 142.212 120.5 141.999C120.5 141.786 120.572 141.608 120.715 141.465C120.859 141.321 121.037 141.249 121.25 141.249H132.627L127.458 136.08C127.309 135.931 127.236 135.757 127.238 135.558C127.24 135.358 127.318 135.181 127.473 135.026C127.628 134.881 127.804 134.806 128 134.801C128.196 134.796 128.372 134.871 128.527 135.026L134.867 141.366C134.961 141.46 135.027 141.559 135.065 141.663C135.104 141.766 135.123 141.879 135.123 141.999C135.123 142.12 135.104 142.232 135.065 142.336C135.027 142.439 134.961 142.538 134.867 142.632L128.527 148.972C128.388 149.111 128.217 149.181 128.013 149.185C127.808 149.188 127.628 149.117 127.473 148.972C127.318 148.817 127.24 148.639 127.24 148.438C127.24 148.236 127.318 148.058 127.473 147.903L132.627 142.749Z" fill="#01875F"/>
<path d="M413.627 142.749H402.25C402.037 142.749 401.859 142.677 401.715 142.534C401.572 142.39 401.5 142.212 401.5 141.999C401.5 141.786 401.572 141.608 401.715 141.465C401.859 141.321 402.037 141.249 402.25 141.249H413.627L408.458 136.08C408.309 135.931 408.236 135.757 408.238 135.558C408.24 135.358 408.318 135.181 408.473 135.026C408.628 134.881 408.804 134.806 409 134.801C409.196 134.796 409.372 134.871 409.527 135.026L415.867 141.366C415.961 141.46 416.027 141.559 416.065 141.663C416.104 141.766 416.123 141.879 416.123 141.999C416.123 142.12 416.104 142.232 416.065 142.336C416.027 142.439 415.961 142.538 415.867 142.632L409.527 148.972C409.388 149.111 409.217 149.181 409.013 149.185C408.808 149.188 408.628 149.117 408.473 148.972C408.318 148.817 408.24 148.639 408.24 148.438C408.24 148.236 408.318 148.058 408.473 147.903L413.627 142.749Z" fill="#01875F"/>
<path d="M563.627 142.749H552.25C552.037 142.749 551.859 142.677 551.715 142.534C551.572 142.39 551.5 142.212 551.5 141.999C551.5 141.786 551.572 141.608 551.715 141.465C551.859 141.321 552.037 141.249 552.25 141.249H563.627L558.458 136.08C558.309 135.931 558.236 135.757 558.238 135.558C558.24 135.358 558.318 135.181 558.473 135.026C558.628 134.881 558.804 134.806 559 134.801C559.196 134.796 559.372 134.871 559.527 135.026L565.867 141.366C565.961 141.46 566.027 141.559 566.065 141.663C566.104 141.766 566.123 141.879 566.123 141.999C566.123 142.12 566.104 142.232 566.065 142.336C566.027 142.439 565.961 142.538 565.867 142.632L559.527 148.972C559.388 149.111 559.217 149.181 559.013 149.185C558.808 149.188 558.628 149.117 558.473 148.972C558.318 148.817 558.24 148.639 558.24 148.438C558.24 148.236 558.318 148.058 558.473 147.903L563.627 142.749Z" fill="#01875F"/>
<path d="M733.627 59.749H722.25C722.037 59.749 721.859 59.6772 721.715 59.5335C721.572 59.39 721.5 59.2119 721.5 58.999C721.5 58.7862 721.572 58.608 721.715 58.4645C721.859 58.3209 722.037 58.249 722.25 58.249H733.627L728.458 53.0798C728.309 52.9311 728.236 52.7571 728.238 52.5578C728.24 52.3584 728.318 52.1812 728.473 52.026C728.628 51.8812 728.804 51.8062 729 51.801C729.196 51.7959 729.372 51.8709 729.527 52.026L735.867 58.3663C735.961 58.4599 736.027 58.5587 736.065 58.6625C736.104 58.7664 736.123 58.8785 736.123 58.999C736.123 59.1195 736.104 59.2317 736.065 59.3355C736.027 59.4394 735.961 59.5381 735.867 59.6318L729.527 65.972C729.388 66.1105 729.217 66.1814 729.013 66.1845C728.808 66.1877 728.628 66.1169 728.473 65.972C728.318 65.8169 728.24 65.6387 728.24 65.4375C728.24 65.2362 728.318 65.0579 728.473 64.9028L733.627 59.749Z" fill="#01875F"/>
<path d="M734.627 223.749H723.25C723.037 223.749 722.859 223.677 722.715 223.534C722.572 223.39 722.5 223.212 722.5 222.999C722.5 222.786 722.572 222.608 722.715 222.465C722.859 222.321 723.037 222.249 723.25 222.249H734.627L729.458 217.08C729.309 216.931 729.236 216.757 729.238 216.558C729.24 216.358 729.318 216.181 729.473 216.026C729.628 215.881 729.804 215.806 730 215.801C730.196 215.796 730.372 215.871 730.527 216.026L736.867 222.366C736.961 222.46 737.027 222.559 737.065 222.663C737.104 222.766 737.123 222.879 737.123 222.999C737.123 223.12 737.104 223.232 737.065 223.336C737.027 223.439 736.961 223.538 736.867 223.632L730.527 229.972C730.388 230.111 730.217 230.181 730.013 230.185C729.808 230.188 729.628 230.117 729.473 229.972C729.318 229.817 729.24 229.639 729.24 229.438C729.24 229.236 729.318 229.058 729.473 228.903L734.627 223.749Z" fill="#01875F"/>
<line x1="689" y1="140" x2="722" y2="140" stroke="#01875F" stroke-width="2"/>
<line x1="722" y1="59" x2="722" y2="224" stroke="#01875F" stroke-width="2"/>
<rect x="276.5" y="43.5" width="3" height="25" fill="#F7F7F7" stroke="#01875F"/>
<rect x="277.5" y="215.5" width="3" height="25" fill="#F7F7F7" stroke="#01875F"/>
<rect x="485.5" y="43.5" width="3" height="25" fill="#F7F7F7" stroke="#01875F"/>
<rect x="626.5" y="43.5" width="3" height="25" fill="#F7F7F7" stroke="#01875F"/>
</svg>
