<svg width="178" height="47" viewBox="0 0 178 47" fill="none" xmlns="http://www.w3.org/2000/svg">
<g clip-path="url(#clip0_187_6)">
<path d="M53.6534 43.1221C53.5182 43.1221 53.383 43.1221 53.2478 43.1221L53.2748 40.4178C59.1214 40.4719 63.3455 39.2604 65.4548 36.9131C67.0882 35.0958 66.9151 33.1866 66.9151 33.1704L66.888 32.9324L66.9421 32.6998C67.1639 31.7588 65.0005 30.3363 63.7295 29.8009L62.7938 29.4115L62.9074 28.4055C63.4482 23.5595 62.5288 19.8492 60.1653 17.3883C56.4172 13.4834 50.1595 13.8674 50.0946 13.8728L48.4721 13.9864L49.5646 4.54852C38.0228 10.0165 37.1033 10.0165 36.7897 10.0165V7.31228C36.6977 7.31228 36.6382 7.32309 36.6328 7.32309C37.5901 7.12298 44.4914 3.98063 50.603 1.06003L52.8097 0.00537109L51.517 11.174C53.9833 11.2929 58.732 12.0015 62.1015 15.5008C64.8869 18.3943 66.093 22.5102 65.6819 27.7456C67.2342 28.5677 70.0683 30.4553 69.6139 33.1055C69.641 33.8951 69.549 36.3993 67.4613 38.7195C64.8328 41.6455 60.1923 43.1221 53.6534 43.1221Z" fill="#111111"/>
<path d="M14.4456 47.0001C9.47514 47.0001 3.75293 42.657 3.02278 42.0891L2.84971 41.9539L2.73072 41.77C-3.52152 32.3322 2.81185 22.5482 3.64476 21.3367C10.5893 6.74991 26.2848 6.27937 26.9555 6.26855H27.0258H27.0961C42.386 7.62068 44.1545 20.401 44.3438 24.1599C46.4315 24.9279 51.3965 27.0751 53.6897 30.807L53.9602 31.2451L53.8682 31.7535C53.7871 32.197 51.7859 42.5921 41.8451 44.9989L41.7315 45.0206C41.3042 45.0855 31.1849 46.562 24.1052 39.9528L25.9495 37.9787C31.8177 43.4575 40.52 42.4515 41.2664 42.3542C48.3894 40.591 50.5961 33.7384 51.0882 31.7805C48.5517 28.2596 42.6726 26.4423 42.6131 26.4207L41.6071 26.1124L41.6558 25.0631C41.6828 24.4628 42.1047 10.352 26.9284 8.962C25.7115 9.00526 12.0712 9.75705 6.02991 22.586L5.8947 22.8132C5.62968 23.1756 -0.519796 31.7102 4.85627 40.0772C6.99804 41.7051 12.677 45.2315 15.9059 44.047C16.9335 43.6684 17.6582 42.8085 18.1179 41.4185L18.9779 37.4432C19.0158 37.2756 19.059 37.0863 19.1131 36.897C19.1239 36.8375 19.1293 36.805 19.1347 36.7888H19.1456C19.2213 36.5508 19.3186 36.3183 19.4538 36.1236C21.5145 28.5625 25.6574 15.7118 30.5467 13.3699L31.715 15.8092C27.8965 17.6373 23.467 30.926 21.2116 40.0988C21.1521 40.3747 21.0926 40.6721 21.0223 40.9966C20.4112 43.9172 18.9995 45.8048 16.8307 46.5944C16.0735 46.8703 15.2677 46.9947 14.4402 46.9947L14.4456 47.0001Z" fill="#111111"/>
<path d="M58.661 30.0388C59.7811 30.0388 60.6892 29.1308 60.6892 28.0106C60.6892 26.8905 59.7811 25.9824 58.661 25.9824C57.5409 25.9824 56.6328 26.8905 56.6328 28.0106C56.6328 29.1308 57.5409 30.0388 58.661 30.0388Z" fill="#111111"/>
<path d="M86.8182 23.5056C86.8182 23.9112 86.5748 24.1546 86.1908 24.133C84.314 24.0302 82.5779 23.9112 80.9391 23.9112C77.8508 23.9112 77.0017 24.0951 77.0017 24.7982C77.0017 25.5013 77.6507 25.6852 80.4145 25.6852C81.745 25.6852 84.0869 25.5662 86.353 25.3228C86.737 25.285 86.9371 25.4851 86.9804 25.9502L87.0832 27.1834C87.1264 27.5674 86.9209 27.7675 86.4558 27.8108C85.0442 27.9297 83.5298 28.0758 82.1939 28.1353V28.6383C82.1939 29.0223 82.4373 29.244 82.9186 29.2657C83.9084 29.3035 86.3909 29.2224 87.9648 29.1034C88.3866 29.0655 88.6516 29.2873 88.6516 29.7091V30.899C88.6516 31.2614 88.4515 31.5048 87.9864 31.5426C86.7316 31.6616 83.8651 31.7049 80.7173 31.7049C77.8887 31.7049 75.2223 31.6833 73.4699 31.5426C73.0048 31.5048 72.8047 31.2776 72.8047 30.899V29.7091C72.8047 29.2873 73.0481 29.0655 73.4699 29.1034C74.9843 29.2224 77.5263 29.2657 79.7114 29.2873C79.4301 29.1683 79.2679 28.9033 79.2679 28.5788V28.1353C75.4927 27.973 74.0757 27.0265 74.0757 24.8036C74.0757 22.3211 75.9362 21.4287 81.004 21.4287C82.4805 21.4287 83.9949 21.4503 86.1962 21.6505C86.6397 21.6883 86.8236 21.8722 86.8236 22.2778V23.511L86.8182 23.5056ZM87.7917 35.8803C87.7917 38.3844 85.7905 39.3958 80.885 39.3958C75.9795 39.3958 73.9783 38.3844 73.9783 35.8803C73.9783 33.3761 75.9795 32.3647 80.885 32.3647C85.7905 32.3647 87.7917 33.3761 87.7917 35.8803ZM80.885 36.9728C84.076 36.9728 84.8657 36.751 84.8657 35.8803C84.8657 35.0095 84.076 34.7877 80.885 34.7877C77.694 34.7877 76.9043 35.0095 76.9043 35.8803C76.9043 36.751 77.694 36.9728 80.885 36.9728Z" fill="#111111"/>
<path d="M95.0762 36.7727C95.0762 37.2162 95.7036 37.2594 99.6789 37.2594C101.334 37.2594 103.86 37.1405 105.19 36.8971C105.515 36.8376 105.736 36.9998 105.753 37.3189L105.855 38.4926C105.877 38.7738 105.693 38.9793 105.39 39.0172C103.935 39.2173 101.35 39.3796 99.6951 39.3796C93.8593 39.3796 92.1448 38.8766 92.1448 36.7348C92.1448 34.593 94.1243 34.1117 98.5268 34.1117C99.6356 34.1117 100.912 34.09 101.799 34.09C102.324 34.09 102.545 33.9711 102.545 33.6844C102.545 33.3815 102.345 33.2625 101.837 33.2625C99.9168 33.2625 95.4548 33.4032 93.0696 33.6033C92.7451 33.6249 92.545 33.441 92.545 33.1165V31.9429C92.545 31.64 92.7073 31.4777 93.0696 31.4561C94.3244 31.375 95.7577 31.2938 97.2288 31.2344V30.9693C97.2288 30.7043 97.3478 30.4826 97.5912 30.3636C95.206 30.3852 93.0264 30.3419 91.393 30.223C90.9279 30.1851 90.7656 30.0012 90.7656 29.6172V28.5463C90.7656 28.1245 90.9657 27.9406 91.393 27.9784C93.1291 28.119 95.8334 28.1407 98.6621 28.1407C101.815 28.1407 104.72 28.1028 105.974 27.9784C106.396 27.9406 106.618 28.119 106.618 28.5463V29.6172C106.618 29.9796 106.456 30.1851 105.991 30.223C105.001 30.3257 102.637 30.3852 100.782 30.3852C100.339 30.3852 100.155 30.5691 100.155 30.9098V31.1749C101.307 31.1749 102.416 31.1749 103.427 31.2181C104.72 31.256 105.444 31.7211 105.444 32.6947C105.444 33.4843 105.001 34.0468 104.271 34.2902H104.757C105.06 34.2902 105.282 34.4741 105.282 34.7553V35.8045C105.282 36.0858 105.082 36.2913 104.757 36.2913C103.281 36.2913 102.253 36.2318 98.5593 36.2318C95.59 36.2318 95.0654 36.3508 95.0654 36.7781L95.0762 36.7727ZM104.893 25.3228C105.255 25.3228 105.439 25.5067 105.439 25.8691V26.8967C105.439 27.2375 105.255 27.443 104.893 27.443H94.7138C93.2211 27.443 92.4531 26.7777 92.4531 25.4851V22.4563C92.4531 21.7694 92.7938 21.4287 93.4645 21.4287H103.075C104.487 21.4287 105.196 22.0128 105.196 23.2243C105.196 24.133 104.611 24.9226 103.66 25.3228H104.893ZM102.226 24.2898C102.226 23.868 102.005 23.6462 101.518 23.6462H95.8604C95.5197 23.6462 95.3737 23.7868 95.3737 24.133V24.5765C95.3737 24.9983 95.6387 25.2201 96.1417 25.2201H101.128C101.734 25.2201 102.221 24.8144 102.221 24.2898H102.226Z" fill="#111111"/>
<path d="M108.744 36.5078V35.015C108.744 34.5932 108.988 34.366 109.409 34.4093C110.924 34.5499 113.569 34.7122 115.829 34.7716C115.445 34.5878 115.202 34.2038 115.202 33.7008V32.1269H113.163C111.508 32.1269 110.518 31.2399 110.459 29.7417L110.156 22.6944C110.134 22.2888 110.399 22.0454 110.821 22.0454H112.417C112.882 22.0454 113.082 22.2077 113.103 22.6295L113.163 24.3657H120.151L120.21 22.6295C120.232 22.2239 120.432 22.0454 120.897 22.0454H122.493C122.936 22.0454 123.179 22.2888 123.158 22.6944L122.855 29.7417C122.795 31.2345 121.806 32.1269 120.151 32.1269H118.133V33.863C118.133 34.7122 118.761 34.7122 119.404 34.7122C120.513 34.7122 122.514 34.5932 123.91 34.4093C124.331 34.3498 124.596 34.5932 124.596 35.015V36.5078C124.596 36.8702 124.396 37.0757 123.931 37.1568C122.676 37.3786 119.81 37.4975 116.662 37.4975C113.834 37.4975 111.167 37.3948 109.415 37.1568C108.95 37.0973 108.75 36.8918 108.75 36.5078H108.744ZM113.352 28.7357C113.374 29.2009 113.596 29.401 114.099 29.401H119.226C119.729 29.401 119.951 29.2009 119.972 28.7357L120.032 27.1024H113.287L113.347 28.7357H113.352Z" fill="#111111"/>
<path d="M141.196 29.3576C141.196 31.5588 139.963 32.6297 136.106 32.8082V33.9602C136.106 34.4849 136.307 34.685 136.874 34.7066C137.864 34.7499 140.309 34.6038 141.883 34.4037C142.305 34.3442 142.57 34.5876 142.57 35.0095V36.5022C142.57 36.8646 142.369 37.0701 141.904 37.1512C140.65 37.373 137.783 37.492 134.635 37.492C131.807 37.492 129.14 37.3892 127.388 37.1512C126.923 37.0918 126.723 36.8862 126.723 36.5022V35.0095C126.723 34.5876 126.966 34.3605 127.388 34.4037C128.902 34.5443 131.369 34.7282 133.608 34.7661C133.326 34.6255 133.186 34.3442 133.186 33.917V32.7866C129.551 32.5648 128.399 31.5156 128.399 29.3522C128.399 26.967 129.892 25.9394 134.803 25.9394C139.714 25.9394 141.207 26.967 141.207 29.3522L141.196 29.3576ZM134.046 20.7959H135.722C136.144 20.7959 136.35 20.996 136.35 21.4233V22.0074C136.35 22.2724 136.534 22.4509 136.896 22.4509H141.115C141.52 22.4509 141.742 22.6727 141.742 23.0783V24.4088C141.742 24.8144 141.52 25.0362 141.115 25.0362H128.475C128.069 25.0362 127.848 24.8144 127.848 24.4088V23.0783C127.848 22.6727 128.069 22.4509 128.475 22.4509H133.727C133.527 22.3319 133.424 22.148 133.424 21.8668V21.4233C133.424 21.0014 133.624 20.7959 134.051 20.7959H134.046ZM138.308 29.3576C138.308 28.714 137.983 28.3678 134.792 28.3678C131.601 28.3678 131.277 28.7086 131.277 29.3576C131.277 30.0661 131.601 30.4068 134.792 30.4068C137.983 30.4068 138.308 30.0661 138.308 29.3576Z" fill="#111111"/>
<path d="M152.142 28.3518C152.564 28.3518 152.769 28.5519 152.769 28.9359V30.4503C152.769 30.8343 152.585 31.0777 152.185 31.0777C150.552 31.0777 149.097 29.9473 148.588 28.4113C148.042 29.9852 146.425 31.0777 144.77 31.0777C144.348 31.0777 144.143 30.8127 144.143 30.4503V28.9359C144.143 28.5519 144.364 28.3518 144.808 28.3518C146.322 28.3518 147.193 27.1024 147.193 25.6475V22.0725C147.193 21.6506 147.393 21.4451 147.82 21.4451H149.313C149.735 21.4451 149.941 21.6452 149.941 22.1699V25.6421C149.941 27.1565 150.687 28.3464 152.142 28.3464V28.3518ZM146.89 35.3774C146.89 34.3661 146.95 33.9009 147.009 33.4196C147.069 32.9977 147.252 32.7543 147.674 32.7543H149.27C149.692 32.7543 149.995 32.9977 149.935 33.4196C149.854 34.047 149.816 34.3877 149.816 34.9339C149.816 36.086 150.562 36.6485 152.098 36.6485C155.025 36.6485 158.34 36.4862 160.482 36.2861C160.887 36.2428 161.087 36.5078 161.109 36.9135L161.212 38.39C161.233 38.7956 160.99 38.9741 160.584 39.0174C158.567 39.2391 155.495 39.3797 151.742 39.3797C148.653 39.3797 146.896 37.9249 146.896 35.3829L146.89 35.3774ZM153.575 26.6319H152.223C151.817 26.6319 151.596 26.4101 151.596 26.0045V24.528C151.596 24.1223 151.817 23.9006 152.223 23.9006H153.618C154.024 23.9006 154.246 23.7005 154.246 23.3165V21.8021C154.246 21.3802 154.446 21.1747 154.873 21.1747H156.35C156.771 21.1747 156.977 21.3748 156.977 21.8021V32.9923C156.977 33.4142 156.777 33.6197 156.35 33.6197H154.873C154.451 33.6197 154.246 33.4196 154.246 32.9923V26.329C154.105 26.5129 153.862 26.6319 153.58 26.6319H153.575ZM158.6 20.98H160.076C160.498 20.98 160.703 21.1801 160.703 21.6074V32.9977C160.703 33.4196 160.503 33.6251 160.076 33.6251H158.6C158.178 33.6251 157.972 33.425 157.972 32.9977V21.6074C157.972 21.1855 158.172 20.98 158.6 20.98Z" fill="#111111"/>
<path d="M168.941 33.8036C169.85 33.8036 170.861 33.5602 171.932 33.1762C172.051 33.1384 172.154 33.1167 172.257 33.1167C172.522 33.1167 172.722 33.2573 172.803 33.5602L173.187 34.934C173.306 35.3559 173.187 35.5776 172.765 35.7615C171.635 36.2483 170.12 36.5295 168.666 36.5295C165.334 36.5295 163.295 34.5283 163.295 31.3806C163.295 27.9462 165.231 26.1884 168.887 26.1884C169.915 26.1884 170.845 26.2479 171.532 26.3507C171.954 26.4102 172.1 26.6536 172.1 27.0592V28.5519C172.1 28.9954 171.835 29.1793 171.435 29.1144C170.667 28.9954 169.818 28.9305 169.212 28.9305C167.173 28.9305 166.221 29.7202 166.221 31.413C166.221 32.8679 167.211 33.7982 168.947 33.7982L168.941 33.8036ZM172.657 22.9163V24.3117C172.657 24.7335 172.414 24.9769 171.992 24.9769H164.176C163.755 24.9769 163.511 24.7335 163.511 24.3117V22.9163C163.511 22.4944 163.755 22.251 164.176 22.251H171.992C172.414 22.251 172.657 22.4944 172.657 22.9163ZM175.561 20.98H177.157C177.579 20.98 177.822 21.2234 177.822 21.6453V38.4063C177.822 38.8281 177.579 39.0715 177.157 39.0715H175.561C175.14 39.0715 174.896 38.8281 174.896 38.4063V31.6402C174.674 32.0026 174.231 32.2027 173.685 32.2027H172.976C172.571 32.2027 172.349 31.9809 172.349 31.5753V30.0014C172.349 29.5958 172.571 29.374 172.976 29.374H173.766C174.453 29.374 174.896 28.9522 174.896 28.3031V21.6399C174.896 21.218 175.14 20.9746 175.561 20.9746V20.98Z" fill="#111111"/>
<path d="M35.015 29.0114C36.3263 29.0114 37.3893 27.9483 37.3893 26.637C37.3893 25.3257 36.3263 24.2627 35.015 24.2627C33.7037 24.2627 32.6406 25.3257 32.6406 26.637C32.6406 27.9483 33.7037 29.0114 35.015 29.0114Z" fill="#111111"/>
</g>
<defs>
<clipPath id="clip0_187_6">
<rect width="177.821" height="47" fill="white"/>
</clipPath>
</defs>
</svg>
