<svg width="83" height="18" viewBox="0 0 83 18" fill="none" xmlns="http://www.w3.org/2000/svg">
<path d="M21.7915 1.35992H22.9348C23.1269 1.35992 23.2367 1.50146 23.2367 1.74902V2.56276C23.2367 2.81032 23.1269 2.95186 22.9348 2.95186H18.8097C18.6176 2.95186 18.5078 2.81032 18.5078 2.56276V1.74902C18.5078 1.50146 18.6176 1.35992 18.8097 1.35992H20.3554C20.264 1.28915 20.2182 1.18312 20.2182 1.0179V0.463577C20.2182 0.216009 20.3097 0.0981445 20.5017 0.0981445H21.2609C21.453 0.0981445 21.5444 0.216009 21.5444 0.463577V1.10025C21.5444 1.25363 21.6266 1.35966 21.7913 1.35966L21.7915 1.35992ZM22.9532 6.47726C22.9532 8.28126 22.1848 9.34256 20.8676 9.34256C19.5505 9.34256 18.7821 8.28126 18.7821 6.47726C18.7821 4.67326 19.5505 3.61196 20.8676 3.61196C22.1848 3.61196 22.9532 4.67326 22.9532 6.47726ZM21.6452 6.47726C21.6452 5.65195 21.3617 5.18023 20.8676 5.18023C20.3736 5.18023 20.0901 5.65195 20.0901 6.47726C20.0901 7.30257 20.3736 7.77429 20.8676 7.77429C21.3617 7.77429 21.6452 7.30257 21.6452 6.47726ZM24.8651 10.9463H24.1424C23.9503 10.9463 23.8405 10.8048 23.8405 10.5572V0.770335C23.8405 0.522767 23.9503 0.381226 24.1424 0.381226H24.8651C25.0571 0.381226 25.1669 0.522767 25.1669 0.770335V4.72035C25.2675 4.51988 25.4779 4.39018 25.734 4.39018H26.0267C26.2096 4.39018 26.3102 4.51988 26.3102 4.75561V5.67537C26.3102 5.9111 26.2096 6.0408 26.0267 6.0408H25.6973C25.3863 6.0408 25.1667 6.31204 25.1667 6.68931V10.557C25.1667 10.8045 25.0569 10.9461 24.8649 10.9461L24.8651 10.9463Z" fill="white"/>
<path d="M28.3227 7.44406C28.3135 7.40881 28.3135 7.38513 28.3135 7.34962V6.79529C28.3135 6.63007 28.3684 6.50037 28.469 6.44144C28.0116 6.4296 27.6275 6.40618 27.2432 6.37067C27.0328 6.34699 26.9414 6.21729 26.9414 5.9934V5.29779C26.9414 5.05022 27.0512 4.92052 27.2432 4.94394C28.0298 5.02655 29.2374 5.03838 30.5178 5.03838C31.9448 5.03838 33.2436 5.01471 33.8107 4.94394C34.0027 4.92026 34.1217 5.04996 34.1217 5.29779V5.9934C34.1217 6.20571 34.0303 6.34725 33.8199 6.37067C33.6095 6.39409 33.1887 6.41776 32.9235 6.41776C32.7223 6.41776 32.6582 6.54747 32.6582 6.74794V7.32568C33.3991 7.64402 33.7285 8.19835 33.7285 9.08259C33.7285 10.5448 32.8229 11.1344 30.6002 11.1344C28.3775 11.1344 27.472 10.5448 27.472 9.08259C27.472 8.29254 27.7373 7.76189 28.3227 7.44355V7.44406ZM33.5913 2.57429C33.5913 4.01286 32.695 4.62586 30.6002 4.62586C28.5055 4.62586 27.6092 4.0126 27.6092 2.57429C27.6092 1.13598 28.5055 0.522461 30.6002 0.522461C32.695 0.522461 33.5913 1.13572 33.5913 2.57429ZM32.4023 9.08311C32.4023 8.57613 32.0456 8.44643 30.6004 8.44643C29.1553 8.44643 28.7986 8.57613 28.7986 9.08311C28.7986 9.59008 29.1553 9.71978 30.6004 9.71978C32.0456 9.71978 32.4023 9.59008 32.4023 9.08311ZM32.265 2.57429C32.265 2.09073 31.8717 1.93761 30.6002 1.93761C29.3288 1.93761 28.9355 2.09099 28.9355 2.57429C28.9355 3.05759 29.3472 3.21096 30.6002 3.21096C31.8533 3.21096 32.265 3.04575 32.265 2.57429ZM30.6002 7.03154C30.8655 7.03154 31.1033 7.04337 31.3321 7.05521V6.79581C31.3321 6.65427 31.3686 6.5364 31.4511 6.46563C31.0943 6.48931 30.5364 6.46563 29.9053 6.46563C29.7041 6.46563 29.64 6.56008 29.64 6.79581V7.07889C29.9327 7.04363 30.2437 7.03179 30.6004 7.03179L30.6002 7.03154Z" fill="white"/>
<path d="M35.082 9.44899V8.57632C35.082 8.32876 35.1918 8.19905 35.3839 8.22247C36.0698 8.30508 37.2682 8.39927 38.2927 8.43478C38.1188 8.32876 38.0092 8.10461 38.0092 7.80995V6.9257C36.5457 6.84309 35.8414 6.04146 35.8414 4.24904C35.8414 3.44714 35.8688 2.17379 35.8963 1.36006C35.9055 1.12433 36.0335 0.994629 36.2439 0.994629H36.9665C37.1494 0.994629 37.2319 1.12433 37.2227 1.38374C37.1951 2.03225 37.1678 3.09355 37.1678 4.04856C37.1678 4.94465 37.497 5.33375 38.2745 5.33375C39.3082 5.33375 40.4789 5.23931 41.3936 5.06251C41.5764 5.02725 41.6862 5.15696 41.7046 5.40452L41.7779 6.27719C41.7962 6.50134 41.6956 6.6192 41.5034 6.65446C40.8813 6.77232 40.1313 6.85493 39.3356 6.90203V7.90439C39.3356 8.39953 39.619 8.39953 39.9119 8.39953C40.415 8.39953 41.3205 8.32876 41.9517 8.22273C42.1438 8.18722 42.2628 8.32876 42.2628 8.57658V9.44925C42.2628 9.66156 42.1713 9.77942 41.9609 9.82652C41.3938 9.95622 40.095 10.027 38.668 10.027C37.3874 10.027 36.18 9.96806 35.3843 9.82652C35.1739 9.791 35.0824 9.67314 35.0824 9.44925L35.082 9.44899Z" fill="white"/>
<path d="M47.4031 3.4587C47.4031 5.29822 46.5891 6.39477 45.2537 6.39477C43.9184 6.39477 43.1133 5.29822 43.1133 3.4587C43.1133 1.61919 43.9182 0.534469 45.2537 0.534469C46.5893 0.534469 47.4031 1.61919 47.4031 3.4587ZM43.8998 8.78861C43.8998 8.19903 43.9272 7.92779 43.9547 7.64471C43.9821 7.39714 44.0645 7.2556 44.2566 7.2556H44.9792C45.1713 7.2556 45.3086 7.39714 45.2811 7.64471C45.2445 8.01014 45.2262 8.21061 45.2262 8.52895C45.2262 9.20114 45.5646 9.53132 46.2599 9.53132C47.4948 9.53132 48.7203 9.43687 49.6899 9.319C49.8728 9.29533 49.9644 9.44871 49.9734 9.68444L50.0191 10.5453C50.0283 10.781 49.9185 10.8873 49.7356 10.9107C48.8209 11.0404 47.705 11.123 46.0952 11.123C44.6958 11.123 43.8998 10.274 43.8998 8.78836V8.78861ZM45.2535 4.86201C45.7658 4.86201 46.095 4.36688 46.095 3.45896C46.095 2.55104 45.7656 2.06748 45.2535 2.06748C44.7415 2.06748 44.4211 2.55104 44.4211 3.45896C44.4211 4.36688 44.7413 4.86201 45.2535 4.86201ZM48.7477 0.381348H49.4703C49.6624 0.381348 49.7722 0.522888 49.7722 0.770456V7.37372C49.7722 7.62129 49.6624 7.76283 49.4703 7.76283H48.7477C48.5556 7.76283 48.4458 7.62129 48.4458 7.37372V0.770456C48.4458 0.522888 48.5556 0.381348 48.7477 0.381348Z" fill="white"/>
<path d="M57.8654 8.22231C58.0574 8.1868 58.1764 8.32834 58.1764 8.57617V9.44883C58.1764 9.66114 58.085 9.779 57.8746 9.8261C57.3074 9.9558 56.0086 10.0266 54.5817 10.0266C53.301 10.0266 52.0937 9.96764 51.2979 9.8261C51.0875 9.79059 50.9961 9.67272 50.9961 9.44883V8.57617C50.9961 8.3286 51.1059 8.1989 51.2979 8.22231C51.7004 8.26941 52.1486 8.31676 52.7341 8.35202C52.5969 8.24599 52.5053 8.02184 52.5053 7.76243V6.46541C52.5053 6.41831 52.5053 6.37096 52.5145 6.3357C51.9473 5.81689 51.6639 5.015 51.6639 3.94212C51.6639 1.92581 52.6792 0.888184 54.6549 0.888184C56.6307 0.888184 57.646 1.92581 57.646 3.94212C57.646 5.08577 57.3168 5.93476 56.6672 6.44199V7.83346C56.6672 8.1518 56.7954 8.3286 57.0148 8.3286C57.2982 8.3286 57.5911 8.26966 57.8654 8.22257V8.22231ZM52.9902 3.95396C52.9902 4.97974 53.4567 5.42778 54.6549 5.42778C55.8531 5.42778 56.3197 4.97974 56.3197 3.95396C56.3197 2.92817 55.8531 2.48013 54.6549 2.48013C53.4567 2.48013 52.9902 2.92817 52.9902 3.95396ZM53.8317 6.94896V7.92765C53.8317 8.24599 53.9598 8.41121 54.2249 8.42279C54.5359 8.43462 55.167 8.42279 55.6519 8.41095C55.469 8.3165 55.3409 8.08077 55.3409 7.77427V6.97238C55.1305 7.00764 54.9019 7.01947 54.6549 7.01947C54.3623 7.01947 54.0878 6.9958 53.8317 6.9487V6.94896Z" fill="white"/>
<path d="M61.1678 5.92331C59.869 5.92331 59.0273 4.86201 59.0273 3.22297C59.0273 1.58393 59.8598 0.534469 61.1678 0.534469C62.4758 0.534469 63.3172 1.57209 63.3172 3.22297C63.3172 4.87385 62.4758 5.92331 61.1678 5.92331ZM65.7046 8.83571C65.7046 10.3803 64.7076 11.1351 62.6678 11.1351C60.628 11.1351 59.631 10.3806 59.631 8.83571C59.631 7.29085 60.628 6.53631 62.6678 6.53631C64.7076 6.53631 65.7046 7.29085 65.7046 8.83571ZM60.3353 3.22297C60.3353 3.94226 60.6555 4.3903 61.1678 4.3903C61.68 4.3903 62.0092 3.94226 62.0092 3.22297C62.0092 2.50369 61.6798 2.06748 61.1678 2.06748C60.6557 2.06748 60.3353 2.51553 60.3353 3.22297ZM64.3782 8.83571C64.3782 8.2698 63.9666 8.06933 62.6678 8.06933C61.369 8.06933 60.9574 8.2698 60.9574 8.83571C60.9574 9.40161 61.369 9.60209 62.6678 9.60209C63.9666 9.60209 64.3782 9.40161 64.3782 8.83571ZM65.5034 5.72284C65.5034 5.97041 65.3936 6.11195 65.2015 6.11195H64.4789C64.2868 6.11195 64.177 5.97041 64.177 5.72284V0.770456C64.177 0.522888 64.2868 0.381348 64.4789 0.381348H65.2015C65.3936 0.381348 65.5034 0.522888 65.5034 0.770456V1.23033C65.604 1.02986 65.7868 0.911997 66.0248 0.911997H66.3632C66.546 0.911997 66.6467 1.0417 66.6467 1.27743V2.07932C66.6467 2.31505 66.546 2.44476 66.3632 2.44476H65.9699C65.6589 2.44476 65.5034 2.69232 65.5034 3.06959V3.70627C65.604 3.5058 65.7868 3.38793 66.0248 3.38793H66.3632C66.546 3.38793 66.6467 3.51763 66.6467 3.75336V4.55526C66.6467 4.79099 66.546 4.92069 66.3632 4.92069H65.9699C65.6589 4.92069 65.5034 5.16826 65.5034 5.54553V5.72233V5.72284Z" fill="white"/>
<path d="M70.6575 4.68522C70.8495 4.68522 70.9409 4.80308 70.9409 5.02723V5.91147C70.9409 6.13562 70.8587 6.27691 70.6756 6.27691C69.9348 6.27691 69.2762 5.61656 69.0474 4.72047C68.8005 5.64023 68.0686 6.27691 67.3186 6.27691C67.1266 6.27691 67.0352 6.12353 67.0352 5.91147V5.02723C67.0352 4.80308 67.1358 4.68522 67.337 4.68522C68.0229 4.68522 68.4164 3.95409 68.4164 3.10511V1.01802C68.4164 0.770456 68.5078 0.652591 68.6999 0.652591H69.3768C69.5689 0.652591 69.6603 0.770456 69.6603 1.07721V3.10536C69.6603 3.98961 69.9987 4.68547 70.6573 4.68547L70.6575 4.68522ZM68.2793 8.78861C68.2793 8.19903 68.3068 7.92779 68.3342 7.64471C68.3617 7.39714 68.444 7.2556 68.636 7.2556H69.3587C69.5507 7.2556 69.6879 7.39714 69.6605 7.64471C69.624 8.01014 69.6056 8.21061 69.6056 8.52895C69.6056 9.20114 69.944 9.53132 70.6393 9.53132C71.9656 9.53132 73.4657 9.43687 74.4353 9.319C74.6181 9.29533 74.7098 9.44871 74.7187 9.68444L74.7645 10.5453C74.7736 10.781 74.6638 10.8873 74.481 10.9107C73.5663 11.0404 72.176 11.123 70.4746 11.123C69.0752 11.123 68.2793 10.274 68.2793 8.78836V8.78861ZM71.3069 3.68285H70.694C70.5111 3.68285 70.4105 3.55315 70.4105 3.31742V2.45659C70.4105 2.22086 70.5111 2.09116 70.694 2.09116H71.3252C71.5081 2.09116 71.6087 1.9733 71.6087 1.74915V0.864902C71.6087 0.617335 71.7001 0.49947 71.8922 0.49947H72.5599C72.752 0.49947 72.8434 0.617335 72.8434 0.864902V7.3974C72.8434 7.64496 72.752 7.76283 72.5599 7.76283H71.8922C71.7001 7.76283 71.6087 7.64496 71.6087 7.3974V3.50631C71.5446 3.61234 71.4348 3.68311 71.3069 3.68311V3.68285ZM73.5844 0.381348H74.2522C74.4443 0.381348 74.5357 0.499213 74.5357 0.74678V7.39714C74.5357 7.64471 74.4443 7.76257 74.2522 7.76257H73.5844C73.3924 7.76257 73.301 7.64471 73.301 7.39714V0.74678C73.301 0.499213 73.3924 0.381348 73.5844 0.381348Z" fill="white"/>
<path d="M78.2681 7.86885C78.6797 7.86885 79.1371 7.72731 79.6218 7.50342C79.6767 7.47975 79.7224 7.46817 79.7681 7.46817C79.8871 7.46817 79.9785 7.55077 80.0151 7.72757L80.1889 8.52946C80.2438 8.77703 80.1889 8.90674 79.9969 9.01302C79.4846 9.2961 78.7987 9.46106 78.1401 9.46106C76.6309 9.46106 75.707 8.29374 75.707 6.45422C75.707 4.44974 76.5852 3.42396 78.2407 3.42396C78.7073 3.42396 79.1279 3.45947 79.4389 3.51841C79.631 3.55366 79.6951 3.6952 79.6951 3.93119V4.80385C79.6951 5.06326 79.5761 5.16929 79.3932 5.13403C79.0457 5.06326 78.6614 5.028 78.3871 5.028C77.4632 5.028 77.0334 5.48788 77.0334 6.47841C77.0334 7.3274 77.4816 7.86988 78.2683 7.86988L78.2681 7.86885ZM79.9512 1.51316V2.32689C79.9512 2.57446 79.8414 2.716 79.6493 2.716H76.1095C75.9174 2.716 75.8076 2.57446 75.8076 2.32689V1.51316C75.8076 1.26559 75.9174 1.12405 76.1095 1.12405H79.6493C79.8414 1.12405 79.9512 1.26559 79.9512 1.51316ZM81.2683 0.381348H81.991C82.1831 0.381348 82.2929 0.522888 82.2929 0.770456V10.5574C82.2929 10.8049 82.1831 10.9465 81.991 10.9465H81.2683C81.0763 10.9465 80.9665 10.8049 80.9665 10.5574V6.60734C80.8659 6.81965 80.6647 6.93752 80.4177 6.93752H80.0975C79.9146 6.93752 79.814 6.80781 79.814 6.57208V5.65233C79.814 5.4166 79.9146 5.28689 80.0975 5.28689H80.4543C80.7653 5.28689 80.9665 5.03933 80.9665 4.66206V0.770456C80.9665 0.522888 81.0763 0.381348 81.2683 0.381348Z" fill="white"/>
<path d="M11.6943 5.07676C11.9263 5.07676 12.0794 5.09426 12.1293 5.10198C12.1567 5.1115 12.1862 5.11922 12.2225 5.12875C12.4152 5.17919 13.0011 5.33256 13.6473 5.77391C14.4522 6.32361 15.0505 7.10749 15.4256 8.10419C15.8616 9.26225 15.9986 10.3629 15.8446 11.4687C15.7095 12.4392 15.3665 13.2406 15.1397 13.7707C14.87 14.401 14.0174 15.5922 12.8594 16.9572C12.7995 17.0277 12.7218 17.0699 12.6402 17.0763C12.3208 17.1013 11.7967 17.1139 11.0828 17.1139C10.1486 17.1139 9.07036 17.0925 8.24968 17.072C8.66272 16.5493 9.13105 15.8699 9.44168 15.1537C9.84753 14.2175 9.70419 13.4238 9.51235 12.923C9.31132 12.3983 9.00888 12.0689 8.92144 11.9809C8.89429 11.9536 8.86654 11.9299 8.8374 11.9096C8.71342 11.8223 8.25487 11.5382 7.55437 11.5382C7.07366 11.5382 6.58157 11.6723 6.09167 11.9366C5.56145 12.2228 4.53735 12.5565 3.28187 12.8528C2.18989 13.1104 1.26779 13.2568 0.890292 13.2743C0.861744 13.2009 0.824214 13.0887 0.78289 12.9302C0.773108 12.8929 0.764125 12.8566 0.75594 12.8214C4.87892 10.9414 7.34136 8.3304 8.68468 6.46129C8.68967 6.45434 8.69446 6.44713 8.69925 6.43993C9.02764 5.9363 9.51913 5.56392 10.1601 5.33256C10.7463 5.12102 11.318 5.07676 11.6945 5.07676M11.6945 4.48486C10.8493 4.48486 9.23386 4.70078 8.3479 6.0588C5.01486 10.6957 0.262852 12.3548 0.229713 12.44C0.196774 12.5252 0.427747 13.6737 0.65872 13.8438C0.680679 13.86 0.736776 13.8677 0.821419 13.8677C1.62274 13.8677 4.98512 13.1752 6.26875 12.4824C6.76123 12.2166 7.19623 12.1299 7.55417 12.1299C8.16284 12.1299 8.54893 12.3808 8.6174 12.4289C8.62499 12.4341 8.63178 12.44 8.63836 12.4467C8.74397 12.5529 9.63113 13.5026 9.04082 14.8647C8.60782 15.8637 7.82826 16.802 7.38748 17.2866C7.27768 17.4073 7.34196 17.6386 7.48609 17.6428C8.22653 17.6644 9.79602 17.7053 11.0828 17.7053C11.7296 17.7053 12.305 17.695 12.6679 17.6667C12.8544 17.6523 13.0312 17.556 13.1692 17.3936C13.6994 16.7688 15.1156 15.0523 15.5418 14.0564C16.0698 12.8226 16.9278 10.7381 15.8388 7.84556C14.7499 4.95272 12.3078 4.57004 12.2419 4.52733C12.2237 4.51574 12.0141 4.48486 11.6945 4.48486Z" fill="white"/>
<path d="M10.0279 4.32652C10.0628 4.32652 10.0983 4.31828 10.1333 4.30052C10.4425 4.14303 10.9725 3.94152 11.661 3.94152C12.1988 3.94152 12.8335 4.06454 13.5348 4.4274C13.5701 4.44567 13.6066 4.45442 13.6426 4.45442C13.7582 4.45442 13.8674 4.36409 13.9115 4.21611C14.1534 3.40547 14.5525 1.40177 13.0033 0.36466C12.6452 0.124813 12.2513 0 11.8583 0C11.5211 0 11.1843 0.0918728 10.8711 0.281795C10.138 0.726233 9.39422 1.7358 9.74637 4.02902C9.77372 4.20762 9.8959 4.32652 10.0279 4.32652Z" fill="white"/>
<path d="M0.359774 11.809C1.40604 11.3291 5.39985 9.35701 7.44327 6.3548C7.58282 6.14969 7.54908 5.83239 7.37081 5.6857C6.88531 5.2863 5.88555 4.6123 4.669 4.6123C3.8044 4.6123 2.8304 4.95252 1.85321 5.97367C1.85321 5.97367 -0.366683 8.11274 0.0527417 11.5712C0.0711077 11.7223 0.171322 11.8265 0.282117 11.8265C0.30767 11.8265 0.333822 11.8208 0.359774 11.809Z" fill="white"/>
<path d="M3.76978 3.64175C3.61686 3.6698 3.53601 3.9009 3.63004 4.05891C3.64042 4.07641 3.6518 4.09108 3.66418 4.10163C3.67077 4.10729 3.68594 4.1096 3.70889 4.1096C3.88357 4.1096 4.50981 3.96755 5.21511 3.96755C5.73335 3.96755 6.29431 4.04424 6.75027 4.31059C6.786 4.33144 6.82334 4.34122 6.85987 4.34122C6.97026 4.34122 7.07447 4.25166 7.1118 4.10652C7.34996 3.17672 7.68913 0.832807 5.15801 0.552299C5.15223 0.551784 5.14664 0.55127 5.14105 0.55127C5.0065 0.55127 4.91187 0.73167 4.96976 0.893541C5.23627 1.64191 5.60419 3.30617 3.76998 3.64149L3.76978 3.64175Z" fill="white"/>
<path d="M8.74145 14.4388C8.80753 14.226 9.17046 13.1626 8.01539 12.7797C7.89003 12.738 7.76426 12.7192 7.6345 12.7192C6.52934 12.7192 5.12434 14.086 1.01953 14.4334C1.01953 14.4906 1.03989 14.5443 1.07463 14.5796C1.47908 14.9872 3.97986 17.501 4.34798 17.7051C4.54401 17.8139 4.88538 17.8651 5.24232 17.8651C5.59926 17.8651 6.00331 17.8096 6.26264 17.7051C7.19052 17.3317 8.67537 14.6517 8.74145 14.4388Z" fill="white"/>
<path d="M3.89539 3.03787C4.35106 3.03787 4.72046 2.56168 4.72046 1.97426C4.72046 1.38684 4.35106 0.910645 3.89539 0.910645C3.43971 0.910645 3.07031 1.38684 3.07031 1.97426C3.07031 2.56168 3.43971 3.03787 3.89539 3.03787Z" fill="white"/>
<path d="M19.5631 17.2496H19.3091C19.2417 17.2496 19.2031 17.1999 19.2031 17.1129V14.1308C19.2031 14.0438 19.2417 13.9941 19.3091 13.9941H19.5631C19.6305 13.9941 19.6691 14.0438 19.6691 14.1308V15.278C19.7172 15.1993 19.8393 15.1537 19.9326 15.1537H20.7295V14.1308C20.7295 14.0438 20.768 13.9941 20.8355 13.9941H21.0894C21.1569 13.9941 21.1954 14.0438 21.1954 14.1308V17.1129C21.1954 17.1999 21.1569 17.2496 21.0894 17.2496H20.8355C20.768 17.2496 20.7295 17.1999 20.7295 17.1129V15.7335H19.9198C19.8106 15.7335 19.6693 15.8288 19.6693 15.9613V17.1127C19.6693 17.1997 19.6307 17.2493 19.5633 17.2493L19.5631 17.2496Z" fill="white"/>
<path d="M21.7555 15.5265C21.6912 15.5265 21.6527 15.4809 21.6591 15.4063C21.688 14.9796 22.0222 14.7104 22.5235 14.7104C23.0569 14.7104 23.3459 15.0543 23.3459 15.6217V17.1128C23.3459 17.1998 23.3074 17.2494 23.2399 17.2494H22.9862C22.9187 17.2494 22.8802 17.1998 22.8802 17.1128V17.0217C22.7227 17.1833 22.4722 17.2909 22.2602 17.2909C21.82 17.2909 21.5469 16.9885 21.5469 16.4957C21.5469 15.895 21.9196 15.6423 22.8802 15.6135V15.5885C22.8802 15.3484 22.787 15.2365 22.5139 15.2365C22.3147 15.2365 22.2182 15.2985 22.1637 15.431C22.1348 15.5015 22.109 15.5262 22.0545 15.5262H21.7557L21.7555 15.5265ZM22.8864 16.1354C22.2212 16.1518 22.0092 16.2638 22.0092 16.4998C22.0092 16.6488 22.1314 16.769 22.3466 16.769C22.5362 16.769 22.7257 16.6902 22.8864 16.5909V16.1354Z" fill="white"/>
<path d="M23.774 15.8171C23.7065 15.8171 23.668 15.7674 23.668 15.6805V15.374C23.668 15.287 23.7065 15.2373 23.774 15.2373H25.2648C25.3323 15.2373 25.3708 15.287 25.3708 15.374V15.6805C25.3708 15.7674 25.3323 15.8171 25.2648 15.8171H23.774Z" fill="white"/>
<path d="M26.2081 17.1963C26.2371 17.362 26.3527 17.4364 26.5551 17.4364C26.8056 17.4364 26.9246 17.3038 26.9246 17.0014V16.6908C26.8154 16.8524 26.6194 16.96 26.4265 16.96C25.9478 16.96 25.6875 16.5956 25.6875 15.8912V14.893C25.6875 14.806 25.726 14.7563 25.7935 14.7563H26.0472C26.1147 14.7563 26.1532 14.806 26.1532 14.893V15.8457C26.1532 16.2142 26.2818 16.3882 26.5291 16.3882C26.7765 16.3882 26.9244 16.1977 26.9244 15.916V14.893C26.9244 14.806 26.9629 14.7563 27.0304 14.7563H27.2843C27.3518 14.7563 27.3904 14.806 27.3904 14.893V17.0053C27.3904 17.6556 27.0915 17.9994 26.5485 17.9994C26.0634 17.9994 25.742 17.7012 25.742 17.2248C25.742 17.1461 25.7805 17.1005 25.848 17.1005H26.1179C26.1694 17.1005 26.195 17.1296 26.2079 17.1957L26.2081 17.1963Z" fill="white"/>
<path d="M28.4539 17.2912C27.972 17.2912 27.7148 16.9268 27.7148 16.2225V14.8928C27.7148 14.8058 27.7534 14.7561 27.8208 14.7561H28.0748C28.1423 14.7561 28.1808 14.8058 28.1808 14.8928V16.1767C28.1808 16.5452 28.3062 16.7192 28.5567 16.7192C28.8072 16.7192 28.952 16.5243 28.952 16.2469V14.8925C28.952 14.8055 28.9905 14.7559 29.058 14.7559H29.3119C29.3794 14.7559 29.4179 14.8055 29.4179 14.8925V17.1126C29.4179 17.1996 29.3794 17.2493 29.3119 17.2493H29.058C28.9905 17.2493 28.952 17.1996 28.952 17.1126V17.0133C28.8234 17.1955 28.6435 17.2907 28.4539 17.2907V17.2912Z" fill="white"/>
<path d="M30.7333 14.7153C31.2153 14.7153 31.4724 15.0797 31.4724 15.7841V17.1138C31.4724 17.2008 31.4339 17.2505 31.3664 17.2505H31.1126C31.0452 17.2505 31.0066 17.2008 31.0066 17.1138V15.8299C31.0066 15.4611 30.8813 15.2874 30.6307 15.2874C30.3802 15.2874 30.2355 15.4822 30.2355 15.7596V17.1141C30.2355 17.201 30.1969 17.2507 30.1295 17.2507H29.8755C29.8081 17.2507 29.7695 17.201 29.7695 17.1141V14.8939C29.7695 14.8069 29.8081 14.7573 29.8755 14.7573H30.1295C30.1969 14.7573 30.2355 14.8069 30.2355 14.8939V14.9933C30.364 14.8111 30.5439 14.7158 30.7335 14.7158L30.7333 14.7153Z" fill="white"/>
<path d="M32.572 16.9602C32.0932 16.9602 31.8008 16.5211 31.8008 15.8502C31.8008 15.1793 32.1092 14.7153 32.5847 14.7153C32.7808 14.7153 32.9896 14.8314 33.102 14.9804L33.1052 14.8934C33.1084 14.8064 33.1437 14.7568 33.2112 14.7568H33.4651C33.5326 14.7568 33.5711 14.8064 33.5711 14.8934V17.0057C33.5711 17.6519 33.2818 17.9999 32.7293 17.9999C32.2344 17.9999 31.9228 17.6975 31.9228 17.2252C31.9228 17.1465 31.9613 17.1009 32.0288 17.1009H32.2987C32.3468 17.1009 32.3757 17.13 32.3887 17.1962C32.4208 17.3619 32.5204 17.4363 32.7357 17.4363C32.9928 17.4363 33.1052 17.2996 33.1052 17.0013V16.6907C32.9766 16.8647 32.7904 16.9599 32.5718 16.9599L32.572 16.9602ZM32.6748 16.3886C32.9511 16.3886 33.1086 16.227 33.1086 16.0116V15.4151C33.0121 15.3445 32.8451 15.2866 32.6941 15.2866C32.4178 15.2866 32.2603 15.5062 32.2603 15.8459C32.2603 16.1856 32.4178 16.3883 32.6748 16.3883V16.3886Z" fill="white"/>
<path d="M35.7403 15.8873C35.0462 15.5767 34.8214 15.3199 34.8214 14.8394C34.8214 14.2511 35.1492 13.9531 35.7724 13.9531C36.3957 13.9531 36.7235 14.2679 36.7235 14.8935C36.7235 14.9805 36.685 15.0301 36.6175 15.0301H36.3636C36.2961 15.0301 36.2575 14.9805 36.2575 14.8935C36.2575 14.649 36.0968 14.5332 35.7595 14.5332C35.4415 14.5332 35.2871 14.6243 35.2871 14.815C35.2871 14.9931 35.4542 15.1338 35.8751 15.3119C36.5692 15.6061 36.8197 15.8958 36.8197 16.4054C36.8197 17.0019 36.4791 17.2917 35.8044 17.2917C35.1296 17.2917 34.7891 16.9852 34.7891 16.3513C34.7891 16.2644 34.8276 16.2147 34.8951 16.2147H35.149C35.2165 16.2147 35.255 16.2644 35.255 16.3513C35.255 16.6041 35.4253 16.7116 35.8174 16.7116C36.1837 16.7116 36.354 16.6246 36.354 16.4342C36.354 16.227 36.2094 16.0986 35.7403 15.8873Z" fill="white"/>
<path d="M38.1117 16.753C38.3206 16.753 38.4395 16.6825 38.5038 16.5417C38.5328 16.4795 38.5553 16.4795 38.6098 16.4795H38.8797C38.944 16.4795 38.9761 16.5001 38.9632 16.5829C38.9021 17.0302 38.5615 17.2953 38.0988 17.2953C37.4947 17.2953 37.1445 16.8812 37.1445 16.0072C37.1445 15.1333 37.4883 14.7148 38.0666 14.7148C38.645 14.7148 38.9727 15.1498 38.9727 15.9617C38.9727 16.1689 38.8893 16.2723 38.7156 16.2723H37.6264C37.6714 16.6244 37.8193 16.7528 38.1115 16.7528L38.1117 16.753ZM38.0732 15.2537C37.7969 15.2537 37.6524 15.4071 37.6203 15.7962H38.5038C38.4942 15.411 38.3463 15.2537 38.0732 15.2537Z" fill="white"/>
<path d="M40.2998 14.7153C40.7817 14.7153 41.0388 15.0797 41.0388 15.7841V17.1138C41.0388 17.2008 41.0003 17.2505 40.9328 17.2505H40.6791C40.6116 17.2505 40.573 17.2008 40.573 17.1138V15.8299C40.573 15.4611 40.4477 15.2874 40.1971 15.2874C39.9466 15.2874 39.8019 15.4822 39.8019 15.7596V17.1141C39.8019 17.201 39.7633 17.2507 39.6959 17.2507H39.4419C39.3745 17.2507 39.3359 17.201 39.3359 17.1141V14.8939C39.3359 14.8069 39.3745 14.7573 39.4419 14.7573H39.6959C39.7633 14.7573 39.8019 14.8069 39.8019 14.8939V14.9933C39.9304 14.8111 40.1103 14.7158 40.3 14.7158L40.2998 14.7153Z" fill="white"/>
<path d="M41.4531 14.1308C41.4531 14.0438 41.4917 13.9941 41.5591 13.9941H41.8131C41.8805 13.9941 41.9191 14.0438 41.9191 14.1308V14.4746C41.9191 14.5616 41.8805 14.6113 41.8131 14.6113H41.5591C41.4917 14.6113 41.4531 14.5616 41.4531 14.4746V14.1308ZM41.4531 14.9551C41.4531 14.8681 41.4917 14.8184 41.5591 14.8184H41.8131C41.8805 14.8184 41.9191 14.8681 41.9191 14.9551V17.1132C41.9191 17.2002 41.8805 17.2498 41.8131 17.2498H41.5591C41.4917 17.2498 41.4531 17.2002 41.4531 17.1132V14.9551Z" fill="white"/>
<path d="M43.2683 14.7153C43.8467 14.7153 44.1968 15.1544 44.1968 16.0036C44.1968 16.8529 43.8467 17.2919 43.2683 17.2919C42.69 17.2919 42.3398 16.8529 42.3398 16.0036C42.3398 15.1544 42.69 14.7153 43.2683 14.7153ZM43.2683 16.7283C43.5929 16.7283 43.7375 16.4923 43.7375 16.0034C43.7375 15.5144 43.5929 15.2784 43.2683 15.2784C42.9437 15.2784 42.7992 15.5144 42.7992 16.0034C42.7992 16.4923 42.9437 16.7283 43.2683 16.7283Z" fill="white"/>
<path d="M45.7973 14.939L45.7362 15.2537C45.7234 15.3116 45.6945 15.3489 45.6527 15.3489C45.64 15.3489 45.627 15.3448 45.611 15.3366C45.5435 15.3034 45.4665 15.2869 45.3958 15.2869C45.1676 15.2869 45.0167 15.4732 45.0167 15.7591V17.1135C45.0167 17.2005 44.9782 17.2502 44.9107 17.2502H44.6568C44.5893 17.2502 44.5508 17.2005 44.5508 17.1135V14.8934C44.5508 14.8064 44.5893 14.7568 44.6568 14.7568H44.9107C44.9782 14.7568 45.0167 14.8064 45.0167 14.8934V14.9513C45.1323 14.7938 45.293 14.7153 45.4827 14.7153C45.5823 14.7153 45.6819 14.7403 45.7364 14.7774C45.7975 14.8188 45.8134 14.8643 45.7975 14.939H45.7973Z" fill="white"/>
<path d="M48.5603 16.173C48.5796 16.0983 48.615 16.0736 48.6792 16.0942L48.9428 16.1771C49.0038 16.1977 49.023 16.235 49.0134 16.3137C48.9332 16.9391 48.5668 17.2953 47.966 17.2953C47.2559 17.2953 46.8672 16.7402 46.8672 15.622C46.8672 14.5038 47.2495 13.9487 47.95 13.9487C48.5347 13.9487 48.8851 14.2635 48.9653 14.8476C48.9749 14.9264 48.9557 14.9637 48.8946 14.9843L48.6311 15.0672C48.5668 15.0877 48.5315 15.063 48.5121 14.9884C48.4253 14.6737 48.255 14.5327 47.9628 14.5327C47.5385 14.5327 47.3329 14.835 47.3329 15.622C47.3329 16.409 47.5417 16.7113 47.9787 16.7113C48.2872 16.7113 48.4736 16.5291 48.5603 16.173Z" fill="white"/>
<path d="M49.4469 15.5265C49.3826 15.5265 49.3441 15.4809 49.3505 15.4063C49.3794 14.9796 49.7136 14.7104 50.2149 14.7104C50.7483 14.7104 51.0374 15.0543 51.0374 15.6217V17.1128C51.0374 17.1998 50.9988 17.2494 50.9314 17.2494H50.6776C50.6101 17.2494 50.5716 17.1998 50.5716 17.1128V17.0217C50.4141 17.1833 50.1636 17.2909 49.9516 17.2909C49.5114 17.2909 49.2383 16.9885 49.2383 16.4957C49.2383 15.895 49.611 15.6423 50.5716 15.6135V15.5885C50.5716 15.3484 50.4784 15.2365 50.2053 15.2365C50.0061 15.2365 49.9096 15.2985 49.8551 15.431C49.8262 15.5015 49.8004 15.5262 49.7459 15.5262H49.4471L49.4469 15.5265ZM50.578 16.1354C49.9128 16.1518 49.7008 16.2638 49.7008 16.4998C49.7008 16.6488 49.823 16.769 50.0382 16.769C50.2279 16.769 50.4173 16.6902 50.578 16.5909V16.1354Z" fill="white"/>
<path d="M52.6371 14.939L52.576 15.2537C52.5633 15.3116 52.5343 15.3489 52.4926 15.3489C52.4798 15.3489 52.4668 15.3448 52.4509 15.3366C52.3834 15.3034 52.3063 15.2869 52.2357 15.2869C52.0075 15.2869 51.8566 15.4732 51.8566 15.7591V17.1135C51.8566 17.2005 51.818 17.2502 51.7506 17.2502H51.4966C51.4292 17.2502 51.3906 17.2005 51.3906 17.1135V14.8934C51.3906 14.8064 51.4292 14.7568 51.4966 14.7568H51.7506C51.818 14.7568 51.8566 14.8064 51.8566 14.8934V14.9513C51.9721 14.7938 52.1329 14.7153 52.3225 14.7153C52.4221 14.7153 52.5217 14.7403 52.5762 14.7774C52.6373 14.8188 52.6533 14.8643 52.6373 14.939H52.6371Z" fill="white"/>
<path d="M53.6977 16.753C53.9065 16.753 54.0255 16.6825 54.0898 16.5417C54.1187 16.4795 54.1413 16.4795 54.1958 16.4795H54.4657C54.5299 16.4795 54.5621 16.5001 54.5491 16.5829C54.488 17.0302 54.1474 17.2953 53.6847 17.2953C53.0806 17.2953 52.7305 16.8812 52.7305 16.0072C52.7305 15.1333 53.0742 14.7148 53.6526 14.7148C54.2309 14.7148 54.5587 15.1498 54.5587 15.9617C54.5587 16.1689 54.4752 16.2723 54.3016 16.2723H53.2124C53.2573 16.6244 53.4052 16.7528 53.6975 16.7528L53.6977 16.753ZM53.6592 15.2537C53.3829 15.2537 53.2383 15.4071 53.2062 15.7962H54.0898C54.0802 15.411 53.9322 15.2537 53.6592 15.2537Z" fill="white"/>
<path d="M57.4939 16.173C57.5132 16.0983 57.5485 16.0736 57.6128 16.0942L57.8763 16.1771C57.9374 16.1977 57.9566 16.235 57.947 16.3137C57.8668 16.9391 57.5004 17.2953 56.8996 17.2953C56.1895 17.2953 55.8008 16.7402 55.8008 15.622C55.8008 14.5038 56.1831 13.9487 56.8836 13.9487C57.4683 13.9487 57.8187 14.2635 57.8989 14.8476C57.9085 14.9264 57.8893 14.9637 57.8282 14.9843L57.5647 15.0672C57.5004 15.0877 57.4651 15.063 57.4457 14.9884C57.3589 14.6737 57.1886 14.5327 56.8964 14.5327C56.4721 14.5327 56.2665 14.835 56.2665 15.622C56.2665 16.409 56.4753 16.7113 56.9123 16.7113C57.2208 16.7113 57.4072 16.5291 57.4939 16.173Z" fill="white"/>
<path d="M59.1352 16.753C59.344 16.753 59.463 16.6825 59.5273 16.5417C59.5562 16.4795 59.5788 16.4795 59.6333 16.4795H59.9032C59.9674 16.4795 59.9996 16.5001 59.9866 16.5829C59.9255 17.0302 59.5849 17.2953 59.1222 17.2953C58.5181 17.2953 58.168 16.8812 58.168 16.0072C58.168 15.1333 58.5117 14.7148 59.0901 14.7148C59.6684 14.7148 59.9962 15.1498 59.9962 15.9617C59.9962 16.1689 59.9127 16.2723 59.7391 16.2723H58.6499C58.6948 16.6244 58.8427 16.7528 59.135 16.7528L59.1352 16.753ZM59.0967 15.2537C58.8204 15.2537 58.6758 15.4071 58.6437 15.7962H59.5273C59.5177 15.411 59.3697 15.2537 59.0967 15.2537Z" fill="white"/>
<path d="M61.3349 14.7153C61.8168 14.7153 62.0739 15.0797 62.0739 15.7841V17.1138C62.0739 17.2008 62.0354 17.2505 61.9679 17.2505H61.7142C61.6467 17.2505 61.6082 17.2008 61.6082 17.1138V15.8299C61.6082 15.4611 61.4828 15.2874 61.2323 15.2874C60.9818 15.2874 60.837 15.4822 60.837 15.7596V17.1141C60.837 17.201 60.7985 17.2507 60.731 17.2507H60.4771C60.4096 17.2507 60.3711 17.201 60.3711 17.1141V14.8939C60.3711 14.8069 60.4096 14.7573 60.4771 14.7573H60.731C60.7985 14.7573 60.837 14.8069 60.837 14.8939V14.9933C60.9656 14.8111 61.1455 14.7158 61.3351 14.7158L61.3349 14.7153Z" fill="white"/>
<path d="M63.3147 15.4025V16.347C63.3147 16.5541 63.3822 16.6699 63.591 16.6699C63.6425 16.6699 63.7195 16.6658 63.7838 16.6493C63.8513 16.6329 63.8994 16.6743 63.8994 16.7528V17.0843C63.8994 17.1671 63.8673 17.2127 63.7998 17.225C63.7387 17.2374 63.6295 17.25 63.4882 17.25C63.019 17.25 62.8487 16.9973 62.8487 16.463V15.4028H62.399C62.3315 15.4028 62.293 15.3531 62.293 15.2661V14.9596C62.293 14.8726 62.3315 14.823 62.399 14.823H62.8487V14.0898C62.8487 14.0028 62.8873 13.9531 62.9547 13.9531H63.2085C63.276 13.9531 63.3145 14.0028 63.3145 14.0898V14.823H63.8575C63.925 14.823 63.9635 14.8726 63.9635 14.9596V15.2661C63.9635 15.3531 63.925 15.4028 63.8575 15.4028H63.3145L63.3147 15.4025Z" fill="white"/>
<path d="M65.1586 16.753C65.3674 16.753 65.4864 16.6825 65.5507 16.5417C65.5796 16.4795 65.6022 16.4795 65.6567 16.4795H65.9266C65.9909 16.4795 66.023 16.5001 66.01 16.5829C65.949 17.0302 65.6084 17.2953 65.1456 17.2953C64.5416 17.2953 64.1914 16.8812 64.1914 16.0072C64.1914 15.1333 64.5352 14.7148 65.1135 14.7148C65.6918 14.7148 66.0196 15.1498 66.0196 15.9617C66.0196 16.1689 65.9362 16.2723 65.7625 16.2723H64.6733C64.7182 16.6244 64.8662 16.7528 65.1584 16.7528L65.1586 16.753ZM65.1201 15.2537C64.8438 15.2537 64.6993 15.4071 64.6671 15.7962H65.5507C65.5411 15.411 65.3932 15.2537 65.1201 15.2537Z" fill="white"/>
<path d="M67.641 14.939L67.5799 15.2537C67.5672 15.3116 67.5382 15.3489 67.4965 15.3489C67.4837 15.3489 67.4707 15.3448 67.4548 15.3366C67.3873 15.3034 67.3102 15.2869 67.2396 15.2869C67.0114 15.2869 66.8605 15.4732 66.8605 15.7591V17.1135C66.8605 17.2005 66.8219 17.2502 66.7545 17.2502H66.5005C66.4331 17.2502 66.3945 17.2005 66.3945 17.1135V14.8934C66.3945 14.8064 66.4331 14.7568 66.5005 14.7568H66.7545C66.8219 14.7568 66.8605 14.8064 66.8605 14.8934V14.9513C66.9761 14.7938 67.1368 14.7153 67.3264 14.7153C67.426 14.7153 67.5256 14.7403 67.5801 14.7774C67.6412 14.8188 67.6572 14.8643 67.6412 14.939H67.641Z" fill="white"/>
</svg>
