<svg height="512" viewBox="0 0 64 64" width="512" xmlns="http://www.w3.org/2000/svg" fill="#fff"><g id="web-shopping-2" data-name="web-shopping"><path d="m61 40h-5v-35a1 1 0 0 0 -1-1h-52a1 1 0 0 0 -1 1v46a1 1 0 0 0 1 1h21v4a1 1 0 0 0 1 1h18v2a1 1 0 0 0 1 1h17a1 1 0 0 0 1-1v-18a1 1 0 0 0 -1-1zm-57-34h50v6h-50zm20 26v18h-20v-36h50v26h-2v-8a1 1 0 0 0 -1-1h-5v-6a3 3 0 0 0 -3-3h-10a3 3 0 0 0 -3 3v6h-5a1 1 0 0 0 -1 1zm20-1h-12v-6a1 1 0 0 1 1-1h10a1 1 0 0 1 1 1zm-1 10v14h-17v-22h4v2.278a2 2 0 1 0 2 0v-2.278h12v2.278a2 2 0 1 0 2 0v-2.278h4v7h-6a1 1 0 0 0 -1 1zm17 17h-15v-16h15z"/><path d="m47 46.722v3.278a1 1 0 0 0 1 1h9a1 1 0 0 0 1-1v-3.278a2 2 0 1 0 -2 0v2.278h-7v-2.278a2 2 0 1 0 -2 0z"/><path d="m6 8h2v2h-2z"/><path d="m10 8h2v2h-2z"/><path d="m14 8h2v2h-2z"/><path d="m15.46 17.126a.974.974 0 0 0 -.46-.126h-8a1 1 0 0 0 -1 1v8a1 1 0 0 0 1 1h8a1 1 0 0 0 1-1v-6.586l1.707-1.707-1.414-1.414zm-1.46 7.874h-6v-6h5.586l-2.586 2.586-1.293-1.293-1.414 1.414 2 2a1 1 0 0 0 1.414 0l2.293-2.293z"/><path d="m18 19h2v2h-2z"/><path d="m18 24h4v2h-4z"/><path d="m16.293 30.293-.833.833a.974.974 0 0 0 -.46-.126h-8a1 1 0 0 0 -1 1v8a1 1 0 0 0 1 1h8a1 1 0 0 0 1-1v-6.586l1.707-1.707zm-2.293 8.707h-6v-6h5.586l-2.586 2.586-1.293-1.293-1.414 1.414 2 2a1 1 0 0 0 1.414 0l2.293-2.293z"/><path d="m18 33h2v2h-2z"/><path d="m18 38h4v2h-4z"/></g></svg>