<svg width="35" height="37" viewBox="0 0 35 37" fill="none" xmlns="http://www.w3.org/2000/svg">
<path d="M0.0556641 15.5806C0.0556641 7.1264 6.90912 0.272949 15.3633 0.272949V21.4185C15.3633 29.8727 8.50983 36.7261 0.0556641 36.7261V15.5806Z" fill="#4A3AFF"/>
<path d="M17.5842 8.59099C17.5842 3.99706 21.3083 0.272949 25.9023 0.272949C30.4962 0.272949 34.2203 3.99706 34.2203 8.59098V9.07123C34.2203 13.6651 30.4962 17.3893 25.9023 17.3893C21.3083 17.3893 17.5842 13.6652 17.5842 9.07123V8.59099Z" fill="#4CBFFF"/>
<path d="M17.5842 27.9279C17.5842 23.334 21.3083 19.6099 25.9023 19.6099C30.4962 19.6099 34.2203 23.334 34.2203 27.9279V28.4081C34.2203 33.0021 30.4962 36.7262 25.9023 36.7262C21.3083 36.7262 17.5842 33.0021 17.5842 28.4081V27.9279Z" fill="#962DFF"/>
</svg>
