<svg width="193" height="48" viewBox="0 0 193 48" fill="none" xmlns="http://www.w3.org/2000/svg">
<path d="M46.5176 19.9156V13.8278C46.5176 8.67655 42.4635 4.46191 37.5084 4.46191H32.7074C27.7524 4.46191 23.6982 8.67655 23.6982 13.8278V29.9962L27.7287 39.9782C28.2384 41.2352 28.2503 42.5169 27.9183 43.6876C29.3053 44.5995 30.953 45.1418 32.7074 45.1418H37.5084C39.5355 45.1418 41.4084 44.427 42.9258 43.2316C40.223 40.6437 38.516 36.9466 38.516 32.8183C38.516 27.0755 41.7996 22.1461 46.5176 19.9279V19.9156Z" fill="#A4BC49"/>
<path d="M88.8491 37.7723L81.0134 5.92843C79.0693 -1.97093 68.282 -1.97093 66.3379 5.92843L62.106 23.1444C64.382 25.683 65.7926 29.072 65.7926 32.806C65.7926 37.6738 63.4336 41.9623 59.8418 44.5133C61.205 46.3618 63.3625 47.5942 65.8519 47.5942H81.5231C86.4664 47.5942 90.0819 42.751 88.8609 37.7723H88.8491Z" fill="#648943"/>
<path d="M23.6981 35.776V30.0086L18.9446 18.252C17.1309 13.7663 11.0141 13.7663 9.20044 18.252L0.416471 39.9783C-1.0416 43.6014 1.50706 47.6066 5.28855 47.6066H22.8565C25.334 47.6066 27.2781 45.8813 27.9182 43.6877C25.3933 42.024 23.6981 39.1034 23.6981 35.776Z" fill="#35763C"/>
<path d="M27.7287 39.9781L23.6982 29.9961V35.7635C23.6982 39.0785 25.3934 42.0115 27.9183 43.6752C28.2621 42.5168 28.2384 41.2228 27.7287 39.9658V39.9781Z" fill="#245F2E"/>
<path d="M58.5021 37.7722L62.1058 23.1442C59.6164 20.3714 56.0838 18.6338 52.1601 18.6338C50.1449 18.6338 48.2482 19.1021 46.5293 19.9154V35.7758C46.5293 38.8197 45.1068 41.5185 42.9375 43.2315C45.3676 45.5606 48.6038 46.9902 52.1601 46.9902C55.0051 46.9902 57.6486 46.0782 59.8416 44.5255C58.4902 42.6893 57.8975 40.2615 58.5139 37.7845L58.5021 37.7722Z" fill="#68AC45"/>
<path d="M46.5177 35.7754V19.915C41.7997 22.1456 38.5161 27.075 38.5161 32.8054C38.5161 36.9338 40.2231 40.6308 42.9259 43.2188C45.0952 41.5058 46.5177 38.7946 46.5177 35.7631V35.7754Z" fill="#458C39"/>
<path d="M65.7804 32.8062C65.7804 29.0598 64.3816 25.6708 62.0938 23.1445L58.4901 37.7725C57.8855 40.2495 58.4664 42.6896 59.8178 44.5135C63.4096 41.9625 65.7686 37.6739 65.7686 32.8062H65.7804Z" fill="#35763C"/>
<path d="M106.737 20.3463C105.741 21.1103 104.615 21.5293 103.37 21.6279V18.0664C104.639 17.783 105.634 16.8341 106.369 15.2197C107.092 13.6053 107.46 11.498 107.46 8.91007L110.909 9.0333C110.909 10.5861 110.767 12.1511 110.483 13.7039L115.118 18.4608L112.818 20.9994L109.214 17.2531C108.562 18.547 107.732 19.5822 106.737 20.3339V20.3463ZM121.697 23.4148C123.475 24.1789 124.364 25.3989 124.364 27.0749C124.364 28.7509 123.475 29.9463 121.697 30.7103C119.919 31.4744 117.571 31.8564 114.632 31.8564C111.692 31.8564 109.368 31.4744 107.59 30.7103C105.812 29.9463 104.923 28.7262 104.923 27.0749C104.923 25.4236 105.812 24.1789 107.59 23.4148C109.368 22.6508 111.715 22.2564 114.632 22.2564C117.548 22.2564 119.919 22.6384 121.697 23.4148ZM118.864 28.3442C119.954 28.0854 120.499 27.6664 120.499 27.0872C120.499 26.508 119.954 26.089 118.875 25.8302C117.785 25.5714 116.374 25.4359 114.632 25.4359C112.889 25.4359 111.502 25.5714 110.423 25.8302C109.345 26.089 108.811 26.508 108.811 27.0872C108.811 27.6664 109.357 28.0854 110.435 28.3442C111.514 28.603 112.913 28.7386 114.62 28.7386C116.327 28.7386 117.761 28.603 118.852 28.3442H118.864ZM114.94 21.3445V8.79916H118.342V12.5085H120.737V8.71289H124.139V22.0839H120.737V16.1563H118.342V21.3322H114.94V21.3445Z" fill="#5F4622"/>
<path d="M126.913 20.3216V9.07027H139.205V20.3216H126.913ZM144.089 23.0451C145.808 23.8461 146.662 25.1155 146.662 26.8408C146.662 28.566 145.796 29.8723 144.089 30.6734C142.37 31.4744 140.071 31.8687 137.19 31.8687C134.31 31.8687 132.045 31.4744 130.338 30.6734C128.631 29.8723 127.778 28.603 127.778 26.8408C127.778 25.0785 128.631 23.8338 130.338 23.0451C132.045 22.2441 134.333 21.8497 137.19 21.8497C140.047 21.8497 142.37 22.2441 144.089 23.0451ZM130.481 12.3606V17.0313H135.637V12.3606H130.481ZM141.209 28.2333C142.24 27.9252 142.75 27.4569 142.75 26.8408C142.75 26.2246 142.24 25.7686 141.209 25.4605C140.177 25.1648 138.838 25.0169 137.19 25.0169C135.542 25.0169 134.239 25.1648 133.219 25.4605C132.2 25.7563 131.69 26.2246 131.69 26.8408C131.69 27.4569 132.2 27.9252 133.219 28.2333C134.239 28.5414 135.566 28.7016 137.19 28.7016C138.814 28.7016 140.177 28.5537 141.209 28.2333ZM140.296 19.04V15.6264H142.892V13.593H140.296V10.1794H142.892V8.71289H146.46V21.3691H142.892V19.04H140.296Z" fill="#5F4622"/>
<path d="M161.598 30.2667C160.519 30.4392 159.369 30.5255 158.148 30.5255H149.021V26.8161H158.291C159.464 26.8161 160.567 26.7422 161.61 26.582C162.653 26.4218 163.518 26.1876 164.182 25.8672V29.5519C163.53 29.8723 162.665 30.1188 161.586 30.2913L161.598 30.2667ZM159.713 9.88362C160.721 10.4998 161.503 11.3748 162.072 12.4839C162.641 13.6053 162.926 14.887 162.926 16.3411C162.926 17.7953 162.641 19.0893 162.072 20.2107C161.503 21.3322 160.721 22.2071 159.713 22.8233C158.705 23.4395 157.567 23.7476 156.299 23.7476C155.031 23.7476 153.857 23.4395 152.849 22.8233C151.83 22.2071 151.036 21.3322 150.479 20.2107C149.91 19.0893 149.625 17.7953 149.625 16.3411C149.625 14.887 149.91 13.593 150.479 12.4839C151.048 11.3624 151.842 10.4998 152.849 9.88362C153.869 9.26745 155.019 8.95936 156.299 8.95936C157.579 8.95936 158.705 9.26745 159.713 9.88362ZM154.011 13.6053C153.442 14.3324 153.158 15.2443 153.158 16.3411C153.158 17.4379 153.442 18.3992 154.011 19.1139C154.58 19.8164 155.339 20.1737 156.299 20.1737C157.259 20.1737 157.994 19.8164 158.575 19.1016C159.156 18.3868 159.44 17.4626 159.44 16.3535C159.44 15.2443 159.156 14.3447 158.575 13.6176C157.994 12.8906 157.247 12.5209 156.299 12.5209C155.351 12.5209 154.58 12.8906 154.011 13.6176V13.6053ZM165.569 31.6962V8.71289H169.173V31.6962H165.569Z" fill="#5F4622"/>
<path d="M184.228 22.9837H191.708V25.9413H188.223V28.6648H191.933V31.6225H172.883V28.6648H176.57V25.9413H173.12V22.9837H180.6V21.3077H171.816V18.2268H193V21.3077H184.216V22.9837H184.228ZM177.933 16.1442C176.214 16.7973 174.401 17.1424 172.48 17.1793V13.9752C173.843 13.9136 175.171 13.6302 176.451 13.1372C177.732 12.6443 178.822 11.9542 179.699 11.0669C180.577 10.1919 181.134 9.1937 181.335 8.07227L185.022 8.76238C184.844 9.53876 184.595 10.2782 184.24 10.9806L192.585 14.2463L191.376 17.204L182.284 13.4946C181.098 14.616 179.64 15.491 177.921 16.1442H177.933ZM180.114 25.9413V28.6648H184.69V25.9413H180.114Z" fill="#5F4622"/>
<path d="M105.895 42.9358H109.357V44.2175H105.895V47.2367H104.449V39.2881H109.807V40.5697H105.895V42.9358Z" fill="#5F4622"/>
<path d="M112.261 46.817C111.668 46.4596 111.194 45.9666 110.851 45.3505C110.507 44.7343 110.341 44.0318 110.341 43.2555C110.341 42.4791 110.507 41.789 110.851 41.1605C111.194 40.532 111.657 40.0514 112.261 39.694C112.854 39.3366 113.53 39.1641 114.265 39.1641C115 39.1641 115.675 39.3366 116.28 39.694C116.884 40.0514 117.347 40.532 117.69 41.1605C118.034 41.789 118.2 42.4791 118.2 43.2555C118.2 44.0318 118.034 44.7343 117.69 45.3505C117.347 45.9666 116.872 46.4596 116.28 46.817C115.687 47.1743 115.011 47.3469 114.265 47.3469C113.518 47.3469 112.854 47.1743 112.261 46.817ZM115.533 45.6339C115.912 45.3998 116.197 45.0793 116.422 44.6727C116.635 44.266 116.742 43.7854 116.742 43.2555C116.742 42.7256 116.635 42.2573 116.422 41.8383C116.209 41.4193 115.912 41.0989 115.533 40.8647C115.154 40.6306 114.739 40.5196 114.276 40.5196C113.814 40.5196 113.399 40.6306 113.032 40.8647C112.652 41.0989 112.368 41.4193 112.143 41.8383C111.929 42.2573 111.823 42.7256 111.823 43.2555C111.823 43.7854 111.929 44.2537 112.143 44.6727C112.356 45.0793 112.652 45.4121 113.02 45.6339C113.387 45.868 113.814 45.979 114.276 45.979C114.739 45.979 115.165 45.868 115.533 45.6339Z" fill="#5F4622"/>
<path d="M122.254 44.9446H120.678V47.2367H119.231V39.2881H122.266C122.894 39.2881 123.452 39.399 123.926 39.6331C124.4 39.8673 124.756 40.1877 125.004 40.619C125.253 41.0503 125.384 41.5556 125.384 42.1348C125.384 42.714 125.253 43.2439 124.981 43.6753C124.708 44.1066 124.329 44.427 123.843 44.6365L125.514 47.2367H123.938L122.468 44.9322C122.468 44.9322 122.361 44.9322 122.266 44.9322L122.254 44.9446ZM123.452 43.2686C123.748 42.9975 123.89 42.6154 123.89 42.1225C123.89 41.6295 123.748 41.2598 123.452 40.9887C123.155 40.7176 122.728 40.582 122.183 40.582H120.678V43.6629H122.183C122.74 43.6629 123.155 43.5274 123.452 43.2563V43.2686Z" fill="#5F4622"/>
<path d="M131.939 47.2367H126.439V39.2881H131.797V40.5697H127.885V42.5785H131.347V43.8231H127.885V45.9304H131.939V47.2244V47.2367Z" fill="#5F4622"/>
<path d="M133.705 47.0887C133.172 46.9161 132.757 46.682 132.449 46.3986L132.947 45.1909C133.243 45.4496 133.61 45.6591 134.049 45.8194C134.476 45.9796 134.914 46.0535 135.353 46.0535C135.875 46.0535 136.254 45.9672 136.515 45.7824C136.776 45.5975 136.894 45.3634 136.894 45.0676C136.894 44.8458 136.823 44.6609 136.681 44.5254C136.538 44.3898 136.361 44.2789 136.135 44.205C135.922 44.131 135.614 44.0324 135.199 43.9215C134.654 43.786 134.203 43.6381 133.859 43.4902C133.516 43.3423 133.219 43.1082 132.97 42.8001C132.721 42.492 132.603 42.073 132.603 41.5554C132.603 41.1118 132.71 40.7051 132.935 40.3354C133.16 39.978 133.492 39.6823 133.931 39.4728C134.369 39.2633 134.914 39.1523 135.555 39.1523C136.017 39.1523 136.455 39.214 136.894 39.3372C137.321 39.4604 137.7 39.633 138.02 39.8671L137.558 41.0871C137.238 40.8776 136.906 40.7174 136.562 40.6065C136.218 40.4956 135.875 40.4463 135.555 40.4463C135.045 40.4463 134.665 40.5449 134.417 40.7298C134.168 40.9269 134.049 41.1734 134.049 41.4692C134.049 41.691 134.12 41.8635 134.262 42.0114C134.405 42.147 134.594 42.2579 134.808 42.3441C135.033 42.4181 135.329 42.5167 135.72 42.6152C136.278 42.7631 136.728 42.8987 137.072 43.0466C137.416 43.1944 137.7 43.4163 137.949 43.7244C138.198 44.0324 138.317 44.4391 138.317 44.9567C138.317 45.4004 138.21 45.7947 137.985 46.1644C137.759 46.5218 137.427 46.8176 136.977 47.0271C136.527 47.2366 135.981 47.3475 135.329 47.3475C134.772 47.3475 134.227 47.2612 133.693 47.0763L133.705 47.0887Z" fill="#5F4622"/>
<path d="M138.388 40.5944V39.2881H144.599V40.5944H142.228V47.2367H140.77V40.5944H138.388Z" fill="#5F4622"/>
<path d="M148.82 42.9358H152.281V44.2175H148.82V47.2367H147.374V39.2881H152.732V40.5697H148.82V42.9358Z" fill="#5F4622"/>
<path d="M155.185 46.817C154.592 46.4596 154.118 45.9666 153.774 45.3505C153.431 44.7343 153.265 44.0318 153.265 43.2555C153.265 42.4791 153.431 41.789 153.774 41.1605C154.118 40.532 154.58 40.0514 155.185 39.694C155.778 39.3366 156.453 39.1641 157.188 39.1641C157.923 39.1641 158.599 39.3366 159.204 39.694C159.808 40.0514 160.271 40.532 160.614 41.1605C160.958 41.789 161.124 42.4791 161.124 43.2555C161.124 44.0318 160.958 44.7343 160.614 45.3505C160.271 45.9666 159.796 46.4596 159.204 46.817C158.611 47.1743 157.935 47.3469 157.188 47.3469C156.442 47.3469 155.778 47.1743 155.185 46.817ZM158.457 45.6339C158.836 45.3998 159.121 45.0793 159.346 44.6727C159.559 44.266 159.666 43.7854 159.666 43.2555C159.666 42.7256 159.559 42.2573 159.346 41.8383C159.132 41.4193 158.836 41.0989 158.457 40.8647C158.077 40.6306 157.663 40.5196 157.2 40.5196C156.738 40.5196 156.323 40.6306 155.956 40.8647C155.576 41.0989 155.292 41.4193 155.066 41.8383C154.853 42.2573 154.746 42.7256 154.746 43.2555C154.746 43.7854 154.853 44.2537 155.066 44.6727C155.28 45.0793 155.576 45.4121 155.944 45.6339C156.311 45.868 156.738 45.979 157.2 45.979C157.663 45.979 158.089 45.868 158.457 45.6339Z" fill="#5F4622"/>
<path d="M165.166 44.9446H163.59V47.2367H162.144V39.2881H165.178C165.807 39.2881 166.364 39.399 166.838 39.6331C167.312 39.8673 167.668 40.1877 167.917 40.619C168.165 41.0503 168.296 41.5556 168.296 42.1348C168.296 42.714 168.166 43.2439 167.893 43.6753C167.62 44.1066 167.241 44.427 166.755 44.6365L168.426 47.2367H166.85L165.38 44.9322C165.38 44.9322 165.273 44.9322 165.178 44.9322L165.166 44.9446ZM166.364 43.2686C166.66 42.9975 166.802 42.6154 166.802 42.1225C166.802 41.6295 166.66 41.2598 166.364 40.9887C166.067 40.7176 165.641 40.582 165.095 40.582H163.59V43.6629H165.095C165.652 43.6629 166.067 43.5274 166.364 43.2563V43.2686Z" fill="#5F4622"/>
<path d="M173.026 39.2881V45.9304H176.76V47.2367H171.568V39.2881H173.026Z" fill="#5F4622"/>
<path d="M178.929 39.2881V47.2367H177.471V39.2881H178.929Z" fill="#5F4622"/>
<path d="M181.881 42.9358H185.342V44.2175H181.881V47.2367H180.435V39.2881H185.793V40.5697H181.881V42.9358Z" fill="#5F4622"/>
<path d="M192.289 47.2367H186.789V39.2881H192.147V40.5697H188.235V42.5785H191.696V43.8231H188.235V45.9304H192.289V47.2244V47.2367Z" fill="#5F4622"/>
</svg>
