<svg width="193" height="49" viewBox="0 0 193 49" fill="none" xmlns="http://www.w3.org/2000/svg">
<path d="M46.5176 20.8433V14.7555C46.5176 9.60428 42.4635 5.38965 37.5084 5.38965H32.7074C27.7524 5.38965 23.6982 9.60428 23.6982 14.7555V30.9239L27.7287 40.906C28.2384 42.163 28.2503 43.4446 27.9183 44.6153C29.3053 45.5273 30.953 46.0695 32.7074 46.0695H37.5084C39.5355 46.0695 41.4084 45.3547 42.9258 44.1594C40.223 41.5714 38.516 37.8744 38.516 33.746C38.516 28.0033 41.7996 23.0739 46.5176 20.8556V20.8433Z" fill="#A4BC49"/>
<path d="M88.8491 38.7001L81.0134 6.85616C79.0693 -1.0432 68.282 -1.0432 66.3379 6.85616L62.106 24.0721C64.382 26.6107 65.7926 29.9997 65.7926 33.7337C65.7926 38.6015 63.4336 42.8901 59.8418 45.441C61.205 47.2896 63.3625 48.5219 65.8519 48.5219H81.5231C86.4664 48.5219 90.0819 43.6788 88.8609 38.7001H88.8491Z" fill="#648943"/>
<path d="M23.6981 36.7038V30.9364L18.9446 19.1797C17.1309 14.694 11.0141 14.694 9.20044 19.1797L0.416471 40.9061C-1.0416 44.5292 1.50706 48.5343 5.28855 48.5343H22.8565C25.334 48.5343 27.2781 46.809 27.9182 44.6154C25.3933 42.9518 23.6981 40.0311 23.6981 36.7038Z" fill="#35763C"/>
<path d="M27.7287 40.9059L23.6982 30.9238V36.6912C23.6982 40.0062 25.3934 42.9392 27.9183 44.6029C28.2621 43.4445 28.2384 42.1505 27.7287 40.8935V40.9059Z" fill="#245F2E"/>
<path d="M58.5021 38.6999L62.1058 24.0719C59.6164 21.2991 56.0838 19.5615 52.1601 19.5615C50.1449 19.5615 48.2482 20.0298 46.5293 20.8432V36.7035C46.5293 39.7474 45.1068 42.4463 42.9375 44.1592C45.3676 46.4884 48.6038 47.9179 52.1601 47.9179C55.0051 47.9179 57.6486 47.0059 59.8416 45.4532C58.4902 43.617 57.8975 41.1893 58.5139 38.7122L58.5021 38.6999Z" fill="#68AC45"/>
<path d="M46.5172 36.7031V20.8428C41.7992 23.0733 38.5156 28.0027 38.5156 33.7332C38.5156 37.8615 40.2226 41.5586 42.9254 44.1465C45.0947 42.4335 46.5172 39.7224 46.5172 36.6908V36.7031Z" fill="#458C39"/>
<path d="M65.7809 33.7339C65.7809 29.9875 64.3821 26.5986 62.0943 24.0723L58.4906 38.7003C57.886 41.1773 58.4669 43.6173 59.8183 45.4412C63.4101 42.8902 65.7691 38.6017 65.7691 33.7339H65.7809Z" fill="#35763C"/>
<path d="M106.737 21.274C105.741 22.0381 104.615 22.4571 103.37 22.5557V18.9942C104.639 18.7107 105.634 17.7618 106.369 16.1474C107.092 14.5331 107.46 12.4257 107.46 9.8378L110.909 9.96104C110.909 11.5138 110.767 13.0789 110.483 14.6316L115.118 19.3885L112.818 21.9272L109.214 18.1808C108.562 19.4748 107.732 20.5099 106.737 21.2617V21.274ZM121.697 24.3426C123.475 25.1066 124.364 26.3266 124.364 28.0026C124.364 29.6786 123.475 30.874 121.697 31.6381C119.919 32.4021 117.571 32.7842 114.632 32.7842C111.692 32.7842 109.368 32.4021 107.59 31.6381C105.812 30.874 104.923 29.654 104.923 28.0026C104.923 26.3513 105.812 25.1066 107.59 24.3426C109.368 23.5785 111.715 23.1841 114.632 23.1841C117.548 23.1841 119.919 23.5662 121.697 24.3426ZM118.864 29.272C119.954 29.0132 120.499 28.5942 120.499 28.015C120.499 27.4358 119.954 27.0168 118.875 26.758C117.785 26.4992 116.374 26.3636 114.632 26.3636C112.889 26.3636 111.502 26.4992 110.423 26.758C109.345 27.0168 108.811 27.4358 108.811 28.015C108.811 28.5942 109.357 29.0132 110.435 29.272C111.514 29.5307 112.913 29.6663 114.62 29.6663C116.327 29.6663 117.761 29.5307 118.852 29.272H118.864ZM114.94 22.2722V9.72689H118.342V13.4363H120.737V9.64062H124.139V23.0116H120.737V17.084H118.342V22.2599H114.94V22.2722Z" fill="white"/>
<path d="M126.912 21.2494V9.99801H139.205V21.2494H126.912ZM144.089 23.9729C145.808 24.7739 146.661 26.0432 146.661 27.7685C146.661 29.4938 145.796 30.8001 144.089 31.6011C142.37 32.4021 140.07 32.7965 137.19 32.7965C134.309 32.7965 132.045 32.4021 130.338 31.6011C128.631 30.8001 127.777 29.5307 127.777 27.7685C127.777 26.0062 128.631 24.7616 130.338 23.9729C132.045 23.1718 134.333 22.7775 137.19 22.7775C140.047 22.7775 142.37 23.1718 144.089 23.9729ZM130.48 13.2884V17.959H135.637V13.2884H130.48ZM141.208 29.161C142.24 28.853 142.749 28.3847 142.749 27.7685C142.749 27.1523 142.24 26.6963 141.208 26.3883C140.177 26.0925 138.837 25.9446 137.19 25.9446C135.542 25.9446 134.238 26.0925 133.219 26.3883C132.199 26.684 131.689 27.1523 131.689 27.7685C131.689 28.3847 132.199 28.853 133.219 29.161C134.238 29.4691 135.566 29.6293 137.19 29.6293C138.814 29.6293 140.177 29.4815 141.208 29.161ZM140.296 19.9677V16.5541H142.892V14.5207H140.296V11.1071H142.892V9.64062H146.46V22.2969H142.892V19.9677H140.296Z" fill="white"/>
<path d="M161.598 31.1944C160.519 31.3669 159.369 31.4532 158.148 31.4532H149.021V27.7438H158.291C159.464 27.7438 160.567 27.6699 161.61 27.5097C162.653 27.3495 163.518 27.1153 164.182 26.7949V30.4797C163.53 30.8001 162.665 31.0465 161.586 31.2191L161.598 31.1944ZM159.713 10.8114C160.721 11.4275 161.503 12.3025 162.072 13.4116C162.641 14.5331 162.926 15.8147 162.926 17.2689C162.926 18.723 162.641 20.017 162.072 21.1384C161.503 22.2599 160.721 23.1349 159.713 23.751C158.705 24.3672 157.567 24.6753 156.299 24.6753C155.031 24.6753 153.857 24.3672 152.849 23.751C151.83 23.1349 151.036 22.2599 150.479 21.1384C149.91 20.017 149.625 18.723 149.625 17.2689C149.625 15.8147 149.91 14.5207 150.479 13.4116C151.048 12.2902 151.842 11.4275 152.849 10.8114C153.869 10.1952 155.019 9.8871 156.299 9.8871C157.579 9.8871 158.705 10.1952 159.713 10.8114ZM154.011 14.5331C153.442 15.2601 153.158 16.1721 153.158 17.2689C153.158 18.3657 153.442 19.3269 154.011 20.0417C154.58 20.7441 155.339 21.1015 156.299 21.1015C157.259 21.1015 157.994 20.7441 158.575 20.0293C159.156 19.3146 159.44 18.3903 159.44 17.2812C159.44 16.1721 159.156 15.2725 158.575 14.5454C157.994 13.8183 157.247 13.4486 156.299 13.4486C155.351 13.4486 154.58 13.8183 154.011 14.5454V14.5331ZM165.569 32.6239V9.64062H169.173V32.6239H165.569Z" fill="white"/>
<path d="M184.228 23.9114H191.708V26.8691H188.223V29.5926H191.933V32.5502H172.883V29.5926H176.57V26.8691H173.12V23.9114H180.6V22.2354H171.816V19.1546H193V22.2354H184.216V23.9114H184.228ZM177.933 17.0719C176.214 17.725 174.401 18.0701 172.48 18.1071V14.903C173.843 14.8413 175.171 14.5579 176.451 14.065C177.732 13.572 178.822 12.8819 179.699 11.9946C180.577 11.1196 181.134 10.1214 181.335 9L185.022 9.69012C184.844 10.4665 184.595 11.2059 184.24 11.9083L192.585 15.1741L191.376 18.1317L182.284 14.4223C181.098 15.5438 179.64 16.4187 177.921 17.0719H177.933ZM180.114 26.8691V29.5926H184.69V26.8691H180.114Z" fill="white"/>
<path d="M105.895 43.8636H109.357V45.1452H105.895V48.1645H104.449V40.2158H109.807V41.4975H105.895V43.8636Z" fill="white"/>
<path d="M112.261 47.7447C111.668 47.3873 111.194 46.8944 110.851 46.2782C110.507 45.662 110.341 44.9596 110.341 44.1832C110.341 43.4068 110.507 42.7167 110.851 42.0882C111.194 41.4597 111.657 40.9791 112.261 40.6217C112.854 40.2643 113.53 40.0918 114.265 40.0918C115 40.0918 115.675 40.2643 116.28 40.6217C116.884 40.9791 117.347 41.4597 117.69 42.0882C118.034 42.7167 118.2 43.4068 118.2 44.1832C118.2 44.9596 118.034 45.662 117.69 46.2782C117.347 46.8944 116.872 47.3873 116.28 47.7447C115.687 48.1021 115.011 48.2746 114.265 48.2746C113.518 48.2746 112.854 48.1021 112.261 47.7447ZM115.533 46.5616C115.912 46.3275 116.197 46.0071 116.422 45.6004C116.635 45.1937 116.742 44.7131 116.742 44.1832C116.742 43.6533 116.635 43.185 116.422 42.766C116.209 42.347 115.912 42.0266 115.533 41.7924C115.154 41.5583 114.739 41.4474 114.276 41.4474C113.814 41.4474 113.399 41.5583 113.032 41.7924C112.652 42.0266 112.368 42.347 112.143 42.766C111.929 43.185 111.823 43.6533 111.823 44.1832C111.823 44.7131 111.929 45.1814 112.143 45.6004C112.356 46.0071 112.652 46.3398 113.02 46.5616C113.387 46.7958 113.814 46.9067 114.276 46.9067C114.739 46.9067 115.165 46.7958 115.533 46.5616Z" fill="white"/>
<path d="M122.254 45.8723H120.678V48.1645H119.231V40.2158H122.266C122.894 40.2158 123.452 40.3267 123.926 40.5609C124.4 40.795 124.756 41.1154 125.004 41.5468C125.253 41.9781 125.384 42.4833 125.384 43.0625C125.384 43.6418 125.253 44.1717 124.981 44.603C124.708 45.0343 124.329 45.3547 123.843 45.5642L125.514 48.1645H123.938L122.468 45.86C122.468 45.86 122.361 45.86 122.266 45.86L122.254 45.8723ZM123.452 44.1963C123.748 43.9252 123.89 43.5432 123.89 43.0502C123.89 42.5573 123.748 42.1876 123.452 41.9165C123.155 41.6453 122.728 41.5098 122.183 41.5098H120.678V44.5907H122.183C122.74 44.5907 123.155 44.4551 123.452 44.184V44.1963Z" fill="white"/>
<path d="M131.939 48.1645H126.438V40.2158H131.797V41.4975H127.885V43.5062H131.346V44.7509H127.885V46.8582H131.939V48.1522V48.1645Z" fill="white"/>
<path d="M133.706 48.0164C133.172 47.8439 132.757 47.6097 132.449 47.3263L132.947 46.1186C133.243 46.3774 133.611 46.5869 134.05 46.7471C134.476 46.9073 134.915 46.9812 135.353 46.9812C135.875 46.9812 136.254 46.895 136.515 46.7101C136.776 46.5253 136.895 46.2911 136.895 45.9954C136.895 45.7735 136.823 45.5887 136.681 45.4531C136.539 45.3176 136.361 45.2067 136.136 45.1327C135.922 45.0588 135.614 44.9602 135.199 44.8493C134.654 44.7137 134.204 44.5658 133.86 44.4179C133.516 44.2701 133.22 44.0359 132.971 43.7278C132.722 43.4197 132.603 43.0007 132.603 42.4832C132.603 42.0395 132.71 41.6328 132.935 41.2631C133.16 40.9058 133.492 40.61 133.931 40.4005C134.37 40.191 134.915 40.0801 135.555 40.0801C136.017 40.0801 136.456 40.1417 136.895 40.2649C137.321 40.3882 137.701 40.5607 138.021 40.7948L137.558 42.0149C137.238 41.8054 136.906 41.6452 136.563 41.5342C136.219 41.4233 135.875 41.374 135.555 41.374C135.045 41.374 134.666 41.4726 134.417 41.6575C134.168 41.8547 134.05 42.1011 134.05 42.3969C134.05 42.6187 134.121 42.7912 134.263 42.9391C134.405 43.0747 134.595 43.1856 134.808 43.2719C135.033 43.3458 135.33 43.4444 135.721 43.543C136.278 43.6909 136.729 43.8264 137.072 43.9743C137.416 44.1222 137.701 44.344 137.95 44.6521C138.199 44.9602 138.317 45.3669 138.317 45.8844C138.317 46.3281 138.21 46.7224 137.985 47.0921C137.76 47.4495 137.428 47.7453 136.978 47.9548C136.527 48.1643 135.982 48.2752 135.33 48.2752C134.773 48.2752 134.227 48.1889 133.694 48.0041L133.706 48.0164Z" fill="white"/>
<path d="M138.388 41.5221V40.2158H144.599V41.5221H142.228V48.1645H140.77V41.5221H138.388Z" fill="white"/>
<path d="M148.819 43.8636H152.281V45.1452H148.819V48.1645H147.373V40.2158H152.731V41.4975H148.819V43.8636Z" fill="white"/>
<path d="M155.185 47.7447C154.592 47.3873 154.118 46.8944 153.774 46.2782C153.431 45.662 153.265 44.9596 153.265 44.1832C153.265 43.4068 153.431 42.7167 153.774 42.0882C154.118 41.4597 154.58 40.9791 155.185 40.6217C155.778 40.2643 156.453 40.0918 157.188 40.0918C157.923 40.0918 158.599 40.2643 159.204 40.6217C159.808 40.9791 160.271 41.4597 160.614 42.0882C160.958 42.7167 161.124 43.4068 161.124 44.1832C161.124 44.9596 160.958 45.662 160.614 46.2782C160.271 46.8944 159.796 47.3873 159.204 47.7447C158.611 48.1021 157.935 48.2746 157.188 48.2746C156.442 48.2746 155.778 48.1021 155.185 47.7447ZM158.457 46.5616C158.836 46.3275 159.121 46.0071 159.346 45.6004C159.559 45.1937 159.666 44.7131 159.666 44.1832C159.666 43.6533 159.559 43.185 159.346 42.766C159.132 42.347 158.836 42.0266 158.457 41.7924C158.077 41.5583 157.663 41.4474 157.2 41.4474C156.738 41.4474 156.323 41.5583 155.956 41.7924C155.576 42.0266 155.292 42.347 155.066 42.766C154.853 43.185 154.746 43.6533 154.746 44.1832C154.746 44.7131 154.853 45.1814 155.066 45.6004C155.28 46.0071 155.576 46.3398 155.944 46.5616C156.311 46.7958 156.738 46.9067 157.2 46.9067C157.663 46.9067 158.089 46.7958 158.457 46.5616Z" fill="white"/>
<path d="M165.166 45.8723H163.59V48.1645H162.144V40.2158H165.178C165.807 40.2158 166.364 40.3267 166.838 40.5609C167.312 40.795 167.668 41.1154 167.917 41.5468C168.165 41.9781 168.296 42.4833 168.296 43.0625C168.296 43.6418 168.166 44.1717 167.893 44.603C167.62 45.0343 167.241 45.3547 166.755 45.5642L168.426 48.1645H166.85L165.38 45.86C165.38 45.86 165.273 45.86 165.178 45.86L165.166 45.8723ZM166.364 44.1963C166.66 43.9252 166.802 43.5432 166.802 43.0502C166.802 42.5573 166.66 42.1876 166.364 41.9165C166.067 41.6453 165.641 41.5098 165.095 41.5098H163.59V44.5907H165.095C165.652 44.5907 166.067 44.4551 166.364 44.184V44.1963Z" fill="white"/>
<path d="M173.025 40.2158V46.8582H176.76V48.1645H171.567V40.2158H173.025Z" fill="white"/>
<path d="M178.929 40.2158V48.1645H177.471V40.2158H178.929Z" fill="white"/>
<path d="M181.881 43.8636H185.342V45.1452H181.881V48.1645H180.435V40.2158H185.793V41.4975H181.881V43.8636Z" fill="white"/>
<path d="M192.289 48.1645H186.789V40.2158H192.147V41.4975H188.235V43.5062H191.697V44.7509H188.235V46.8582H192.289V48.1522V48.1645Z" fill="white"/>
</svg>
