<svg width="160" height="29" viewBox="0 0 160 29" fill="none" xmlns="http://www.w3.org/2000/svg">
<path d="M42.2503 2.13386H44.4672C44.8396 2.13386 45.0525 2.35592 45.0525 2.74432V4.02096C45.0525 4.40937 44.8396 4.63143 44.4672 4.63143H36.4681C36.0957 4.63143 35.8828 4.40937 35.8828 4.02096V2.74432C35.8828 2.35592 36.0957 2.13386 36.4681 2.13386H39.4655C39.2882 2.02283 39.1995 1.85649 39.1995 1.59728V0.727615C39.1995 0.339212 39.3768 0.154297 39.7492 0.154297H41.2214C41.5937 0.154297 41.771 0.339212 41.771 0.727615V1.72648C41.771 1.96711 41.9305 2.13346 42.2499 2.13346L42.2503 2.13386ZM44.5028 10.1623C44.5028 12.9926 43.0129 14.6576 40.4588 14.6576C37.9047 14.6576 36.4147 12.9926 36.4147 10.1623C36.4147 7.33208 37.9047 5.66703 40.4588 5.66703C43.0129 5.66703 44.5028 7.33208 44.5028 10.1623ZM41.9665 10.1623C41.9665 8.86752 41.4168 8.12746 40.4588 8.12746C39.5007 8.12746 38.951 8.86752 38.951 10.1623C38.951 11.4571 39.5007 12.1972 40.4588 12.1972C41.4168 12.1972 41.9665 11.4571 41.9665 10.1623ZM48.2101 17.1738H46.8088C46.4364 17.1738 46.2235 16.9517 46.2235 16.5633V1.20888C46.2235 0.820476 46.4364 0.598416 46.8088 0.598416H48.2101C48.5825 0.598416 48.7954 0.820476 48.7954 1.20888V7.40596C48.9905 7.09145 49.3985 6.88796 49.8952 6.88796H50.4627C50.8173 6.88796 51.0124 7.09145 51.0124 7.46128V8.90426C51.0124 9.27409 50.8173 9.47758 50.4627 9.47758H49.824C49.2208 9.47758 48.795 9.90313 48.795 10.495V16.5629C48.795 16.9513 48.5821 17.1734 48.2097 17.1734L48.2101 17.1738Z" fill="#01875F"/>
<path d="M54.9127 11.6785C54.8949 11.6231 54.8949 11.586 54.8949 11.5303V10.6606C54.8949 10.4014 55.0014 10.1979 55.1965 10.1055C54.3096 10.0869 53.5648 10.0502 52.8197 9.99444C52.4117 9.9573 52.2344 9.75381 52.2344 9.40255V8.31123C52.2344 7.92283 52.4473 7.71934 52.8197 7.75608C54.3449 7.88568 56.6865 7.90425 59.1693 7.90425C61.9364 7.90425 64.4548 7.86711 65.5546 7.75608C65.927 7.71894 66.1577 7.92242 66.1577 8.31123V9.40255C66.1577 9.73564 65.9804 9.9577 65.5724 9.99444C65.1644 10.0312 64.3484 10.0683 63.8343 10.0683C63.4441 10.0683 63.3199 10.2718 63.3199 10.5863V11.4927C64.7564 11.9922 65.3951 12.8618 65.3951 14.2491C65.3951 16.5432 63.6392 17.4682 59.3292 17.4682C55.0192 17.4682 53.2633 16.5432 53.2633 14.2491C53.2633 13.0096 53.7778 12.1771 54.9127 11.6777V11.6785ZM65.1292 4.0384C65.1292 6.29533 63.3911 7.25705 59.3292 7.25705C55.2673 7.25705 53.5292 6.29493 53.5292 4.0384C53.5292 1.78186 55.2673 0.819336 59.3292 0.819336C63.3911 0.819336 65.1292 1.78146 65.1292 4.0384ZM62.8236 14.2499C62.8236 13.4545 62.1318 13.2511 59.3296 13.2511C56.5273 13.2511 55.8356 13.4545 55.8356 14.2499C55.8356 15.0453 56.5273 15.2488 59.3296 15.2488C62.1318 15.2488 62.8236 15.0453 62.8236 14.2499ZM62.5573 4.0384C62.5573 3.27976 61.7947 3.03953 59.3292 3.03953C56.8637 3.03953 56.1012 3.28016 56.1012 4.0384C56.1012 4.79663 56.8994 5.03726 59.3292 5.03726C61.7591 5.03726 62.5573 4.77806 62.5573 4.0384ZM59.3292 11.0313C59.8437 11.0313 60.3047 11.0498 60.7483 11.0684V10.6614C60.7483 10.4394 60.8192 10.2545 60.979 10.1434C60.2873 10.1806 59.2053 10.1434 57.9817 10.1434C57.5915 10.1434 57.4672 10.2916 57.4672 10.6614V11.1055C58.0347 11.0502 58.6378 11.0317 59.3296 11.0317L59.3292 11.0313Z" fill="#01875F"/>
<path d="M68.0195 14.8249V13.4558C68.0195 13.0674 68.2324 12.8639 68.6048 12.9006C69.9349 13.0302 72.2587 13.178 74.2453 13.2337C73.9082 13.0674 73.6956 12.7157 73.6956 12.2534V10.8661C70.8578 10.7365 69.4921 9.47888 69.4921 6.6668C69.4921 5.40873 69.5451 3.411 69.5985 2.13435C69.6163 1.76452 69.8645 1.56104 70.2725 1.56104H71.6738C72.0284 1.56104 72.1883 1.76452 72.1704 2.1715C72.117 3.18894 72.064 4.85398 72.064 6.35228C72.064 7.75812 72.7023 8.36858 74.2101 8.36858C76.2145 8.36858 78.4845 8.22041 80.2582 7.94303C80.6128 7.88772 80.8257 8.09121 80.8613 8.47961L81.0034 9.84871C81.039 10.2004 80.8439 10.3853 80.4711 10.4406C79.2649 10.6255 77.8105 10.7551 76.2675 10.829V12.4016C76.2675 13.1784 76.8172 13.1784 77.3851 13.1784C78.3606 13.1784 80.1165 13.0674 81.3405 12.901C81.7129 12.8453 81.9436 13.0674 81.9436 13.4562V14.8253C81.9436 15.1584 81.7664 15.3433 81.3583 15.4172C80.2586 15.6206 77.7401 15.7317 74.9731 15.7317C72.4898 15.7317 70.1486 15.6392 68.6056 15.4172C68.1976 15.3614 68.0203 15.1765 68.0203 14.8253L68.0195 14.8249Z" fill="#1D1D1D"/>
<path d="M91.9122 5.42662C91.9122 8.31259 90.3336 10.0329 87.7443 10.0329C85.1549 10.0329 83.5938 8.31259 83.5938 5.42662C83.5938 2.54065 85.1546 0.838861 87.7443 0.838861C90.334 0.838861 91.9122 2.54065 91.9122 5.42662ZM85.1189 13.7886C85.1189 12.8636 85.172 12.4381 85.2254 11.9939C85.2784 11.6055 85.4383 11.3835 85.8107 11.3835H87.212C87.5844 11.3835 87.8507 11.6055 87.7973 11.9939C87.7265 12.5673 87.6909 12.8818 87.6909 13.3812C87.6909 14.4358 88.347 14.9538 89.6953 14.9538C92.0899 14.9538 94.4663 14.8056 96.3465 14.6207C96.7011 14.5836 96.8788 14.8242 96.8962 15.194L96.9848 16.5445C97.0026 16.9144 96.7897 17.0811 96.4351 17.1179C94.6614 17.3214 92.4975 17.451 89.3759 17.451C86.6623 17.451 85.1189 16.119 85.1189 13.7882V13.7886ZM87.7439 7.62824C88.7372 7.62824 89.3755 6.85143 89.3755 5.42702C89.3755 4.00261 88.7368 3.24397 87.7439 3.24397C86.751 3.24397 86.1297 4.00261 86.1297 5.42702C86.1297 6.85143 86.7506 7.62824 87.7439 7.62824ZM94.5194 0.598633H95.9207C96.2931 0.598633 96.506 0.820693 96.506 1.2091V11.5688C96.506 11.9572 96.2931 12.1793 95.9207 12.1793H94.5194C94.147 12.1793 93.9341 11.9572 93.9341 11.5688V1.2091C93.9341 0.820693 94.147 0.598633 94.5194 0.598633Z" fill="#1D1D1D"/>
<path d="M112.207 12.9004C112.579 12.8447 112.81 13.0667 112.81 13.4555V14.8246C112.81 15.1577 112.633 15.3426 112.225 15.4165C111.125 15.62 108.607 15.731 105.839 15.731C103.356 15.731 101.015 15.6386 99.472 15.4165C99.064 15.3608 98.8867 15.1759 98.8867 14.8246V13.4555C98.8867 13.0671 99.0996 12.8636 99.472 12.9004C100.252 12.9743 101.121 13.0485 102.257 13.1039C101.991 12.9375 101.813 12.5859 101.813 12.1789V10.144C101.813 10.0701 101.813 9.99583 101.831 9.94052C100.731 9.12657 100.182 7.8685 100.182 6.18529C100.182 3.02194 102.15 1.39404 105.982 1.39404C109.813 1.39404 111.782 3.02194 111.782 6.18529C111.782 7.97953 111.143 9.31148 109.884 10.1073V12.2903C109.884 12.7897 110.132 13.0671 110.558 13.0671C111.107 13.0671 111.675 12.9747 112.207 12.9008V12.9004ZM102.754 6.20386C102.754 7.81319 103.658 8.51611 105.982 8.51611C108.305 8.51611 109.21 7.81319 109.21 6.20386C109.21 4.59453 108.305 3.89161 105.982 3.89161C103.658 3.89161 102.754 4.59453 102.754 6.20386ZM104.385 10.9026V12.4381C104.385 12.9375 104.634 13.1967 105.148 13.2149C105.751 13.2335 106.974 13.2149 107.915 13.1963C107.56 13.0481 107.312 12.6783 107.312 12.1975V10.9394C106.904 10.9947 106.46 11.0133 105.982 11.0133C105.414 11.0133 104.882 10.9761 104.385 10.9022V10.9026Z" fill="#1D1D1D"/>
<path d="M118.608 9.29328C116.089 9.29328 114.457 7.62824 114.457 5.05679C114.457 2.48533 116.071 0.838861 118.608 0.838861C121.144 0.838861 122.775 2.46676 122.775 5.05679C122.775 7.64681 121.144 9.29328 118.608 9.29328ZM127.405 13.8625C127.405 16.2857 125.472 17.4699 121.516 17.4699C117.561 17.4699 115.628 16.2861 115.628 13.8625C115.628 11.4388 117.561 10.255 121.516 10.255C125.472 10.255 127.405 11.4388 127.405 13.8625ZM116.993 5.05679C116.993 6.18525 117.614 6.88817 118.608 6.88817C119.601 6.88817 120.239 6.18525 120.239 5.05679C120.239 3.92832 119.6 3.24397 118.608 3.24397C117.615 3.24397 116.993 3.94689 116.993 5.05679ZM124.833 13.8625C124.833 12.9746 124.035 12.6601 121.516 12.6601C118.998 12.6601 118.2 12.9746 118.2 13.8625C118.2 14.7503 118.998 15.0648 121.516 15.0648C124.035 15.0648 124.833 14.7503 124.833 13.8625ZM127.015 8.97877C127.015 9.36717 126.802 9.58923 126.429 9.58923H125.028C124.656 9.58923 124.443 9.36717 124.443 8.97877V1.2091C124.443 0.820693 124.656 0.598633 125.028 0.598633H126.429C126.802 0.598633 127.015 0.820693 127.015 1.2091V1.93059C127.21 1.61607 127.564 1.43116 128.026 1.43116H128.682C129.037 1.43116 129.232 1.63464 129.232 2.00447V3.26254C129.232 3.63237 129.037 3.83586 128.682 3.83586H127.919C127.316 3.83586 127.015 4.22426 127.015 4.81615V5.81502C127.21 5.5005 127.564 5.31559 128.026 5.31559H128.682C129.037 5.31559 129.232 5.51907 129.232 5.88891V7.14697C129.232 7.51681 129.037 7.72029 128.682 7.72029H127.919C127.316 7.72029 127.015 8.1087 127.015 8.70059V8.97796V8.97877Z" fill="#1D1D1D"/>
<path d="M136.997 7.35087C137.369 7.35087 137.546 7.53578 137.546 7.88744V9.27471C137.546 9.62637 137.387 9.84803 137.032 9.84803C135.595 9.84803 134.318 8.81202 133.875 7.40618C133.396 8.84916 131.977 9.84803 130.522 9.84803C130.15 9.84803 129.973 9.6074 129.973 9.27471V7.88744C129.973 7.53578 130.168 7.35087 130.558 7.35087C131.888 7.35087 132.651 6.20383 132.651 4.87187V1.5975C132.651 1.2091 132.828 1.02418 133.201 1.02418H134.513C134.886 1.02418 135.063 1.2091 135.063 1.69036V4.87227C135.063 6.25954 135.719 7.35127 136.996 7.35127L136.997 7.35087ZM132.385 13.7886C132.385 12.8636 132.439 12.4381 132.492 11.9939C132.545 11.6055 132.704 11.3835 133.077 11.3835H134.478C134.851 11.3835 135.116 11.6055 135.063 11.9939C134.993 12.5673 134.957 12.8818 134.957 13.3812C134.957 14.4358 135.613 14.9538 136.961 14.9538C139.533 14.9538 142.442 14.8056 144.322 14.6207C144.677 14.5836 144.854 14.8242 144.872 15.194L144.961 16.5445C144.978 16.9144 144.765 17.0811 144.411 17.1179C142.637 17.3214 139.941 17.451 136.642 17.451C133.928 17.451 132.385 16.119 132.385 13.7882V13.7886ZM138.256 5.77828H137.067C136.713 5.77828 136.518 5.57479 136.518 5.20496V3.85443C136.518 3.4846 136.713 3.28112 137.067 3.28112H138.292C138.646 3.28112 138.841 3.0962 138.841 2.74454V1.35727C138.841 0.968867 139.018 0.783952 139.391 0.783952H140.686C141.058 0.783952 141.235 0.968867 141.235 1.35727V11.6059C141.235 11.9943 141.058 12.1793 140.686 12.1793H139.391C139.018 12.1793 138.841 11.9943 138.841 11.6059V5.50131C138.717 5.66765 138.504 5.77868 138.256 5.77868V5.77828ZM142.672 0.598633H143.967C144.34 0.598633 144.517 0.783548 144.517 1.17195V11.6055C144.517 11.9939 144.34 12.1788 143.967 12.1788H142.672C142.3 12.1788 142.123 11.9939 142.123 11.6055V1.17195C142.123 0.783548 142.3 0.598633 142.672 0.598633Z" fill="#1D1D1D"/>
<path d="M151.755 12.3456C152.553 12.3456 153.44 12.1235 154.38 11.7723C154.487 11.7351 154.575 11.717 154.664 11.717C154.895 11.717 155.072 11.8466 155.143 12.1239L155.48 13.382C155.586 13.7704 155.48 13.9739 155.108 14.1406C154.114 14.5848 152.784 14.8436 151.507 14.8436C148.581 14.8436 146.789 13.0122 146.789 10.1262C146.789 6.98144 148.492 5.37211 151.702 5.37211C152.607 5.37211 153.422 5.42783 154.026 5.52029C154.398 5.5756 154.522 5.79766 154.522 6.16789V7.53699C154.522 7.94397 154.292 8.11031 153.937 8.055C153.263 7.94397 152.518 7.88866 151.986 7.88866C150.194 7.88866 149.361 8.61015 149.361 10.1642C149.361 11.4961 150.23 12.3472 151.756 12.3472L151.755 12.3456ZM155.019 2.3743V3.65095C155.019 4.03935 154.806 4.26141 154.434 4.26141H147.569C147.197 4.26141 146.984 4.03935 146.984 3.65095V2.3743C146.984 1.9859 147.197 1.76384 147.569 1.76384H154.434C154.806 1.76384 155.019 1.9859 155.019 2.3743ZM157.573 0.598633H158.974C159.347 0.598633 159.56 0.820693 159.56 1.2091V16.5635C159.56 16.9519 159.347 17.174 158.974 17.174H157.573C157.201 17.174 156.988 16.9519 156.988 16.5635V10.3664C156.793 10.6995 156.402 10.8844 155.924 10.8844H155.303C154.948 10.8844 154.753 10.681 154.753 10.3111V8.86814C154.753 8.49831 154.948 8.29482 155.303 8.29482H155.994C156.597 8.29482 156.988 7.90642 156.988 7.31453V1.2091C156.988 0.820693 157.201 0.598633 157.573 0.598633Z" fill="#1D1D1D"/>
<path d="M22.6785 7.96475C23.1283 7.96475 23.4252 7.9922 23.522 8.00431C23.575 8.01925 23.6323 8.03136 23.7028 8.0463C24.0763 8.12544 25.2125 8.36607 26.4655 9.05849C28.0263 9.92089 29.1865 11.1507 29.9138 12.7144C30.7593 14.5313 31.0248 16.2581 30.7264 17.993C30.4643 19.5155 29.7993 20.7728 29.3595 21.6045C28.8365 22.5932 27.1832 24.4622 24.9376 26.6036C24.8215 26.7143 24.6709 26.7805 24.5126 26.7906C23.8932 26.8297 22.8771 26.8495 21.4928 26.8495C19.6811 26.8495 17.5904 26.816 15.999 26.7837C16.7999 25.9637 17.7081 24.8978 18.3104 23.7742C19.0974 22.3054 18.8194 21.0602 18.4474 20.2745C18.0576 19.4513 17.4712 18.9345 17.3016 18.7964C17.249 18.7536 17.1952 18.7165 17.1386 18.6846C16.8983 18.5477 16.0091 18.102 14.6507 18.102C13.7186 18.102 12.7644 18.3123 11.8144 18.727C10.7863 19.1759 8.80044 19.6996 6.36594 20.1643C4.24849 20.5685 2.46045 20.7982 1.72844 20.8256C1.67309 20.7106 1.60031 20.5345 1.52018 20.2858C1.50121 20.2273 1.48379 20.1704 1.46792 20.1151C9.46277 17.1657 14.2377 13.0693 16.8425 10.1369C16.8522 10.126 16.8615 10.1147 16.8708 10.1034C17.5076 9.31326 18.4606 8.72904 19.7036 8.36607C20.8401 8.03419 21.9488 7.96475 22.6789 7.96475M22.6789 7.03613C21.0399 7.03613 17.9074 7.37488 16.1895 9.50544C9.72639 16.7801 0.511775 19.3831 0.447516 19.5167C0.383644 19.6503 0.831522 21.4523 1.2794 21.7191C1.32198 21.7446 1.43076 21.7567 1.59489 21.7567C3.14872 21.7567 9.66871 20.6702 12.1578 19.5833C13.1128 19.1663 13.9563 19.0302 14.6503 19.0302C15.8306 19.0302 16.5793 19.4238 16.7121 19.4993C16.7268 19.5074 16.7399 19.5167 16.7527 19.5272C16.9575 19.6939 18.6778 21.1838 17.5331 23.3208C16.6935 24.8881 15.1818 26.3602 14.3271 27.1204C14.1142 27.3098 14.2389 27.6728 14.5183 27.6792C15.9541 27.7131 18.9975 27.7773 21.4928 27.7773C22.747 27.7773 23.8626 27.7612 24.5664 27.7168C24.9279 27.6942 25.2709 27.5432 25.5384 27.2884C26.5666 26.3081 29.3127 23.6151 30.1391 22.0526C31.163 20.1171 32.8268 16.8467 30.7151 12.3086C28.6035 7.77014 23.8681 7.16977 23.7403 7.10275C23.7051 7.08458 23.2986 7.03613 22.6789 7.03613Z" fill="#1D1D1D"/>
<path d="M19.4471 6.78776C19.5149 6.78776 19.5838 6.77484 19.6515 6.74698C20.2511 6.49989 21.2789 6.18376 22.614 6.18376C23.6569 6.18376 24.8875 6.37675 26.2474 6.94603C26.3159 6.9747 26.3867 6.98842 26.4564 6.98842C26.6805 6.98842 26.8923 6.84671 26.9778 6.61456C27.447 5.34276 28.2208 2.1992 25.2169 0.572107C24.5224 0.195816 23.7587 0 22.9965 0C22.3427 0 21.6896 0.144137 21.0823 0.442101C19.6608 1.13937 18.2185 2.72326 18.9013 6.32103C18.9544 6.60123 19.1913 6.78776 19.4471 6.78776Z" fill="#1D1D1D"/>
<path d="M0.697636 18.5266C2.72645 17.7736 10.4708 14.6797 14.4332 9.9696C14.7038 9.64781 14.6384 9.15 14.2927 8.91986C13.3513 8.29325 11.4127 7.23584 9.05365 7.23584C7.37711 7.23584 5.48843 7.76959 3.59356 9.37165C3.59356 9.37165 -0.711033 12.7276 0.102271 18.1535C0.137885 18.3905 0.332211 18.554 0.547053 18.554C0.596602 18.554 0.647313 18.5451 0.697636 18.5266Z" fill="#1D1D1D"/>
<path d="M7.30986 5.71381C7.01333 5.75782 6.85656 6.12038 7.03888 6.36828C7.05901 6.39573 7.08108 6.41875 7.10508 6.4353C7.11785 6.44418 7.14727 6.44782 7.19179 6.44782C7.5305 6.44782 8.74485 6.22495 10.1125 6.22495C11.1174 6.22495 12.2052 6.34527 13.0893 6.76314C13.1586 6.79585 13.231 6.81119 13.3018 6.81119C13.5159 6.81119 13.718 6.67068 13.7904 6.44297C14.2522 4.98424 14.9099 1.30693 10.0018 0.866849C9.99055 0.866042 9.97971 0.865234 9.96887 0.865234C9.70796 0.865234 9.52447 1.14826 9.63673 1.40222C10.1535 2.57631 10.8669 5.18733 7.31024 5.71341L7.30986 5.71381Z" fill="#1D1D1D"/>
<path d="M16.954 22.6529C17.0821 22.319 17.7859 20.6507 15.5461 20.05C15.303 19.9846 15.0591 19.9551 14.8075 19.9551C12.6645 19.9551 9.94009 22.0994 1.98047 22.6444C1.98047 22.7341 2.01995 22.8184 2.08731 22.8738C2.87158 23.5133 7.72083 27.4571 8.43465 27.7772C8.81478 27.948 9.47673 28.0284 10.1689 28.0284C10.861 28.0284 11.6445 27.9412 12.1474 27.7772C13.9466 27.1914 16.8259 22.9868 16.954 22.6529Z" fill="#1D1D1D"/>
<path d="M7.55302 4.76607C8.43662 4.76607 9.15292 4.01898 9.15292 3.09739C9.15292 2.1758 8.43662 1.42871 7.55302 1.42871C6.66942 1.42871 5.95312 2.1758 5.95312 3.09739C5.95312 4.01898 6.66942 4.76607 7.55302 4.76607Z" fill="#1D1D1D"/>
<path d="M37.9167 27.0634H37.4243C37.2935 27.0634 37.2188 26.9855 37.2188 26.849V22.1704C37.2188 22.034 37.2935 21.9561 37.4243 21.9561H37.9167C38.0475 21.9561 38.1223 22.034 38.1223 22.1704V23.9703C38.2155 23.8468 38.4525 23.7753 38.6332 23.7753H40.1785V22.1704C40.1785 22.034 40.2533 21.9561 40.3841 21.9561H40.8765C41.0073 21.9561 41.082 22.034 41.082 22.1704V26.849C41.082 26.9855 41.0073 27.0634 40.8765 27.0634H40.3841C40.2533 27.0634 40.1785 26.9855 40.1785 26.849V24.685H38.6085C38.3967 24.685 38.1226 24.8344 38.1226 25.0423V26.8486C38.1226 26.9851 38.0479 27.063 37.9171 27.063L37.9167 27.0634Z" fill="#1D1D1D"/>
<path d="M42.1741 24.3604C42.0494 24.3604 41.9747 24.2889 41.9871 24.1718C42.0432 23.5024 42.6912 23.0801 43.6632 23.0801C44.6976 23.0801 45.2581 23.6195 45.2581 24.5097V26.849C45.2581 26.9855 45.1834 27.0634 45.0526 27.0634H44.5605C44.4297 27.0634 44.355 26.9855 44.355 26.849V26.7061C44.0496 26.9597 43.5638 27.1284 43.1527 27.1284C42.2991 27.1284 41.7695 26.654 41.7695 25.8809C41.7695 24.9385 42.4923 24.542 44.355 24.4968V24.4577C44.355 24.081 44.1742 23.9053 43.6447 23.9053C43.2583 23.9053 43.0714 24.0026 42.9657 24.2106C42.9096 24.3212 42.8596 24.36 42.7539 24.36H42.1744L42.1741 24.3604ZM44.367 25.3156C43.0772 25.3415 42.6661 25.5171 42.6661 25.8873C42.6661 26.1211 42.903 26.3096 43.3203 26.3096C43.688 26.3096 44.0554 26.1861 44.367 26.0302V25.3156Z" fill="#1D1D1D"/>
<path d="M46.0805 24.8154C45.9497 24.8154 45.875 24.7375 45.875 24.601V24.1202C45.875 23.9837 45.9497 23.9058 46.0805 23.9058H48.9714C49.1023 23.9058 49.177 23.9837 49.177 24.1202V24.601C49.177 24.7375 49.1023 24.8154 48.9714 24.8154H46.0805Z" fill="#1D1D1D"/>
<path d="M50.8064 26.9798C50.8626 27.2398 51.0867 27.3565 51.4792 27.3565C51.965 27.3565 52.1958 27.1485 52.1958 26.6741V26.1868C51.984 26.4404 51.6039 26.6091 51.2299 26.6091C50.3017 26.6091 49.7969 26.0374 49.7969 24.9324V23.3662C49.7969 23.2298 49.8716 23.1519 50.0024 23.1519H50.4944C50.6253 23.1519 50.7 23.2298 50.7 23.3662V24.8609C50.7 25.4391 50.9493 25.712 51.4289 25.712C51.9085 25.712 52.1954 25.4132 52.1954 24.9711V23.3662C52.1954 23.2298 52.2701 23.1519 52.4009 23.1519H52.8933C53.0242 23.1519 53.0989 23.2298 53.0989 23.3662V26.6802C53.0989 27.7004 52.5194 28.2398 51.4665 28.2398C50.5258 28.2398 49.9026 27.7719 49.9026 27.0246C49.9026 26.901 49.9773 26.8296 50.1081 26.8296H50.6315C50.7313 26.8296 50.7809 26.8752 50.8061 26.979L50.8064 26.9798Z" fill="#1D1D1D"/>
<path d="M55.1596 27.1291C54.2252 27.1291 53.7266 26.5574 53.7266 25.4523V23.3662C53.7266 23.2297 53.8013 23.1518 53.9321 23.1518H54.4245C54.5554 23.1518 54.6301 23.2297 54.6301 23.3662V25.3804C54.6301 25.9586 54.8732 26.2315 55.359 26.2315C55.8448 26.2315 56.1254 25.9259 56.1254 25.4907V23.3658C56.1254 23.2293 56.2002 23.1514 56.331 23.1514H56.8234C56.9542 23.1514 57.0289 23.2293 57.0289 23.3658V26.8489C57.0289 26.9853 56.9542 27.0633 56.8234 27.0633H56.331C56.2002 27.0633 56.1254 26.9853 56.1254 26.8489V26.693C55.8762 26.9789 55.5274 27.1283 55.1596 27.1283V27.1291Z" fill="#1D1D1D"/>
<path d="M59.5838 23.0874C60.5182 23.0874 61.0168 23.6591 61.0168 24.7642V26.8503C61.0168 26.9868 60.9421 27.0647 60.8113 27.0647H60.3193C60.1884 27.0647 60.1137 26.9868 60.1137 26.8503V24.836C60.1137 24.2575 59.8706 23.9849 59.3848 23.9849C58.899 23.9849 58.6183 24.2906 58.6183 24.7258V26.8507C58.6183 26.9872 58.5436 27.0651 58.4128 27.0651H57.9204C57.7896 27.0651 57.7148 26.9872 57.7148 26.8507V23.3676C57.7148 23.2311 57.7896 23.1532 57.9204 23.1532H58.4128C58.5436 23.1532 58.6183 23.2311 58.6183 23.3676V23.5234C58.8676 23.2376 59.2164 23.0882 59.5842 23.0882L59.5838 23.0874Z" fill="#1D1D1D"/>
<path d="M63.136 26.6093C62.2077 26.6093 61.6406 25.9205 61.6406 24.8679C61.6406 23.8154 62.2387 23.0874 63.1608 23.0874C63.5409 23.0874 63.9458 23.2695 64.1638 23.5033L64.17 23.3668C64.1762 23.2303 64.2447 23.1524 64.3755 23.1524H64.8679C64.9987 23.1524 65.0735 23.2303 65.0735 23.3668V26.6807C65.0735 27.6945 64.5125 28.2404 63.441 28.2404C62.4814 28.2404 61.8771 27.766 61.8771 27.0251C61.8771 26.9016 61.9519 26.8301 62.0827 26.8301H62.6061C62.6994 26.8301 62.7555 26.8757 62.7806 26.9795C62.843 27.2395 63.0361 27.3562 63.4534 27.3562C63.952 27.3562 64.17 27.1418 64.17 26.6739V26.1866C63.9207 26.4595 63.5595 26.6089 63.1356 26.6089L63.136 26.6093ZM63.3354 25.7126C63.8711 25.7126 64.1765 25.459 64.1765 25.1211V24.1852C63.9896 24.0746 63.6656 23.9837 63.3729 23.9837C62.8372 23.9837 62.5317 24.3281 62.5317 24.8611C62.5317 25.394 62.8372 25.7121 63.3354 25.7121V25.7126Z" fill="#1D1D1D"/>
<path d="M69.282 24.9262C67.9361 24.4388 67.5002 24.0359 67.5002 23.2821C67.5002 22.3591 68.1358 21.8916 69.3444 21.8916C70.5529 21.8916 71.1885 22.3854 71.1885 23.3669C71.1885 23.5034 71.1138 23.5813 70.983 23.5813H70.4906C70.3597 23.5813 70.285 23.5034 70.285 23.3669C70.285 22.9833 69.9734 22.8016 69.3192 22.8016C68.7026 22.8016 68.4033 22.9446 68.4033 23.2437C68.4033 23.5231 68.7273 23.744 69.5433 24.0234C70.8893 24.4849 71.3751 24.9395 71.3751 25.7389C71.3751 26.6748 70.7147 27.1294 69.4063 27.1294C68.0979 27.1294 67.4375 26.6485 67.4375 25.6541C67.4375 25.5176 67.5122 25.4397 67.6431 25.4397H68.1354C68.2663 25.4397 68.341 25.5176 68.341 25.6541C68.341 26.0506 68.6712 26.2193 69.4315 26.2193C70.1418 26.2193 70.472 26.0829 70.472 25.7841C70.472 25.4591 70.1917 25.2576 69.282 24.9262Z" fill="#1D1D1D"/>
<path d="M73.8755 26.2841C74.2804 26.2841 74.5111 26.1735 74.6358 25.9526C74.6919 25.8549 74.7357 25.8549 74.8413 25.8549H75.3647C75.4893 25.8549 75.5517 25.8872 75.5265 26.0172C75.4081 26.7189 74.7477 27.1348 73.8504 27.1348C72.679 27.1348 72 26.4852 72 25.114C72 23.7429 72.6666 23.0864 73.788 23.0864C74.9095 23.0864 75.5451 23.7688 75.5451 25.0426C75.5451 25.3676 75.3833 25.5299 75.0465 25.5299H72.9345C73.0216 26.0822 73.3084 26.2837 73.8751 26.2837L73.8755 26.2841ZM73.8008 23.9319C73.2651 23.9319 72.9848 24.1725 72.9225 24.783H74.6358C74.6172 24.1786 74.3304 23.9319 73.8008 23.9319Z" fill="#1D1D1D"/>
<path d="M78.1267 23.0874C79.0612 23.0874 79.5598 23.6591 79.5598 24.7642V26.8503C79.5598 26.9868 79.4851 27.0647 79.3543 27.0647H78.8622C78.7314 27.0647 78.6567 26.9868 78.6567 26.8503V24.836C78.6567 24.2575 78.4136 23.9849 77.9278 23.9849C77.442 23.9849 77.1613 24.2906 77.1613 24.7258V26.8507C77.1613 26.9872 77.0866 27.0651 76.9558 27.0651H76.4634C76.3325 27.0651 76.2578 26.9872 76.2578 26.8507V23.3676C76.2578 23.2311 76.3325 23.1532 76.4634 23.1532H76.9558C77.0866 23.1532 77.1613 23.2311 77.1613 23.3676V23.5234C77.4106 23.2376 77.7594 23.0882 78.1271 23.0882L78.1267 23.0874Z" fill="#1D1D1D"/>
<path d="M80.3672 22.1704C80.3672 22.034 80.4419 21.9561 80.5727 21.9561H81.0651C81.196 21.9561 81.2707 22.034 81.2707 22.1704V22.7098C81.2707 22.8463 81.196 22.9242 81.0651 22.9242H80.5727C80.4419 22.9242 80.3672 22.8463 80.3672 22.7098V22.1704ZM80.3672 23.4636C80.3672 23.3272 80.4419 23.2492 80.5727 23.2492H81.0651C81.196 23.2492 81.2707 23.3272 81.2707 23.4636V26.8494C81.2707 26.9859 81.196 27.0638 81.0651 27.0638H80.5727C80.4419 27.0638 80.3672 26.9859 80.3672 26.8494V23.4636Z" fill="#1D1D1D"/>
<path d="M83.8864 23.0874C85.0078 23.0874 85.6868 23.7762 85.6868 25.1086C85.6868 26.4409 85.0078 27.1297 83.8864 27.1297C82.7649 27.1297 82.0859 26.4409 82.0859 25.1086C82.0859 23.7762 82.7649 23.0874 83.8864 23.0874ZM83.8864 26.2455C84.5158 26.2455 84.796 25.8753 84.796 25.1081C84.796 24.341 84.5158 23.9708 83.8864 23.9708C83.2569 23.9708 82.9767 24.341 82.9767 25.1081C82.9767 25.8753 83.2569 26.2455 83.8864 26.2455Z" fill="#1D1D1D"/>
<path d="M88.7921 23.4383L88.6736 23.932C88.6488 24.0229 88.5927 24.0814 88.5118 24.0814C88.487 24.0814 88.4619 24.075 88.4309 24.062C88.3001 24.01 88.1506 23.9841 88.0136 23.9841C87.5712 23.9841 87.2785 24.2764 87.2785 24.725V26.8499C87.2785 26.9864 87.2038 27.0643 87.0729 27.0643H86.5806C86.4497 27.0643 86.375 26.9864 86.375 26.8499V23.3668C86.375 23.2303 86.4497 23.1524 86.5806 23.1524H87.0729C87.2038 23.1524 87.2785 23.2303 87.2785 23.3668V23.4576C87.5026 23.2105 87.8142 23.0874 88.182 23.0874C88.3752 23.0874 88.5683 23.1266 88.674 23.1847C88.7925 23.2497 88.8234 23.3212 88.7925 23.4383H88.7921Z" fill="#1D1D1D"/>
<path d="M94.1424 25.3743C94.18 25.2572 94.2485 25.2185 94.3731 25.2508L94.8841 25.3808C95.0026 25.4131 95.0397 25.4716 95.0211 25.5952C94.8655 26.5763 94.1552 27.1351 92.99 27.1351C91.6131 27.1351 90.8594 26.2642 90.8594 24.5099C90.8594 22.7556 91.6007 21.8848 92.959 21.8848C94.0929 21.8848 94.7722 22.3785 94.9278 23.295C94.9464 23.4186 94.9093 23.4771 94.7908 23.5094L94.2798 23.6394C94.1552 23.6717 94.0867 23.633 94.0491 23.5159C93.8807 23.0221 93.5505 22.8009 92.9838 22.8009C92.1612 22.8009 91.7625 23.2753 91.7625 24.5099C91.7625 25.7446 92.1674 26.219 93.0148 26.219C93.6128 26.219 93.9744 25.9331 94.1424 25.3743Z" fill="#1D1D1D"/>
<path d="M95.8616 24.3604C95.7369 24.3604 95.6622 24.2889 95.6746 24.1718C95.7307 23.5024 96.3787 23.0801 97.3507 23.0801C98.3851 23.0801 98.9456 23.6195 98.9456 24.5097V26.849C98.9456 26.9855 98.8709 27.0634 98.7401 27.0634H98.2481C98.1172 27.0634 98.0425 26.9855 98.0425 26.849V26.7061C97.7371 26.9597 97.2513 27.1284 96.8402 27.1284C95.9866 27.1284 95.457 26.654 95.457 25.8809C95.457 24.9385 96.1798 24.542 98.0425 24.4968V24.4577C98.0425 24.081 97.8617 23.9053 97.3322 23.9053C96.9458 23.9053 96.7589 24.0026 96.6532 24.2106C96.5971 24.3212 96.5471 24.36 96.4414 24.36H95.8619L95.8616 24.3604ZM98.0549 25.3156C96.7651 25.3415 96.354 25.5171 96.354 25.8873C96.354 26.1211 96.5909 26.3096 97.0082 26.3096C97.3759 26.3096 97.7433 26.1861 98.0549 26.0302V25.3156Z" fill="#1D1D1D"/>
<path d="M102.046 23.4383L101.928 23.932C101.903 24.0229 101.847 24.0814 101.766 24.0814C101.741 24.0814 101.716 24.075 101.685 24.062C101.554 24.01 101.405 23.9841 101.268 23.9841C100.825 23.9841 100.532 24.2764 100.532 24.725V26.8499C100.532 26.9864 100.458 27.0643 100.327 27.0643H99.8345C99.7036 27.0643 99.6289 26.9864 99.6289 26.8499V23.3668C99.6289 23.2303 99.7036 23.1524 99.8345 23.1524H100.327C100.458 23.1524 100.532 23.2303 100.532 23.3668V23.4576C100.757 23.2105 101.068 23.0874 101.436 23.0874C101.629 23.0874 101.822 23.1266 101.928 23.1847C102.046 23.2497 102.077 23.3212 102.046 23.4383H102.046Z" fill="#1D1D1D"/>
<path d="M104.114 26.2841C104.519 26.2841 104.749 26.1735 104.874 25.9526C104.93 25.8549 104.974 25.8549 105.08 25.8549H105.603C105.728 25.8549 105.79 25.8872 105.765 26.0172C105.646 26.7189 104.986 27.1348 104.089 27.1348C102.917 27.1348 102.238 26.4852 102.238 25.114C102.238 23.7429 102.905 23.0864 104.026 23.0864C105.148 23.0864 105.783 23.7688 105.783 25.0426C105.783 25.3676 105.622 25.5299 105.285 25.5299H103.173C103.26 26.0822 103.547 26.2837 104.113 26.2837L104.114 26.2841ZM104.039 23.9319C103.503 23.9319 103.223 24.1725 103.161 24.783H104.874C104.855 24.1786 104.569 23.9319 104.039 23.9319Z" fill="#1D1D1D"/>
<path d="M111.471 25.3743C111.508 25.2572 111.577 25.2185 111.701 25.2508L112.212 25.3808C112.331 25.4131 112.368 25.4716 112.349 25.5952C112.194 26.5763 111.483 27.1351 110.318 27.1351C108.941 27.1351 108.188 26.2642 108.188 24.5099C108.188 22.7556 108.929 21.8848 110.287 21.8848C111.421 21.8848 112.1 22.3785 112.256 23.295C112.275 23.4186 112.237 23.4771 112.119 23.5094L111.608 23.6394C111.483 23.6717 111.415 23.633 111.377 23.5159C111.209 23.0221 110.879 22.8009 110.312 22.8009C109.489 22.8009 109.091 23.2753 109.091 24.5099C109.091 25.7446 109.496 26.219 110.343 26.219C110.941 26.219 111.303 25.9331 111.471 25.3743Z" fill="#1D1D1D"/>
<path d="M114.653 26.2841C115.058 26.2841 115.288 26.1735 115.413 25.9526C115.469 25.8549 115.513 25.8549 115.619 25.8549H116.142C116.267 25.8549 116.329 25.8872 116.304 26.0172C116.185 26.7189 115.525 27.1348 114.628 27.1348C113.456 27.1348 112.777 26.4852 112.777 25.114C112.777 23.7429 113.444 23.0864 114.565 23.0864C115.687 23.0864 116.322 23.7688 116.322 25.0426C116.322 25.3676 116.161 25.5299 115.824 25.5299H113.712C113.799 26.0822 114.086 26.2837 114.652 26.2837L114.653 26.2841ZM114.578 23.9319C114.042 23.9319 113.762 24.1725 113.7 24.783H115.413C115.395 24.1786 115.108 23.9319 114.578 23.9319Z" fill="#1D1D1D"/>
<path d="M118.92 23.0874C119.854 23.0874 120.353 23.6591 120.353 24.7642V26.8503C120.353 26.9868 120.278 27.0647 120.147 27.0647H119.655C119.524 27.0647 119.45 26.9868 119.45 26.8503V24.836C119.45 24.2575 119.207 23.9849 118.721 23.9849C118.235 23.9849 117.954 24.2906 117.954 24.7258V26.8507C117.954 26.9872 117.88 27.0651 117.749 27.0651H117.256C117.125 27.0651 117.051 26.9872 117.051 26.8507V23.3676C117.051 23.2311 117.125 23.1532 117.256 23.1532H117.749C117.88 23.1532 117.954 23.2311 117.954 23.3676V23.5234C118.204 23.2376 118.552 23.0882 118.92 23.0882L118.92 23.0874Z" fill="#1D1D1D"/>
<path d="M122.762 24.1655V25.6472C122.762 25.9723 122.893 26.1539 123.298 26.1539C123.398 26.1539 123.547 26.1475 123.672 26.1216C123.803 26.0958 123.896 26.1608 123.896 26.2839V26.804C123.896 26.934 123.834 27.0054 123.703 27.0248C123.585 27.0442 123.373 27.064 123.099 27.064C122.189 27.064 121.859 26.6675 121.859 25.8293V24.1659H120.987C120.856 24.1659 120.781 24.088 120.781 23.9515V23.4706C120.781 23.3342 120.856 23.2563 120.987 23.2563H121.859V22.106C121.859 21.9695 121.934 21.8916 122.065 21.8916H122.557C122.687 21.8916 122.762 21.9695 122.762 22.106V23.2563H123.815C123.946 23.2563 124.021 23.3342 124.021 23.4706V23.9515C124.021 24.088 123.946 24.1659 123.815 24.1659H122.762L122.762 24.1655Z" fill="#1D1D1D"/>
<path d="M126.336 26.2841C126.741 26.2841 126.972 26.1735 127.097 25.9526C127.153 25.8549 127.197 25.8549 127.302 25.8549H127.826C127.95 25.8549 128.013 25.8872 127.987 26.0172C127.869 26.7189 127.209 27.1348 126.311 27.1348C125.14 27.1348 124.461 26.4852 124.461 25.114C124.461 23.7429 125.128 23.0864 126.249 23.0864C127.37 23.0864 128.006 23.7688 128.006 25.0426C128.006 25.3676 127.844 25.5299 127.507 25.5299H125.395C125.483 26.0822 125.769 26.2837 126.336 26.2837L126.336 26.2841ZM126.262 23.9319C125.726 23.9319 125.446 24.1725 125.383 24.783H127.097C127.078 24.1786 126.791 23.9319 126.262 23.9319Z" fill="#1D1D1D"/>
<path d="M131.14 23.4383L131.021 23.932C130.996 24.0229 130.94 24.0814 130.859 24.0814C130.835 24.0814 130.81 24.075 130.779 24.062C130.648 24.01 130.498 23.9841 130.361 23.9841C129.919 23.9841 129.626 24.2764 129.626 24.725V26.8499C129.626 26.9864 129.551 27.0643 129.421 27.0643H128.928C128.797 27.0643 128.723 26.9864 128.723 26.8499V23.3668C128.723 23.2303 128.797 23.1524 128.928 23.1524H129.421C129.551 23.1524 129.626 23.2303 129.626 23.3668V23.4576C129.85 23.2105 130.162 23.0874 130.53 23.0874C130.723 23.0874 130.916 23.1266 131.022 23.1847C131.14 23.2497 131.171 23.3212 131.14 23.4383H131.14Z" fill="#1D1D1D"/>
</svg>
