<svg width="1263" height="62" viewBox="0 0 1263 62" fill="none" xmlns="http://www.w3.org/2000/svg">
<rect x="0.5" y="0.5" width="618" height="61" fill="white" stroke="#01875F"/>
<rect x="644.5" y="0.5" width="618" height="61" fill="white" stroke="#01875F"/>
<path d="M136.151 31.9282H128.896V24.665H136.151V31.9282ZM130.997 30.2598H134.068V26.3584H130.997V30.2598ZM140.435 34.4517H138.318V23.4282H140.435V34.4517ZM142.477 29.521H139.82V27.7778H142.477V29.521ZM140.974 38.27H130.631V36.5601H140.974V38.27ZM132.748 37.4067H130.631V33.356H132.748V37.4067ZM148.295 37.166C147.404 37.1605 146.594 36.964 145.863 36.5767C145.133 36.1893 144.546 35.5557 144.104 34.6758C143.661 33.7959 143.439 32.6587 143.439 31.2642C143.439 29.9305 143.644 28.7795 144.054 27.811C144.463 26.8371 145.039 26.0955 145.78 25.5864C146.522 25.0718 147.391 24.8145 148.387 24.8145C149.173 24.8145 149.878 24.9666 150.503 25.271C151.134 25.5754 151.638 25.9959 152.014 26.5327C152.396 27.064 152.628 27.6589 152.711 28.3174H150.246C150.18 28.0352 150.061 27.7917 149.889 27.5869C149.723 27.3766 149.51 27.2189 149.25 27.1138C148.995 27.0086 148.708 26.9561 148.387 26.9561C147.844 26.9561 147.388 27.111 147.017 27.4209C146.652 27.7253 146.372 28.1652 146.179 28.7407C145.991 29.3107 145.894 29.9914 145.888 30.7827H145.988C146.176 30.4341 146.425 30.1325 146.735 29.8779C147.05 29.6178 147.407 29.4214 147.806 29.2886C148.204 29.1558 148.625 29.0894 149.067 29.0894C149.781 29.0894 150.423 29.2581 150.993 29.5957C151.569 29.9277 152.02 30.3898 152.346 30.9819C152.673 31.5685 152.836 32.2326 152.836 32.9741C152.836 33.7876 152.645 34.5125 152.263 35.1489C151.887 35.7798 151.353 36.2751 150.661 36.6348C149.975 36.9889 149.186 37.166 148.295 37.166ZM148.279 35.1987C148.683 35.1987 149.048 35.1047 149.375 34.9165C149.701 34.7228 149.956 34.4627 150.138 34.1362C150.321 33.8097 150.412 33.4473 150.412 33.0488C150.412 32.6504 150.324 32.2879 150.146 31.9614C149.969 31.6349 149.715 31.3804 149.383 31.1978C149.056 31.0096 148.694 30.9155 148.295 30.9155C147.897 30.9155 147.535 31.0096 147.208 31.1978C146.882 31.3859 146.621 31.646 146.428 31.978C146.234 32.3045 146.137 32.6642 146.137 33.0571C146.137 33.4445 146.231 33.8014 146.419 34.1279C146.608 34.4544 146.862 34.7145 147.183 34.9082C147.51 35.1019 147.875 35.1987 148.279 35.1987ZM158.995 37.166C158.171 37.166 157.426 37.0138 156.762 36.7095C156.104 36.4051 155.583 35.9845 155.202 35.4478C154.82 34.9054 154.623 34.2939 154.612 33.6133H157.028C157.05 33.9176 157.15 34.1916 157.327 34.4351C157.509 34.673 157.747 34.8612 158.041 34.9995C158.334 35.1323 158.652 35.1987 158.995 35.1987C159.41 35.1987 159.778 35.1074 160.099 34.9248C160.42 34.7422 160.672 34.4904 160.854 34.1694C161.037 33.8429 161.128 33.4749 161.128 33.0654C161.128 32.6449 161.034 32.2713 160.846 31.9448C160.664 31.6183 160.406 31.3638 160.074 31.1812C159.748 30.993 159.374 30.8989 158.954 30.8989C158.505 30.8934 158.124 30.9764 157.808 31.1479C157.498 31.314 157.255 31.5658 157.078 31.9033H154.812L155.467 24.9805H162.863V27.0308H157.526L157.194 30.0605H157.285C157.512 29.7562 157.841 29.5099 158.273 29.3218C158.705 29.1336 159.181 29.0396 159.701 29.0396C160.426 29.0396 161.079 29.2083 161.66 29.5459C162.246 29.8779 162.706 30.3483 163.038 30.957C163.37 31.5602 163.536 32.2409 163.536 32.999C163.536 33.8014 163.345 34.5181 162.963 35.1489C162.581 35.7798 162.047 36.2751 161.361 36.6348C160.675 36.9889 159.886 37.166 158.995 37.166ZM173.314 30.2515H170.741V28.5166H173.314V30.2515ZM169.155 27.3213C169.155 28.5055 169.034 29.6261 168.79 30.6831C168.552 31.7345 168.179 32.6836 167.669 33.5303C167.166 34.3714 166.527 35.0272 165.752 35.4976L164.457 33.9204C165.171 33.4832 165.757 32.916 166.217 32.2188C166.676 31.516 167.008 30.7523 167.213 29.9277C167.423 29.1032 167.528 28.2344 167.528 27.3213V24.7148H169.155V27.3213ZM169.579 27.2217C169.579 28.1182 169.667 28.9565 169.844 29.7368C170.021 30.5116 170.315 31.231 170.724 31.895C171.134 32.5535 171.668 33.0959 172.326 33.522L171.181 35.1489C170.411 34.6841 169.789 34.0422 169.313 33.2231C168.837 32.4041 168.497 31.4938 168.292 30.4922C168.087 29.485 167.988 28.3949 167.993 27.2217V24.7148H169.579V27.2217ZM177.838 38.5273H175.804V23.4033H177.838V38.5273ZM174.675 37.8301H172.691V23.6357H174.675V37.8301ZM196.017 38.5688H193.867V23.4033H196.017V38.5688ZM187.807 24.4741C188.565 24.4741 189.246 24.6955 189.849 25.1382C190.458 25.5754 190.931 26.2035 191.269 27.0225C191.612 27.8359 191.783 28.7822 191.783 29.8613C191.783 30.946 191.612 31.8978 191.269 32.7168C190.931 33.5303 190.458 34.1556 189.849 34.5928C189.246 35.0299 188.565 35.2485 187.807 35.2485C187.038 35.2541 186.349 35.0382 185.74 34.6011C185.137 34.1584 184.664 33.5303 184.321 32.7168C183.978 31.8978 183.806 30.946 183.806 29.8613C183.806 28.7822 183.978 27.8359 184.321 27.0225C184.664 26.2035 185.137 25.5754 185.74 25.1382C186.349 24.6955 187.038 24.4741 187.807 24.4741ZM187.807 26.3916C187.414 26.3861 187.068 26.5189 186.77 26.79C186.476 27.0557 186.249 27.4513 186.089 27.9771C185.934 28.4972 185.859 29.1253 185.865 29.8613C185.859 30.5973 185.934 31.2254 186.089 31.7456C186.249 32.2658 186.476 32.6615 186.77 32.9326C187.068 33.1982 187.414 33.3311 187.807 33.3311C188.189 33.3311 188.527 33.1982 188.82 32.9326C189.113 32.6615 189.34 32.2658 189.5 31.7456C189.661 31.2254 189.741 30.5973 189.741 29.8613C189.741 29.1253 189.661 28.4972 189.5 27.9771C189.34 27.4569 189.113 27.0612 188.82 26.79C188.527 26.5189 188.189 26.3861 187.807 26.3916ZM203.164 25.5864C203.164 26.6157 203.009 27.5703 202.699 28.4502C202.394 29.3301 201.93 30.0965 201.304 30.7495C200.679 31.397 199.904 31.8784 198.98 32.1938L197.843 30.5337C198.651 30.257 199.323 29.8669 199.86 29.3633C200.397 28.8542 200.792 28.2786 201.047 27.6367C201.301 26.9948 201.431 26.3114 201.437 25.5864V24.2168H203.164V25.5864ZM203.562 25.7939C203.562 26.4303 203.687 27.0308 203.936 27.5952C204.19 28.1597 204.575 28.6632 205.089 29.106C205.61 29.5431 206.254 29.8835 207.023 30.127L205.895 31.7705C205.009 31.4772 204.265 31.0373 203.662 30.4507C203.058 29.8586 202.605 29.1668 202.3 28.3755C201.996 27.5841 201.847 26.7236 201.852 25.7939V24.2168H203.562V25.7939ZM210.045 32.3765H207.928V23.4033H210.045V32.3765ZM212.087 28.7158H209.447V26.9478H212.087V28.7158ZM205.089 32.6836C206.13 32.6836 207.032 32.7998 207.795 33.0322C208.565 33.2591 209.154 33.5939 209.563 34.0366C209.979 34.4738 210.186 34.994 210.186 35.5972C210.186 36.2114 209.979 36.7371 209.563 37.1743C209.154 37.6115 208.565 37.9463 207.795 38.1787C207.032 38.4111 206.13 38.5273 205.089 38.5273C204.032 38.5273 203.114 38.4111 202.333 38.1787C201.559 37.9463 200.961 37.6115 200.541 37.1743C200.12 36.7371 199.91 36.2114 199.91 35.5972C199.91 34.994 200.12 34.4738 200.541 34.0366C200.961 33.5939 201.559 33.2591 202.333 33.0322C203.114 32.7998 204.032 32.6836 205.089 32.6836ZM205.089 34.3438C204.431 34.3382 203.875 34.3853 203.421 34.4849C202.967 34.5789 202.621 34.7201 202.383 34.9082C202.151 35.0964 202.037 35.326 202.043 35.5972C202.037 35.8794 202.151 36.1146 202.383 36.3027C202.616 36.4909 202.956 36.632 203.404 36.7261C203.858 36.8201 204.42 36.8672 205.089 36.8672C205.748 36.8672 206.301 36.8201 206.75 36.7261C207.198 36.632 207.535 36.4909 207.762 36.3027C207.989 36.1146 208.103 35.8794 208.103 35.5972C208.103 35.326 207.986 35.0964 207.754 34.9082C207.527 34.7145 207.189 34.5706 206.741 34.4766C206.293 34.3825 205.742 34.3382 205.089 34.3438ZM229.004 31.6377H218.229V29.936H229.004V31.6377ZM230.506 36.8008H216.694V35.1074H230.506V36.8008ZM224.646 35.5806H222.529V30.9238H224.646V35.5806ZM220.396 30.6582H218.229V24.5737H220.396V30.6582ZM244.02 34.2939H241.903V23.4365H244.02V34.2939ZM244.435 38.27H233.901V36.5601H244.435V38.27ZM236.043 37.2573H233.901V33.2065H236.043V37.2573ZM235.744 24.3911C236.508 24.3911 237.205 24.5544 237.836 24.8809C238.472 25.2074 238.97 25.6611 239.33 26.2422C239.695 26.8232 239.878 27.4735 239.878 28.1929C239.878 28.9289 239.695 29.5902 239.33 30.1768C238.97 30.7578 238.475 31.2144 237.844 31.5464C237.213 31.8729 236.513 32.0361 235.744 32.0361C234.975 32.0361 234.275 31.8729 233.644 31.5464C233.019 31.2144 232.523 30.7578 232.158 30.1768C231.793 29.5902 231.61 28.9289 231.61 28.1929C231.61 27.4735 231.793 26.8232 232.158 26.2422C232.523 25.6611 233.019 25.2074 233.644 24.8809C234.275 24.5544 234.975 24.3911 235.744 24.3911ZM235.744 26.2339C235.351 26.2339 234.997 26.3141 234.682 26.4746C234.372 26.6296 234.125 26.8564 233.943 27.1553C233.766 27.4486 233.677 27.7944 233.677 28.1929C233.677 28.6079 233.766 28.9648 233.943 29.2637C234.125 29.5625 234.372 29.7922 234.682 29.9526C234.997 30.1131 235.351 30.1906 235.744 30.1851C236.132 30.1906 236.477 30.1131 236.782 29.9526C237.092 29.7922 237.335 29.5625 237.512 29.2637C237.689 28.9648 237.778 28.6079 237.778 28.1929C237.778 27.7944 237.689 27.4486 237.512 27.1553C237.335 26.8564 237.092 26.6296 236.782 26.4746C236.472 26.3141 236.126 26.2339 235.744 26.2339ZM251.956 37.1494C251.707 37.1494 251.474 37.0885 251.258 36.9668C251.042 36.8395 250.871 36.668 250.744 36.4521C250.622 36.2363 250.564 36.0011 250.569 35.7466C250.564 35.4976 250.622 35.2679 250.744 35.0576C250.871 34.8473 251.042 34.6813 251.258 34.5596C251.474 34.4378 251.707 34.377 251.956 34.377C252.199 34.377 252.429 34.4378 252.645 34.5596C252.86 34.6813 253.029 34.8501 253.151 35.0659C253.278 35.2762 253.345 35.5031 253.35 35.7466C253.345 36.0011 253.278 36.2363 253.151 36.4521C253.029 36.668 252.86 36.8395 252.645 36.9668C252.429 37.0885 252.199 37.1494 251.956 37.1494ZM251.956 30.8242C251.707 30.8242 251.474 30.7633 251.258 30.6416C251.042 30.5143 250.871 30.3428 250.744 30.127C250.622 29.9111 250.564 29.6759 250.569 29.4214C250.564 29.1724 250.622 28.9427 250.744 28.7324C250.871 28.5221 251.042 28.3561 251.258 28.2344C251.474 28.1126 251.707 28.0518 251.956 28.0518C252.199 28.0518 252.429 28.1126 252.645 28.2344C252.86 28.3561 253.029 28.5249 253.151 28.7407C253.278 28.951 253.345 29.1779 253.35 29.4214C253.345 29.6759 253.278 29.9111 253.151 30.127C253.029 30.3428 252.86 30.5143 252.645 30.6416C252.429 30.7633 252.199 30.8242 251.956 30.8242ZM272.55 32.0527H258.746V30.3262H272.55V32.0527ZM270.973 29.272H260.414V27.5786H270.973V29.272ZM270.89 25.52H262.514V28.4336H260.414V23.8267H270.89V25.52ZM265.61 32.9575C266.701 32.9575 267.639 33.0654 268.424 33.2812C269.21 33.4971 269.813 33.8153 270.234 34.2358C270.654 34.6509 270.868 35.1489 270.873 35.73C270.868 36.3221 270.654 36.8285 270.234 37.249C269.819 37.6696 269.216 37.9878 268.424 38.2036C267.639 38.4194 266.701 38.5273 265.61 38.5273C264.509 38.5273 263.563 38.4194 262.771 38.2036C261.98 37.9878 261.371 37.6696 260.945 37.249C260.525 36.8285 260.314 36.3221 260.314 35.73C260.314 35.1489 260.525 34.6509 260.945 34.2358C261.371 33.8153 261.98 33.4971 262.771 33.2812C263.563 33.0654 264.509 32.9575 265.61 32.9575ZM265.61 34.5679C264.913 34.5734 264.332 34.6204 263.867 34.709C263.402 34.792 263.051 34.9193 262.813 35.0908C262.581 35.2624 262.467 35.4754 262.473 35.73C262.467 35.9956 262.581 36.217 262.813 36.394C263.051 36.5711 263.4 36.7012 263.859 36.7842C264.324 36.8672 264.908 36.9115 265.61 36.917C266.302 36.9115 266.88 36.8672 267.345 36.7842C267.81 36.7012 268.159 36.5711 268.391 36.394C268.624 36.217 268.74 35.9956 268.74 35.73C268.74 35.4754 268.621 35.2624 268.383 35.0908C268.15 34.9193 267.802 34.792 267.337 34.709C266.872 34.6204 266.297 34.5734 265.61 34.5679ZM277.173 33.6299H283.457V32.0195H285.557V38.3613H275.082V32.0195H277.173V33.6299ZM283.457 36.6514V35.2485H277.173V36.6514H283.457ZM284.785 25.7192H275.123V24.0259H284.785V25.7192ZM287.25 31.0151H273.438V29.3384H287.25V31.0151ZM285.615 25.2295C285.615 26.0706 285.59 26.8177 285.541 27.4707C285.491 28.1182 285.369 28.8708 285.175 29.7285L283.05 29.8613C283.183 29.2692 283.283 28.7131 283.349 28.1929C283.416 27.6727 283.457 27.2106 283.474 26.8066C283.49 26.4027 283.501 25.9212 283.507 25.3623V25.2295V24.0259H285.615V25.2295ZM296.589 26.3667H288.446V24.6899H296.589V26.3667ZM288.039 30.8242C289.771 30.8132 291.39 30.7799 292.895 30.7246C294.406 30.6637 295.814 30.5531 297.12 30.3926L297.278 31.9448C295.922 32.1772 294.494 32.3322 292.995 32.4097C291.5 32.4816 289.923 32.5176 288.263 32.5176L288.039 30.8242ZM291.725 31.1646H289.674V25.96H291.725V31.1646ZM295.352 31.1646H293.327V25.96H295.352V31.1646ZM300.108 34.5513H297.992V23.4365H300.108V34.5513ZM302.15 29.438H299.494V27.6782H302.15V29.438ZM300.648 38.27H290.305V36.5601H300.648V38.27ZM292.422 37.0332H290.305V33.5054H292.422V37.0332ZM313.987 28.8154H311.082V27.0972H313.987V28.8154ZM315.548 32.3931H313.439V23.4033H315.548V32.3931ZM310.385 32.7251C311.458 32.7251 312.385 32.8413 313.166 33.0737C313.946 33.3062 314.543 33.641 314.958 34.0781C315.379 34.5098 315.592 35.0299 315.598 35.6387C315.592 36.2419 315.379 36.7593 314.958 37.1909C314.543 37.6281 313.946 37.9629 313.166 38.1953C312.385 38.4277 311.458 38.5467 310.385 38.5522C309.317 38.5467 308.393 38.4277 307.612 38.1953C306.838 37.9629 306.24 37.6281 305.819 37.1909C305.404 36.7593 305.197 36.2419 305.197 35.6387C305.197 35.0299 305.404 34.5098 305.819 34.0781C306.24 33.641 306.838 33.3062 307.612 33.0737C308.393 32.8413 309.317 32.7251 310.385 32.7251ZM310.385 34.3354C309.71 34.3354 309.145 34.3853 308.691 34.4849C308.238 34.5789 307.892 34.7228 307.654 34.9165C307.416 35.1102 307.297 35.3509 307.297 35.6387C307.297 35.9209 307.416 36.1589 307.654 36.3525C307.892 36.5462 308.238 36.6929 308.691 36.7925C309.151 36.8866 309.715 36.9336 310.385 36.9336C311.06 36.9336 311.627 36.8866 312.086 36.7925C312.551 36.6929 312.9 36.5462 313.132 36.3525C313.365 36.1589 313.481 35.9209 313.481 35.6387C313.481 35.3509 313.365 35.1102 313.132 34.9165C312.9 34.7228 312.551 34.5789 312.086 34.4849C311.627 34.3853 311.06 34.3354 310.385 34.3354ZM308.085 25.9268C308.085 26.9062 307.928 27.8249 307.612 28.6826C307.302 29.5404 306.826 30.2957 306.185 30.9487C305.548 31.5962 304.762 32.0804 303.827 32.4014L302.723 30.7163C303.526 30.4451 304.198 30.0578 304.74 29.5542C305.288 29.0506 305.692 28.4889 305.952 27.8691C306.218 27.2438 306.353 26.5964 306.359 25.9268V24.9307H308.085V25.9268ZM308.517 25.9102C308.517 26.5299 308.642 27.1276 308.891 27.7031C309.145 28.2731 309.533 28.7905 310.053 29.2554C310.573 29.7202 311.22 30.0827 311.995 30.3428L310.949 32.0029C310.036 31.7041 309.267 31.2503 308.642 30.6416C308.022 30.0273 307.557 29.3162 307.247 28.5083C306.943 27.6948 306.793 26.8288 306.799 25.9102V24.9307H308.517V25.9102ZM311.53 26.0347H303.329V24.3247H311.53V26.0347ZM322.438 24.0425C323.196 24.0425 323.879 24.1781 324.488 24.4492C325.097 24.7148 325.57 25.0939 325.907 25.5864C326.25 26.0734 326.422 26.6296 326.422 27.2549C326.422 27.8747 326.25 28.4281 325.907 28.915C325.57 29.402 325.097 29.7839 324.488 30.0605C323.879 30.3317 323.196 30.4673 322.438 30.4673C321.679 30.4673 320.999 30.3317 320.396 30.0605C319.792 29.7839 319.319 29.402 318.976 28.915C318.633 28.4281 318.461 27.8747 318.461 27.2549C318.461 26.6296 318.633 26.0734 318.976 25.5864C319.319 25.0939 319.79 24.7148 320.387 24.4492C320.99 24.1781 321.674 24.0425 322.438 24.0425ZM322.438 25.7441C322.061 25.7441 321.726 25.8022 321.433 25.9185C321.145 26.0347 320.918 26.209 320.752 26.4414C320.592 26.6683 320.512 26.9395 320.512 27.2549C320.512 27.5648 320.592 27.8304 320.752 28.0518C320.918 28.2731 321.145 28.4447 321.433 28.5664C321.726 28.6826 322.061 28.7407 322.438 28.7407C322.825 28.7407 323.168 28.6826 323.467 28.5664C323.766 28.4447 323.998 28.2731 324.164 28.0518C324.33 27.8304 324.413 27.5648 324.413 27.2549C324.413 26.9395 324.33 26.6683 324.164 26.4414C323.998 26.209 323.766 26.0347 323.467 25.9185C323.168 25.8022 322.825 25.7441 322.438 25.7441ZM323.591 38.0874H321.466V31.9863H323.591V38.0874ZM330.24 38.519H328.132V23.4365H330.24V38.519ZM317.54 31.3804C319.3 31.3804 320.996 31.3444 322.628 31.2725C324.266 31.2005 325.802 31.0566 327.235 30.8408L327.368 32.3931C326.411 32.5868 325.415 32.7334 324.38 32.833C323.345 32.9271 322.371 32.9935 321.458 33.0322C320.55 33.071 319.505 33.0986 318.32 33.1152C318.221 33.1097 318.135 33.1097 318.063 33.1152C317.991 33.1152 317.905 33.1152 317.806 33.1152L317.54 31.3804ZM338.317 34.4849H336.184V31.1479H338.317V34.4849ZM344.999 34.8501H342.874V23.4365H344.999V34.8501ZM345.331 38.27H334.059V36.5601H345.331V38.27ZM336.192 37.0166H334.059V33.7544H336.192V37.0166ZM332.141 30.1353C334.155 30.1187 335.926 30.0827 337.454 30.0273C338.981 29.9665 340.447 29.8475 341.853 29.6704L341.961 31.1895C340.5 31.4329 338.97 31.599 337.371 31.6875C335.777 31.7705 334.117 31.8092 332.39 31.8037L332.141 30.1353ZM343.355 33.6465H339.985V32.2021H343.355V33.6465ZM337.055 23.9429C337.78 23.9429 338.43 24.0563 339.006 24.2832C339.581 24.5101 340.03 24.8311 340.351 25.2461C340.672 25.6556 340.832 26.1232 340.832 26.6489C340.832 27.1857 340.672 27.6533 340.351 28.0518C340.03 28.4502 339.581 28.7629 339.006 28.9897C338.436 29.2111 337.786 29.3218 337.055 29.3218C336.314 29.3218 335.655 29.2111 335.08 28.9897C334.51 28.7629 334.064 28.4502 333.743 28.0518C333.422 27.6533 333.262 27.1857 333.262 26.6489C333.262 26.1232 333.422 25.6528 333.743 25.2378C334.064 24.8228 334.512 24.5046 335.088 24.2832C335.663 24.0563 336.319 23.9429 337.055 23.9429ZM337.055 25.4951C336.695 25.4951 336.383 25.5394 336.117 25.6279C335.852 25.7165 335.641 25.8493 335.486 26.0264C335.337 26.1979 335.265 26.4054 335.271 26.6489C335.265 26.8924 335.337 27.0999 335.486 27.2715C335.641 27.443 335.852 27.5731 336.117 27.6616C336.383 27.7502 336.695 27.7944 337.055 27.7944C337.404 27.7944 337.708 27.7502 337.968 27.6616C338.234 27.5731 338.441 27.443 338.591 27.2715C338.74 27.0999 338.815 26.8924 338.815 26.6489C338.815 26.411 338.74 26.2035 338.591 26.0264C338.441 25.8493 338.234 25.7165 337.968 25.6279C337.708 25.5394 337.404 25.4951 337.055 25.4951ZM352.91 35.0576H350.801V32.5923H352.91V35.0576ZM359.583 38.5273H357.483V23.4033H359.583V38.5273ZM347.556 34.2607C349.437 34.2497 351.092 34.2192 352.52 34.1694C353.953 34.1141 355.331 33.9979 356.653 33.8208L356.786 35.3896C355.325 35.6442 353.823 35.8102 352.279 35.8877C350.735 35.9596 349.055 35.9956 347.24 35.9956L346.958 34.2607H347.556ZM356.438 26.7651H347.257V25.105H356.438V26.7651ZM351.839 27.3628C352.58 27.3628 353.239 27.4818 353.814 27.7197C354.396 27.9521 354.844 28.2842 355.159 28.7158C355.48 29.1475 355.641 29.6427 355.641 30.2017C355.641 30.755 355.48 31.2476 355.159 31.6792C354.844 32.1053 354.396 32.4373 353.814 32.6753C353.239 32.9132 352.58 33.0322 351.839 33.0322C351.108 33.0322 350.458 32.9132 349.888 32.6753C349.318 32.4373 348.873 32.1053 348.552 31.6792C348.236 31.2476 348.079 30.755 348.079 30.2017C348.079 29.6427 348.236 29.1475 348.552 28.7158C348.873 28.2842 349.318 27.9521 349.888 27.7197C350.458 27.4818 351.108 27.3628 351.839 27.3628ZM351.839 28.9648C351.496 28.9648 351.191 29.0146 350.926 29.1143C350.666 29.2083 350.461 29.3494 350.312 29.5376C350.162 29.7257 350.087 29.9471 350.087 30.2017C350.087 30.4618 350.159 30.6831 350.303 30.8657C350.453 31.0428 350.66 31.1812 350.926 31.2808C351.191 31.3748 351.496 31.4219 351.839 31.4219C352.193 31.4219 352.506 31.3748 352.777 31.2808C353.048 31.1812 353.256 31.0428 353.399 30.8657C353.543 30.6831 353.615 30.4618 353.615 30.2017C353.615 29.9471 353.543 29.7257 353.399 29.5376C353.256 29.3494 353.048 29.2083 352.777 29.1143C352.506 29.0146 352.193 28.9648 351.839 28.9648ZM352.926 26.0513H350.801V23.478H352.926V26.0513ZM370.208 30.6997H367.685V29.0063H370.208V30.6997ZM374.683 38.5273H372.649V23.4033H374.683V38.5273ZM371.537 37.8301H369.536V23.6357H371.537V37.8301ZM365.004 24.4907C365.668 24.4907 366.252 24.7121 366.755 25.1548C367.264 25.5975 367.655 26.2311 367.926 27.0557C368.202 27.8802 368.341 28.8486 368.341 29.9609C368.341 31.0788 368.202 32.0527 367.926 32.8828C367.655 33.7074 367.264 34.3438 366.755 34.792C366.252 35.2347 365.668 35.4561 365.004 35.4561C364.34 35.4561 363.762 35.2347 363.269 34.792C362.777 34.3438 362.392 33.7074 362.115 32.8828C361.844 32.0527 361.708 31.0788 361.708 29.9609C361.708 28.8486 361.844 27.8802 362.115 27.0557C362.392 26.2311 362.777 25.5975 363.269 25.1548C363.762 24.7121 364.34 24.4907 365.004 24.4907ZM365.004 26.4995C364.716 26.4995 364.473 26.6268 364.273 26.8813C364.074 27.1359 363.922 27.5233 363.817 28.0435C363.712 28.5581 363.662 29.1973 363.667 29.9609C363.662 30.7246 363.712 31.3665 363.817 31.8867C363.922 32.4014 364.074 32.786 364.273 33.0405C364.478 33.2951 364.722 33.4224 365.004 33.4224C365.297 33.4224 365.546 33.2951 365.751 33.0405C365.961 32.786 366.119 32.4014 366.224 31.8867C366.335 31.3721 366.39 30.7301 366.39 29.9609C366.39 29.1973 366.335 28.5581 366.224 28.0435C366.119 27.5233 365.961 27.1359 365.751 26.8813C365.546 26.6268 365.297 26.4995 365.004 26.4995ZM385.341 27.5288C385.341 28.6909 385.175 29.8143 384.843 30.8989C384.516 31.978 384.032 32.9409 383.39 33.7876C382.754 34.6343 381.99 35.2679 381.099 35.6885L379.854 34.02C380.667 33.6382 381.359 33.0986 381.929 32.4014C382.505 31.7041 382.936 30.9349 383.224 30.0938C383.512 29.2526 383.659 28.3976 383.664 27.5288V25.769H385.341V27.5288ZM385.789 27.5288C385.784 28.3312 385.922 29.1281 386.204 29.9194C386.486 30.7108 386.904 31.4385 387.458 32.1025C388.016 32.7611 388.694 33.2729 389.491 33.6382L388.312 35.2983C387.422 34.8944 386.661 34.2884 386.03 33.4805C385.404 32.6725 384.929 31.7539 384.602 30.7246C384.276 29.6898 384.112 28.6245 384.112 27.5288V25.769H385.789V27.5288ZM388.835 26.6074H380.46V24.8809H388.835V26.6074ZM392.131 38.5273H390.006V23.4033H392.131V38.5273ZM394.372 30.957H391.666V29.189H394.372V30.957ZM400.506 35.8047H398.439V32.2188H400.506V35.8047ZM405.346 35.7964H403.271V32.2021H405.346V35.7964ZM408.724 36.8506H394.912V35.1157H408.724V36.8506ZM407.13 29.4048H398.614V31.9863H396.505V27.7197H405.039V26.1011H396.48V24.3994H407.13V29.4048ZM407.487 32.7998H396.505V31.0815H407.487V32.7998ZM426.587 38.5273H424.595V23.4033H426.587V38.5273ZM422.072 30.3096H419.523V28.6079H422.072V30.3096ZM423.5 37.8384H421.516V23.6689H423.5V37.8384ZM417.872 27.4624C417.866 28.6411 417.744 29.7617 417.506 30.8242C417.268 31.8867 416.898 32.8441 416.394 33.6963C415.896 34.5485 415.262 35.2098 414.493 35.6802L413.215 34.1196C413.923 33.6825 414.507 33.1125 414.966 32.4097C415.426 31.7013 415.758 30.9294 415.962 30.0938C416.167 29.2526 416.27 28.3755 416.27 27.4624V25.877H417.872V27.4624ZM418.312 27.4624C418.312 28.3534 418.411 29.1973 418.61 29.9941C418.81 30.791 419.131 31.5215 419.573 32.1855C420.021 32.8441 420.597 33.3753 421.3 33.7793L420.063 35.3315C419.288 34.8778 418.655 34.2497 418.162 33.4473C417.67 32.6449 417.31 31.7401 417.083 30.7329C416.862 29.7202 416.751 28.63 416.751 27.4624V25.877H418.312V27.4624ZM420.603 26.6489H413.788V24.9556H420.603V26.6489ZM436.15 33.2812H434.066V31.0815H436.15V33.2812ZM441.977 31.397H428.256V29.853H441.977V31.397ZM436.142 25.2295H434.042V23.4033H436.142V25.2295ZM435.768 25.6196C435.768 26.3501 435.525 26.9893 435.038 27.5371C434.551 28.085 433.826 28.5249 432.863 28.8569C431.905 29.1834 430.741 29.3826 429.368 29.4546L428.795 27.894C429.958 27.8387 430.92 27.7031 431.684 27.4873C432.453 27.266 433.015 26.9948 433.369 26.6738C433.729 26.3529 433.909 26.0015 433.909 25.6196V25.3125H435.768V25.6196ZM436.283 25.6196C436.277 26.0015 436.454 26.3529 436.814 26.6738C437.174 26.9948 437.738 27.266 438.507 27.4873C439.277 27.7031 440.248 27.8387 441.421 27.894L440.807 29.4546C439.44 29.3826 438.278 29.1807 437.32 28.8486C436.368 28.5166 435.646 28.0794 435.154 27.5371C434.661 26.9893 434.418 26.3501 434.423 25.6196V25.3125H436.283V25.6196ZM440.674 26.1675H429.551V24.5986H440.674V26.1675ZM440.325 36.0288H431.908V37.498H429.825V34.6094H438.233V33.8706H429.816V32.3516H440.325V36.0288ZM440.724 38.4194H429.825V36.8672H440.724V38.4194ZM458.587 29.0562H455.001V27.3379H458.587V29.0562ZM459.583 34.4683H457.475V23.4365H459.583V34.4683ZM459.948 38.27H449.556V36.5601H459.948V38.27ZM451.681 37.5562H449.556V33.4971H451.681V37.5562ZM452.121 26.3667C452.121 27.3462 451.963 28.262 451.647 29.1143C451.338 29.9609 450.862 30.7052 450.22 31.3472C449.583 31.9891 448.798 32.465 447.862 32.7749L446.767 31.0649C447.569 30.8104 448.241 30.4424 448.784 29.9609C449.326 29.474 449.727 28.9233 449.987 28.3091C450.253 27.6893 450.389 27.0418 450.394 26.3667V25.3872H452.121V26.3667ZM452.552 26.3833C452.552 26.9976 452.68 27.5924 452.934 28.168C453.194 28.738 453.582 29.2554 454.096 29.7202C454.616 30.1851 455.261 30.542 456.03 30.791L454.984 32.4678C454.071 32.1689 453.302 31.7124 452.677 31.0981C452.057 30.4839 451.592 29.7756 451.282 28.9731C450.978 28.1652 450.828 27.3019 450.834 26.3833V25.3872H452.552V26.3833ZM455.565 26.1509H447.364V24.4492H455.565V26.1509ZM473.653 38.5273H471.52V23.4033H473.653V38.5273ZM475.645 31.0815H472.989V29.3384H475.645V31.0815ZM466.049 24.9722C466.049 26.5438 465.969 27.8996 465.809 29.0396C465.648 30.174 465.338 31.2697 464.879 32.3267C464.425 33.3781 463.764 34.377 462.895 35.3232L461.235 34.1362C462.004 33.3062 462.591 32.4512 462.995 31.5713C463.404 30.6914 463.684 29.7673 463.833 28.7988C463.982 27.8304 464.057 26.6406 464.057 25.2295V24.9722H466.049ZM464.871 26.6987H461.907V24.9722H464.871V26.6987ZM470.241 24.9722C470.236 26.6157 470.158 28.0656 470.009 29.3218C469.865 30.5724 469.569 31.7899 469.121 32.9741C468.678 34.1528 468.03 35.2596 467.178 36.2944L465.518 35.1157C466.271 34.1916 466.846 33.2314 467.245 32.2354C467.643 31.2393 467.909 30.1934 468.042 29.0977C468.18 28.002 468.252 26.7015 468.257 25.1963V24.9722H470.241ZM469.121 26.6987H466.564V24.9722H469.121V26.6987ZM481.646 27.5288C481.641 28.7186 481.472 29.853 481.14 30.9321C480.808 32.0112 480.318 32.9686 479.671 33.8042C479.023 34.6343 478.243 35.2624 477.33 35.6885L476.118 34.02C476.932 33.6548 477.623 33.1291 478.193 32.4429C478.769 31.7511 479.201 30.9819 479.488 30.1353C479.782 29.283 479.928 28.4142 479.928 27.5288V25.769H481.646V27.5288ZM482.086 27.5288C482.086 28.3755 482.23 29.2 482.518 30.0024C482.806 30.7993 483.232 31.5215 483.796 32.1689C484.366 32.8109 485.061 33.3006 485.88 33.6382L484.734 35.2983C483.799 34.9054 483.008 34.3161 482.36 33.5303C481.713 32.7389 481.226 31.8286 480.899 30.7993C480.573 29.77 480.412 28.6799 480.418 27.5288V25.769H482.086V27.5288ZM485.257 26.6074H476.724V24.8809H485.257V26.6074ZM488.885 38.5273H486.735V23.4033H488.885V38.5273Z" fill="#3D3D3D"/>
<path d="M780.151 31.9282H772.896V24.665H780.151V31.9282ZM774.997 30.2598H778.068V26.3584H774.997V30.2598ZM784.435 34.4517H782.318V23.4282H784.435V34.4517ZM786.477 29.521H783.82V27.7778H786.477V29.521ZM784.974 38.27H774.631V36.5601H784.974V38.27ZM776.748 37.4067H774.631V33.356H776.748V37.4067ZM796.23 37.166C795.339 37.1605 794.528 36.964 793.798 36.5767C793.067 36.1893 792.481 35.5557 792.038 34.6758C791.595 33.7959 791.374 32.6587 791.374 31.2642C791.374 29.9305 791.579 28.7795 791.988 27.811C792.398 26.8371 792.973 26.0955 793.715 25.5864C794.456 25.0718 795.325 24.8145 796.321 24.8145C797.107 24.8145 797.813 24.9666 798.438 25.271C799.069 25.5754 799.572 25.9959 799.949 26.5327C800.331 27.064 800.563 27.6589 800.646 28.3174H798.181C798.114 28.0352 797.995 27.7917 797.824 27.5869C797.658 27.3766 797.445 27.2189 797.185 27.1138C796.93 27.0086 796.642 26.9561 796.321 26.9561C795.779 26.9561 795.322 27.111 794.952 27.4209C794.586 27.7253 794.307 28.1652 794.113 28.7407C793.925 29.3107 793.828 29.9914 793.823 30.7827H793.922C794.111 30.4341 794.36 30.1325 794.669 29.8779C794.985 29.6178 795.342 29.4214 795.74 29.2886C796.139 29.1558 796.559 29.0894 797.002 29.0894C797.716 29.0894 798.358 29.2581 798.928 29.5957C799.503 29.9277 799.954 30.3898 800.281 30.9819C800.607 31.5685 800.771 32.2326 800.771 32.9741C800.771 33.7876 800.58 34.5125 800.198 35.1489C799.821 35.7798 799.287 36.2751 798.596 36.6348C797.91 36.9889 797.121 37.166 796.23 37.166ZM796.213 35.1987C796.617 35.1987 796.983 35.1047 797.309 34.9165C797.636 34.7228 797.89 34.4627 798.073 34.1362C798.255 33.8097 798.347 33.4473 798.347 33.0488C798.347 32.6504 798.258 32.2879 798.081 31.9614C797.904 31.6349 797.649 31.3804 797.317 31.1978C796.991 31.0096 796.628 30.9155 796.23 30.9155C795.832 30.9155 795.469 31.0096 795.143 31.1978C794.816 31.3859 794.556 31.646 794.362 31.978C794.169 32.3045 794.072 32.6642 794.072 33.0571C794.072 33.4445 794.166 33.8014 794.354 34.1279C794.542 34.4544 794.797 34.7145 795.118 34.9082C795.444 35.1019 795.809 35.1987 796.213 35.1987ZM806.93 37.166C806.105 37.166 805.361 37.0138 804.697 36.7095C804.038 36.4051 803.518 35.9845 803.136 35.4478C802.754 34.9054 802.558 34.2939 802.547 33.6133H804.962C804.985 33.9176 805.084 34.1916 805.261 34.4351C805.444 34.673 805.682 34.8612 805.975 34.9995C806.268 35.1323 806.587 35.1987 806.93 35.1987C807.345 35.1987 807.713 35.1074 808.034 34.9248C808.355 34.7422 808.606 34.4904 808.789 34.1694C808.972 33.8429 809.063 33.4749 809.063 33.0654C809.063 32.6449 808.969 32.2713 808.781 31.9448C808.598 31.6183 808.341 31.3638 808.009 31.1812C807.682 30.993 807.309 30.8989 806.888 30.8989C806.44 30.8934 806.058 30.9764 805.743 31.1479C805.433 31.314 805.189 31.5658 805.012 31.9033H802.746L803.402 24.9805H810.798V27.0308H805.46L805.128 30.0605H805.22C805.447 29.7562 805.776 29.5099 806.208 29.3218C806.639 29.1336 807.115 29.0396 807.635 29.0396C808.36 29.0396 809.013 29.2083 809.594 29.5459C810.181 29.8779 810.64 30.3483 810.972 30.957C811.304 31.5602 811.47 32.2409 811.47 32.999C811.47 33.8014 811.279 34.5181 810.897 35.1489C810.516 35.7798 809.982 36.2751 809.295 36.6348C808.609 36.9889 807.821 37.166 806.93 37.166ZM821.249 30.2515H818.675V28.5166H821.249V30.2515ZM817.09 27.3213C817.09 28.5055 816.968 29.6261 816.725 30.6831C816.487 31.7345 816.113 32.6836 815.604 33.5303C815.1 34.3714 814.461 35.0272 813.687 35.4976L812.392 33.9204C813.105 33.4832 813.692 32.916 814.151 32.2188C814.611 31.516 814.943 30.7523 815.147 29.9277C815.358 29.1032 815.463 28.2344 815.463 27.3213V24.7148H817.09V27.3213ZM817.513 27.2217C817.513 28.1182 817.602 28.9565 817.779 29.7368C817.956 30.5116 818.249 31.231 818.659 31.895C819.068 32.5535 819.602 33.0959 820.261 33.522L819.115 35.1489C818.346 34.6841 817.723 34.0422 817.248 33.2231C816.772 32.4041 816.431 31.4938 816.227 30.4922C816.022 29.485 815.922 28.3949 815.928 27.2217V24.7148H817.513V27.2217ZM825.772 38.5273H823.739V23.4033H825.772V38.5273ZM822.61 37.8301H820.626V23.6357H822.61V37.8301ZM839.361 34.9248H832.056V24.7896H839.361V34.9248ZM834.165 33.248H837.294V26.4414H834.165V33.248ZM843.951 38.5688H841.801V23.4033H843.951V38.5688ZM853.696 31.9282H846.441V24.665H853.696V31.9282ZM848.542 30.2598H851.613V26.3584H848.542V30.2598ZM857.979 34.4517H855.863V23.4282H857.979V34.4517ZM860.021 29.521H857.365V27.7778H860.021V29.521ZM858.519 38.27H848.176V36.5601H858.519V38.27ZM850.293 37.4067H848.176V33.356H850.293V37.4067ZM872.547 33.6631H870.464V30.9819H872.547V33.6631ZM878.408 31.978H864.628V30.2847H878.408V31.978ZM871.493 33.0654C872.583 33.0654 873.521 33.1706 874.307 33.3809C875.098 33.5856 875.702 33.8955 876.117 34.3105C876.537 34.7256 876.75 35.2236 876.756 35.8047C876.75 36.3857 876.537 36.8783 876.117 37.2822C875.702 37.6917 875.098 38.0016 874.307 38.2119C873.516 38.4222 872.578 38.5273 871.493 38.5273C870.386 38.5273 869.437 38.4222 868.646 38.2119C867.86 38.0016 867.254 37.6917 866.828 37.2822C866.408 36.8783 866.197 36.3857 866.197 35.8047C866.197 35.2236 866.408 34.7256 866.828 34.3105C867.249 33.8955 867.855 33.5856 868.646 33.3809C869.437 33.1761 870.386 33.071 871.493 33.0654ZM871.493 34.6592C870.79 34.6647 870.207 34.7118 869.742 34.8003C869.282 34.8833 868.934 35.0078 868.696 35.1738C868.463 35.3398 868.35 35.5501 868.355 35.8047C868.35 36.0482 868.463 36.2557 868.696 36.4272C868.934 36.5933 869.285 36.7205 869.75 36.8091C870.215 36.8921 870.796 36.9336 871.493 36.9336C872.174 36.9336 872.747 36.8893 873.211 36.8008C873.682 36.7122 874.033 36.585 874.266 36.4189C874.504 36.2529 874.623 36.0482 874.623 35.8047C874.623 35.5557 874.506 35.3481 874.274 35.1821C874.042 35.0106 873.693 34.8833 873.228 34.8003C872.763 34.7118 872.185 34.6647 871.493 34.6592ZM871.925 25.2212C871.919 25.9904 871.684 26.6932 871.219 27.3296C870.76 27.9604 870.079 28.4862 869.177 28.9067C868.281 29.3218 867.199 29.5902 865.932 29.7119L865.234 28.0435C866.269 27.9549 867.152 27.7668 867.882 27.479C868.613 27.1857 869.155 26.8426 869.509 26.4497C869.869 26.0513 870.052 25.6418 870.057 25.2212V24.8228H871.925V25.2212ZM872.954 25.2212C872.954 25.6473 873.131 26.0596 873.485 26.458C873.845 26.8509 874.39 27.1912 875.121 27.479C875.857 27.7668 876.756 27.9549 877.818 28.0435L877.071 29.7119C875.81 29.5902 874.728 29.3218 873.826 28.9067C872.924 28.4862 872.237 27.9604 871.767 27.3296C871.297 26.6932 871.059 25.9904 871.053 25.2212V24.8228H872.954V25.2212ZM877.163 25.7275H865.874V24.0591H877.163V25.7275ZM895.565 31.6377H884.791V29.936H895.565V31.6377ZM897.068 36.8008H883.255V35.1074H897.068V36.8008ZM891.208 35.5806H889.091V30.9238H891.208V35.5806ZM886.958 30.6582H884.791V24.5737H886.958V30.6582ZM910.582 34.2939H908.465V23.4365H910.582V34.2939ZM910.997 38.27H900.463V36.5601H910.997V38.27ZM902.604 37.2573H900.463V33.2065H902.604V37.2573ZM902.306 24.3911C903.069 24.3911 903.767 24.5544 904.397 24.8809C905.034 25.2074 905.532 25.6611 905.892 26.2422C906.257 26.8232 906.439 27.4735 906.439 28.1929C906.439 28.9289 906.257 29.5902 905.892 30.1768C905.532 30.7578 905.037 31.2144 904.406 31.5464C903.775 31.8729 903.075 32.0361 902.306 32.0361C901.536 32.0361 900.836 31.8729 900.206 31.5464C899.58 31.2144 899.085 30.7578 898.72 30.1768C898.354 29.5902 898.172 28.9289 898.172 28.1929C898.172 27.4735 898.354 26.8232 898.72 26.2422C899.085 25.6611 899.58 25.2074 900.206 24.8809C900.836 24.5544 901.536 24.3911 902.306 24.3911ZM902.306 26.2339C901.913 26.2339 901.559 26.3141 901.243 26.4746C900.933 26.6296 900.687 26.8564 900.504 27.1553C900.327 27.4486 900.239 27.7944 900.239 28.1929C900.239 28.6079 900.327 28.9648 900.504 29.2637C900.687 29.5625 900.933 29.7922 901.243 29.9526C901.559 30.1131 901.913 30.1906 902.306 30.1851C902.693 30.1906 903.039 30.1131 903.343 29.9526C903.653 29.7922 903.897 29.5625 904.074 29.2637C904.251 28.9648 904.339 28.6079 904.339 28.1929C904.339 27.7944 904.251 27.4486 904.074 27.1553C903.897 26.8564 903.653 26.6296 903.343 26.4746C903.033 26.3141 902.688 26.2339 902.306 26.2339ZM917.936 25.5781C917.936 26.613 917.776 27.5731 917.455 28.4585C917.139 29.3439 916.658 30.1159 916.01 30.7744C915.368 31.4274 914.571 31.9144 913.62 32.2354L912.491 30.5337C913.326 30.2681 914.021 29.8835 914.574 29.3799C915.133 28.8708 915.543 28.2925 915.803 27.645C916.068 26.9976 916.204 26.3086 916.209 25.5781V24.2085H917.936V25.5781ZM918.343 25.4702C918.337 26.173 918.456 26.8288 918.7 27.4375C918.949 28.0407 919.331 28.5775 919.845 29.0479C920.365 29.5182 921.018 29.8752 921.804 30.1187L920.667 31.7705C919.759 31.4551 919.007 30.993 918.409 30.3843C917.812 29.7756 917.366 29.0589 917.073 28.2344C916.785 27.4043 916.641 26.4829 916.641 25.4702V24.2085H918.343V25.4702ZM925.365 32.2686H923.257V23.4033H925.365V32.2686ZM920.202 32.667C921.276 32.667 922.203 32.7832 922.983 33.0156C923.763 33.2425 924.361 33.5773 924.776 34.02C925.196 34.4627 925.41 34.9912 925.415 35.6055C925.41 36.2197 925.196 36.7454 924.776 37.1826C924.361 37.6253 923.763 37.9601 922.983 38.187C922.203 38.4139 921.276 38.5273 920.202 38.5273C919.134 38.5273 918.21 38.4139 917.43 38.187C916.655 37.9601 916.057 37.6253 915.637 37.1826C915.222 36.7454 915.014 36.2197 915.014 35.6055C915.014 34.9912 915.222 34.4627 915.637 34.02C916.057 33.5773 916.655 33.2425 917.43 33.0156C918.21 32.7832 919.134 32.667 920.202 32.667ZM920.202 34.3022C919.527 34.3078 918.963 34.3576 918.509 34.4517C918.055 34.5457 917.709 34.6896 917.471 34.8833C917.233 35.077 917.114 35.3177 917.114 35.6055C917.114 35.8822 917.233 36.1146 917.471 36.3027C917.709 36.4909 918.055 36.6348 918.509 36.7344C918.968 36.834 919.533 36.8838 920.202 36.8838C920.877 36.8838 921.444 36.834 921.904 36.7344C922.363 36.6348 922.709 36.4909 922.941 36.3027C923.179 36.1146 923.298 35.8822 923.298 35.6055C923.298 35.3177 923.182 35.077 922.95 34.8833C922.717 34.6896 922.369 34.5457 921.904 34.4517C921.444 34.3576 920.877 34.3078 920.202 34.3022ZM923.547 27.9189H920.418V26.1924H923.547V27.9189ZM943.884 31.1729H941.784V23.4033H943.884V31.1729ZM943.901 35.8047H935.874V37.4233H933.807V34.2939H941.792V33.3726H933.774V31.7705H943.901V35.8047ZM944.316 38.4194H933.807V36.7925H944.316V38.4194ZM936.729 25.4619C936.723 26.3695 936.555 27.2161 936.223 28.002C935.891 28.7878 935.393 29.474 934.729 30.0605C934.064 30.6416 933.254 31.0677 932.296 31.3389L931.333 29.6704C932.136 29.4435 932.811 29.1115 933.359 28.6743C933.912 28.2316 934.322 27.7363 934.587 27.1885C934.859 26.6351 934.994 26.0596 934.994 25.4619V24.8311H936.729V25.4619ZM937.144 25.4619C937.144 26.0264 937.277 26.5659 937.542 27.0806C937.808 27.5952 938.212 28.0573 938.754 28.4668C939.297 28.8708 939.966 29.1779 940.763 29.3882L939.759 31.0317C938.818 30.7716 938.027 30.3677 937.385 29.8198C936.743 29.2664 936.259 28.6162 935.932 27.8691C935.611 27.1221 935.453 26.3197 935.459 25.4619V24.8311H937.144V25.4619ZM940.19 25.8022H931.881V24.1172H940.19V25.8022ZM957.041 27.313H953.281V25.6528H957.041V27.313ZM957.041 30.4258H953.281V28.7324H957.041V30.4258ZM948.724 26.375H951.695V24.3413H953.795V31.5796H946.59V24.3413H948.724V26.375ZM951.695 29.9277V28.002H948.724V29.9277H951.695ZM958.685 32.4512H956.576V23.4033H958.685V32.4512ZM953.521 32.7002C954.595 32.7057 955.522 32.8247 956.302 33.0571C957.088 33.284 957.688 33.6188 958.104 34.0615C958.519 34.4987 958.729 35.0244 958.734 35.6387C958.729 36.2419 958.516 36.7593 958.095 37.1909C957.68 37.6281 957.083 37.9601 956.302 38.187C955.522 38.4139 954.595 38.5273 953.521 38.5273C952.453 38.5273 951.529 38.4139 950.749 38.187C949.974 37.9601 949.377 37.6281 948.956 37.1909C948.541 36.7593 948.333 36.2419 948.333 35.6387C948.333 35.0244 948.541 34.4987 948.956 34.0615C949.377 33.6188 949.974 33.284 950.749 33.0571C951.529 32.8247 952.453 32.7057 953.521 32.7002ZM953.521 34.3271C952.846 34.3216 952.282 34.3687 951.828 34.4683C951.374 34.5623 951.028 34.7062 950.791 34.8999C950.553 35.0936 950.434 35.3398 950.434 35.6387C950.434 35.9154 950.553 36.1506 950.791 36.3442C951.028 36.5324 951.374 36.6735 951.828 36.7676C952.282 36.8617 952.846 36.9115 953.521 36.917C954.197 36.9115 954.764 36.8617 955.223 36.7676C955.688 36.6735 956.037 36.5324 956.269 36.3442C956.501 36.1506 956.618 35.9154 956.618 35.6387C956.618 35.3398 956.501 35.0936 956.269 34.8999C956.037 34.7062 955.691 34.5623 955.231 34.4683C954.772 34.3687 954.202 34.3216 953.521 34.3271ZM967.533 23.6357C968.69 23.6357 969.678 23.7354 970.497 23.9346C971.321 24.1283 971.946 24.4188 972.373 24.8062C972.804 25.188 973.02 25.6528 973.02 26.2007C973.02 26.7596 972.804 27.2327 972.373 27.6201C971.946 28.0075 971.324 28.3008 970.505 28.5C969.686 28.6992 968.695 28.7988 967.533 28.7988C966.371 28.7988 965.378 28.6992 964.553 28.5C963.734 28.3008 963.106 28.0075 962.669 27.6201C962.237 27.2327 962.021 26.7596 962.021 26.2007C962.021 25.6528 962.237 25.188 962.669 24.8062C963.106 24.4188 963.734 24.1283 964.553 23.9346C965.378 23.7354 966.371 23.6357 967.533 23.6357ZM967.533 25.1797C966.792 25.1797 966.177 25.2184 965.69 25.2959C965.209 25.3734 964.847 25.4896 964.603 25.6445C964.36 25.7939 964.241 25.9793 964.246 26.2007C964.241 26.4442 964.357 26.6434 964.595 26.7983C964.838 26.9533 965.195 27.0667 965.666 27.1387C966.141 27.2051 966.764 27.241 967.533 27.2466C968.308 27.241 968.933 27.2051 969.409 27.1387C969.891 27.0667 970.248 26.9561 970.48 26.8066C970.718 26.6517 970.837 26.4497 970.837 26.2007C970.837 25.9793 970.718 25.7939 970.48 25.6445C970.242 25.4896 969.877 25.3734 969.384 25.2959C968.892 25.2184 968.275 25.1797 967.533 25.1797ZM974.431 31.1978H960.652V29.521H974.431V31.1978ZM972.746 35.9209H964.329V37.2822H962.246V34.4434H970.654V33.6133H962.237V32.061H972.746V35.9209ZM973.145 38.4194H962.246V36.834H973.145V38.4194ZM991.19 38.5024H989.065V23.4033H991.19V38.5024ZM993.324 30.957H990.643V29.2139H993.324V30.957ZM987.156 24.9639C987.151 26.5355 986.924 27.9881 986.476 29.3218C986.033 30.6554 985.305 31.8812 984.292 32.999C983.28 34.1169 981.952 35.0798 980.308 35.8877L979.113 34.269C980.463 33.5884 981.578 32.8164 982.458 31.9531C983.338 31.0843 983.994 30.1076 984.425 29.0229C984.857 27.9328 985.076 26.707 985.081 25.3457V24.9639H987.156ZM986.144 26.6987H979.959V24.9639H986.144V26.6987ZM999.466 26.4082C999.461 27.3711 999.295 28.2759 998.968 29.1226C998.647 29.9637 998.16 30.6997 997.507 31.3306C996.854 31.9614 996.06 32.4318 995.125 32.7417L994.029 31.0815C994.837 30.827 995.515 30.4562 996.063 29.9692C996.616 29.4823 997.026 28.9344 997.292 28.3257C997.563 27.7114 997.698 27.0723 997.698 26.4082V25.0884H999.466V26.4082ZM999.848 26.4082C999.848 27.0335 999.978 27.634 1000.24 28.2095C1000.5 28.785 1000.91 29.3024 1001.45 29.7617C1001.99 30.2155 1002.66 30.5614 1003.45 30.7993L1002.38 32.4678C1001.46 32.1689 1000.68 31.7207 1000.04 31.123C999.403 30.5199 998.921 29.8143 998.595 29.0063C998.274 28.1984 998.116 27.3324 998.122 26.4082V25.0884H999.848V26.4082ZM1002.89 26.1924H994.585V24.499H1002.89V26.1924ZM1006.6 34.3521H1004.49V23.4365H1006.6V34.3521ZM1007.02 38.27H996.486V36.5601H1007.02V38.27ZM998.628 37.415H996.486V33.356H998.628V37.415ZM1017.72 27.5288C1017.72 28.6909 1017.55 29.8143 1017.22 30.8989C1016.9 31.978 1016.41 32.9409 1015.77 33.7876C1015.13 34.6343 1014.37 35.2679 1013.48 35.6885L1012.23 34.02C1013.05 33.6382 1013.74 33.0986 1014.31 32.4014C1014.88 31.7041 1015.32 30.9349 1015.6 30.0938C1015.89 29.2526 1016.04 28.3976 1016.04 27.5288V25.769H1017.72V27.5288ZM1018.17 27.5288C1018.16 28.3312 1018.3 29.1281 1018.58 29.9194C1018.87 30.7108 1019.28 31.4385 1019.84 32.1025C1020.4 32.7611 1021.07 33.2729 1021.87 33.6382L1020.69 35.2983C1019.8 34.8944 1019.04 34.2884 1018.41 33.4805C1017.78 32.6725 1017.31 31.7539 1016.98 30.7246C1016.65 29.6898 1016.49 28.6245 1016.49 27.5288V25.769H1018.17V27.5288ZM1021.21 26.6074H1012.84V24.8809H1021.21V26.6074ZM1024.51 38.5273H1022.38V23.4033H1024.51V38.5273ZM1026.75 30.957H1024.04V29.189H1026.75V30.957ZM1033.17 37.1494C1032.92 37.1494 1032.69 37.0885 1032.47 36.9668C1032.25 36.8395 1032.08 36.668 1031.96 36.4521C1031.83 36.2363 1031.78 36.0011 1031.78 35.7466C1031.78 35.4976 1031.83 35.2679 1031.96 35.0576C1032.08 34.8473 1032.25 34.6813 1032.47 34.5596C1032.69 34.4378 1032.92 34.377 1033.17 34.377C1033.41 34.377 1033.64 34.4378 1033.86 34.5596C1034.07 34.6813 1034.24 34.8501 1034.36 35.0659C1034.49 35.2762 1034.56 35.5031 1034.56 35.7466C1034.56 36.0011 1034.49 36.2363 1034.36 36.4521C1034.24 36.668 1034.07 36.8395 1033.86 36.9668C1033.64 37.0885 1033.41 37.1494 1033.17 37.1494ZM1033.17 30.8242C1032.92 30.8242 1032.69 30.7633 1032.47 30.6416C1032.25 30.5143 1032.08 30.3428 1031.96 30.127C1031.83 29.9111 1031.78 29.6759 1031.78 29.4214C1031.78 29.1724 1031.83 28.9427 1031.96 28.7324C1032.08 28.5221 1032.25 28.3561 1032.47 28.2344C1032.69 28.1126 1032.92 28.0518 1033.17 28.0518C1033.41 28.0518 1033.64 28.1126 1033.86 28.2344C1034.07 28.3561 1034.24 28.5249 1034.36 28.7407C1034.49 28.951 1034.56 29.1779 1034.56 29.4214C1034.56 29.6759 1034.49 29.9111 1034.36 30.127C1034.24 30.3428 1034.07 30.5143 1033.86 30.6416C1033.64 30.7633 1033.41 30.8242 1033.17 30.8242ZM1052.59 34.4683H1050.47V23.4365H1052.59V34.4683ZM1053.01 38.27H1042.47V36.5601H1053.01V38.27ZM1044.61 37.4648H1042.47V33.3892H1044.61V37.4648ZM1045.3 25.7192C1045.3 26.7375 1045.13 27.6921 1044.81 28.583C1044.5 29.4684 1044.02 30.2459 1043.37 30.9155C1042.73 31.5851 1041.93 32.0804 1040.99 32.4014L1039.89 30.7329C1040.71 30.4562 1041.39 30.0578 1041.93 29.5376C1042.48 29.0174 1042.88 28.4308 1043.15 27.7778C1043.41 27.1248 1043.54 26.4386 1043.54 25.7192V24.2666H1045.3V25.7192ZM1045.74 25.7192C1045.74 26.411 1045.86 27.0695 1046.11 27.6948C1046.36 28.3146 1046.75 28.868 1047.28 29.355C1047.81 29.842 1048.48 30.2127 1049.28 30.4673L1048.2 32.144C1047.27 31.8286 1046.49 31.3582 1045.86 30.7329C1045.23 30.1021 1044.76 29.3605 1044.44 28.5083C1044.12 27.6506 1043.97 26.7209 1043.97 25.7192V24.2666H1045.74V25.7192ZM1059.8 26.624C1059.8 27.526 1059.64 28.3672 1059.32 29.1475C1059.01 29.9222 1058.53 30.5973 1057.89 31.1729C1057.25 31.7484 1056.47 32.1689 1055.53 32.4346L1054.54 30.791C1055.33 30.5641 1055.99 30.2349 1056.52 29.8032C1057.05 29.366 1057.44 28.8763 1057.7 28.334C1057.97 27.7861 1058.1 27.2161 1058.1 26.624V26.0513H1059.8V26.624ZM1060.2 26.624C1060.2 27.1663 1060.34 27.6865 1060.6 28.1846C1060.87 28.6826 1061.27 29.1281 1061.81 29.521C1062.34 29.9139 1063.01 30.21 1063.8 30.4092L1062.8 32.0444C1061.86 31.8009 1061.07 31.4136 1060.42 30.8823C1059.78 30.3511 1059.29 29.7202 1058.97 28.9897C1058.65 28.2593 1058.48 27.4707 1058.48 26.624V26.0513H1060.2V26.624ZM1063.25 26.6655H1055.06V24.9971H1063.25V26.6655ZM1060.23 25.6611H1058.1V23.3535H1060.23V25.6611ZM1065.76 29.1724H1062.81V27.4707H1065.76V29.1724ZM1067.38 32.5508H1065.27V23.4033H1067.38V32.5508ZM1062.21 32.8081C1063.28 32.8081 1064.2 32.9188 1064.98 33.1401C1065.77 33.356 1066.37 33.6797 1066.79 34.1113C1067.21 34.5374 1067.42 35.0465 1067.42 35.6387C1067.42 36.2474 1067.21 36.7676 1066.79 37.1992C1066.37 37.6309 1065.77 37.9601 1064.98 38.187C1064.2 38.4139 1063.28 38.5273 1062.21 38.5273C1061.14 38.5273 1060.22 38.4139 1059.45 38.187C1058.67 37.9601 1058.08 37.6309 1057.65 37.1992C1057.23 36.7676 1057.02 36.2474 1057.02 35.6387C1057.02 35.0465 1057.23 34.5374 1057.65 34.1113C1058.07 33.6797 1058.66 33.356 1059.44 33.1401C1060.22 32.9188 1061.14 32.8081 1062.21 32.8081ZM1062.21 34.4268C1061.54 34.4268 1060.98 34.471 1060.52 34.5596C1060.06 34.6481 1059.72 34.7837 1059.48 34.9663C1059.24 35.1489 1059.12 35.373 1059.12 35.6387C1059.12 35.9154 1059.24 36.1478 1059.48 36.3359C1059.72 36.5241 1060.06 36.668 1060.52 36.7676C1060.98 36.8617 1061.54 36.9115 1062.21 36.917C1062.89 36.9115 1063.46 36.8617 1063.92 36.7676C1064.39 36.668 1064.73 36.5241 1064.96 36.3359C1065.19 36.1478 1065.31 35.9154 1065.31 35.6387C1065.31 35.3675 1065.19 35.1434 1064.96 34.9663C1064.73 34.7837 1064.39 34.6481 1063.93 34.5596C1063.47 34.471 1062.9 34.4268 1062.21 34.4268ZM1081.05 29.8779H1077.02V28.1763H1081.05V29.8779ZM1074.62 26.8315C1074.62 28.1265 1074.46 29.3411 1074.16 30.4756C1073.85 31.61 1073.39 32.6172 1072.76 33.4971C1072.14 34.3714 1071.36 35.0382 1070.45 35.4976L1069.12 33.7627C1069.95 33.3919 1070.65 32.8468 1071.22 32.1274C1071.78 31.4025 1072.2 30.589 1072.48 29.687C1072.76 28.7795 1072.9 27.8276 1072.9 26.8315V24.5737H1074.62V26.8315ZM1075.05 26.8315C1075.05 27.8221 1075.19 28.7573 1075.45 29.6372C1075.72 30.5116 1076.12 31.2918 1076.67 31.978C1077.22 32.6587 1077.9 33.1761 1078.71 33.5303L1077.42 35.2236C1076.51 34.7754 1075.75 34.1362 1075.14 33.3062C1074.54 32.4705 1074.09 31.5076 1073.79 30.4175C1073.5 29.3218 1073.35 28.1265 1073.35 26.8315V24.5737H1075.05V26.8315ZM1082.08 38.5688H1079.98V23.4033H1082.08V38.5688ZM1101.02 38.5273H1099.03V23.4033H1101.02V38.5273ZM1096.5 30.3096H1093.95V28.6079H1096.5V30.3096ZM1097.93 37.8384H1095.95V23.6689H1097.93V37.8384ZM1092.3 27.4624C1092.3 28.6411 1092.17 29.7617 1091.94 30.8242C1091.7 31.8867 1091.33 32.8441 1090.82 33.6963C1090.33 34.5485 1089.69 35.2098 1088.92 35.6802L1087.65 34.1196C1088.35 33.6825 1088.94 33.1125 1089.4 32.4097C1089.86 31.7013 1090.19 30.9294 1090.39 30.0938C1090.6 29.2526 1090.7 28.3755 1090.7 27.4624V25.877H1092.3V27.4624ZM1092.74 27.4624C1092.74 28.3534 1092.84 29.1973 1093.04 29.9941C1093.24 30.791 1093.56 31.5215 1094 32.1855C1094.45 32.8441 1095.03 33.3753 1095.73 33.7793L1094.49 35.3315C1093.72 34.8778 1093.09 34.2497 1092.59 33.4473C1092.1 32.6449 1091.74 31.7401 1091.51 30.7329C1091.29 29.7202 1091.18 28.63 1091.18 27.4624V25.877H1092.74V27.4624ZM1095.03 26.6489H1088.22V24.9556H1095.03V26.6489ZM1110.58 33.2812H1108.5V31.0815H1110.58V33.2812ZM1116.41 31.397H1102.69V29.853H1116.41V31.397ZM1110.57 25.2295H1108.47V23.4033H1110.57V25.2295ZM1110.2 25.6196C1110.2 26.3501 1109.96 26.9893 1109.47 27.5371C1108.98 28.085 1108.26 28.5249 1107.29 28.8569C1106.34 29.1834 1105.17 29.3826 1103.8 29.4546L1103.23 27.894C1104.39 27.8387 1105.35 27.7031 1106.11 27.4873C1106.88 27.266 1107.45 26.9948 1107.8 26.6738C1108.16 26.3529 1108.34 26.0015 1108.34 25.6196V25.3125H1110.2V25.6196ZM1110.71 25.6196C1110.71 26.0015 1110.88 26.3529 1111.24 26.6738C1111.6 26.9948 1112.17 27.266 1112.94 27.4873C1113.71 27.7031 1114.68 27.8387 1115.85 27.894L1115.24 29.4546C1113.87 29.3826 1112.71 29.1807 1111.75 28.8486C1110.8 28.5166 1110.08 28.0794 1109.58 27.5371C1109.09 26.9893 1108.85 26.3501 1108.85 25.6196V25.3125H1110.71V25.6196ZM1115.1 26.1675H1103.98V24.5986H1115.1V26.1675ZM1114.76 36.0288H1106.34V37.498H1104.26V34.6094H1112.66V33.8706H1104.25V32.3516H1114.76V36.0288ZM1115.15 38.4194H1104.26V36.8672H1115.15V38.4194ZM1126.76 26.8315C1126.76 28.1597 1126.6 29.3965 1126.27 30.542C1125.95 31.6875 1125.46 32.6974 1124.8 33.5718C1124.15 34.4406 1123.34 35.0991 1122.37 35.5474L1121.08 33.7793C1121.93 33.4196 1122.66 32.8856 1123.25 32.1772C1123.84 31.4634 1124.28 30.6499 1124.57 29.7368C1124.86 28.8182 1125.01 27.8498 1125.02 26.8315V24.5737H1126.76V26.8315ZM1127.17 26.8315C1127.16 27.7944 1127.3 28.7131 1127.59 29.5874C1127.88 30.4562 1128.31 31.2337 1128.88 31.9199C1129.45 32.6061 1130.15 33.1235 1130.98 33.4722L1129.74 35.1738C1128.79 34.7422 1128 34.1113 1127.35 33.2812C1126.71 32.4456 1126.22 31.48 1125.9 30.3843C1125.57 29.283 1125.42 28.0988 1125.42 26.8315V24.5737H1127.17V26.8315ZM1133.93 38.5688H1131.78V23.4033H1133.93V38.5688Z" fill="#3D3D3D"/>
</svg>
