<svg width="1261" height="136" viewBox="0 0 1261 136" fill="none" xmlns="http://www.w3.org/2000/svg">
<rect x="297.5" y="0.5" width="963" height="62" fill="white" stroke="#01875F"/>
<rect x="297.5" y="73.5" width="963" height="62" fill="white" stroke="#01875F"/>
<rect x="0.5" y="0.5" width="296" height="62" fill="#F7F7F7" stroke="#01875F"/>
<rect x="0.5" y="73.5" width="296" height="62" fill="#F7F7F7" stroke="#01875F"/>
<path d="M135.951 43.2461H133.021V21.0049H135.951V43.2461ZM133.729 32.1011H129.958V29.6108H133.729V32.1011ZM130.873 42.1719H128.017V21.4077H130.873V42.1719ZM118.935 35.6167C120.562 35.6167 121.958 35.5801 123.122 35.5068C124.285 35.4336 125.482 35.2871 126.71 35.0674L126.93 37.5942C125.693 37.8384 124.477 38.0011 123.28 38.0825C122.092 38.1558 120.644 38.2005 118.935 38.2168H117.372V35.6167H118.935ZM125.673 26.1074H120.497V36.874H117.372V23.605H125.673V26.1074ZM145.863 24.2153C145.863 25.729 145.635 27.1328 145.18 28.4268C144.732 29.7207 144.049 30.8478 143.129 31.8081C142.209 32.7603 141.07 33.4683 139.711 33.9321L138.039 31.4907C139.227 31.0838 140.215 30.5101 141.005 29.7695C141.794 29.0208 142.376 28.1745 142.75 27.2305C143.125 26.2865 143.316 25.2814 143.324 24.2153V22.2012H145.863V24.2153ZM146.449 24.5205C146.449 25.4564 146.632 26.3394 146.999 27.1694C147.373 27.9995 147.938 28.7401 148.695 29.3911C149.46 30.034 150.408 30.5345 151.54 30.8926L149.879 33.3096C148.577 32.8783 147.483 32.2313 146.596 31.3687C145.709 30.4979 145.041 29.4806 144.594 28.3169C144.146 27.1532 143.926 25.8877 143.935 24.5205V22.2012H146.449V24.5205ZM155.983 34.2007H152.87V21.0049H155.983V34.2007ZM158.986 28.8174H155.104V26.2173H158.986V28.8174ZM148.695 34.6523C150.225 34.6523 151.552 34.8232 152.675 35.165C153.806 35.4987 154.673 35.991 155.275 36.6421C155.885 37.285 156.19 38.05 156.19 38.937C156.19 39.8403 155.885 40.6134 155.275 41.2563C154.673 41.8993 153.806 42.3916 152.675 42.7334C151.552 43.0752 150.225 43.2461 148.695 43.2461C147.141 43.2461 145.79 43.0752 144.643 42.7334C143.503 42.3916 142.624 41.8993 142.006 41.2563C141.387 40.6134 141.078 39.8403 141.078 38.937C141.078 38.05 141.387 37.285 142.006 36.6421C142.624 35.991 143.503 35.4987 144.643 35.165C145.79 34.8232 147.141 34.6523 148.695 34.6523ZM148.695 37.0938C147.727 37.0856 146.909 37.1548 146.242 37.3013C145.574 37.4396 145.066 37.6471 144.716 37.9238C144.374 38.2005 144.207 38.5382 144.215 38.937C144.207 39.3521 144.374 39.6979 144.716 39.9746C145.058 40.2513 145.558 40.4588 146.217 40.5972C146.885 40.7355 147.711 40.8047 148.695 40.8047C149.664 40.8047 150.478 40.7355 151.137 40.5972C151.796 40.4588 152.292 40.2513 152.626 39.9746C152.96 39.6979 153.126 39.3521 153.126 38.937C153.126 38.5382 152.956 38.2005 152.614 37.9238C152.28 37.639 151.784 37.4274 151.125 37.2891C150.465 37.1507 149.656 37.0856 148.695 37.0938ZM167.506 27.0718C167.506 28.7808 167.262 30.4328 166.774 32.0278C166.294 33.6147 165.582 35.0308 164.638 36.2759C163.702 37.521 162.579 38.4528 161.269 39.0713L159.438 36.6177C160.634 36.0562 161.651 35.2627 162.489 34.2373C163.336 33.2119 163.97 32.0807 164.394 30.8438C164.817 29.6068 165.032 28.3494 165.041 27.0718V24.4839H167.506V27.0718ZM168.166 27.0718C168.157 28.2518 168.361 29.4237 168.776 30.5874C169.191 31.7511 169.805 32.8213 170.619 33.7979C171.441 34.7663 172.438 35.519 173.61 36.0562L171.876 38.4976C170.566 37.9035 169.447 37.0124 168.52 35.8242C167.6 34.6361 166.9 33.2852 166.42 31.7715C165.94 30.2497 165.7 28.6831 165.7 27.0718V24.4839H168.166V27.0718ZM172.646 25.7168H160.329V23.1777H172.646V25.7168ZM177.492 43.2461H174.367V21.0049H177.492V43.2461ZM180.788 32.1133H176.808V29.5132H180.788V32.1133Z" fill="#01875F"/>
<path d="M134.376 106.432H131.264V94.0049H134.376V106.432ZM137.379 101.451H133.498V98.8877H137.379V101.451ZM128.151 95.3354C128.143 97.2804 127.74 99.022 126.942 100.56C126.145 102.09 124.969 103.392 123.415 104.466C121.86 105.541 119.968 106.371 117.738 106.957L116.505 104.466C118.32 104.019 119.846 103.417 121.083 102.66C122.328 101.895 123.26 101.02 123.878 100.035C124.505 99.0423 124.822 97.9762 124.831 96.8369V95.3354H128.151ZM126.71 97.8013H117.604V95.3354H126.71V97.8013ZM134.376 115.99H119.85V107.286H134.376V115.99ZM122.938 113.536H131.3V109.801H122.938V113.536ZM154.481 100.072H149.147V97.6182H154.481V100.072ZM154.298 104.686H148.988V102.184H154.298V104.686ZM157.082 106.847H153.981V94.0537H157.082V106.847ZM149.989 95.5308C149.989 97.5409 149.607 99.319 148.842 100.865C148.085 102.403 146.95 103.714 145.436 104.796C143.922 105.87 142.034 106.712 139.772 107.323L138.551 104.869C140.399 104.381 141.924 103.75 143.129 102.977C144.341 102.204 145.233 101.321 145.802 100.328C146.38 99.3271 146.669 98.2326 146.669 97.0444V95.5308H149.989ZM148.83 98.0454H139.735V95.5308H148.83V98.0454ZM149.672 107.115C151.169 107.115 152.492 107.302 153.639 107.677C154.787 108.043 155.674 108.564 156.3 109.239C156.927 109.915 157.24 110.708 157.24 111.62C157.24 112.531 156.927 113.325 156.3 114C155.674 114.684 154.787 115.213 153.639 115.587C152.492 115.961 151.169 116.148 149.672 116.148C148.166 116.148 146.84 115.961 145.692 115.587C144.545 115.213 143.658 114.684 143.031 114C142.405 113.325 142.091 112.531 142.091 111.62C142.091 110.708 142.405 109.915 143.031 109.239C143.658 108.564 144.541 108.043 145.68 107.677C146.828 107.302 148.158 107.115 149.672 107.115ZM149.672 109.544C148.736 109.544 147.93 109.622 147.255 109.776C146.588 109.931 146.075 110.167 145.717 110.484C145.367 110.794 145.196 111.172 145.204 111.62C145.196 112.067 145.367 112.446 145.717 112.755C146.075 113.064 146.588 113.296 147.255 113.451C147.93 113.605 148.736 113.683 149.672 113.683C150.6 113.683 151.397 113.605 152.064 113.451C152.732 113.296 153.24 113.064 153.59 112.755C153.948 112.446 154.127 112.067 154.127 111.62C154.127 111.172 153.948 110.794 153.59 110.484C153.24 110.167 152.732 109.931 152.064 109.776C151.397 109.622 150.6 109.544 149.672 109.544ZM180.263 106.126H159.95V103.856H180.263V106.126ZM177.846 112.694H165.382V114.635H162.27V110.704H174.757V109.593H162.257V107.433H177.846V112.694ZM178.48 116.087H162.27V113.963H178.48V116.087ZM177.809 99.6201H165.578V101.488H162.477V97.6426H174.684V96.5195H162.44V94.4199H177.809V99.6201ZM178.188 102.843H162.477V100.719H178.188V102.843ZM168.056 108.824H164.967V104.625H168.056V108.824ZM175.27 108.824H172.157V104.625H175.27V108.824Z" fill="#01875F"/>
<path d="M349.511 36.418C349.516 34.8796 349.721 33.4518 350.125 32.1348C350.529 30.8177 351.121 29.5947 351.901 28.4658H353.163C352.787 29.0192 352.433 29.7331 352.101 30.6074C351.769 31.4818 351.5 32.4308 351.295 33.4546C351.091 34.4784 350.988 35.4661 350.988 36.418C350.988 37.3698 351.091 38.3548 351.295 39.373C351.5 40.3913 351.769 41.3403 352.101 42.2202C352.433 43.1056 352.787 43.8278 353.163 44.3867H351.901C351.121 43.2523 350.529 42.0265 350.125 40.7095C349.721 39.3924 349.516 37.9619 349.511 36.418ZM365.813 42.3447H364.519V27.5859H365.813V42.3447ZM368.204 34.6914H365.481V33.5957H368.204V34.6914ZM361.995 29.1797C361.99 30.613 361.752 31.9688 361.281 33.2471C360.816 34.5199 360.08 35.6958 359.073 36.7749C358.066 37.8485 356.782 38.7699 355.222 39.5391L354.491 38.5098C355.858 37.8291 357.004 37.0295 357.928 36.1108C358.857 35.1867 359.552 34.1629 360.011 33.0396C360.476 31.9162 360.711 30.7015 360.717 29.3955V29.1797H361.995ZM361.381 30.2754H355.172V29.1797H361.381V30.2754ZM372.155 32.1348C372.559 33.4518 372.764 34.8796 372.77 36.418C372.764 37.9619 372.559 39.3924 372.155 40.7095C371.751 42.0265 371.159 43.2523 370.379 44.3867H369.117C369.493 43.8278 369.848 43.1056 370.18 42.2202C370.512 41.3403 370.78 40.3913 370.985 39.373C371.19 38.3548 371.292 37.3698 371.292 36.418C371.292 35.4661 371.19 34.4784 370.985 33.4546C370.78 32.4308 370.512 31.4818 370.18 30.6074C369.848 29.7331 369.493 29.0192 369.117 28.4658H370.379C371.159 29.5947 371.751 30.8177 372.155 32.1348ZM386.98 42.3447H385.686V27.5859H386.98V42.3447ZM374.961 38.3105C376.948 38.3105 378.713 38.2856 380.257 38.2358C381.801 38.186 383.284 38.0726 384.706 37.8955L384.806 38.8584C383.389 39.0908 381.917 39.2458 380.39 39.3232C378.862 39.4007 377.28 39.4339 375.642 39.4229H375.16L374.961 38.3105ZM384.324 30.6572H375.276V29.5947H384.324V30.6572ZM379.809 31.4707C380.506 31.4707 381.123 31.5841 381.66 31.811C382.196 32.0379 382.611 32.3644 382.905 32.7905C383.204 33.2111 383.356 33.7008 383.361 34.2598C383.356 34.8076 383.204 35.2918 382.905 35.7124C382.611 36.1274 382.194 36.4512 381.651 36.6836C381.115 36.9105 380.5 37.0212 379.809 37.0156C379.117 37.0212 378.503 36.9105 377.966 36.6836C377.435 36.4512 377.02 36.1274 376.721 35.7124C376.427 35.2918 376.284 34.8076 376.289 34.2598C376.284 33.7008 376.427 33.2111 376.721 32.7905C377.02 32.3644 377.435 32.0379 377.966 31.811C378.503 31.5841 379.117 31.4707 379.809 31.4707ZM379.809 32.5C379.36 32.5 378.959 32.5719 378.605 32.7158C378.256 32.8597 377.985 33.0672 377.792 33.3384C377.598 33.6095 377.501 33.9167 377.501 34.2598C377.501 34.6029 377.598 34.9045 377.792 35.1646C377.985 35.4246 378.256 35.6294 378.605 35.7788C378.959 35.9282 379.36 36.0029 379.809 36.0029C380.257 36.0029 380.655 35.9282 381.004 35.7788C381.358 35.6294 381.632 35.4246 381.826 35.1646C382.019 34.9045 382.116 34.6029 382.116 34.2598C382.116 33.9167 382.019 33.6095 381.826 33.3384C381.632 33.0672 381.358 32.8597 381.004 32.7158C380.655 32.5719 380.257 32.5 379.809 32.5ZM380.473 30.2754H379.145V27.752H380.473V30.2754ZM394.966 41.4648H393.654V35.3223H394.966V41.4648ZM401.855 42.3447H400.561V27.5859H401.855V42.3447ZM389.471 34.6416C391.513 34.6305 393.325 34.6001 394.908 34.5503C396.49 34.5005 398.015 34.3981 399.481 34.2432L399.581 35.2227C398.054 35.4163 396.457 35.5519 394.792 35.6294C393.131 35.7013 391.419 35.7373 389.653 35.7373L389.471 34.6416ZM396.975 29.8105H390.782V28.7314H396.975V29.8105ZM397.771 29.5117C397.76 30.3418 397.724 31.1663 397.664 31.9854C397.603 32.8044 397.473 33.7562 397.273 34.8408L395.962 34.7412C396.106 33.9831 396.214 33.2775 396.286 32.6245C396.358 31.966 396.405 31.4071 396.427 30.9478C396.454 30.4829 396.471 30.0042 396.477 29.5117V29.3291V28.7314H397.771V29.3291V29.5117ZM406.288 34.9072H404.977V28.665H406.288V34.9072ZM406.155 34.4756C407.334 34.4811 408.477 34.4368 409.583 34.3428C410.69 34.2487 411.822 34.0827 412.979 33.8447L413.128 34.9238C411.955 35.1673 410.804 35.3389 409.675 35.4385C408.551 35.5381 407.378 35.5879 406.155 35.5879H404.977V34.4756H406.155ZM415.801 38.2607H414.506V27.6025H415.801V38.2607ZM418.025 33.1143H415.386V31.9854H418.025V33.1143ZM416.332 42.0293H406.62V40.9336H416.332V42.0293ZM407.915 41.4316H406.62V37.2148H407.915V41.4316ZM431.124 42.3447H429.812V27.5859H431.124V42.3447ZM424.185 32.4004C424.185 33.4242 424.002 34.4092 423.637 35.3555C423.271 36.2962 422.768 37.1263 422.126 37.8457C421.49 38.5651 420.776 39.113 419.984 39.4893L419.254 38.4766C419.979 38.1445 420.635 37.6631 421.221 37.0322C421.813 36.4014 422.278 35.6847 422.616 34.8823C422.953 34.0744 423.122 33.2471 423.122 32.4004V31.0723H424.185V32.4004ZM424.4 32.4004C424.4 33.2083 424.575 33.9997 424.923 34.7744C425.272 35.5492 425.745 36.2381 426.343 36.8413C426.946 37.439 427.616 37.8955 428.352 38.2109L427.621 39.2236C426.819 38.8695 426.091 38.3465 425.438 37.6548C424.791 36.9631 424.281 36.1634 423.911 35.2559C423.54 34.3428 423.354 33.391 423.354 32.4004V31.0723H424.4V32.4004ZM427.837 31.2217H419.652V30.1592H427.837V31.2217ZM424.4 30.7568H423.105V27.8682H424.4V30.7568ZM438.495 29.96C438.495 30.9007 438.324 31.7778 437.98 32.5913C437.637 33.4048 437.153 34.1104 436.528 34.708C435.903 35.3057 435.175 35.7594 434.345 36.0693L433.631 35.0068C434.383 34.7412 435.048 34.3566 435.623 33.853C436.199 33.3494 436.641 32.7629 436.951 32.0933C437.267 31.4237 437.427 30.7126 437.433 29.96V28.4326H438.495V29.96ZM438.728 29.9102C438.722 30.6019 438.871 31.2604 439.176 31.8857C439.486 32.5055 439.917 33.0534 440.471 33.5293C441.024 34.0052 441.66 34.3649 442.38 34.6084L441.649 35.6211C440.858 35.3223 440.161 34.8934 439.558 34.3345C438.96 33.7756 438.492 33.1198 438.155 32.3672C437.817 31.609 437.648 30.79 437.648 29.9102V28.4326H438.728V29.9102ZM445.883 36.335H444.571V27.5859H445.883V36.335ZM440.985 36.7666C442.004 36.7666 442.883 36.8745 443.625 37.0903C444.367 37.3062 444.937 37.6243 445.335 38.0449C445.733 38.4655 445.933 38.9691 445.933 39.5557C445.933 40.1367 445.733 40.632 445.335 41.0415C444.937 41.4565 444.367 41.772 443.625 41.9878C442.883 42.2036 442.004 42.3115 440.985 42.3115C439.962 42.3115 439.079 42.2036 438.337 41.9878C437.601 41.772 437.034 41.4565 436.636 41.0415C436.237 40.632 436.038 40.1367 436.038 39.5557C436.038 38.9691 436.237 38.4655 436.636 38.0449C437.034 37.6243 437.601 37.3062 438.337 37.0903C439.079 36.8745 439.962 36.7666 440.985 36.7666ZM440.985 37.7959C440.233 37.7959 439.583 37.8651 439.035 38.0034C438.487 38.1418 438.066 38.3438 437.773 38.6094C437.48 38.875 437.333 39.1904 437.333 39.5557C437.333 39.9098 437.48 40.2142 437.773 40.4688C438.066 40.7233 438.487 40.9198 439.035 41.0581C439.583 41.1965 440.233 41.2656 440.985 41.2656C441.732 41.2656 442.38 41.1965 442.928 41.0581C443.481 40.9198 443.904 40.7233 444.198 40.4688C444.491 40.2142 444.638 39.9098 444.638 39.5557C444.638 39.1904 444.491 38.875 444.198 38.6094C443.904 38.3438 443.481 38.1418 442.928 38.0034C442.38 37.8651 441.732 37.7959 440.985 37.7959ZM444.854 31.8359H441.284V30.7568H444.854V31.8359ZM460.509 35.2559H459.23V27.5859H460.509V35.2559ZM460.525 39.4893H452.241V41.6143H450.963V38.5098H459.23V36.999H450.93V35.9697H460.525V39.4893ZM461.057 42.1787H450.963V41.1328H461.057V42.1787ZM453.403 29.6777C453.403 30.5355 453.226 31.3379 452.872 32.085C452.518 32.8265 452.02 33.474 451.378 34.0273C450.736 34.5752 450 34.9902 449.17 35.2725L448.556 34.2432C449.286 33.9997 449.939 33.6455 450.515 33.1807C451.09 32.7158 451.538 32.1818 451.859 31.5786C452.18 30.9754 452.341 30.3418 452.341 29.6777V28.8809H453.403V29.6777ZM453.652 29.6777C453.652 30.3086 453.816 30.909 454.142 31.479C454.469 32.049 454.917 32.5498 455.487 32.9814C456.062 33.4076 456.718 33.7285 457.454 33.9443L456.807 34.957C455.982 34.6969 455.252 34.3096 454.615 33.7949C453.984 33.2747 453.489 32.6632 453.129 31.9604C452.775 31.2521 452.601 30.4912 452.606 29.6777V28.8809H453.652V29.6777ZM457.056 29.5117H448.888V28.4326H457.056V29.5117ZM474.554 39.1406H473.242V27.5859H474.554V39.1406ZM476.762 33.8613H474.006V32.7656H476.762V33.8613ZM475.085 42.0293H465.174V40.9336H475.085V42.0293ZM466.485 41.2822H465.174V38.3604H466.485V41.2822ZM468.262 36.8164H466.967V34.8076H468.262V36.8164ZM462.966 36.3682C464.77 36.3626 466.441 36.3267 467.979 36.2603C469.523 36.1883 470.973 36.0472 472.329 35.8369L472.445 36.7666C471.123 37.0156 469.745 37.1844 468.312 37.2729C466.884 37.356 465.29 37.4085 463.53 37.4307C463.436 37.4307 463.367 37.4307 463.323 37.4307C463.278 37.4307 463.209 37.4307 463.115 37.4307L462.966 36.3682ZM471.881 30.0264H463.331V29.0469H471.881V30.0264ZM467.598 30.6738C468.289 30.6738 468.895 30.7624 469.416 30.9395C469.941 31.1165 470.345 31.3794 470.627 31.728C470.915 32.0711 471.062 32.4779 471.067 32.9482C471.062 33.4076 470.915 33.8088 470.627 34.1519C470.345 34.4894 469.941 34.7495 469.416 34.9321C468.895 35.1147 468.289 35.2061 467.598 35.2061C466.906 35.2061 466.3 35.112 465.78 34.9238C465.265 34.7357 464.864 34.4756 464.576 34.1436C464.288 33.806 464.145 33.4076 464.145 32.9482C464.145 32.4834 464.288 32.0767 464.576 31.728C464.864 31.3794 465.265 31.1165 465.78 30.9395C466.3 30.7624 466.906 30.6738 467.598 30.6738ZM467.598 31.6035C467.149 31.6035 466.757 31.6561 466.419 31.7612C466.087 31.8664 465.832 32.0213 465.655 32.2261C465.478 32.4308 465.39 32.6715 465.39 32.9482C465.39 33.2139 465.478 33.4463 465.655 33.6455C465.832 33.8447 466.087 33.9997 466.419 34.1104C466.757 34.221 467.149 34.2764 467.598 34.2764C468.046 34.2764 468.436 34.221 468.768 34.1104C469.106 33.9997 469.366 33.8447 469.548 33.6455C469.731 33.4463 469.822 33.2139 469.822 32.9482C469.822 32.6715 469.734 32.4308 469.557 32.2261C469.38 32.0213 469.119 31.8664 468.776 31.7612C468.439 31.6561 468.046 31.6035 467.598 31.6035ZM468.262 29.5117H466.967V27.5527H468.262V29.5117ZM482.473 32.1182C482.473 33.1198 482.285 34.1159 481.908 35.1064C481.532 36.0915 481.02 36.9741 480.373 37.7544C479.725 38.5347 479.025 39.1185 478.272 39.5059L477.476 38.4766C478.178 38.1335 478.831 37.6188 479.435 36.9326C480.043 36.2464 480.528 35.4772 480.887 34.625C481.252 33.7728 481.438 32.9372 481.443 32.1182V29.6777H482.473V32.1182ZM482.722 32.1182C482.716 32.8929 482.882 33.6787 483.22 34.4756C483.563 35.2725 484.028 35.9946 484.614 36.6421C485.201 37.284 485.848 37.7738 486.557 38.1113L485.81 39.1406C485.04 38.7643 484.34 38.2082 483.709 37.4722C483.084 36.7362 482.589 35.9006 482.224 34.9653C481.858 34.0246 481.676 33.0755 481.676 32.1182V29.6777H482.722V32.1182ZM486.042 30.1924H478.007V29.1133H486.042V30.1924ZM489.146 42.3447H487.852V27.5859H489.146V42.3447ZM491.62 34.6748H488.848V33.5625H491.62V34.6748ZM504.586 42.3779H503.274V27.5859H504.586V42.3779ZM496.733 28.7314C497.464 28.7314 498.114 28.9417 498.684 29.3623C499.254 29.7829 499.7 30.3833 500.021 31.1636C500.341 31.9438 500.502 32.8486 500.502 33.8779C500.502 34.9072 500.341 35.8092 500.021 36.584C499.7 37.3587 499.254 37.9564 498.684 38.377C498.114 38.7975 497.464 39.0078 496.733 39.0078C496.003 39.0078 495.353 38.7975 494.783 38.377C494.213 37.9564 493.767 37.3587 493.446 36.584C493.125 35.8092 492.965 34.9072 492.965 33.8779C492.965 32.8486 493.125 31.9438 493.446 31.1636C493.767 30.3833 494.213 29.7829 494.783 29.3623C495.353 28.9417 496.003 28.7314 496.733 28.7314ZM496.733 29.8936C496.246 29.8936 495.812 30.0596 495.43 30.3916C495.048 30.7236 494.752 31.1912 494.542 31.7944C494.332 32.3976 494.227 33.0921 494.227 33.8779C494.227 34.6693 494.332 35.3665 494.542 35.9697C494.752 36.5674 495.048 37.0295 495.43 37.356C495.812 37.6825 496.246 37.8457 496.733 37.8457C497.226 37.8457 497.66 37.6825 498.037 37.356C498.418 37.0295 498.715 36.5674 498.925 35.9697C499.135 35.3665 499.24 34.6693 499.24 33.8779C499.24 33.0866 499.135 32.3921 498.925 31.7944C498.715 31.1912 498.418 30.7236 498.037 30.3916C497.66 30.0596 497.226 29.8936 496.733 29.8936ZM518.432 31.2881H514.248V30.1924H518.432V31.2881ZM518.465 34.4424H514.248V33.3633H518.465V34.4424ZM514.58 35.7705H507.807V28.8809H514.58V35.7705ZM509.102 34.7246H513.302V29.96H509.102V34.7246ZM519.345 38.377H518.033V27.6025H519.345V38.377ZM519.677 42.0293H509.799V40.9336H519.677V42.0293ZM511.11 41.415H509.799V37.4141H511.11V41.415ZM533.39 33.6953H529.239V32.6328H533.39V33.6953ZM526.749 31.5537C526.743 32.6217 526.561 33.6676 526.201 34.6914C525.847 35.7096 525.357 36.6172 524.732 37.4141C524.107 38.2109 523.407 38.8141 522.632 39.2236L521.785 38.1777C522.499 37.8291 523.152 37.3062 523.744 36.6089C524.342 35.9061 524.812 35.112 525.155 34.2266C525.498 33.3356 525.67 32.4447 525.67 31.5537V28.8643H526.749V31.5537ZM526.998 31.5537C526.998 32.4281 527.17 33.2913 527.513 34.1436C527.856 34.9958 528.321 35.7539 528.907 36.418C529.494 37.0765 530.141 37.569 530.85 37.8955L530.069 38.958C529.284 38.554 528.578 37.973 527.953 37.2148C527.327 36.4512 526.835 35.5796 526.475 34.6001C526.115 33.6151 525.936 32.5996 525.936 31.5537V28.8643H526.998V31.5537ZM534.037 42.3779H532.742V27.5859H534.037V42.3779ZM545.459 32.4004C545.453 33.4131 545.274 34.3926 544.919 35.3389C544.571 36.2796 544.087 37.1125 543.467 37.8374C542.847 38.5623 542.15 39.113 541.375 39.4893L540.628 38.4766C541.342 38.1445 541.986 37.6603 542.562 37.0239C543.143 36.3875 543.597 35.6681 543.923 34.8657C544.25 34.0578 544.413 33.236 544.413 32.4004V31.0723H545.459V32.4004ZM545.675 32.4004C545.675 33.1807 545.835 33.9526 546.156 34.7163C546.477 35.4744 546.914 36.1634 547.468 36.7832C548.027 37.3975 548.658 37.8734 549.36 38.2109L548.597 39.2236C547.833 38.8473 547.155 38.3078 546.563 37.605C545.971 36.9022 545.506 36.0998 545.168 35.1978C544.831 34.2902 544.662 33.3577 544.662 32.4004V31.0723H545.675V32.4004ZM549.028 31.2217H541.026V30.1592H549.028V31.2217ZM545.708 30.7568H544.396V27.8682H545.708V30.7568ZM552.183 42.3447H550.888V27.5859H552.183V42.3447ZM554.656 34.7578H551.884V33.6455H554.656V34.7578ZM560.185 29.877C560.185 30.8122 560.016 31.6893 559.678 32.5083C559.341 33.3218 558.862 34.0301 558.242 34.6333C557.628 35.231 556.914 35.6875 556.101 36.0029L555.403 34.957C556.134 34.6859 556.778 34.2957 557.337 33.7866C557.896 33.272 558.331 32.6799 558.641 32.0103C558.951 31.3407 559.105 30.6296 559.105 29.877V28.3496H560.185V29.877ZM560.384 29.9766C560.384 30.6351 560.542 31.2715 560.857 31.8857C561.172 32.4945 561.607 33.0312 562.16 33.4961C562.714 33.9609 563.344 34.3151 564.053 34.5586L563.339 35.5879C562.553 35.3001 561.859 34.8768 561.255 34.3179C560.652 33.759 560.179 33.106 559.836 32.3589C559.493 31.6118 559.321 30.8177 559.321 29.9766V28.3496H560.384V29.9766ZM566.991 36.5674H565.696V27.5859H566.991V36.5674ZM569.216 32.5332H566.626V31.4375H569.216V32.5332ZM562.26 36.9492C563.267 36.9492 564.136 37.0544 564.866 37.2646C565.597 37.4749 566.156 37.7821 566.543 38.186C566.93 38.5845 567.124 39.0632 567.124 39.6221C567.124 40.1921 566.93 40.6763 566.543 41.0747C566.156 41.4787 565.597 41.7858 564.866 41.9961C564.136 42.2064 563.267 42.3115 562.26 42.3115C561.247 42.3115 560.373 42.2064 559.637 41.9961C558.906 41.7858 558.345 41.4787 557.952 41.0747C557.559 40.6707 557.362 40.1865 557.362 39.6221C557.362 39.0632 557.559 38.5845 557.952 38.186C558.345 37.7821 558.909 37.4749 559.645 37.2646C560.381 37.0544 561.253 36.9492 562.26 36.9492ZM562.26 37.9951C561.524 37.9951 560.885 38.0615 560.342 38.1943C559.806 38.3271 559.39 38.5153 559.097 38.7588C558.809 39.0023 558.668 39.29 558.674 39.6221C558.668 39.9652 558.809 40.2612 559.097 40.5103C559.39 40.7593 559.806 40.9502 560.342 41.083C560.879 41.2158 561.518 41.2822 562.26 41.2822C563.001 41.2822 563.643 41.2158 564.186 41.083C564.728 40.9502 565.143 40.7593 565.431 40.5103C565.718 40.2612 565.862 39.9652 565.862 39.6221C565.862 39.29 565.718 38.9995 565.431 38.7505C565.143 38.5015 564.725 38.3133 564.177 38.186C563.635 38.0588 562.996 37.9951 562.26 37.9951ZM575.01 28.3164C575.74 28.3109 576.393 28.4354 576.969 28.6899C577.544 28.939 577.993 29.2931 578.313 29.7524C578.634 30.2062 578.795 30.7292 578.795 31.3213C578.795 31.9134 578.634 32.4391 578.313 32.8984C577.993 33.3522 577.544 33.7064 576.969 33.9609C576.393 34.2155 575.74 34.3428 575.01 34.3428C574.279 34.3428 573.629 34.2155 573.059 33.9609C572.489 33.7064 572.041 33.3522 571.714 32.8984C571.388 32.4391 571.225 31.9134 571.225 31.3213C571.225 30.7292 571.388 30.2062 571.714 29.7524C572.041 29.2931 572.489 28.939 573.059 28.6899C573.629 28.4354 574.279 28.3109 575.01 28.3164ZM575.01 29.3789C574.528 29.3734 574.094 29.4536 573.707 29.6196C573.325 29.7801 573.026 30.0098 572.81 30.3086C572.6 30.6074 572.497 30.945 572.503 31.3213C572.497 31.6976 572.6 32.0324 572.81 32.3257C573.026 32.619 573.325 32.8486 573.707 33.0146C574.088 33.1807 574.523 33.2637 575.01 33.2637C575.502 33.2637 575.939 33.1807 576.321 33.0146C576.709 32.8486 577.01 32.6217 577.226 32.334C577.442 32.0407 577.55 31.7031 577.55 31.3213C577.55 30.945 577.442 30.6074 577.226 30.3086C577.01 30.0098 576.709 29.7801 576.321 29.6196C575.934 29.4536 575.497 29.3734 575.01 29.3789ZM575.74 41.8965H574.445V36.0029H575.74V41.8965ZM582.314 42.3613H581.036V27.6025H582.314V42.3613ZM570.112 35.6045C571.878 35.61 573.593 35.5768 575.259 35.5049C576.924 35.4329 578.491 35.2891 579.957 35.0732L580.04 36.0527C579.061 36.2354 578.042 36.3737 576.985 36.4678C575.934 36.5563 574.921 36.62 573.947 36.6587C572.979 36.6919 571.938 36.7113 570.826 36.7168C570.704 36.7168 570.613 36.7168 570.552 36.7168C570.497 36.7168 570.411 36.7168 570.295 36.7168L570.112 35.6045ZM590.665 41.0996C590.471 41.0996 590.292 41.0498 590.125 40.9502C589.965 40.8506 589.835 40.7205 589.735 40.5601C589.641 40.394 589.597 40.2142 589.603 40.0205C589.597 39.8324 589.641 39.6553 589.735 39.4893C589.835 39.3232 589.965 39.1932 590.125 39.0991C590.292 39.005 590.471 38.958 590.665 38.958C590.859 38.958 591.036 39.005 591.196 39.0991C591.362 39.1932 591.492 39.3232 591.586 39.4893C591.681 39.6553 591.728 39.8324 591.728 40.0205C591.728 40.2142 591.681 40.394 591.586 40.5601C591.492 40.7205 591.362 40.8506 591.196 40.9502C591.036 41.0498 590.859 41.0996 590.665 41.0996ZM590.665 34.4258C590.471 34.4258 590.292 34.376 590.125 34.2764C589.965 34.1768 589.835 34.0467 589.735 33.8862C589.641 33.7202 589.597 33.5404 589.603 33.3467C589.597 33.1585 589.641 32.9814 589.735 32.8154C589.835 32.6494 589.965 32.5194 590.125 32.4253C590.292 32.3312 590.471 32.2842 590.665 32.2842C590.859 32.2842 591.036 32.3312 591.196 32.4253C591.362 32.5194 591.492 32.6494 591.586 32.8154C591.681 32.9814 591.728 33.1585 591.728 33.3467C591.728 33.5404 591.681 33.7202 591.586 33.8862C591.492 34.0467 591.362 34.1768 591.196 34.2764C591.036 34.376 590.859 34.4258 590.665 34.4258ZM598.202 39.9043L602.303 35.5879C602.84 35.0124 603.249 34.5475 603.531 34.1934C603.819 33.8392 604.038 33.5016 604.187 33.1807C604.336 32.8542 604.411 32.5111 604.411 32.1514C604.411 31.7474 604.306 31.3932 604.096 31.0889C603.885 30.779 603.598 30.5382 603.232 30.3667C602.873 30.1951 602.469 30.1094 602.021 30.1094C601.55 30.1094 601.138 30.2035 600.784 30.3916C600.435 30.5798 600.164 30.8454 599.97 31.1885C599.777 31.526 599.68 31.9189 599.68 32.3672H598.269C598.263 31.6699 598.424 31.0529 598.75 30.5161C599.082 29.9793 599.539 29.5615 600.12 29.2627C600.701 28.9639 601.351 28.8145 602.07 28.8145C602.784 28.8145 603.423 28.9611 603.988 29.2544C604.558 29.5477 605.003 29.9489 605.324 30.458C605.645 30.9671 605.806 31.5316 605.806 32.1514C605.8 32.6107 605.714 33.0506 605.548 33.4712C605.388 33.8862 605.111 34.3483 604.718 34.8574C604.325 35.3665 603.769 35.9919 603.05 36.7334L600.294 39.5723V39.6719H606.021V41H598.219L598.202 39.9043ZM612.131 41.166C611.245 41.166 610.49 40.9253 609.865 40.4438C609.239 39.9624 608.761 39.2596 608.429 38.3354C608.097 37.4113 607.931 36.2962 607.931 34.9902C607.931 33.7008 608.097 32.5941 608.429 31.6699C608.761 30.7402 609.239 30.0319 609.865 29.5449C610.496 29.0579 611.251 28.8145 612.131 28.8145C613.005 28.8145 613.758 29.0579 614.389 29.5449C615.02 30.0319 615.501 30.7402 615.833 31.6699C616.165 32.5941 616.331 33.7008 616.331 34.9902C616.331 36.2962 616.168 37.4113 615.841 38.3354C615.515 39.2596 615.036 39.9624 614.405 40.4438C613.774 40.9253 613.016 41.166 612.131 41.166ZM612.131 39.8379C612.706 39.8379 613.202 39.6497 613.617 39.2734C614.032 38.8971 614.344 38.3465 614.555 37.6216C614.765 36.8966 614.87 36.0195 614.87 34.9902C614.87 33.9609 614.762 33.0811 614.546 32.3506C614.331 31.6201 614.018 31.064 613.608 30.6821C613.199 30.3003 612.706 30.1094 612.131 30.1094C611.555 30.1094 611.063 30.3003 610.653 30.6821C610.244 31.064 609.928 31.6201 609.707 32.3506C609.486 33.0811 609.375 33.9609 609.375 34.9902C609.375 36.0195 609.486 36.8966 609.707 37.6216C609.928 38.3465 610.241 38.8971 610.645 39.2734C611.055 39.6497 611.55 39.8379 612.131 39.8379ZM622.258 41.166C621.372 41.166 620.617 40.9253 619.992 40.4438C619.366 39.9624 618.888 39.2596 618.556 38.3354C618.224 37.4113 618.058 36.2962 618.058 34.9902C618.058 33.7008 618.224 32.5941 618.556 31.6699C618.888 30.7402 619.366 30.0319 619.992 29.5449C620.623 29.0579 621.378 28.8145 622.258 28.8145C623.132 28.8145 623.885 29.0579 624.516 29.5449C625.146 30.0319 625.628 30.7402 625.96 31.6699C626.292 32.5941 626.458 33.7008 626.458 34.9902C626.458 36.2962 626.295 37.4113 625.968 38.3354C625.642 39.2596 625.163 39.9624 624.532 40.4438C623.901 40.9253 623.143 41.166 622.258 41.166ZM622.258 39.8379C622.833 39.8379 623.329 39.6497 623.744 39.2734C624.159 38.8971 624.471 38.3465 624.682 37.6216C624.892 36.8966 624.997 36.0195 624.997 34.9902C624.997 33.9609 624.889 33.0811 624.673 32.3506C624.458 31.6201 624.145 31.064 623.735 30.6821C623.326 30.3003 622.833 30.1094 622.258 30.1094C621.682 30.1094 621.19 30.3003 620.78 30.6821C620.371 31.064 620.055 31.6201 619.834 32.3506C619.613 33.0811 619.502 33.9609 619.502 34.9902C619.502 36.0195 619.613 36.8966 619.834 37.6216C620.055 38.3465 620.368 38.8971 620.772 39.2734C621.181 39.6497 621.677 39.8379 622.258 39.8379ZM632.451 28.8145C633.215 28.8255 633.926 29.0081 634.584 29.3623C635.243 29.7165 635.78 30.3169 636.195 31.1636C636.61 32.0047 636.817 33.1198 636.817 34.5088C636.817 35.9144 636.635 37.1152 636.27 38.1113C635.904 39.1074 635.379 39.8656 634.692 40.3857C634.006 40.9059 633.193 41.166 632.252 41.166C631.555 41.166 630.929 41.0304 630.376 40.7593C629.823 40.4881 629.372 40.1146 629.023 39.6387C628.674 39.1572 628.45 38.5983 628.351 37.9619H629.828C629.917 38.3327 630.069 38.6592 630.285 38.9414C630.5 39.2181 630.774 39.4367 631.106 39.5972C631.438 39.7576 631.82 39.8379 632.252 39.8379C632.905 39.8379 633.469 39.6553 633.945 39.29C634.421 38.9248 634.784 38.3991 635.033 37.7129C635.287 37.0212 635.417 36.1911 635.423 35.2227H635.257C635.024 35.5547 634.75 35.8397 634.435 36.0776C634.12 36.3156 633.771 36.4982 633.389 36.6255C633.007 36.7528 632.606 36.8164 632.186 36.8164C631.472 36.8164 630.813 36.6449 630.21 36.3018C629.612 35.9587 629.136 35.4855 628.782 34.8823C628.428 34.2791 628.251 33.6012 628.251 32.8486C628.251 32.1016 628.425 31.4209 628.774 30.8066C629.123 30.1868 629.615 29.6999 630.251 29.3457C630.888 28.986 631.621 28.8089 632.451 28.8145ZM632.451 30.126C631.937 30.126 631.469 30.2477 631.048 30.4912C630.633 30.7347 630.304 31.064 630.061 31.479C629.823 31.894 629.706 32.3451 629.712 32.832C629.712 33.3245 629.828 33.7756 630.061 34.1851C630.293 34.589 630.611 34.91 631.015 35.1479C631.425 35.3859 631.887 35.5049 632.401 35.5049C632.91 35.5049 633.378 35.3776 633.804 35.123C634.23 34.8685 634.568 34.5337 634.817 34.1187C635.066 33.7036 635.19 33.2637 635.19 32.7988C635.19 32.3395 635.071 31.9051 634.833 31.4956C634.596 31.0806 634.266 30.7485 633.846 30.4995C633.431 30.2505 632.966 30.126 632.451 30.126ZM639.474 41.0996C639.28 41.0996 639.1 41.0498 638.934 40.9502C638.774 40.8506 638.644 40.7205 638.544 40.5601C638.45 40.394 638.406 40.2142 638.411 40.0205C638.406 39.8324 638.45 39.6553 638.544 39.4893C638.644 39.3232 638.774 39.1932 638.934 39.0991C639.1 39.005 639.28 38.958 639.474 38.958C639.667 38.958 639.844 39.005 640.005 39.0991C640.171 39.1932 640.301 39.3232 640.395 39.4893C640.489 39.6553 640.536 39.8324 640.536 40.0205C640.536 40.2142 640.489 40.394 640.395 40.5601C640.301 40.7205 640.171 40.8506 640.005 40.9502C639.844 41.0498 639.667 41.0996 639.474 41.0996ZM651.244 41H649.733V30.541H649.667L646.745 32.4834V30.9727L649.733 28.9805H651.244V41ZM654.764 41.0996C654.57 41.0996 654.39 41.0498 654.224 40.9502C654.064 40.8506 653.934 40.7205 653.834 40.5601C653.74 40.394 653.696 40.2142 653.701 40.0205C653.696 39.8324 653.74 39.6553 653.834 39.4893C653.934 39.3232 654.064 39.1932 654.224 39.0991C654.39 39.005 654.57 38.958 654.764 38.958C654.957 38.958 655.134 39.005 655.295 39.0991C655.461 39.1932 655.591 39.3232 655.685 39.4893C655.779 39.6553 655.826 39.8324 655.826 40.0205C655.826 40.2142 655.779 40.394 655.685 40.5601C655.591 40.7205 655.461 40.8506 655.295 40.9502C655.134 41.0498 654.957 41.0996 654.764 41.0996ZM666.534 41H665.023V30.541H664.957L662.035 32.4834V30.9727L665.023 28.9805H666.534V41ZM670.054 41.0996C669.86 41.0996 669.68 41.0498 669.514 40.9502C669.354 40.8506 669.224 40.7205 669.124 40.5601C669.03 40.394 668.986 40.2142 668.991 40.0205C668.986 39.8324 669.03 39.6553 669.124 39.4893C669.224 39.3232 669.354 39.1932 669.514 39.0991C669.68 39.005 669.86 38.958 670.054 38.958C670.247 38.958 670.424 39.005 670.585 39.0991C670.751 39.1932 670.881 39.3232 670.975 39.4893C671.069 39.6553 671.116 39.8324 671.116 40.0205C671.116 40.2142 671.069 40.394 670.975 40.5601C670.881 40.7205 670.751 40.8506 670.585 40.9502C670.424 41.0498 670.247 41.0996 670.054 41.0996ZM690.54 37.4141H677.026V36.3516H690.54V37.4141ZM684.381 42.3447H683.103V36.8164H684.381V42.3447ZM680.048 30.2422H687.485V28.2002H688.797V34.5586H678.753V28.2002H680.048V30.2422ZM687.485 33.4961V31.3047H680.048V33.4961H687.485ZM703.971 42.3779H702.676V27.5859H703.971V42.3779ZM702.892 34.2432H699.555V33.1641H702.892V34.2432ZM693.545 37.7295C695.072 37.724 696.32 37.6935 697.289 37.6382C698.257 37.5773 699.228 37.4583 700.202 37.2812L700.352 38.3604C699.3 38.5319 698.268 38.6509 697.255 38.7173C696.248 38.7782 695.011 38.8086 693.545 38.8086H692.416V37.7295H693.545ZM699.306 30.0264H693.728V38.0947H692.416V28.9473H699.306V30.0264ZM698.658 34.1602H693.379V33.0977H698.658V34.1602ZM722.232 35.9697H720.938V27.5859H722.232V35.9697ZM724.457 32.2842H721.867V31.2051H724.457V32.2842ZM718.198 28.5488C718.193 29.7773 717.913 30.8896 717.36 31.8857C716.812 32.8818 716.015 33.7368 714.969 34.4507C713.923 35.1646 712.67 35.7207 711.209 36.1191L710.678 35.0732C711.967 34.7246 713.068 34.2598 713.981 33.6787C714.9 33.0921 715.603 32.4115 716.09 31.6367C716.577 30.862 716.82 30.0208 716.82 29.1133V28.5488H718.198ZM717.534 29.6279H711.342V28.5488H717.534V29.6279ZM722.232 42.1455H712.886V36.6504H722.232V42.1455ZM714.181 41.083H720.938V37.7295H714.181V41.083ZM736.543 31.4043H732.509V30.3584H736.543V31.4043ZM736.443 34.4756H732.393V33.3965H736.443V34.4756ZM737.622 36.4678H736.311V27.6025H737.622V36.4678ZM733.057 28.6982C733.051 29.9434 732.769 31.075 732.21 32.0933C731.657 33.106 730.862 33.9775 729.828 34.708C728.798 35.4329 727.567 36.0085 726.134 36.4346L725.586 35.4053C726.853 35.029 727.941 34.5392 728.848 33.936C729.761 33.3328 730.458 32.6383 730.94 31.8525C731.421 31.0612 731.662 30.2035 731.662 29.2793V28.6982H733.057ZM732.542 29.7939H726.333V28.6982H732.542V29.7939ZM732.791 36.6172C733.782 36.6172 734.648 36.7306 735.389 36.9575C736.136 37.1844 736.709 37.5109 737.107 37.937C737.506 38.3576 737.705 38.8584 737.705 39.4395C737.705 40.0205 737.506 40.5269 737.107 40.9585C736.709 41.3846 736.136 41.7111 735.389 41.938C734.648 42.1649 733.782 42.2783 732.791 42.2783C731.789 42.2783 730.915 42.1649 730.168 41.938C729.426 41.7111 728.856 41.3846 728.458 40.9585C728.06 40.5269 727.86 40.0205 727.86 39.4395C727.86 38.8584 728.06 38.3576 728.458 37.937C728.856 37.5109 729.426 37.1844 730.168 36.9575C730.915 36.7306 731.789 36.6172 732.791 36.6172ZM732.791 37.6631C732.055 37.6631 731.41 37.7323 730.857 37.8706C730.309 38.009 729.886 38.2137 729.587 38.4849C729.288 38.756 729.139 39.0742 729.139 39.4395C729.139 39.8047 729.288 40.1201 729.587 40.3857C729.886 40.6514 730.309 40.8561 730.857 41C731.41 41.1439 732.055 41.2158 732.791 41.2158C733.516 41.2158 734.15 41.1439 734.692 41C735.24 40.8561 735.663 40.6514 735.962 40.3857C736.261 40.1201 736.41 39.8047 736.41 39.4395C736.41 39.0742 736.261 38.756 735.962 38.4849C735.663 38.2137 735.24 38.009 734.692 37.8706C734.15 37.7323 733.516 37.6631 732.791 37.6631ZM749.376 31.5537C749.376 32.6494 749.188 33.7119 748.812 34.7412C748.435 35.7705 747.921 36.6836 747.268 37.4805C746.615 38.2718 745.89 38.8695 745.093 39.2734L744.263 38.1777C744.993 37.8457 745.666 37.3338 746.28 36.6421C746.894 35.9504 747.381 35.159 747.741 34.2681C748.106 33.3716 748.291 32.4668 748.297 31.5537V28.8643H749.376V31.5537ZM749.592 31.5537C749.592 32.4281 749.772 33.2941 750.131 34.1519C750.491 35.0096 750.975 35.776 751.584 36.4512C752.198 37.1208 752.868 37.6188 753.593 37.9453L752.796 38.9746C751.999 38.5872 751.274 38.0145 750.621 37.2563C749.968 36.4982 749.451 35.6239 749.069 34.6333C748.687 33.6427 748.496 32.6162 748.496 31.5537V28.8643H749.592V31.5537ZM756.515 42.3779H755.203V27.5859H756.515V42.3779ZM771.572 36.9326H770.327V27.5859H771.572V36.9326ZM770.692 32.6992H767.837V31.6201H770.692V32.6992ZM768.352 36.4014H767.123V27.8848H768.352V36.4014ZM766.525 30.4082H758.955V29.3623H766.525V30.4082ZM762.757 31.2051C763.377 31.2051 763.927 31.3075 764.409 31.5122C764.89 31.717 765.264 32.0103 765.529 32.3921C765.795 32.7739 765.928 33.2194 765.928 33.7285C765.928 34.2266 765.795 34.6637 765.529 35.04C765.264 35.4163 764.89 35.7096 764.409 35.9199C763.927 36.1302 763.377 36.2354 762.757 36.2354C762.143 36.2354 761.595 36.1302 761.113 35.9199C760.637 35.7096 760.267 35.4163 760.001 35.04C759.735 34.6637 759.603 34.2266 759.603 33.7285C759.603 33.2194 759.735 32.7739 760.001 32.3921C760.267 32.0103 760.637 31.717 761.113 31.5122C761.595 31.3075 762.143 31.2051 762.757 31.2051ZM762.757 32.168C762.369 32.168 762.026 32.2316 761.728 32.3589C761.429 32.4862 761.194 32.6688 761.022 32.9067C760.85 33.1447 760.765 33.4186 760.765 33.7285C760.765 34.0273 760.85 34.293 761.022 34.5254C761.194 34.7578 761.429 34.9377 761.728 35.0649C762.026 35.1922 762.369 35.2559 762.757 35.2559C763.144 35.2559 763.49 35.1922 763.794 35.0649C764.099 34.9377 764.334 34.7578 764.5 34.5254C764.666 34.293 764.749 34.0273 764.749 33.7285C764.749 33.4186 764.666 33.1447 764.5 32.9067C764.334 32.6688 764.099 32.4862 763.794 32.3589C763.49 32.2316 763.144 32.168 762.757 32.168ZM763.404 29.96H762.109V27.7021H763.404V29.96ZM766.691 37.1816C767.726 37.1816 768.614 37.2812 769.356 37.4805C770.103 37.6797 770.673 37.9757 771.066 38.3687C771.459 38.756 771.655 39.2236 771.655 39.7715C771.655 40.3083 771.459 40.7648 771.066 41.1411C770.673 41.5229 770.103 41.8135 769.356 42.0127C768.609 42.2119 767.721 42.3115 766.691 42.3115C765.657 42.3115 764.766 42.2119 764.019 42.0127C763.277 41.8135 762.71 41.5229 762.317 41.1411C761.93 40.7648 761.739 40.3083 761.744 39.7715C761.739 39.2236 761.93 38.756 762.317 38.3687C762.71 37.9757 763.277 37.6797 764.019 37.4805C764.766 37.2812 765.657 37.1816 766.691 37.1816ZM766.691 38.2109C765.928 38.2054 765.272 38.2635 764.724 38.3853C764.176 38.5015 763.756 38.6785 763.462 38.9165C763.175 39.1545 763.034 39.4395 763.039 39.7715C763.034 40.0869 763.175 40.3608 763.462 40.5933C763.756 40.8201 764.176 40.9945 764.724 41.1162C765.278 41.238 765.933 41.2988 766.691 41.2988C767.45 41.2988 768.103 41.238 768.65 41.1162C769.204 40.9945 769.624 40.8201 769.912 40.5933C770.205 40.3608 770.355 40.0869 770.36 39.7715C770.355 39.4339 770.205 39.1489 769.912 38.9165C769.624 38.6785 769.207 38.5015 768.659 38.3853C768.111 38.2635 767.455 38.2054 766.691 38.2109ZM783.177 36.418C783.182 34.8796 783.387 33.4518 783.791 32.1348C784.195 30.8177 784.787 29.5947 785.567 28.4658H786.829C786.453 29.0192 786.099 29.7331 785.767 30.6074C785.435 31.4818 785.166 32.4308 784.961 33.4546C784.757 34.4784 784.654 35.4661 784.654 36.418C784.654 37.3698 784.757 38.3548 784.961 39.373C785.166 40.3913 785.435 41.3403 785.767 42.2202C786.099 43.1056 786.453 43.8278 786.829 44.3867H785.567C784.787 43.2523 784.195 42.0265 783.791 40.7095C783.387 39.3924 783.182 37.9619 783.177 36.418ZM801.87 34.5752H799.147V33.4795H801.87V34.5752ZM799.479 42.3447H798.185V27.5859H799.479V42.3447ZM789.967 38.1777H788.672V29.0469H789.967V38.1777ZM789.851 37.4971C791.018 37.5026 792.167 37.4528 793.295 37.3477C794.424 37.2425 795.578 37.0654 796.757 36.8164L796.923 37.9287C795.722 38.1722 794.546 38.3438 793.395 38.4434C792.244 38.543 791.062 38.5928 789.851 38.5928H788.672V37.4971H789.851ZM805.821 32.1348C806.225 33.4518 806.43 34.8796 806.436 36.418C806.43 37.9619 806.225 39.3924 805.821 40.7095C805.417 42.0265 804.825 43.2523 804.045 44.3867H802.783C803.16 43.8278 803.514 43.1056 803.846 42.2202C804.178 41.3403 804.446 40.3913 804.651 39.373C804.856 38.3548 804.958 37.3698 804.958 36.418C804.958 35.4661 804.856 34.4784 804.651 33.4546C804.446 32.4308 804.178 31.4818 803.846 30.6074C803.514 29.7331 803.16 29.0192 802.783 28.4658H804.045C804.825 29.5947 805.417 30.8177 805.821 32.1348ZM815.998 35.7207H809.175V28.9307H815.998V35.7207ZM810.453 34.6748H814.736V29.9932H810.453V34.6748ZM820.082 38.4102H818.787V27.5859H820.082V38.4102ZM822.307 33.1807H819.667V32.085H822.307V33.1807ZM820.763 42.0293H810.852V40.9336H820.763V42.0293ZM812.13 41.3818H810.852V37.3809H812.13V41.3818ZM828.084 29.96C828.084 30.9007 827.912 31.7778 827.569 32.5913C827.226 33.4048 826.742 34.1104 826.117 34.708C825.491 35.3057 824.764 35.7594 823.934 36.0693L823.22 35.0068C823.972 34.7412 824.636 34.3566 825.212 33.853C825.787 33.3494 826.23 32.7629 826.54 32.0933C826.855 31.4237 827.016 30.7126 827.021 29.96V28.4326H828.084V29.96ZM828.316 29.9102C828.311 30.6019 828.46 31.2604 828.765 31.8857C829.075 32.5055 829.506 33.0534 830.06 33.5293C830.613 34.0052 831.249 34.3649 831.969 34.6084L831.238 35.6211C830.447 35.3223 829.75 34.8934 829.146 34.3345C828.549 33.7756 828.081 33.1198 827.744 32.3672C827.406 31.609 827.237 30.79 827.237 29.9102V28.4326H828.316V29.9102ZM835.472 36.335H834.16V27.5859H835.472V36.335ZM830.574 36.7666C831.592 36.7666 832.472 36.8745 833.214 37.0903C833.955 37.3062 834.525 37.6243 834.924 38.0449C835.322 38.4655 835.521 38.9691 835.521 39.5557C835.521 40.1367 835.322 40.632 834.924 41.0415C834.525 41.4565 833.955 41.772 833.214 41.9878C832.472 42.2036 831.592 42.3115 830.574 42.3115C829.55 42.3115 828.668 42.2036 827.926 41.9878C827.19 41.772 826.623 41.4565 826.225 41.0415C825.826 40.632 825.627 40.1367 825.627 39.5557C825.627 38.9691 825.826 38.4655 826.225 38.0449C826.623 37.6243 827.19 37.3062 827.926 37.0903C828.668 36.8745 829.55 36.7666 830.574 36.7666ZM830.574 37.7959C829.822 37.7959 829.171 37.8651 828.624 38.0034C828.076 38.1418 827.655 38.3438 827.362 38.6094C827.069 38.875 826.922 39.1904 826.922 39.5557C826.922 39.9098 827.069 40.2142 827.362 40.4688C827.655 40.7233 828.076 40.9198 828.624 41.0581C829.171 41.1965 829.822 41.2656 830.574 41.2656C831.321 41.2656 831.969 41.1965 832.517 41.0581C833.07 40.9198 833.493 40.7233 833.787 40.4688C834.08 40.2142 834.227 39.9098 834.227 39.5557C834.227 39.1904 834.08 38.875 833.787 38.6094C833.493 38.3438 833.07 38.1418 832.517 38.0034C831.969 37.8651 831.321 37.7959 830.574 37.7959ZM834.442 31.8359H830.873V30.7568H834.442V31.8359ZM850.098 35.2559H848.819V27.5859H850.098V35.2559ZM850.114 39.4893H841.83V41.6143H840.552V38.5098H848.819V36.999H840.519V35.9697H850.114V39.4893ZM850.646 42.1787H840.552V41.1328H850.646V42.1787ZM842.992 29.6777C842.992 30.5355 842.815 31.3379 842.461 32.085C842.107 32.8265 841.609 33.474 840.967 34.0273C840.325 34.5752 839.589 34.9902 838.759 35.2725L838.145 34.2432C838.875 33.9997 839.528 33.6455 840.104 33.1807C840.679 32.7158 841.127 32.1818 841.448 31.5786C841.769 30.9754 841.93 30.3418 841.93 29.6777V28.8809H842.992V29.6777ZM843.241 29.6777C843.241 30.3086 843.404 30.909 843.731 31.479C844.057 32.049 844.506 32.5498 845.076 32.9814C845.651 33.4076 846.307 33.7285 847.043 33.9443L846.396 34.957C845.571 34.6969 844.84 34.3096 844.204 33.7949C843.573 33.2747 843.078 32.6632 842.718 31.9604C842.364 31.2521 842.19 30.4912 842.195 29.6777V28.8809H843.241V29.6777ZM846.645 29.5117H838.477V28.4326H846.645V29.5117ZM864.143 39.1406H862.831V27.5859H864.143V39.1406ZM866.351 33.8613H863.595V32.7656H866.351V33.8613ZM864.674 42.0293H854.763V40.9336H864.674V42.0293ZM856.074 41.2822H854.763V38.3604H856.074V41.2822ZM857.851 36.8164H856.556V34.8076H857.851V36.8164ZM852.555 36.3682C854.359 36.3626 856.03 36.3267 857.568 36.2603C859.112 36.1883 860.562 36.0472 861.918 35.8369L862.034 36.7666C860.712 37.0156 859.334 37.1844 857.9 37.2729C856.473 37.356 854.879 37.4085 853.119 37.4307C853.025 37.4307 852.956 37.4307 852.912 37.4307C852.867 37.4307 852.798 37.4307 852.704 37.4307L852.555 36.3682ZM861.47 30.0264H852.92V29.0469H861.47V30.0264ZM857.187 30.6738C857.878 30.6738 858.484 30.7624 859.004 30.9395C859.53 31.1165 859.934 31.3794 860.216 31.728C860.504 32.0711 860.651 32.4779 860.656 32.9482C860.651 33.4076 860.504 33.8088 860.216 34.1519C859.934 34.4894 859.53 34.7495 859.004 34.9321C858.484 35.1147 857.878 35.2061 857.187 35.2061C856.495 35.2061 855.889 35.112 855.369 34.9238C854.854 34.7357 854.453 34.4756 854.165 34.1436C853.877 33.806 853.733 33.4076 853.733 32.9482C853.733 32.4834 853.877 32.0767 854.165 31.728C854.453 31.3794 854.854 31.1165 855.369 30.9395C855.889 30.7624 856.495 30.6738 857.187 30.6738ZM857.187 31.6035C856.738 31.6035 856.345 31.6561 856.008 31.7612C855.676 31.8664 855.421 32.0213 855.244 32.2261C855.067 32.4308 854.979 32.6715 854.979 32.9482C854.979 33.2139 855.067 33.4463 855.244 33.6455C855.421 33.8447 855.676 33.9997 856.008 34.1104C856.345 34.221 856.738 34.2764 857.187 34.2764C857.635 34.2764 858.025 34.221 858.357 34.1104C858.694 33.9997 858.955 33.8447 859.137 33.6455C859.32 33.4463 859.411 33.2139 859.411 32.9482C859.411 32.6715 859.323 32.4308 859.146 32.2261C858.968 32.0213 858.708 31.8664 858.365 31.7612C858.028 31.6561 857.635 31.6035 857.187 31.6035ZM857.851 29.5117H856.556V27.5527H857.851V29.5117ZM872.062 32.1182C872.062 33.1198 871.873 34.1159 871.497 35.1064C871.121 36.0915 870.609 36.9741 869.961 37.7544C869.314 38.5347 868.614 39.1185 867.861 39.5059L867.064 38.4766C867.767 38.1335 868.42 37.6188 869.023 36.9326C869.632 36.2464 870.116 35.4772 870.476 34.625C870.841 33.7728 871.027 32.9372 871.032 32.1182V29.6777H872.062V32.1182ZM872.311 32.1182C872.305 32.8929 872.471 33.6787 872.809 34.4756C873.152 35.2725 873.617 35.9946 874.203 36.6421C874.79 37.284 875.437 37.7738 876.146 38.1113L875.398 39.1406C874.629 38.7643 873.929 38.2082 873.298 37.4722C872.673 36.7362 872.178 35.9006 871.812 34.9653C871.447 34.0246 871.265 33.0755 871.265 32.1182V29.6777H872.311V32.1182ZM875.631 30.1924H867.596V29.1133H875.631V30.1924ZM878.735 42.3447H877.44V27.5859H878.735V42.3447ZM881.209 34.6748H878.437V33.5625H881.209V34.6748ZM894.175 42.3779H892.863V27.5859H894.175V42.3779ZM886.322 28.7314C887.053 28.7314 887.703 28.9417 888.273 29.3623C888.843 29.7829 889.288 30.3833 889.609 31.1636C889.93 31.9438 890.091 32.8486 890.091 33.8779C890.091 34.9072 889.93 35.8092 889.609 36.584C889.288 37.3587 888.843 37.9564 888.273 38.377C887.703 38.7975 887.053 39.0078 886.322 39.0078C885.592 39.0078 884.942 38.7975 884.372 38.377C883.802 37.9564 883.356 37.3587 883.035 36.584C882.714 35.8092 882.554 34.9072 882.554 33.8779C882.554 32.8486 882.714 31.9438 883.035 31.1636C883.356 30.3833 883.802 29.7829 884.372 29.3623C884.942 28.9417 885.592 28.7314 886.322 28.7314ZM886.322 29.8936C885.835 29.8936 885.401 30.0596 885.019 30.3916C884.637 30.7236 884.341 31.1912 884.131 31.7944C883.921 32.3976 883.815 33.0921 883.815 33.8779C883.815 34.6693 883.921 35.3665 884.131 35.9697C884.341 36.5674 884.637 37.0295 885.019 37.356C885.401 37.6825 885.835 37.8457 886.322 37.8457C886.815 37.8457 887.249 37.6825 887.625 37.356C888.007 37.0295 888.303 36.5674 888.514 35.9697C888.724 35.3665 888.829 34.6693 888.829 33.8779C888.829 33.0866 888.724 32.3921 888.514 31.7944C888.303 31.1912 888.007 30.7236 887.625 30.3916C887.249 30.0596 886.815 29.8936 886.322 29.8936ZM908.021 31.2881H903.837V30.1924H908.021V31.2881ZM908.054 34.4424H903.837V33.3633H908.054V34.4424ZM904.169 35.7705H897.396V28.8809H904.169V35.7705ZM898.69 34.7246H902.891V29.96H898.69V34.7246ZM908.934 38.377H907.622V27.6025H908.934V38.377ZM909.266 42.0293H899.388V40.9336H909.266V42.0293ZM900.699 41.415H899.388V37.4141H900.699V41.415ZM922.979 33.6953H918.828V32.6328H922.979V33.6953ZM916.338 31.5537C916.332 32.6217 916.15 33.6676 915.79 34.6914C915.436 35.7096 914.946 36.6172 914.321 37.4141C913.695 38.2109 912.995 38.8141 912.221 39.2236L911.374 38.1777C912.088 37.8291 912.741 37.3062 913.333 36.6089C913.931 35.9061 914.401 35.112 914.744 34.2266C915.087 33.3356 915.259 32.4447 915.259 31.5537V28.8643H916.338V31.5537ZM916.587 31.5537C916.587 32.4281 916.758 33.2913 917.102 34.1436C917.445 34.9958 917.91 35.7539 918.496 36.418C919.083 37.0765 919.73 37.569 920.438 37.8955L919.658 38.958C918.872 38.554 918.167 37.973 917.542 37.2148C916.916 36.4512 916.424 35.5796 916.064 34.6001C915.704 33.6151 915.524 32.5996 915.524 31.5537V28.8643H916.587V31.5537ZM923.626 42.3779H922.331V27.5859H923.626V42.3779ZM935.048 32.4004C935.042 33.4131 934.862 34.3926 934.508 35.3389C934.16 36.2796 933.675 37.1125 933.056 37.8374C932.436 38.5623 931.739 39.113 930.964 39.4893L930.217 38.4766C930.931 38.1445 931.575 37.6603 932.151 37.0239C932.732 36.3875 933.186 35.6681 933.512 34.8657C933.839 34.0578 934.002 33.236 934.002 32.4004V31.0723H935.048V32.4004ZM935.264 32.4004C935.264 33.1807 935.424 33.9526 935.745 34.7163C936.066 35.4744 936.503 36.1634 937.057 36.7832C937.616 37.3975 938.246 37.8734 938.949 38.2109L938.186 39.2236C937.422 38.8473 936.744 38.3078 936.152 37.605C935.56 36.9022 935.095 36.0998 934.757 35.1978C934.42 34.2902 934.251 33.3577 934.251 32.4004V31.0723H935.264V32.4004ZM938.617 31.2217H930.615V30.1592H938.617V31.2217ZM935.297 30.7568H933.985V27.8682H935.297V30.7568ZM941.771 42.3447H940.477V27.5859H941.771V42.3447ZM944.245 34.7578H941.473V33.6455H944.245V34.7578ZM949.773 29.877C949.773 30.8122 949.605 31.6893 949.267 32.5083C948.93 33.3218 948.451 34.0301 947.831 34.6333C947.217 35.231 946.503 35.6875 945.689 36.0029L944.992 34.957C945.723 34.6859 946.367 34.2957 946.926 33.7866C947.485 33.272 947.92 32.6799 948.229 32.0103C948.539 31.3407 948.694 30.6296 948.694 29.877V28.3496H949.773V29.877ZM949.973 29.9766C949.973 30.6351 950.13 31.2715 950.446 31.8857C950.761 32.4945 951.196 33.0312 951.749 33.4961C952.302 33.9609 952.933 34.3151 953.642 34.5586L952.928 35.5879C952.142 35.3001 951.447 34.8768 950.844 34.3179C950.241 33.759 949.768 33.106 949.425 32.3589C949.082 31.6118 948.91 30.8177 948.91 29.9766V28.3496H949.973V29.9766ZM956.58 36.5674H955.285V27.5859H956.58V36.5674ZM958.805 32.5332H956.215V31.4375H958.805V32.5332ZM951.849 36.9492C952.856 36.9492 953.725 37.0544 954.455 37.2646C955.186 37.4749 955.744 37.7821 956.132 38.186C956.519 38.5845 956.713 39.0632 956.713 39.6221C956.713 40.1921 956.519 40.6763 956.132 41.0747C955.744 41.4787 955.186 41.7858 954.455 41.9961C953.725 42.2064 952.856 42.3115 951.849 42.3115C950.836 42.3115 949.962 42.2064 949.226 41.9961C948.495 41.7858 947.933 41.4787 947.541 41.0747C947.148 40.6707 946.951 40.1865 946.951 39.6221C946.951 39.0632 947.148 38.5845 947.541 38.186C947.933 37.7821 948.498 37.4749 949.234 37.2646C949.97 37.0544 950.841 36.9492 951.849 36.9492ZM951.849 37.9951C951.113 37.9951 950.473 38.0615 949.931 38.1943C949.394 38.3271 948.979 38.5153 948.686 38.7588C948.398 39.0023 948.257 39.29 948.263 39.6221C948.257 39.9652 948.398 40.2612 948.686 40.5103C948.979 40.7593 949.394 40.9502 949.931 41.083C950.468 41.2158 951.107 41.2822 951.849 41.2822C952.59 41.2822 953.232 41.2158 953.774 41.083C954.317 40.9502 954.732 40.7593 955.02 40.5103C955.307 40.2612 955.451 39.9652 955.451 39.6221C955.451 39.29 955.307 38.9995 955.02 38.7505C954.732 38.5015 954.314 38.3133 953.766 38.186C953.224 38.0588 952.585 37.9951 951.849 37.9951ZM964.599 28.3164C965.329 28.3109 965.982 28.4354 966.558 28.6899C967.133 28.939 967.581 29.2931 967.902 29.7524C968.223 30.2062 968.384 30.7292 968.384 31.3213C968.384 31.9134 968.223 32.4391 967.902 32.8984C967.581 33.3522 967.133 33.7064 966.558 33.9609C965.982 34.2155 965.329 34.3428 964.599 34.3428C963.868 34.3428 963.218 34.2155 962.648 33.9609C962.078 33.7064 961.63 33.3522 961.303 32.8984C960.977 32.4391 960.813 31.9134 960.813 31.3213C960.813 30.7292 960.977 30.2062 961.303 29.7524C961.63 29.2931 962.078 28.939 962.648 28.6899C963.218 28.4354 963.868 28.3109 964.599 28.3164ZM964.599 29.3789C964.117 29.3734 963.683 29.4536 963.295 29.6196C962.914 29.7801 962.615 30.0098 962.399 30.3086C962.189 30.6074 962.086 30.945 962.092 31.3213C962.086 31.6976 962.189 32.0324 962.399 32.3257C962.615 32.619 962.914 32.8486 963.295 33.0146C963.677 33.1807 964.112 33.2637 964.599 33.2637C965.091 33.2637 965.528 33.1807 965.91 33.0146C966.298 32.8486 966.599 32.6217 966.815 32.334C967.031 32.0407 967.139 31.7031 967.139 31.3213C967.139 30.945 967.031 30.6074 966.815 30.3086C966.599 30.0098 966.298 29.7801 965.91 29.6196C965.523 29.4536 965.086 29.3734 964.599 29.3789ZM965.329 41.8965H964.034V36.0029H965.329V41.8965ZM971.903 42.3613H970.625V27.6025H971.903V42.3613ZM959.701 35.6045C961.466 35.61 963.182 35.5768 964.848 35.5049C966.513 35.4329 968.079 35.2891 969.546 35.0732L969.629 36.0527C968.649 36.2354 967.631 36.3737 966.574 36.4678C965.523 36.5563 964.51 36.62 963.536 36.6587C962.568 36.6919 961.527 36.7113 960.415 36.7168C960.293 36.7168 960.202 36.7168 960.141 36.7168C960.086 36.7168 960 36.7168 959.884 36.7168L959.701 35.6045ZM980.254 41.0996C980.06 41.0996 979.88 41.0498 979.714 40.9502C979.554 40.8506 979.424 40.7205 979.324 40.5601C979.23 40.394 979.186 40.2142 979.191 40.0205C979.186 39.8324 979.23 39.6553 979.324 39.4893C979.424 39.3232 979.554 39.1932 979.714 39.0991C979.88 39.005 980.06 38.958 980.254 38.958C980.448 38.958 980.625 39.005 980.785 39.0991C980.951 39.1932 981.081 39.3232 981.175 39.4893C981.269 39.6553 981.316 39.8324 981.316 40.0205C981.316 40.2142 981.269 40.394 981.175 40.5601C981.081 40.7205 980.951 40.8506 980.785 40.9502C980.625 41.0498 980.448 41.0996 980.254 41.0996ZM980.254 34.4258C980.06 34.4258 979.88 34.376 979.714 34.2764C979.554 34.1768 979.424 34.0467 979.324 33.8862C979.23 33.7202 979.186 33.5404 979.191 33.3467C979.186 33.1585 979.23 32.9814 979.324 32.8154C979.424 32.6494 979.554 32.5194 979.714 32.4253C979.88 32.3312 980.06 32.2842 980.254 32.2842C980.448 32.2842 980.625 32.3312 980.785 32.4253C980.951 32.5194 981.081 32.6494 981.175 32.8154C981.269 32.9814 981.316 33.1585 981.316 33.3467C981.316 33.5404 981.269 33.7202 981.175 33.8862C981.081 34.0467 980.951 34.1768 980.785 34.2764C980.625 34.376 980.448 34.4258 980.254 34.4258ZM987.791 39.9043L991.892 35.5879C992.428 35.0124 992.838 34.5475 993.12 34.1934C993.408 33.8392 993.626 33.5016 993.776 33.1807C993.925 32.8542 994 32.5111 994 32.1514C994 31.7474 993.895 31.3932 993.685 31.0889C993.474 30.779 993.187 30.5382 992.821 30.3667C992.462 30.1951 992.058 30.1094 991.609 30.1094C991.139 30.1094 990.727 30.2035 990.373 30.3916C990.024 30.5798 989.753 30.8454 989.559 31.1885C989.365 31.526 989.269 31.9189 989.269 32.3672H987.857C987.852 31.6699 988.012 31.0529 988.339 30.5161C988.671 29.9793 989.127 29.5615 989.708 29.2627C990.29 28.9639 990.94 28.8145 991.659 28.8145C992.373 28.8145 993.012 28.9611 993.577 29.2544C994.147 29.5477 994.592 29.9489 994.913 30.458C995.234 30.9671 995.395 31.5316 995.395 32.1514C995.389 32.6107 995.303 33.0506 995.137 33.4712C994.977 33.8862 994.7 34.3483 994.307 34.8574C993.914 35.3665 993.358 35.9919 992.639 36.7334L989.883 39.5723V39.6719H995.61V41H987.808L987.791 39.9043ZM1001.72 41.166C1000.83 41.166 1000.08 40.9253 999.454 40.4438C998.828 39.9624 998.35 39.2596 998.018 38.3354C997.686 37.4113 997.52 36.2962 997.52 34.9902C997.52 33.7008 997.686 32.5941 998.018 31.6699C998.35 30.7402 998.828 30.0319 999.454 29.5449C1000.08 29.0579 1000.84 28.8145 1001.72 28.8145C1002.59 28.8145 1003.35 29.0579 1003.98 29.5449C1004.61 30.0319 1005.09 30.7402 1005.42 31.6699C1005.75 32.5941 1005.92 33.7008 1005.92 34.9902C1005.92 36.2962 1005.76 37.4113 1005.43 38.3354C1005.1 39.2596 1004.62 39.9624 1003.99 40.4438C1003.36 40.9253 1002.61 41.166 1001.72 41.166ZM1001.72 39.8379C1002.3 39.8379 1002.79 39.6497 1003.21 39.2734C1003.62 38.8971 1003.93 38.3465 1004.14 37.6216C1004.35 36.8966 1004.46 36.0195 1004.46 34.9902C1004.46 33.9609 1004.35 33.0811 1004.14 32.3506C1003.92 31.6201 1003.61 31.064 1003.2 30.6821C1002.79 30.3003 1002.3 30.1094 1001.72 30.1094C1001.14 30.1094 1000.65 30.3003 1000.24 30.6821C999.833 31.064 999.517 31.6201 999.296 32.3506C999.075 33.0811 998.964 33.9609 998.964 34.9902C998.964 36.0195 999.075 36.8966 999.296 37.6216C999.517 38.3465 999.83 38.8971 1000.23 39.2734C1000.64 39.6497 1001.14 39.8379 1001.72 39.8379ZM1011.85 41.166C1010.96 41.166 1010.21 40.9253 1009.58 40.4438C1008.96 39.9624 1008.48 39.2596 1008.14 38.3354C1007.81 37.4113 1007.65 36.2962 1007.65 34.9902C1007.65 33.7008 1007.81 32.5941 1008.14 31.6699C1008.48 30.7402 1008.96 30.0319 1009.58 29.5449C1010.21 29.0579 1010.97 28.8145 1011.85 28.8145C1012.72 28.8145 1013.47 29.0579 1014.1 29.5449C1014.74 30.0319 1015.22 30.7402 1015.55 31.6699C1015.88 32.5941 1016.05 33.7008 1016.05 34.9902C1016.05 36.2962 1015.88 37.4113 1015.56 38.3354C1015.23 39.2596 1014.75 39.9624 1014.12 40.4438C1013.49 40.9253 1012.73 41.166 1011.85 41.166ZM1011.85 39.8379C1012.42 39.8379 1012.92 39.6497 1013.33 39.2734C1013.75 38.8971 1014.06 38.3465 1014.27 37.6216C1014.48 36.8966 1014.59 36.0195 1014.59 34.9902C1014.59 33.9609 1014.48 33.0811 1014.26 32.3506C1014.05 31.6201 1013.73 31.064 1013.32 30.6821C1012.91 30.3003 1012.42 30.1094 1011.85 30.1094C1011.27 30.1094 1010.78 30.3003 1010.37 30.6821C1009.96 31.064 1009.64 31.6201 1009.42 32.3506C1009.2 33.0811 1009.09 33.9609 1009.09 34.9902C1009.09 36.0195 1009.2 36.8966 1009.42 37.6216C1009.64 38.3465 1009.96 38.8971 1010.36 39.2734C1010.77 39.6497 1011.27 39.8379 1011.85 39.8379ZM1022.04 28.8145C1022.8 28.8255 1023.51 29.0081 1024.17 29.3623C1024.83 29.7165 1025.37 30.3169 1025.78 31.1636C1026.2 32.0047 1026.41 33.1198 1026.41 34.5088C1026.41 35.9144 1026.22 37.1152 1025.86 38.1113C1025.49 39.1074 1024.97 39.8656 1024.28 40.3857C1023.6 40.9059 1022.78 41.166 1021.84 41.166C1021.14 41.166 1020.52 41.0304 1019.96 40.7593C1019.41 40.4881 1018.96 40.1146 1018.61 39.6387C1018.26 39.1572 1018.04 38.5983 1017.94 37.9619H1019.42C1019.51 38.3327 1019.66 38.6592 1019.87 38.9414C1020.09 39.2181 1020.36 39.4367 1020.7 39.5972C1021.03 39.7576 1021.41 39.8379 1021.84 39.8379C1022.49 39.8379 1023.06 39.6553 1023.53 39.29C1024.01 38.9248 1024.37 38.3991 1024.62 37.7129C1024.88 37.0212 1025.01 36.1911 1025.01 35.2227H1024.85C1024.61 35.5547 1024.34 35.8397 1024.02 36.0776C1023.71 36.3156 1023.36 36.4982 1022.98 36.6255C1022.6 36.7528 1022.19 36.8164 1021.77 36.8164C1021.06 36.8164 1020.4 36.6449 1019.8 36.3018C1019.2 35.9587 1018.73 35.4855 1018.37 34.8823C1018.02 34.2791 1017.84 33.6012 1017.84 32.8486C1017.84 32.1016 1018.01 31.4209 1018.36 30.8066C1018.71 30.1868 1019.2 29.6999 1019.84 29.3457C1020.48 28.986 1021.21 28.8089 1022.04 28.8145ZM1022.04 30.126C1021.53 30.126 1021.06 30.2477 1020.64 30.4912C1020.22 30.7347 1019.89 31.064 1019.65 31.479C1019.41 31.894 1019.3 32.3451 1019.3 32.832C1019.3 33.3245 1019.42 33.7756 1019.65 34.1851C1019.88 34.589 1020.2 34.91 1020.6 35.1479C1021.01 35.3859 1021.48 35.5049 1021.99 35.5049C1022.5 35.5049 1022.97 35.3776 1023.39 35.123C1023.82 34.8685 1024.16 34.5337 1024.41 34.1187C1024.65 33.7036 1024.78 33.2637 1024.78 32.7988C1024.78 32.3395 1024.66 31.9051 1024.42 31.4956C1024.18 31.0806 1023.86 30.7485 1023.43 30.4995C1023.02 30.2505 1022.55 30.126 1022.04 30.126ZM1029.06 41.0996C1028.87 41.0996 1028.69 41.0498 1028.52 40.9502C1028.36 40.8506 1028.23 40.7205 1028.13 40.5601C1028.04 40.394 1027.99 40.2142 1028 40.0205C1027.99 39.8324 1028.04 39.6553 1028.13 39.4893C1028.23 39.3232 1028.36 39.1932 1028.52 39.0991C1028.69 39.005 1028.87 38.958 1029.06 38.958C1029.26 38.958 1029.43 39.005 1029.59 39.0991C1029.76 39.1932 1029.89 39.3232 1029.98 39.4893C1030.08 39.6553 1030.12 39.8324 1030.12 40.0205C1030.12 40.2142 1030.08 40.394 1029.98 40.5601C1029.89 40.7205 1029.76 40.8506 1029.59 40.9502C1029.43 41.0498 1029.26 41.0996 1029.06 41.0996ZM1036.28 37.3145L1041.7 28.9805H1042.59V30.873H1041.96L1037.89 37.1318V37.2314H1045.22V38.543H1036.28V37.3145ZM1042.11 38.1777V37.5967V28.9805H1043.54V41H1042.11V38.1777ZM1047.67 41.0996C1047.48 41.0996 1047.3 41.0498 1047.13 40.9502C1046.97 40.8506 1046.84 40.7205 1046.74 40.5601C1046.65 40.394 1046.6 40.2142 1046.61 40.0205C1046.6 39.8324 1046.65 39.6553 1046.74 39.4893C1046.84 39.3232 1046.97 39.1932 1047.13 39.0991C1047.3 39.005 1047.48 38.958 1047.67 38.958C1047.87 38.958 1048.04 39.005 1048.2 39.0991C1048.37 39.1932 1048.5 39.3232 1048.59 39.4893C1048.69 39.6553 1048.74 39.8324 1048.74 40.0205C1048.74 40.2142 1048.69 40.394 1048.59 40.5601C1048.5 40.7205 1048.37 40.8506 1048.2 40.9502C1048.04 41.0498 1047.87 41.0996 1047.67 41.0996ZM1059.44 41H1057.93V30.541H1057.87L1054.94 32.4834V30.9727L1057.93 28.9805H1059.44V41ZM1062.96 41.0996C1062.77 41.0996 1062.59 41.0498 1062.42 40.9502C1062.26 40.8506 1062.13 40.7205 1062.03 40.5601C1061.94 40.394 1061.89 40.2142 1061.9 40.0205C1061.89 39.8324 1061.94 39.6553 1062.03 39.4893C1062.13 39.3232 1062.26 39.1932 1062.42 39.0991C1062.59 39.005 1062.77 38.958 1062.96 38.958C1063.16 38.958 1063.33 39.005 1063.49 39.0991C1063.66 39.1932 1063.79 39.3232 1063.88 39.4893C1063.98 39.6553 1064.03 39.8324 1064.03 40.0205C1064.03 40.2142 1063.98 40.394 1063.88 40.5601C1063.79 40.7205 1063.66 40.8506 1063.49 40.9502C1063.33 41.0498 1063.16 41.0996 1062.96 41.0996ZM1083.45 37.4141H1069.94V36.3516H1083.45V37.4141ZM1077.29 42.3447H1076.01V36.8164H1077.29V42.3447ZM1072.96 30.2422H1080.39V28.2002H1081.71V34.5586H1071.66V28.2002H1072.96V30.2422ZM1080.39 33.4961V31.3047H1072.96V33.4961H1080.39ZM1096.88 42.3779H1095.58V27.5859H1096.88V42.3779ZM1095.8 34.2432H1092.46V33.1641H1095.8V34.2432ZM1086.45 37.7295C1087.98 37.724 1089.23 37.6935 1090.2 37.6382C1091.17 37.5773 1092.14 37.4583 1093.11 37.2812L1093.26 38.3604C1092.21 38.5319 1091.18 38.6509 1090.16 38.7173C1089.16 38.7782 1087.92 38.8086 1086.45 38.8086H1085.33V37.7295H1086.45ZM1092.21 30.0264H1086.64V38.0947H1085.33V28.9473H1092.21V30.0264ZM1091.57 34.1602H1086.29V33.0977H1091.57V34.1602ZM1115.14 35.9697H1113.85V27.5859H1115.14V35.9697ZM1117.37 32.2842H1114.78V31.2051H1117.37V32.2842ZM1111.11 28.5488C1111.1 29.7773 1110.82 30.8896 1110.27 31.8857C1109.72 32.8818 1108.92 33.7368 1107.88 34.4507C1106.83 35.1646 1105.58 35.7207 1104.12 36.1191L1103.59 35.0732C1104.88 34.7246 1105.98 34.2598 1106.89 33.6787C1107.81 33.0921 1108.51 32.4115 1109 31.6367C1109.49 30.862 1109.73 30.0208 1109.73 29.1133V28.5488H1111.11ZM1110.44 29.6279H1104.25V28.5488H1110.44V29.6279ZM1115.14 42.1455H1105.79V36.6504H1115.14V42.1455ZM1107.09 41.083H1113.85V37.7295H1107.09V41.083ZM1129.45 31.4043H1125.42V30.3584H1129.45V31.4043ZM1129.35 34.4756H1125.3V33.3965H1129.35V34.4756ZM1130.53 36.4678H1129.22V27.6025H1130.53V36.4678ZM1125.97 28.6982C1125.96 29.9434 1125.68 31.075 1125.12 32.0933C1124.57 33.106 1123.77 33.9775 1122.74 34.708C1121.71 35.4329 1120.48 36.0085 1119.04 36.4346L1118.5 35.4053C1119.76 35.029 1120.85 34.5392 1121.76 33.936C1122.67 33.3328 1123.37 32.6383 1123.85 31.8525C1124.33 31.0612 1124.57 30.2035 1124.57 29.2793V28.6982H1125.97ZM1125.45 29.7939H1119.24V28.6982H1125.45V29.7939ZM1125.7 36.6172C1126.69 36.6172 1127.56 36.7306 1128.3 36.9575C1129.05 37.1844 1129.62 37.5109 1130.02 37.937C1130.42 38.3576 1130.61 38.8584 1130.61 39.4395C1130.61 40.0205 1130.42 40.5269 1130.02 40.9585C1129.62 41.3846 1129.05 41.7111 1128.3 41.938C1127.56 42.1649 1126.69 42.2783 1125.7 42.2783C1124.7 42.2783 1123.82 42.1649 1123.08 41.938C1122.34 41.7111 1121.77 41.3846 1121.37 40.9585C1120.97 40.5269 1120.77 40.0205 1120.77 39.4395C1120.77 38.8584 1120.97 38.3576 1121.37 37.937C1121.77 37.5109 1122.34 37.1844 1123.08 36.9575C1123.82 36.7306 1124.7 36.6172 1125.7 36.6172ZM1125.7 37.6631C1124.96 37.6631 1124.32 37.7323 1123.77 37.8706C1123.22 38.009 1122.79 38.2137 1122.5 38.4849C1122.2 38.756 1122.05 39.0742 1122.05 39.4395C1122.05 39.8047 1122.2 40.1201 1122.5 40.3857C1122.79 40.6514 1123.22 40.8561 1123.77 41C1124.32 41.1439 1124.96 41.2158 1125.7 41.2158C1126.43 41.2158 1127.06 41.1439 1127.6 41C1128.15 40.8561 1128.57 40.6514 1128.87 40.3857C1129.17 40.1201 1129.32 39.8047 1129.32 39.4395C1129.32 39.0742 1129.17 38.756 1128.87 38.4849C1128.57 38.2137 1128.15 38.009 1127.6 37.8706C1127.06 37.7323 1126.43 37.6631 1125.7 37.6631ZM1142.29 31.5537C1142.29 32.6494 1142.1 33.7119 1141.72 34.7412C1141.34 35.7705 1140.83 36.6836 1140.18 37.4805C1139.52 38.2718 1138.8 38.8695 1138 39.2734L1137.17 38.1777C1137.9 37.8457 1138.57 37.3338 1139.19 36.6421C1139.8 35.9504 1140.29 35.159 1140.65 34.2681C1141.02 33.3716 1141.2 32.4668 1141.21 31.5537V28.8643H1142.29V31.5537ZM1142.5 31.5537C1142.5 32.4281 1142.68 33.2941 1143.04 34.1519C1143.4 35.0096 1143.88 35.776 1144.49 36.4512C1145.11 37.1208 1145.78 37.6188 1146.5 37.9453L1145.71 38.9746C1144.91 38.5872 1144.18 38.0145 1143.53 37.2563C1142.88 36.4982 1142.36 35.6239 1141.98 34.6333C1141.6 33.6427 1141.41 32.6162 1141.41 31.5537V28.8643H1142.5V31.5537ZM1149.42 42.3779H1148.11V27.5859H1149.42V42.3779ZM1164.48 36.9326H1163.24V27.5859H1164.48V36.9326ZM1163.6 32.6992H1160.75V31.6201H1163.6V32.6992ZM1161.26 36.4014H1160.03V27.8848H1161.26V36.4014ZM1159.43 30.4082H1151.86V29.3623H1159.43V30.4082ZM1155.67 31.2051C1156.29 31.2051 1156.84 31.3075 1157.32 31.5122C1157.8 31.717 1158.17 32.0103 1158.44 32.3921C1158.7 32.7739 1158.84 33.2194 1158.84 33.7285C1158.84 34.2266 1158.7 34.6637 1158.44 35.04C1158.17 35.4163 1157.8 35.7096 1157.32 35.9199C1156.84 36.1302 1156.29 36.2354 1155.67 36.2354C1155.05 36.2354 1154.5 36.1302 1154.02 35.9199C1153.55 35.7096 1153.18 35.4163 1152.91 35.04C1152.64 34.6637 1152.51 34.2266 1152.51 33.7285C1152.51 33.2194 1152.64 32.7739 1152.91 32.3921C1153.18 32.0103 1153.55 31.717 1154.02 31.5122C1154.5 31.3075 1155.05 31.2051 1155.67 31.2051ZM1155.67 32.168C1155.28 32.168 1154.94 32.2316 1154.64 32.3589C1154.34 32.4862 1154.1 32.6688 1153.93 32.9067C1153.76 33.1447 1153.67 33.4186 1153.67 33.7285C1153.67 34.0273 1153.76 34.293 1153.93 34.5254C1154.1 34.7578 1154.34 34.9377 1154.64 35.0649C1154.94 35.1922 1155.28 35.2559 1155.67 35.2559C1156.05 35.2559 1156.4 35.1922 1156.7 35.0649C1157.01 34.9377 1157.24 34.7578 1157.41 34.5254C1157.58 34.293 1157.66 34.0273 1157.66 33.7285C1157.66 33.4186 1157.58 33.1447 1157.41 32.9067C1157.24 32.6688 1157.01 32.4862 1156.7 32.3589C1156.4 32.2316 1156.05 32.168 1155.67 32.168ZM1156.31 29.96H1155.02V27.7021H1156.31V29.96ZM1159.6 37.1816C1160.64 37.1816 1161.52 37.2812 1162.27 37.4805C1163.01 37.6797 1163.58 37.9757 1163.98 38.3687C1164.37 38.756 1164.56 39.2236 1164.56 39.7715C1164.56 40.3083 1164.37 40.7648 1163.98 41.1411C1163.58 41.5229 1163.01 41.8135 1162.27 42.0127C1161.52 42.2119 1160.63 42.3115 1159.6 42.3115C1158.57 42.3115 1157.67 42.2119 1156.93 42.0127C1156.19 41.8135 1155.62 41.5229 1155.23 41.1411C1154.84 40.7648 1154.65 40.3083 1154.65 39.7715C1154.65 39.2236 1154.84 38.756 1155.23 38.3687C1155.62 37.9757 1156.19 37.6797 1156.93 37.4805C1157.67 37.2812 1158.57 37.1816 1159.6 37.1816ZM1159.6 38.2109C1158.84 38.2054 1158.18 38.2635 1157.63 38.3853C1157.09 38.5015 1156.66 38.6785 1156.37 38.9165C1156.08 39.1545 1155.94 39.4395 1155.95 39.7715C1155.94 40.0869 1156.08 40.3608 1156.37 40.5933C1156.66 40.8201 1157.09 40.9945 1157.63 41.1162C1158.19 41.238 1158.84 41.2988 1159.6 41.2988C1160.36 41.2988 1161.01 41.238 1161.56 41.1162C1162.11 40.9945 1162.53 40.8201 1162.82 40.5933C1163.11 40.3608 1163.26 40.0869 1163.27 39.7715C1163.26 39.4339 1163.11 39.1489 1162.82 38.9165C1162.53 38.6785 1162.12 38.5015 1161.57 38.3853C1161.02 38.2635 1160.36 38.2054 1159.6 38.2109Z" fill="#3D3D3D"/>
<path d="M351.686 100.06H358.99V98.1836H360.285V104.077H350.391V98.1836H351.686V100.06ZM358.99 103.031V101.089H351.686V103.031H358.99ZM362.045 106.733H348.598V105.654H362.045V106.733ZM355.969 106.152H354.674V103.446H355.969V106.152ZM360.551 112.029H350.341V110.934H360.551V112.029ZM351.652 111.299H350.341V107.912H351.652V111.299ZM375.476 108.394H374.181V97.6025H375.476V108.394ZM375.94 112.029H365.946V110.934H375.94V112.029ZM367.241 111.299H365.946V107.298H367.241V111.299ZM367.507 98.6318C368.237 98.6318 368.896 98.7868 369.482 99.0967C370.069 99.4066 370.531 99.8354 370.869 100.383C371.206 100.931 371.375 101.554 371.375 102.251C371.375 102.954 371.206 103.582 370.869 104.135C370.531 104.683 370.069 105.112 369.482 105.422C368.896 105.732 368.237 105.887 367.507 105.887C366.776 105.887 366.118 105.732 365.531 105.422C364.945 105.112 364.483 104.683 364.145 104.135C363.807 103.582 363.639 102.954 363.639 102.251C363.639 101.554 363.807 100.931 364.145 100.383C364.483 99.8354 364.945 99.4066 365.531 99.0967C366.118 98.7868 366.776 98.6318 367.507 98.6318ZM367.507 99.7773C367.014 99.7773 366.569 99.8825 366.17 100.093C365.778 100.303 365.468 100.596 365.241 100.973C365.019 101.349 364.911 101.775 364.917 102.251C364.911 102.732 365.019 103.164 365.241 103.546C365.468 103.922 365.778 104.215 366.17 104.426C366.569 104.636 367.014 104.741 367.507 104.741C367.994 104.741 368.434 104.636 368.827 104.426C369.22 104.215 369.529 103.922 369.756 103.546C369.983 103.164 370.097 102.732 370.097 102.251C370.097 101.775 369.983 101.349 369.756 100.973C369.529 100.596 369.22 100.303 368.827 100.093C368.434 99.8825 367.994 99.7773 367.507 99.7773ZM382.166 98.1338C382.896 98.1338 383.552 98.2721 384.133 98.5488C384.714 98.8255 385.168 99.2129 385.495 99.7109C385.821 100.209 385.984 100.773 385.984 101.404C385.984 102.035 385.821 102.597 385.495 103.089C385.168 103.582 384.714 103.966 384.133 104.243C383.552 104.52 382.896 104.658 382.166 104.658C381.43 104.658 380.769 104.52 380.182 104.243C379.601 103.966 379.147 103.582 378.821 103.089C378.494 102.597 378.331 102.035 378.331 101.404C378.331 100.773 378.494 100.209 378.821 99.7109C379.147 99.2129 379.601 98.8255 380.182 98.5488C380.769 98.2721 381.43 98.1338 382.166 98.1338ZM382.166 99.2295C381.674 99.2295 381.231 99.3208 380.838 99.5034C380.451 99.686 380.146 99.9434 379.925 100.275C379.709 100.607 379.604 100.984 379.609 101.404C379.604 101.83 379.709 102.209 379.925 102.542C380.146 102.868 380.451 103.125 380.838 103.313C381.231 103.502 381.674 103.596 382.166 103.596C382.647 103.596 383.082 103.502 383.469 103.313C383.862 103.125 384.169 102.868 384.391 102.542C384.612 102.209 384.723 101.83 384.723 101.404C384.723 100.984 384.612 100.607 384.391 100.275C384.169 99.9434 383.862 99.686 383.469 99.5034C383.082 99.3208 382.647 99.2295 382.166 99.2295ZM390.168 105.173H388.873V97.5859H390.168V105.173ZM390.168 109.439H381.884V111.681H380.605V108.46H388.873V106.933H380.572V105.887H390.168V109.439ZM390.699 112.146H380.605V111.1H390.699V112.146ZM406.172 107.414H392.658V106.352H406.172V107.414ZM400.013 112.345H398.734V106.816H400.013V112.345ZM395.68 100.242H403.117V98.2002H404.429V104.559H394.385V98.2002H395.68V100.242ZM403.117 103.496V101.305H395.68V103.496H403.117ZM420.864 107.414H407.351V106.352H420.864V107.414ZM414.705 112.345H413.427V106.816H414.705V112.345ZM410.372 100.242H417.81V98.2002H419.121V104.559H409.077V98.2002H410.372V100.242ZM417.81 103.496V101.305H410.372V103.496H417.81ZM433.598 105.97H432.303V97.5859H433.598V105.97ZM435.822 102.301H433.232V101.205H435.822V102.301ZM423.902 104.011C425.452 104.022 426.719 103.994 427.704 103.928C428.695 103.856 429.685 103.723 430.676 103.529L430.842 104.592C429.846 104.797 428.847 104.932 427.845 104.999C426.849 105.065 425.535 105.095 423.902 105.09H422.757V104.011H423.902ZM429.298 99.6611H424.052V104.642H422.757V98.5986H429.298V99.6611ZM433.598 112.146H424.284V106.733H433.598V112.146ZM425.562 111.083H432.303V107.796H425.562V111.083ZM448.058 99.4619H438.462V98.3828H448.058V99.4619ZM450.266 104.891H436.752V103.812H450.266V104.891ZM448.489 99.4785C448.489 100.336 448.462 101.117 448.406 101.819C448.351 102.517 448.218 103.319 448.008 104.227L446.713 104.144C446.862 103.535 446.97 102.962 447.037 102.425C447.109 101.889 447.153 101.418 447.169 101.014C447.186 100.605 447.194 100.126 447.194 99.5781V99.4785V98.3828H448.489V99.4785ZM448.556 112.146H438.412V106.933H448.556V112.146ZM439.707 111.083H447.261V107.962H439.707V111.083ZM460.492 111H458.981V100.541H458.915L455.993 102.483V100.973L458.981 98.9805H460.492V111ZM467.631 111.166C466.745 111.166 465.99 110.925 465.365 110.444C464.739 109.962 464.261 109.26 463.929 108.335C463.597 107.411 463.431 106.296 463.431 104.99C463.431 103.701 463.597 102.594 463.929 101.67C464.261 100.74 464.739 100.032 465.365 99.5449C465.996 99.0579 466.751 98.8145 467.631 98.8145C468.505 98.8145 469.258 99.0579 469.889 99.5449C470.52 100.032 471.001 100.74 471.333 101.67C471.665 102.594 471.831 103.701 471.831 104.99C471.831 106.296 471.668 107.411 471.341 108.335C471.015 109.26 470.536 109.962 469.905 110.444C469.274 110.925 468.516 111.166 467.631 111.166ZM467.631 109.838C468.206 109.838 468.702 109.65 469.117 109.273C469.532 108.897 469.844 108.347 470.055 107.622C470.265 106.897 470.37 106.02 470.37 104.99C470.37 103.961 470.262 103.081 470.046 102.351C469.831 101.62 469.518 101.064 469.108 100.682C468.699 100.3 468.206 100.109 467.631 100.109C467.055 100.109 466.563 100.3 466.153 100.682C465.744 101.064 465.428 101.62 465.207 102.351C464.986 103.081 464.875 103.961 464.875 104.99C464.875 106.02 464.986 106.897 465.207 107.622C465.428 108.347 465.741 108.897 466.145 109.273C466.555 109.65 467.05 109.838 467.631 109.838ZM477.758 111.166C476.872 111.166 476.117 110.925 475.492 110.444C474.866 109.962 474.388 109.26 474.056 108.335C473.724 107.411 473.558 106.296 473.558 104.99C473.558 103.701 473.724 102.594 474.056 101.67C474.388 100.74 474.866 100.032 475.492 99.5449C476.123 99.0579 476.878 98.8145 477.758 98.8145C478.632 98.8145 479.385 99.0579 480.016 99.5449C480.646 100.032 481.128 100.74 481.46 101.67C481.792 102.594 481.958 103.701 481.958 104.99C481.958 106.296 481.795 107.411 481.468 108.335C481.142 109.26 480.663 109.962 480.032 110.444C479.401 110.925 478.643 111.166 477.758 111.166ZM477.758 109.838C478.333 109.838 478.829 109.65 479.244 109.273C479.659 108.897 479.971 108.347 480.182 107.622C480.392 106.897 480.497 106.02 480.497 104.99C480.497 103.961 480.389 103.081 480.173 102.351C479.958 101.62 479.645 101.064 479.235 100.682C478.826 100.3 478.333 100.109 477.758 100.109C477.182 100.109 476.69 100.3 476.28 100.682C475.871 101.064 475.555 101.62 475.334 102.351C475.113 103.081 475.002 103.961 475.002 104.99C475.002 106.02 475.113 106.897 475.334 107.622C475.555 108.347 475.868 108.897 476.272 109.273C476.681 109.65 477.177 109.838 477.758 109.838ZM496.916 106.468H483.402V105.405H496.916V106.468ZM490.906 109.356H489.611V105.92H490.906V109.356ZM495.405 112.029H485.129V110.934H495.405V112.029ZM486.424 111.349H485.129V107.995H486.424V111.349ZM486.507 99.96H493.812V98.0674H495.106V103.961H485.212V98.0674H486.507V99.96ZM493.812 102.898V100.956H486.507V102.898H493.812ZM502.942 98.665C503.706 98.665 504.389 98.8117 504.993 99.105C505.596 99.3983 506.066 99.8078 506.404 100.333C506.741 100.859 506.91 101.46 506.91 102.135C506.91 102.81 506.741 103.41 506.404 103.936C506.066 104.462 505.596 104.871 504.993 105.165C504.389 105.458 503.706 105.604 502.942 105.604C502.173 105.604 501.484 105.458 500.875 105.165C500.272 104.871 499.802 104.462 499.464 103.936C499.127 103.41 498.958 102.81 498.958 102.135C498.958 101.46 499.127 100.859 499.464 100.333C499.802 99.8078 500.272 99.3983 500.875 99.105C501.484 98.8117 502.173 98.665 502.942 98.665ZM502.942 99.8105C502.422 99.8105 501.957 99.9074 501.548 100.101C501.138 100.295 500.817 100.571 500.585 100.931C500.353 101.285 500.236 101.687 500.236 102.135C500.236 102.589 500.353 102.99 500.585 103.338C500.817 103.687 501.138 103.961 501.548 104.16C501.957 104.359 502.422 104.459 502.942 104.459C503.457 104.459 503.919 104.359 504.329 104.16C504.744 103.961 505.065 103.687 505.292 103.338C505.518 102.99 505.632 102.589 505.632 102.135C505.632 101.687 505.518 101.285 505.292 100.931C505.065 100.571 504.744 100.295 504.329 100.101C503.919 99.9074 503.457 99.8105 502.942 99.8105ZM510.214 112.378H508.919V97.5859H510.214V112.378ZM498.194 108.012C500.037 108.017 501.761 107.99 503.366 107.929C504.971 107.868 506.495 107.729 507.939 107.514L508.039 108.477C506.999 108.67 505.917 108.814 504.793 108.908C503.67 108.997 502.619 109.055 501.639 109.083C500.665 109.11 499.578 109.124 498.377 109.124L498.194 108.012ZM521.785 111.166C521.01 111.155 520.297 110.972 519.644 110.618C518.991 110.264 518.454 109.664 518.033 108.817C517.613 107.97 517.402 106.85 517.402 105.455C517.402 104.049 517.588 102.849 517.958 101.853C518.329 100.856 518.855 100.101 519.536 99.5864C520.216 99.0718 521.027 98.8145 521.968 98.8145C522.66 98.8145 523.282 98.9473 523.835 99.2129C524.394 99.4785 524.848 99.8548 525.197 100.342C525.545 100.823 525.77 101.377 525.869 102.002H524.392C524.298 101.637 524.143 101.313 523.927 101.031C523.716 100.749 523.445 100.53 523.113 100.375C522.781 100.22 522.399 100.143 521.968 100.143C521.309 100.143 520.742 100.322 520.266 100.682C519.796 101.042 519.436 101.568 519.187 102.259C518.938 102.945 518.813 103.767 518.813 104.725H518.963C519.195 104.387 519.469 104.099 519.785 103.861C520.1 103.618 520.449 103.435 520.831 103.313C521.218 103.192 521.625 103.131 522.051 103.131C522.759 103.131 523.412 103.302 524.01 103.646C524.607 103.989 525.083 104.465 525.438 105.073C525.792 105.676 525.969 106.357 525.969 107.115C525.969 107.873 525.794 108.562 525.446 109.182C525.097 109.796 524.605 110.283 523.968 110.643C523.337 110.997 522.61 111.172 521.785 111.166ZM521.785 109.854C522.294 109.854 522.756 109.73 523.171 109.481C523.586 109.232 523.916 108.903 524.159 108.493C524.403 108.078 524.524 107.624 524.524 107.132C524.524 106.645 524.408 106.197 524.176 105.787C523.943 105.378 523.62 105.051 523.205 104.808C522.79 104.564 522.327 104.442 521.818 104.442C521.304 104.442 520.833 104.567 520.407 104.816C519.987 105.065 519.649 105.4 519.395 105.82C519.146 106.235 519.018 106.678 519.013 107.148C519.013 107.619 519.134 108.062 519.378 108.477C519.621 108.886 519.953 109.218 520.374 109.473C520.795 109.727 521.265 109.854 521.785 109.854ZM531.962 111.166C531.076 111.166 530.321 110.925 529.696 110.444C529.07 109.962 528.592 109.26 528.26 108.335C527.928 107.411 527.762 106.296 527.762 104.99C527.762 103.701 527.928 102.594 528.26 101.67C528.592 100.74 529.07 100.032 529.696 99.5449C530.327 99.0579 531.082 98.8145 531.962 98.8145C532.836 98.8145 533.589 99.0579 534.22 99.5449C534.851 100.032 535.332 100.74 535.664 101.67C535.996 102.594 536.162 103.701 536.162 104.99C536.162 106.296 535.999 107.411 535.672 108.335C535.346 109.26 534.867 109.962 534.236 110.444C533.605 110.925 532.847 111.166 531.962 111.166ZM531.962 109.838C532.537 109.838 533.033 109.65 533.448 109.273C533.863 108.897 534.175 108.347 534.386 107.622C534.596 106.897 534.701 106.02 534.701 104.99C534.701 103.961 534.593 103.081 534.377 102.351C534.162 101.62 533.849 101.064 533.439 100.682C533.03 100.3 532.537 100.109 531.962 100.109C531.386 100.109 530.894 100.3 530.484 100.682C530.075 101.064 529.759 101.62 529.538 102.351C529.317 103.081 529.206 103.961 529.206 104.99C529.206 106.02 529.317 106.897 529.538 107.622C529.759 108.347 530.072 108.897 530.476 109.273C530.886 109.65 531.381 109.838 531.962 109.838ZM544.347 97.8516C545.437 97.8516 546.372 97.9484 547.152 98.1421C547.938 98.3358 548.536 98.6235 548.945 99.0054C549.355 99.3872 549.56 99.8493 549.56 100.392C549.56 100.945 549.355 101.415 548.945 101.803C548.536 102.19 547.941 102.483 547.161 102.683C546.38 102.876 545.442 102.976 544.347 102.981C543.245 102.976 542.305 102.876 541.524 102.683C540.75 102.483 540.155 102.19 539.74 101.803C539.325 101.415 539.117 100.945 539.117 100.392C539.117 99.8493 539.325 99.3872 539.74 99.0054C540.155 98.6235 540.752 98.3358 541.533 98.1421C542.313 97.9484 543.251 97.8516 544.347 97.8516ZM544.347 98.8311C543.533 98.8311 542.836 98.8947 542.255 99.022C541.679 99.1493 541.237 99.3291 540.927 99.5615C540.622 99.7939 540.473 100.071 540.479 100.392C540.473 100.729 540.622 101.02 540.927 101.263C541.237 101.501 541.679 101.681 542.255 101.803C542.836 101.924 543.533 101.985 544.347 101.985C545.16 101.985 545.857 101.924 546.438 101.803C547.025 101.681 547.471 101.501 547.775 101.263C548.079 101.025 548.231 100.735 548.231 100.392C548.231 100.071 548.079 99.7939 547.775 99.5615C547.471 99.3291 547.025 99.1493 546.438 99.022C545.852 98.8947 545.155 98.8311 544.347 98.8311ZM551.07 105.04H537.623V103.978H551.07V105.04ZM549.344 109.622H540.578V111.415H539.283V108.659H548.065V107.314H539.25V106.318H549.344V109.622ZM549.792 112.179H539.283V111.149H549.792V112.179ZM568.12 105.97H566.825V97.5859H568.12V105.97ZM570.345 102.284H567.755V101.205H570.345V102.284ZM564.086 98.5488C564.08 99.7773 563.801 100.89 563.248 101.886C562.7 102.882 561.903 103.737 560.857 104.451C559.811 105.165 558.558 105.721 557.097 106.119L556.565 105.073C557.855 104.725 558.956 104.26 559.869 103.679C560.788 103.092 561.491 102.411 561.978 101.637C562.465 100.862 562.708 100.021 562.708 99.1133V98.5488H564.086ZM563.422 99.6279H557.229V98.5488H563.422V99.6279ZM568.12 112.146H558.773V106.65H568.12V112.146ZM560.068 111.083H566.825V107.729H560.068V111.083ZM582.431 101.404H578.396V100.358H582.431V101.404ZM582.331 104.476H578.28V103.396H582.331V104.476ZM583.51 106.468H582.198V97.6025H583.51V106.468ZM578.944 98.6982C578.939 99.9434 578.657 101.075 578.098 102.093C577.544 103.106 576.75 103.978 575.715 104.708C574.686 105.433 573.455 106.008 572.021 106.435L571.474 105.405C572.741 105.029 573.828 104.539 574.736 103.936C575.649 103.333 576.346 102.638 576.828 101.853C577.309 101.061 577.55 100.203 577.55 99.2793V98.6982H578.944ZM578.43 99.7939H572.221V98.6982H578.43V99.7939ZM578.679 106.617C579.669 106.617 580.535 106.731 581.277 106.958C582.024 107.184 582.597 107.511 582.995 107.937C583.394 108.358 583.593 108.858 583.593 109.439C583.593 110.021 583.394 110.527 582.995 110.958C582.597 111.385 582.024 111.711 581.277 111.938C580.535 112.165 579.669 112.278 578.679 112.278C577.677 112.278 576.803 112.165 576.056 111.938C575.314 111.711 574.744 111.385 574.346 110.958C573.947 110.527 573.748 110.021 573.748 109.439C573.748 108.858 573.947 108.358 574.346 107.937C574.744 107.511 575.314 107.184 576.056 106.958C576.803 106.731 577.677 106.617 578.679 106.617ZM578.679 107.663C577.943 107.663 577.298 107.732 576.745 107.871C576.197 108.009 575.773 108.214 575.475 108.485C575.176 108.756 575.026 109.074 575.026 109.439C575.026 109.805 575.176 110.12 575.475 110.386C575.773 110.651 576.197 110.856 576.745 111C577.298 111.144 577.943 111.216 578.679 111.216C579.404 111.216 580.037 111.144 580.58 111C581.127 110.856 581.551 110.651 581.85 110.386C582.148 110.12 582.298 109.805 582.298 109.439C582.298 109.074 582.148 108.756 581.85 108.485C581.551 108.214 581.127 108.009 580.58 107.871C580.037 107.732 579.404 107.663 578.679 107.663Z" fill="#3D3D3D"/>
</svg>
