<svg xmlns="http://www.w3.org/2000/svg" width="47.322" height="47.103" viewBox="0 0 47.322 47.103">
  <g id="그룹_7" data-name="그룹 7" transform="translate(10903 -7838.385)">
    <path id="패스_40" data-name="패스 40" d="M24.935,31.5a7.094,7.094,0,0,1-7.3-7.127,7.257,7.257,0,0,1,14.512-.094A7.106,7.106,0,0,1,24.935,31.5m2.988-7.09a3.038,3.038,0,0,0-6.076-.085,2.91,2.91,0,0,0,3.09,3.025,2.9,2.9,0,0,0,2.986-2.94" transform="translate(-10904.955 7836.48)" fill="#232077"/>
    <path id="패스_41" data-name="패스 41" d="M20.737,34.613c-.4,1.063-.583,1.727-.891,2.324-2.6,5.071-6.423,9.156-10.638,12.895a3.269,3.269,0,0,1-1.992.877,2.932,2.932,0,0,1-2.223-.887,4.354,4.354,0,0,1,.112-2.581c.074-.365.537-.665.854-.963a52.524,52.524,0,0,0,9.727-12.01c.707-1.225,1.695-2.189,3.181-1.488.772.364,1.3,1.249,1.87,1.833" transform="translate(-10903.535 7834.778)" fill="#232077"/>
    <path id="패스_42" data-name="패스 42" d="M33.188,32.7a10.221,10.221,0,0,1,1.768,1.18c3.393,3.226,6.726,6.514,10.111,9.749.965.921,1.456,1.894.742,3.148a2.36,2.36,0,0,1-3.234,1,5.515,5.515,0,0,1-1.759-1.044c-3.229-3.037-6.469-6.069-9.575-9.229a4.162,4.162,0,0,1-.9-2.71c0-1.379.967-2.084,2.845-2.1" transform="translate(-10906.363 7834.76)" fill="#232077"/>
    <path id="패스_43" data-name="패스 43" d="M39.384,24.523a18.552,18.552,0,0,1-2.613-.023,2.281,2.281,0,0,1-2.119-2.437,2.106,2.106,0,0,1,2.088-2.214c3.836-.476,7.671-.968,11.513-1.393,1.345-.148,2.563.208,2.858,1.762a2.246,2.246,0,0,1-1.961,2.737c-3.218.7-6.472,1.237-9.711,1.839l-.053-.27" transform="translate(-10906.841 7836.343)" fill="#232077"/>
    <path id="패스_44" data-name="패스 44" d="M11.321,25.3c-3.088-.733-6.189-1.416-9.259-2.219-1.4-.367-2.387-1.322-1.962-2.9.445-1.649,1.782-1.941,3.293-1.64,2.815.562,5.618,1.186,8.441,1.7,1.506.276,2.922.556,2.828,2.52-.074,1.551-1.252,2.33-3.341,2.538" transform="translate(-10903 7836.341)" fill="#232077"/>
    <path id="패스_45" data-name="패스 45" d="M30.339,5.407c-.225,2.107-.372,4.227-.7,6.318-.309,1.981-1.416,2.806-3.028,2.5-1.472-.279-2.047-1.369-1.87-3.328.213-2.36.343-4.728.536-7.089a4.412,4.412,0,0,1,.373-2.17C26.229.895,27.211-.044,27.968,0a3.125,3.125,0,0,1,2.111,1.875A11.24,11.24,0,0,1,30.168,5.4Z" transform="translate(-10905.739 7838.385)" fill="#232077"/>
    <path id="패스_46" data-name="패스 46" d="M22.841,44.216c.366-2.457.719-4.916,1.1-7.37.2-1.28.885-2.1,2.28-1.871S28,36.242,27.841,37.482c-.3,2.4-.651,4.8-1,7.2-.2,1.344-.912,2.25-2.362,2.066-1.43-.181-1.659-1.3-1.636-2.531" transform="translate(-10905.531 7834.513)" fill="#f8b037"/>
    <path id="패스_47" data-name="패스 47" d="M36.763,27.263a13.352,13.352,0,0,1,1.448.369c2.3.939,4.6,1.883,6.891,2.853,1.239.525,1.979,1.449,1.446,2.8-.547,1.385-1.751,1.2-2.851.756-2.417-.983-4.852-1.944-7.182-3.109a2.536,2.536,0,0,1-1.169-2.007c.057-.631.977-1.185,1.417-1.664" transform="translate(-10906.917 7835.363)" fill="#f8b037"/>
    <path id="패스_48" data-name="패스 48" d="M34.258,17.012c-.409-.322-1.209-.639-1.352-1.143a2.638,2.638,0,0,1,.278-2.2,40.816,40.816,0,0,1,5.468-4.517,2.808,2.808,0,0,1,2.626.29,2.461,2.461,0,0,1,0,2.432,71.514,71.514,0,0,1-5.7,4.788c-.262.209-.7.195-1.323.349" transform="translate(-10906.635 7837.394)" fill="#f8b037"/>
    <path id="패스_49" data-name="패스 49" d="M7.25,34.256C6.656,33.606,5.679,33,5.52,32.227a2.57,2.57,0,0,1,1.039-2.251,27.509,27.509,0,0,1,6.089-1.638,2.532,2.532,0,0,1,2,1.439,2.541,2.541,0,0,1-.839,2.323A64.04,64.04,0,0,1,7.25,34.256" transform="translate(-10903.609 7835.245)" fill="#f8b037"/>
    <path id="패스_50" data-name="패스 50" d="M21.911,12.937c-.515.64-.83,1.416-1.268,1.492-.718.124-1.932.052-2.208-.39A44.349,44.349,0,0,1,15.36,8a1.9,1.9,0,0,1,.673-1.749c.542-.281,1.791-.251,2.031.112,1.372,2.069,2.535,4.276,3.847,6.574" transform="translate(-10904.697 7837.713)" fill="#f8b037"/>
    <path id="패스_51" data-name="패스 51" d="M13.957,18.063c-1.323-1.433-2.595-2.716-3.718-4.119-.185-.23.132-1.175.48-1.436a1.651,1.651,0,0,1,1.543-.061,22.953,22.953,0,0,1,3.252,2.785,1.7,1.7,0,0,1,.081,1.529c-.2.427-.8.667-1.637,1.3" transform="translate(-10904.129 7837.023)" fill="#ffa944"/>
  </g>
</svg>
