<svg xmlns="http://www.w3.org/2000/svg" width="85.687" height="44.809" viewBox="0 0 85.687 44.809">
  <g id="그룹_10" data-name="그룹 10" transform="translate(-6732.5 -5004)">
    <path id="패스_9" data-name="패스 9" d="M183.193,72.669v4.472h-5.836q-.043.183-.086.365c.508.441,1.026.871,1.522,1.324,3.37,3.073,3.468,7.509-.056,10.4a18.323,18.323,0,0,1-5.886,3.242,28.026,28.026,0,0,1-19.335-.542A15,15,0,0,1,148.93,89c-3.134-2.924-3.1-6.785-.128-9.867.554-.575,1.2-1.064,2.213-1.958h-6.783V72.669ZM163.75,89.077c2.517-.56,4.919-.911,7.19-1.661,1.715-.566,3.191-1.793,3.2-3.852,0-1.987-1.413-3.131-3.063-3.792a18.5,18.5,0,0,0-14.456.1,4.082,4.082,0,0,0-2.834,3.627,3.82,3.82,0,0,0,2.858,3.729c2.313.784,4.734,1.25,7.109,1.851" transform="translate(6634.994 4954.873)" fill="#0048a3"/>
    <path id="패스_11" data-name="패스 11" d="M152.6,8.458H147.8V3.813h15.041V0h6.976a15.993,15.993,0,0,1-.014,1.984c-.173,1.386.283,1.881,1.765,1.839,3.881-.108,7.766-.034,11.65-.033h1.751V8.45h-4.722c.216.418.3.644.438.838,2.207,3.212,1.778,6.354-1.264,8.846a16.769,16.769,0,0,1-8.742,3.5c-5.219.663-10.339.426-15.144-2.047-.335-.173-.666-.357-.985-.558-4.2-2.636-4.942-6.178-1.942-10.573m13.722,9.416c2.225-.586,4.434-1.027,6.536-1.771a3.3,3.3,0,0,0,2.373-3.18,3.481,3.481,0,0,0-2.411-3.171,15.779,15.779,0,0,0-13.018.077,3.417,3.417,0,0,0-2.289,3.079,3.274,3.274,0,0,0,2.355,3.187c2.056.721,4.206,1.175,6.454,1.779" transform="translate(6632.584 5004)" fill="#0048a3"/>
    <path id="패스_13" data-name="패스 13" d="M28.554,16.49h-10c.289,6.83,3.031,11.857,9.51,14.569A33.08,33.08,0,0,1,25.4,34.11a1.886,1.886,0,0,1-1.662.108,18.167,18.167,0,0,1-8.947-8.54c-.5.683-.933,1.325-1.424,1.915a25.2,25.2,0,0,1-9.023,6.689,1.414,1.414,0,0,1-2.045-.5c-.65-.9-1.429-1.712-2.3-2.733,6.549-2.713,10.51-7.215,10.922-14.554h-9.9V11.8c.556-.029,1.079-.08,1.6-.08,8.042,0,16.084.03,24.125-.033,1.391-.011,2.006.3,1.823,1.781a26.812,26.812,0,0,0-.02,3.021" transform="translate(6732.5 4996.099)" fill="#0048a3"/>
    <path id="패스_15" data-name="패스 15" d="M22.8,98.593h26.6v4.474c-.539.038-1.1.111-1.669.111q-14.479.013-28.958.006c-2.523,0-2.911-.408-2.911-2.9,0-3.02.029-6.04-.021-9.059-.016-.965.25-1.36,1.271-1.322,1.822.066,3.649.019,5.69.019Z" transform="translate(6721.795 4943.226)" fill="#0048a3"/>
    <rect id="사각형_29" data-name="사각형 29" width="6.653" height="26.948" transform="translate(6764.548 5007.284)" fill="#0048a3"/>
  </g>
</svg>
