<svg width="928" height="519" viewBox="0 0 928 519" fill="none" xmlns="http://www.w3.org/2000/svg">
<rect x="294" width="342" height="85" rx="42.5" fill="#1352C3"/>
<rect y="233" width="252" height="73" rx="36.5" fill="#1457C8"/>
<rect x="37.5" y="346.5" width="176" height="50" rx="25" fill="white" stroke="#1D1D1D"/>
<rect x="375.5" y="346.5" width="176" height="50" rx="25" fill="white" stroke="#1D1D1D"/>
<rect x="713.5" y="346.5" width="176" height="50" rx="25" fill="white" stroke="#1D1D1D"/>
<rect x="37.5" y="407.5" width="176" height="50" rx="25" fill="white" stroke="#1D1D1D"/>
<rect x="375.5" y="407.5" width="176" height="50" rx="25" fill="white" stroke="#1D1D1D"/>
<rect x="713.5" y="407.5" width="176" height="50" rx="25" fill="white" stroke="#1D1D1D"/>
<rect x="713.5" y="468.5" width="176" height="50" rx="25" fill="white" stroke="#1D1D1D"/>
<rect x="338" y="233" width="252" height="73" rx="36.5" fill="#1457C8"/>
<rect x="676" y="233" width="252" height="73" rx="36.5" fill="#1457C8"/>
<path d="M431.805 58.1445H427.704V27.0068H431.805V58.1445ZM428.695 42.5415H423.414V39.0552H428.695V42.5415ZM424.696 56.6406H420.697V27.5708H424.696V56.6406ZM407.982 47.4634C410.261 47.4634 412.215 47.4121 413.844 47.3096C415.473 47.207 417.148 47.002 418.868 46.6943L419.176 50.2319C417.444 50.5737 415.741 50.8016 414.066 50.9155C412.403 51.0181 410.375 51.0807 407.982 51.1035H405.794V47.4634H407.982ZM417.416 34.1504H410.169V49.2236H405.794V30.647H417.416V34.1504ZM446.622 52.3682H442.23V43.9258H446.622V52.3682ZM456.415 52.4194H452.057V43.96H456.415V52.4194ZM463.626 54.6924H435.189V51.2061H463.626V54.6924ZM461.251 33.0225H437.394V29.519H461.251V33.0225ZM461.114 45.293H437.547V41.7725H461.114V45.293ZM446.058 42.3022H441.7V32.4072H446.058V42.3022ZM456.876 42.3022H452.586V32.4072H456.876V42.3022ZM491.466 58.23H487.04V27.0068H491.466V58.23ZM474.564 29.2114C476.125 29.2114 477.526 29.6672 478.768 30.5786C480.021 31.4787 480.995 32.7718 481.69 34.458C482.397 36.1328 482.75 38.0811 482.75 40.3027C482.75 42.5358 482.397 44.4954 481.69 46.1816C480.995 47.8564 480.021 49.1439 478.768 50.0439C477.526 50.944 476.125 51.394 474.564 51.394C472.98 51.4054 471.562 50.9611 470.309 50.061C469.067 49.1496 468.093 47.8564 467.386 46.1816C466.68 44.4954 466.327 42.5358 466.327 40.3027C466.327 38.0811 466.68 36.1328 467.386 34.458C468.093 32.7718 469.067 31.4787 470.309 30.5786C471.562 29.6672 472.98 29.2114 474.564 29.2114ZM474.564 33.1592C473.755 33.1478 473.043 33.4212 472.428 33.9795C471.824 34.5264 471.357 35.341 471.026 36.4233C470.707 37.4943 470.554 38.7874 470.565 40.3027C470.554 41.818 470.707 43.1112 471.026 44.1821C471.357 45.2531 471.824 46.0677 472.428 46.626C473.043 47.1729 473.755 47.4463 474.564 47.4463C475.35 47.4463 476.045 47.1729 476.649 46.626C477.253 46.0677 477.72 45.2531 478.05 44.1821C478.381 43.1112 478.546 41.818 478.546 40.3027C478.546 38.7874 478.381 37.4943 478.05 36.4233C477.72 35.3524 477.253 34.5378 476.649 33.9795C476.045 33.4212 475.35 33.1478 474.564 33.1592ZM506.3 34.0649C506.288 36.6968 505.964 39.1748 505.326 41.499C504.699 43.8118 503.736 45.8683 502.438 47.6685C501.15 49.4572 499.561 50.8187 497.669 51.7529L494.986 48.2153C496.695 47.4406 498.131 46.3127 499.293 44.8315C500.455 43.3504 501.321 41.6927 501.891 39.8584C502.46 38.0127 502.751 36.0815 502.762 34.0649V29.4165H506.3V34.0649ZM507.103 34.0649C507.103 36.0018 507.376 37.8532 507.923 39.6191C508.47 41.3851 509.291 42.9801 510.384 44.4043C511.489 45.8171 512.851 46.9108 514.469 47.6855L511.837 51.1548C510.014 50.2547 508.487 48.9388 507.257 47.207C506.038 45.4753 505.126 43.4928 504.522 41.2598C503.919 39.0267 503.622 36.6284 503.634 34.0649V29.4165H507.103V34.0649ZM520.211 58.1445H515.836V27.0068H520.211V58.1445ZM524.825 42.7295H519.254V39.021H524.825V42.7295Z" fill="white"/>
<path d="M465.793 223.707C466.183 224.098 466.817 224.098 467.207 223.707L473.571 217.343C473.962 216.953 473.962 216.319 473.571 215.929C473.181 215.538 472.547 215.538 472.157 215.929L466.5 221.586L460.843 215.929C460.453 215.538 459.819 215.538 459.429 215.929C459.038 216.319 459.038 216.953 459.429 217.343L465.793 223.707ZM465.5 95L465.5 223L467.5 223L467.5 95L465.5 95Z" fill="#CCCCCC"/>
<path d="M125.793 223.707C126.183 224.098 126.817 224.098 127.207 223.707L133.571 217.343C133.962 216.953 133.962 216.319 133.571 215.929C133.181 215.538 132.547 215.538 132.157 215.929L126.5 221.586L120.843 215.929C120.453 215.538 119.819 215.538 119.429 215.929C119.038 216.319 119.038 216.953 119.429 217.343L125.793 223.707ZM125.5 168L125.5 223L127.5 223L127.5 168L125.5 168Z" fill="#CCCCCC"/>
<path d="M805.793 223.707C806.183 224.098 806.817 224.098 807.207 223.707L813.571 217.343C813.962 216.953 813.962 216.319 813.571 215.929C813.181 215.538 812.547 215.538 812.157 215.929L806.5 221.586L800.843 215.929C800.453 215.538 799.819 215.538 799.429 215.929C799.038 216.319 799.038 216.953 799.429 217.343L805.793 223.707ZM805.5 168L805.5 223L807.5 223L807.5 168L805.5 168Z" fill="#CCCCCC"/>
<line x1="126" y1="167" x2="806" y2="167" stroke="#CCCCCC" stroke-width="2"/>
<path d="M90.8608 281.246H87.9312V259.005H90.8608V281.246ZM84.2202 269.161H80.4727V266.659H84.2202V269.161ZM86.3198 280.233H83.4023V259.396H86.3198V280.233ZM78.0435 264.974C78.0353 266.708 77.8563 268.355 77.5063 269.918C77.1564 271.48 76.6112 272.888 75.8706 274.142C75.1382 275.395 74.2064 276.367 73.0752 277.059L71.1953 274.764C72.237 274.121 73.0955 273.283 73.771 272.25C74.4465 271.208 74.9347 270.073 75.2358 268.844C75.5369 267.607 75.6875 266.317 75.6875 264.974V262.643H78.0435V264.974ZM78.6904 264.974C78.6904 266.284 78.8369 267.525 79.1299 268.697C79.4229 269.869 79.8949 270.943 80.5459 271.92C81.2051 272.888 82.0514 273.67 83.085 274.264L81.2661 276.546C80.1268 275.879 79.195 274.955 78.4707 273.775C77.7464 272.595 77.2174 271.265 76.8838 269.784C76.5583 268.294 76.3955 266.691 76.3955 264.974V262.643H78.6904V264.974ZM82.0596 263.778H72.0376V261.288H82.0596V263.778ZM113.59 278.658H93.2778V276.131H113.59V278.658ZM104.984 276.864H101.847V271.188H104.984V276.864ZM104.386 262.752C104.386 264.315 104.02 265.747 103.288 267.049C102.563 268.343 101.514 269.434 100.138 270.321C98.7629 271.208 97.1515 271.822 95.3042 272.164L94.0835 269.698C95.6623 269.446 97.0295 268.97 98.1851 268.27C99.3488 267.57 100.232 266.744 100.834 265.792C101.444 264.832 101.75 263.819 101.75 262.752V261.947H104.386V262.752ZM105.021 262.752C105.021 263.819 105.326 264.824 105.937 265.768C106.555 266.712 107.454 267.525 108.634 268.209C109.814 268.884 111.218 269.34 112.846 269.576L111.625 272.03C109.737 271.704 108.097 271.106 106.706 270.235C105.322 269.365 104.256 268.29 103.507 267.013C102.767 265.735 102.401 264.315 102.409 262.752V261.947H105.021V262.752ZM111.82 263.241H94.9502V260.714H111.82V263.241ZM131.608 264.657H125.016V262.154H131.608V264.657ZM131.608 270.028H125.016V267.538H131.608V270.028ZM133.598 275.301H130.497V259.054H133.598V275.301ZM134.135 280.868H118.852V278.353H134.135V280.868ZM121.977 279.635H118.852V273.653H121.977V279.635ZM121.073 260.335C122.147 260.335 123.132 260.584 124.027 261.08C124.931 261.576 125.643 262.264 126.164 263.143C126.684 264.022 126.949 265.011 126.957 266.109C126.949 267.192 126.68 268.168 126.151 269.039C125.631 269.91 124.923 270.597 124.027 271.102C123.132 271.598 122.147 271.847 121.073 271.847C119.958 271.847 118.949 271.598 118.046 271.102C117.151 270.597 116.443 269.91 115.922 269.039C115.409 268.168 115.153 267.192 115.153 266.109C115.153 265.011 115.409 264.022 115.922 263.143C116.443 262.264 117.151 261.576 118.046 261.08C118.949 260.584 119.958 260.335 121.073 260.335ZM121.073 263.106C120.495 263.098 119.983 263.216 119.535 263.46C119.088 263.705 118.738 264.055 118.485 264.51C118.233 264.966 118.107 265.499 118.107 266.109C118.107 266.712 118.233 267.236 118.485 267.684C118.738 268.132 119.088 268.478 119.535 268.722C119.983 268.958 120.495 269.08 121.073 269.088C121.627 269.08 122.123 268.958 122.562 268.722C123.002 268.478 123.348 268.132 123.6 267.684C123.852 267.236 123.979 266.712 123.979 266.109C123.979 265.499 123.852 264.97 123.6 264.522C123.348 264.067 123.002 263.717 122.562 263.473C122.123 263.22 121.627 263.098 121.073 263.106ZM152.885 262.801H138.798V260.335H152.885V262.801ZM156.754 272.298H136.491V269.784H156.754V272.298ZM148.075 281.271H144.95V271.529H148.075V281.271ZM154.374 262.435C154.366 263.493 154.35 264.417 154.325 265.206C154.301 265.995 154.219 266.907 154.081 267.94C153.951 268.974 153.751 270.089 153.483 271.285L150.407 270.943C150.667 269.812 150.858 268.75 150.98 267.757C151.103 266.756 151.18 265.882 151.212 265.133C151.245 264.384 151.261 263.481 151.261 262.423V262.313V260.335H154.374V262.313V262.435ZM178.41 278.597H158.097V276.107H178.41V278.597ZM169.682 276.766H166.581V271.065H169.682V276.766ZM169.193 261.886C169.193 263.473 168.815 264.954 168.058 266.329C167.309 267.696 166.231 268.86 164.823 269.82C163.424 270.781 161.784 271.436 159.904 271.786L158.561 269.186C160.181 268.933 161.588 268.433 162.785 267.684C163.981 266.927 164.888 266.044 165.507 265.035C166.133 264.018 166.451 262.968 166.459 261.886V260.311H169.193V261.886ZM169.767 261.886C169.767 262.976 170.08 264.03 170.707 265.047C171.342 266.056 172.257 266.935 173.454 267.684C174.658 268.433 176.078 268.933 177.714 269.186L176.383 271.786C174.495 271.436 172.847 270.789 171.439 269.845C170.032 268.893 168.949 267.733 168.192 266.366C167.436 264.99 167.061 263.497 167.069 261.886V260.311H169.767V261.886Z" fill="white"/>
<path d="M109.854 375.514H107.373V372.76H109.854V375.514ZM116.748 373.316H100.537V371.354H116.748V373.316ZM115.283 365.504H101.953V363.512H115.283V365.504ZM115.176 370.211H102.08V368.209H115.176V370.211ZM106.748 369.566H104.258V364.264H106.748V369.566ZM112.979 369.566H110.479V364.264H112.979V369.566ZM114.805 380.602H102.412V374.85H114.805V380.602ZM104.863 378.6H112.363V376.764H104.863V378.6ZM132.666 372.145H130.195V363.004H132.666V372.145ZM132.686 377.594H123.242V379.498H120.811V375.816H130.205V374.732H120.771V372.848H132.686V377.594ZM133.174 380.67H120.811V378.756H133.174V380.67ZM124.248 365.426C124.242 366.493 124.043 367.49 123.652 368.414C123.262 369.339 122.676 370.146 121.895 370.836C121.113 371.52 120.16 372.021 119.033 372.34L117.9 370.377C118.844 370.11 119.639 369.719 120.283 369.205C120.934 368.684 121.416 368.102 121.729 367.457C122.048 366.806 122.207 366.129 122.207 365.426V364.684H124.248V365.426ZM124.736 365.426C124.736 366.09 124.893 366.725 125.205 367.33C125.518 367.936 125.993 368.479 126.631 368.961C127.269 369.436 128.057 369.798 128.994 370.045L127.812 371.979C126.706 371.673 125.775 371.197 125.02 370.553C124.264 369.902 123.695 369.137 123.311 368.258C122.933 367.379 122.747 366.435 122.754 365.426V364.684H124.736V365.426ZM128.32 365.826H118.545V363.844H128.32V365.826ZM138.359 370.797C140.228 370.79 141.689 370.761 142.744 370.709C143.805 370.657 144.87 370.54 145.938 370.357L146.182 372.301C145.003 372.503 143.809 372.633 142.598 372.691C141.387 372.75 139.723 372.776 137.607 372.77H136.074V370.797H137.607H138.359ZM144.688 366.031H138.584V371.617H136.074V364.039H144.688V366.031ZM144.17 369.352H137.812V367.418H144.17V369.352ZM149.971 373.59H147.48V363.043H149.971V373.59ZM149.971 380.602H138.066V374.312H149.971V380.602ZM140.518 378.6H147.529V376.256H140.518V378.6Z" fill="#1D1D1D"/>
<path d="M433.887 365.777H422.52V363.805H433.887V365.777ZM436.787 371.92H420.537V369.928H436.787V371.92ZM429.873 375.094H427.373V371.324H429.873V375.094ZM434.863 365.191C434.863 366.246 434.831 367.197 434.766 368.043C434.707 368.883 434.554 369.83 434.307 370.885L431.846 370.621C432.002 369.931 432.119 369.28 432.197 368.668C432.275 368.056 432.324 367.512 432.344 367.037C432.363 366.562 432.376 365.999 432.383 365.348V365.191V363.805H434.863V365.191ZM434.883 380.797H432.383V376.422H422.158V374.459H434.883V380.797ZM453.145 380.797H450.742V363.004H453.145V380.797ZM451.396 371.91H448.379V369.889H451.396V371.91ZM449.082 379.938H446.748V363.326H449.082V379.938ZM441.025 375.26H438.535V364.996H441.025V375.26ZM439.727 374.303C440.755 374.303 441.755 374.267 442.725 374.195C443.701 374.124 444.704 373.987 445.732 373.785L445.996 375.934C444.87 376.129 443.792 376.269 442.764 376.354C441.742 376.432 440.729 376.467 439.727 376.461H438.535V374.303H439.727ZM468.35 367.34H463.057V365.367H468.35V367.34ZM468.35 371.305H463.057V369.322H468.35V371.305ZM460.059 363.971C460.938 363.971 461.735 364.156 462.451 364.527C463.167 364.898 463.73 365.419 464.141 366.09C464.551 366.754 464.759 367.499 464.766 368.326C464.759 369.153 464.551 369.895 464.141 370.553C463.73 371.21 463.164 371.728 462.441 372.105C461.725 372.483 460.931 372.672 460.059 372.672C459.167 372.672 458.359 372.483 457.637 372.105C456.921 371.728 456.354 371.21 455.938 370.553C455.527 369.895 455.322 369.153 455.322 368.326C455.322 367.499 455.527 366.754 455.938 366.09C456.354 365.419 456.921 364.898 457.637 364.527C458.359 364.156 459.167 363.971 460.059 363.971ZM460.059 366.109C459.596 366.109 459.186 366.197 458.828 366.373C458.47 366.542 458.19 366.796 457.988 367.135C457.786 367.473 457.686 367.87 457.686 368.326C457.686 368.775 457.786 369.169 457.988 369.508C458.19 369.846 458.47 370.11 458.828 370.299C459.186 370.481 459.596 370.572 460.059 370.572C460.501 370.572 460.898 370.481 461.25 370.299C461.608 370.11 461.885 369.846 462.08 369.508C462.282 369.169 462.383 368.775 462.383 368.326C462.383 367.87 462.282 367.473 462.08 367.135C461.885 366.796 461.611 366.542 461.26 366.373C460.908 366.197 460.508 366.109 460.059 366.109ZM470.078 373.434H467.598V363.004H470.078V373.434ZM464.004 373.805C465.254 373.805 466.338 373.941 467.256 374.215C468.18 374.488 468.89 374.889 469.385 375.416C469.88 375.943 470.13 376.572 470.137 377.301C470.13 378.023 469.88 378.645 469.385 379.166C468.89 379.693 468.18 380.097 467.256 380.377C466.338 380.657 465.254 380.797 464.004 380.797C462.754 380.797 461.67 380.657 460.752 380.377C459.84 380.097 459.137 379.693 458.643 379.166C458.148 378.645 457.9 378.023 457.9 377.301C457.9 376.572 458.148 375.943 458.643 375.416C459.137 374.889 459.84 374.488 460.752 374.215C461.67 373.941 462.754 373.805 464.004 373.805ZM464.004 375.699C463.21 375.706 462.539 375.768 461.992 375.885C461.452 376.002 461.038 376.181 460.752 376.422C460.472 376.656 460.335 376.949 460.342 377.301C460.335 377.639 460.472 377.926 460.752 378.16C461.038 378.388 461.452 378.564 461.992 378.688C462.539 378.805 463.21 378.863 464.004 378.863C464.811 378.863 465.488 378.805 466.035 378.688C466.582 378.564 466.995 378.388 467.275 378.16C467.555 377.926 467.695 377.639 467.695 377.301C467.695 376.949 467.555 376.656 467.275 376.422C466.995 376.181 466.582 376.002 466.035 375.885C465.488 375.768 464.811 375.706 464.004 375.699ZM485.938 368.961H481.445V366.969H485.938V368.961ZM477.344 363.775C478.216 363.775 479.01 363.958 479.727 364.322C480.443 364.68 481.006 365.182 481.416 365.826C481.833 366.464 482.044 367.184 482.051 367.984C482.044 368.798 481.833 369.527 481.416 370.172C481.006 370.816 480.443 371.324 479.727 371.695C479.01 372.06 478.216 372.242 477.344 372.242C476.439 372.242 475.625 372.06 474.902 371.695C474.186 371.324 473.623 370.816 473.213 370.172C472.809 369.527 472.607 368.798 472.607 367.984C472.607 367.184 472.809 366.464 473.213 365.826C473.623 365.182 474.186 364.68 474.902 364.322C475.625 363.958 476.439 363.775 477.344 363.775ZM477.344 365.855C476.882 365.849 476.471 365.93 476.113 366.1C475.755 366.269 475.475 366.516 475.273 366.842C475.072 367.167 474.971 367.548 474.971 367.984C474.971 368.421 475.072 368.801 475.273 369.127C475.475 369.452 475.755 369.706 476.113 369.889C476.471 370.064 476.882 370.156 477.344 370.162C477.793 370.156 478.193 370.064 478.545 369.889C478.903 369.706 479.18 369.452 479.375 369.127C479.57 368.801 479.668 368.421 479.668 367.984C479.668 367.548 479.57 367.167 479.375 366.842C479.18 366.516 478.903 366.269 478.545 366.1C478.193 365.93 477.793 365.849 477.344 365.855ZM487.363 372.584H484.883V363.004H487.363V372.584ZM477.969 375.064H484.883V373.355H487.363V380.602H475.508V373.355H477.969V375.064ZM484.883 378.59V376.988H477.969V378.59H484.883ZM492.93 370.797C494.798 370.79 496.26 370.761 497.314 370.709C498.376 370.657 499.44 370.54 500.508 370.357L500.752 372.301C499.574 372.503 498.379 372.633 497.168 372.691C495.957 372.75 494.294 372.776 492.178 372.77H490.645V370.797H492.178H492.93ZM499.258 366.031H493.154V371.617H490.645V364.039H499.258V366.031ZM498.74 369.352H492.383V367.418H498.74V369.352ZM504.541 373.59H502.051V363.043H504.541V373.59ZM504.541 380.602H492.637V374.312H504.541V380.602ZM495.088 378.6H502.1V376.256H495.088V378.6Z" fill="#1D1D1D"/>
<path d="M763.887 365.777H752.52V363.805H763.887V365.777ZM766.787 371.92H750.537V369.928H766.787V371.92ZM759.873 375.094H757.373V371.324H759.873V375.094ZM764.863 365.191C764.863 366.246 764.831 367.197 764.766 368.043C764.707 368.883 764.554 369.83 764.307 370.885L761.846 370.621C762.002 369.931 762.119 369.28 762.197 368.668C762.275 368.056 762.324 367.512 762.344 367.037C762.363 366.562 762.376 365.999 762.383 365.348V365.191V363.805H764.863V365.191ZM764.883 380.797H762.383V376.422H752.158V374.459H764.883V380.797ZM783.145 380.797H780.742V363.004H783.145V380.797ZM781.396 371.91H778.379V369.889H781.396V371.91ZM779.082 379.938H776.748V363.326H779.082V379.938ZM771.025 375.26H768.535V364.996H771.025V375.26ZM769.727 374.303C770.755 374.303 771.755 374.267 772.725 374.195C773.701 374.124 774.704 373.987 775.732 373.785L775.996 375.934C774.87 376.129 773.792 376.269 772.764 376.354C771.742 376.432 770.729 376.467 769.727 376.461H768.535V374.303H769.727ZM794.199 376.451H785.664V364.703H794.199V376.451ZM788.115 374.488H791.729V366.646H788.115V374.488ZM799.121 380.797H796.621V363.004H799.121V380.797ZM801.758 371.803H798.574V369.723H801.758V371.803ZM810.293 365.025C810.286 366.842 810.098 368.473 809.727 369.918C809.355 371.357 808.685 372.698 807.715 373.941C806.751 375.185 805.42 376.295 803.721 377.271L802.324 375.562C803.757 374.736 804.88 373.824 805.693 372.828C806.514 371.826 807.087 370.732 807.412 369.547C807.744 368.362 807.913 366.998 807.92 365.455V365.025H810.293ZM808.701 367.027H803.291V365.025H808.701V367.027ZM802.705 371.48L802.412 369.361L807.939 369.068V370.953L802.705 371.48ZM812.51 371.754H808.799V369.752H812.51V371.754ZM817.783 380.797H815.439V363.004H817.783V380.797ZM814.004 380.016H811.66V363.424H814.004V380.016ZM822.734 370.992C824.681 370.999 826.191 370.979 827.266 370.934C828.34 370.882 829.421 370.764 830.508 370.582L830.752 372.535C829.567 372.73 828.359 372.857 827.129 372.916C825.905 372.975 824.255 373.001 822.178 372.994H820.645V370.992H822.178H822.734ZM829.258 366.246H823.154V371.842H820.645V364.264H829.258V366.246ZM828.74 369.566H822.383V367.633H828.74V369.566ZM834.541 373.805H832.051V363.043H834.541V373.805ZM828.506 374.039C829.749 374.046 830.83 374.182 831.748 374.449C832.673 374.71 833.382 375.094 833.877 375.602C834.378 376.109 834.629 376.718 834.629 377.428C834.629 378.131 834.378 378.733 833.877 379.234C833.382 379.742 832.676 380.13 831.758 380.396C830.84 380.663 829.756 380.797 828.506 380.797C827.243 380.797 826.152 380.663 825.234 380.396C824.316 380.13 823.61 379.742 823.115 379.234C822.627 378.733 822.383 378.131 822.383 377.428C822.383 376.718 822.627 376.109 823.115 375.602C823.61 375.094 824.316 374.71 825.234 374.449C826.152 374.182 827.243 374.046 828.506 374.039ZM828.506 375.963C827.705 375.963 827.035 376.018 826.494 376.129C825.954 376.233 825.547 376.396 825.273 376.617C825 376.839 824.867 377.109 824.873 377.428C824.867 377.753 825 378.023 825.273 378.238C825.547 378.453 825.954 378.616 826.494 378.727C827.035 378.837 827.705 378.896 828.506 378.902C829.294 378.896 829.958 378.837 830.498 378.727C831.038 378.616 831.449 378.453 831.729 378.238C832.008 378.017 832.148 377.747 832.148 377.428C832.148 377.109 832.008 376.842 831.729 376.627C831.449 376.406 831.035 376.24 830.488 376.129C829.948 376.018 829.287 375.963 828.506 375.963ZM840.215 370.797C842.083 370.79 843.545 370.761 844.6 370.709C845.661 370.657 846.725 370.54 847.793 370.357L848.037 372.301C846.859 372.503 845.664 372.633 844.453 372.691C843.242 372.75 841.579 372.776 839.463 372.77H837.93V370.797H839.463H840.215ZM846.543 366.031H840.439V371.617H837.93V364.039H846.543V366.031ZM846.025 369.352H839.668V367.418H846.025V369.352ZM851.826 373.59H849.336V363.043H851.826V373.59ZM851.826 380.602H839.922V374.312H851.826V380.602ZM842.373 378.6H849.385V376.256H842.373V378.6Z" fill="#1D1D1D"/>
<path d="M95.916 428.525H90.6426V426.523H95.916V428.525ZM95.916 432.822H90.6426V430.83H95.916V432.822ZM97.5078 437.041H95.0273V424.043H97.5078V437.041ZM97.9375 441.494H85.7109V439.482H97.9375V441.494ZM88.2109 440.508H85.7109V435.723H88.2109V440.508ZM87.4883 425.068C88.3477 425.068 89.1354 425.267 89.8516 425.664C90.5742 426.061 91.1439 426.611 91.5605 427.314C91.9772 428.018 92.1888 428.809 92.1953 429.688C92.1888 430.553 91.974 431.335 91.5508 432.031C91.1341 432.728 90.5677 433.278 89.8516 433.682C89.1354 434.079 88.3477 434.277 87.4883 434.277C86.5964 434.277 85.7891 434.079 85.0664 433.682C84.3503 433.278 83.7839 432.728 83.3672 432.031C82.957 431.335 82.752 430.553 82.752 429.688C82.752 428.809 82.957 428.018 83.3672 427.314C83.7839 426.611 84.3503 426.061 85.0664 425.664C85.7891 425.267 86.5964 425.068 87.4883 425.068ZM87.4883 427.285C87.026 427.279 86.6159 427.373 86.2578 427.568C85.8997 427.764 85.6198 428.044 85.418 428.408C85.2161 428.773 85.1152 429.199 85.1152 429.688C85.1152 430.169 85.2161 430.589 85.418 430.947C85.6198 431.305 85.8997 431.582 86.2578 431.777C86.6159 431.966 87.026 432.064 87.4883 432.07C87.931 432.064 88.3281 431.966 88.6797 431.777C89.0312 431.582 89.3079 431.305 89.5098 430.947C89.7116 430.589 89.8125 430.169 89.8125 429.688C89.8125 429.199 89.7116 428.776 89.5098 428.418C89.3079 428.053 89.0312 427.773 88.6797 427.578C88.3281 427.376 87.931 427.279 87.4883 427.285ZM112.938 427.041H101.668V425.068H112.938V427.041ZM116.033 434.639H99.8223V432.627H116.033V434.639ZM109.09 441.816H106.59V434.023H109.09V441.816ZM114.129 426.748C114.122 427.594 114.109 428.333 114.09 428.965C114.07 429.596 114.005 430.326 113.895 431.152C113.79 431.979 113.631 432.871 113.416 433.828L110.955 433.555C111.163 432.65 111.316 431.8 111.414 431.006C111.512 430.205 111.574 429.505 111.6 428.906C111.626 428.307 111.639 427.585 111.639 426.738V426.65V425.068H114.129V426.65V426.748ZM132.43 441.797H130.027V424.004H132.43V441.797ZM130.75 432.754H127.723V430.752H130.75V432.754ZM124.832 426.221C124.826 427.965 124.62 429.551 124.217 430.977C123.82 432.396 123.143 433.711 122.186 434.922C121.229 436.126 119.943 437.197 118.328 438.135L116.883 436.426C118.237 435.625 119.321 434.746 120.135 433.789C120.955 432.832 121.544 431.777 121.902 430.625C122.267 429.473 122.452 428.167 122.459 426.709V426.221H124.832ZM123.182 428.203H117.781V426.221H123.182V428.203ZM128.406 441.006H126.082V424.473H128.406V441.006ZM137.381 426.934H141.023V424.814H143.523V432.578H134.91V424.814H137.381V426.934ZM141.023 430.615V428.799H137.381V430.615H141.023ZM148.484 433.066H145.994V424.004H148.484V433.066ZM150.887 429.502H147.449V427.48H150.887V429.502ZM148.484 438.564H139.178V440.693H136.727V436.777H146.004V435.664H136.697V433.74H148.484V438.564ZM149.002 441.67H136.727V439.717H149.002V441.67ZM154.93 431.797C156.798 431.79 158.26 431.761 159.314 431.709C160.376 431.657 161.44 431.54 162.508 431.357L162.752 433.301C161.574 433.503 160.379 433.633 159.168 433.691C157.957 433.75 156.294 433.776 154.178 433.77H152.645V431.797H154.178H154.93ZM161.258 427.031H155.154V432.617H152.645V425.039H161.258V427.031ZM160.74 430.352H154.383V428.418H160.74V430.352ZM166.541 434.59H164.051V424.043H166.541V434.59ZM166.541 441.602H154.637V435.312H166.541V441.602ZM157.088 439.6H164.1V437.256H157.088V439.6Z" fill="#1D1D1D"/>
<path d="M433.779 428.34H428.486V426.367H433.779V428.34ZM433.779 432.305H428.486V430.322H433.779V432.305ZM425.488 424.971C426.367 424.971 427.165 425.156 427.881 425.527C428.597 425.898 429.16 426.419 429.57 427.09C429.98 427.754 430.189 428.499 430.195 429.326C430.189 430.153 429.98 430.895 429.57 431.553C429.16 432.21 428.594 432.728 427.871 433.105C427.155 433.483 426.361 433.672 425.488 433.672C424.596 433.672 423.789 433.483 423.066 433.105C422.35 432.728 421.784 432.21 421.367 431.553C420.957 430.895 420.752 430.153 420.752 429.326C420.752 428.499 420.957 427.754 421.367 427.09C421.784 426.419 422.35 425.898 423.066 425.527C423.789 425.156 424.596 424.971 425.488 424.971ZM425.488 427.109C425.026 427.109 424.616 427.197 424.258 427.373C423.9 427.542 423.62 427.796 423.418 428.135C423.216 428.473 423.115 428.87 423.115 429.326C423.115 429.775 423.216 430.169 423.418 430.508C423.62 430.846 423.9 431.11 424.258 431.299C424.616 431.481 425.026 431.572 425.488 431.572C425.931 431.572 426.328 431.481 426.68 431.299C427.038 431.11 427.314 430.846 427.51 430.508C427.712 430.169 427.812 429.775 427.812 429.326C427.812 428.87 427.712 428.473 427.51 428.135C427.314 427.796 427.041 427.542 426.689 427.373C426.338 427.197 425.938 427.109 425.488 427.109ZM435.508 434.434H433.027V424.004H435.508V434.434ZM429.434 434.805C430.684 434.805 431.768 434.941 432.686 435.215C433.61 435.488 434.32 435.889 434.814 436.416C435.309 436.943 435.56 437.572 435.566 438.301C435.56 439.023 435.309 439.645 434.814 440.166C434.32 440.693 433.61 441.097 432.686 441.377C431.768 441.657 430.684 441.797 429.434 441.797C428.184 441.797 427.1 441.657 426.182 441.377C425.27 441.097 424.567 440.693 424.072 440.166C423.577 439.645 423.33 439.023 423.33 438.301C423.33 437.572 423.577 436.943 424.072 436.416C424.567 435.889 425.27 435.488 426.182 435.215C427.1 434.941 428.184 434.805 429.434 434.805ZM429.434 436.699C428.639 436.706 427.969 436.768 427.422 436.885C426.882 437.002 426.468 437.181 426.182 437.422C425.902 437.656 425.765 437.949 425.771 438.301C425.765 438.639 425.902 438.926 426.182 439.16C426.468 439.388 426.882 439.564 427.422 439.688C427.969 439.805 428.639 439.863 429.434 439.863C430.241 439.863 430.918 439.805 431.465 439.688C432.012 439.564 432.425 439.388 432.705 439.16C432.985 438.926 433.125 438.639 433.125 438.301C433.125 437.949 432.985 437.656 432.705 437.422C432.425 437.181 432.012 437.002 431.465 436.885C430.918 436.768 430.241 436.706 429.434 436.699ZM451.367 429.961H446.875V427.969H451.367V429.961ZM442.773 424.775C443.646 424.775 444.44 424.958 445.156 425.322C445.872 425.68 446.436 426.182 446.846 426.826C447.262 427.464 447.474 428.184 447.48 428.984C447.474 429.798 447.262 430.527 446.846 431.172C446.436 431.816 445.872 432.324 445.156 432.695C444.44 433.06 443.646 433.242 442.773 433.242C441.868 433.242 441.055 433.06 440.332 432.695C439.616 432.324 439.053 431.816 438.643 431.172C438.239 430.527 438.037 429.798 438.037 428.984C438.037 428.184 438.239 427.464 438.643 426.826C439.053 426.182 439.616 425.68 440.332 425.322C441.055 424.958 441.868 424.775 442.773 424.775ZM442.773 426.855C442.311 426.849 441.901 426.93 441.543 427.1C441.185 427.269 440.905 427.516 440.703 427.842C440.501 428.167 440.4 428.548 440.4 428.984C440.4 429.421 440.501 429.801 440.703 430.127C440.905 430.452 441.185 430.706 441.543 430.889C441.901 431.064 442.311 431.156 442.773 431.162C443.223 431.156 443.623 431.064 443.975 430.889C444.333 430.706 444.609 430.452 444.805 430.127C445 429.801 445.098 429.421 445.098 428.984C445.098 428.548 445 428.167 444.805 427.842C444.609 427.516 444.333 427.269 443.975 427.1C443.623 426.93 443.223 426.849 442.773 426.855ZM452.793 433.584H450.312V424.004H452.793V433.584ZM443.398 436.064H450.312V434.355H452.793V441.602H440.938V434.355H443.398V436.064ZM450.312 439.59V437.988H443.398V439.59H450.312ZM468.037 427.529H456.699V425.557H468.037V427.529ZM471.318 439.619H455.107V437.598H471.318V439.619ZM461.035 438.262H458.545V432.012H461.035V438.262ZM469.834 427.383C469.834 428.346 469.824 429.193 469.805 429.922C469.785 430.651 469.727 431.488 469.629 432.432C469.531 433.376 469.382 434.398 469.18 435.498L466.729 435.264C466.917 434.242 467.054 433.275 467.139 432.363C467.23 431.452 467.285 430.648 467.305 429.951C467.324 429.248 467.337 428.405 467.344 427.422V427.295V425.557H469.834V427.295V427.383ZM465.449 438.262H462.998V432.012H465.449V438.262ZM478.721 436.807H476.221V433.271H478.721V436.807ZM484.678 436.777H482.217V433.271H484.678V436.777ZM488.604 434.297H472.393V432.334H488.604V434.297ZM486.621 441.797H484.141V437.9H474.18V435.957H486.621V441.797ZM480.488 424.375C481.79 424.368 482.926 424.505 483.896 424.785C484.873 425.059 485.625 425.462 486.152 425.996C486.68 426.53 486.943 427.152 486.943 427.861C486.943 428.577 486.676 429.202 486.143 429.736C485.615 430.27 484.863 430.68 483.887 430.967C482.917 431.247 481.784 431.383 480.488 431.377C479.186 431.383 478.047 431.247 477.07 430.967C476.094 430.68 475.339 430.27 474.805 429.736C474.271 429.202 474.004 428.577 474.004 427.861C474.004 427.152 474.271 426.53 474.805 425.996C475.339 425.462 476.09 425.059 477.061 424.785C478.037 424.505 479.18 424.368 480.488 424.375ZM480.488 426.309C479.661 426.309 478.955 426.367 478.369 426.484C477.79 426.595 477.347 426.771 477.041 427.012C476.742 427.246 476.592 427.529 476.592 427.861C476.592 428.213 476.742 428.509 477.041 428.75C477.347 428.984 477.786 429.163 478.359 429.287C478.939 429.404 479.648 429.463 480.488 429.463C481.315 429.463 482.018 429.404 482.598 429.287C483.184 429.163 483.626 428.984 483.926 428.75C484.225 428.509 484.375 428.213 484.375 427.861C484.375 427.529 484.222 427.246 483.916 427.012C483.61 426.771 483.167 426.595 482.588 426.484C482.008 426.367 481.309 426.309 480.488 426.309ZM492.93 431.797C494.798 431.79 496.26 431.761 497.314 431.709C498.376 431.657 499.44 431.54 500.508 431.357L500.752 433.301C499.574 433.503 498.379 433.633 497.168 433.691C495.957 433.75 494.294 433.776 492.178 433.77H490.645V431.797H492.178H492.93ZM499.258 427.031H493.154V432.617H490.645V425.039H499.258V427.031ZM498.74 430.352H492.383V428.418H498.74V430.352ZM504.541 434.59H502.051V424.043H504.541V434.59ZM504.541 441.602H492.637V435.312H504.541V441.602ZM495.088 439.6H502.1V437.256H495.088V439.6Z" fill="#1D1D1D"/>
<path d="M759.102 428.711H750.498V426.729H759.102V428.711ZM754.834 429.512C755.583 429.512 756.253 429.691 756.846 430.049C757.445 430.407 757.91 430.908 758.242 431.553C758.574 432.191 758.74 432.917 758.74 433.73C758.74 434.551 758.574 435.28 758.242 435.918C757.91 436.556 757.445 437.061 756.846 437.432C756.253 437.796 755.583 437.979 754.834 437.979C754.092 437.979 753.421 437.796 752.822 437.432C752.223 437.061 751.758 436.556 751.426 435.918C751.094 435.273 750.928 434.544 750.928 433.73C750.928 432.923 751.094 432.201 751.426 431.562C751.764 430.918 752.23 430.417 752.822 430.059C753.421 429.694 754.092 429.512 754.834 429.512ZM754.834 431.582C754.489 431.582 754.186 431.667 753.926 431.836C753.672 432.005 753.473 432.253 753.33 432.578C753.187 432.904 753.118 433.288 753.125 433.73C753.118 434.173 753.187 434.554 753.33 434.873C753.473 435.192 753.672 435.436 753.926 435.605C754.186 435.775 754.486 435.859 754.824 435.859C755.169 435.859 755.472 435.775 755.732 435.605C755.993 435.436 756.195 435.192 756.338 434.873C756.488 434.554 756.562 434.173 756.562 433.73C756.562 433.288 756.488 432.904 756.338 432.578C756.195 432.253 755.99 432.005 755.723 431.836C755.462 431.667 755.166 431.582 754.834 431.582ZM765.898 441.797H763.525V424.004H765.898V441.797ZM764.316 433.242H761.328V431.26H764.316V433.242ZM762.09 441.035H759.756V424.375H762.09V441.035ZM756.055 427.979H753.604V424.512H756.055V427.979ZM774.805 436.68H772.314V432.891H774.805V436.68ZM773.574 425.078C774.505 425.078 775.345 425.264 776.094 425.635C776.842 426.006 777.428 426.523 777.852 427.188C778.281 427.845 778.496 428.594 778.496 429.434C778.496 430.273 778.281 431.025 777.852 431.689C777.428 432.347 776.842 432.861 776.094 433.232C775.345 433.597 774.505 433.779 773.574 433.779C772.643 433.779 771.8 433.597 771.045 433.232C770.296 432.861 769.707 432.347 769.277 431.689C768.848 431.025 768.633 430.273 768.633 429.434C768.633 428.6 768.848 427.852 769.277 427.188C769.707 426.523 770.296 426.006 771.045 425.635C771.8 425.264 772.643 425.078 773.574 425.078ZM773.574 427.217C773.099 427.217 772.676 427.305 772.305 427.48C771.934 427.65 771.641 427.904 771.426 428.242C771.211 428.574 771.104 428.971 771.104 429.434C771.104 429.883 771.211 430.277 771.426 430.615C771.641 430.947 771.934 431.204 772.305 431.387C772.682 431.569 773.105 431.66 773.574 431.66C774.043 431.66 774.469 431.569 774.854 431.387C775.238 431.204 775.534 430.947 775.742 430.615C775.957 430.277 776.064 429.883 776.064 429.434C776.064 428.971 775.957 428.574 775.742 428.242C775.534 427.904 775.238 427.65 774.854 427.48C774.476 427.305 774.049 427.217 773.574 427.217ZM782.744 441.846H780.273V424.004H782.744V441.846ZM767.891 436.211C770.052 436.211 772.067 436.175 773.936 436.104C775.804 436.032 777.581 435.879 779.268 435.645L779.443 437.441C778.232 437.669 776.979 437.842 775.684 437.959C774.395 438.07 773.2 438.141 772.1 438.174C770.999 438.206 769.707 438.226 768.223 438.232H768.184L767.891 436.211ZM794.199 437.451H785.664V425.703H794.199V437.451ZM788.115 435.488H791.729V427.646H788.115V435.488ZM799.121 441.797H796.621V424.004H799.121V441.797ZM801.758 432.803H798.574V430.723H801.758V432.803ZM810.293 426.025C810.286 427.842 810.098 429.473 809.727 430.918C809.355 432.357 808.685 433.698 807.715 434.941C806.751 436.185 805.42 437.295 803.721 438.271L802.324 436.562C803.757 435.736 804.88 434.824 805.693 433.828C806.514 432.826 807.087 431.732 807.412 430.547C807.744 429.362 807.913 427.998 807.92 426.455V426.025H810.293ZM808.701 428.027H803.291V426.025H808.701V428.027ZM802.705 432.48L802.412 430.361L807.939 430.068V431.953L802.705 432.48ZM812.51 432.754H808.799V430.752H812.51V432.754ZM817.783 441.797H815.439V424.004H817.783V441.797ZM814.004 441.016H811.66V424.424H814.004V441.016ZM822.734 431.992C824.681 431.999 826.191 431.979 827.266 431.934C828.34 431.882 829.421 431.764 830.508 431.582L830.752 433.535C829.567 433.73 828.359 433.857 827.129 433.916C825.905 433.975 824.255 434.001 822.178 433.994H820.645V431.992H822.178H822.734ZM829.258 427.246H823.154V432.842H820.645V425.264H829.258V427.246ZM828.74 430.566H822.383V428.633H828.74V430.566ZM834.541 434.805H832.051V424.043H834.541V434.805ZM828.506 435.039C829.749 435.046 830.83 435.182 831.748 435.449C832.673 435.71 833.382 436.094 833.877 436.602C834.378 437.109 834.629 437.718 834.629 438.428C834.629 439.131 834.378 439.733 833.877 440.234C833.382 440.742 832.676 441.13 831.758 441.396C830.84 441.663 829.756 441.797 828.506 441.797C827.243 441.797 826.152 441.663 825.234 441.396C824.316 441.13 823.61 440.742 823.115 440.234C822.627 439.733 822.383 439.131 822.383 438.428C822.383 437.718 822.627 437.109 823.115 436.602C823.61 436.094 824.316 435.71 825.234 435.449C826.152 435.182 827.243 435.046 828.506 435.039ZM828.506 436.963C827.705 436.963 827.035 437.018 826.494 437.129C825.954 437.233 825.547 437.396 825.273 437.617C825 437.839 824.867 438.109 824.873 438.428C824.867 438.753 825 439.023 825.273 439.238C825.547 439.453 825.954 439.616 826.494 439.727C827.035 439.837 827.705 439.896 828.506 439.902C829.294 439.896 829.958 439.837 830.498 439.727C831.038 439.616 831.449 439.453 831.729 439.238C832.008 439.017 832.148 438.747 832.148 438.428C832.148 438.109 832.008 437.842 831.729 437.627C831.449 437.406 831.035 437.24 830.488 437.129C829.948 437.018 829.287 436.963 828.506 436.963ZM840.215 431.797C842.083 431.79 843.545 431.761 844.6 431.709C845.661 431.657 846.725 431.54 847.793 431.357L848.037 433.301C846.859 433.503 845.664 433.633 844.453 433.691C843.242 433.75 841.579 433.776 839.463 433.77H837.93V431.797H839.463H840.215ZM846.543 427.031H840.439V432.617H837.93V425.039H846.543V427.031ZM846.025 430.352H839.668V428.418H846.025V430.352ZM851.826 434.59H849.336V424.043H851.826V434.59ZM851.826 441.602H839.922V435.312H851.826V441.602ZM842.373 439.6H849.385V437.256H842.373V439.6Z" fill="#1D1D1D"/>
<path d="M782.41 502.846H779.881V485.004H782.41V502.846ZM770.145 496.488C772.221 496.495 773.842 496.469 775.008 496.41C776.18 496.345 777.339 496.208 778.484 496L778.709 498.041C777.537 498.269 776.329 498.422 775.086 498.5C773.849 498.572 772.202 498.607 770.145 498.607H768.611V496.488H770.145ZM777.244 488.607H771.102V497.309H768.611V486.576H777.244V488.607ZM790.848 489.857C790.848 491.225 790.652 492.546 790.262 493.822C789.878 495.092 789.308 496.225 788.553 497.221C787.804 498.217 786.906 498.962 785.857 499.457L784.393 497.494C785.35 497.045 786.163 496.41 786.834 495.59C787.511 494.77 788.019 493.865 788.357 492.875C788.696 491.885 788.868 490.88 788.875 489.857V487.787H790.848V489.857ZM791.375 489.857C791.368 490.801 791.531 491.739 791.863 492.67C792.195 493.601 792.687 494.457 793.338 495.238C793.995 496.013 794.793 496.615 795.73 497.045L794.344 498.998C793.296 498.523 792.4 497.81 791.658 496.859C790.923 495.909 790.363 494.828 789.979 493.617C789.594 492.4 789.402 491.146 789.402 489.857V487.787H791.375V489.857ZM794.959 488.773H785.105V486.742H794.959V488.773ZM798.836 502.797H796.336V485.004H798.836V502.797ZM801.473 493.891H798.289V491.811H801.473V493.891ZM816.971 497.816H814.48V485.043H816.971V497.816ZM817.459 502.494H805.066V500.482H817.459V502.494ZM807.586 501.303H805.066V496.537H807.586V501.303ZM807.234 486.166C808.133 486.166 808.953 486.358 809.695 486.742C810.444 487.126 811.03 487.66 811.453 488.344C811.883 489.027 812.098 489.792 812.098 490.639C812.098 491.505 811.883 492.283 811.453 492.973C811.03 493.656 810.447 494.193 809.705 494.584C808.963 494.968 808.139 495.16 807.234 495.16C806.329 495.16 805.506 494.968 804.764 494.584C804.028 494.193 803.445 493.656 803.016 492.973C802.586 492.283 802.371 491.505 802.371 490.639C802.371 489.792 802.586 489.027 803.016 488.344C803.445 487.66 804.028 487.126 804.764 486.742C805.506 486.358 806.329 486.166 807.234 486.166ZM807.234 488.334C806.772 488.334 806.355 488.428 805.984 488.617C805.62 488.799 805.33 489.066 805.115 489.418C804.907 489.763 804.803 490.17 804.803 490.639C804.803 491.127 804.907 491.547 805.115 491.898C805.33 492.25 805.62 492.52 805.984 492.709C806.355 492.898 806.772 492.989 807.234 492.982C807.69 492.989 808.097 492.898 808.455 492.709C808.82 492.52 809.106 492.25 809.314 491.898C809.523 491.547 809.627 491.127 809.627 490.639C809.627 490.17 809.523 489.763 809.314 489.418C809.106 489.066 808.82 488.799 808.455 488.617C808.09 488.428 807.684 488.334 807.234 488.334ZM822.645 492.797C824.513 492.79 825.975 492.761 827.029 492.709C828.09 492.657 829.155 492.54 830.223 492.357L830.467 494.301C829.288 494.503 828.094 494.633 826.883 494.691C825.672 494.75 824.008 494.776 821.893 494.77H820.359V492.797H821.893H822.645ZM828.973 488.031H822.869V493.617H820.359V486.039H828.973V488.031ZM828.455 491.352H822.098V489.418H828.455V491.352ZM834.256 495.59H831.766V485.043H834.256V495.59ZM834.256 502.602H822.352V496.312H834.256V502.602ZM824.803 500.6H831.814V498.256H824.803V500.6Z" fill="#1D1D1D"/>
<path d="M448.224 264.425H441.608V261.959H448.224V264.425ZM448.224 269.381H441.608V266.903H448.224V269.381ZM437.86 260.213C438.959 260.213 439.956 260.445 440.851 260.909C441.746 261.373 442.45 262.024 442.963 262.862C443.476 263.692 443.736 264.624 443.744 265.658C443.736 266.691 443.476 267.619 442.963 268.441C442.45 269.263 441.742 269.91 440.839 270.382C439.944 270.854 438.951 271.09 437.86 271.09C436.745 271.09 435.736 270.854 434.833 270.382C433.938 269.91 433.23 269.263 432.709 268.441C432.196 267.619 431.94 266.691 431.94 265.658C431.94 264.624 432.196 263.692 432.709 262.862C433.23 262.024 433.938 261.373 434.833 260.909C435.736 260.445 436.745 260.213 437.86 260.213ZM437.86 262.887C437.283 262.887 436.77 262.997 436.322 263.216C435.875 263.428 435.525 263.745 435.272 264.168C435.02 264.592 434.894 265.088 434.894 265.658C434.894 266.219 435.02 266.712 435.272 267.135C435.525 267.558 435.875 267.888 436.322 268.124C436.77 268.351 437.283 268.465 437.86 268.465C438.414 268.465 438.91 268.351 439.35 268.124C439.797 267.888 440.143 267.558 440.387 267.135C440.639 266.712 440.766 266.219 440.766 265.658C440.766 265.088 440.639 264.592 440.387 264.168C440.143 263.745 439.801 263.428 439.362 263.216C438.922 262.997 438.422 262.887 437.86 262.887ZM450.385 272.042H447.284V259.005H450.385V272.042ZM442.792 272.506C444.354 272.506 445.709 272.677 446.857 273.019C448.013 273.36 448.9 273.861 449.518 274.52C450.137 275.179 450.45 275.965 450.458 276.876C450.45 277.779 450.137 278.556 449.518 279.208C448.9 279.867 448.013 280.371 446.857 280.721C445.709 281.071 444.354 281.246 442.792 281.246C441.229 281.246 439.875 281.071 438.727 280.721C437.588 280.371 436.709 279.867 436.09 279.208C435.472 278.556 435.163 277.779 435.163 276.876C435.163 275.965 435.472 275.179 436.09 274.52C436.709 273.861 437.588 273.36 438.727 273.019C439.875 272.677 441.229 272.506 442.792 272.506ZM442.792 274.874C441.799 274.882 440.961 274.959 440.277 275.106C439.602 275.252 439.085 275.476 438.727 275.777C438.377 276.07 438.206 276.437 438.214 276.876C438.206 277.299 438.377 277.657 438.727 277.95C439.085 278.235 439.602 278.455 440.277 278.609C440.961 278.756 441.799 278.829 442.792 278.829C443.801 278.829 444.647 278.756 445.331 278.609C446.015 278.455 446.531 278.235 446.881 277.95C447.231 277.657 447.406 277.299 447.406 276.876C447.406 276.437 447.231 276.07 446.881 275.777C446.531 275.476 446.015 275.252 445.331 275.106C444.647 274.959 443.801 274.882 442.792 274.874ZM470.209 266.451H464.594V263.961H470.209V266.451ZM459.467 259.969C460.557 259.969 461.55 260.197 462.445 260.653C463.34 261.1 464.044 261.727 464.557 262.533C465.078 263.33 465.342 264.229 465.351 265.23C465.342 266.248 465.078 267.159 464.557 267.965C464.044 268.771 463.34 269.405 462.445 269.869C461.55 270.325 460.557 270.553 459.467 270.553C458.336 270.553 457.318 270.325 456.415 269.869C455.52 269.405 454.816 268.771 454.303 267.965C453.799 267.159 453.546 266.248 453.546 265.23C453.546 264.229 453.799 263.33 454.303 262.533C454.816 261.727 455.52 261.1 456.415 260.653C457.318 260.197 458.336 259.969 459.467 259.969ZM459.467 262.569C458.889 262.561 458.376 262.663 457.929 262.875C457.481 263.086 457.131 263.395 456.879 263.802C456.627 264.209 456.5 264.685 456.5 265.23C456.5 265.776 456.627 266.252 456.879 266.659C457.131 267.066 457.481 267.383 457.929 267.611C458.376 267.831 458.889 267.944 459.467 267.953C460.028 267.944 460.529 267.831 460.968 267.611C461.416 267.383 461.762 267.066 462.006 266.659C462.25 266.252 462.372 265.776 462.372 265.23C462.372 264.685 462.25 264.209 462.006 263.802C461.762 263.395 461.416 263.086 460.968 262.875C460.529 262.663 460.028 262.561 459.467 262.569ZM471.991 270.98H468.891V259.005H471.991V270.98ZM460.248 274.081H468.891V271.944H471.991V281.002H457.172V271.944H460.248V274.081ZM468.891 278.487V276.485H460.248V278.487H468.891ZM495.172 274.288H474.86V271.847H495.172V274.288ZM486.493 281.246H483.405V273.043H486.493V281.246ZM480.304 262.435H489.643V259.884H492.768V269.698H477.228V259.884H480.304V262.435ZM489.643 267.208V264.876H480.304V267.208H489.643Z" fill="white"/>
<path d="M764.92 267.318H759.646V264.791H764.92V267.318ZM766.385 275.277H763.284V259.054H766.385V275.277ZM766.922 280.868H751.639V278.353H766.922V280.868ZM754.764 279.818H751.639V273.849H754.764V279.818ZM755.411 263.363C755.411 264.803 755.179 266.15 754.715 267.403C754.259 268.648 753.559 269.743 752.615 270.687C751.679 271.631 750.524 272.331 749.148 272.787L747.537 270.272C748.717 269.898 749.706 269.356 750.503 268.648C751.301 267.932 751.891 267.123 752.273 266.219C752.664 265.308 752.863 264.356 752.872 263.363V261.922H755.411V263.363ZM756.045 263.387C756.045 264.291 756.233 265.165 756.607 266.012C756.989 266.85 757.559 267.611 758.316 268.294C759.081 268.978 760.029 269.503 761.16 269.869L759.622 272.335C758.279 271.896 757.148 271.224 756.229 270.321C755.317 269.417 754.633 268.376 754.178 267.196C753.73 266.008 753.51 264.738 753.519 263.387V261.922H756.045V263.387ZM760.477 263.045H748.416V260.543H760.477V263.045ZM789.859 264.657H785.965V262.093H789.859V264.657ZM789.859 269.405H785.965V266.854H789.859V269.405ZM771.939 269.21C774.315 269.21 776.244 269.169 777.725 269.088C779.206 268.998 780.683 268.823 782.156 268.563L782.486 271.029C780.956 271.314 779.402 271.509 777.823 271.615C776.252 271.712 774.291 271.757 771.939 271.749H770.071V269.21H771.939ZM780.264 267.086H773.184V270.431H770.071V264.718H777.225V262.765H770.035V260.274H780.264V267.086ZM786.893 272.542H783.78V259.054H786.893V272.542ZM786.893 281.222H783.78V276.034H771.939V273.543H786.893V281.222ZM809.549 281.246H806.387V259.005H809.549V281.246ZM802.896 261.349C802.888 263.733 802.566 265.898 801.932 267.843C801.297 269.78 800.219 271.562 798.697 273.189C797.175 274.817 795.136 276.233 792.581 277.438L790.945 274.947C793.077 273.938 794.791 272.803 796.084 271.542C797.387 270.28 798.331 268.864 798.917 267.293C799.502 265.723 799.795 263.924 799.795 261.898V261.349H802.896ZM801.224 263.802H792.129V261.349H801.224V263.802ZM826.419 262.936H813.248V260.677H826.419V262.936ZM819.839 263.448C820.922 263.448 821.882 263.587 822.72 263.863C823.558 264.132 824.209 264.522 824.673 265.035C825.145 265.548 825.381 266.142 825.381 266.817C825.381 267.485 825.145 268.067 824.673 268.563C824.209 269.059 823.558 269.442 822.72 269.71C821.89 269.979 820.93 270.113 819.839 270.113C818.716 270.113 817.736 269.979 816.897 269.71C816.059 269.442 815.408 269.059 814.944 268.563C814.489 268.067 814.261 267.485 814.261 266.817C814.261 266.142 814.489 265.548 814.944 265.035C815.408 264.522 816.059 264.132 816.897 263.863C817.744 263.587 818.724 263.448 819.839 263.448ZM819.839 265.523C819.294 265.523 818.83 265.572 818.448 265.67C818.065 265.759 817.768 265.902 817.557 266.097C817.353 266.292 817.251 266.533 817.251 266.817C817.251 267.078 817.353 267.302 817.557 267.489C817.768 267.668 818.065 267.806 818.448 267.904C818.838 267.993 819.302 268.034 819.839 268.026C820.352 268.034 820.8 267.993 821.182 267.904C821.565 267.806 821.862 267.668 822.073 267.489C822.285 267.302 822.391 267.078 822.391 266.817C822.391 266.533 822.285 266.292 822.073 266.097C821.862 265.902 821.565 265.759 821.182 265.67C820.8 265.572 820.352 265.523 819.839 265.523ZM821.365 261.849H818.252V258.883H821.365V261.849ZM821.365 272.079H818.252V268.978H821.365V272.079ZM831.143 274.081H827.994V259.066H831.143V274.081ZM831.143 281.246H827.994V277.34H815.701V274.947H831.143V281.246ZM812.588 271.261C815.217 271.269 817.695 271.232 820.022 271.151C822.358 271.069 824.555 270.895 826.614 270.626L826.834 272.726C824.734 273.092 822.553 273.332 820.291 273.446C818.029 273.56 815.595 273.621 812.991 273.629L812.588 271.261ZM854.385 274.288H834.073V271.847H854.385V274.288ZM845.706 281.246H842.618V273.043H845.706V281.246ZM839.517 262.435H848.855V259.884H851.98V269.698H836.441V259.884H839.517V262.435ZM848.855 267.208V264.876H839.517V267.208H848.855Z" fill="white"/>
</svg>
