<svg width="342" height="720" viewBox="0 0 342 720" fill="none" xmlns="http://www.w3.org/2000/svg">
<rect width="207" height="66" rx="33" fill="#1352C3"/>
<rect x="162" y="117" width="178" height="53" rx="26.5" fill="#1457C8"/>
<rect x="162" y="321" width="178" height="53" rx="26.5" fill="#1457C8"/>
<rect x="163" y="526" width="178" height="53" rx="26.5" fill="#1457C8"/>
<rect x="162.5" y="185.5" width="177" height="37" rx="18.5" fill="white" stroke="#1D1D1D"/>
<rect x="164.5" y="389.5" width="177" height="37" rx="18.5" fill="white" stroke="#1D1D1D"/>
<rect x="162.5" y="594.5" width="177" height="37" rx="18.5" fill="white" stroke="#1D1D1D"/>
<rect x="162.5" y="229.5" width="177" height="37" rx="18.5" fill="white" stroke="#1D1D1D"/>
<rect x="164.5" y="433.5" width="177" height="37" rx="18.5" fill="white" stroke="#1D1D1D"/>
<rect x="162.5" y="638.5" width="177" height="37" rx="18.5" fill="white" stroke="#1D1D1D"/>
<rect x="162.5" y="682.5" width="177" height="37" rx="18.5" fill="white" stroke="#1D1D1D"/>
<path d="M74.833 46.6953H71.3174V20.0059H74.833V46.6953ZM72.167 33.3213H67.6406V30.333H72.167V33.3213ZM68.7393 45.4062H65.3115V20.4893H68.7393V45.4062ZM54.4131 37.54C56.3662 37.54 58.041 37.4961 59.4375 37.4082C60.834 37.3203 62.2695 37.1445 63.7441 36.8809L64.0078 39.9131C62.5234 40.2061 61.0635 40.4014 59.6279 40.499C58.2021 40.5869 56.4639 40.6406 54.4131 40.6602H52.5381V37.54H54.4131ZM62.499 26.1289H56.2881V39.0488H52.5381V23.126H62.499V26.1289ZM87.5332 41.7441H83.7686V34.5078H87.5332V41.7441ZM95.9268 41.7881H92.1914V34.5371H95.9268V41.7881ZM102.108 43.7363H77.7334V40.748H102.108V43.7363ZM100.072 25.1621H79.623V22.1592H100.072V25.1621ZM99.9551 35.6797H79.7549V32.6621H99.9551V35.6797ZM87.0498 33.1162H83.3145V24.6348H87.0498V33.1162ZM96.3223 33.1162H92.6455V24.6348H96.3223V33.1162ZM125.971 46.7686H122.177V20.0059H125.971V46.7686ZM111.483 21.8955C112.821 21.8955 114.022 22.2861 115.087 23.0674C116.161 23.8389 116.996 24.9473 117.592 26.3926C118.197 27.8281 118.5 29.498 118.5 31.4023C118.5 33.3164 118.197 34.9961 117.592 36.4414C116.996 37.877 116.161 38.9805 115.087 39.752C114.022 40.5234 112.821 40.9092 111.483 40.9092C110.126 40.9189 108.91 40.5381 107.836 39.7666C106.771 38.9854 105.937 37.877 105.331 36.4414C104.726 34.9961 104.423 33.3164 104.423 31.4023C104.423 29.498 104.726 27.8281 105.331 26.3926C105.937 24.9473 106.771 23.8389 107.836 23.0674C108.91 22.2861 110.126 21.8955 111.483 21.8955ZM111.483 25.2793C110.79 25.2695 110.18 25.5039 109.652 25.9824C109.135 26.4512 108.734 27.1494 108.451 28.0771C108.178 28.9951 108.046 30.1035 108.056 31.4023C108.046 32.7012 108.178 33.8096 108.451 34.7275C108.734 35.6455 109.135 36.3438 109.652 36.8223C110.18 37.291 110.79 37.5254 111.483 37.5254C112.157 37.5254 112.753 37.291 113.271 36.8223C113.788 36.3438 114.188 35.6455 114.472 34.7275C114.755 33.8096 114.896 32.7012 114.896 31.4023C114.896 30.1035 114.755 28.9951 114.472 28.0771C114.188 27.1592 113.788 26.4609 113.271 25.9824C112.753 25.5039 112.157 25.2695 111.483 25.2793ZM138.686 26.0557C138.676 28.3115 138.397 30.4355 137.851 32.4277C137.313 34.4102 136.488 36.1729 135.375 37.7158C134.271 39.249 132.909 40.416 131.288 41.2168L128.988 38.1846C130.453 37.5205 131.684 36.5537 132.68 35.2842C133.676 34.0146 134.418 32.5938 134.906 31.0215C135.395 29.4395 135.644 27.7842 135.653 26.0557V22.0713H138.686V26.0557ZM139.374 26.0557C139.374 27.7158 139.608 29.3027 140.077 30.8164C140.546 32.3301 141.249 33.6973 142.187 34.918C143.134 36.1289 144.301 37.0664 145.688 37.7305L143.432 40.7041C141.869 39.9326 140.561 38.8047 139.506 37.3203C138.461 35.8359 137.68 34.1367 137.162 32.2227C136.645 30.3086 136.391 28.2529 136.4 26.0557V22.0713H139.374V26.0557ZM150.609 46.6953H146.859V20.0059H150.609V46.6953ZM154.564 33.4824H149.789V30.3037H154.564V33.4824Z" fill="white"/>
<path d="M223.889 152.797H221.545V135.004H223.889V152.797ZM218.576 143.129H215.578V141.127H218.576V143.129ZM220.256 151.986H217.922V135.316H220.256V151.986ZM213.635 139.779C213.628 141.166 213.485 142.484 213.205 143.734C212.925 144.984 212.489 146.111 211.896 147.113C211.311 148.116 210.565 148.894 209.66 149.447L208.156 147.611C208.99 147.097 209.676 146.426 210.217 145.6C210.757 144.766 211.148 143.858 211.389 142.875C211.63 141.885 211.75 140.854 211.75 139.779V137.914H213.635V139.779ZM214.152 139.779C214.152 140.827 214.27 141.82 214.504 142.758C214.738 143.695 215.116 144.555 215.637 145.336C216.164 146.111 216.841 146.736 217.668 147.211L216.213 149.037C215.301 148.503 214.556 147.764 213.977 146.82C213.397 145.876 212.974 144.812 212.707 143.627C212.447 142.436 212.316 141.153 212.316 139.779V137.914H214.152V139.779ZM216.848 138.822H208.83V136.83H216.848V138.822ZM242.072 150.727H225.822V148.705H242.072V150.727ZM235.188 149.291H232.678V144.75H235.188V149.291ZM234.709 138.002C234.709 139.252 234.416 140.398 233.83 141.439C233.251 142.475 232.411 143.347 231.311 144.057C230.21 144.766 228.921 145.258 227.443 145.531L226.467 143.559C227.73 143.357 228.824 142.976 229.748 142.416C230.679 141.856 231.385 141.195 231.867 140.434C232.355 139.665 232.6 138.855 232.6 138.002V137.357H234.709V138.002ZM235.217 138.002C235.217 138.855 235.461 139.659 235.949 140.414C236.444 141.169 237.163 141.82 238.107 142.367C239.051 142.908 240.174 143.272 241.477 143.461L240.5 145.424C238.99 145.163 237.678 144.685 236.564 143.988C235.458 143.292 234.605 142.432 234.006 141.41C233.413 140.388 233.12 139.252 233.127 138.002V137.357H235.217V138.002ZM240.656 138.393H227.16V136.371H240.656V138.393ZM256.486 139.525H251.213V137.523H256.486V139.525ZM256.486 143.822H251.213V141.83H256.486V143.822ZM258.078 148.041H255.598V135.043H258.078V148.041ZM258.508 152.494H246.281V150.482H258.508V152.494ZM248.781 151.508H246.281V146.723H248.781V151.508ZM248.059 136.068C248.918 136.068 249.706 136.267 250.422 136.664C251.145 137.061 251.714 137.611 252.131 138.314C252.548 139.018 252.759 139.809 252.766 140.688C252.759 141.553 252.544 142.335 252.121 143.031C251.704 143.728 251.138 144.278 250.422 144.682C249.706 145.079 248.918 145.277 248.059 145.277C247.167 145.277 246.359 145.079 245.637 144.682C244.921 144.278 244.354 143.728 243.938 143.031C243.527 142.335 243.322 141.553 243.322 140.688C243.322 139.809 243.527 139.018 243.938 138.314C244.354 137.611 244.921 137.061 245.637 136.664C246.359 136.267 247.167 136.068 248.059 136.068ZM248.059 138.285C247.596 138.279 247.186 138.373 246.828 138.568C246.47 138.764 246.19 139.044 245.988 139.408C245.786 139.773 245.686 140.199 245.686 140.688C245.686 141.169 245.786 141.589 245.988 141.947C246.19 142.305 246.47 142.582 246.828 142.777C247.186 142.966 247.596 143.064 248.059 143.07C248.501 143.064 248.898 142.966 249.25 142.777C249.602 142.582 249.878 142.305 250.08 141.947C250.282 141.589 250.383 141.169 250.383 140.688C250.383 140.199 250.282 139.776 250.08 139.418C249.878 139.053 249.602 138.773 249.25 138.578C248.898 138.376 248.501 138.279 248.059 138.285ZM273.508 138.041H262.238V136.068H273.508V138.041ZM276.604 145.639H260.393V143.627H276.604V145.639ZM269.66 152.816H267.16V145.023H269.66V152.816ZM274.699 137.748C274.693 138.594 274.68 139.333 274.66 139.965C274.641 140.596 274.576 141.326 274.465 142.152C274.361 142.979 274.201 143.871 273.986 144.828L271.525 144.555C271.734 143.65 271.887 142.8 271.984 142.006C272.082 141.205 272.144 140.505 272.17 139.906C272.196 139.307 272.209 138.585 272.209 137.738V137.65V136.068H274.699V137.65V137.748ZM293.928 150.678H277.678V148.686H293.928V150.678ZM286.945 149.213H284.465V144.652H286.945V149.213ZM286.555 137.309C286.555 138.578 286.252 139.763 285.646 140.863C285.048 141.957 284.185 142.888 283.059 143.656C281.939 144.424 280.627 144.949 279.123 145.229L278.049 143.148C279.344 142.947 280.471 142.546 281.428 141.947C282.385 141.342 283.111 140.635 283.605 139.828C284.107 139.014 284.361 138.174 284.367 137.309V136.049H286.555V137.309ZM287.014 137.309C287.014 138.181 287.264 139.024 287.766 139.838C288.273 140.645 289.006 141.348 289.963 141.947C290.926 142.546 292.062 142.947 293.371 143.148L292.307 145.229C290.796 144.949 289.478 144.431 288.352 143.676C287.225 142.914 286.359 141.986 285.754 140.893C285.148 139.792 284.849 138.598 284.855 137.309V136.049H287.014V137.309Z" fill="white"/>
<path d="M239.897 206.56H238.161V204.632H239.897V206.56ZM244.724 205.021H233.376V203.647H244.724V205.021ZM243.698 199.553H234.367V198.158H243.698V199.553ZM243.623 202.848H234.456V201.446H243.623V202.848ZM237.724 202.396H235.98V198.685H237.724V202.396ZM242.085 202.396H240.335V198.685H242.085V202.396ZM243.363 210.121H234.688V206.095H243.363V210.121ZM236.404 208.72H241.654V207.435H236.404V208.72ZM255.866 204.201H254.137V197.803H255.866V204.201ZM255.88 208.016H249.27V209.349H247.567V206.771H254.144V206.013H247.54V204.693H255.88V208.016ZM256.222 210.169H247.567V208.829H256.222V210.169ZM249.974 199.498C249.969 200.245 249.83 200.943 249.557 201.59C249.283 202.237 248.873 202.802 248.326 203.285C247.779 203.764 247.112 204.115 246.323 204.338L245.53 202.964C246.191 202.777 246.747 202.504 247.198 202.144C247.654 201.779 247.991 201.371 248.21 200.92C248.433 200.464 248.545 199.99 248.545 199.498V198.979H249.974V199.498ZM250.315 199.498C250.315 199.963 250.425 200.407 250.644 200.831C250.862 201.255 251.195 201.635 251.642 201.973C252.088 202.305 252.64 202.558 253.296 202.731L252.469 204.085C251.694 203.871 251.042 203.538 250.514 203.087C249.985 202.631 249.586 202.096 249.317 201.48C249.053 200.865 248.923 200.204 248.928 199.498V198.979H250.315V199.498ZM252.824 199.778H245.981V198.391H252.824V199.778ZM259.852 203.258C261.16 203.253 262.183 203.233 262.921 203.196C263.664 203.16 264.409 203.078 265.156 202.95L265.327 204.311C264.502 204.452 263.666 204.543 262.818 204.584C261.971 204.625 260.806 204.643 259.325 204.639H258.252V203.258H259.325H259.852ZM264.281 199.922H260.009V203.832H258.252V198.527H264.281V199.922ZM263.919 202.246H259.469V200.893H263.919V202.246ZM267.979 205.213H266.236V197.83H267.979V205.213ZM267.979 210.121H259.646V205.719H267.979V210.121ZM261.362 208.72H266.271V207.079H261.362V208.72Z" fill="#1D1D1D"/>
<path d="M231.721 403.744H223.764V402.363H231.721V403.744ZM233.751 408.044H222.376V406.649H233.751V408.044ZM228.911 410.266H227.161V407.627H228.911V410.266ZM232.404 403.334C232.404 404.072 232.382 404.738 232.336 405.33C232.295 405.918 232.188 406.581 232.015 407.319L230.292 407.135C230.401 406.652 230.483 406.196 230.538 405.768C230.593 405.339 230.627 404.959 230.641 404.626C230.654 404.293 230.663 403.899 230.668 403.443V403.334V402.363H232.404V403.334ZM232.418 414.258H230.668V411.195H223.511V409.821H232.418V414.258ZM245.201 414.258H243.52V401.803H245.201V414.258ZM243.978 408.037H241.865V406.622H243.978V408.037ZM242.357 413.656H240.724V402.028H242.357V413.656ZM236.718 410.382H234.975V403.197H236.718V410.382ZM235.809 409.712C236.529 409.712 237.228 409.687 237.907 409.637C238.591 409.587 239.293 409.491 240.013 409.35L240.197 410.854C239.409 410.99 238.655 411.088 237.935 411.147C237.219 411.202 236.51 411.227 235.809 411.223H234.975V409.712H235.809ZM255.845 404.838H252.14V403.457H255.845V404.838ZM255.845 407.613H252.14V406.226H255.845V407.613ZM250.041 402.479C250.656 402.479 251.215 402.609 251.716 402.869C252.217 403.129 252.611 403.493 252.898 403.963C253.186 404.428 253.331 404.95 253.336 405.528C253.331 406.107 253.186 406.627 252.898 407.087C252.611 407.547 252.215 407.91 251.709 408.174C251.208 408.438 250.652 408.57 250.041 408.57C249.417 408.57 248.852 408.438 248.346 408.174C247.844 407.91 247.448 407.547 247.156 407.087C246.869 406.627 246.726 406.107 246.726 405.528C246.726 404.95 246.869 404.428 247.156 403.963C247.448 403.493 247.844 403.129 248.346 402.869C248.852 402.609 249.417 402.479 250.041 402.479ZM250.041 403.977C249.717 403.977 249.43 404.038 249.18 404.161C248.929 404.28 248.733 404.457 248.592 404.694C248.451 404.931 248.38 405.209 248.38 405.528C248.38 405.843 248.451 406.118 248.592 406.355C248.733 406.592 248.929 406.777 249.18 406.909C249.43 407.037 249.717 407.101 250.041 407.101C250.351 407.101 250.629 407.037 250.875 406.909C251.126 406.777 251.319 406.592 251.456 406.355C251.597 406.118 251.668 405.843 251.668 405.528C251.668 405.209 251.597 404.931 251.456 404.694C251.319 404.457 251.128 404.28 250.882 404.161C250.636 404.038 250.355 403.977 250.041 403.977ZM257.055 409.104H255.318V401.803H257.055V409.104ZM252.803 409.363C253.678 409.363 254.437 409.459 255.079 409.65C255.726 409.842 256.223 410.122 256.569 410.491C256.916 410.86 257.091 411.3 257.096 411.811C257.091 412.316 256.916 412.752 256.569 413.116C256.223 413.485 255.726 413.768 255.079 413.964C254.437 414.16 253.678 414.258 252.803 414.258C251.928 414.258 251.169 414.16 250.526 413.964C249.888 413.768 249.396 413.485 249.05 413.116C248.703 412.752 248.53 412.316 248.53 411.811C248.53 411.3 248.703 410.86 249.05 410.491C249.396 410.122 249.888 409.842 250.526 409.65C251.169 409.459 251.928 409.363 252.803 409.363ZM252.803 410.689C252.247 410.694 251.777 410.737 251.395 410.819C251.016 410.901 250.727 411.027 250.526 411.195C250.33 411.359 250.235 411.564 250.239 411.811C250.235 412.048 250.33 412.248 250.526 412.412C250.727 412.572 251.016 412.695 251.395 412.781C251.777 412.863 252.247 412.904 252.803 412.904C253.368 412.904 253.842 412.863 254.225 412.781C254.607 412.695 254.897 412.572 255.093 412.412C255.289 412.248 255.387 412.048 255.387 411.811C255.387 411.564 255.289 411.359 255.093 411.195C254.897 411.027 254.607 410.901 254.225 410.819C253.842 410.737 253.368 410.694 252.803 410.689ZM268.156 405.973H265.012V404.578H268.156V405.973ZM262.141 402.343C262.751 402.343 263.307 402.47 263.809 402.726C264.31 402.976 264.704 403.327 264.991 403.778C265.283 404.225 265.431 404.729 265.436 405.289C265.431 405.859 265.283 406.369 264.991 406.82C264.704 407.271 264.31 407.627 263.809 407.887C263.307 408.142 262.751 408.27 262.141 408.27C261.507 408.27 260.938 408.142 260.432 407.887C259.93 407.627 259.536 407.271 259.249 406.82C258.966 406.369 258.825 405.859 258.825 405.289C258.825 404.729 258.966 404.225 259.249 403.778C259.536 403.327 259.93 402.976 260.432 402.726C260.938 402.47 261.507 402.343 262.141 402.343ZM262.141 403.799C261.817 403.794 261.53 403.851 261.279 403.97C261.029 404.088 260.833 404.261 260.691 404.489C260.55 404.717 260.479 404.984 260.479 405.289C260.479 405.594 260.55 405.861 260.691 406.089C260.833 406.317 261.029 406.494 261.279 406.622C261.53 406.745 261.817 406.809 262.141 406.813C262.455 406.809 262.735 406.745 262.981 406.622C263.232 406.494 263.426 406.317 263.562 406.089C263.699 405.861 263.768 405.594 263.768 405.289C263.768 404.984 263.699 404.717 263.562 404.489C263.426 404.261 263.232 404.088 262.981 403.97C262.735 403.851 262.455 403.794 262.141 403.799ZM269.154 408.509H267.418V401.803H269.154V408.509ZM262.578 410.245H267.418V409.049H269.154V414.121H260.855V409.049H262.578V410.245ZM267.418 412.713V411.592H262.578V412.713H267.418ZM273.051 407.258C274.359 407.253 275.382 407.233 276.12 407.196C276.863 407.16 277.608 407.078 278.355 406.95L278.526 408.311C277.701 408.452 276.865 408.543 276.018 408.584C275.17 408.625 274.006 408.643 272.524 408.639H271.451V407.258H272.524H273.051ZM277.48 403.922H273.208V407.832H271.451V402.527H277.48V403.922ZM277.118 406.246H272.668V404.893H277.118V406.246ZM281.179 409.213H279.436V401.83H281.179V409.213ZM281.179 414.121H272.846V409.719H281.179V414.121ZM274.562 412.72H279.47V411.079H274.562V412.72Z" fill="#1D1D1D"/>
<path d="M223.721 608.744H215.764V607.363H223.721V608.744ZM225.751 613.044H214.376V611.649H225.751V613.044ZM220.911 615.266H219.161V612.627H220.911V615.266ZM224.404 608.334C224.404 609.072 224.382 609.738 224.336 610.33C224.295 610.918 224.188 611.581 224.015 612.319L222.292 612.135C222.401 611.652 222.483 611.196 222.538 610.768C222.593 610.339 222.627 609.959 222.641 609.626C222.654 609.293 222.663 608.899 222.668 608.443V608.334V607.363H224.404V608.334ZM224.418 619.258H222.668V616.195H215.511V614.821H224.418V619.258ZM237.201 619.258H235.52V606.803H237.201V619.258ZM235.978 613.037H233.865V611.622H235.978V613.037ZM234.357 618.656H232.724V607.028H234.357V618.656ZM228.718 615.382H226.975V608.197H228.718V615.382ZM227.809 614.712C228.529 614.712 229.228 614.687 229.907 614.637C230.591 614.587 231.293 614.491 232.013 614.35L232.197 615.854C231.409 615.99 230.655 616.088 229.935 616.147C229.219 616.202 228.51 616.227 227.809 616.223H226.975V614.712H227.809ZM244.939 616.216H238.965V607.992H244.939V616.216ZM240.681 614.842H243.21V609.353H240.681V614.842ZM248.385 619.258H246.635V606.803H248.385V619.258ZM250.23 612.962H248.002V611.506H250.23V612.962ZM256.205 608.218C256.201 609.489 256.068 610.631 255.809 611.643C255.549 612.65 255.079 613.589 254.4 614.459C253.726 615.329 252.794 616.106 251.604 616.79L250.627 615.594C251.63 615.015 252.416 614.377 252.985 613.68C253.56 612.978 253.961 612.212 254.188 611.383C254.421 610.553 254.539 609.599 254.544 608.519V608.218H256.205ZM255.091 609.619H251.304V608.218H255.091V609.619ZM250.894 612.736L250.688 611.253L254.558 611.048V612.367L250.894 612.736ZM257.757 612.928H255.159V611.526H257.757V612.928ZM261.448 619.258H259.808V606.803H261.448V619.258ZM258.803 618.711H257.162V607.097H258.803V618.711ZM264.914 612.395C266.277 612.399 267.334 612.385 268.086 612.354C268.838 612.317 269.594 612.235 270.355 612.107L270.526 613.475C269.697 613.611 268.852 613.7 267.99 613.741C267.133 613.782 265.978 613.8 264.524 613.796H263.451V612.395H264.524H264.914ZM269.48 609.072H265.208V612.989H263.451V607.685H269.48V609.072ZM269.118 611.396H264.668V610.043H269.118V611.396ZM273.179 614.363H271.436V606.83H273.179V614.363ZM268.954 614.527C269.825 614.532 270.581 614.628 271.224 614.814C271.871 614.997 272.368 615.266 272.714 615.621C273.065 615.977 273.24 616.403 273.24 616.899C273.24 617.392 273.065 617.813 272.714 618.164C272.368 618.52 271.873 618.791 271.23 618.978C270.588 619.164 269.829 619.258 268.954 619.258C268.07 619.258 267.307 619.164 266.664 618.978C266.021 618.791 265.527 618.52 265.181 618.164C264.839 617.813 264.668 617.392 264.668 616.899C264.668 616.403 264.839 615.977 265.181 615.621C265.527 615.266 266.021 614.997 266.664 614.814C267.307 614.628 268.07 614.532 268.954 614.527ZM268.954 615.874C268.394 615.874 267.924 615.913 267.546 615.99C267.168 616.063 266.883 616.177 266.691 616.332C266.5 616.487 266.407 616.676 266.411 616.899C266.407 617.127 266.5 617.316 266.691 617.467C266.883 617.617 267.168 617.731 267.546 617.809C267.924 617.886 268.394 617.927 268.954 617.932C269.506 617.927 269.97 617.886 270.349 617.809C270.727 617.731 271.014 617.617 271.21 617.467C271.406 617.312 271.504 617.123 271.504 616.899C271.504 616.676 271.406 616.489 271.21 616.339C271.014 616.184 270.725 616.068 270.342 615.99C269.964 615.913 269.501 615.874 268.954 615.874ZM277.15 612.258C278.458 612.253 279.481 612.233 280.22 612.196C280.963 612.16 281.708 612.078 282.455 611.95L282.626 613.311C281.801 613.452 280.965 613.543 280.117 613.584C279.27 613.625 278.105 613.643 276.624 613.639H275.551V612.258H276.624H277.15ZM281.58 608.922H277.308V612.832H275.551V607.527H281.58V608.922ZM281.218 611.246H276.768V609.893H281.218V611.246ZM285.278 614.213H283.535V606.83H285.278V614.213ZM285.278 619.121H276.945V614.719H285.278V619.121ZM278.661 617.72H283.569V616.079H278.661V617.72Z" fill="#1D1D1D"/>
<path d="M230.741 244.968H227.05V243.566H230.741V244.968ZM230.741 247.976H227.05V246.581H230.741V247.976ZM231.855 250.929H230.119V241.83H231.855V250.929ZM232.156 254.046H223.598V252.638H232.156V254.046ZM225.348 253.355H223.598V250.006H225.348V253.355ZM224.842 242.548C225.443 242.548 225.995 242.687 226.496 242.965C227.002 243.243 227.401 243.628 227.692 244.12C227.984 244.612 228.132 245.166 228.137 245.781C228.132 246.387 227.982 246.934 227.686 247.422C227.394 247.91 226.997 248.295 226.496 248.577C225.995 248.855 225.443 248.994 224.842 248.994C224.217 248.994 223.652 248.855 223.146 248.577C222.645 248.295 222.249 247.91 221.957 247.422C221.67 246.934 221.526 246.387 221.526 245.781C221.526 245.166 221.67 244.612 221.957 244.12C222.249 243.628 222.645 243.243 223.146 242.965C223.652 242.687 224.217 242.548 224.842 242.548ZM224.842 244.1C224.518 244.095 224.231 244.161 223.98 244.298C223.73 244.435 223.534 244.631 223.393 244.886C223.251 245.141 223.181 245.439 223.181 245.781C223.181 246.118 223.251 246.412 223.393 246.663C223.534 246.914 223.73 247.107 223.98 247.244C224.231 247.376 224.518 247.445 224.842 247.449C225.152 247.445 225.43 247.376 225.676 247.244C225.922 247.107 226.116 246.914 226.257 246.663C226.398 246.412 226.469 246.118 226.469 245.781C226.469 245.439 226.398 245.143 226.257 244.893C226.116 244.637 225.922 244.441 225.676 244.305C225.43 244.163 225.152 244.095 224.842 244.1ZM242.656 243.929H234.768V242.548H242.656V243.929ZM244.823 249.247H233.476V247.839H244.823V249.247ZM239.963 254.271H238.213V248.816H239.963V254.271ZM243.49 243.724C243.486 244.316 243.477 244.833 243.463 245.275C243.449 245.717 243.404 246.228 243.326 246.807C243.253 247.385 243.142 248.01 242.991 248.68L241.269 248.488C241.414 247.855 241.521 247.26 241.59 246.704C241.658 246.144 241.701 245.654 241.72 245.234C241.738 244.815 241.747 244.309 241.747 243.717V243.655V242.548H243.49V243.655V243.724ZM256.301 254.258H254.619V241.803H256.301V254.258ZM255.125 247.928H253.006V246.526H255.125V247.928ZM250.982 243.354C250.978 244.576 250.834 245.686 250.552 246.684C250.274 247.677 249.8 248.598 249.13 249.445C248.46 250.288 247.56 251.038 246.43 251.694L245.418 250.498C246.366 249.938 247.125 249.322 247.694 248.652C248.269 247.982 248.681 247.244 248.932 246.438C249.187 245.631 249.317 244.717 249.321 243.696V243.354H250.982ZM249.827 244.742H246.047V243.354H249.827V244.742ZM253.484 253.704H251.857V242.131H253.484V253.704ZM259.767 243.854H262.316V242.37H264.066V247.805H258.037V242.37H259.767V243.854ZM262.316 246.431V245.159H259.767V246.431H262.316ZM267.539 248.146H265.796V241.803H267.539V248.146ZM269.221 245.651H266.814V244.236H269.221V245.651ZM267.539 251.995H261.024V253.485H259.309V250.744H265.803V249.965H259.288V248.618H267.539V251.995ZM267.901 254.169H259.309V252.802H267.901V254.169ZM272.051 247.258C273.359 247.253 274.382 247.233 275.12 247.196C275.863 247.16 276.608 247.078 277.355 246.95L277.526 248.311C276.701 248.452 275.865 248.543 275.018 248.584C274.17 248.625 273.006 248.643 271.524 248.639H270.451V247.258H271.524H272.051ZM276.48 243.922H272.208V247.832H270.451V242.527H276.48V243.922ZM276.118 246.246H271.668V244.893H276.118V246.246ZM280.179 249.213H278.436V241.83H280.179V249.213ZM280.179 254.121H271.846V249.719H280.179V254.121ZM273.562 252.72H278.47V251.079H273.562V252.72Z" fill="#1D1D1D"/>
<path d="M231.646 448.838H227.94V447.457H231.646V448.838ZM231.646 451.613H227.94V450.226H231.646V451.613ZM225.842 446.479C226.457 446.479 227.015 446.609 227.517 446.869C228.018 447.129 228.412 447.493 228.699 447.963C228.986 448.428 229.132 448.95 229.137 449.528C229.132 450.107 228.986 450.627 228.699 451.087C228.412 451.547 228.016 451.91 227.51 452.174C227.008 452.438 226.452 452.57 225.842 452.57C225.217 452.57 224.652 452.438 224.146 452.174C223.645 451.91 223.249 451.547 222.957 451.087C222.67 450.627 222.526 450.107 222.526 449.528C222.526 448.95 222.67 448.428 222.957 447.963C223.249 447.493 223.645 447.129 224.146 446.869C224.652 446.609 225.217 446.479 225.842 446.479ZM225.842 447.977C225.518 447.977 225.231 448.038 224.98 448.161C224.73 448.28 224.534 448.457 224.393 448.694C224.251 448.931 224.181 449.209 224.181 449.528C224.181 449.843 224.251 450.118 224.393 450.355C224.534 450.592 224.73 450.777 224.98 450.909C225.231 451.037 225.518 451.101 225.842 451.101C226.152 451.101 226.43 451.037 226.676 450.909C226.926 450.777 227.12 450.592 227.257 450.355C227.398 450.118 227.469 449.843 227.469 449.528C227.469 449.209 227.398 448.931 227.257 448.694C227.12 448.457 226.929 448.28 226.683 448.161C226.437 448.038 226.156 447.977 225.842 447.977ZM232.855 453.104H231.119V445.803H232.855V453.104ZM228.604 453.363C229.479 453.363 230.237 453.459 230.88 453.65C231.527 453.842 232.024 454.122 232.37 454.491C232.716 454.86 232.892 455.3 232.896 455.811C232.892 456.316 232.716 456.752 232.37 457.116C232.024 457.485 231.527 457.768 230.88 457.964C230.237 458.16 229.479 458.258 228.604 458.258C227.729 458.258 226.97 458.16 226.327 457.964C225.689 457.768 225.197 457.485 224.851 457.116C224.504 456.752 224.331 456.316 224.331 455.811C224.331 455.3 224.504 454.86 224.851 454.491C225.197 454.122 225.689 453.842 226.327 453.65C226.97 453.459 227.729 453.363 228.604 453.363ZM228.604 454.689C228.048 454.694 227.578 454.737 227.195 454.819C226.817 454.901 226.528 455.027 226.327 455.195C226.131 455.359 226.035 455.564 226.04 455.811C226.035 456.048 226.131 456.248 226.327 456.412C226.528 456.572 226.817 456.695 227.195 456.781C227.578 456.863 228.048 456.904 228.604 456.904C229.169 456.904 229.643 456.863 230.025 456.781C230.408 456.695 230.698 456.572 230.894 456.412C231.09 456.248 231.188 456.048 231.188 455.811C231.188 455.564 231.09 455.359 230.894 455.195C230.698 455.027 230.408 454.901 230.025 454.819C229.643 454.737 229.169 454.694 228.604 454.689ZM243.957 449.973H240.812V448.578H243.957V449.973ZM237.941 446.343C238.552 446.343 239.108 446.47 239.609 446.726C240.111 446.976 240.505 447.327 240.792 447.778C241.084 448.225 241.232 448.729 241.236 449.289C241.232 449.859 241.084 450.369 240.792 450.82C240.505 451.271 240.111 451.627 239.609 451.887C239.108 452.142 238.552 452.27 237.941 452.27C237.308 452.27 236.738 452.142 236.232 451.887C235.731 451.627 235.337 451.271 235.05 450.82C234.767 450.369 234.626 449.859 234.626 449.289C234.626 448.729 234.767 448.225 235.05 447.778C235.337 447.327 235.731 446.976 236.232 446.726C236.738 446.47 237.308 446.343 237.941 446.343ZM237.941 447.799C237.618 447.794 237.331 447.851 237.08 447.97C236.829 448.088 236.633 448.261 236.492 448.489C236.351 448.717 236.28 448.984 236.28 449.289C236.28 449.594 236.351 449.861 236.492 450.089C236.633 450.317 236.829 450.494 237.08 450.622C237.331 450.745 237.618 450.809 237.941 450.813C238.256 450.809 238.536 450.745 238.782 450.622C239.033 450.494 239.227 450.317 239.363 450.089C239.5 449.861 239.568 449.594 239.568 449.289C239.568 448.984 239.5 448.717 239.363 448.489C239.227 448.261 239.033 448.088 238.782 447.97C238.536 447.851 238.256 447.794 237.941 447.799ZM244.955 452.509H243.219V445.803H244.955V452.509ZM238.379 454.245H243.219V453.049H244.955V458.121H236.656V453.049H238.379V454.245ZM243.219 456.713V455.592H238.379V456.713H243.219ZM255.626 448.271H247.689V446.89H255.626V448.271ZM257.923 456.733H246.575V455.318H257.923V456.733ZM250.725 455.783H248.981V451.408H250.725V455.783ZM256.884 448.168C256.884 448.842 256.877 449.435 256.863 449.945C256.85 450.456 256.809 451.041 256.74 451.702C256.672 452.363 256.567 453.078 256.426 453.849L254.71 453.685C254.842 452.969 254.938 452.292 254.997 451.654C255.061 451.016 255.1 450.453 255.113 449.966C255.127 449.474 255.136 448.883 255.141 448.195V448.106V446.89H256.884V448.106V448.168ZM253.814 455.783H252.099V451.408H253.814V455.783ZM263.104 454.765H261.354V452.29H263.104V454.765ZM267.274 454.744H265.552V452.29H267.274V454.744ZM270.022 453.008H258.675V451.634H270.022V453.008ZM268.635 458.258H266.898V455.53H259.926V454.17H268.635V458.258ZM264.342 446.062C265.253 446.058 266.049 446.154 266.728 446.35C267.411 446.541 267.938 446.824 268.307 447.197C268.676 447.571 268.86 448.006 268.86 448.503C268.86 449.004 268.674 449.442 268.3 449.815C267.931 450.189 267.404 450.476 266.721 450.677C266.042 450.873 265.249 450.968 264.342 450.964C263.43 450.968 262.633 450.873 261.949 450.677C261.266 450.476 260.737 450.189 260.363 449.815C259.99 449.442 259.803 449.004 259.803 448.503C259.803 448.006 259.99 447.571 260.363 447.197C260.737 446.824 261.263 446.541 261.942 446.35C262.626 446.154 263.426 446.058 264.342 446.062ZM264.342 447.416C263.763 447.416 263.269 447.457 262.858 447.539C262.453 447.617 262.143 447.74 261.929 447.908C261.719 448.072 261.614 448.271 261.614 448.503C261.614 448.749 261.719 448.956 261.929 449.125C262.143 449.289 262.451 449.414 262.852 449.501C263.257 449.583 263.754 449.624 264.342 449.624C264.921 449.624 265.413 449.583 265.818 449.501C266.229 449.414 266.538 449.289 266.748 449.125C266.958 448.956 267.062 448.749 267.062 448.503C267.062 448.271 266.955 448.072 266.741 447.908C266.527 447.74 266.217 447.617 265.812 447.539C265.406 447.457 264.916 447.416 264.342 447.416ZM273.051 451.258C274.359 451.253 275.382 451.233 276.12 451.196C276.863 451.16 277.608 451.078 278.355 450.95L278.526 452.311C277.701 452.452 276.865 452.543 276.018 452.584C275.17 452.625 274.006 452.643 272.524 452.639H271.451V451.258H272.524H273.051ZM277.48 447.922H273.208V451.832H271.451V446.527H277.48V447.922ZM277.118 450.246H272.668V448.893H277.118V450.246ZM281.179 453.213H279.436V445.83H281.179V453.213ZM281.179 458.121H272.846V453.719H281.179V458.121ZM274.562 456.72H279.47V455.079H274.562V456.72Z" fill="#1D1D1D"/>
<path d="M220.371 654.098H214.349V652.71H220.371V654.098ZM217.384 654.658C217.908 654.658 218.377 654.784 218.792 655.034C219.211 655.285 219.537 655.636 219.77 656.087C220.002 656.534 220.118 657.042 220.118 657.611C220.118 658.186 220.002 658.696 219.77 659.143C219.537 659.589 219.211 659.942 218.792 660.202C218.377 660.457 217.908 660.585 217.384 660.585C216.864 660.585 216.395 660.457 215.976 660.202C215.556 659.942 215.23 659.589 214.998 659.143C214.766 658.691 214.649 658.181 214.649 657.611C214.649 657.046 214.766 656.54 214.998 656.094C215.235 655.643 215.561 655.292 215.976 655.041C216.395 654.786 216.864 654.658 217.384 654.658ZM217.384 656.107C217.142 656.107 216.93 656.167 216.748 656.285C216.57 656.404 216.431 656.577 216.331 656.805C216.231 657.033 216.183 657.301 216.188 657.611C216.183 657.921 216.231 658.188 216.331 658.411C216.431 658.634 216.57 658.805 216.748 658.924C216.93 659.042 217.14 659.102 217.377 659.102C217.618 659.102 217.83 659.042 218.013 658.924C218.195 658.805 218.336 658.634 218.437 658.411C218.541 658.188 218.594 657.921 218.594 657.611C218.594 657.301 218.541 657.033 218.437 656.805C218.336 656.577 218.193 656.404 218.006 656.285C217.824 656.167 217.616 656.107 217.384 656.107ZM225.129 663.258H223.468V650.803H225.129V663.258ZM224.021 657.27H221.93V655.882H224.021V657.27ZM222.463 662.725H220.829V651.062H222.463V662.725ZM218.238 653.585H216.522V651.158H218.238V653.585ZM231.363 659.676H229.62V657.023H231.363V659.676ZM230.502 651.555C231.154 651.555 231.742 651.685 232.266 651.944C232.79 652.204 233.2 652.566 233.496 653.031C233.797 653.492 233.947 654.016 233.947 654.604C233.947 655.191 233.797 655.718 233.496 656.183C233.2 656.643 232.79 657.003 232.266 657.263C231.742 657.518 231.154 657.646 230.502 657.646C229.85 657.646 229.26 657.518 228.731 657.263C228.207 657.003 227.795 656.643 227.494 656.183C227.193 655.718 227.043 655.191 227.043 654.604C227.043 654.02 227.193 653.496 227.494 653.031C227.795 652.566 228.207 652.204 228.731 651.944C229.26 651.685 229.85 651.555 230.502 651.555ZM230.502 653.052C230.169 653.052 229.873 653.113 229.613 653.236C229.354 653.355 229.148 653.533 228.998 653.77C228.848 654.002 228.772 654.28 228.772 654.604C228.772 654.918 228.848 655.194 228.998 655.431C229.148 655.663 229.354 655.843 229.613 655.971C229.878 656.098 230.174 656.162 230.502 656.162C230.83 656.162 231.129 656.098 231.397 655.971C231.666 655.843 231.874 655.663 232.02 655.431C232.17 655.194 232.245 654.918 232.245 654.604C232.245 654.28 232.17 654.002 232.02 653.77C231.874 653.533 231.666 653.355 231.397 653.236C231.133 653.113 230.835 653.052 230.502 653.052ZM236.921 663.292H235.191V650.803H236.921V663.292ZM226.523 659.348C228.036 659.348 229.447 659.323 230.755 659.272C232.063 659.222 233.307 659.115 234.487 658.951L234.61 660.209C233.763 660.368 232.885 660.489 231.979 660.571C231.076 660.649 230.24 660.699 229.47 660.722C228.7 660.744 227.795 660.758 226.756 660.763H226.729L226.523 659.348ZM244.939 660.216H238.965V651.992H244.939V660.216ZM240.681 658.842H243.21V653.353H240.681V658.842ZM248.385 663.258H246.635V650.803H248.385V663.258ZM250.23 656.962H248.002V655.506H250.23V656.962ZM256.205 652.218C256.201 653.489 256.068 654.631 255.809 655.643C255.549 656.65 255.079 657.589 254.4 658.459C253.726 659.329 252.794 660.106 251.604 660.79L250.627 659.594C251.63 659.015 252.416 658.377 252.985 657.68C253.56 656.978 253.961 656.212 254.188 655.383C254.421 654.553 254.539 653.599 254.544 652.519V652.218H256.205ZM255.091 653.619H251.304V652.218H255.091V653.619ZM250.894 656.736L250.688 655.253L254.558 655.048V656.367L250.894 656.736ZM257.757 656.928H255.159V655.526H257.757V656.928ZM261.448 663.258H259.808V650.803H261.448V663.258ZM258.803 662.711H257.162V651.097H258.803V662.711ZM264.914 656.395C266.277 656.399 267.334 656.385 268.086 656.354C268.838 656.317 269.594 656.235 270.355 656.107L270.526 657.475C269.697 657.611 268.852 657.7 267.99 657.741C267.133 657.782 265.978 657.8 264.524 657.796H263.451V656.395H264.524H264.914ZM269.48 653.072H265.208V656.989H263.451V651.685H269.48V653.072ZM269.118 655.396H264.668V654.043H269.118V655.396ZM273.179 658.363H271.436V650.83H273.179V658.363ZM268.954 658.527C269.825 658.532 270.581 658.628 271.224 658.814C271.871 658.997 272.368 659.266 272.714 659.621C273.065 659.977 273.24 660.403 273.24 660.899C273.24 661.392 273.065 661.813 272.714 662.164C272.368 662.52 271.873 662.791 271.23 662.978C270.588 663.164 269.829 663.258 268.954 663.258C268.07 663.258 267.307 663.164 266.664 662.978C266.021 662.791 265.527 662.52 265.181 662.164C264.839 661.813 264.668 661.392 264.668 660.899C264.668 660.403 264.839 659.977 265.181 659.621C265.527 659.266 266.021 658.997 266.664 658.814C267.307 658.628 268.07 658.532 268.954 658.527ZM268.954 659.874C268.394 659.874 267.924 659.913 267.546 659.99C267.168 660.063 266.883 660.177 266.691 660.332C266.5 660.487 266.407 660.676 266.411 660.899C266.407 661.127 266.5 661.316 266.691 661.467C266.883 661.617 267.168 661.731 267.546 661.809C267.924 661.886 268.394 661.927 268.954 661.932C269.506 661.927 269.97 661.886 270.349 661.809C270.727 661.731 271.014 661.617 271.21 661.467C271.406 661.312 271.504 661.123 271.504 660.899C271.504 660.676 271.406 660.489 271.21 660.339C271.014 660.184 270.725 660.068 270.342 659.99C269.964 659.913 269.501 659.874 268.954 659.874ZM277.15 656.258C278.458 656.253 279.481 656.233 280.22 656.196C280.963 656.16 281.708 656.078 282.455 655.95L282.626 657.311C281.801 657.452 280.965 657.543 280.117 657.584C279.27 657.625 278.105 657.643 276.624 657.639H275.551V656.258H276.624H277.15ZM281.58 652.922H277.308V656.832H275.551V651.527H281.58V652.922ZM281.218 655.246H276.768V653.893H281.218V655.246ZM285.278 658.213H283.535V650.83H285.278V658.213ZM285.278 663.121H276.945V658.719H285.278V663.121ZM278.661 661.72H283.569V660.079H278.661V661.72Z" fill="#1D1D1D"/>
<path d="M236.787 707.292H235.017V694.803H236.787V707.292ZM228.201 702.842C229.655 702.846 230.79 702.828 231.605 702.787C232.426 702.742 233.237 702.646 234.039 702.5L234.196 703.929C233.376 704.088 232.531 704.195 231.66 704.25C230.794 704.3 229.641 704.325 228.201 704.325H227.128V702.842H228.201ZM233.171 697.325H228.871V703.416H227.128V695.903H233.171V697.325ZM242.693 698.2C242.693 699.157 242.557 700.082 242.283 700.976C242.014 701.864 241.616 702.657 241.087 703.354C240.563 704.052 239.934 704.574 239.2 704.92L238.175 703.546C238.845 703.231 239.414 702.787 239.884 702.213C240.358 701.639 240.713 701.005 240.95 700.312C241.187 699.62 241.308 698.916 241.312 698.2V696.751H242.693V698.2ZM243.062 698.2C243.058 698.861 243.172 699.517 243.404 700.169C243.637 700.821 243.981 701.42 244.437 701.967C244.897 702.509 245.455 702.931 246.111 703.231L245.141 704.599C244.407 704.266 243.78 703.767 243.261 703.102C242.746 702.436 242.354 701.68 242.085 700.832C241.816 699.98 241.682 699.103 241.682 698.2V696.751H243.062V698.2ZM245.571 697.441H238.674V696.02H245.571V697.441ZM248.285 707.258H246.535V694.803H248.285V707.258ZM250.131 701.023H247.902V699.567H250.131V701.023ZM260.979 703.771H259.236V694.83H260.979V703.771ZM261.321 707.046H252.646V705.638H261.321V707.046ZM254.41 706.212H252.646V702.876H254.41V706.212ZM254.164 695.616C254.793 695.616 255.367 695.751 255.887 696.02C256.411 696.288 256.821 696.662 257.117 697.141C257.418 697.619 257.568 698.155 257.568 698.747C257.568 699.353 257.418 699.898 257.117 700.381C256.821 700.859 256.413 701.235 255.894 701.509C255.374 701.778 254.798 701.912 254.164 701.912C253.531 701.912 252.954 701.778 252.435 701.509C251.92 701.235 251.512 700.859 251.211 700.381C250.91 699.898 250.76 699.353 250.76 698.747C250.76 698.155 250.91 697.619 251.211 697.141C251.512 696.662 251.92 696.288 252.435 696.02C252.954 695.751 253.531 695.616 254.164 695.616ZM254.164 697.134C253.84 697.134 253.549 697.2 253.289 697.332C253.034 697.46 252.831 697.646 252.681 697.893C252.535 698.134 252.462 698.419 252.462 698.747C252.462 699.089 252.535 699.383 252.681 699.629C252.831 699.875 253.034 700.064 253.289 700.196C253.549 700.328 253.84 700.392 254.164 700.388C254.483 700.392 254.768 700.328 255.019 700.196C255.274 700.064 255.474 699.875 255.62 699.629C255.766 699.383 255.839 699.089 255.839 698.747C255.839 698.419 255.766 698.134 255.62 697.893C255.474 697.646 255.274 697.46 255.019 697.332C254.763 697.2 254.479 697.134 254.164 697.134ZM264.951 700.258C266.259 700.253 267.282 700.233 268.021 700.196C268.763 700.16 269.508 700.078 270.256 699.95L270.427 701.311C269.602 701.452 268.766 701.543 267.918 701.584C267.07 701.625 265.906 701.643 264.425 701.639H263.352V700.258H264.425H264.951ZM269.381 696.922H265.108V700.832H263.352V695.527H269.381V696.922ZM269.019 699.246H264.568V697.893H269.019V699.246ZM273.079 702.213H271.336V694.83H273.079V702.213ZM273.079 707.121H264.746V702.719H273.079V707.121ZM266.462 705.72H271.37V704.079H266.462V705.72Z" fill="#1D1D1D"/>
<path d="M238.779 343.34H233.486V341.367H238.779V343.34ZM238.779 347.305H233.486V345.322H238.779V347.305ZM230.488 339.971C231.367 339.971 232.165 340.156 232.881 340.527C233.597 340.898 234.16 341.419 234.57 342.09C234.98 342.754 235.189 343.499 235.195 344.326C235.189 345.153 234.98 345.895 234.57 346.553C234.16 347.21 233.594 347.728 232.871 348.105C232.155 348.483 231.361 348.672 230.488 348.672C229.596 348.672 228.789 348.483 228.066 348.105C227.35 347.728 226.784 347.21 226.367 346.553C225.957 345.895 225.752 345.153 225.752 344.326C225.752 343.499 225.957 342.754 226.367 342.09C226.784 341.419 227.35 340.898 228.066 340.527C228.789 340.156 229.596 339.971 230.488 339.971ZM230.488 342.109C230.026 342.109 229.616 342.197 229.258 342.373C228.9 342.542 228.62 342.796 228.418 343.135C228.216 343.473 228.115 343.87 228.115 344.326C228.115 344.775 228.216 345.169 228.418 345.508C228.62 345.846 228.9 346.11 229.258 346.299C229.616 346.481 230.026 346.572 230.488 346.572C230.931 346.572 231.328 346.481 231.68 346.299C232.038 346.11 232.314 345.846 232.51 345.508C232.712 345.169 232.812 344.775 232.812 344.326C232.812 343.87 232.712 343.473 232.51 343.135C232.314 342.796 232.041 342.542 231.689 342.373C231.338 342.197 230.938 342.109 230.488 342.109ZM240.508 349.434H238.027V339.004H240.508V349.434ZM234.434 349.805C235.684 349.805 236.768 349.941 237.686 350.215C238.61 350.488 239.32 350.889 239.814 351.416C240.309 351.943 240.56 352.572 240.566 353.301C240.56 354.023 240.309 354.645 239.814 355.166C239.32 355.693 238.61 356.097 237.686 356.377C236.768 356.657 235.684 356.797 234.434 356.797C233.184 356.797 232.1 356.657 231.182 356.377C230.27 356.097 229.567 355.693 229.072 355.166C228.577 354.645 228.33 354.023 228.33 353.301C228.33 352.572 228.577 351.943 229.072 351.416C229.567 350.889 230.27 350.488 231.182 350.215C232.1 349.941 233.184 349.805 234.434 349.805ZM234.434 351.699C233.639 351.706 232.969 351.768 232.422 351.885C231.882 352.002 231.468 352.181 231.182 352.422C230.902 352.656 230.765 352.949 230.771 353.301C230.765 353.639 230.902 353.926 231.182 354.16C231.468 354.388 231.882 354.564 232.422 354.688C232.969 354.805 233.639 354.863 234.434 354.863C235.241 354.863 235.918 354.805 236.465 354.688C237.012 354.564 237.425 354.388 237.705 354.16C237.985 353.926 238.125 353.639 238.125 353.301C238.125 352.949 237.985 352.656 237.705 352.422C237.425 352.181 237.012 352.002 236.465 351.885C235.918 351.768 235.241 351.706 234.434 351.699ZM256.367 344.961H251.875V342.969H256.367V344.961ZM247.773 339.775C248.646 339.775 249.44 339.958 250.156 340.322C250.872 340.68 251.436 341.182 251.846 341.826C252.262 342.464 252.474 343.184 252.48 343.984C252.474 344.798 252.262 345.527 251.846 346.172C251.436 346.816 250.872 347.324 250.156 347.695C249.44 348.06 248.646 348.242 247.773 348.242C246.868 348.242 246.055 348.06 245.332 347.695C244.616 347.324 244.053 346.816 243.643 346.172C243.239 345.527 243.037 344.798 243.037 343.984C243.037 343.184 243.239 342.464 243.643 341.826C244.053 341.182 244.616 340.68 245.332 340.322C246.055 339.958 246.868 339.775 247.773 339.775ZM247.773 341.855C247.311 341.849 246.901 341.93 246.543 342.1C246.185 342.269 245.905 342.516 245.703 342.842C245.501 343.167 245.4 343.548 245.4 343.984C245.4 344.421 245.501 344.801 245.703 345.127C245.905 345.452 246.185 345.706 246.543 345.889C246.901 346.064 247.311 346.156 247.773 346.162C248.223 346.156 248.623 346.064 248.975 345.889C249.333 345.706 249.609 345.452 249.805 345.127C250 344.801 250.098 344.421 250.098 343.984C250.098 343.548 250 343.167 249.805 342.842C249.609 342.516 249.333 342.269 248.975 342.1C248.623 341.93 248.223 341.849 247.773 341.855ZM257.793 348.584H255.312V339.004H257.793V348.584ZM248.398 351.064H255.312V349.355H257.793V356.602H245.938V349.355H248.398V351.064ZM255.312 354.59V352.988H248.398V354.59H255.312ZM276.338 351.23H260.088V349.277H276.338V351.23ZM269.395 356.797H266.924V350.234H269.395V356.797ZM264.443 341.748H271.914V339.707H274.414V347.559H261.982V339.707H264.443V341.748ZM271.914 345.566V343.701H264.443V345.566H271.914Z" fill="white"/>
<path d="M222.336 550.654H218.117V548.633H222.336V550.654ZM223.508 557.021H221.027V544.043H223.508V557.021ZM223.938 561.494H211.711V559.482H223.938V561.494ZM214.211 560.654H211.711V555.879H214.211V560.654ZM214.729 547.49C214.729 548.643 214.543 549.72 214.172 550.723C213.807 551.719 213.247 552.594 212.492 553.35C211.743 554.105 210.819 554.665 209.719 555.029L208.43 553.018C209.374 552.718 210.165 552.285 210.803 551.719C211.441 551.146 211.913 550.498 212.219 549.775C212.531 549.046 212.691 548.285 212.697 547.49V546.338H214.729V547.49ZM215.236 547.51C215.236 548.232 215.386 548.932 215.686 549.609C215.992 550.28 216.447 550.889 217.053 551.436C217.665 551.982 218.423 552.402 219.328 552.695L218.098 554.668C217.023 554.316 216.118 553.779 215.383 553.057C214.654 552.334 214.107 551.501 213.742 550.557C213.384 549.606 213.208 548.59 213.215 547.51V546.338H215.236V547.51ZM218.781 547.236H209.133V545.234H218.781V547.236ZM242.287 548.525H239.172V546.475H242.287V548.525ZM242.287 552.324H239.172V550.283H242.287V552.324ZM227.951 552.168C229.852 552.168 231.395 552.135 232.58 552.07C233.765 551.999 234.947 551.859 236.125 551.65L236.389 553.623C235.165 553.851 233.921 554.007 232.658 554.092C231.402 554.17 229.833 554.206 227.951 554.199H226.457V552.168H227.951ZM234.611 550.469H228.947V553.145H226.457V548.574H232.18V547.012H226.428V545.02H234.611V550.469ZM239.914 554.834H237.424V544.043H239.914V554.834ZM239.914 561.777H237.424V557.627H227.951V555.635H239.914V561.777ZM258.039 561.797H255.51V544.004H258.039V561.797ZM252.717 545.879C252.71 547.786 252.453 549.518 251.945 551.074C251.438 552.624 250.575 554.049 249.357 555.352C248.14 556.654 246.509 557.786 244.465 558.75L243.156 556.758C244.862 555.951 246.232 555.042 247.268 554.033C248.309 553.024 249.064 551.891 249.533 550.635C250.002 549.378 250.236 547.939 250.236 546.318V545.879H252.717ZM251.379 547.842H244.104V545.879H251.379V547.842ZM271.535 547.148H260.998V545.342H271.535V547.148ZM266.271 547.559C267.137 547.559 267.906 547.669 268.576 547.891C269.247 548.105 269.768 548.418 270.139 548.828C270.516 549.238 270.705 549.714 270.705 550.254C270.705 550.788 270.516 551.253 270.139 551.65C269.768 552.048 269.247 552.354 268.576 552.568C267.912 552.783 267.144 552.891 266.271 552.891C265.373 552.891 264.589 552.783 263.918 552.568C263.247 552.354 262.727 552.048 262.355 551.65C261.991 551.253 261.809 550.788 261.809 550.254C261.809 549.714 261.991 549.238 262.355 548.828C262.727 548.418 263.247 548.105 263.918 547.891C264.595 547.669 265.38 547.559 266.271 547.559ZM266.271 549.219C265.835 549.219 265.464 549.258 265.158 549.336C264.852 549.408 264.615 549.521 264.445 549.678C264.283 549.834 264.201 550.026 264.201 550.254C264.201 550.462 264.283 550.641 264.445 550.791C264.615 550.934 264.852 551.045 265.158 551.123C265.471 551.195 265.842 551.227 266.271 551.221C266.682 551.227 267.04 551.195 267.346 551.123C267.652 551.045 267.889 550.934 268.059 550.791C268.228 550.641 268.312 550.462 268.312 550.254C268.312 550.026 268.228 549.834 268.059 549.678C267.889 549.521 267.652 549.408 267.346 549.336C267.04 549.258 266.682 549.219 266.271 549.219ZM267.492 546.279H265.002V543.906H267.492V546.279ZM267.492 554.463H265.002V551.982H267.492V554.463ZM275.314 556.064H272.795V544.053H275.314V556.064ZM275.314 561.797H272.795V558.672H262.961V556.758H275.314V561.797ZM260.471 553.809C262.574 553.815 264.556 553.786 266.418 553.721C268.286 553.656 270.044 553.516 271.691 553.301L271.867 554.98C270.188 555.273 268.443 555.465 266.633 555.557C264.823 555.648 262.876 555.697 260.793 555.703L260.471 553.809ZM293.908 556.23H277.658V554.277H293.908V556.23ZM286.965 561.797H284.494V555.234H286.965V561.797ZM282.014 546.748H289.484V544.707H291.984V552.559H279.553V544.707H282.014V546.748ZM289.484 550.566V548.701H282.014V550.566H289.484Z" fill="white"/>
<path d="M97 141L152 141" stroke="#CCCCCC"/>
<path d="M96 348H158" stroke="#CCCCCC"/>
<path d="M96 553H158" stroke="#CCCCCC"/>
<path d="M96 66L96 553" stroke="#CCCCCC"/>
</svg>
