<svg width="178" height="47" viewBox="0 0 178 47" fill="none" xmlns="http://www.w3.org/2000/svg">
<g clip-path="url(#clip0_65_55)">
<path d="M53.6534 43.1221C53.5182 43.1221 53.383 43.1221 53.2478 43.1221L53.2748 40.4178C59.1214 40.4719 63.3455 39.2604 65.4548 36.9131C67.0882 35.0958 66.9151 33.1866 66.9151 33.1704L66.888 32.9324L66.9421 32.6998C67.1639 31.7588 65.0005 30.3363 63.7295 29.8009L62.7938 29.4115L62.9074 28.4055C63.4482 23.5595 62.5288 19.8492 60.1653 17.3883C56.4172 13.4834 50.1595 13.8674 50.0946 13.8728L48.4721 13.9864L49.5646 4.54852C38.0228 10.0165 37.1033 10.0165 36.7897 10.0165V7.31228C36.6977 7.31228 36.6382 7.32309 36.6328 7.32309C37.5901 7.12298 44.4914 3.98063 50.603 1.06003L52.8097 0.00537109L51.517 11.174C53.9833 11.2929 58.732 12.0015 62.1015 15.5008C64.8869 18.3943 66.093 22.5102 65.6819 27.7456C67.2342 28.5677 70.0683 30.4553 69.6139 33.1055C69.641 33.8951 69.549 36.3993 67.4613 38.7195C64.8328 41.6455 60.1923 43.1221 53.6534 43.1221Z" fill="white"/>
<path d="M14.4456 47.0001C9.47514 47.0001 3.75293 42.657 3.02278 42.0891L2.84971 41.9539L2.73072 41.77C-3.52152 32.3322 2.81185 22.5482 3.64476 21.3367C10.5893 6.74991 26.2848 6.27937 26.9555 6.26855H27.0258H27.0961C42.386 7.62068 44.1545 20.401 44.3438 24.1599C46.4315 24.9279 51.3965 27.0751 53.6897 30.807L53.9602 31.2451L53.8682 31.7535C53.7871 32.197 51.7859 42.5921 41.8451 44.9989L41.7315 45.0206C41.3042 45.0855 31.1849 46.562 24.1052 39.9528L25.9495 37.9787C31.8177 43.4575 40.52 42.4515 41.2664 42.3542C48.3894 40.591 50.5961 33.7384 51.0882 31.7805C48.5517 28.2596 42.6726 26.4423 42.6131 26.4207L41.6071 26.1124L41.6558 25.0631C41.6828 24.4628 42.1047 10.352 26.9284 8.962C25.7115 9.00526 12.0712 9.75705 6.02991 22.586L5.8947 22.8132C5.62968 23.1756 -0.519796 31.7102 4.85627 40.0772C6.99804 41.7051 12.677 45.2315 15.9059 44.047C16.9335 43.6684 17.6582 42.8085 18.1179 41.4185L18.9779 37.4432C19.0158 37.2756 19.059 37.0863 19.1131 36.897C19.1239 36.8375 19.1293 36.805 19.1347 36.7888H19.1456C19.2213 36.5508 19.3186 36.3183 19.4538 36.1236C21.5145 28.5625 25.6574 15.7118 30.5467 13.3699L31.715 15.8092C27.8965 17.6373 23.467 30.926 21.2116 40.0988C21.1521 40.3747 21.0926 40.6721 21.0223 40.9966C20.4112 43.9172 18.9995 45.8048 16.8307 46.5944C16.0735 46.8703 15.2677 46.9947 14.4402 46.9947L14.4456 47.0001Z" fill="white"/>
<path d="M58.661 30.0388C59.7811 30.0388 60.6892 29.1308 60.6892 28.0106C60.6892 26.8905 59.7811 25.9824 58.661 25.9824C57.5409 25.9824 56.6328 26.8905 56.6328 28.0106C56.6328 29.1308 57.5409 30.0388 58.661 30.0388Z" fill="white"/>
<path d="M86.8182 23.5053C86.8182 23.911 86.5748 24.1544 86.1908 24.1327C84.314 24.03 82.5779 23.911 80.9391 23.911C77.8508 23.911 77.0017 24.0949 77.0017 24.798C77.0017 25.5011 77.6507 25.685 80.4145 25.685C81.745 25.685 84.0869 25.566 86.353 25.3226C86.737 25.2847 86.9371 25.4849 86.9804 25.95L87.0832 27.1831C87.1264 27.5671 86.9209 27.7672 86.4558 27.8105C85.0442 27.9295 83.5298 28.0755 82.1939 28.135V28.638C82.1939 29.022 82.4373 29.2438 82.9186 29.2654C83.9084 29.3033 86.3909 29.2221 87.9648 29.1032C88.3866 29.0653 88.6516 29.287 88.6516 29.7089V30.8988C88.6516 31.2611 88.4515 31.5045 87.9864 31.5424C86.7316 31.6614 83.8651 31.7046 80.7173 31.7046C77.8887 31.7046 75.2223 31.683 73.4699 31.5424C73.0048 31.5045 72.8047 31.2774 72.8047 30.8988V29.7089C72.8047 29.287 73.0481 29.0653 73.4699 29.1032C74.9843 29.2221 77.5263 29.2654 79.7114 29.287C79.4301 29.1681 79.2679 28.903 79.2679 28.5785V28.135C75.4927 27.9728 74.0757 27.0263 74.0757 24.8034C74.0757 22.3209 75.9362 21.4285 81.004 21.4285C82.4805 21.4285 83.9949 21.4501 86.1962 21.6502C86.6397 21.6881 86.8236 21.872 86.8236 22.2776V23.5107L86.8182 23.5053ZM87.7917 35.88C87.7917 38.3842 85.7905 39.3956 80.885 39.3956C75.9795 39.3956 73.9783 38.3842 73.9783 35.88C73.9783 33.3759 75.9795 32.3645 80.885 32.3645C85.7905 32.3645 87.7917 33.3759 87.7917 35.88ZM80.885 36.9725C84.076 36.9725 84.8657 36.7508 84.8657 35.88C84.8657 35.0092 84.076 34.7875 80.885 34.7875C77.694 34.7875 76.9043 35.0092 76.9043 35.88C76.9043 36.7508 77.694 36.9725 80.885 36.9725Z" fill="white"/>
<path d="M95.0762 36.7724C95.0762 37.2159 95.7036 37.2592 99.6789 37.2592C101.334 37.2592 103.86 37.1402 105.19 36.8968C105.515 36.8373 105.736 36.9996 105.753 37.3187L105.855 38.4923C105.877 38.7736 105.693 38.9791 105.39 39.017C103.935 39.2171 101.35 39.3793 99.6951 39.3793C93.8593 39.3793 92.1448 38.8763 92.1448 36.7346C92.1448 34.5928 94.1243 34.1114 98.5268 34.1114C99.6356 34.1114 100.912 34.0898 101.799 34.0898C102.324 34.0898 102.545 33.9708 102.545 33.6842C102.545 33.3813 102.345 33.2623 101.837 33.2623C99.9168 33.2623 95.4548 33.4029 93.0696 33.603C92.7451 33.6247 92.545 33.4408 92.545 33.1163V31.9426C92.545 31.6397 92.7073 31.4775 93.0696 31.4559C94.3244 31.3747 95.7577 31.2936 97.2288 31.2341V30.9691C97.2288 30.7041 97.3478 30.4823 97.5912 30.3633C95.206 30.385 93.0264 30.3417 91.393 30.2227C90.9279 30.1849 90.7656 30.001 90.7656 29.617V28.5461C90.7656 28.1242 90.9657 27.9403 91.393 27.9782C93.1291 28.1188 95.8334 28.1404 98.6621 28.1404C101.815 28.1404 104.72 28.1026 105.974 27.9782C106.396 27.9403 106.618 28.1188 106.618 28.5461V29.617C106.618 29.9793 106.456 30.1849 105.991 30.2227C105.001 30.3255 102.637 30.385 100.782 30.385C100.339 30.385 100.155 30.5689 100.155 30.9096V31.1746C101.307 31.1746 102.416 31.1746 103.427 31.2179C104.72 31.2557 105.444 31.7209 105.444 32.6944C105.444 33.484 105.001 34.0465 104.271 34.2899H104.757C105.06 34.2899 105.282 34.4738 105.282 34.7551V35.8043C105.282 36.0855 105.082 36.2911 104.757 36.2911C103.281 36.2911 102.253 36.2316 98.5593 36.2316C95.59 36.2316 95.0654 36.3506 95.0654 36.7778L95.0762 36.7724ZM104.893 25.3226C105.255 25.3226 105.439 25.5065 105.439 25.8689V26.8965C105.439 27.2372 105.255 27.4427 104.893 27.4427H94.7138C93.2211 27.4427 92.4531 26.7775 92.4531 25.4849V22.4561C92.4531 21.7692 92.7938 21.4285 93.4645 21.4285H103.075C104.487 21.4285 105.196 22.0126 105.196 23.2241C105.196 24.1327 104.611 24.9224 103.66 25.3226H104.893ZM102.226 24.2896C102.226 23.8677 102.005 23.646 101.518 23.646H95.8604C95.5197 23.646 95.3737 23.7866 95.3737 24.1327V24.5762C95.3737 24.9981 95.6387 25.2198 96.1417 25.2198H101.128C101.734 25.2198 102.221 24.8142 102.221 24.2896H102.226Z" fill="white"/>
<path d="M108.744 36.5073V35.0145C108.744 34.5927 108.988 34.3655 109.409 34.4088C110.924 34.5494 113.569 34.7117 115.829 34.7712C115.445 34.5873 115.202 34.2033 115.202 33.7003V32.1264H113.163C111.508 32.1264 110.518 31.2394 110.459 29.7412L110.156 22.6939C110.134 22.2883 110.399 22.0449 110.821 22.0449H112.417C112.882 22.0449 113.082 22.2072 113.103 22.629L113.163 24.3652H120.151L120.21 22.629C120.232 22.2234 120.432 22.0449 120.897 22.0449H122.493C122.936 22.0449 123.179 22.2883 123.158 22.6939L122.855 29.7412C122.795 31.234 121.806 32.1264 120.151 32.1264H118.133V33.8625C118.133 34.7117 118.761 34.7117 119.404 34.7117C120.513 34.7117 122.514 34.5927 123.91 34.4088C124.331 34.3493 124.596 34.5927 124.596 35.0145V36.5073C124.596 36.8697 124.396 37.0752 123.931 37.1563C122.676 37.3781 119.81 37.4971 116.662 37.4971C113.834 37.4971 111.167 37.3943 109.415 37.1563C108.95 37.0968 108.75 36.8913 108.75 36.5073H108.744ZM113.352 28.7353C113.374 29.2004 113.596 29.4005 114.099 29.4005H119.226C119.729 29.4005 119.951 29.2004 119.972 28.7353L120.032 27.1019H113.287L113.347 28.7353H113.352Z" fill="white"/>
<path d="M141.196 29.3573C141.196 31.5586 139.963 32.6295 136.106 32.808V33.96C136.106 34.4846 136.307 34.6847 136.874 34.7064C137.864 34.7496 140.309 34.6036 141.883 34.4035C142.305 34.344 142.57 34.5874 142.57 35.0092V36.502C142.57 36.8644 142.369 37.0699 141.904 37.151C140.65 37.3728 137.783 37.4917 134.635 37.4917C131.807 37.4917 129.14 37.389 127.388 37.151C126.923 37.0915 126.723 36.886 126.723 36.502V35.0092C126.723 34.5874 126.966 34.3602 127.388 34.4035C128.902 34.5441 131.369 34.728 133.608 34.7658C133.326 34.6252 133.186 34.344 133.186 33.9167V32.7863C129.551 32.5646 128.399 31.5153 128.399 29.3519C128.399 26.9668 129.892 25.9392 134.803 25.9392C139.714 25.9392 141.207 26.9668 141.207 29.3519L141.196 29.3573ZM134.046 20.7957H135.722C136.144 20.7957 136.35 20.9958 136.35 21.423V22.0072C136.35 22.2722 136.534 22.4507 136.896 22.4507H141.115C141.52 22.4507 141.742 22.6724 141.742 23.078V24.4085C141.742 24.8142 141.52 25.0359 141.115 25.0359H128.475C128.069 25.0359 127.848 24.8142 127.848 24.4085V23.078C127.848 22.6724 128.069 22.4507 128.475 22.4507H133.727C133.527 22.3317 133.424 22.1478 133.424 21.8665V21.423C133.424 21.0012 133.624 20.7957 134.051 20.7957H134.046ZM138.308 29.3573C138.308 28.7137 137.983 28.3676 134.792 28.3676C131.601 28.3676 131.277 28.7083 131.277 29.3573C131.277 30.0658 131.601 30.4066 134.792 30.4066C137.983 30.4066 138.308 30.0658 138.308 29.3573Z" fill="white"/>
<path d="M152.142 28.3513C152.564 28.3513 152.769 28.5514 152.769 28.9354V30.4498C152.769 30.8338 152.585 31.0772 152.185 31.0772C150.552 31.0772 149.097 29.9468 148.588 28.4108C148.042 29.9847 146.425 31.0772 144.77 31.0772C144.348 31.0772 144.143 30.8122 144.143 30.4498V28.9354C144.143 28.5514 144.364 28.3513 144.808 28.3513C146.322 28.3513 147.193 27.1019 147.193 25.647V22.072C147.193 21.6501 147.393 21.4446 147.82 21.4446H149.313C149.735 21.4446 149.941 21.6447 149.941 22.1694V25.6416C149.941 27.156 150.687 28.3459 152.142 28.3459V28.3513ZM146.89 35.377C146.89 34.3656 146.95 33.9004 147.009 33.4191C147.069 32.9972 147.252 32.7538 147.674 32.7538H149.27C149.692 32.7538 149.995 32.9972 149.935 33.4191C149.854 34.0465 149.816 34.3872 149.816 34.9335C149.816 36.0855 150.562 36.648 152.098 36.648C155.025 36.648 158.34 36.4857 160.482 36.2856C160.887 36.2423 161.087 36.5073 161.109 36.913L161.212 38.3895C161.233 38.7951 160.99 38.9736 160.584 39.0169C158.567 39.2386 155.495 39.3793 151.742 39.3793C148.653 39.3793 146.896 37.9244 146.896 35.3824L146.89 35.377ZM153.575 26.6314H152.223C151.817 26.6314 151.596 26.4096 151.596 26.004V24.5275C151.596 24.1218 151.817 23.9001 152.223 23.9001H153.618C154.024 23.9001 154.246 23.7 154.246 23.316V21.8016C154.246 21.3797 154.446 21.1742 154.873 21.1742H156.35C156.771 21.1742 156.977 21.3743 156.977 21.8016V32.9918C156.977 33.4137 156.777 33.6192 156.35 33.6192H154.873C154.451 33.6192 154.246 33.4191 154.246 32.9918V26.3285C154.105 26.5124 153.862 26.6314 153.58 26.6314H153.575ZM158.6 20.9795H160.076C160.498 20.9795 160.703 21.1796 160.703 21.6069V32.9972C160.703 33.4191 160.503 33.6246 160.076 33.6246H158.6C158.178 33.6246 157.972 33.4245 157.972 32.9972V21.6069C157.972 21.185 158.172 20.9795 158.6 20.9795Z" fill="white"/>
<path d="M168.941 33.8031C169.85 33.8031 170.861 33.5597 171.932 33.1757C172.051 33.1379 172.154 33.1162 172.257 33.1162C172.522 33.1162 172.722 33.2569 172.803 33.5597L173.187 34.9335C173.306 35.3554 173.187 35.5771 172.765 35.761C171.635 36.2478 170.12 36.529 168.666 36.529C165.334 36.529 163.295 34.5279 163.295 31.3801C163.295 27.9457 165.231 26.1879 168.887 26.1879C169.915 26.1879 170.845 26.2474 171.532 26.3502C171.954 26.4097 172.1 26.6531 172.1 27.0587V28.5515C172.1 28.995 171.835 29.1788 171.435 29.1139C170.667 28.995 169.818 28.93 169.212 28.93C167.173 28.93 166.221 29.7197 166.221 31.4126C166.221 32.8674 167.211 33.7977 168.947 33.7977L168.941 33.8031ZM172.657 22.9158V24.3112C172.657 24.733 172.414 24.9764 171.992 24.9764H164.176C163.755 24.9764 163.511 24.733 163.511 24.3112V22.9158C163.511 22.4939 163.755 22.2505 164.176 22.2505H171.992C172.414 22.2505 172.657 22.4939 172.657 22.9158ZM175.561 20.9795H177.157C177.579 20.9795 177.822 21.2229 177.822 21.6448V38.4058C177.822 38.8276 177.579 39.071 177.157 39.071H175.561C175.14 39.071 174.896 38.8276 174.896 38.4058V31.6397C174.674 32.0021 174.231 32.2022 173.685 32.2022H172.976C172.571 32.2022 172.349 31.9805 172.349 31.5748V30.0009C172.349 29.5953 172.571 29.3735 172.976 29.3735H173.766C174.453 29.3735 174.896 28.9517 174.896 28.3027V21.6394C174.896 21.2175 175.14 20.9741 175.561 20.9741V20.9795Z" fill="white"/>
<path d="M35.015 29.0114C36.3263 29.0114 37.3893 27.9483 37.3893 26.637C37.3893 25.3257 36.3263 24.2627 35.015 24.2627C33.7037 24.2627 32.6406 25.3257 32.6406 26.637C32.6406 27.9483 33.7037 29.0114 35.015 29.0114Z" fill="white"/>
</g>
<defs>
<clipPath id="clip0_65_55">
<rect width="177.821" height="47" fill="white"/>
</clipPath>
</defs>
</svg>
